<?xml version="1.0" encoding="UTF-8"?>
<!DOCTYPE svg PUBLIC "-//W3C//DTD SVG 1.1//EN" "http://www.w3.org/Graphics/SVG/1.1/DTD/svg11.dtd">
<svg xmlns="http://www.w3.org/2000/svg" version="1.1" width="100px" height="165px" style="shape-rendering:geometricPrecision; text-rendering:geometricPrecision; image-rendering:optimizeQuality; fill-rule:evenodd; clip-rule:evenodd" xmlns:xlink="http://www.w3.org/1999/xlink">
<g><path style="opacity:1" fill="#fdfdfc" d="M 55.5,-0.5 C 70.1667,-0.5 84.8333,-0.5 99.5,-0.5C 99.5,54.5 99.5,109.5 99.5,164.5C 96.5,164.5 93.5,164.5 90.5,164.5C 89.2821,159.473 89.2821,154.306 90.5,149C 86.8782,148.098 83.5449,146.598 80.5,144.5C 80.8076,143.692 81.3076,143.025 82,142.5C 82.1695,139.532 82.3362,136.699 82.5,134C 81.5,133.167 80.5,132.333 79.5,131.5C 80.3914,130.41 81.3914,130.41 82.5,131.5C 83.4287,130.311 83.762,128.978 83.5,127.5C 82.1667,127.5 80.8333,127.5 79.5,127.5C 79.5,118.833 79.5,110.167 79.5,101.5C 80.8333,101.5 82.1667,101.5 83.5,101.5C 83.4208,100.07 83.7542,98.7362 84.5,97.5C 83.0499,96.1502 82.3832,94.4835 82.5,92.5C 84.9176,86.1566 86.2509,79.49 86.5,72.5C 86.0901,68.6133 85.0901,64.9466 83.5,61.5C 83.4332,59.5992 83.7665,57.7659 84.5,56C 82.7591,54.4544 81.7591,52.4544 81.5,50C 82.7599,47.339 82.7599,45.1723 81.5,43.5C 79.7127,42.684 78.0461,41.684 76.5,40.5C 74.9441,36.9837 73.1107,33.6504 71,30.5C 70.3311,33.0278 69.4978,33.0278 68.5,30.5C 68.8333,29.8333 69.1667,29.1667 69.5,28.5C 68.5109,27.5318 67.8443,26.3651 67.5,25C 68.8333,22.3333 68.8333,19.6667 67.5,17C 67.8333,16.1667 68.1667,15.3333 68.5,14.5C 69.3957,15.5063 70.0623,15.5063 70.5,14.5C 67.4985,14.1301 65.1652,12.7968 63.5,10.5C 63.7822,9.22235 64.4489,8.22235 65.5,7.5C 68.5341,7.39055 69.5341,6.05721 68.5,3.5C 65.223,2.7463 61.8897,2.2463 58.5,2C 56.8807,1.76445 55.8807,0.931117 55.5,-0.5 Z"/></g>
<g><path style="opacity:1" fill="#ada290" d="M 58.5,5.5 C 61.3878,4.98983 63.7211,5.65649 65.5,7.5C 64.4489,8.22235 63.7822,9.22235 63.5,10.5C 62.0221,11.4475 61.0221,12.7809 60.5,14.5C 60.5,13.5 60.5,12.5 60.5,11.5C 60.0293,9.42136 59.3627,7.42136 58.5,5.5 Z"/></g>
<g><path style="opacity:1" fill="#f8f9f6" d="M -0.5,-0.5 C 18.1667,-0.5 36.8333,-0.5 55.5,-0.5C 55.8807,0.931117 56.8807,1.76445 58.5,2C 61.8897,2.2463 65.223,2.7463 68.5,3.5C 69.5341,6.05721 68.5341,7.39055 65.5,7.5C 63.7211,5.65649 61.3878,4.98983 58.5,5.5C 55.7173,5.87853 52.884,5.21186 50,3.5C 48.6736,4.7989 47.3402,6.13224 46,7.5C 43.841,5.04372 43.0077,5.71038 43.5,9.5C 41.1432,9.33669 38.8098,9.50335 36.5,10C 38.1275,12.0197 39.9608,13.853 42,15.5C 42.49,16.7932 42.6567,18.1266 42.5,19.5C 42.3219,22.3219 41.6552,24.9885 40.5,27.5C 40.5195,28.7261 40.8529,29.7261 41.5,30.5C 41.9175,31.2216 42.5842,31.7216 43.5,32C 40.8133,33.0486 38.48,34.5486 36.5,36.5C 34.5,36.8333 32.5,37.1667 30.5,37.5C 30.6664,29.8261 30.4997,22.1594 30,14.5C 28.609,11.6639 26.7757,9.33055 24.5,7.5C 21.0419,3.58009 17.3752,3.58009 13.5,7.5C 11.3405,13.864 11.0072,20.1973 12.5,26.5C 12.2627,27.791 12.596,28.791 13.5,29.5C 14.1614,32.7871 14.6614,36.1204 15,39.5C 18.0349,44.4283 20.2016,49.7616 21.5,55.5C 17.1121,56.8909 15.1121,59.8909 15.5,64.5C 13.9666,66.6345 13.2999,69.1345 13.5,72C 13.5056,74.0326 13.8389,75.866 14.5,77.5C 14.9257,87.1711 16.5924,96.5044 19.5,105.5C 21.3933,107.228 23.06,109.228 24.5,111.5C 22.3322,119.678 21.3322,128.012 21.5,136.5C 21.2618,141.439 19.4285,145.772 16,149.5C 15.3207,153.06 13.9873,156.06 12,158.5C 13.1711,159.893 14.6711,160.727 16.5,161C 25.5883,161.208 34.5883,161.375 43.5,161.5C 51.1667,161.5 58.8333,161.5 66.5,161.5C 66.56,162.043 66.8933,162.376 67.5,162.5C 73.1152,161.711 78.7818,161.211 84.5,161C 86.0581,160.79 87.3915,160.29 88.5,159.5C 88.6567,158.127 88.49,156.793 88,155.5C 85.4921,154.964 83.6587,153.631 82.5,151.5C 81.469,150.751 80.3024,150.085 79,149.5C 78.3333,133.167 78.3333,116.833 79,100.5C 79.5782,97.4702 80.7448,94.8035 82.5,92.5C 82.3832,94.4835 83.0499,96.1502 84.5,97.5C 83.7542,98.7362 83.4208,100.07 83.5,101.5C 82.1667,101.5 80.8333,101.5 79.5,101.5C 79.5,110.167 79.5,118.833 79.5,127.5C 80.8333,127.5 82.1667,127.5 83.5,127.5C 83.762,128.978 83.4287,130.311 82.5,131.5C 81.3914,130.41 80.3914,130.41 79.5,131.5C 80.5,132.333 81.5,133.167 82.5,134C 82.3362,136.699 82.1695,139.532 82,142.5C 81.3076,143.025 80.8076,143.692 80.5,144.5C 83.5449,146.598 86.8782,148.098 90.5,149C 89.2821,154.306 89.2821,159.473 90.5,164.5C 60.1667,164.5 29.8333,164.5 -0.5,164.5C -0.5,109.5 -0.5,54.5 -0.5,-0.5 Z"/></g>
<g><path style="opacity:1" fill="#9c8364" d="M 58.5,5.5 C 59.3627,7.42136 60.0293,9.42136 60.5,11.5C 58.5328,11.7394 56.6995,11.4061 55,10.5C 54.5,12.3333 53.3333,13.5 51.5,14C 51.7284,14.3988 52.0618,14.5654 52.5,14.5C 51.469,15.2485 50.3024,15.9152 49,16.5C 48.015,19.9602 47.8483,23.2935 48.5,26.5C 50.9928,26.6709 52.8261,25.6709 54,23.5C 55.7787,26.2764 56.7787,25.9431 57,22.5C 57.8518,23.5707 58.6851,24.5707 59.5,25.5C 59.2287,27.3117 58.562,28.9783 57.5,30.5C 56.1687,29.8338 54.6687,29.8338 53,30.5C 50.778,28.8057 48.278,27.8057 45.5,27.5C 45.4208,26.0695 45.7542,24.7362 46.5,23.5C 45.7376,23.0894 44.7376,22.9227 43.5,23C 45.1217,21.7049 46.455,20.2049 47.5,18.5C 47.1667,17.8333 46.8333,17.1667 46.5,16.5C 44.8405,17.1716 43.5072,18.1716 42.5,19.5C 42.6567,18.1266 42.49,16.7932 42,15.5C 39.9608,13.853 38.1275,12.0197 36.5,10C 38.8098,9.50335 41.1432,9.33669 43.5,9.5C 43.0077,5.71038 43.841,5.04372 46,7.5C 47.3402,6.13224 48.6736,4.7989 50,3.5C 52.884,5.21186 55.7173,5.87853 58.5,5.5 Z"/></g>
<g><path style="opacity:1" fill="#568ba3" d="M 24.5,7.5 C 23.8333,7.5 23.5,7.83333 23.5,8.5C 19.7922,5.60815 16.6255,6.27481 14,10.5C 13.3333,12.1667 13.3333,13.8333 14,15.5C 15.4114,17.6504 16.2447,19.9837 16.5,22.5C 15.1077,20.7274 13.941,18.7274 13,16.5C 12.3179,18.9383 12.8179,21.1049 14.5,23C 14.3893,24.7215 13.8893,24.8882 13,23.5C 12.5172,24.448 12.3505,25.448 12.5,26.5C 11.0072,20.1973 11.3405,13.864 13.5,7.5C 17.3752,3.58009 21.0419,3.58009 24.5,7.5 Z"/></g>
<g><path style="opacity:1" fill="#33a2cb" d="M 23.5,8.5 C 24.8689,10.7323 25.8689,13.0656 26.5,15.5C 26.5,18.5 26.5,21.5 26.5,24.5C 25.7784,24.9175 25.2784,25.5842 25,26.5C 24.0906,21.7315 23.2573,21.5648 22.5,26C 23.0908,33.5644 24.7575,40.731 27.5,47.5C 28.0128,53.3554 28.6794,59.1888 29.5,65C 29.1667,67.5 28.8333,70 28.5,72.5C 27.3659,69.4243 26.3659,66.4243 25.5,63.5C 25.6653,59.8183 25.4986,56.1516 25,52.5C 22.0959,50.6425 20.4293,47.9759 20,44.5C 19.6667,38.5 19.3333,32.5 19,26.5C 18.6174,25.944 18.1174,25.6107 17.5,25.5C 16.596,24.791 16.2627,23.791 16.5,22.5C 16.2447,19.9837 15.4114,17.6504 14,15.5C 13.3333,13.8333 13.3333,12.1667 14,10.5C 16.6255,6.27481 19.7922,5.60815 23.5,8.5 Z"/></g>
<g><path style="opacity:1" fill="#193542" d="M 28.5,36.5 C 26.0523,36.9153 24.7189,35.9153 24.5,33.5C 26.0638,30.6944 26.7305,27.6944 26.5,24.5C 26.5,21.5 26.5,18.5 26.5,15.5C 26.3505,14.448 26.5172,13.448 27,12.5C 27.3333,12.8333 27.6667,13.1667 28,13.5C 28.4997,21.1594 28.6664,28.8261 28.5,36.5 Z"/></g>
<g><path style="opacity:1" fill="#e0c6af" d="M 52.5,14.5 C 54.7128,14.848 56.7128,15.6813 58.5,17C 57.552,17.4828 56.552,17.6495 55.5,17.5C 55.5,18.5 55.5,19.5 55.5,20.5C 56.8333,20.5 58.1667,20.5 59.5,20.5C 59.5,22.1667 59.5,23.8333 59.5,25.5C 58.6851,24.5707 57.8518,23.5707 57,22.5C 56.7787,25.9431 55.7787,26.2764 54,23.5C 52.8261,25.6709 50.9928,26.6709 48.5,26.5C 47.8483,23.2935 48.015,19.9602 49,16.5C 50.3024,15.9152 51.469,15.2485 52.5,14.5 Z"/></g>
<g><path style="opacity:1" fill="#f4f3ea" d="M 63.5,10.5 C 65.1652,12.7968 67.4985,14.1301 70.5,14.5C 70.0623,15.5063 69.3957,15.5063 68.5,14.5C 68.1667,15.3333 67.8333,16.1667 67.5,17C 68.8333,19.6667 68.8333,22.3333 67.5,25C 67.8443,26.3651 68.5109,27.5318 69.5,28.5C 69.1667,29.1667 68.8333,29.8333 68.5,30.5C 69.4978,33.0278 70.3311,33.0278 71,30.5C 73.1107,33.6504 74.9441,36.9837 76.5,40.5C 78.0461,41.684 79.7127,42.684 81.5,43.5C 82.7599,45.1723 82.7599,47.339 81.5,50C 81.7591,52.4544 82.7591,54.4544 84.5,56C 83.7665,57.7659 83.4332,59.5992 83.5,61.5C 81.0361,54.7796 78.3694,48.1129 75.5,41.5C 75.1667,40.5 74.5,39.8333 73.5,39.5C 71.7867,37.1496 69.4534,36.1496 66.5,36.5C 64.1469,34.6567 61.4802,33.3234 58.5,32.5C 61.2119,31.2893 62.8786,29.1226 63.5,26C 61.7949,22.3461 60.7949,18.5128 60.5,14.5C 61.0221,12.7809 62.0221,11.4475 63.5,10.5 Z"/></g>
<g><path style="opacity:1" fill="#584940" d="M 60.5,11.5 C 60.5,12.5 60.5,13.5 60.5,14.5C 60.7949,18.5128 61.7949,22.3461 63.5,26C 62.8786,29.1226 61.2119,31.2893 58.5,32.5C 57.3933,34.9689 55.3933,35.9689 52.5,35.5C 51.1667,34.8333 50.1667,33.8333 49.5,32.5C 49.0919,31.3569 48.4252,30.3569 47.5,29.5C 45.5914,30.3482 43.5914,30.6816 41.5,30.5C 40.8529,29.7261 40.5195,28.7261 40.5,27.5C 41.6552,24.9885 42.3219,22.3219 42.5,19.5C 43.5072,18.1716 44.8405,17.1716 46.5,16.5C 46.8333,17.1667 47.1667,17.8333 47.5,18.5C 46.455,20.2049 45.1217,21.7049 43.5,23C 44.7376,22.9227 45.7376,23.0894 46.5,23.5C 45.7542,24.7362 45.4208,26.0695 45.5,27.5C 48.278,27.8057 50.778,28.8057 53,30.5C 54.6687,29.8338 56.1687,29.8338 57.5,30.5C 58.562,28.9783 59.2287,27.3117 59.5,25.5C 59.5,23.8333 59.5,22.1667 59.5,20.5C 58.1667,20.5 56.8333,20.5 55.5,20.5C 55.5,19.5 55.5,18.5 55.5,17.5C 56.552,17.6495 57.552,17.4828 58.5,17C 56.7128,15.6813 54.7128,14.848 52.5,14.5C 52.0618,14.5654 51.7284,14.3988 51.5,14C 53.3333,13.5 54.5,12.3333 55,10.5C 56.6995,11.4061 58.5328,11.7394 60.5,11.5 Z"/></g>
<g><path style="opacity:1" fill="#634a36" d="M 50.5,17.5 C 53.9571,17.6672 54.2904,18.6672 51.5,20.5C 50.6143,19.675 50.281,18.675 50.5,17.5 Z"/></g>
<g><path style="opacity:1" fill="#233e51" d="M 16.5,22.5 C 16.2627,23.791 16.596,24.791 17.5,25.5C 17.8333,27.5 18.1667,29.5 18.5,31.5C 16.4862,31.6085 14.8195,30.9418 13.5,29.5C 12.596,28.791 12.2627,27.791 12.5,26.5C 12.3505,25.448 12.5172,24.448 13,23.5C 13.8893,24.8882 14.3893,24.7215 14.5,23C 12.8179,21.1049 12.3179,18.9383 13,16.5C 13.941,18.7274 15.1077,20.7274 16.5,22.5 Z"/></g>
<g><path style="opacity:1" fill="#81725b" d="M 58.5,32.5 C 61.4802,33.3234 64.1469,34.6567 66.5,36.5C 66.1667,36.5 65.8333,36.5 65.5,36.5C 64.5,36.5 63.5,36.5 62.5,36.5C 60.2278,37.3186 57.8945,37.9853 55.5,38.5C 54.9002,37.1001 53.9002,36.1001 52.5,35.5C 55.3933,35.9689 57.3933,34.9689 58.5,32.5 Z"/></g>
<g><path style="opacity:1" fill="#1f4e69" d="M 26.5,24.5 C 26.7305,27.6944 26.0638,30.6944 24.5,33.5C 24.7189,35.9153 26.0523,36.9153 28.5,36.5C 28.815,40.3714 28.4816,44.0381 27.5,47.5C 24.7575,40.731 23.0908,33.5644 22.5,26C 23.2573,21.5648 24.0906,21.7315 25,26.5C 25.2784,25.5842 25.7784,24.9175 26.5,24.5 Z"/></g>
<g><path style="opacity:1" fill="#447288" d="M 17.5,25.5 C 18.1174,25.6107 18.6174,25.944 19,26.5C 19.3333,32.5 19.6667,38.5 20,44.5C 20.4293,47.9759 22.0959,50.6425 25,52.5C 25.4986,56.1516 25.6653,59.8183 25.5,63.5C 24.8333,61.5 24.1667,59.5 23.5,57.5C 23.1667,57.5 22.8333,57.5 22.5,57.5C 22.6716,56.5084 22.3382,55.8417 21.5,55.5C 20.2016,49.7616 18.0349,44.4283 15,39.5C 14.6614,36.1204 14.1614,32.7871 13.5,29.5C 14.8195,30.9418 16.4862,31.6085 18.5,31.5C 18.1667,29.5 17.8333,27.5 17.5,25.5 Z"/></g>
<g><path style="opacity:1" fill="#597a57" d="M 62.5,36.5 C 63.5,36.5 64.5,36.5 65.5,36.5C 65.5514,38.5695 64.8847,40.4029 63.5,42C 64.7897,44.6071 63.7897,45.9405 60.5,46C 62.3937,47.0793 62.727,48.4126 61.5,50C 62.3081,50.3076 62.9747,50.8076 63.5,51.5C 61.7438,53.1913 61.2438,55.1913 62,57.5C 62.8624,59.087 63.5291,60.7536 64,62.5C 64.6708,63.2524 65.5041,63.5858 66.5,63.5C 66.5,65.5 66.5,67.5 66.5,69.5C 65.7109,69.2172 65.0442,68.7172 64.5,68C 65.8333,67 65.8333,66 64.5,65C 63.212,64.7613 62.212,65.2613 61.5,66.5C 60.0001,65.3748 58.6668,64.0414 57.5,62.5C 57.4606,61.4168 57.1272,60.4168 56.5,59.5C 57.6313,58.3961 58.4646,58.7295 59,60.5C 59.3773,56.9813 59.8773,53.4813 60.5,50C 60.472,48.9302 60.1386,48.0968 59.5,47.5C 60.653,43.8892 61.653,40.2226 62.5,36.5 Z"/></g>
<g><path style="opacity:1" fill="#707c50" d="M 66.5,36.5 C 69.4534,36.1496 71.7867,37.1496 73.5,39.5C 72.8106,40.7736 71.9772,40.7736 71,39.5C 70.7679,40.7375 70.2679,41.7375 69.5,42.5C 68.5,40.5 67.5,38.5 66.5,36.5 Z"/></g>
<g><path style="opacity:1" fill="#e9c391" d="M 49.5,32.5 C 50.1667,33.8333 51.1667,34.8333 52.5,35.5C 53.9002,36.1001 54.9002,37.1001 55.5,38.5C 52.8112,40.1101 49.8112,40.9434 46.5,41C 48.5951,41.5556 48.7618,42.0556 47,42.5C 46.0979,42.2568 45.2646,41.9234 44.5,41.5C 44.3601,39.8762 45.0267,38.7096 46.5,38C 45.944,37.6174 45.6107,37.1174 45.5,36.5C 45.4877,33.858 46.821,32.5246 49.5,32.5 Z"/></g>
<g><path style="opacity:1" fill="#849076" d="M 49.5,32.5 C 46.821,32.5246 45.4877,33.858 45.5,36.5C 44.5178,35.8592 43.5178,35.1925 42.5,34.5C 41.1696,36.3469 41.503,37.8469 43.5,39C 43.7492,41.8316 43.7492,44.665 43.5,47.5C 42.0779,47.2504 41.0779,46.417 40.5,45C 42.8776,44.0255 42.5443,43.3589 39.5,43C 40.3567,42.3109 41.0233,41.4776 41.5,40.5C 39.5808,39.3875 37.9142,38.0542 36.5,36.5C 38.48,34.5486 40.8133,33.0486 43.5,32C 42.5842,31.7216 41.9175,31.2216 41.5,30.5C 43.5914,30.6816 45.5914,30.3482 47.5,29.5C 48.4252,30.3569 49.0919,31.3569 49.5,32.5 Z"/></g>
<g><path style="opacity:1" fill="#ead487" d="M 46.5,44.5 C 45.8333,44.5 45.5,44.1667 45.5,43.5C 49.5,43.5 53.5,43.5 57.5,43.5C 57.2837,41.3193 58.117,39.6526 60,38.5C 60.5356,40.5672 60.0356,42.4006 58.5,44C 54.5126,45.5054 50.5126,45.6721 46.5,44.5 Z"/></g>
<g><path style="opacity:1" fill="#a58c46" d="M 62.5,36.5 C 61.653,40.2226 60.653,43.8892 59.5,47.5C 56.8559,47.1601 54.5225,47.8267 52.5,49.5C 51.1585,47.9951 49.4918,47.3285 47.5,47.5C 47.4431,46.391 47.1098,45.391 46.5,44.5C 50.5126,45.6721 54.5126,45.5054 58.5,44C 60.0356,42.4006 60.5356,40.5672 60,38.5C 58.117,39.6526 57.2837,41.3193 57.5,43.5C 53.5,43.5 49.5,43.5 45.5,43.5C 44.6618,43.1583 44.3284,42.4916 44.5,41.5C 45.2646,41.9234 46.0979,42.2568 47,42.5C 48.7618,42.0556 48.5951,41.5556 46.5,41C 49.8112,40.9434 52.8112,40.1101 55.5,38.5C 57.8945,37.9853 60.2278,37.3186 62.5,36.5 Z"/></g>
<g><path style="opacity:1" fill="#a09564" d="M 75.5,41.5 C 78.3694,48.1129 81.0361,54.7796 83.5,61.5C 85.0901,64.9466 86.0901,68.6133 86.5,72.5C 85.391,72.5569 84.391,72.8902 83.5,73.5C 82.3421,72.4274 82.3421,71.2607 83.5,70C 81.9762,68.8058 80.8096,67.3058 80,65.5C 79.8127,57.6033 77.9793,50.1033 74.5,43C 74.5699,42.2352 74.9033,41.7352 75.5,41.5 Z"/></g>
<g><path style="opacity:1" fill="#ebe3b1" d="M 30.5,39.5 C 31.3382,39.8417 31.6716,40.5084 31.5,41.5C 30.9197,45.649 31.5864,49.3157 33.5,52.5C 33.6747,54.6208 33.3414,56.6208 32.5,58.5C 31.8333,58.8333 31.1667,59.1667 30.5,59.5C 30.5,52.8333 30.5,46.1667 30.5,39.5 Z"/></g>
<g><path style="opacity:1" fill="#314730" d="M 65.5,36.5 C 65.8333,36.5 66.1667,36.5 66.5,36.5C 67.5,38.5 68.5,40.5 69.5,42.5C 69.5,43.8333 69.5,45.1667 69.5,46.5C 66.716,49.351 65.8826,52.6844 67,56.5C 66.4444,54.4049 65.9444,54.2382 65.5,56C 66.3223,58.4339 66.6556,60.9339 66.5,63.5C 65.5041,63.5858 64.6708,63.2524 64,62.5C 63.5291,60.7536 62.8624,59.087 62,57.5C 61.2438,55.1913 61.7438,53.1913 63.5,51.5C 62.9747,50.8076 62.3081,50.3076 61.5,50C 62.727,48.4126 62.3937,47.0793 60.5,46C 63.7897,45.9405 64.7897,44.6071 63.5,42C 64.8847,40.4029 65.5514,38.5695 65.5,36.5 Z"/></g>
<g><path style="opacity:1" fill="#d3c872" d="M 31.5,41.5 C 34.917,43.8913 36.2503,47.2246 35.5,51.5C 34.5084,51.3284 33.8417,51.6618 33.5,52.5C 31.5864,49.3157 30.9197,45.649 31.5,41.5 Z"/></g>
<g><path style="opacity:1" fill="#658365" d="M 36.5,36.5 C 36.0825,37.2216 35.4158,37.7216 34.5,38C 35.9606,39.3509 37.294,40.8509 38.5,42.5C 37.9747,43.1924 37.3081,43.6924 36.5,44C 37.2266,45.3988 37.7266,46.8988 38,48.5C 38.8893,47.1118 39.3893,47.2785 39.5,49C 38.0853,50.9513 38.4186,52.618 40.5,54C 39.5411,56.1199 39.3744,58.2865 40,60.5C 40.3333,60.1667 40.6667,59.8333 41,59.5C 41.3333,61.1667 41.6667,62.8333 42,64.5C 42.3143,62.1311 43.1476,59.9644 44.5,58C 42.9022,56.2739 43.2355,55.4406 45.5,55.5C 45.5,57.1667 45.5,58.8333 45.5,60.5C 42.8922,62.2296 42.8922,64.063 45.5,66C 44.2845,68.0955 43.4512,67.9288 43,65.5C 42.4136,68.0193 41.2469,70.0193 39.5,71.5C 39.6716,70.5084 39.3382,69.8417 38.5,69.5C 38.5,68.8333 38.1667,68.5 37.5,68.5C 37.5,68.1667 37.5,67.8333 37.5,67.5C 37.1131,62.126 36.4465,56.7926 35.5,51.5C 36.2503,47.2246 34.917,43.8913 31.5,41.5C 31.6716,40.5084 31.3382,39.8417 30.5,39.5C 30.5,38.8333 30.5,38.1667 30.5,37.5C 32.5,37.1667 34.5,36.8333 36.5,36.5 Z"/></g>
<g><path style="opacity:1" fill="#6f6845" d="M 45.5,36.5 C 45.6107,37.1174 45.944,37.6174 46.5,38C 45.0267,38.7096 44.3601,39.8762 44.5,41.5C 44.3284,42.4916 44.6618,43.1583 45.5,43.5C 45.5,44.1667 45.8333,44.5 46.5,44.5C 47.1098,45.391 47.4431,46.391 47.5,47.5C 47.9371,49.0744 48.9371,50.2411 50.5,51C 52.8333,51.3333 55.1667,51.6667 57.5,52C 57.9574,52.414 58.2907,52.914 58.5,53.5C 54.8927,54.4892 51.226,54.8226 47.5,54.5C 47.5,55.8333 47.5,57.1667 47.5,58.5C 46.9723,54.7762 45.9723,51.7762 44.5,49.5C 43.6618,49.1583 43.3284,48.4916 43.5,47.5C 43.7492,44.665 43.7492,41.8316 43.5,39C 41.503,37.8469 41.1696,36.3469 42.5,34.5C 43.5178,35.1925 44.5178,35.8592 45.5,36.5 Z"/></g>
<g><path style="opacity:1" fill="#4b5c5f" d="M 24.5,7.5 C 26.7757,9.33055 28.609,11.6639 30,14.5C 30.4997,22.1594 30.6664,29.8261 30.5,37.5C 30.5,38.1667 30.5,38.8333 30.5,39.5C 30.5,46.1667 30.5,52.8333 30.5,59.5C 30.9422,63.1545 31.2756,66.8212 31.5,70.5C 31.5,71.5 31.5,72.5 31.5,73.5C 29.7163,74.7199 28.0496,74.7199 26.5,73.5C 25.5097,70.8235 24.5097,68.1568 23.5,65.5C 22.7682,62.9325 22.7682,60.2658 23.5,57.5C 24.1667,59.5 24.8333,61.5 25.5,63.5C 26.3659,66.4243 27.3659,69.4243 28.5,72.5C 28.8333,70 29.1667,67.5 29.5,65C 28.6794,59.1888 28.0128,53.3554 27.5,47.5C 28.4816,44.0381 28.815,40.3714 28.5,36.5C 28.6664,28.8261 28.4997,21.1594 28,13.5C 27.6667,13.1667 27.3333,12.8333 27,12.5C 26.5172,13.448 26.3505,14.448 26.5,15.5C 25.8689,13.0656 24.8689,10.7323 23.5,8.5C 23.5,7.83333 23.8333,7.5 24.5,7.5 Z"/></g>
<g><path style="opacity:1" fill="#ebde7c" d="M 73.5,39.5 C 74.5,39.8333 75.1667,40.5 75.5,41.5C 74.9033,41.7352 74.5699,42.2352 74.5,43C 77.9793,50.1033 79.8127,57.6033 80,65.5C 80.8096,67.3058 81.9762,68.8058 83.5,70C 82.3421,71.2607 82.3421,72.4274 83.5,73.5C 82.9886,75.1947 82.3219,76.8614 81.5,78.5C 80.3777,77.3698 79.0443,76.7031 77.5,76.5C 76.8333,76.5 76.1667,76.5 75.5,76.5C 73.3024,76.1249 71.3024,75.4582 69.5,74.5C 72.5713,74.077 75.4046,73.077 78,71.5C 78.5908,70.5165 78.2575,69.8499 77,69.5C 70.8005,71.0352 70.3005,70.3685 75.5,67.5C 75.3764,66.8933 75.0431,66.56 74.5,66.5C 73.6091,65.7387 72.9424,64.7387 72.5,63.5C 73.7048,60.0117 73.7048,56.6784 72.5,53.5C 71.5084,53.3284 70.8417,53.6618 70.5,54.5C 69.5269,52.0521 69.1936,49.3854 69.5,46.5C 69.5,45.1667 69.5,43.8333 69.5,42.5C 70.2679,41.7375 70.7679,40.7375 71,39.5C 71.9772,40.7736 72.8106,40.7736 73.5,39.5 Z"/></g>
<g><path style="opacity:1" fill="#322f1e" d="M 35.5,51.5 C 36.4465,56.7926 37.1131,62.126 37.5,67.5C 36.71,66.3915 36.21,65.0581 36,63.5C 34.9887,64.3366 33.8221,64.67 32.5,64.5C 33.1079,63.2003 33.7745,61.8669 34.5,60.5C 34.263,57.9365 33.763,57.9365 33,60.5C 32.5357,59.9056 32.369,59.2389 32.5,58.5C 33.3414,56.6208 33.6747,54.6208 33.5,52.5C 33.8417,51.6618 34.5084,51.3284 35.5,51.5 Z"/></g>
<g><path style="opacity:1" fill="#264734" d="M 36.5,36.5 C 37.9142,38.0542 39.5808,39.3875 41.5,40.5C 41.0233,41.4776 40.3567,42.3109 39.5,43C 42.5443,43.3589 42.8776,44.0255 40.5,45C 41.0779,46.417 42.0779,47.2504 43.5,47.5C 43.3284,48.4916 43.6618,49.1583 44.5,49.5C 44.8333,51.5 45.1667,53.5 45.5,55.5C 43.2355,55.4406 42.9022,56.2739 44.5,58C 43.1476,59.9644 42.3143,62.1311 42,64.5C 41.6667,62.8333 41.3333,61.1667 41,59.5C 40.6667,59.8333 40.3333,60.1667 40,60.5C 39.3744,58.2865 39.5411,56.1199 40.5,54C 38.4186,52.618 38.0853,50.9513 39.5,49C 39.3893,47.2785 38.8893,47.1118 38,48.5C 37.7266,46.8988 37.2266,45.3988 36.5,44C 37.3081,43.6924 37.9747,43.1924 38.5,42.5C 37.294,40.8509 35.9606,39.3509 34.5,38C 35.4158,37.7216 36.0825,37.2216 36.5,36.5 Z"/></g>
<g><path style="opacity:1" fill="#c4b77f" d="M 47.5,47.5 C 49.4918,47.3285 51.1585,47.9951 52.5,49.5C 54.5225,47.8267 56.8559,47.1601 59.5,47.5C 60.1386,48.0968 60.472,48.9302 60.5,50C 59.8773,53.4813 59.3773,56.9813 59,60.5C 58.4646,58.7295 57.6313,58.3961 56.5,59.5C 57.1272,60.4168 57.4606,61.4168 57.5,62.5C 56.5084,62.3284 55.8417,62.6618 55.5,63.5C 54.8423,64.3984 54.1757,65.3984 53.5,66.5C 52.0603,65.0476 50.3936,64.0476 48.5,63.5C 47.5489,62.0813 47.2155,60.4147 47.5,58.5C 47.5,57.1667 47.5,55.8333 47.5,54.5C 51.226,54.8226 54.8927,54.4892 58.5,53.5C 58.2907,52.914 57.9574,52.414 57.5,52C 55.1667,51.6667 52.8333,51.3333 50.5,51C 48.9371,50.2411 47.9371,49.0744 47.5,47.5 Z"/></g>
<g><path style="opacity:1" fill="#75633e" d="M 50.5,57.5 C 51.8333,57.5 53.1667,57.5 54.5,57.5C 54.8333,60.5 53.5,61.8333 50.5,61.5C 50.5,60.1667 50.5,58.8333 50.5,57.5 Z"/></g>
<g><path style="opacity:1" fill="#d3c585" d="M 69.5,46.5 C 69.1936,49.3854 69.5269,52.0521 70.5,54.5C 70.0942,59.3514 69.2609,64.018 68,68.5C 70.6008,63.8615 72.1008,58.8615 72.5,53.5C 73.7048,56.6784 73.7048,60.0117 72.5,63.5C 72.9424,64.7387 73.6091,65.7387 74.5,66.5C 71.6185,67.3789 69.2851,69.0456 67.5,71.5C 66.6618,71.1583 66.3284,70.4916 66.5,69.5C 66.5,67.5 66.5,65.5 66.5,63.5C 66.6556,60.9339 66.3223,58.4339 65.5,56C 65.9444,54.2382 66.4444,54.4049 67,56.5C 65.8826,52.6844 66.716,49.351 69.5,46.5 Z"/></g>
<g><path style="opacity:1" fill="#89783c" d="M 72.5,53.5 C 72.1008,58.8615 70.6008,63.8615 68,68.5C 69.2609,64.018 70.0942,59.3514 70.5,54.5C 70.8417,53.6618 71.5084,53.3284 72.5,53.5 Z"/></g>
<g><path style="opacity:1" fill="#d0c187" d="M 21.5,55.5 C 22.3382,55.8417 22.6716,56.5084 22.5,57.5C 22.5,58.5 22.5,59.5 22.5,60.5C 19.2819,60.6509 18.9485,61.4842 21.5,63C 20.6919,63.3076 20.0253,63.8076 19.5,64.5C 20.6888,65.4287 22.0222,65.762 23.5,65.5C 23.5,66.1667 23.5,66.8333 23.5,67.5C 21.3284,68.2055 19.3284,69.2055 17.5,70.5C 15.9192,68.8583 15.2525,66.8583 15.5,64.5C 15.1121,59.8909 17.1121,56.8909 21.5,55.5 Z"/></g>
<g><path style="opacity:1" fill="#786541" d="M 22.5,57.5 C 22.8333,57.5 23.1667,57.5 23.5,57.5C 22.7682,60.2658 22.7682,62.9325 23.5,65.5C 22.0222,65.762 20.6888,65.4287 19.5,64.5C 20.0253,63.8076 20.6919,63.3076 21.5,63C 18.9485,61.4842 19.2819,60.6509 22.5,60.5C 22.5,59.5 22.5,58.5 22.5,57.5 Z"/></g>
<g><path style="opacity:1" fill="#aba095" d="M 32.5,58.5 C 32.369,59.2389 32.5357,59.9056 33,60.5C 33.763,57.9365 34.263,57.9365 34.5,60.5C 33.7745,61.8669 33.1079,63.2003 32.5,64.5C 34.1788,67.0121 33.8454,69.0121 31.5,70.5C 31.2756,66.8212 30.9422,63.1545 30.5,59.5C 31.1667,59.1667 31.8333,58.8333 32.5,58.5 Z"/></g>
<g><path style="opacity:1" fill="#6f4d41" d="M 37.5,67.5 C 37.5,67.8333 37.5,68.1667 37.5,68.5C 36.6274,72.7685 36.2941,77.1018 36.5,81.5C 35.8333,82.8333 35.1667,84.1667 34.5,85.5C 34.8168,81.2984 34.4834,77.2984 33.5,73.5C 32.8333,73.5 32.1667,73.5 31.5,73.5C 31.5,72.5 31.5,71.5 31.5,70.5C 33.8454,69.0121 34.1788,67.0121 32.5,64.5C 33.8221,64.67 34.9887,64.3366 36,63.5C 36.21,65.0581 36.71,66.3915 37.5,67.5 Z"/></g>
<g><path style="opacity:1" fill="#536056" d="M 48.5,63.5 C 50.3936,64.0476 52.0603,65.0476 53.5,66.5C 54.1757,65.3984 54.8423,64.3984 55.5,63.5C 57.3079,64.9179 57.9746,66.9179 57.5,69.5C 50.4694,69.5188 50.136,70.0188 56.5,71C 54.6183,71.1981 52.9516,71.6981 51.5,72.5C 50.8333,72.5 50.1667,72.5 49.5,72.5C 48.5975,69.6085 48.2641,66.6085 48.5,63.5 Z"/></g>
<g><path style="opacity:1" fill="#4e3e12" d="M 23.5,67.5 C 23.5,68.1667 23.5,68.8333 23.5,69.5C 21.6064,70.0476 19.9397,71.0476 18.5,72.5C 17.8933,72.3764 17.56,72.0431 17.5,71.5C 17.5,71.1667 17.5,70.8333 17.5,70.5C 19.3284,69.2055 21.3284,68.2055 23.5,67.5 Z"/></g>
<g><path style="opacity:1" fill="#8e753e" d="M 74.5,66.5 C 75.0431,66.56 75.3764,66.8933 75.5,67.5C 70.3005,70.3685 70.8005,71.0352 77,69.5C 78.2575,69.8499 78.5908,70.5165 78,71.5C 75.4046,73.077 72.5713,74.077 69.5,74.5C 68.4489,73.7777 67.7822,72.7777 67.5,71.5C 69.2851,69.0456 71.6185,67.3789 74.5,66.5 Z"/></g>
<g><path style="opacity:1" fill="#bab09b" d="M 15.5,64.5 C 15.2525,66.8583 15.9192,68.8583 17.5,70.5C 17.5,70.8333 17.5,71.1667 17.5,71.5C 16.5987,72.2905 15.9321,73.2905 15.5,74.5C 14.596,75.209 14.2627,76.209 14.5,77.5C 13.8389,75.866 13.5056,74.0326 13.5,72C 13.2999,69.1345 13.9666,66.6345 15.5,64.5 Z"/></g>
<g><path style="opacity:1" fill="#817874" d="M 23.5,65.5 C 24.5097,68.1568 25.5097,70.8235 26.5,73.5C 25.596,74.209 25.2627,75.209 25.5,76.5C 24.6908,74.9724 24.0241,73.3057 23.5,71.5C 23.5,70.8333 23.5,70.1667 23.5,69.5C 23.5,68.8333 23.5,68.1667 23.5,67.5C 23.5,66.8333 23.5,66.1667 23.5,65.5 Z"/></g>
<g><path style="opacity:1" fill="#94816a" d="M 37.5,68.5 C 38.1667,68.5 38.5,68.8333 38.5,69.5C 38.5676,77.5136 38.901,85.5136 39.5,93.5C 37.955,94.2297 37.1216,95.563 37,97.5C 36.5014,93.8484 36.3347,90.1817 36.5,86.5C 36.5,84.8333 36.5,83.1667 36.5,81.5C 36.2941,77.1018 36.6274,72.7685 37.5,68.5 Z"/></g>
<g><path style="opacity:1" fill="#10243a" d="M 49.5,72.5 C 50.1667,72.5 50.8333,72.5 51.5,72.5C 53.604,72.2011 55.604,72.5344 57.5,73.5C 54.9135,74.48 52.2469,74.8134 49.5,74.5C 49.5,73.8333 49.5,73.1667 49.5,72.5 Z"/></g>
<g><path style="opacity:1" fill="#434e38" d="M 66.5,69.5 C 66.3284,70.4916 66.6618,71.1583 67.5,71.5C 67.7822,72.7777 68.4489,73.7777 69.5,74.5C 68.5178,75.1408 67.5178,75.8075 66.5,76.5C 65.5344,74.604 65.2011,72.604 65.5,70.5C 63.8008,70.6602 62.1341,70.4935 60.5,70C 61.3366,68.9887 61.67,67.8221 61.5,66.5C 62.212,65.2613 63.212,64.7613 64.5,65C 65.8333,66 65.8333,67 64.5,68C 65.0442,68.7172 65.7109,69.2172 66.5,69.5 Z"/></g>
<g><path style="opacity:1" fill="#d4c280" d="M 23.5,69.5 C 23.5,70.1667 23.5,70.8333 23.5,71.5C 22.5115,74.0812 21.5115,76.7479 20.5,79.5C 19.1667,79.5 17.8333,79.5 16.5,79.5C 15.6993,77.9582 15.366,76.2915 15.5,74.5C 15.9321,73.2905 16.5987,72.2905 17.5,71.5C 17.56,72.0431 17.8933,72.3764 18.5,72.5C 19.9397,71.0476 21.6064,70.0476 23.5,69.5 Z"/></g>
<g><path style="opacity:1" fill="#d8c3af" d="M 26.5,73.5 C 28.0496,74.7199 29.7163,74.7199 31.5,73.5C 32.1667,73.5 32.8333,73.5 33.5,73.5C 31.8516,74.9265 29.8516,75.7599 27.5,76C 31.8518,76.4189 32.1851,77.0855 28.5,78C 29.985,79.7565 29.6516,80.9232 27.5,81.5C 26.8333,79.8333 26.1667,78.1667 25.5,76.5C 25.2627,75.209 25.596,74.209 26.5,73.5 Z"/></g>
<g><path style="opacity:1" fill="#6c8072" d="M 55.5,63.5 C 55.8417,62.6618 56.5084,62.3284 57.5,62.5C 58.6668,64.0414 60.0001,65.3748 61.5,66.5C 61.67,67.8221 61.3366,68.9887 60.5,70C 62.1341,70.4935 63.8008,70.6602 65.5,70.5C 65.2011,72.604 65.5344,74.604 66.5,76.5C 67.5178,75.8075 68.5178,75.1408 69.5,74.5C 71.3024,75.4582 73.3024,76.1249 75.5,76.5C 75.5,77.8333 75.5,79.1667 75.5,80.5C 74.7321,79.7375 74.2321,78.7375 74,77.5C 73.6012,77.7284 73.4346,78.0618 73.5,78.5C 72.8485,77.9094 72.1818,77.2427 71.5,76.5C 70.4822,77.1925 69.4822,77.8592 68.5,78.5C 68.5654,78.0618 68.3988,77.7284 68,77.5C 66.583,78.0779 65.7496,79.0779 65.5,80.5C 64.6236,80.6309 63.9569,80.2975 63.5,79.5C 65.102,76.4658 64.7687,73.7991 62.5,71.5C 59.3522,72.1404 59.0188,73.1404 61.5,74.5C 60.6872,75.8139 59.6872,76.9805 58.5,78C 59.8333,78 61.1667,78 62.5,78C 61.4366,79.1882 60.1033,79.6882 58.5,79.5C 55.6085,78.5975 52.6085,78.2641 49.5,78.5C 49.5,77.1667 49.5,75.8333 49.5,74.5C 52.2469,74.8134 54.9135,74.48 57.5,73.5C 55.604,72.5344 53.604,72.2011 51.5,72.5C 52.9516,71.6981 54.6183,71.1981 56.5,71C 50.136,70.0188 50.4694,69.5188 57.5,69.5C 57.9746,66.9179 57.3079,64.9179 55.5,63.5 Z"/></g>
<g><path style="opacity:1" fill="#9b7d75" d="M 33.5,73.5 C 34.4834,77.2984 34.8168,81.2984 34.5,85.5C 34.5,85.8333 34.5,86.1667 34.5,86.5C 33.6981,85.0484 33.1981,83.3817 33,81.5C 31.3005,82.4061 29.4672,82.7394 27.5,82.5C 27.5,82.1667 27.5,81.8333 27.5,81.5C 29.6516,80.9232 29.985,79.7565 28.5,78C 32.1851,77.0855 31.8518,76.4189 27.5,76C 29.8516,75.7599 31.8516,74.9265 33.5,73.5 Z"/></g>
<g><path style="opacity:1" fill="#ead7bc" d="M 73.5,78.5 C 74.2154,81.9072 74.2154,85.2405 73.5,88.5C 73.1667,88.5 72.8333,88.5 72.5,88.5C 71.6909,86.7078 71.1909,84.7078 71,82.5C 69.9563,83.6226 69.2896,84.9559 69,86.5C 68.5034,84.1902 68.3367,81.8568 68.5,79.5C 68.5,79.1667 68.5,78.8333 68.5,78.5C 69.4822,77.8592 70.4822,77.1925 71.5,76.5C 72.1818,77.2427 72.8485,77.9094 73.5,78.5 Z"/></g>
<g><path style="opacity:1" fill="#2f483d" d="M 65.5,80.5 C 65.6602,82.1992 65.4935,83.8659 65,85.5C 63.8552,85.6191 62.6885,85.9524 61.5,86.5C 60.6396,84.7121 59.6396,83.0455 58.5,81.5C 58.5,80.8333 58.5,80.1667 58.5,79.5C 60.1033,79.6882 61.4366,79.1882 62.5,78C 61.1667,78 59.8333,78 58.5,78C 59.6872,76.9805 60.6872,75.8139 61.5,74.5C 59.0188,73.1404 59.3522,72.1404 62.5,71.5C 64.7687,73.7991 65.102,76.4658 63.5,79.5C 63.9569,80.2975 64.6236,80.6309 65.5,80.5 Z"/></g>
<g><path style="opacity:1" fill="#8a7c5e" d="M 86.5,72.5 C 86.2509,79.49 84.9176,86.1566 82.5,92.5C 80.7448,94.8035 79.5782,97.4702 79,100.5C 78.3333,116.833 78.3333,133.167 79,149.5C 80.3024,150.085 81.469,150.751 82.5,151.5C 80.9519,151.821 80.2852,152.821 80.5,154.5C 77.9407,154.802 75.6074,154.468 73.5,153.5C 80.6953,153.927 81.362,152.26 75.5,148.5C 75.5,147.833 75.5,147.167 75.5,146.5C 76.8333,134.5 76.8333,122.5 75.5,110.5C 75.5,109.833 75.8333,109.5 76.5,109.5C 77.4902,103.355 77.8235,97.0221 77.5,90.5C 80.3418,93.2179 81.6752,92.3846 81.5,88C 80.6611,83.983 79.3278,80.1496 77.5,76.5C 79.0443,76.7031 80.3777,77.3698 81.5,78.5C 82.3219,76.8614 82.9886,75.1947 83.5,73.5C 84.391,72.8902 85.391,72.5569 86.5,72.5 Z"/></g>
<g><path style="opacity:1" fill="#d2bf83" d="M 75.5,76.5 C 76.1667,76.5 76.8333,76.5 77.5,76.5C 79.3278,80.1496 80.6611,83.983 81.5,88C 81.6752,92.3846 80.3418,93.2179 77.5,90.5C 77.6641,87.8127 77.4974,85.146 77,82.5C 76.7216,81.5842 76.2216,80.9175 75.5,80.5C 75.5,79.1667 75.5,77.8333 75.5,76.5 Z"/></g>
<g><path style="opacity:1" fill="#4b3224" d="M 23.5,71.5 C 24.0241,73.3057 24.6908,74.9724 25.5,76.5C 26.1667,78.1667 26.8333,79.8333 27.5,81.5C 27.5,81.8333 27.5,82.1667 27.5,82.5C 26.5041,82.4142 25.6708,82.7476 25,83.5C 24.8171,86.3647 24.3171,89.0314 23.5,91.5C 22.1001,92.0998 21.1001,93.0998 20.5,94.5C 20.5,89.5 20.5,84.5 20.5,79.5C 21.5115,76.7479 22.5115,74.0812 23.5,71.5 Z"/></g>
<g><path style="opacity:1" fill="#6e514a" d="M 49.5,78.5 C 52.6085,78.2641 55.6085,78.5975 58.5,79.5C 58.5,80.1667 58.5,80.8333 58.5,81.5C 58.5,84.1667 58.5,86.8333 58.5,89.5C 58.1667,89.5 57.8333,89.5 57.5,89.5C 57.6646,86.4816 57.498,83.4816 57,80.5C 55.6439,79.6198 54.1439,79.2865 52.5,79.5C 51.6618,79.8417 51.3284,80.5084 51.5,81.5C 50.5049,93.3217 50.1716,105.322 50.5,117.5C 50.1667,117.5 49.8333,117.5 49.5,117.5C 49.5,104.5 49.5,91.5 49.5,78.5 Z"/></g>
<g><path style="opacity:1" fill="#92866f" d="M 15.5,74.5 C 15.366,76.2915 15.6993,77.9582 16.5,79.5C 17.6358,81.0461 18.3025,82.8794 18.5,85C 18.0322,87.8573 17.8655,90.6906 18,93.5C 18.4169,94.756 19.2502,95.4226 20.5,95.5C 19.5863,98.728 19.2529,102.061 19.5,105.5C 16.5924,96.5044 14.9257,87.1711 14.5,77.5C 14.2627,76.209 14.596,75.209 15.5,74.5 Z"/></g>
<g><path style="opacity:1" fill="#522c23" d="M 75.5,80.5 C 76.2216,80.9175 76.7216,81.5842 77,82.5C 77.4974,85.146 77.6641,87.8127 77.5,90.5C 77.8235,97.0221 77.4902,103.355 76.5,109.5C 76.6663,102.825 76.4996,96.1583 76,89.5C 74.5391,90.8825 73.7058,90.5492 73.5,88.5C 74.2154,85.2405 74.2154,81.9072 73.5,78.5C 73.4346,78.0618 73.6012,77.7284 74,77.5C 74.2321,78.7375 74.7321,79.7375 75.5,80.5 Z"/></g>
<g><path style="opacity:1" fill="#bb4955" d="M 52.5,79.5 C 53.531,80.2485 54.6976,80.9152 56,81.5C 56.4998,92.495 56.6665,103.495 56.5,114.5C 54.8333,114.5 53.1667,114.5 51.5,114.5C 51.5,103.5 51.5,92.5 51.5,81.5C 51.3284,80.5084 51.6618,79.8417 52.5,79.5 Z"/></g>
<g><path style="opacity:1" fill="#3c604b" d="M 45.5,60.5 C 46.6408,63.6399 46.8075,66.9733 46,70.5C 45.4444,68.4049 44.9444,68.2382 44.5,70C 47.0311,75.8796 48.0311,82.0463 47.5,88.5C 45.6997,87.6919 44.0331,88.1919 42.5,90C 43.6922,91.9452 43.6922,93.9452 42.5,96C 44.4942,98.3228 44.4942,100.823 42.5,103.5C 41.5,103.5 40.5,103.5 39.5,103.5C 40.2341,102.292 40.5674,100.959 40.5,99.5C 40.4013,90.1564 40.068,80.823 39.5,71.5C 41.2469,70.0193 42.4136,68.0193 43,65.5C 43.4512,67.9288 44.2845,68.0955 45.5,66C 42.8922,64.063 42.8922,62.2296 45.5,60.5 Z"/></g>
<g><path style="opacity:1" fill="#632023" d="M 36.5,81.5 C 36.5,83.1667 36.5,84.8333 36.5,86.5C 35.6773,89.977 35.1773,93.6437 35,97.5C 34.5034,95.1902 34.3367,92.8568 34.5,90.5C 33.5,90.5 32.5,90.5 31.5,90.5C 30.791,89.596 29.791,89.2627 28.5,89.5C 28.5308,85.7238 27.8641,85.5571 26.5,89C 28.2254,91.8857 28.8921,95.0523 28.5,98.5C 27.3303,96.7215 25.6636,95.7215 23.5,95.5C 23.5,94.1667 23.5,92.8333 23.5,91.5C 24.3171,89.0314 24.8171,86.3647 25,83.5C 25.6708,82.7476 26.5041,82.4142 27.5,82.5C 28.3827,85.6078 30.2161,87.9411 33,89.5C 33.5133,88.4734 34.0133,87.4734 34.5,86.5C 34.5,86.1667 34.5,85.8333 34.5,85.5C 35.1667,84.1667 35.8333,82.8333 36.5,81.5 Z"/></g>
<g><path style="opacity:1" fill="#5f4853" d="M 34.5,86.5 C 34.0133,87.4734 33.5133,88.4734 33,89.5C 30.2161,87.9411 28.3827,85.6078 27.5,82.5C 29.4672,82.7394 31.3005,82.4061 33,81.5C 33.1981,83.3817 33.6981,85.0484 34.5,86.5 Z"/></g>
<g><path style="opacity:1" fill="#97876f" d="M 68.5,79.5 C 68.3367,81.8568 68.5034,84.1902 69,86.5C 69.2896,84.9559 69.9563,83.6226 71,82.5C 71.1909,84.7078 71.6909,86.7078 72.5,88.5C 71.6935,89.7281 70.6935,90.7281 69.5,91.5C 68.1667,91.5 67.5,90.8333 67.5,89.5C 67.1872,85.9581 67.5206,82.6248 68.5,79.5 Z"/></g>
<g><path style="opacity:1" fill="#dac1a1" d="M 16.5,79.5 C 17.8333,79.5 19.1667,79.5 20.5,79.5C 20.5,84.5 20.5,89.5 20.5,94.5C 20.5,94.8333 20.5,95.1667 20.5,95.5C 19.2502,95.4226 18.4169,94.756 18,93.5C 17.8655,90.6906 18.0322,87.8573 18.5,85C 18.3025,82.8794 17.6358,81.0461 16.5,79.5 Z"/></g>
<g><path style="opacity:1" fill="#c7ccb7" d="M 38.5,69.5 C 39.3382,69.8417 39.6716,70.5084 39.5,71.5C 40.068,80.823 40.4013,90.1564 40.5,99.5C 39.6618,99.1583 39.3284,98.4916 39.5,97.5C 39.5,96.1667 39.5,94.8333 39.5,93.5C 38.901,85.5136 38.5676,77.5136 38.5,69.5 Z"/></g>
<g><path style="opacity:1" fill="#213d2c" d="M 47.5,88.5 C 46.6956,92.9796 46.6956,97.6463 47.5,102.5C 45.9547,103.452 44.288,103.785 42.5,103.5C 44.4942,100.823 44.4942,98.3228 42.5,96C 43.6922,93.9452 43.6922,91.9452 42.5,90C 44.0331,88.1919 45.6997,87.6919 47.5,88.5 Z"/></g>
<g><path style="opacity:1" fill="#9c494c" d="M 72.5,88.5 C 72.8333,88.5 73.1667,88.5 73.5,88.5C 73.7058,90.5492 74.5391,90.8825 76,89.5C 76.4996,96.1583 76.6663,102.825 76.5,109.5C 75.8333,109.5 75.5,109.833 75.5,110.5C 74.1938,111.467 73.5271,112.801 73.5,114.5C 72.7321,113.737 72.2321,112.737 72,111.5C 71.5065,113.134 71.3398,114.801 71.5,116.5C 70.8333,115.167 70.1667,113.833 69.5,112.5C 68.2929,106.176 68.2929,99.8429 69.5,93.5C 71.9752,92.4134 71.9752,91.7467 69.5,91.5C 70.6935,90.7281 71.6935,89.7281 72.5,88.5 Z"/></g>
<g><path style="opacity:1" fill="#271e16" d="M 68.5,78.5 C 68.5,78.8333 68.5,79.1667 68.5,79.5C 67.5206,82.6248 67.1872,85.9581 67.5,89.5C 66.3485,91.7791 65.3485,94.1124 64.5,96.5C 64.5,94.1667 64.5,91.8333 64.5,89.5C 60.6963,91.4516 59.6963,90.4516 61.5,86.5C 62.6885,85.9524 63.8552,85.6191 65,85.5C 65.4935,83.8659 65.6602,82.1992 65.5,80.5C 65.7496,79.0779 66.583,78.0779 68,77.5C 68.3988,77.7284 68.5654,78.0618 68.5,78.5 Z"/></g>
<g><path style="opacity:1" fill="#451f1f" d="M 67.5,89.5 C 67.5,90.8333 68.1667,91.5 69.5,91.5C 71.9752,91.7467 71.9752,92.4134 69.5,93.5C 68.2929,99.8429 68.2929,106.176 69.5,112.5C 68.8333,112.5 68.1667,112.5 67.5,112.5C 67.1667,112.5 66.8333,112.5 66.5,112.5C 66.6974,107.026 66.0307,101.692 64.5,96.5C 65.3485,94.1124 66.3485,91.7791 67.5,89.5 Z"/></g>
<g><path style="opacity:1" fill="#b7565a" d="M 31.5,90.5 C 34.7118,98.6021 32.3784,104.769 24.5,109C 25.2524,109.671 25.5858,110.504 25.5,111.5C 25.1667,111.5 24.8333,111.5 24.5,111.5C 23.06,109.228 21.3933,107.228 19.5,105.5C 19.2529,102.061 19.5863,98.728 20.5,95.5C 20.5,95.1667 20.5,94.8333 20.5,94.5C 21.1001,93.0998 22.1001,92.0998 23.5,91.5C 23.5,92.8333 23.5,94.1667 23.5,95.5C 21.0255,98.2509 20.0255,101.584 20.5,105.5C 23.4495,107.056 26.1162,106.722 28.5,104.5C 31.3095,100.83 31.9761,96.8299 30.5,92.5C 29.951,95.2592 29.2844,97.2592 28.5,98.5C 28.8921,95.0523 28.2254,91.8857 26.5,89C 27.8641,85.5571 28.5308,85.7238 28.5,89.5C 29.791,89.2627 30.791,89.596 31.5,90.5 Z"/></g>
<g><path style="opacity:1" fill="#da515e" d="M 72.5,92.5 C 75.9169,97.7705 76.4169,103.437 74,109.5C 72.2859,110.925 70.9525,110.592 70,108.5C 68.8343,102.758 69.6676,97.4247 72.5,92.5 Z"/></g>
<g><path style="opacity:1" fill="#d44050" d="M 23.5,95.5 C 25.6636,95.7215 27.3303,96.7215 28.5,98.5C 29.2844,97.2592 29.951,95.2592 30.5,92.5C 31.9761,96.8299 31.3095,100.83 28.5,104.5C 26.1162,106.722 23.4495,107.056 20.5,105.5C 20.0255,101.584 21.0255,98.2509 23.5,95.5 Z"/></g>
<g><path style="opacity:1" fill="#75412c" d="M 36.5,86.5 C 36.3347,90.1817 36.5014,93.8484 37,97.5C 37.1216,95.563 37.955,94.2297 39.5,93.5C 39.5,94.8333 39.5,96.1667 39.5,97.5C 38.8333,98.8333 38.1667,100.167 37.5,101.5C 36.7784,101.082 36.2784,100.416 36,99.5C 33.9906,101.522 32.4906,103.855 31.5,106.5C 30.5418,108.302 29.8751,110.302 29.5,112.5C 28.5,112.5 27.5,112.5 26.5,112.5C 25.8333,112.5 25.5,112.167 25.5,111.5C 25.5858,110.504 25.2524,109.671 24.5,109C 32.3784,104.769 34.7118,98.6021 31.5,90.5C 32.5,90.5 33.5,90.5 34.5,90.5C 34.3367,92.8568 34.5034,95.1902 35,97.5C 35.1773,93.6437 35.6773,89.977 36.5,86.5 Z"/></g>
<g><path style="opacity:1" fill="#405746" d="M 58.5,81.5 C 59.6396,83.0455 60.6396,84.7121 61.5,86.5C 59.6963,90.4516 60.6963,91.4516 64.5,89.5C 64.5,91.8333 64.5,94.1667 64.5,96.5C 66.0307,101.692 66.6974,107.026 66.5,112.5C 66.6646,115.518 66.498,118.518 66,121.5C 65.6667,120.833 65.3333,120.167 65,119.5C 63.5557,121.155 61.7224,121.822 59.5,121.5C 58.723,110.852 58.3897,100.185 58.5,89.5C 58.5,86.8333 58.5,84.1667 58.5,81.5 Z"/></g>
<g><path style="opacity:1" fill="#d2af88" d="M 37.5,101.5 C 37.762,102.978 37.4287,104.311 36.5,105.5C 34.8839,106.115 33.5505,107.115 32.5,108.5C 31.7025,108.043 31.3691,107.376 31.5,106.5C 32.4906,103.855 33.9906,101.522 36,99.5C 36.2784,100.416 36.7784,101.082 37.5,101.5 Z"/></g>
<g><path style="opacity:1" fill="#8a9580" d="M 47.5,58.5 C 47.2155,60.4147 47.5489,62.0813 48.5,63.5C 48.2641,66.6085 48.5975,69.6085 49.5,72.5C 49.5,73.1667 49.5,73.8333 49.5,74.5C 49.5,75.8333 49.5,77.1667 49.5,78.5C 49.5,91.5 49.5,104.5 49.5,117.5C 49.5,119.167 49.5,120.833 49.5,122.5C 49.1667,122.5 48.8333,122.5 48.5,122.5C 44.9878,123.055 41.9878,122.388 39.5,120.5C 39.5,114.833 39.5,109.167 39.5,103.5C 40.5,103.5 41.5,103.5 42.5,103.5C 44.288,103.785 45.9547,103.452 47.5,102.5C 46.6956,97.6463 46.6956,92.9796 47.5,88.5C 48.0311,82.0463 47.0311,75.8796 44.5,70C 44.9444,68.2382 45.4444,68.4049 46,70.5C 46.8075,66.9733 46.6408,63.6399 45.5,60.5C 45.5,58.8333 45.5,57.1667 45.5,55.5C 45.1667,53.5 44.8333,51.5 44.5,49.5C 45.9723,51.7762 46.9723,54.7762 47.5,58.5 Z"/></g>
<g><path style="opacity:1" fill="#924145" d="M 52.5,79.5 C 54.1439,79.2865 55.6439,79.6198 57,80.5C 57.498,83.4816 57.6646,86.4816 57.5,89.5C 56.8572,100.552 57.5238,111.219 59.5,121.5C 60.5676,122.434 61.901,122.768 63.5,122.5C 63.5,123.5 63.5,124.5 63.5,125.5C 62.1932,124.847 60.8599,124.18 59.5,123.5C 58.5027,130.803 58.1694,138.137 58.5,145.5C 58.1667,145.5 57.8333,145.5 57.5,145.5C 57.825,137.981 57.4916,130.648 56.5,123.5C 56.5,123.167 56.5,122.833 56.5,122.5C 56.5,121.167 56.5,119.833 56.5,118.5C 54.7839,118.629 53.1172,118.962 51.5,119.5C 51.1667,118.833 50.8333,118.167 50.5,117.5C 50.1716,105.322 50.5049,93.3217 51.5,81.5C 51.5,92.5 51.5,103.5 51.5,114.5C 53.1667,114.5 54.8333,114.5 56.5,114.5C 56.6665,103.495 56.4998,92.495 56,81.5C 54.6976,80.9152 53.531,80.2485 52.5,79.5 Z"/></g>
<g><path style="opacity:1" fill="#df4353" d="M 52.5,86.5 C 53.5,86.5 54.5,86.5 55.5,86.5C 55.5,95.5 55.5,104.5 55.5,113.5C 54.5,113.5 53.5,113.5 52.5,113.5C 52.5,104.5 52.5,95.5 52.5,86.5 Z"/></g>
<g><path style="opacity:1" fill="#2a4b39" d="M 47.5,117.5 C 45.9826,117.511 44.8159,118.177 44,119.5C 43.7515,116.081 43.2515,112.747 42.5,109.5C 42.4914,107.692 42.9914,106.025 44,104.5C 45.7316,106.283 47.2316,108.283 48.5,110.5C 47.6258,112.747 47.2924,115.08 47.5,117.5 Z"/></g>
<g><path style="opacity:1" fill="#7f6c66" d="M 24.5,111.5 C 24.8333,111.5 25.1667,111.5 25.5,111.5C 25.5,112.167 25.8333,112.5 26.5,112.5C 25.1892,117.036 24.5226,121.703 24.5,126.5C 23.8826,126.611 23.3826,126.944 23,127.5C 22.8195,130.695 22.3195,133.695 21.5,136.5C 21.3322,128.012 22.3322,119.678 24.5,111.5 Z"/></g>
<g><path style="opacity:1" fill="#a67b70" d="M 57.5,89.5 C 57.8333,89.5 58.1667,89.5 58.5,89.5C 58.3897,100.185 58.723,110.852 59.5,121.5C 57.5238,111.219 56.8572,100.552 57.5,89.5 Z"/></g>
<g><path style="opacity:1" fill="#4c200a" d="M 73.5,114.5 C 73.5,115.167 73.5,115.833 73.5,116.5C 72.8333,116.833 72.1667,117.167 71.5,117.5C 71.5,117.167 71.5,116.833 71.5,116.5C 71.3398,114.801 71.5065,113.134 72,111.5C 72.2321,112.737 72.7321,113.737 73.5,114.5 Z"/></g>
<g><path style="opacity:1" fill="#51755a" d="M 42.5,109.5 C 43.2515,112.747 43.7515,116.081 44,119.5C 44.8159,118.177 45.9826,117.511 47.5,117.5C 47.9382,117.435 48.2716,117.601 48.5,118C 47.9288,119.205 47.2621,120.372 46.5,121.5C 44.5914,120.652 42.5914,120.318 40.5,120.5C 39.9197,116.351 40.5864,112.684 42.5,109.5 Z"/></g>
<g><path style="opacity:1" fill="#532136" d="M 56.5,122.5 C 55.5,122.5 54.5,122.5 53.5,122.5C 52.8333,121.5 52.1667,120.5 51.5,119.5C 53.1172,118.962 54.7839,118.629 56.5,118.5C 56.5,119.833 56.5,121.167 56.5,122.5 Z"/></g>
<g><path style="opacity:1" fill="#7e6b3b" d="M 39.5,97.5 C 39.3284,98.4916 39.6618,99.1583 40.5,99.5C 40.5674,100.959 40.2341,102.292 39.5,103.5C 39.5,109.167 39.5,114.833 39.5,120.5C 38.8333,121.5 38.1667,122.5 37.5,123.5C 37.8282,118.125 37.4948,112.792 36.5,107.5C 35.1457,108.854 33.8123,110.188 32.5,111.5C 30.5233,121.024 28.8567,130.69 27.5,140.5C 26.5028,140.53 25.8361,140.03 25.5,139C 27.1611,130.216 28.4945,121.383 29.5,112.5C 29.8751,110.302 30.5418,108.302 31.5,106.5C 31.3691,107.376 31.7025,108.043 32.5,108.5C 33.5505,107.115 34.8839,106.115 36.5,105.5C 37.4287,104.311 37.762,102.978 37.5,101.5C 38.1667,100.167 38.8333,98.8333 39.5,97.5 Z"/></g>
<g><path style="opacity:1" fill="#504b2c" d="M 66.5,112.5 C 66.8333,112.5 67.1667,112.5 67.5,112.5C 67.5,118.5 67.5,124.5 67.5,130.5C 66.5269,128.052 66.1936,125.385 66.5,122.5C 65.5,122.5 64.5,122.5 63.5,122.5C 61.901,122.768 60.5676,122.434 59.5,121.5C 61.7224,121.822 63.5557,121.155 65,119.5C 65.3333,120.167 65.6667,120.833 66,121.5C 66.498,118.518 66.6646,115.518 66.5,112.5 Z"/></g>
<g><path style="opacity:1" fill="#e4d591" d="M 75.5,110.5 C 76.8333,122.5 76.8333,134.5 75.5,146.5C 73.6373,136.636 72.9706,126.636 73.5,116.5C 73.5,115.833 73.5,115.167 73.5,114.5C 73.5271,112.801 74.1938,111.467 75.5,110.5 Z"/></g>
<g><path style="opacity:1" fill="#e8d99b" d="M 67.5,112.5 C 68.1667,112.5 68.8333,112.5 69.5,112.5C 70.1667,113.833 70.8333,115.167 71.5,116.5C 71.5,116.833 71.5,117.167 71.5,117.5C 72.0845,122.499 72.2511,127.499 72,132.5C 71.0188,126.136 70.5188,126.469 70.5,133.5C 69.534,138.67 69.534,144.003 70.5,149.5C 69.8333,149.5 69.5,149.167 69.5,148.5C 69.7678,146.901 69.4345,145.568 68.5,144.5C 67.6864,139.881 67.3531,135.214 67.5,130.5C 67.5,124.5 67.5,118.5 67.5,112.5 Z"/></g>
<g><path style="opacity:1" fill="#e74759" d="M 44.5,124.5 C 45.8333,124.5 47.1667,124.5 48.5,124.5C 48.8297,130.868 48.4963,137.202 47.5,143.5C 45.8211,145.104 43.8211,145.771 41.5,145.5C 41.2441,138.776 41.5774,132.109 42.5,125.5C 42.8417,124.662 43.5084,124.328 44.5,124.5 Z"/></g>
<g><path style="opacity:1" fill="#dcc888" d="M 26.5,112.5 C 27.5,112.5 28.5,112.5 29.5,112.5C 28.4945,121.383 27.1611,130.216 25.5,139C 25.8361,140.03 26.5028,140.53 27.5,140.5C 25.31,141.374 24.31,143.041 24.5,145.5C 24.5569,146.609 24.8902,147.609 25.5,148.5C 23.5168,148.157 22.1834,148.824 21.5,150.5C 20.8333,150.5 20.1667,150.5 19.5,150.5C 19.0618,150.565 18.7284,150.399 18.5,150C 20.4641,148.549 21.7974,146.716 22.5,144.5C 23.3512,138.66 24.0179,132.66 24.5,126.5C 24.5226,121.703 25.1892,117.036 26.5,112.5 Z"/></g>
<g><path style="opacity:1" fill="#7f6d32" d="M 73.5,116.5 C 72.9706,126.636 73.6373,136.636 75.5,146.5C 75.5,147.167 75.5,147.833 75.5,148.5C 72.8535,143.894 71.1868,138.894 70.5,133.5C 70.5188,126.469 71.0188,126.136 72,132.5C 72.2511,127.499 72.0845,122.499 71.5,117.5C 72.1667,117.167 72.8333,116.833 73.5,116.5 Z"/></g>
<g><path style="opacity:1" fill="#4b7591" d="M 53.5,122.5 C 52.5343,130.08 52.201,137.747 52.5,145.5C 53.8333,145.5 55.1667,145.5 56.5,145.5C 56.5,138.167 56.5,130.833 56.5,123.5C 57.4916,130.648 57.825,137.981 57.5,145.5C 55.8984,147.074 53.8984,147.741 51.5,147.5C 50.865,138.766 51.5316,130.433 53.5,122.5 Z"/></g>
<g><path style="opacity:1" fill="#954049" d="M 44.5,124.5 C 45.5676,123.566 46.901,123.232 48.5,123.5C 49.6546,130.321 49.8213,137.321 49,144.5C 48.7216,145.416 48.2216,146.082 47.5,146.5C 42.8186,147.561 39.4853,146.061 37.5,142C 38.5409,136.837 39.5409,131.67 40.5,126.5C 41.1835,126.137 41.8501,125.804 42.5,125.5C 41.5774,132.109 41.2441,138.776 41.5,145.5C 43.8211,145.771 45.8211,145.104 47.5,143.5C 48.4963,137.202 48.8297,130.868 48.5,124.5C 47.1667,124.5 45.8333,124.5 44.5,124.5 Z"/></g>
<g><path style="opacity:1" fill="#3ba4ce" d="M 53.5,122.5 C 54.5,122.5 55.5,122.5 56.5,122.5C 56.5,122.833 56.5,123.167 56.5,123.5C 56.5,130.833 56.5,138.167 56.5,145.5C 55.1667,145.5 53.8333,145.5 52.5,145.5C 52.201,137.747 52.5343,130.08 53.5,122.5 Z"/></g>
<g><path style="opacity:1" fill="#3c1d27" d="M 48.5,123.5 C 48.5,123.167 48.5,122.833 48.5,122.5C 48.8333,122.5 49.1667,122.5 49.5,122.5C 50.1657,126.486 50.499,130.653 50.5,135C 50.4915,139.557 49.8248,143.724 48.5,147.5C 47.8333,147.5 47.5,147.167 47.5,146.5C 48.2216,146.082 48.7216,145.416 49,144.5C 49.8213,137.321 49.6546,130.321 48.5,123.5 Z"/></g>
<g><path style="opacity:1" fill="#e14a60" d="M 63.5,125.5 C 64.4511,126.919 64.7845,128.585 64.5,130.5C 64.5276,135.862 64.1942,141.195 63.5,146.5C 61.8333,146.5 60.1667,146.5 58.5,146.5C 58.5,146.167 58.5,145.833 58.5,145.5C 58.1694,138.137 58.5027,130.803 59.5,123.5C 60.8599,124.18 62.1932,124.847 63.5,125.5 Z"/></g>
<g><path style="opacity:1" fill="#62593a" d="M 24.5,126.5 C 24.0179,132.66 23.3512,138.66 22.5,144.5C 21.5269,142.052 21.1936,139.385 21.5,136.5C 22.3195,133.695 22.8195,130.695 23,127.5C 23.3826,126.944 23.8826,126.611 24.5,126.5 Z"/></g>
<g><path style="opacity:1" fill="#e7d37b" d="M 37.5,123.5 C 36.5175,130.829 35.3508,138.162 34,145.5C 31.9671,148.03 29.8004,150.363 27.5,152.5C 25.2143,152.405 23.2143,151.738 21.5,150.5C 22.1834,148.824 23.5168,148.157 25.5,148.5C 27.0481,148.179 27.7148,147.179 27.5,145.5C 26.5,145.5 25.5,145.5 24.5,145.5C 24.31,143.041 25.31,141.374 27.5,140.5C 28.8567,130.69 30.5233,121.024 32.5,111.5C 33.8123,110.188 35.1457,108.854 36.5,107.5C 37.4948,112.792 37.8282,118.125 37.5,123.5 Z"/></g>
<g><path style="opacity:1" fill="#f1de6a" d="M 32.5,111.5 C 33.4959,111.414 34.3292,111.748 35,112.5C 35.7566,123.006 34.9233,133.339 32.5,143.5C 31.1667,143.5 29.8333,143.5 28.5,143.5C 29.8959,137.273 31.0626,130.94 32,124.5C 32.499,120.179 32.6657,115.846 32.5,111.5 Z"/></g>
<g><path style="opacity:1" fill="#ebdc84" d="M 70.5,133.5 C 71.1868,138.894 72.8535,143.894 75.5,148.5C 81.362,152.26 80.6953,153.927 73.5,153.5C 71.5544,152.965 70.5544,151.632 70.5,149.5C 69.534,144.003 69.534,138.67 70.5,133.5 Z"/></g>
<g><path style="opacity:1" fill="#482116" d="M 63.5,122.5 C 64.5,122.5 65.5,122.5 66.5,122.5C 66.1936,125.385 66.5269,128.052 67.5,130.5C 67.3531,135.214 67.6864,139.881 68.5,144.5C 68.5,146.5 67.5,147.5 65.5,147.5C 65.5698,141.755 65.2365,136.088 64.5,130.5C 64.7845,128.585 64.4511,126.919 63.5,125.5C 63.5,124.5 63.5,123.5 63.5,122.5 Z"/></g>
<g><path style="opacity:1" fill="#7a5e1a" d="M 24.5,145.5 C 25.5,145.5 26.5,145.5 27.5,145.5C 27.7148,147.179 27.0481,148.179 25.5,148.5C 24.8902,147.609 24.5569,146.609 24.5,145.5 Z"/></g>
<g><path style="opacity:1" fill="#712e26" d="M 64.5,130.5 C 65.2365,136.088 65.5698,141.755 65.5,147.5C 64.0413,147.433 62.7079,147.766 61.5,148.5C 61.1667,148.5 60.8333,148.5 60.5,148.5C 59.8333,147.833 59.1667,147.167 58.5,146.5C 60.1667,146.5 61.8333,146.5 63.5,146.5C 64.1942,141.195 64.5276,135.862 64.5,130.5 Z"/></g>
<g><path style="opacity:1" fill="#313130" d="M 49.5,117.5 C 49.8333,117.5 50.1667,117.5 50.5,117.5C 50.8333,118.167 51.1667,118.833 51.5,119.5C 52.1667,120.5 52.8333,121.5 53.5,122.5C 51.5316,130.433 50.865,138.766 51.5,147.5C 53.8984,147.741 55.8984,147.074 57.5,145.5C 57.8333,145.5 58.1667,145.5 58.5,145.5C 58.5,145.833 58.5,146.167 58.5,146.5C 59.1667,147.167 59.8333,147.833 60.5,148.5C 60.2606,150.467 60.5939,152.301 61.5,154C 66.3978,155.811 71.3978,156.811 76.5,157C 72.4277,156.417 69.761,154.25 68.5,150.5C 68.3284,149.508 68.6618,148.842 69.5,148.5C 69.5,149.167 69.8333,149.5 70.5,149.5C 70.5544,151.632 71.5544,152.965 73.5,153.5C 75.6074,154.468 77.9407,154.802 80.5,154.5C 80.2852,152.821 80.9519,151.821 82.5,151.5C 83.6587,153.631 85.4921,154.964 88,155.5C 88.49,156.793 88.6567,158.127 88.5,159.5C 87.5,159.5 86.5,159.5 85.5,159.5C 85.5,158.5 85.5,157.5 85.5,156.5C 84.1667,156.5 82.8333,156.5 81.5,156.5C 81.5,157.5 81.5,158.5 81.5,159.5C 77.4517,159.605 73.4517,159.272 69.5,158.5C 69.1667,158.5 68.8333,158.5 68.5,158.5C 65.8774,156.735 62.8774,156.068 59.5,156.5C 59.7373,155.209 59.404,154.209 58.5,153.5C 57.3129,152.466 56.4796,151.133 56,149.5C 55.0853,150.328 54.4186,151.328 54,152.5C 51.8305,152.839 49.6638,152.839 47.5,152.5C 47.5,152.167 47.5,151.833 47.5,151.5C 48.4345,150.432 48.7678,149.099 48.5,147.5C 49.8248,143.724 50.4915,139.557 50.5,135C 50.499,130.653 50.1657,126.486 49.5,122.5C 49.5,120.833 49.5,119.167 49.5,117.5 Z"/></g>
<g><path style="opacity:1" fill="#c7b5a3" d="M 68.5,144.5 C 69.4345,145.568 69.7678,146.901 69.5,148.5C 68.6618,148.842 68.3284,149.508 68.5,150.5C 64.9702,153.558 62.6368,152.891 61.5,148.5C 62.7079,147.766 64.0413,147.433 65.5,147.5C 67.5,147.5 68.5,146.5 68.5,144.5 Z"/></g>
<g><path style="opacity:1" fill="#573725" d="M 39.5,120.5 C 41.9878,122.388 44.9878,123.055 48.5,122.5C 48.5,122.833 48.5,123.167 48.5,123.5C 46.901,123.232 45.5676,123.566 44.5,124.5C 43.5084,124.328 42.8417,124.662 42.5,125.5C 41.8501,125.804 41.1835,126.137 40.5,126.5C 39.5409,131.67 38.5409,136.837 37.5,142C 39.4853,146.061 42.8186,147.561 47.5,146.5C 47.5,147.167 47.8333,147.5 48.5,147.5C 48.7678,149.099 48.4345,150.432 47.5,151.5C 47.5,150.5 47.5,149.5 47.5,148.5C 45.8333,148.5 44.1667,148.5 42.5,148.5C 39.7531,148.187 37.0865,148.52 34.5,149.5C 35.9952,149.478 37.6619,149.811 39.5,150.5C 39.1667,151.167 38.8333,151.833 38.5,152.5C 35.6944,153.168 33.0277,153.834 30.5,154.5C 28.7839,154.629 27.1172,154.962 25.5,155.5C 26.1667,154.5 26.8333,153.5 27.5,152.5C 29.8004,150.363 31.9671,148.03 34,145.5C 35.3508,138.162 36.5175,130.829 37.5,123.5C 38.1667,122.5 38.8333,121.5 39.5,120.5 Z"/></g>
<g><path style="opacity:1" fill="#628491" d="M 42.5,148.5 C 44.1667,148.5 45.8333,148.5 47.5,148.5C 47.5,149.5 47.5,150.5 47.5,151.5C 47.5,151.833 47.5,152.167 47.5,152.5C 46.8602,155.724 44.8602,157.724 41.5,158.5C 41.1667,158 40.8333,157.5 40.5,157C 41.2741,154.846 41.9408,152.679 42.5,150.5C 42.5,149.833 42.5,149.167 42.5,148.5 Z"/></g>
<g><path style="opacity:1" fill="#637b8d" d="M 60.5,148.5 C 60.8333,148.5 61.1667,148.5 61.5,148.5C 62.6368,152.891 64.9702,153.558 68.5,150.5C 69.761,154.25 72.4277,156.417 76.5,157C 71.3978,156.811 66.3978,155.811 61.5,154C 60.5939,152.301 60.2606,150.467 60.5,148.5 Z"/></g>
<g><path style="opacity:1" fill="#474943" d="M 58.5,153.5 C 52.0977,155.033 45.931,157.366 40,160.5C 38.2677,157.474 38.4344,154.474 40.5,151.5C 40.9569,150.702 41.6236,150.369 42.5,150.5C 41.9408,152.679 41.2741,154.846 40.5,157C 40.8333,157.5 41.1667,158 41.5,158.5C 44.8602,157.724 46.8602,155.724 47.5,152.5C 49.6638,152.839 51.8305,152.839 54,152.5C 54.4186,151.328 55.0853,150.328 56,149.5C 56.4796,151.133 57.3129,152.466 58.5,153.5 Z"/></g>
<g><path style="opacity:1" fill="#ae9b87" d="M 21.5,136.5 C 21.1936,139.385 21.5269,142.052 22.5,144.5C 21.7974,146.716 20.4641,148.549 18.5,150C 18.7284,150.399 19.0618,150.565 19.5,150.5C 18.032,151.779 17.3653,153.446 17.5,155.5C 18.552,155.351 19.552,155.517 20.5,156C 19.062,156.219 17.7287,156.719 16.5,157.5C 20.1073,158.489 23.774,158.823 27.5,158.5C 30.6248,159.479 33.9581,159.813 37.5,159.5C 37.5,157.833 37.5,156.167 37.5,154.5C 35.1667,154.5 32.8333,154.5 30.5,154.5C 33.0277,153.834 35.6944,153.168 38.5,152.5C 38.8333,151.833 39.1667,151.167 39.5,150.5C 37.6619,149.811 35.9952,149.478 34.5,149.5C 37.0865,148.52 39.7531,148.187 42.5,148.5C 42.5,149.167 42.5,149.833 42.5,150.5C 41.6236,150.369 40.9569,150.702 40.5,151.5C 38.4344,154.474 38.2677,157.474 40,160.5C 45.931,157.366 52.0977,155.033 58.5,153.5C 59.404,154.209 59.7373,155.209 59.5,156.5C 62.8774,156.068 65.8774,156.735 68.5,158.5C 66.8002,158.626 65.3002,159.293 64,160.5C 62.6992,159.107 61.1992,158.607 59.5,159C 59.8333,159.333 60.1667,159.667 60.5,160C 54.6518,160.173 48.9851,160.673 43.5,161.5C 34.5883,161.375 25.5883,161.208 16.5,161C 14.6711,160.727 13.1711,159.893 12,158.5C 13.9873,156.06 15.3207,153.06 16,149.5C 19.4285,145.772 21.2618,141.439 21.5,136.5 Z"/></g>
<g><path style="opacity:1" fill="#cda67d" d="M 30.5,154.5 C 32.8333,154.5 35.1667,154.5 37.5,154.5C 37.5,156.167 37.5,157.833 37.5,159.5C 33.9581,159.813 30.6248,159.479 27.5,158.5C 26.0484,157.698 24.3817,157.198 22.5,157C 23.7375,156.768 24.7375,156.268 25.5,155.5C 27.1172,154.962 28.7839,154.629 30.5,154.5 Z"/></g>
<g><path style="opacity:1" fill="#95795a" d="M 19.5,150.5 C 20.1667,150.5 20.8333,150.5 21.5,150.5C 23.2143,151.738 25.2143,152.405 27.5,152.5C 26.8333,153.5 26.1667,154.5 25.5,155.5C 24.7375,156.268 23.7375,156.768 22.5,157C 24.3817,157.198 26.0484,157.698 27.5,158.5C 23.774,158.823 20.1073,158.489 16.5,157.5C 17.7287,156.719 19.062,156.219 20.5,156C 19.552,155.517 18.552,155.351 17.5,155.5C 17.3653,153.446 18.032,151.779 19.5,150.5 Z"/></g>
<g><path style="opacity:1" fill="#73675c" d="M 68.5,158.5 C 68.8333,158.5 69.1667,158.5 69.5,158.5C 68.6935,159.728 67.6935,160.728 66.5,161.5C 58.8333,161.5 51.1667,161.5 43.5,161.5C 48.9851,160.673 54.6518,160.173 60.5,160C 60.1667,159.667 59.8333,159.333 59.5,159C 61.1992,158.607 62.6992,159.107 64,160.5C 65.3002,159.293 66.8002,158.626 68.5,158.5 Z"/></g>
<g><path style="opacity:1" fill="#b0afa4" d="M 88.5,159.5 C 87.3915,160.29 86.0581,160.79 84.5,161C 78.7818,161.211 73.1152,161.711 67.5,162.5C 66.8933,162.376 66.56,162.043 66.5,161.5C 67.6935,160.728 68.6935,159.728 69.5,158.5C 73.4517,159.272 77.4517,159.605 81.5,159.5C 81.5,158.5 81.5,157.5 81.5,156.5C 82.8333,156.5 84.1667,156.5 85.5,156.5C 85.5,157.5 85.5,158.5 85.5,159.5C 86.5,159.5 87.5,159.5 88.5,159.5 Z"/></g>
</svg>
