<?xml version="1.0" encoding="UTF-8"?>
<!DOCTYPE svg PUBLIC "-//W3C//DTD SVG 1.1//EN" "http://www.w3.org/Graphics/SVG/1.1/DTD/svg11.dtd">
<svg xmlns="http://www.w3.org/2000/svg" version="1.1" width="100px" height="165px" style="shape-rendering:geometricPrecision; text-rendering:geometricPrecision; image-rendering:optimizeQuality; fill-rule:evenodd; clip-rule:evenodd" xmlns:xlink="http://www.w3.org/1999/xlink">
<g><path style="opacity:1" fill="#f8f8f7" d="M -0.5,-0.5 C 4.16667,-0.5 8.83333,-0.5 13.5,-0.5C 12.5974,4.26674 14.5974,6.60007 19.5,6.5C 20.6473,6.18223 21.4806,5.51556 22,4.5C 25.2126,9.23764 26.046,14.2376 24.5,19.5C 24.9465,16.9899 24.2798,14.9899 22.5,13.5C 22.5,13.1667 22.5,12.8333 22.5,12.5C 21.9688,10.4559 20.8022,8.78925 19,7.5C 17.9766,10.783 17.1433,14.1164 16.5,17.5C 17.2858,19.0411 18.2858,20.3744 19.5,21.5C 19.5,22.5 19.5,23.5 19.5,24.5C 17.5887,23.925 15.922,22.925 14.5,21.5C 14.3605,19.663 13.6939,19.3296 12.5,20.5C 9.5777,24.9159 9.91103,28.9159 13.5,32.5C 16.4474,36.6638 17.7807,35.9972 17.5,30.5C 19.0418,29.6993 20.7085,29.366 22.5,29.5C 23.0715,30.9733 23.0715,32.64 22.5,34.5C 24.1054,37.3777 25.4388,40.3777 26.5,43.5C 24.7706,44.2362 23.7706,45.5695 23.5,47.5C 22.2073,49.2959 20.7073,50.9625 19,52.5C 18.5065,54.1341 18.3398,55.8008 18.5,57.5C 15.3579,57.7993 13.1912,59.4659 12,62.5C 11.1816,68.3487 11.3483,74.0154 12.5,79.5C 12.8207,85.4431 14.154,91.1097 16.5,96.5C 18.314,98.9653 19.6473,101.632 20.5,104.5C 18.7343,112.073 17.0676,119.74 15.5,127.5C 14.2394,131.394 12.9061,135.394 11.5,139.5C 11.5613,141.653 12.5613,142.986 14.5,143.5C 17.9099,143.457 21.2432,143.957 24.5,145C 25.056,145.383 25.3893,145.883 25.5,146.5C 24.0695,146.579 22.7362,146.246 21.5,145.5C 19.057,147.055 16.3903,147.722 13.5,147.5C 13.9732,150.833 12.6399,153 9.5,154C 9.5,155 9.5,156 9.5,157C 8.90558,157.464 8.23891,157.631 7.5,157.5C 6.20891,158.542 6.20891,159.708 7.5,161C 19.8288,161.5 32.1622,161.667 44.5,161.5C 45.8333,161.5 47.1667,161.5 48.5,161.5C 59.5,161.5 70.5,161.5 81.5,161.5C 71.3415,162.33 61.0081,162.83 50.5,163C 49.944,163.383 49.6107,163.883 49.5,164.5C 33.8333,164.5 18.1667,164.5 2.5,164.5C 2.83456,161.993 3.83456,159.826 5.5,158C 4.42575,157.261 3.75908,156.261 3.5,155C 3.31983,148.945 3.65316,142.778 4.5,136.5C 3.97832,125.124 2.97832,113.79 1.5,102.5C 2.18641,99.2349 3.18641,96.0683 4.5,93C 4.03232,84.8884 3.03232,78.2217 1.5,73C 1.9841,69.8542 1.9841,66.8542 1.5,64C 2.97974,62.7009 3.6464,61.0342 3.5,59C 2.7952,55.1958 2.46186,51.3625 2.5,47.5C 1.5,47.5 0.5,47.5 -0.5,47.5C -0.5,31.5 -0.5,15.5 -0.5,-0.5 Z"/></g>
<g><path style="opacity:1" fill="#f7f6f2" d="M 13.5,-0.5 C 35.5,-0.5 57.5,-0.5 79.5,-0.5C 81.2029,1.1408 83.3695,2.1408 86,2.5C 87.2811,1.35328 87.6144,1.68661 87,3.5C 82.3993,4.142 77.8993,4.80867 73.5,5.5C 71.7483,5.41755 70.7483,6.25089 70.5,8C 70.8361,9.02992 71.5028,9.52992 72.5,9.5C 72.298,11.9496 72.6314,14.283 73.5,16.5C 71.8333,16.5 70.1667,16.5 68.5,16.5C 68.2155,18.4147 68.5489,20.0813 69.5,21.5C 71.2492,23.9162 73.2492,25.9162 75.5,27.5C 73.8102,27.8564 72.8102,28.8564 72.5,30.5C 71.5,30.5 70.5,30.5 69.5,30.5C 69.5,31.5 69.5,32.5 69.5,33.5C 70.5,33.5 71.5,33.5 72.5,33.5C 72.5,34.1667 72.8333,34.5 73.5,34.5C 77.5,34.5 81.5,34.5 85.5,34.5C 84.3192,36.0672 82.6526,36.9005 80.5,37C 80.705,38.6763 79.8717,40.1763 78,41.5C 77.3162,40.2161 77.4829,39.0495 78.5,38C 74.7625,35.6871 71.4292,36.0204 68.5,39C 70.6371,41.6387 72.9705,44.1387 75.5,46.5C 79.3302,47.6989 81.3302,50.3655 81.5,54.5C 83.0534,55.439 84.3867,56.6057 85.5,58C 84.9225,62.423 84.9225,66.7563 85.5,71C 85.0556,72.7618 84.5556,72.5951 84,70.5C 83.6667,71.8333 83.3333,73.1667 83,74.5C 82.79,72.9419 82.29,71.6085 81.5,70.5C 80.7337,68.3157 80.0671,65.9823 79.5,63.5C 78.6431,62.5748 77.6431,61.9081 76.5,61.5C 75.229,53.6648 72.229,46.6648 67.5,40.5C 66.791,39.596 65.791,39.2627 64.5,39.5C 61.5208,37.5303 58.5208,35.5303 55.5,33.5C 56.5832,33.4606 57.5832,33.1272 58.5,32.5C 59.6125,28.5065 59.6125,24.5065 58.5,20.5C 58.5,18.1667 58.5,15.8333 58.5,13.5C 59.1667,13.5 59.5,13.1667 59.5,12.5C 62.179,12.4754 63.5123,11.142 63.5,8.5C 61.5,9.16667 59.5,9.83333 57.5,10.5C 56.8485,9.90935 56.1818,9.24269 55.5,8.5C 54.5832,9.12723 53.5832,9.46056 52.5,9.5C 51.1404,5.83274 49.1404,5.4994 46.5,8.5C 45.2322,7.57211 43.8989,7.40544 42.5,8C 40.8964,11.3438 38.8964,11.8438 36.5,9.5C 35.1667,10.5 35.1667,11.5 36.5,12.5C 38.8147,13.1598 40.4814,14.4931 41.5,16.5C 41.4828,18.5648 41.1495,20.5648 40.5,22.5C 38.2729,23.4006 37.2729,25.0672 37.5,27.5C 36.0131,29.842 36.3464,31.842 38.5,33.5C 38.3059,35.9118 36.9726,36.9118 34.5,36.5C 32.5168,37.4706 30.5168,38.4706 28.5,39.5C 27.8333,37.1667 27.1667,34.8333 26.5,32.5C 25.8505,30.5648 25.5172,28.5648 25.5,26.5C 28.8306,26.9819 31.4973,25.9819 33.5,23.5C 32.5039,22.3349 31.1705,21.6682 29.5,21.5C 27.8653,22.0463 26.1986,22.3796 24.5,22.5C 24.5,21.5 24.5,20.5 24.5,19.5C 26.046,14.2376 25.2126,9.23764 22,4.5C 21.4806,5.51556 20.6473,6.18223 19.5,6.5C 14.5974,6.60007 12.5974,4.26674 13.5,-0.5 Z"/></g>
<g><path style="opacity:1" fill="#fcfcfb" d="M 79.5,-0.5 C 86.1667,-0.5 92.8333,-0.5 99.5,-0.5C 99.5,54.5 99.5,109.5 99.5,164.5C 82.8333,164.5 66.1667,164.5 49.5,164.5C 49.6107,163.883 49.944,163.383 50.5,163C 61.0081,162.83 71.3415,162.33 81.5,161.5C 81.8333,161.5 82.1667,161.5 82.5,161.5C 83.7564,161.904 84.9231,162.571 86,163.5C 88.0868,161.874 90.2535,160.374 92.5,159C 91.1667,157.333 91.1667,155.667 92.5,154C 90.7749,154.409 89.1082,154.242 87.5,153.5C 87.5866,151.297 87.5866,149.13 87.5,147C 84.8994,143.75 81.7327,142.916 78,144.5C 74.979,142.873 74.8123,140.873 77.5,138.5C 77.0188,135.917 76.3521,133.417 75.5,131C 77.0016,130.417 78.3349,129.584 79.5,128.5C 78.0663,127.77 76.8996,126.77 76,125.5C 75.5417,121.323 75.7083,117.157 76.5,113C 76.6251,110.391 75.9584,108.058 74.5,106C 75.4841,104.343 76.4841,102.677 77.5,101C 75.5265,97.2421 76.5265,95.0755 80.5,94.5C 80.1456,89.6053 80.1456,84.6053 80.5,79.5C 81.299,76.5701 81.6323,73.5701 81.5,70.5C 82.29,71.6085 82.79,72.9419 83,74.5C 83.3333,73.1667 83.6667,71.8333 84,70.5C 84.5556,72.5951 85.0556,72.7618 85.5,71C 84.9225,66.7563 84.9225,62.423 85.5,58C 84.3867,56.6057 83.0534,55.439 81.5,54.5C 81.3302,50.3655 79.3302,47.6989 75.5,46.5C 72.9705,44.1387 70.6371,41.6387 68.5,39C 71.4292,36.0204 74.7625,35.6871 78.5,38C 77.4829,39.0495 77.3162,40.2161 78,41.5C 79.8717,40.1763 80.705,38.6763 80.5,37C 82.6526,36.9005 84.3192,36.0672 85.5,34.5C 85.5,33.1667 85.5,31.8333 85.5,30.5C 83.5439,29.5082 81.5439,28.5082 79.5,27.5C 79.4142,26.5041 79.7476,25.6708 80.5,25C 84.5705,24.1013 86.5705,21.6013 86.5,17.5C 85.044,15.7155 84.044,13.7155 83.5,11.5C 83.5,11.1667 83.5,10.8333 83.5,10.5C 85.1042,9.71304 85.7709,8.3797 85.5,6.5C 81.5483,5.72791 77.5483,5.39458 73.5,5.5C 77.8993,4.80867 82.3993,4.142 87,3.5C 87.6144,1.68661 87.2811,1.35328 86,2.5C 83.3695,2.1408 81.2029,1.1408 79.5,-0.5 Z"/></g>
<g><path style="opacity:1" fill="#87463d" d="M 73.5,5.5 C 77.5483,5.39458 81.5483,5.72791 85.5,6.5C 85.7709,8.3797 85.1042,9.71304 83.5,10.5C 81.5,10.5 79.5,10.5 77.5,10.5C 75.7839,10.3713 74.1172,10.038 72.5,9.5C 71.5028,9.52992 70.8361,9.02992 70.5,8C 70.7483,6.25089 71.7483,5.41755 73.5,5.5 Z"/></g>
<g><path style="opacity:1" fill="#605135" d="M 57.5,10.5 C 58.1667,11.1667 58.8333,11.8333 59.5,12.5C 59.5,13.1667 59.1667,13.5 58.5,13.5C 56.9557,13.2969 55.6223,12.6302 54.5,11.5C 51.4944,13.0038 50.8277,12.3371 52.5,9.5C 53.5832,9.46056 54.5832,9.12723 55.5,8.5C 56.1818,9.24269 56.8485,9.90935 57.5,10.5 Z"/></g>
<g><path style="opacity:1" fill="#634928" d="M 77.5,10.5 C 79.5,10.5 81.5,10.5 83.5,10.5C 83.5,10.8333 83.5,11.1667 83.5,11.5C 82.8423,12.3984 82.1757,13.3984 81.5,14.5C 80.8165,14.1373 80.1499,13.8039 79.5,13.5C 79.2178,12.2223 78.5511,11.2223 77.5,10.5 Z"/></g>
<g><path style="opacity:1" fill="#978d80" d="M 59.5,12.5 C 58.8333,11.8333 58.1667,11.1667 57.5,10.5C 59.5,9.83333 61.5,9.16667 63.5,8.5C 63.5123,11.142 62.179,12.4754 59.5,12.5 Z"/></g>
<g><path style="opacity:1" fill="#deca81" d="M 72.5,9.5 C 74.1172,10.038 75.7839,10.3713 77.5,10.5C 78.5511,11.2223 79.2178,12.2223 79.5,13.5C 79.5,14.5 79.5,15.5 79.5,16.5C 77.5,16.5 75.5,16.5 73.5,16.5C 72.6314,14.283 72.298,11.9496 72.5,9.5 Z"/></g>
<g><path style="opacity:1" fill="#a08d74" d="M 52.5,9.5 C 50.8277,12.3371 51.4944,13.0038 54.5,11.5C 55.6223,12.6302 56.9557,13.2969 58.5,13.5C 58.5,15.8333 58.5,18.1667 58.5,20.5C 58.0603,18.1561 57.0603,16.1561 55.5,14.5C 51.9889,14.5764 48.3223,14.2431 44.5,13.5C 44.2129,14.2003 43.8795,14.8669 43.5,15.5C 42.5084,15.3284 41.8417,15.6618 41.5,16.5C 40.4814,14.4931 38.8147,13.1598 36.5,12.5C 35.1667,11.5 35.1667,10.5 36.5,9.5C 38.8964,11.8438 40.8964,11.3438 42.5,8C 43.8989,7.40544 45.2322,7.57211 46.5,8.5C 49.1404,5.4994 51.1404,5.83274 52.5,9.5 Z"/></g>
<g><path style="opacity:1" fill="#99a68d" d="M 83.5,11.5 C 84.044,13.7155 85.044,15.7155 86.5,17.5C 84.2341,17.1412 82.4007,17.8078 81,19.5C 80.6012,19.2716 80.4346,18.9382 80.5,18.5C 78.1667,17.8333 75.8333,17.1667 73.5,16.5C 75.5,16.5 77.5,16.5 79.5,16.5C 79.5,15.5 79.5,14.5 79.5,13.5C 80.1499,13.8039 80.8165,14.1373 81.5,14.5C 82.1757,13.3984 82.8423,12.3984 83.5,11.5 Z"/></g>
<g><path style="opacity:1" fill="#1b2b3c" d="M 22.5,12.5 C 22.5,12.8333 22.5,13.1667 22.5,13.5C 23.4922,16.7786 23.6588,20.1119 23,23.5C 22.8019,21.6183 22.3019,19.9516 21.5,18.5C 20.833,16.1806 20.6664,13.8473 21,11.5C 21.3826,12.056 21.8826,12.3893 22.5,12.5 Z"/></g>
<g><path style="opacity:1" fill="#7d5d46" d="M 55.5,14.5 C 54.2617,14.81 54.2617,15.31 55.5,16C 54.5509,16.6172 53.7175,16.4506 53,15.5C 52.5357,16.0944 52.369,16.7611 52.5,17.5C 50.7085,17.366 49.0418,17.6993 47.5,18.5C 46.8333,18.5 46.1667,18.5 45.5,18.5C 44.8333,17.5 44.1667,16.5 43.5,15.5C 43.8795,14.8669 44.2129,14.2003 44.5,13.5C 48.3223,14.2431 51.9889,14.5764 55.5,14.5 Z"/></g>
<g><path style="opacity:1" fill="#6b909b" d="M 22.5,12.5 C 21.8826,12.3893 21.3826,12.056 21,11.5C 20.6664,13.8473 20.833,16.1806 21.5,18.5C 21.4431,19.609 21.1098,20.609 20.5,21.5C 20.1667,21.5 19.8333,21.5 19.5,21.5C 18.2858,20.3744 17.2858,19.0411 16.5,17.5C 17.1433,14.1164 17.9766,10.783 19,7.5C 20.8022,8.78925 21.9688,10.4559 22.5,12.5 Z"/></g>
<g><path style="opacity:1" fill="#457693" d="M 73.5,16.5 C 75.8333,17.1667 78.1667,17.8333 80.5,18.5C 78.9519,18.8212 78.2852,19.8212 78.5,21.5C 75.304,20.8885 72.304,20.8885 69.5,21.5C 68.5489,20.0813 68.2155,18.4147 68.5,16.5C 70.1667,16.5 71.8333,16.5 73.5,16.5 Z"/></g>
<g><path style="opacity:1" fill="#4d3c3a" d="M 43.5,15.5 C 44.1667,16.5 44.8333,17.5 45.5,18.5C 44.7275,22.7496 44.2275,27.0829 44,31.5C 43.2828,32.0442 42.7828,32.7109 42.5,33.5C 41.1667,33.5 39.8333,33.5 38.5,33.5C 36.3464,31.842 36.0131,29.842 37.5,27.5C 39.7409,26.7002 40.7409,25.0336 40.5,22.5C 41.1495,20.5648 41.4828,18.5648 41.5,16.5C 41.8417,15.6618 42.5084,15.3284 43.5,15.5 Z"/></g>
<g><path style="opacity:1" fill="#beb696" d="M 33.5,23.5 C 31.874,23.9383 30.2073,24.2716 28.5,24.5C 26.6455,24.6598 25.3121,23.9931 24.5,22.5C 26.1986,22.3796 27.8653,22.0463 29.5,21.5C 31.1705,21.6682 32.5039,22.3349 33.5,23.5 Z"/></g>
<g><path style="opacity:1" fill="#503f39" d="M 55.5,14.5 C 57.0603,16.1561 58.0603,18.1561 58.5,20.5C 59.6125,24.5065 59.6125,28.5065 58.5,32.5C 57.5832,33.1272 56.5832,33.4606 55.5,33.5C 53.8333,34.1667 52.1667,34.8333 50.5,35.5C 49.1667,34.5 47.8333,33.5 46.5,32.5C 46.5,32.1667 46.5,31.8333 46.5,31.5C 48.0443,31.7031 49.3777,32.3698 50.5,33.5C 51.931,33.0234 53.2643,32.3567 54.5,31.5C 52.1667,30.8333 49.8333,30.1667 47.5,29.5C 50.4281,28.5159 53.4281,28.1826 56.5,28.5C 56.5,26.8333 56.5,25.1667 56.5,23.5C 55.1667,23.5 53.8333,23.5 52.5,23.5C 52.5,22.5 52.5,21.5 52.5,20.5C 57.7398,21.1839 57.7398,20.1839 52.5,17.5C 52.369,16.7611 52.5357,16.0944 53,15.5C 53.7175,16.4506 54.5509,16.6172 55.5,16C 54.2617,15.31 54.2617,14.81 55.5,14.5 Z"/></g>
<g><path style="opacity:1" fill="#29353b" d="M 86.5,17.5 C 86.5705,21.6013 84.5705,24.1013 80.5,25C 79.7476,25.6708 79.4142,26.5041 79.5,27.5C 78.1667,27.5 76.8333,27.5 75.5,27.5C 73.2492,25.9162 71.2492,23.9162 69.5,21.5C 72.304,20.8885 75.304,20.8885 78.5,21.5C 78.2852,19.8212 78.9519,18.8212 80.5,18.5C 80.4346,18.9382 80.6012,19.2716 81,19.5C 82.4007,17.8078 84.2341,17.1412 86.5,17.5 Z"/></g>
<g><path style="opacity:1" fill="#695a54" d="M 22.5,13.5 C 24.2798,14.9899 24.9465,16.9899 24.5,19.5C 24.5,20.5 24.5,21.5 24.5,22.5C 25.3121,23.9931 26.6455,24.6598 28.5,24.5C 30.2073,24.2716 31.874,23.9383 33.5,23.5C 31.4973,25.9819 28.8306,26.9819 25.5,26.5C 25.5172,28.5648 25.8505,30.5648 26.5,32.5C 25.8166,34.1765 24.4832,34.8432 22.5,34.5C 23.0715,32.64 23.0715,30.9733 22.5,29.5C 21.525,26.9333 20.8583,24.2666 20.5,21.5C 21.1098,20.609 21.4431,19.609 21.5,18.5C 22.3019,19.9516 22.8019,21.6183 23,23.5C 23.6588,20.1119 23.4922,16.7786 22.5,13.5 Z"/></g>
<g><path style="opacity:1" fill="#968c8e" d="M 40.5,22.5 C 40.7409,25.0336 39.7409,26.7002 37.5,27.5C 37.2729,25.0672 38.2729,23.4006 40.5,22.5 Z"/></g>
<g><path style="opacity:1" fill="#d0b0a1" d="M 52.5,17.5 C 57.7398,20.1839 57.7398,21.1839 52.5,20.5C 52.5,21.5 52.5,22.5 52.5,23.5C 53.8333,23.5 55.1667,23.5 56.5,23.5C 56.5,25.1667 56.5,26.8333 56.5,28.5C 53.4281,28.1826 50.4281,28.5159 47.5,29.5C 49.8333,30.1667 52.1667,30.8333 54.5,31.5C 53.2643,32.3567 51.931,33.0234 50.5,33.5C 49.3777,32.3698 48.0443,31.7031 46.5,31.5C 45.5269,29.0521 45.1936,26.3854 45.5,23.5C 47.1667,23.5 48.8333,23.5 50.5,23.5C 50.5,22.1667 50.5,20.8333 50.5,19.5C 49.209,19.7373 48.209,19.404 47.5,18.5C 49.0418,17.6993 50.7085,17.366 52.5,17.5 Z"/></g>
<g><path style="opacity:1" fill="#b08e7d" d="M 45.5,18.5 C 46.1667,18.5 46.8333,18.5 47.5,18.5C 48.209,19.404 49.209,19.7373 50.5,19.5C 50.5,20.8333 50.5,22.1667 50.5,23.5C 48.8333,23.5 47.1667,23.5 45.5,23.5C 45.1936,26.3854 45.5269,29.0521 46.5,31.5C 46.5,31.8333 46.5,32.1667 46.5,32.5C 44.2355,32.4406 43.9022,33.2739 45.5,35C 45.0946,35.9454 44.428,36.6121 43.5,37C 46.2034,40.7124 49.87,42.5457 54.5,42.5C 54.5,42.8333 54.5,43.1667 54.5,43.5C 51.1933,42.9492 47.8599,42.6159 44.5,42.5C 41.7775,39.9446 41.1109,36.9446 42.5,33.5C 42.7828,32.7109 43.2828,32.0442 44,31.5C 44.2275,27.0829 44.7275,22.7496 45.5,18.5 Z"/></g>
<g><path style="opacity:1" fill="#8b7b61" d="M 14.5,21.5 C 13.032,22.7791 12.3653,24.4458 12.5,26.5C 16.3107,26.5958 16.3107,27.2624 12.5,28.5C 14.4523,29.1033 16.4523,28.77 18.5,27.5C 19.3857,26.675 19.719,25.675 19.5,24.5C 19.5,23.5 19.5,22.5 19.5,21.5C 19.8333,21.5 20.1667,21.5 20.5,21.5C 20.8583,24.2666 21.525,26.9333 22.5,29.5C 20.7085,29.366 19.0418,29.6993 17.5,30.5C 17.5654,30.0618 17.3988,29.7284 17,29.5C 16.015,30.8141 14.8484,31.8141 13.5,32.5C 9.91103,28.9159 9.5777,24.9159 12.5,20.5C 13.6939,19.3296 14.3605,19.663 14.5,21.5 Z"/></g>
<g><path style="opacity:1" fill="#c8ba85" d="M 14.5,21.5 C 15.922,22.925 17.5887,23.925 19.5,24.5C 19.719,25.675 19.3857,26.675 18.5,27.5C 16.4523,28.77 14.4523,29.1033 12.5,28.5C 16.3107,27.2624 16.3107,26.5958 12.5,26.5C 12.3653,24.4458 13.032,22.7791 14.5,21.5 Z"/></g>
<g><path style="opacity:1" fill="#89815a" d="M 75.5,27.5 C 76.8333,27.5 78.1667,27.5 79.5,27.5C 81.5439,28.5082 83.5439,29.5082 85.5,30.5C 83.5,30.5 81.5,30.5 79.5,30.5C 79.38,29.4138 78.7133,28.7472 77.5,28.5C 76.2867,28.7472 75.62,29.4138 75.5,30.5C 74.5,30.5 73.5,30.5 72.5,30.5C 72.8102,28.8564 73.8102,27.8564 75.5,27.5 Z"/></g>
<g><path style="opacity:1" fill="#dfc79b" d="M 79.5,30.5 C 78.1667,31.8333 76.8333,31.8333 75.5,30.5C 75.62,29.4138 76.2867,28.7472 77.5,28.5C 78.7133,28.7472 79.38,29.4138 79.5,30.5 Z"/></g>
<g><path style="opacity:1" fill="#563d30" d="M 72.5,30.5 C 73.5,30.5 74.5,30.5 75.5,30.5C 76.8333,31.8333 78.1667,31.8333 79.5,30.5C 81.5,30.5 83.5,30.5 85.5,30.5C 85.5,31.8333 85.5,33.1667 85.5,34.5C 81.5,34.5 77.5,34.5 73.5,34.5C 75.2922,33.6909 77.2922,33.1909 79.5,33C 77.1093,32.7132 74.7759,32.2132 72.5,31.5C 71.537,31.9698 71.537,32.6365 72.5,33.5C 71.5,33.5 70.5,33.5 69.5,33.5C 69.5,32.5 69.5,31.5 69.5,30.5C 70.5,30.5 71.5,30.5 72.5,30.5 Z"/></g>
<g><path style="opacity:1" fill="#b3797c" d="M 73.5,34.5 C 72.8333,34.5 72.5,34.1667 72.5,33.5C 71.537,32.6365 71.537,31.9698 72.5,31.5C 74.7759,32.2132 77.1093,32.7132 79.5,33C 77.2922,33.1909 75.2922,33.6909 73.5,34.5 Z"/></g>
<g><path style="opacity:1" fill="#514641" d="M 17.5,30.5 C 17.7807,35.9972 16.4474,36.6638 13.5,32.5C 14.8484,31.8141 16.015,30.8141 17,29.5C 17.3988,29.7284 17.5654,30.0618 17.5,30.5 Z"/></g>
<g><path style="opacity:1" fill="#96725c" d="M 55.5,33.5 C 58.5208,35.5303 61.5208,37.5303 64.5,39.5C 63.8333,39.8333 63.1667,40.1667 62.5,40.5C 62.1788,38.9519 61.1788,38.2852 59.5,38.5C 57.5977,41.3373 56.931,44.6707 57.5,48.5C 56.5084,48.6716 55.8417,48.3382 55.5,47.5C 55.5,47.1667 55.5,46.8333 55.5,46.5C 55.4431,45.391 55.1098,44.391 54.5,43.5C 54.5,43.1667 54.5,42.8333 54.5,42.5C 55.4997,40.4207 55.1663,38.4207 53.5,36.5C 50.4314,39.4607 49.4314,39.1273 50.5,35.5C 52.1667,34.8333 53.8333,34.1667 55.5,33.5 Z"/></g>
<g><path style="opacity:1" fill="#e4c4a3" d="M 46.5,32.5 C 47.8333,33.5 49.1667,34.5 50.5,35.5C 49.4314,39.1273 50.4314,39.4607 53.5,36.5C 55.1663,38.4207 55.4997,40.4207 54.5,42.5C 49.87,42.5457 46.2034,40.7124 43.5,37C 44.428,36.6121 45.0946,35.9454 45.5,35C 43.9022,33.2739 44.2355,32.4406 46.5,32.5 Z"/></g>
<g><path style="opacity:1" fill="#b5ac98" d="M 26.5,32.5 C 27.1667,34.8333 27.8333,37.1667 28.5,39.5C 28.0113,40.9952 27.3446,42.3285 26.5,43.5C 25.4388,40.3777 24.1054,37.3777 22.5,34.5C 24.4832,34.8432 25.8166,34.1765 26.5,32.5 Z"/></g>
<g><path style="opacity:1" fill="#b67b72" d="M 34.5,36.5 C 34.3893,37.1174 34.056,37.6174 33.5,38C 34.7932,38.49 36.1266,38.6567 37.5,38.5C 37.5,38.8333 37.5,39.1667 37.5,39.5C 36.8333,39.5 36.1667,39.5 35.5,39.5C 33.7085,39.366 32.0418,39.6993 30.5,40.5C 29.0532,41.1342 28.3866,42.3009 28.5,44C 29.0539,46.8236 29.5539,49.657 30,52.5C 31.4813,53.4709 32.3146,54.8042 32.5,56.5C 31.9569,56.56 31.6236,56.8933 31.5,57.5C 32.2427,58.1818 32.9094,58.8485 33.5,59.5C 30.9315,59.2623 29.2648,57.929 28.5,55.5C 28.5,54.5 28.5,53.5 28.5,52.5C 28.5674,51.0413 28.2341,49.7079 27.5,48.5C 27.719,47.325 27.3857,46.325 26.5,45.5C 25.4822,46.1925 24.4822,46.8592 23.5,47.5C 23.7706,45.5695 24.7706,44.2362 26.5,43.5C 27.3446,42.3285 28.0113,40.9952 28.5,39.5C 30.5168,38.4706 32.5168,37.4706 34.5,36.5 Z"/></g>
<g><path style="opacity:1" fill="#b97b5d" d="M 59.5,38.5 C 61.1788,38.2852 62.1788,38.9519 62.5,40.5C 62.5,44.5 62.5,48.5 62.5,52.5C 61.5489,51.0813 61.2155,49.4147 61.5,47.5C 60.5,47.5 59.5,47.5 58.5,47.5C 58.2641,44.3915 58.5975,41.3915 59.5,38.5 Z"/></g>
<g><path style="opacity:1" fill="#b55d60" d="M 44.5,42.5 C 47.8599,42.6159 51.1933,42.9492 54.5,43.5C 55.1098,44.391 55.4431,45.391 55.5,46.5C 51.3196,46.8115 47.3196,46.1448 43.5,44.5C 43.8627,43.8165 44.1961,43.1499 44.5,42.5 Z"/></g>
<g><path style="opacity:1" fill="#794f47" d="M 38.5,33.5 C 39.8333,33.5 41.1667,33.5 42.5,33.5C 41.1109,36.9446 41.7775,39.9446 44.5,42.5C 44.1961,43.1499 43.8627,43.8165 43.5,44.5C 47.3196,46.1448 51.3196,46.8115 55.5,46.5C 55.5,46.8333 55.5,47.1667 55.5,47.5C 50.8333,47.5 46.1667,47.5 41.5,47.5C 41.3841,44.1401 41.0508,40.8067 40.5,37.5C 39.209,37.2627 38.209,37.596 37.5,38.5C 36.1266,38.6567 34.7932,38.49 33.5,38C 34.056,37.6174 34.3893,37.1174 34.5,36.5C 36.9726,36.9118 38.3059,35.9118 38.5,33.5 Z"/></g>
<g><path style="opacity:1" fill="#ea565c" d="M 66.5,41.5 C 67.1098,42.391 67.4431,43.391 67.5,44.5C 66.8423,45.3984 66.1757,46.3984 65.5,47.5C 63.9137,45.8273 63.2471,43.8273 63.5,41.5C 64.5,41.5 65.5,41.5 66.5,41.5 Z"/></g>
<g><path style="opacity:1" fill="#4c5644" d="M 41.5,47.5 C 46.1667,47.5 50.8333,47.5 55.5,47.5C 55.8417,48.3382 56.5084,48.6716 57.5,48.5C 57.1667,50.5 56.8333,52.5 56.5,54.5C 56.1583,55.3382 55.4916,55.6716 54.5,55.5C 55.038,53.8828 55.3713,52.2161 55.5,50.5C 52.0613,50.7471 48.728,50.4137 45.5,49.5C 44.5,48.1667 43.5,48.1667 42.5,49.5C 41.6618,49.1583 41.3284,48.4916 41.5,47.5 Z"/></g>
<g><path style="opacity:1" fill="#a04c43" d="M 30.5,40.5 C 30.8221,45.7808 32.1555,50.7808 34.5,55.5C 35.1818,54.7573 35.8485,54.0906 36.5,53.5C 37.3252,59.3074 37.3252,65.3074 36.5,71.5C 36.1667,71.5 35.8333,71.5 35.5,71.5C 34.9336,67.5726 34.7669,63.5726 35,59.5C 34.6232,58.0577 33.7899,57.0577 32.5,56.5C 32.3146,54.8042 31.4813,53.4709 30,52.5C 29.5539,49.657 29.0539,46.8236 28.5,44C 28.3866,42.3009 29.0532,41.1342 30.5,40.5 Z"/></g>
<g><path style="opacity:1" fill="#29331e" d="M 45.5,49.5 C 45.5057,54.8934 45.339,60.2268 45,65.5C 47.7947,66.7825 50.6281,66.7825 53.5,65.5C 52.6431,64.5748 51.6431,63.9081 50.5,63.5C 51.3478,62.375 52.3478,62.375 53.5,63.5C 54.1667,63.5 54.5,63.8333 54.5,64.5C 54.5,65.5 54.5,66.5 54.5,67.5C 51.8127,67.3359 49.146,67.5026 46.5,68C 45.944,68.3826 45.6107,68.8826 45.5,69.5C 45.44,70.0431 45.1067,70.3764 44.5,70.5C 43.6143,69.675 43.281,68.675 43.5,67.5C 42.8354,61.523 42.502,55.523 42.5,49.5C 43.5,48.1667 44.5,48.1667 45.5,49.5 Z"/></g>
<g><path style="opacity:1" fill="#bb9f7c" d="M 59.5,38.5 C 58.5975,41.3915 58.2641,44.3915 58.5,47.5C 59.8118,50.0245 60.3118,52.6912 60,55.5C 59.296,53.273 58.1294,52.9397 56.5,54.5C 56.8333,52.5 57.1667,50.5 57.5,48.5C 56.931,44.6707 57.5977,41.3373 59.5,38.5 Z"/></g>
<g><path style="opacity:1" fill="#d4474b" d="M 35.5,39.5 C 36.3833,44.1031 36.7166,48.7697 36.5,53.5C 35.8485,54.0906 35.1818,54.7573 34.5,55.5C 32.1555,50.7808 30.8221,45.7808 30.5,40.5C 32.0418,39.6993 33.7085,39.366 35.5,39.5 Z"/></g>
<g><path style="opacity:1" fill="#5c936a" d="M 45.5,49.5 C 48.728,50.4137 52.0613,50.7471 55.5,50.5C 55.3713,52.2161 55.038,53.8828 54.5,55.5C 53.5015,55.5872 52.3349,55.9205 51,56.5C 50.5779,58.3553 50.0779,60.1886 49.5,62C 49.5699,62.7648 49.9033,63.2648 50.5,63.5C 51.6431,63.9081 52.6431,64.5748 53.5,65.5C 50.6281,66.7825 47.7947,66.7825 45,65.5C 45.339,60.2268 45.5057,54.8934 45.5,49.5 Z"/></g>
<g><path style="opacity:1" fill="#c54b53" d="M 27.5,48.5 C 28.2341,49.7079 28.5674,51.0413 28.5,52.5C 27.1412,54.8237 25.1412,56.4904 22.5,57.5C 20.6163,56.3073 20.1163,54.6406 21,52.5C 22.678,50.3341 24.8447,49.0007 27.5,48.5 Z"/></g>
<g><path style="opacity:1" fill="#b64c4e" d="M 64.5,39.5 C 65.791,39.2627 66.791,39.596 67.5,40.5C 66.8333,40.5 66.5,40.8333 66.5,41.5C 65.5,41.5 64.5,41.5 63.5,41.5C 63.2471,43.8273 63.9137,45.8273 65.5,47.5C 66.1757,46.3984 66.8423,45.3984 67.5,44.5C 71.8818,49.7897 72.2152,55.2897 68.5,61C 69.428,61.3879 70.0946,62.0546 70.5,63C 70.0109,64.1385 69.6775,65.3052 69.5,66.5C 68.3406,64.7497 66.674,63.7497 64.5,63.5C 64.7267,60.562 63.7267,58.2287 61.5,56.5C 61.8333,55.1667 62.1667,53.8333 62.5,52.5C 62.5,48.5 62.5,44.5 62.5,40.5C 63.1667,40.1667 63.8333,39.8333 64.5,39.5 Z"/></g>
<g><path style="opacity:1" fill="#8f7053" d="M 58.5,47.5 C 59.5,47.5 60.5,47.5 61.5,47.5C 61.2155,49.4147 61.5489,51.0813 62.5,52.5C 62.1667,53.8333 61.8333,55.1667 61.5,56.5C 61.5,57.8333 61.5,59.1667 61.5,60.5C 60.1759,59.0654 58.5092,58.0654 56.5,57.5C 56.7615,59.1322 55.7615,60.2988 53.5,61C 54.5981,61.7697 54.5981,62.603 53.5,63.5C 52.3478,62.375 51.3478,62.375 50.5,63.5C 49.9033,63.2648 49.5699,62.7648 49.5,62C 50.0779,60.1886 50.5779,58.3553 51,56.5C 52.3349,55.9205 53.5015,55.5872 54.5,55.5C 55.4916,55.6716 56.1583,55.3382 56.5,54.5C 58.1294,52.9397 59.296,53.273 60,55.5C 60.3118,52.6912 59.8118,50.0245 58.5,47.5 Z"/></g>
<g><path style="opacity:1" fill="#a14f56" d="M 27.5,48.5 C 24.8447,49.0007 22.678,50.3341 21,52.5C 20.1163,54.6406 20.6163,56.3073 22.5,57.5C 25.1412,56.4904 27.1412,54.8237 28.5,52.5C 28.5,53.5 28.5,54.5 28.5,55.5C 27.2719,56.3065 26.2719,57.3065 25.5,58.5C 23.4214,58.9707 21.4214,59.6373 19.5,60.5C 18.1667,60.5 16.8333,60.5 15.5,60.5C 13.9383,64.6516 13.2716,68.9849 13.5,73.5C 12.5386,75.2646 12.2053,77.2646 12.5,79.5C 11.3483,74.0154 11.1816,68.3487 12,62.5C 13.1912,59.4659 15.3579,57.7993 18.5,57.5C 18.3398,55.8008 18.5065,54.1341 19,52.5C 20.7073,50.9625 22.2073,49.2959 23.5,47.5C 24.4822,46.8592 25.4822,46.1925 26.5,45.5C 27.3857,46.325 27.719,47.325 27.5,48.5 Z"/></g>
<g><path style="opacity:1" fill="#672c1f" d="M 25.5,58.5 C 25.1667,59.8333 24.8333,61.1667 24.5,62.5C 22.5,62.5 20.5,62.5 18.5,62.5C 18.8333,61.8333 19.1667,61.1667 19.5,60.5C 21.4214,59.6373 23.4214,58.9707 25.5,58.5 Z"/></g>
<g><path style="opacity:1" fill="#621f21" d="M 32.5,56.5 C 33.7899,57.0577 34.6232,58.0577 35,59.5C 34.7669,63.5726 34.9336,67.5726 35.5,71.5C 35.5,71.8333 35.5,72.1667 35.5,72.5C 34.8333,71.5 34.1667,70.5 33.5,69.5C 33.5,68.1667 33.5,66.8333 33.5,65.5C 33.5,63.8333 33.5,62.1667 33.5,60.5C 33.5,60.1667 33.5,59.8333 33.5,59.5C 32.9094,58.8485 32.2427,58.1818 31.5,57.5C 31.6236,56.8933 31.9569,56.56 32.5,56.5 Z"/></g>
<g><path style="opacity:1" fill="#542521" d="M 61.5,56.5 C 63.7267,58.2287 64.7267,60.562 64.5,63.5C 63.1667,62.8333 62.1667,61.8333 61.5,60.5C 61.5,59.1667 61.5,57.8333 61.5,56.5 Z"/></g>
<g><path style="opacity:1" fill="#5e2321" d="M 67.5,40.5 C 72.229,46.6648 75.229,53.6648 76.5,61.5C 78.5166,68.9528 79.0166,76.6195 78,84.5C 75.1457,87.6145 73.979,91.2811 74.5,95.5C 74.7373,96.791 74.404,97.791 73.5,98.5C 72.9035,97.0646 72.9035,95.398 73.5,93.5C 73.5,91.8333 73.5,90.1667 73.5,88.5C 76.6757,85.1328 77.8423,81.1328 77,76.5C 75.9887,75.6634 74.8221,75.33 73.5,75.5C 74.7465,72.2668 75.2465,68.9335 75,65.5C 74.6924,64.6919 74.1924,64.0253 73.5,63.5C 72.9432,65.3316 71.9432,66.6649 70.5,67.5C 70.1667,67.5 69.8333,67.5 69.5,67.5C 69.5,67.1667 69.5,66.8333 69.5,66.5C 69.6775,65.3052 70.0109,64.1385 70.5,63C 70.0946,62.0546 69.428,61.3879 68.5,61C 72.2152,55.2897 71.8818,49.7897 67.5,44.5C 67.4431,43.391 67.1098,42.391 66.5,41.5C 66.5,40.8333 66.8333,40.5 67.5,40.5 Z"/></g>
<g><path style="opacity:1" fill="#dbbfaa" d="M 28.5,55.5 C 29.2648,57.929 30.9315,59.2623 33.5,59.5C 33.5,59.8333 33.5,60.1667 33.5,60.5C 31.6203,60.2291 30.287,60.8958 29.5,62.5C 29.1667,62.5 28.8333,62.5 28.5,62.5C 27.8333,63.1667 27.1667,63.8333 26.5,64.5C 25.1667,64.5 24.5,63.8333 24.5,62.5C 24.8333,61.1667 25.1667,59.8333 25.5,58.5C 26.2719,57.3065 27.2719,56.3065 28.5,55.5 Z"/></g>
<g><path style="opacity:1" fill="#7b645e" d="M 33.5,60.5 C 33.5,62.1667 33.5,63.8333 33.5,65.5C 32.7321,64.7375 32.2321,63.7375 32,62.5C 31.5357,63.0944 31.369,63.7611 31.5,64.5C 30.8333,63.8333 30.1667,63.1667 29.5,62.5C 30.287,60.8958 31.6203,60.2291 33.5,60.5 Z"/></g>
<g><path style="opacity:1" fill="#baa284" d="M 41.5,47.5 C 41.3284,48.4916 41.6618,49.1583 42.5,49.5C 42.502,55.523 42.8354,61.523 43.5,67.5C 42.5655,68.5676 42.2322,69.901 42.5,71.5C 42.1667,71.5 41.8333,71.5 41.5,71.5C 41.2786,70.2652 40.6119,69.2652 39.5,68.5C 42.028,67.1841 42.028,66.0174 39.5,65C 40.7435,63.1303 41.4101,60.9637 41.5,58.5C 41.1099,53.4892 40.6099,48.4892 40,43.5C 39.3076,42.9747 38.8076,42.3081 38.5,41.5C 39.9884,39.1143 39.6551,38.4476 37.5,39.5C 37.5,39.1667 37.5,38.8333 37.5,38.5C 38.209,37.596 39.209,37.2627 40.5,37.5C 41.0508,40.8067 41.3841,44.1401 41.5,47.5 Z"/></g>
<g><path style="opacity:1" fill="#d7c2a4" d="M 61.5,60.5 C 62.1667,61.8333 63.1667,62.8333 64.5,63.5C 66.674,63.7497 68.3406,64.7497 69.5,66.5C 69.5,66.8333 69.5,67.1667 69.5,67.5C 69.5,69.8333 69.5,72.1667 69.5,74.5C 68.8333,73.8333 68.1667,73.1667 67.5,72.5C 67.5,71.1667 67.5,69.8333 67.5,68.5C 65.7839,68.6287 64.1172,68.962 62.5,69.5C 62.5394,68.4168 62.8728,67.4168 63.5,66.5C 60.5623,65.5109 57.5623,64.8442 54.5,64.5C 54.5,63.8333 54.1667,63.5 53.5,63.5C 54.5981,62.603 54.5981,61.7697 53.5,61C 55.7615,60.2988 56.7615,59.1322 56.5,57.5C 58.5092,58.0654 60.1759,59.0654 61.5,60.5 Z"/></g>
<g><path style="opacity:1" fill="#c84f53" d="M 19.5,60.5 C 19.1667,61.1667 18.8333,61.8333 18.5,62.5C 17.596,63.209 17.2627,64.209 17.5,65.5C 17.1384,70.4208 16.1384,75.0874 14.5,79.5C 13.8505,77.5648 13.5172,75.5648 13.5,73.5C 13.2716,68.9849 13.9383,64.6516 15.5,60.5C 16.8333,60.5 18.1667,60.5 19.5,60.5 Z"/></g>
<g><path style="opacity:1" fill="#b2774f" d="M 41.5,71.5 C 39.8762,71.6399 38.7096,70.9733 38,69.5C 37.7216,70.4158 37.2216,71.0825 36.5,71.5C 37.3252,65.3074 37.3252,59.3074 36.5,53.5C 36.7166,48.7697 36.3833,44.1031 35.5,39.5C 36.1667,39.5 36.8333,39.5 37.5,39.5C 39.6551,38.4476 39.9884,39.1143 38.5,41.5C 38.8076,42.3081 39.3076,42.9747 40,43.5C 40.6099,48.4892 41.1099,53.4892 41.5,58.5C 41.4101,60.9637 40.7435,63.1303 39.5,65C 42.028,66.0174 42.028,67.1841 39.5,68.5C 40.6119,69.2652 41.2786,70.2652 41.5,71.5 Z"/></g>
<g><path style="opacity:1" fill="#a99566" d="M 18.5,62.5 C 20.5,62.5 22.5,62.5 24.5,62.5C 24.5,63.8333 25.1667,64.5 26.5,64.5C 26.8383,68.1507 25.1716,69.8174 21.5,69.5C 21.5,69.1667 21.5,68.8333 21.5,68.5C 20.3285,67.6554 18.9952,66.9887 17.5,66.5C 17.5,66.1667 17.5,65.8333 17.5,65.5C 17.2627,64.209 17.596,63.209 18.5,62.5 Z"/></g>
<g><path style="opacity:1" fill="#473022" d="M 54.5,64.5 C 57.5623,64.8442 60.5623,65.5109 63.5,66.5C 62.8728,67.4168 62.5394,68.4168 62.5,69.5C 63.3065,70.7281 64.3065,71.7281 65.5,72.5C 64.0222,72.238 62.6888,72.5713 61.5,73.5C 62.2458,74.7362 62.5792,76.0695 62.5,77.5C 61.5266,77.0133 60.5266,76.5133 59.5,76C 60.3331,73.9189 60.3331,71.7522 59.5,69.5C 58.5,69.5 57.5,69.5 56.5,69.5C 56.5,70.8333 56.5,72.1667 56.5,73.5C 55.0937,73.0269 54.427,72.0269 54.5,70.5C 55.8333,69.5 55.8333,68.5 54.5,67.5C 54.5,66.5 54.5,65.5 54.5,64.5 Z"/></g>
<g><path style="opacity:1" fill="#cfb3ab" d="M 33.5,65.5 C 33.5,66.8333 33.5,68.1667 33.5,69.5C 33.5,70.1667 33.1667,70.5 32.5,70.5C 32.1667,68.5 31.8333,66.5 31.5,64.5C 31.369,63.7611 31.5357,63.0944 32,62.5C 32.2321,63.7375 32.7321,64.7375 33.5,65.5 Z"/></g>
<g><path style="opacity:1" fill="#c5ae80" d="M 54.5,67.5 C 55.8333,68.5 55.8333,69.5 54.5,70.5C 51.4552,70.4921 48.4552,70.1587 45.5,69.5C 45.6107,68.8826 45.944,68.3826 46.5,68C 49.146,67.5026 51.8127,67.3359 54.5,67.5 Z"/></g>
<g><path style="opacity:1" fill="#73715e" d="M 67.5,72.5 C 66.8333,72.5 66.1667,72.5 65.5,72.5C 64.3065,71.7281 63.3065,70.7281 62.5,69.5C 64.1172,68.962 65.7839,68.6287 67.5,68.5C 67.5,69.8333 67.5,71.1667 67.5,72.5 Z"/></g>
<g><path style="opacity:1" fill="#4c251f" d="M 28.5,62.5 C 28.8333,62.5 29.1667,62.5 29.5,62.5C 30.1667,63.1667 30.8333,63.8333 31.5,64.5C 31.8333,66.5 32.1667,68.5 32.5,70.5C 32.6716,71.4916 32.3382,72.1583 31.5,72.5C 30.3485,74.7791 29.3485,77.1124 28.5,79.5C 29.6389,73.8054 29.6389,68.1387 28.5,62.5 Z"/></g>
<g><path style="opacity:1" fill="#503835" d="M 76.5,61.5 C 77.6431,61.9081 78.6431,62.5748 79.5,63.5C 80.0671,65.9823 80.7337,68.3157 81.5,70.5C 81.6323,73.5701 81.299,76.5701 80.5,79.5C 79.6829,81.9686 79.1829,84.6353 79,87.5C 77.207,90.0617 75.707,92.7284 74.5,95.5C 73.979,91.2811 75.1457,87.6145 78,84.5C 79.0166,76.6195 78.5166,68.9528 76.5,61.5 Z"/></g>
<g><path style="opacity:1" fill="#a05553" d="M 17.5,65.5 C 17.5,65.8333 17.5,66.1667 17.5,66.5C 17.7402,72.227 17.4069,77.8936 16.5,83.5C 14.8235,82.8166 14.1568,81.4832 14.5,79.5C 16.1384,75.0874 17.1384,70.4208 17.5,65.5 Z"/></g>
<g><path style="opacity:1" fill="#89393c" d="M 73.5,88.5 C 73.7403,81.1725 72.7403,74.1725 70.5,67.5C 71.9432,66.6649 72.9432,65.3316 73.5,63.5C 74.1924,64.0253 74.6924,64.6919 75,65.5C 75.2465,68.9335 74.7465,72.2668 73.5,75.5C 74.8221,75.33 75.9887,75.6634 77,76.5C 77.8423,81.1328 76.6757,85.1328 73.5,88.5 Z"/></g>
<g><path style="opacity:1" fill="#1d1d18" d="M 65.5,72.5 C 66.1667,72.5 66.8333,72.5 67.5,72.5C 68.1667,73.1667 68.8333,73.8333 69.5,74.5C 70.3382,74.8417 70.6716,75.5084 70.5,76.5C 70.8245,83.6866 70.4912,90.6866 69.5,97.5C 68.2607,92.1932 66.9273,86.8599 65.5,81.5C 65.1788,79.9519 64.1788,79.2852 62.5,79.5C 62.5,78.8333 62.5,78.1667 62.5,77.5C 62.5792,76.0695 62.2458,74.7362 61.5,73.5C 62.6888,72.5713 64.0222,72.238 65.5,72.5 Z"/></g>
<g><path style="opacity:1" fill="#582f33" d="M 13.5,73.5 C 13.5172,75.5648 13.8505,77.5648 14.5,79.5C 14.1568,81.4832 14.8235,82.8166 16.5,83.5C 16.7448,88.0565 16.7448,92.3898 16.5,96.5C 14.154,91.1097 12.8207,85.4431 12.5,79.5C 12.2053,77.2646 12.5386,75.2646 13.5,73.5 Z"/></g>
<g><path style="opacity:1" fill="#b69168" d="M 62.5,77.5 C 62.5,78.1667 62.5,78.8333 62.5,79.5C 61.9944,85.188 61.3277,90.8547 60.5,96.5C 61.911,102.833 63.5776,109.833 65.5,117.5C 63.5695,117.771 62.2362,118.771 61.5,120.5C 60.8333,119.167 60.1667,117.833 59.5,116.5C 59.1249,114.302 58.4582,112.302 57.5,110.5C 57.5,110.167 57.5,109.833 57.5,109.5C 56.6167,104.897 56.2834,100.23 56.5,95.5C 56.5,94.8333 56.5,94.1667 56.5,93.5C 56.5,89.1667 56.5,84.8333 56.5,80.5C 56.5,78.1667 56.5,75.8333 56.5,73.5C 56.5,72.1667 56.5,70.8333 56.5,69.5C 57.5,69.5 58.5,69.5 59.5,69.5C 60.3331,71.7522 60.3331,73.9189 59.5,76C 60.5266,76.5133 61.5266,77.0133 62.5,77.5 Z"/></g>
<g><path style="opacity:1" fill="#c49567" d="M 41.5,71.5 C 41.8333,71.5 42.1667,71.5 42.5,71.5C 42.7776,78.489 41.7776,85.1557 39.5,91.5C 38.5,91.5 37.5,91.5 36.5,91.5C 36.8235,84.9779 36.4902,78.6446 35.5,72.5C 35.5,72.1667 35.5,71.8333 35.5,71.5C 35.8333,71.5 36.1667,71.5 36.5,71.5C 37.2216,71.0825 37.7216,70.4158 38,69.5C 38.7096,70.9733 39.8762,71.6399 41.5,71.5 Z"/></g>
<g><path style="opacity:1" fill="#616447" d="M 62.5,79.5 C 64.1788,79.2852 65.1788,79.9519 65.5,81.5C 64.47,84.7764 64.8033,88.1097 66.5,91.5C 66.0302,92.463 65.3635,92.463 64.5,91.5C 63.8106,90.2264 62.9772,90.2264 62,91.5C 61.8019,93.3817 61.3019,95.0484 60.5,96.5C 61.3277,90.8547 61.9944,85.188 62.5,79.5 Z"/></g>
<g><path style="opacity:1" fill="#de434c" d="M 31.5,76.5 C 32.8221,76.33 33.9887,76.6634 35,77.5C 35.4992,82.1548 35.6658,86.8215 35.5,91.5C 34.8333,91.5 34.1667,91.5 33.5,91.5C 32.0337,92.347 31.2004,93.6803 31,95.5C 31.0125,89.1819 31.1792,82.8486 31.5,76.5 Z"/></g>
<g><path style="opacity:1" fill="#713027" d="M 43.5,67.5 C 43.281,68.675 43.6143,69.675 44.5,70.5C 45.1067,70.3764 45.44,70.0431 45.5,69.5C 48.4552,70.1587 51.4552,70.4921 54.5,70.5C 54.427,72.0269 55.0937,73.0269 56.5,73.5C 56.5,75.8333 56.5,78.1667 56.5,80.5C 55.5386,78.7354 55.2053,76.7354 55.5,74.5C 51.5,74.5 47.5,74.5 43.5,74.5C 43.3398,76.1992 43.5065,77.8659 44,79.5C 44.2321,78.2625 44.7321,77.2625 45.5,76.5C 45.5,80.1667 45.5,83.8333 45.5,87.5C 45.33,88.8221 45.6634,89.9887 46.5,91C 44.563,91.1216 43.2297,91.955 42.5,93.5C 41.6618,93.8417 41.3284,94.5084 41.5,95.5C 40.8333,95.5 40.1667,95.5 39.5,95.5C 39.5,94.1667 39.5,92.8333 39.5,91.5C 41.7776,85.1557 42.7776,78.489 42.5,71.5C 42.2322,69.901 42.5655,68.5676 43.5,67.5 Z"/></g>
<g><path style="opacity:1" fill="#d24355" d="M 45.5,87.5 C 45.5,83.8333 45.5,80.1667 45.5,76.5C 48.2869,75.5233 51.2869,75.19 54.5,75.5C 55.0156,80.2291 55.0156,84.8957 54.5,89.5C 52.8662,89.032 51.6995,88.032 51,86.5C 49.984,87.6341 49.3173,87.3008 49,85.5C 48.6667,86.1667 48.3333,86.8333 48,87.5C 47.2303,86.4019 46.397,86.4019 45.5,87.5 Z"/></g>
<g><path style="opacity:1" fill="#862f2d" d="M 31.5,72.5 C 31.5,73.8333 31.5,75.1667 31.5,76.5C 30.1453,82.7838 29.1453,89.1171 28.5,95.5C 28.5,90.1667 28.5,84.8333 28.5,79.5C 29.3485,77.1124 30.3485,74.7791 31.5,72.5 Z"/></g>
<g><path style="opacity:1" fill="#b65744" d="M 33.5,69.5 C 34.1667,70.5 34.8333,71.5 35.5,72.5C 36.4902,78.6446 36.8235,84.9779 36.5,91.5C 36.1667,91.5 35.8333,91.5 35.5,91.5C 35.6658,86.8215 35.4992,82.1548 35,77.5C 33.9887,76.6634 32.8221,76.33 31.5,76.5C 31.5,75.1667 31.5,73.8333 31.5,72.5C 32.3382,72.1583 32.6716,71.4916 32.5,70.5C 33.1667,70.5 33.5,70.1667 33.5,69.5 Z"/></g>
<g><path style="opacity:1" fill="#b26565" d="M 69.5,67.5 C 69.8333,67.5 70.1667,67.5 70.5,67.5C 72.7403,74.1725 73.7403,81.1725 73.5,88.5C 73.5,90.1667 73.5,91.8333 73.5,93.5C 72.7784,93.9175 72.2784,94.5842 72,95.5C 71.8279,88.9867 71.3279,82.6534 70.5,76.5C 70.6716,75.5084 70.3382,74.8417 69.5,74.5C 69.5,72.1667 69.5,69.8333 69.5,67.5 Z"/></g>
<g><path style="opacity:1" fill="#53251b" d="M 28.5,79.5 C 28.5,84.8333 28.5,90.1667 28.5,95.5C 26.6766,98.1408 25.3432,101.141 24.5,104.5C 23.5,104.5 22.5,104.5 21.5,104.5C 24.8706,96.397 27.204,88.0637 28.5,79.5 Z"/></g>
<g><path style="opacity:1" fill="#7f7668" d="M 28.5,62.5 C 29.6389,68.1387 29.6389,73.8054 28.5,79.5C 27.204,88.0637 24.8706,96.397 21.5,104.5C 21.1667,104.5 20.8333,104.5 20.5,104.5C 19.6473,101.632 18.314,98.9653 16.5,96.5C 16.7448,92.3898 16.7448,88.0565 16.5,83.5C 17.4069,77.8936 17.7402,72.227 17.5,66.5C 18.9952,66.9887 20.3285,67.6554 21.5,68.5C 20.2502,68.5774 19.4169,69.244 19,70.5C 18.8333,74.6667 18.6667,78.8333 18.5,83C 18.5085,87.5572 19.1752,91.7238 20.5,95.5C 20.5,96.5 20.5,97.5 20.5,98.5C 21.5,98.5 22.5,98.5 23.5,98.5C 24.4657,92.8876 25.1324,87.2209 25.5,81.5C 27.1692,77.6489 27.6692,73.6489 27,69.5C 24.7944,71.8111 22.961,71.8111 21.5,69.5C 25.1716,69.8174 26.8383,68.1507 26.5,64.5C 27.1667,63.8333 27.8333,63.1667 28.5,62.5 Z"/></g>
<g><path style="opacity:1" fill="#1c1f19" d="M 21.5,68.5 C 21.5,68.8333 21.5,69.1667 21.5,69.5C 22.961,71.8111 24.7944,71.8111 27,69.5C 27.6692,73.6489 27.1692,77.6489 25.5,81.5C 24.2794,82.0283 23.1127,82.695 22,83.5C 21.6082,87.5276 21.1082,91.5276 20.5,95.5C 19.1752,91.7238 18.5085,87.5572 18.5,83C 18.6667,78.8333 18.8333,74.6667 19,70.5C 19.4169,69.244 20.2502,68.5774 21.5,68.5 Z"/></g>
<g><path style="opacity:1" fill="#5e8364" d="M 25.5,81.5 C 25.1324,87.2209 24.4657,92.8876 23.5,98.5C 22.5,98.5 21.5,98.5 20.5,98.5C 20.5,97.5 20.5,96.5 20.5,95.5C 21.1082,91.5276 21.6082,87.5276 22,83.5C 23.1127,82.695 24.2794,82.0283 25.5,81.5 Z"/></g>
<g><path style="opacity:1" fill="#973f42" d="M 56.5,80.5 C 56.5,84.8333 56.5,89.1667 56.5,93.5C 51.8333,93.5 47.1667,93.5 42.5,93.5C 43.2297,91.955 44.563,91.1216 46.5,91C 45.6634,89.9887 45.33,88.8221 45.5,87.5C 46.397,86.4019 47.2303,86.4019 48,87.5C 48.3333,86.8333 48.6667,86.1667 49,85.5C 49.3173,87.3008 49.984,87.6341 51,86.5C 51.6995,88.032 52.8662,89.032 54.5,89.5C 55.0156,84.8957 55.0156,80.2291 54.5,75.5C 51.2869,75.19 48.2869,75.5233 45.5,76.5C 44.7321,77.2625 44.2321,78.2625 44,79.5C 43.5065,77.8659 43.3398,76.1992 43.5,74.5C 47.5,74.5 51.5,74.5 55.5,74.5C 55.2053,76.7354 55.5386,78.7354 56.5,80.5 Z"/></g>
<g><path style="opacity:1" fill="#bf5965" d="M 42.5,93.5 C 47.1667,93.5 51.8333,93.5 56.5,93.5C 56.5,94.1667 56.5,94.8333 56.5,95.5C 55.8333,95.5 55.1667,95.5 54.5,95.5C 50.1667,95.5 45.8333,95.5 41.5,95.5C 41.3284,94.5084 41.6618,93.8417 42.5,93.5 Z"/></g>
<g><path style="opacity:1" fill="#82907b" d="M 65.5,81.5 C 66.9273,86.8599 68.2607,92.1932 69.5,97.5C 69.9321,98.7095 70.5987,99.7095 71.5,100.5C 71.5,101.833 71.5,103.167 71.5,104.5C 70.8571,102.924 69.8571,101.59 68.5,100.5C 67.8333,99.5 67.1667,98.5 66.5,97.5C 65.5418,95.6976 64.8751,93.6976 64.5,91.5C 65.3635,92.463 66.0302,92.463 66.5,91.5C 64.8033,88.1097 64.47,84.7764 65.5,81.5 Z"/></g>
<g><path style="opacity:1" fill="#421a1b" d="M 39.5,95.5 C 40.1667,95.5 40.8333,95.5 41.5,95.5C 45.8333,95.5 50.1667,95.5 54.5,95.5C 54.5,95.8333 54.5,96.1667 54.5,96.5C 54.3893,97.1174 54.056,97.6174 53.5,98C 50.905,98.2256 48.405,98.7256 46,99.5C 44.2111,97.771 42.0444,97.1043 39.5,97.5C 39.5,96.8333 39.5,96.1667 39.5,95.5 Z"/></g>
<g><path style="opacity:1" fill="#8e6d60" d="M 70.5,76.5 C 71.3279,82.6534 71.8279,88.9867 72,95.5C 72.2784,94.5842 72.7784,93.9175 73.5,93.5C 72.9035,95.398 72.9035,97.0646 73.5,98.5C 73.1667,99.5 72.5,100.167 71.5,100.5C 70.5987,99.7095 69.9321,98.7095 69.5,97.5C 70.4912,90.6866 70.8245,83.6866 70.5,76.5 Z"/></g>
<g><path style="opacity:1" fill="#cd5456" d="M 31.5,76.5 C 31.1792,82.8486 31.0125,89.1819 31,95.5C 31.2004,93.6803 32.0337,92.347 33.5,91.5C 34.2113,95.3246 33.0446,98.3246 30,100.5C 29.6174,99.944 29.1174,99.6107 28.5,99.5C 28.5,98.1667 28.5,96.8333 28.5,95.5C 29.1453,89.1171 30.1453,82.7838 31.5,76.5 Z"/></g>
<g><path style="opacity:1" fill="#b89e76" d="M 38.5,98.5 C 36.9281,103.315 34.5947,107.648 31.5,111.5C 30.609,110.89 29.609,110.557 28.5,110.5C 28.5,109.167 28.5,107.833 28.5,106.5C 29.4405,109.125 30.6072,109.125 32,106.5C 32.7733,102.847 33.9399,99.3468 35.5,96C 35.0426,95.586 34.7093,95.086 34.5,94.5C 37.9203,93.2473 39.2536,94.5807 38.5,98.5 Z"/></g>
<g><path style="opacity:1" fill="#1c201c" d="M 54.5,96.5 C 55.8333,98.1667 55.8333,99.8333 54.5,101.5C 53.5,101.5 52.5,101.5 51.5,101.5C 50.5655,102.568 50.2322,103.901 50.5,105.5C 49.5,105.5 48.5,105.5 47.5,105.5C 45.7661,109.419 43.7661,113.086 41.5,116.5C 41.4241,112.029 42.0908,107.696 43.5,103.5C 43.1667,102.167 42.8333,100.833 42.5,99.5C 36.2592,104.889 34.2592,111.556 36.5,119.5C 35.8333,120.167 35.1667,120.833 34.5,121.5C 33.7321,120.737 33.2321,119.737 33,118.5C 31.6054,119.815 30.6054,119.481 30,117.5C 27.1158,125.246 24.2824,132.913 21.5,140.5C 21.3893,141.117 21.056,141.617 20.5,142C 18.5273,142.495 16.5273,142.662 14.5,142.5C 13.3871,141.054 13.2204,139.387 14,137.5C 17.4473,133.597 21.114,129.93 25,126.5C 25.6776,124.402 25.5109,122.402 24.5,120.5C 24.5172,118.435 24.8505,116.435 25.5,114.5C 25.8333,114.5 26.1667,114.5 26.5,114.5C 26.3505,115.552 26.5172,116.552 27,117.5C 29.1267,115.886 30.6267,113.886 31.5,111.5C 34.5947,107.648 36.9281,103.315 38.5,98.5C 39.1667,98.5 39.5,98.1667 39.5,97.5C 42.0444,97.1043 44.2111,97.771 46,99.5C 48.405,98.7256 50.905,98.2256 53.5,98C 54.056,97.6174 54.3893,97.1174 54.5,96.5 Z"/></g>
<g><path style="opacity:1" fill="#ba7e58" d="M 33.5,91.5 C 34.1667,91.5 34.8333,91.5 35.5,91.5C 35.8333,91.5 36.1667,91.5 36.5,91.5C 37.5,91.5 38.5,91.5 39.5,91.5C 39.5,92.8333 39.5,94.1667 39.5,95.5C 39.5,96.1667 39.5,96.8333 39.5,97.5C 39.5,98.1667 39.1667,98.5 38.5,98.5C 39.2536,94.5807 37.9203,93.2473 34.5,94.5C 34.7093,95.086 35.0426,95.586 35.5,96C 33.9399,99.3468 32.7733,102.847 32,106.5C 30.6072,109.125 29.4405,109.125 28.5,106.5C 28.5,104.167 28.5,101.833 28.5,99.5C 29.1174,99.6107 29.6174,99.944 30,100.5C 33.0446,98.3246 34.2113,95.3246 33.5,91.5 Z"/></g>
<g><path style="opacity:1" fill="#495637" d="M 54.5,96.5 C 54.5,96.1667 54.5,95.8333 54.5,95.5C 55.1667,95.5 55.8333,95.5 56.5,95.5C 56.2834,100.23 56.6167,104.897 57.5,109.5C 55.6031,107.302 54.6031,104.636 54.5,101.5C 55.8333,99.8333 55.8333,98.1667 54.5,96.5 Z"/></g>
<g><path style="opacity:1" fill="#803931" d="M 28.5,95.5 C 28.5,96.8333 28.5,98.1667 28.5,99.5C 28.5,101.833 28.5,104.167 28.5,106.5C 28.5,107.833 28.5,109.167 28.5,110.5C 27.8333,111.833 27.1667,113.167 26.5,114.5C 26.1667,114.5 25.8333,114.5 25.5,114.5C 26.9009,110.083 26.9009,107.083 25.5,105.5C 24.5,105.5 23.5,105.5 22.5,105.5C 22.7373,106.791 22.404,107.791 21.5,108.5C 21.5,107.167 21.5,105.833 21.5,104.5C 22.5,104.5 23.5,104.5 24.5,104.5C 25.3432,101.141 26.6766,98.1408 28.5,95.5 Z"/></g>
<g><path style="opacity:1" fill="#b5696a" d="M 66.5,97.5 C 67.1667,98.5 67.8333,99.5 68.5,100.5C 68.5,102.5 68.5,104.5 68.5,106.5C 68.4556,111.154 68.1223,115.821 67.5,120.5C 66.1689,113.188 65.3356,105.854 65,98.5C 66.0432,102.226 66.5432,101.893 66.5,97.5 Z"/></g>
<g><path style="opacity:1" fill="#492821" d="M 68.5,100.5 C 69.8571,101.59 70.8571,102.924 71.5,104.5C 72.3653,115.487 73.032,126.487 73.5,137.5C 71.7202,136.01 71.0535,134.01 71.5,131.5C 69.8698,123.142 68.8698,114.809 68.5,106.5C 68.5,104.5 68.5,102.5 68.5,100.5 Z"/></g>
<g><path style="opacity:1" fill="#5e271e" d="M 64.5,91.5 C 64.8751,93.6976 65.5418,95.6976 66.5,97.5C 66.5432,101.893 66.0432,102.226 65,98.5C 65.3356,105.854 66.1689,113.188 67.5,120.5C 66.8333,120.5 66.5,120.167 66.5,119.5C 66.6716,118.508 66.3382,117.842 65.5,117.5C 63.5776,109.833 61.911,102.833 60.5,96.5C 61.3019,95.0484 61.8019,93.3817 62,91.5C 62.9772,90.2264 63.8106,90.2264 64.5,91.5 Z"/></g>
<g><path style="opacity:1" fill="#836f60" d="M 28.5,110.5 C 29.609,110.557 30.609,110.89 31.5,111.5C 30.6267,113.886 29.1267,115.886 27,117.5C 26.5172,116.552 26.3505,115.552 26.5,114.5C 27.1667,113.167 27.8333,111.833 28.5,110.5 Z"/></g>
<g><path style="opacity:1" fill="#549d7f" d="M 41.5,116.5 C 41.7373,117.791 41.404,118.791 40.5,119.5C 39.1667,119.5 37.8333,119.5 36.5,119.5C 34.2592,111.556 36.2592,104.889 42.5,99.5C 42.8333,100.833 43.1667,102.167 43.5,103.5C 42.0908,107.696 41.4241,112.029 41.5,116.5 Z"/></g>
<g><path style="opacity:1" fill="#2b5859" d="M 51.5,101.5 C 51.3874,104.049 52.0541,106.382 53.5,108.5C 52.5585,108.489 51.8919,108.989 51.5,110C 52.0769,111.9 52.7435,113.733 53.5,115.5C 52.2106,117.248 50.7106,117.581 49,116.5C 48.289,114.101 48.4557,111.768 49.5,109.5C 48.3698,108.378 47.7031,107.044 47.5,105.5C 48.5,105.5 49.5,105.5 50.5,105.5C 50.2322,103.901 50.5655,102.568 51.5,101.5 Z"/></g>
<g><path style="opacity:1" fill="#b05a59" d="M 25.5,114.5 C 24.8505,116.435 24.5172,118.435 24.5,120.5C 24.1749,124.777 21.8416,127.111 17.5,127.5C 17.7215,124.933 18.3882,122.599 19.5,120.5C 21.1294,122.06 22.296,121.727 23,119.5C 24.3632,114.916 25.1966,110.249 25.5,105.5C 26.9009,107.083 26.9009,110.083 25.5,114.5 Z"/></g>
<g><path style="opacity:1" fill="#609a74" d="M 51.5,101.5 C 52.5,101.5 53.5,101.5 54.5,101.5C 54.6031,104.636 55.6031,107.302 57.5,109.5C 57.5,109.833 57.5,110.167 57.5,110.5C 57.8134,113.247 57.48,115.914 56.5,118.5C 55.265,117.66 54.265,116.66 53.5,115.5C 52.7435,113.733 52.0769,111.9 51.5,110C 51.8919,108.989 52.5585,108.489 53.5,108.5C 52.0541,106.382 51.3874,104.049 51.5,101.5 Z"/></g>
<g><path style="opacity:1" fill="#d5525d" d="M 25.5,105.5 C 25.1966,110.249 24.3632,114.916 23,119.5C 22.296,121.727 21.1294,122.06 19.5,120.5C 20.1667,116.5 20.8333,112.5 21.5,108.5C 22.404,107.791 22.7373,106.791 22.5,105.5C 23.5,105.5 24.5,105.5 25.5,105.5 Z"/></g>
<g><path style="opacity:1" fill="#1f242b" d="M 47.5,105.5 C 47.7031,107.044 48.3698,108.378 49.5,109.5C 48.4557,111.768 48.289,114.101 49,116.5C 50.7106,117.581 52.2106,117.248 53.5,115.5C 53.1667,116.833 52.8333,118.167 52.5,119.5C 51.5386,121.265 51.2053,123.265 51.5,125.5C 51.2053,127.735 51.5386,129.735 52.5,131.5C 52.5,132.167 52.5,132.833 52.5,133.5C 51.2876,132.77 50.2876,131.77 49.5,130.5C 48.8243,131.602 48.1577,132.602 47.5,133.5C 47.2785,130.933 46.6118,128.599 45.5,126.5C 45.5,124.5 44.5,123.5 42.5,123.5C 43.0606,121.934 42.3939,120.601 40.5,119.5C 41.404,118.791 41.7373,117.791 41.5,116.5C 43.7661,113.086 45.7661,109.419 47.5,105.5 Z"/></g>
<g><path style="opacity:1" fill="#656b53" d="M 57.5,110.5 C 58.4582,112.302 59.1249,114.302 59.5,116.5C 58.8333,117.5 58.1667,118.5 57.5,119.5C 55.8333,119.5 54.1667,119.5 52.5,119.5C 52.8333,118.167 53.1667,116.833 53.5,115.5C 54.265,116.66 55.265,117.66 56.5,118.5C 57.48,115.914 57.8134,113.247 57.5,110.5 Z"/></g>
<g><path style="opacity:1" fill="#754e4b" d="M 20.5,104.5 C 20.8333,104.5 21.1667,104.5 21.5,104.5C 21.5,105.833 21.5,107.167 21.5,108.5C 20.8333,112.5 20.1667,116.5 19.5,120.5C 18.3882,122.599 17.7215,124.933 17.5,127.5C 16.4039,131.289 15.7373,131.289 15.5,127.5C 17.0676,119.74 18.7343,112.073 20.5,104.5 Z"/></g>
<g><path style="opacity:1" fill="#a75b53" d="M 36.5,119.5 C 37.8333,119.5 39.1667,119.5 40.5,119.5C 42.3939,120.601 43.0606,121.934 42.5,123.5C 40.7809,124.022 39.4475,125.022 38.5,126.5C 37.8333,126.5 37.1667,126.5 36.5,126.5C 36.0679,125.29 35.4013,124.29 34.5,123.5C 34.5,122.833 34.5,122.167 34.5,121.5C 35.1667,120.833 35.8333,120.167 36.5,119.5 Z"/></g>
<g><path style="opacity:1" fill="#a3534d" d="M 52.5,119.5 C 54.1667,119.5 55.8333,119.5 57.5,119.5C 58.9418,120.82 59.6085,122.486 59.5,124.5C 59.5,124.833 59.5,125.167 59.5,125.5C 58.209,125.263 57.209,125.596 56.5,126.5C 54.8828,125.962 53.2161,125.629 51.5,125.5C 51.2053,123.265 51.5386,121.265 52.5,119.5 Z"/></g>
<g><path style="opacity:1" fill="#703b3a" d="M 68.5,106.5 C 68.8698,114.809 69.8698,123.142 71.5,131.5C 69.901,131.768 68.5676,131.434 67.5,130.5C 68.0395,127.19 67.3728,123.856 65.5,120.5C 65.6236,119.893 65.9569,119.56 66.5,119.5C 66.5,120.167 66.8333,120.5 67.5,120.5C 68.1223,115.821 68.4556,111.154 68.5,106.5 Z"/></g>
<g><path style="opacity:1" fill="#897067" d="M 65.5,117.5 C 66.3382,117.842 66.6716,118.508 66.5,119.5C 65.9569,119.56 65.6236,119.893 65.5,120.5C 67.3728,123.856 68.0395,127.19 67.5,130.5C 66.1667,128.167 64.8333,125.833 63.5,123.5C 62.8333,122.5 62.1667,121.5 61.5,120.5C 62.2362,118.771 63.5695,117.771 65.5,117.5 Z"/></g>
<g><path style="opacity:1" fill="#172d3e" d="M 34.5,121.5 C 34.5,122.167 34.5,122.833 34.5,123.5C 34.423,127.215 34.7564,130.881 35.5,134.5C 33.631,132.365 32.9644,129.698 33.5,126.5C 30.7081,126.452 28.8747,127.785 28,130.5C 27.0042,133.909 26.1708,137.242 25.5,140.5C 24.8423,141.398 24.1757,142.398 23.5,143.5C 22.8243,142.398 22.1577,141.398 21.5,140.5C 24.2824,132.913 27.1158,125.246 30,117.5C 30.6054,119.481 31.6054,119.815 33,118.5C 33.2321,119.737 33.7321,120.737 34.5,121.5 Z"/></g>
<g><path style="opacity:1" fill="#f0dc7d" d="M 42.5,146.5 C 41.8333,146.5 41.1667,146.5 40.5,146.5C 40.5,145.5 40.5,144.5 40.5,143.5C 39.5,138.167 38.5,132.833 37.5,127.5C 38.8333,127.5 40.1667,127.5 41.5,127.5C 41.3441,133.202 42.3441,138.702 44.5,144C 43.9444,145.011 43.2778,145.844 42.5,146.5 Z"/></g>
<g><path style="opacity:1" fill="#bbaf7e" d="M 56.5,126.5 C 57.209,125.596 58.209,125.263 59.5,125.5C 60.4767,128.287 60.81,131.287 60.5,134.5C 59.3749,138.521 59.3749,142.521 60.5,146.5C 59.0744,144.321 58.4078,141.821 58.5,139C 59.1227,134.853 59.4561,130.686 59.5,126.5C 58.5,126.5 57.5,126.5 56.5,126.5 Z"/></g>
<g><path style="opacity:1" fill="#928477" d="M 24.5,120.5 C 25.5109,122.402 25.6776,124.402 25,126.5C 21.114,129.93 17.4473,133.597 14,137.5C 13.2204,139.387 13.3871,141.054 14.5,142.5C 14.5,142.833 14.5,143.167 14.5,143.5C 12.5613,142.986 11.5613,141.653 11.5,139.5C 12.9061,135.394 14.2394,131.394 15.5,127.5C 15.7373,131.289 16.4039,131.289 17.5,127.5C 21.8416,127.111 24.1749,124.777 24.5,120.5 Z"/></g>
<g><path style="opacity:1" fill="#7f6b4a" d="M 42.5,123.5 C 44.5,123.5 45.5,124.5 45.5,126.5C 45.5,131.5 45.5,136.5 45.5,141.5C 44.6733,136.349 44.1733,131.016 44,125.5C 42.3005,126.406 40.4672,126.739 38.5,126.5C 39.4475,125.022 40.7809,124.022 42.5,123.5 Z"/></g>
<g><path style="opacity:1" fill="#d2bf83" d="M 45.5,141.5 C 45.5,142.833 45.5,144.167 45.5,145.5C 45.5,145.833 45.5,146.167 45.5,146.5C 44.5,146.5 43.5,146.5 42.5,146.5C 43.2778,145.844 43.9444,145.011 44.5,144C 42.3441,138.702 41.3441,133.202 41.5,127.5C 40.1667,127.5 38.8333,127.5 37.5,127.5C 38.5,132.833 39.5,138.167 40.5,143.5C 37.9763,138.231 36.6429,132.564 36.5,126.5C 37.1667,126.5 37.8333,126.5 38.5,126.5C 40.4672,126.739 42.3005,126.406 44,125.5C 44.1733,131.016 44.6733,136.349 45.5,141.5 Z"/></g>
<g><path style="opacity:1" fill="#5d563f" d="M 59.5,125.5 C 59.5,125.167 59.5,124.833 59.5,124.5C 60.7773,125.694 61.4439,127.36 61.5,129.5C 61.4932,131.369 61.1599,133.036 60.5,134.5C 60.81,131.287 60.4767,128.287 59.5,125.5 Z"/></g>
<g><path style="opacity:1" fill="#eede87" d="M 56.5,126.5 C 57.5,126.5 58.5,126.5 59.5,126.5C 59.4561,130.686 59.1227,134.853 58.5,139C 58.4078,141.821 59.0744,144.321 60.5,146.5C 60.5,146.833 60.5,147.167 60.5,147.5C 59.4479,149.256 57.7812,149.923 55.5,149.5C 54.5386,147.735 54.2053,145.735 54.5,143.5C 55.3049,137.984 55.9716,132.318 56.5,126.5 Z"/></g>
<g><path style="opacity:1" fill="#2c4a5d" d="M 52.5,133.5 C 53.3292,138.453 53.6625,143.453 53.5,148.5C 51.5447,148.201 50.2114,147.201 49.5,145.5C 49.6606,141.277 48.994,137.277 47.5,133.5C 48.1577,132.602 48.8243,131.602 49.5,130.5C 50.2876,131.77 51.2876,132.77 52.5,133.5 Z"/></g>
<g><path style="opacity:1" fill="#f9fbf3" d="M -0.5,47.5 C 0.5,47.5 1.5,47.5 2.5,47.5C 2.46186,51.3625 2.7952,55.1958 3.5,59C 3.6464,61.0342 2.97974,62.7009 1.5,64C 1.9841,66.8542 1.9841,69.8542 1.5,73C 3.03232,78.2217 4.03232,84.8884 4.5,93C 3.18641,96.0683 2.18641,99.2349 1.5,102.5C 2.97832,113.79 3.97832,125.124 4.5,136.5C 3.65316,142.778 3.31983,148.945 3.5,155C 3.75908,156.261 4.42575,157.261 5.5,158C 3.83456,159.826 2.83456,161.993 2.5,164.5C 1.5,164.5 0.5,164.5 -0.5,164.5C -0.5,125.5 -0.5,86.5 -0.5,47.5 Z"/></g>
<g><path style="opacity:1" fill="#21322a" d="M 45.5,126.5 C 46.6118,128.599 47.2785,130.933 47.5,133.5C 48.994,137.277 49.6606,141.277 49.5,145.5C 48.1667,144.167 46.8333,144.167 45.5,145.5C 45.5,144.167 45.5,142.833 45.5,141.5C 45.5,136.5 45.5,131.5 45.5,126.5 Z"/></g>
<g><path style="opacity:1" fill="#314759" d="M 63.5,123.5 C 64.8333,125.833 66.1667,128.167 67.5,130.5C 68.5676,131.434 69.901,131.768 71.5,131.5C 71.0535,134.01 71.7202,136.01 73.5,137.5C 73.634,139.292 73.3007,140.958 72.5,142.5C 71.8333,142.833 71.1667,143.167 70.5,143.5C 69.5207,142.235 68.5207,140.901 67.5,139.5C 67.1667,140.333 66.8333,141.167 66.5,142C 66.8735,143.55 67.5401,144.717 68.5,145.5C 68.1667,145.5 67.8333,145.5 67.5,145.5C 65.4184,145.624 63.9184,146.624 63,148.5C 62.5742,142.993 63.4075,137.66 65.5,132.5C 64.8333,131.833 64.1667,131.167 63.5,130.5C 64.8217,128.135 64.8217,125.802 63.5,123.5 Z"/></g>
<g><path style="opacity:1" fill="#1e1b16" d="M 59.5,116.5 C 60.1667,117.833 60.8333,119.167 61.5,120.5C 62.1667,121.5 62.8333,122.5 63.5,123.5C 64.8217,125.802 64.8217,128.135 63.5,130.5C 64.1667,131.167 64.8333,131.833 65.5,132.5C 63.4075,137.66 62.5742,142.993 63,148.5C 63.9184,146.624 65.4184,145.624 67.5,145.5C 68.5357,147.688 70.0357,147.688 72,145.5C 72.9184,147.376 74.4184,148.376 76.5,148.5C 74.7809,149.022 73.4475,150.022 72.5,151.5C 72.1667,151.5 71.8333,151.5 71.5,151.5C 69.8561,151.714 68.3561,151.38 67,150.5C 65.6976,151.085 64.531,151.751 63.5,152.5C 61.9724,151.198 60.9724,149.531 60.5,147.5C 60.5,147.167 60.5,146.833 60.5,146.5C 59.3749,142.521 59.3749,138.521 60.5,134.5C 61.1599,133.036 61.4932,131.369 61.5,129.5C 61.4439,127.36 60.7773,125.694 59.5,124.5C 59.6085,122.486 58.9418,120.82 57.5,119.5C 58.1667,118.5 58.8333,117.5 59.5,116.5 Z"/></g>
<g><path style="opacity:1" fill="#22627e" d="M 35.5,134.5 C 36.2621,136.956 36.9288,139.456 37.5,142C 37.3158,143.376 36.6491,144.209 35.5,144.5C 32.5274,143.916 29.5274,143.249 26.5,142.5C 26.1373,141.817 25.8039,141.15 25.5,140.5C 26.1708,137.242 27.0042,133.909 28,130.5C 28.8747,127.785 30.7081,126.452 33.5,126.5C 32.9644,129.698 33.631,132.365 35.5,134.5 Z"/></g>
<g><path style="opacity:1" fill="#bdb780" d="M 51.5,125.5 C 53.2161,125.629 54.8828,125.962 56.5,126.5C 55.9716,132.318 55.3049,137.984 54.5,143.5C 54.8023,139.21 54.1357,135.21 52.5,131.5C 51.5386,129.735 51.2053,127.735 51.5,125.5 Z"/></g>
<g><path style="opacity:1" fill="#34737d" d="M 70.5,143.5 C 70.1667,144.5 69.5,145.167 68.5,145.5C 67.5401,144.717 66.8735,143.55 66.5,142C 66.8333,141.167 67.1667,140.333 67.5,139.5C 68.5207,140.901 69.5207,142.235 70.5,143.5 Z"/></g>
<g><path style="opacity:1" fill="#395559" d="M 21.5,140.5 C 22.1577,141.398 22.8243,142.398 23.5,143.5C 24.1757,142.398 24.8423,141.398 25.5,140.5C 25.8039,141.15 26.1373,141.817 26.5,142.5C 29.5274,143.249 32.5274,143.916 35.5,144.5C 34.5967,146.62 33.2633,146.954 31.5,145.5C 29.3166,144.157 27.3166,144.49 25.5,146.5C 25.3893,145.883 25.056,145.383 24.5,145C 21.2432,143.957 17.9099,143.457 14.5,143.5C 14.5,143.167 14.5,142.833 14.5,142.5C 16.5273,142.662 18.5273,142.495 20.5,142C 21.056,141.617 21.3893,141.117 21.5,140.5 Z"/></g>
<g><path style="opacity:1" fill="#a7aaa2" d="M 72.5,142.5 C 72.5394,143.583 72.8728,144.583 73.5,145.5C 75.1836,146.15 76.5169,147.15 77.5,148.5C 77.1667,148.5 76.8333,148.5 76.5,148.5C 74.4184,148.376 72.9184,147.376 72,145.5C 70.0357,147.688 68.5357,147.688 67.5,145.5C 67.8333,145.5 68.1667,145.5 68.5,145.5C 69.5,145.167 70.1667,144.5 70.5,143.5C 71.1667,143.167 71.8333,142.833 72.5,142.5 Z"/></g>
<g><path style="opacity:1" fill="#f2f2e8" d="M 80.5,79.5 C 80.1456,84.6053 80.1456,89.6053 80.5,94.5C 76.5265,95.0755 75.5265,97.2421 77.5,101C 76.4841,102.677 75.4841,104.343 74.5,106C 75.9584,108.058 76.6251,110.391 76.5,113C 75.7083,117.157 75.5417,121.323 76,125.5C 76.8996,126.77 78.0663,127.77 79.5,128.5C 78.3349,129.584 77.0016,130.417 75.5,131C 76.3521,133.417 77.0188,135.917 77.5,138.5C 74.8123,140.873 74.979,142.873 78,144.5C 81.7327,142.916 84.8994,143.75 87.5,147C 87.5866,149.13 87.5866,151.297 87.5,153.5C 89.1082,154.242 90.7749,154.409 92.5,154C 91.1667,155.667 91.1667,157.333 92.5,159C 90.2535,160.374 88.0868,161.874 86,163.5C 84.9231,162.571 83.7564,161.904 82.5,161.5C 83.1834,159.824 84.5168,159.157 86.5,159.5C 87.6484,157.085 86.9817,155.085 84.5,153.5C 83.5637,152.026 82.2303,151.026 80.5,150.5C 79.7095,149.599 78.7095,148.932 77.5,148.5C 76.5169,147.15 75.1836,146.15 73.5,145.5C 72.8728,144.583 72.5394,143.583 72.5,142.5C 73.3007,140.958 73.634,139.292 73.5,137.5C 73.032,126.487 72.3653,115.487 71.5,104.5C 71.5,103.167 71.5,101.833 71.5,100.5C 72.5,100.167 73.1667,99.5 73.5,98.5C 74.404,97.791 74.7373,96.791 74.5,95.5C 75.707,92.7284 77.207,90.0617 79,87.5C 79.1829,84.6353 79.6829,81.9686 80.5,79.5 Z"/></g>
<g><path style="opacity:1" fill="#334236" d="M 31.5,145.5 C 29.0065,145.131 28.3398,145.797 29.5,147.5C 25.448,147.888 21.448,148.555 17.5,149.5C 16.937,151.709 15.6036,153.209 13.5,154C 13.9574,154.414 14.2907,154.914 14.5,155.5C 13.1468,156.524 12.4802,157.857 12.5,159.5C 14.1667,159.5 15.8333,159.5 17.5,159.5C 14.6965,160.638 11.6965,160.805 8.5,160C 8.83333,159.667 9.16667,159.333 9.5,159C 8.5842,158.722 7.91753,158.222 7.5,157.5C 8.23891,157.631 8.90558,157.464 9.5,157C 9.5,156 9.5,155 9.5,154C 12.6399,153 13.9732,150.833 13.5,147.5C 16.3903,147.722 19.057,147.055 21.5,145.5C 22.7362,146.246 24.0695,146.579 25.5,146.5C 27.3166,144.49 29.3166,144.157 31.5,145.5 Z"/></g>
<g><path style="opacity:1" fill="#1c211f" d="M 34.5,123.5 C 35.4013,124.29 36.0679,125.29 36.5,126.5C 36.6429,132.564 37.9763,138.231 40.5,143.5C 40.5,144.5 40.5,145.5 40.5,146.5C 39.7377,148.262 38.4044,149.262 36.5,149.5C 34.0017,150.121 31.6684,149.455 29.5,147.5C 28.3398,145.797 29.0065,145.131 31.5,145.5C 33.2633,146.954 34.5967,146.62 35.5,144.5C 36.6491,144.209 37.3158,143.376 37.5,142C 36.9288,139.456 36.2621,136.956 35.5,134.5C 34.7564,130.881 34.423,127.215 34.5,123.5 Z"/></g>
<g><path style="opacity:1" fill="#5d7d64" d="M 29.5,147.5 C 31.6684,149.455 34.0017,150.121 36.5,149.5C 35.1667,152.167 35.1667,154.833 36.5,157.5C 34.9522,158.794 32.9522,159.461 30.5,159.5C 28.5,159.333 26.5,159.167 24.5,159C 26.2983,157.495 28.1316,157.328 30,158.5C 30.3333,157.5 30.6667,156.5 31,155.5C 32.073,156.28 33.2396,156.113 34.5,155C 33.3349,153.916 32.0016,153.083 30.5,152.5C 28.5018,152.905 26.6684,154.238 25,156.5C 22.0059,155.513 21.8392,154.18 24.5,152.5C 21.7433,151.134 19.5767,151.801 18,154.5C 17.2599,155.749 17.4265,156.749 18.5,157.5C 18.6716,158.492 18.3382,159.158 17.5,159.5C 15.8333,159.5 14.1667,159.5 12.5,159.5C 12.4802,157.857 13.1468,156.524 14.5,155.5C 14.2907,154.914 13.9574,154.414 13.5,154C 15.6036,153.209 16.937,151.709 17.5,149.5C 21.448,148.555 25.448,147.888 29.5,147.5 Z"/></g>
<g><path style="opacity:1" fill="#231a18" d="M 49.5,145.5 C 50.2114,147.201 51.5447,148.201 53.5,148.5C 52.6373,153.504 50.804,153.838 48,149.5C 47.51,150.793 47.3433,152.127 47.5,153.5C 45.9519,153.179 45.2852,152.179 45.5,150.5C 45.5,149.167 45.5,147.833 45.5,146.5C 45.5,146.167 45.5,145.833 45.5,145.5C 46.8333,144.167 48.1667,144.167 49.5,145.5 Z"/></g>
<g><path style="opacity:1" fill="#647565" d="M 76.5,148.5 C 76.8333,148.5 77.1667,148.5 77.5,148.5C 78.7095,148.932 79.7095,149.599 80.5,150.5C 79.7611,150.369 79.0944,150.536 78.5,151C 81.6827,153.312 82.3494,156.146 80.5,159.5C 77.6146,159.806 74.9479,159.473 72.5,158.5C 73.7733,157.923 73.7733,157.257 72.5,156.5C 71.2322,157.428 69.8989,157.595 68.5,157C 69.4158,156.722 70.0825,156.222 70.5,155.5C 73.5959,154.907 75.9292,155.907 77.5,158.5C 78.2436,157.009 78.9103,155.509 79.5,154C 76.8091,153.844 74.4758,153.011 72.5,151.5C 73.4475,150.022 74.7809,149.022 76.5,148.5 Z"/></g>
<g><path style="opacity:1" fill="#a05253" d="M 40.5,146.5 C 41.1667,146.5 41.8333,146.5 42.5,146.5C 43.5,146.5 44.5,146.5 45.5,146.5C 45.5,147.833 45.5,149.167 45.5,150.5C 44.7321,151.263 44.2321,152.263 44,153.5C 43.6667,152.5 43.3333,151.5 43,150.5C 42.0206,152.32 40.5206,153.487 38.5,154C 40.6192,154.342 40.9526,155.175 39.5,156.5C 39.5912,158.698 38.9245,159.031 37.5,157.5C 37.1667,157.5 36.8333,157.5 36.5,157.5C 35.1667,154.833 35.1667,152.167 36.5,149.5C 38.4044,149.262 39.7377,148.262 40.5,146.5 Z"/></g>
<g><path style="opacity:1" fill="#b06452" d="M 60.5,147.5 C 60.9724,149.531 61.9724,151.198 63.5,152.5C 63.5,152.833 63.5,153.167 63.5,153.5C 62.713,155.104 61.3797,155.771 59.5,155.5C 58.7206,153.323 57.3873,151.656 55.5,150.5C 55.5,150.167 55.5,149.833 55.5,149.5C 57.7812,149.923 59.4479,149.256 60.5,147.5 Z"/></g>
<g><path style="opacity:1" fill="#4d231d" d="M 45.5,150.5 C 45.2852,152.179 45.9519,153.179 47.5,153.5C 45.1522,155.097 42.4855,156.097 39.5,156.5C 40.9526,155.175 40.6192,154.342 38.5,154C 40.5206,153.487 42.0206,152.32 43,150.5C 43.3333,151.5 43.6667,152.5 44,153.5C 44.2321,152.263 44.7321,151.263 45.5,150.5 Z"/></g>
<g><path style="opacity:1" fill="#2c362e" d="M 71.5,151.5 C 71.8333,151.5 72.1667,151.5 72.5,151.5C 74.4758,153.011 76.8091,153.844 79.5,154C 78.9103,155.509 78.2436,157.009 77.5,158.5C 75.9292,155.907 73.5959,154.907 70.5,155.5C 70.5,154.833 70.5,154.167 70.5,153.5C 71.3382,153.158 71.6716,152.492 71.5,151.5 Z"/></g>
<g><path style="opacity:1" fill="#642f24" d="M 55.5,150.5 C 57.3873,151.656 58.7206,153.323 59.5,155.5C 57.4471,155.598 55.7804,154.931 54.5,153.5C 54.2627,152.209 54.596,151.209 55.5,150.5 Z"/></g>
<g><path style="opacity:1" fill="#88746c" d="M 71.5,151.5 C 71.6716,152.492 71.3382,153.158 70.5,153.5C 68.8864,154.271 67.3864,155.271 66,156.5C 65.7537,155.279 64.9204,154.279 63.5,153.5C 63.5,153.167 63.5,152.833 63.5,152.5C 64.531,151.751 65.6976,151.085 67,150.5C 68.3561,151.38 69.8561,151.714 71.5,151.5 Z"/></g>
<g><path style="opacity:1" fill="#3d2923" d="M 54.5,153.5 C 55.7804,154.931 57.4471,155.598 59.5,155.5C 61.3797,155.771 62.713,155.104 63.5,153.5C 64.9204,154.279 65.7537,155.279 66,156.5C 67.3864,155.271 68.8864,154.271 70.5,153.5C 70.5,154.167 70.5,154.833 70.5,155.5C 70.0825,156.222 69.4158,156.722 68.5,157C 69.8989,157.595 71.2322,157.428 72.5,156.5C 73.7733,157.257 73.7733,157.923 72.5,158.5C 66.6755,158.79 61.0088,158.123 55.5,156.5C 53.4482,155.947 53.1148,154.947 54.5,153.5 Z"/></g>
<g><path style="opacity:1" fill="#91918b" d="M 84.5,153.5 C 86.9817,155.085 87.6484,157.085 86.5,159.5C 85.8333,157.5 85.1667,155.5 84.5,153.5 Z"/></g>
<g><path style="opacity:1" fill="#3b4c3b" d="M 36.5,157.5 C 36.8333,157.5 37.1667,157.5 37.5,157.5C 38.1834,159.176 39.5168,159.843 41.5,159.5C 34.9888,160.818 28.3222,160.818 21.5,159.5C 22.5896,158.391 22.5896,157.391 21.5,156.5C 20.5832,157.127 19.5832,157.461 18.5,157.5C 17.4265,156.749 17.2599,155.749 18,154.5C 19.5767,151.801 21.7433,151.134 24.5,152.5C 21.8392,154.18 22.0059,155.513 25,156.5C 26.6684,154.238 28.5018,152.905 30.5,152.5C 32.0016,153.083 33.3349,153.916 34.5,155C 33.2396,156.113 32.073,156.28 31,155.5C 30.6667,156.5 30.3333,157.5 30,158.5C 28.1316,157.328 26.2983,157.495 24.5,159C 26.5,159.167 28.5,159.333 30.5,159.5C 32.9522,159.461 34.9522,158.794 36.5,157.5 Z"/></g>
<g><path style="opacity:1" fill="#626456" d="M 52.5,131.5 C 54.1357,135.21 54.8023,139.21 54.5,143.5C 54.2053,145.735 54.5386,147.735 55.5,149.5C 55.5,149.833 55.5,150.167 55.5,150.5C 54.596,151.209 54.2627,152.209 54.5,153.5C 53.1148,154.947 53.4482,155.947 55.5,156.5C 54.6303,158.599 53.297,158.932 51.5,157.5C 50.0656,158.588 49.0656,159.922 48.5,161.5C 47.1667,161.5 45.8333,161.5 44.5,161.5C 44.0825,160.778 43.4158,160.278 42.5,160C 44.1667,159.667 45.8333,159.333 47.5,159C 45.2033,155.649 43.2033,155.816 41.5,159.5C 39.5168,159.843 38.1834,159.176 37.5,157.5C 38.9245,159.031 39.5912,158.698 39.5,156.5C 42.4855,156.097 45.1522,155.097 47.5,153.5C 47.3433,152.127 47.51,150.793 48,149.5C 50.804,153.838 52.6373,153.504 53.5,148.5C 53.6625,143.453 53.3292,138.453 52.5,133.5C 52.5,132.833 52.5,132.167 52.5,131.5 Z"/></g>
<g><path style="opacity:1" fill="#828d84" d="M 41.5,159.5 C 43.2033,155.816 45.2033,155.649 47.5,159C 45.8333,159.333 44.1667,159.667 42.5,160C 43.4158,160.278 44.0825,160.778 44.5,161.5C 32.1622,161.667 19.8288,161.5 7.5,161C 6.20891,159.708 6.20891,158.542 7.5,157.5C 7.91753,158.222 8.5842,158.722 9.5,159C 9.16667,159.333 8.83333,159.667 8.5,160C 11.6965,160.805 14.6965,160.638 17.5,159.5C 18.3382,159.158 18.6716,158.492 18.5,157.5C 19.5832,157.461 20.5832,157.127 21.5,156.5C 22.5896,157.391 22.5896,158.391 21.5,159.5C 28.3222,160.818 34.9888,160.818 41.5,159.5 Z"/></g>
<g><path style="opacity:1" fill="#4e5d53" d="M 80.5,150.5 C 82.2303,151.026 83.5637,152.026 84.5,153.5C 85.1667,155.5 85.8333,157.5 86.5,159.5C 84.5168,159.157 83.1834,159.824 82.5,161.5C 82.1667,161.5 81.8333,161.5 81.5,161.5C 70.5,161.5 59.5,161.5 48.5,161.5C 49.0656,159.922 50.0656,158.588 51.5,157.5C 53.297,158.932 54.6303,158.599 55.5,156.5C 61.0088,158.123 66.6755,158.79 72.5,158.5C 74.9479,159.473 77.6146,159.806 80.5,159.5C 82.3494,156.146 81.6827,153.312 78.5,151C 79.0944,150.536 79.7611,150.369 80.5,150.5 Z"/></g>
</svg>
