<?xml version="1.0" encoding="UTF-8"?>
<!DOCTYPE svg PUBLIC "-//W3C//DTD SVG 1.1//EN" "http://www.w3.org/Graphics/SVG/1.1/DTD/svg11.dtd">
<svg xmlns="http://www.w3.org/2000/svg" version="1.1" width="100px" height="165px" style="shape-rendering:geometricPrecision; text-rendering:geometricPrecision; image-rendering:optimizeQuality; fill-rule:evenodd; clip-rule:evenodd" xmlns:xlink="http://www.w3.org/1999/xlink">
<g><path style="opacity:1" fill="#fafbfa" d="M 34.5,-0.5 C 56.1667,-0.5 77.8333,-0.5 99.5,-0.5C 99.5,54.5 99.5,109.5 99.5,164.5C 95.1667,164.5 90.8333,164.5 86.5,164.5C 88.8448,162.434 89.0115,160.1 87,157.5C 86.6667,158.833 86.3333,160.167 86,161.5C 85.79,159.942 85.29,158.609 84.5,157.5C 83.3647,150.885 82.698,144.218 82.5,137.5C 84.0296,128.094 83.6963,118.761 81.5,109.5C 82.8865,102.583 83.5531,95.5828 83.5,88.5C 83.5,87.1667 83.5,85.8333 83.5,84.5C 85.0334,82.3655 85.7001,79.8655 85.5,77C 85.4944,74.9674 85.1611,73.134 84.5,71.5C 84.8858,65.8318 82.8858,61.3318 78.5,58C 79.056,57.6174 79.3893,57.1174 79.5,56.5C 80.3382,56.1583 80.6716,55.4916 80.5,54.5C 82.2504,50.294 81.4171,46.6273 78,43.5C 77.5065,41.8659 77.3398,40.1992 77.5,38.5C 77.3379,36.4727 77.5045,34.4727 78,32.5C 79.3561,31.6198 80.8561,31.2865 82.5,31.5C 82.5,30.5 82.5,29.5 82.5,28.5C 81.1667,28.5 79.8333,28.5 78.5,28.5C 78.8266,23.7863 78.4933,19.1196 77.5,14.5C 76.2949,15.5769 75.6282,16.9102 75.5,18.5C 75.0826,21.1589 74.0826,23.4922 72.5,25.5C 72.1667,24.8333 71.8333,24.1667 71.5,23.5C 71.762,22.0222 71.4287,20.6888 70.5,19.5C 69.5745,18.3595 68.7412,18.3595 68,19.5C 66.8403,17.203 65.8403,17.5363 65,20.5C 63.5993,18.8078 61.7659,18.1412 59.5,18.5C 59.5,17.1667 59.5,15.8333 59.5,14.5C 61.4832,14.8432 62.8166,14.1765 63.5,12.5C 64.404,11.791 64.7373,10.791 64.5,9.5C 61.3775,9.68183 58.7109,8.68183 56.5,6.5C 55.4777,6.85549 54.811,7.52216 54.5,8.5C 54.1667,8.5 53.8333,8.5 53.5,8.5C 53.5,8.16667 53.5,7.83333 53.5,7.5C 52.2275,6.56567 50.7275,5.89901 49,5.5C 43.8252,5.82561 38.9918,7.15894 34.5,9.5C 36.1206,10.695 37.7872,11.695 39.5,12.5C 39.8333,12.5 40.1667,12.5 40.5,12.5C 40.5,14.8333 40.5,17.1667 40.5,19.5C 39.0015,22.6382 38.0015,25.9715 37.5,29.5C 37.7867,31.4433 38.7867,32.7767 40.5,33.5C 39.8333,34.1667 39.1667,34.8333 38.5,35.5C 35.4318,35.5467 32.4318,36.0467 29.5,37C 28.6195,37.7083 27.9528,38.5416 27.5,39.5C 26.1667,40.8333 24.8333,42.1667 23.5,43.5C 22.8803,39.6983 23.7137,36.365 26,33.5C 27.4659,35.3249 29.2992,35.8249 31.5,35C 29.0087,34.3741 29.0087,33.5407 31.5,32.5C 31.1924,31.6919 30.6924,31.0253 30,30.5C 28.4288,30.2505 26.9288,30.9171 25.5,32.5C 24.062,32.2811 22.7287,31.7811 21.5,31C 25.0836,29.9266 28.7502,29.2599 32.5,29C 31.9747,28.3076 31.3081,27.8076 30.5,27.5C 27.8126,28.802 24.8126,28.802 21.5,27.5C 25.135,25.8651 27.8017,23.1984 29.5,19.5C 31.7786,15.7787 32.1119,11.7787 30.5,7.5C 29.8333,6.16667 29.1667,4.83333 28.5,3.5C 30.1992,3.66018 31.8659,3.49351 33.5,3C 33.6191,1.85516 33.9524,0.688495 34.5,-0.5 Z"/></g>
<g><path style="opacity:1" fill="#dcc8a0" d="M 53.5,7.5 C 52.2502,7.57735 51.4169,8.24402 51,9.5C 50.4806,8.48444 49.6473,7.81777 48.5,7.5C 45.5252,8.1393 42.5252,8.6393 39.5,9C 38.3157,10.1455 38.3157,11.3121 39.5,12.5C 37.7872,11.695 36.1206,10.695 34.5,9.5C 38.9918,7.15894 43.8252,5.82561 49,5.5C 50.7275,5.89901 52.2275,6.56567 53.5,7.5 Z"/></g>
<g><path style="opacity:1" fill="#c1af90" d="M 63.5,12.5 C 63.5654,12.0618 63.3988,11.7284 63,11.5C 62.2904,12.9733 61.1238,13.6399 59.5,13.5C 59.5,12.5 59.5,11.5 59.5,10.5C 57.6776,10.1692 56.0109,9.50249 54.5,8.5C 54.811,7.52216 55.4777,6.85549 56.5,6.5C 58.7109,8.68183 61.3775,9.68183 64.5,9.5C 64.7373,10.791 64.404,11.791 63.5,12.5 Z"/></g>
<g><path style="opacity:1" fill="#b48b55" d="M 53.5,7.5 C 53.5,7.83333 53.5,8.16667 53.5,8.5C 52.548,9.45196 51.548,10.452 50.5,11.5C 51.0253,12.1924 51.6919,12.6924 52.5,13C 49.1832,13.4983 45.8499,13.665 42.5,13.5C 42.762,12.0222 42.4287,10.6888 41.5,9.5C 40.6143,10.325 40.281,11.325 40.5,12.5C 40.1667,12.5 39.8333,12.5 39.5,12.5C 38.3157,11.3121 38.3157,10.1455 39.5,9C 42.5252,8.6393 45.5252,8.1393 48.5,7.5C 49.6473,7.81777 50.4806,8.48444 51,9.5C 51.4169,8.24402 52.2502,7.57735 53.5,7.5 Z"/></g>
<g><path style="opacity:1" fill="#909191" d="M 30.5,7.5 C 32.1119,11.7787 31.7786,15.7787 29.5,19.5C 29.1832,15.2984 29.5166,11.2984 30.5,7.5 Z"/></g>
<g><path style="opacity:1" fill="#9b6f44" d="M 53.5,8.5 C 53.8333,8.5 54.1667,8.5 54.5,8.5C 56.0109,9.50249 57.6776,10.1692 59.5,10.5C 59.5,11.5 59.5,12.5 59.5,13.5C 59.1667,13.5 58.8333,13.5 58.5,13.5C 58.6309,12.6236 58.2975,11.9569 57.5,11.5C 56.7492,12.376 56.2492,13.376 56,14.5C 55.6667,14.1667 55.3333,13.8333 55,13.5C 54.5045,15.4727 54.3379,17.4727 54.5,19.5C 53.596,18.791 53.2627,17.791 53.5,16.5C 49.6707,15.931 46.3373,16.5977 43.5,18.5C 42.391,18.5569 41.391,18.8902 40.5,19.5C 40.5,17.1667 40.5,14.8333 40.5,12.5C 40.281,11.325 40.6143,10.325 41.5,9.5C 42.4287,10.6888 42.762,12.0222 42.5,13.5C 45.8499,13.665 49.1832,13.4983 52.5,13C 51.6919,12.6924 51.0253,12.1924 50.5,11.5C 51.548,10.452 52.548,9.45196 53.5,8.5 Z"/></g>
<g><path style="opacity:1" fill="#e7eae5" d="M 63.5,12.5 C 62.8166,14.1765 61.4832,14.8432 59.5,14.5C 59.5,15.8333 59.5,17.1667 59.5,18.5C 61.7659,18.1412 63.5993,18.8078 65,20.5C 65.8403,17.5363 66.8403,17.203 68,19.5C 68.7412,18.3595 69.5745,18.3595 70.5,19.5C 71.4287,20.6888 71.762,22.0222 71.5,23.5C 70.4051,20.1426 68.5718,20.1426 66,23.5C 64.2814,26.4543 64.1147,29.4543 65.5,32.5C 66.3981,34.9052 67.8981,36.9052 70,38.5C 70.4101,37.0993 70.9101,35.766 71.5,34.5C 72.1499,34.1961 72.8165,33.8627 73.5,33.5C 74.6517,36.1062 74.8184,38.7728 74,41.5C 73.6174,42.056 73.1174,42.3893 72.5,42.5C 70.8523,41.1902 69.1856,39.8569 67.5,38.5C 66.7025,38.9569 66.3691,39.6236 66.5,40.5C 66.7373,41.791 66.404,42.791 65.5,43.5C 65.6816,41.4086 65.3482,39.4086 64.5,37.5C 63.675,36.6143 62.675,36.281 61.5,36.5C 60.2921,35.7659 58.9587,35.4326 57.5,35.5C 57.5,34.8333 57.1667,34.5 56.5,34.5C 55.4265,33.7494 55.2599,32.7494 56,31.5C 58.1277,34.1739 59.961,34.0072 61.5,31C 61.0098,28.6539 60.3432,26.4872 59.5,24.5C 59.6716,23.5084 59.3382,22.8417 58.5,22.5C 57.5763,19.5533 57.5763,16.5533 58.5,13.5C 58.8333,13.5 59.1667,13.5 59.5,13.5C 61.1238,13.6399 62.2904,12.9733 63,11.5C 63.3988,11.7284 63.5654,12.0618 63.5,12.5 Z"/></g>
<g><path style="opacity:1" fill="#fbfcfc" d="M -0.5,-0.5 C 11.1667,-0.5 22.8333,-0.5 34.5,-0.5C 33.9524,0.688495 33.6191,1.85516 33.5,3C 31.8659,3.49351 30.1992,3.66018 28.5,3.5C 22.0882,0.675363 15.7549,0.842029 9.5,4C 3.66386,11.9692 4.33053,19.3025 11.5,26C 14.7256,27.1989 18.059,27.6989 21.5,27.5C 24.8126,28.802 27.8126,28.802 30.5,27.5C 31.3081,27.8076 31.9747,28.3076 32.5,29C 28.7502,29.2599 25.0836,29.9266 21.5,31C 22.7287,31.7811 24.062,32.2811 25.5,32.5C 26.9288,30.9171 28.4288,30.2505 30,30.5C 30.6924,31.0253 31.1924,31.6919 31.5,32.5C 29.0087,33.5407 29.0087,34.3741 31.5,35C 29.2992,35.8249 27.4659,35.3249 26,33.5C 23.7137,36.365 22.8803,39.6983 23.5,43.5C 21.983,46.5873 21.3163,49.9206 21.5,53.5C 17.2274,59.8728 15.2274,67.0395 15.5,75C 15.5039,77.3608 15.8373,79.5274 16.5,81.5C 16.2114,87.5907 16.5447,93.5907 17.5,99.5C 17.5,107.167 17.5,114.833 17.5,122.5C 15.9704,125.695 15.3037,129.195 15.5,133C 15.5029,135.69 15.8362,138.19 16.5,140.5C 16.7059,144.898 16.3726,149.232 15.5,153.5C 15.5,153.833 15.5,154.167 15.5,154.5C 10.6276,156.342 9.29426,159.676 11.5,164.5C 7.5,164.5 3.5,164.5 -0.5,164.5C -0.5,109.5 -0.5,54.5 -0.5,-0.5 Z"/></g>
<g><path style="opacity:1" fill="#d1ccc0" d="M 28.5,3.5 C 29.1667,4.83333 29.8333,6.16667 30.5,7.5C 29.5166,11.2984 29.1832,15.2984 29.5,19.5C 27.8017,23.1984 25.135,25.8651 21.5,27.5C 18.059,27.6989 14.7256,27.1989 11.5,26C 4.33053,19.3025 3.66386,11.9692 9.5,4C 15.7549,0.842029 22.0882,0.675363 28.5,3.5 Z"/></g>
<g><path style="opacity:1" fill="#ae956a" d="M 19.5,4.5 C 28.3559,6.24551 30.8559,11.2455 27,19.5C 25.0407,21.788 22.5407,23.1213 19.5,23.5C 17.2966,23.4134 15.1299,23.4134 13,23.5C 7.22543,17.8116 7.05877,11.9782 12.5,6C 13.448,5.51722 14.448,5.35055 15.5,5.5C 13.0895,9.14287 11.9228,13.1429 12,17.5C 14.1432,19.4705 16.6432,20.8038 19.5,21.5C 20.8549,20.8118 21.8549,19.8118 22.5,18.5C 23.4511,17.0813 23.7845,15.4147 23.5,13.5C 24.6129,12.0536 24.7796,10.3869 24,8.5C 22.1413,7.42093 20.6413,6.0876 19.5,4.5 Z"/></g>
<g><path style="opacity:1" fill="#b16b3c" d="M 20.5,10.5 C 22.5,10.5 23.5,11.5 23.5,13.5C 23.7845,15.4147 23.4511,17.0813 22.5,18.5C 21.1825,18.821 19.8492,19.1543 18.5,19.5C 16.9623,19.5466 15.9623,18.8799 15.5,17.5C 21.2473,18.1285 22.914,15.7952 20.5,10.5 Z"/></g>
<g><path style="opacity:1" fill="#bc4a42" d="M 20.5,10.5 C 22.914,15.7952 21.2473,18.1285 15.5,17.5C 15.3379,15.4727 15.5045,13.4727 16,11.5C 17.3561,10.6198 18.8561,10.2865 20.5,10.5 Z"/></g>
<g><path style="opacity:1" fill="#c89152" d="M 19.5,4.5 C 20.6413,6.0876 22.1413,7.42093 24,8.5C 24.7796,10.3869 24.6129,12.0536 23.5,13.5C 23.5,11.5 22.5,10.5 20.5,10.5C 18.8561,10.2865 17.3561,10.6198 16,11.5C 15.5045,13.4727 15.3379,15.4727 15.5,17.5C 15.9623,18.8799 16.9623,19.5466 18.5,19.5C 19.8492,19.1543 21.1825,18.821 22.5,18.5C 21.8549,19.8118 20.8549,20.8118 19.5,21.5C 16.6432,20.8038 14.1432,19.4705 12,17.5C 11.9228,13.1429 13.0895,9.14287 15.5,5.5C 16.5676,4.56552 17.901,4.23219 19.5,4.5 Z"/></g>
<g><path style="opacity:1" fill="#dfc2a5" d="M 54.5,19.5 C 54.634,21.2915 54.3007,22.9582 53.5,24.5C 52.8423,25.3984 52.1757,26.3984 51.5,27.5C 49.0514,27.02 46.8847,26.02 45,24.5C 44.5172,25.448 44.3505,26.448 44.5,27.5C 43.5,27.5 42.5,27.5 41.5,27.5C 40.8333,23.5 42.5,21.8333 46.5,22.5C 46.5,21.1667 46.5,19.8333 46.5,18.5C 45.5,18.5 44.5,18.5 43.5,18.5C 46.3373,16.5977 49.6707,15.931 53.5,16.5C 53.2627,17.791 53.596,18.791 54.5,19.5 Z"/></g>
<g><path style="opacity:1" fill="#7d5942" d="M 48.5,18.5 C 49.5,18.5 50.5,18.5 51.5,18.5C 51.5,19.5 51.5,20.5 51.5,21.5C 50.5,21.5 49.5,21.5 48.5,21.5C 48.5,20.5 48.5,19.5 48.5,18.5 Z"/></g>
<g><path style="opacity:1" fill="#3e3025" d="M 58.5,13.5 C 57.5763,16.5533 57.5763,19.5533 58.5,22.5C 56.5,22.5 55.5,23.5 55.5,25.5C 54.0755,27.0311 53.4088,26.6977 53.5,24.5C 54.3007,22.9582 54.634,21.2915 54.5,19.5C 54.3379,17.4727 54.5045,15.4727 55,13.5C 55.3333,13.8333 55.6667,14.1667 56,14.5C 56.2492,13.376 56.7492,12.376 57.5,11.5C 58.2975,11.9569 58.6309,12.6236 58.5,13.5 Z"/></g>
<g><path style="opacity:1" fill="#99948f" d="M 58.5,22.5 C 59.3382,22.8417 59.6716,23.5084 59.5,24.5C 59.6495,25.552 59.4828,26.552 59,27.5C 58.5814,26.3279 57.9147,25.3279 57,24.5C 56.6213,26.5705 57.4547,28.0705 59.5,29C 56.8617,29.5088 55.5283,28.3422 55.5,25.5C 55.5,23.5 56.5,22.5 58.5,22.5 Z"/></g>
<g><path style="opacity:1" fill="#64564a" d="M 43.5,18.5 C 44.5,18.5 45.5,18.5 46.5,18.5C 46.5,19.8333 46.5,21.1667 46.5,22.5C 42.5,21.8333 40.8333,23.5 41.5,27.5C 42.5,27.5 43.5,27.5 44.5,27.5C 44.3505,26.448 44.5172,25.448 45,24.5C 46.8847,26.02 49.0514,27.02 51.5,27.5C 52.1757,26.3984 52.8423,25.3984 53.5,24.5C 53.4088,26.6977 54.0755,27.0311 55.5,25.5C 55.5283,28.3422 56.8617,29.5088 59.5,29C 57.4547,28.0705 56.6213,26.5705 57,24.5C 57.9147,25.3279 58.5814,26.3279 59,27.5C 59.4828,26.552 59.6495,25.552 59.5,24.5C 60.3432,26.4872 61.0098,28.6539 61.5,31C 59.961,34.0072 58.1277,34.1739 56,31.5C 55.2599,32.7494 55.4265,33.7494 56.5,34.5C 56.5912,36.6977 55.9245,37.0311 54.5,35.5C 52.3021,34.8347 49.9688,34.1681 47.5,33.5C 48.1667,32.5 48.8333,31.5 49.5,30.5C 47.604,29.5344 45.604,29.2011 43.5,29.5C 43.5,30.8333 43.5,32.1667 43.5,33.5C 42.5,33.5 41.5,33.5 40.5,33.5C 38.7867,32.7767 37.7867,31.4433 37.5,29.5C 38.0015,25.9715 39.0015,22.6382 40.5,19.5C 41.391,18.8902 42.391,18.5569 43.5,18.5 Z"/></g>
<g><path style="opacity:1" fill="#508ca4" d="M 71.5,23.5 C 71.8333,24.1667 72.1667,24.8333 72.5,25.5C 72.5,25.8333 72.5,26.1667 72.5,26.5C 70.4402,27.8112 68.2735,27.8112 66,26.5C 65.8333,26.8333 65.6667,27.1667 65.5,27.5C 66.8333,28.1667 68.1667,28.8333 69.5,29.5C 67.993,30.3886 66.6597,31.3886 65.5,32.5C 64.1147,29.4543 64.2814,26.4543 66,23.5C 68.5718,20.1426 70.4051,20.1426 71.5,23.5 Z"/></g>
<g><path style="opacity:1" fill="#355d72" d="M 72.5,26.5 C 73.5,26.5 74.5,26.5 75.5,26.5C 75.5,28.5 75.5,30.5 75.5,32.5C 73.5168,32.1568 72.1834,32.8235 71.5,34.5C 70.9101,35.766 70.4101,37.0993 70,38.5C 67.8981,36.9052 66.3981,34.9052 65.5,32.5C 66.6597,31.3886 67.993,30.3886 69.5,29.5C 68.1667,28.8333 66.8333,28.1667 65.5,27.5C 65.6667,27.1667 65.8333,26.8333 66,26.5C 68.2735,27.8112 70.4402,27.8112 72.5,26.5 Z"/></g>
<g><path style="opacity:1" fill="#78756c" d="M 77.5,38.5 C 76.5655,39.5676 76.2322,40.901 76.5,42.5C 76.521,34.6354 76.1877,26.6354 75.5,18.5C 75.6282,16.9102 76.2949,15.5769 77.5,14.5C 78.4933,19.1196 78.8266,23.7863 78.5,28.5C 79.8333,28.5 81.1667,28.5 82.5,28.5C 82.5,29.5 82.5,30.5 82.5,31.5C 80.8561,31.2865 79.3561,31.6198 78,32.5C 77.5045,34.4727 77.3379,36.4727 77.5,38.5 Z"/></g>
<g><path style="opacity:1" fill="#e2c2a7" d="M 54.5,35.5 C 54.8333,36.8333 55.1667,38.1667 55.5,39.5C 55.1667,39.5 54.8333,39.5 54.5,39.5C 49.7669,39.4567 46.9336,37.1234 46,32.5C 44.5347,34.915 42.368,35.915 39.5,35.5C 39.1667,35.5 38.8333,35.5 38.5,35.5C 39.1667,34.8333 39.8333,34.1667 40.5,33.5C 41.5,33.5 42.5,33.5 43.5,33.5C 43.5,32.1667 43.5,30.8333 43.5,29.5C 45.604,29.2011 47.604,29.5344 49.5,30.5C 48.8333,31.5 48.1667,32.5 47.5,33.5C 49.9688,34.1681 52.3021,34.8347 54.5,35.5 Z"/></g>
<g><path style="opacity:1" fill="#f6d3a2" d="M 54.5,39.5 C 48.0174,44.4497 43.0174,43.1164 39.5,35.5C 42.368,35.915 44.5347,34.915 46,32.5C 46.9336,37.1234 49.7669,39.4567 54.5,39.5 Z"/></g>
<g><path style="opacity:1" fill="#292e27" d="M 72.5,42.5 C 73.9538,44.2633 73.6204,45.5967 71.5,46.5C 70.205,45.5116 68.8717,44.5116 67.5,43.5C 67.7373,42.209 67.404,41.209 66.5,40.5C 66.3691,39.6236 66.7025,38.9569 67.5,38.5C 69.1856,39.8569 70.8523,41.1902 72.5,42.5 Z"/></g>
<g><path style="opacity:1" fill="#5f7b67" d="M 27.5,39.5 C 28.8333,39.5 29.5,40.1667 29.5,41.5C 26.6752,42.4779 25.3419,44.4779 25.5,47.5C 27.3797,47.2291 28.713,47.8958 29.5,49.5C 27.5168,49.1568 26.1834,49.8235 25.5,51.5C 24.3951,52.6005 23.0618,53.2671 21.5,53.5C 21.3163,49.9206 21.983,46.5873 23.5,43.5C 24.8333,42.1667 26.1667,40.8333 27.5,39.5 Z"/></g>
<g><path style="opacity:1" fill="#e0b77c" d="M 38.5,35.5 C 38.8333,35.5 39.1667,35.5 39.5,35.5C 43.0174,43.1164 48.0174,44.4497 54.5,39.5C 54.8333,39.5 55.1667,39.5 55.5,39.5C 55.5,40.5 55.5,41.5 55.5,42.5C 52.5274,43.0841 49.5274,43.7508 46.5,44.5C 51.8439,45.8693 51.6773,46.536 46,46.5C 43.6591,46.1705 41.4924,45.5038 39.5,44.5C 38.6992,42.0005 37.3658,40.0005 35.5,38.5C 35.7058,36.4508 36.5391,36.1175 38,37.5C 38.4643,36.9056 38.631,36.2389 38.5,35.5 Z"/></g>
<g><path style="opacity:1" fill="#a08060" d="M 56.5,34.5 C 57.1667,34.5 57.5,34.8333 57.5,35.5C 58.1603,37.3437 59.1603,39.0104 60.5,40.5C 60.1543,41.8492 59.821,43.1825 59.5,44.5C 59.5,45.5 59.5,46.5 59.5,47.5C 58.2223,47.2178 57.2223,46.5511 56.5,45.5C 55.448,45.6495 54.448,45.4828 53.5,45C 54.6721,44.5814 55.6721,43.9147 56.5,43C 56.2716,42.6012 55.9382,42.4346 55.5,42.5C 55.5,41.5 55.5,40.5 55.5,39.5C 55.1667,38.1667 54.8333,36.8333 54.5,35.5C 55.9245,37.0311 56.5912,36.6977 56.5,34.5 Z"/></g>
<g><path style="opacity:1" fill="#d7c6af" d="M 77.5,38.5 C 77.3398,40.1992 77.5065,41.8659 78,43.5C 81.4171,46.6273 82.2504,50.294 80.5,54.5C 80.6621,52.4727 80.4955,50.4727 80,48.5C 79.2489,54.7502 77.4156,55.0836 74.5,49.5C 75.3898,48.2888 75.3898,46.9555 74.5,45.5C 74.9424,44.2613 75.6091,43.2613 76.5,42.5C 76.2322,40.901 76.5655,39.5676 77.5,38.5 Z"/></g>
<g><path style="opacity:1" fill="#549971" d="M 29.5,41.5 C 30.1174,41.6107 30.6174,41.944 31,42.5C 31.8045,45.6965 31.6378,48.6965 30.5,51.5C 30.6716,50.5084 30.3382,49.8417 29.5,49.5C 28.713,47.8958 27.3797,47.2291 25.5,47.5C 25.3419,44.4779 26.6752,42.4779 29.5,41.5 Z"/></g>
<g><path style="opacity:1" fill="#b27d49" d="M 55.5,42.5 C 55.9382,42.4346 56.2716,42.6012 56.5,43C 55.6721,43.9147 54.6721,44.5814 53.5,45C 54.448,45.4828 55.448,45.6495 56.5,45.5C 51.4469,47.2604 46.1136,47.927 40.5,47.5C 40.4431,46.391 40.1098,45.391 39.5,44.5C 41.4924,45.5038 43.6591,46.1705 46,46.5C 51.6773,46.536 51.8439,45.8693 46.5,44.5C 49.5274,43.7508 52.5274,43.0841 55.5,42.5 Z"/></g>
<g><path style="opacity:1" fill="#9eaea6" d="M 66.5,40.5 C 67.404,41.209 67.7373,42.209 67.5,43.5C 67.5,48.5 67.5,53.5 67.5,58.5C 67.5,63.1667 67.5,67.8333 67.5,72.5C 67.5,73.1667 67.1667,73.5 66.5,73.5C 66.8128,69.9581 66.4794,66.6248 65.5,63.5C 65.9909,56.5557 65.9909,49.8891 65.5,43.5C 66.404,42.791 66.7373,41.791 66.5,40.5 Z"/></g>
<g><path style="opacity:1" fill="#5e9374" d="M 67.5,43.5 C 68.8717,44.5116 70.205,45.5116 71.5,46.5C 71.5,47.5 71.5,48.5 71.5,49.5C 71.282,52.3663 71.1154,55.3663 71,58.5C 70.6174,59.056 70.1174,59.3893 69.5,59.5C 69.1583,58.6618 68.4916,58.3284 67.5,58.5C 67.5,53.5 67.5,48.5 67.5,43.5 Z"/></g>
<g><path style="opacity:1" fill="#bd464a" d="M 46.5,67.5 C 48.4519,65.2576 50.7852,64.9243 53.5,66.5C 53.6615,64.1756 54.8282,62.5089 57,61.5C 57.3876,58.1508 57.2209,54.8175 56.5,51.5C 55.1667,51.5 53.8333,51.5 52.5,51.5C 51.0702,65.9237 49.4035,65.9237 47.5,51.5C 48.0358,50.6647 48.8691,50.6647 50,51.5C 52.1617,48.8755 54.995,47.8755 58.5,48.5C 58.8041,54.5771 58.3041,60.5771 57,66.5C 53.7002,68.7939 50.2002,69.1273 46.5,67.5 Z"/></g>
<g><path style="opacity:1" fill="#a7957d" d="M 75.5,18.5 C 76.1877,26.6354 76.521,34.6354 76.5,42.5C 75.6091,43.2613 74.9424,44.2613 74.5,45.5C 75.3898,46.9555 75.3898,48.2888 74.5,49.5C 77.4156,55.0836 79.2489,54.7502 80,48.5C 80.4955,50.4727 80.6621,52.4727 80.5,54.5C 80.6716,55.4916 80.3382,56.1583 79.5,56.5C 79.44,55.9569 79.1067,55.6236 78.5,55.5C 77.7379,56.6283 77.0712,57.7949 76.5,59C 78.3028,60.262 79.6361,61.9287 80.5,64C 80.2716,64.3988 79.9382,64.5654 79.5,64.5C 78.8333,64.5 78.1667,64.5 77.5,64.5C 76.8333,63.1667 76.1667,63.1667 75.5,64.5C 74.2502,64.4226 73.4169,63.756 73,62.5C 72.6174,63.056 72.1174,63.3893 71.5,63.5C 72.3676,60.1574 73.3676,56.824 74.5,53.5C 73.9649,51.739 72.9649,50.4057 71.5,49.5C 71.5,48.5 71.5,47.5 71.5,46.5C 73.6204,45.5967 73.9538,44.2633 72.5,42.5C 73.1174,42.3893 73.6174,42.056 74,41.5C 74.8184,38.7728 74.6517,36.1062 73.5,33.5C 72.8165,33.8627 72.1499,34.1961 71.5,34.5C 72.1834,32.8235 73.5168,32.1568 75.5,32.5C 75.5,30.5 75.5,28.5 75.5,26.5C 74.5,26.5 73.5,26.5 72.5,26.5C 72.5,26.1667 72.5,25.8333 72.5,25.5C 74.0826,23.4922 75.0826,21.1589 75.5,18.5 Z"/></g>
<g><path style="opacity:1" fill="#cd4957" d="M 25.5,51.5 C 26.5,51.5 27.5,51.5 28.5,51.5C 26.8406,55.237 27.174,58.737 29.5,62C 27.4235,62.8892 25.4235,64.5559 23.5,67C 24.4162,67.3742 25.2496,67.8742 26,68.5C 24.8017,74.0976 25.635,79.4309 28.5,84.5C 28.1667,85.1667 27.8333,85.8333 27.5,86.5C 26.2638,85.7542 24.9305,85.4208 23.5,85.5C 22.5,85.1667 21.8333,84.5 21.5,83.5C 19.6448,77.7482 18.9781,71.7482 19.5,65.5C 21.4906,60.9342 23.4906,56.2675 25.5,51.5 Z"/></g>
<g><path style="opacity:1" fill="#5e7050" d="M 71.5,49.5 C 72.9649,50.4057 73.9649,51.739 74.5,53.5C 73.3676,56.824 72.3676,60.1574 71.5,63.5C 71.1667,63.5 70.8333,63.5 70.5,63.5C 69.7659,62.2921 69.4326,60.9587 69.5,59.5C 70.1174,59.3893 70.6174,59.056 71,58.5C 71.1154,55.3663 71.282,52.3663 71.5,49.5 Z"/></g>
<g><path style="opacity:1" fill="#261a1a" d="M 29.5,49.5 C 30.3382,49.8417 30.6716,50.5084 30.5,51.5C 32.1101,54.1888 32.9434,57.1888 33,60.5C 33.6667,68.8333 33.6667,77.1667 33,85.5C 32.79,83.9419 32.29,82.6085 31.5,81.5C 30.7659,80.2921 30.4326,78.9587 30.5,77.5C 29.5,77.5 28.5,77.5 27.5,77.5C 27.3347,73.8183 27.5014,70.1516 28,66.5C 30.0184,64.4779 30.8517,61.9779 30.5,59C 30.2559,55.8136 29.9226,52.647 29.5,49.5 Z"/></g>
<g><path style="opacity:1" fill="#d2404e" d="M 47.5,51.5 C 49.4035,65.9237 51.0702,65.9237 52.5,51.5C 53.8333,51.5 55.1667,51.5 56.5,51.5C 57.2209,54.8175 57.3876,58.1508 57,61.5C 54.8282,62.5089 53.6615,64.1756 53.5,66.5C 50.7852,64.9243 48.4519,65.2576 46.5,67.5C 45.0413,67.4326 43.7079,67.7659 42.5,68.5C 41.596,67.791 41.2627,66.791 41.5,65.5C 41.5,60.5 41.5,55.5 41.5,50.5C 43.5,50.8333 45.5,51.1667 47.5,51.5 Z"/></g>
<g><path style="opacity:1" fill="#9f514d" d="M 56.5,45.5 C 57.2223,46.5511 58.2223,47.2178 59.5,47.5C 59.8273,55.603 59.1606,63.603 57.5,71.5C 52.7851,69.0253 48.1184,69.0253 43.5,71.5C 43.4431,70.391 43.1098,69.391 42.5,68.5C 43.7079,67.7659 45.0413,67.4326 46.5,67.5C 50.2002,69.1273 53.7002,68.7939 57,66.5C 58.3041,60.5771 58.8041,54.5771 58.5,48.5C 54.995,47.8755 52.1617,48.8755 50,51.5C 48.8691,50.6647 48.0358,50.6647 47.5,51.5C 45.5,51.1667 43.5,50.8333 41.5,50.5C 41.5,55.5 41.5,60.5 41.5,65.5C 41.1667,65.5 40.8333,65.5 40.5,65.5C 40.162,59.9577 39.4953,54.4577 38.5,49C 38.8361,47.9701 39.5028,47.4701 40.5,47.5C 46.1136,47.927 51.4469,47.2604 56.5,45.5 Z"/></g>
<g><path style="opacity:1" fill="#262f23" d="M 67.5,58.5 C 68.4916,58.3284 69.1583,58.6618 69.5,59.5C 69.4326,60.9587 69.7659,62.2921 70.5,63.5C 70.5,63.8333 70.5,64.1667 70.5,64.5C 69.5028,64.4701 68.8361,64.9701 68.5,66C 69.2865,68.0989 69.6199,70.2655 69.5,72.5C 68.8333,72.5 68.1667,72.5 67.5,72.5C 67.5,67.8333 67.5,63.1667 67.5,58.5 Z"/></g>
<g><path style="opacity:1" fill="#7d2f35" d="M 29.5,49.5 C 29.9226,52.647 30.2559,55.8136 30.5,59C 30.8517,61.9779 30.0184,64.4779 28,66.5C 27.5014,70.1516 27.3347,73.8183 27.5,77.5C 28.5,77.5 29.5,77.5 30.5,77.5C 30.4326,78.9587 30.7659,80.2921 31.5,81.5C 31.634,83.2915 31.3007,84.9582 30.5,86.5C 29.8333,86.8333 29.1667,87.1667 28.5,87.5C 26.4471,87.5979 24.7804,86.9313 23.5,85.5C 24.9305,85.4208 26.2638,85.7542 27.5,86.5C 27.8333,85.8333 28.1667,85.1667 28.5,84.5C 25.635,79.4309 24.8017,74.0976 26,68.5C 25.2496,67.8742 24.4162,67.3742 23.5,67C 25.4235,64.5559 27.4235,62.8892 29.5,62C 27.174,58.737 26.8406,55.237 28.5,51.5C 27.5,51.5 26.5,51.5 25.5,51.5C 26.1834,49.8235 27.5168,49.1568 29.5,49.5 Z"/></g>
<g><path style="opacity:1" fill="#3e2925" d="M 79.5,56.5 C 79.3893,57.1174 79.056,57.6174 78.5,58C 82.8858,61.3318 84.8858,65.8318 84.5,71.5C 82.89,74.2033 81.89,77.2033 81.5,80.5C 79.0479,79.9346 76.7146,79.2679 74.5,78.5C 74.8333,78.5 75.1667,78.5 75.5,78.5C 78.3455,78.1913 79.8455,76.5246 80,73.5C 80.7358,70.408 80.5691,67.408 79.5,64.5C 79.9382,64.5654 80.2716,64.3988 80.5,64C 79.6361,61.9287 78.3028,60.262 76.5,59C 77.0712,57.7949 77.7379,56.6283 78.5,55.5C 79.1067,55.6236 79.44,55.9569 79.5,56.5 Z"/></g>
<g><path style="opacity:1" fill="#c6c0c2" d="M 57.5,35.5 C 58.9587,35.4326 60.2921,35.7659 61.5,36.5C 61.8195,52.6736 61.8195,68.6736 61.5,84.5C 61.1667,84.5 60.8333,84.5 60.5,84.5C 60.5,83.8333 60.5,83.1667 60.5,82.5C 60.8287,69.6557 60.4954,56.989 59.5,44.5C 59.821,43.1825 60.1543,41.8492 60.5,40.5C 59.1603,39.0104 58.1603,37.3437 57.5,35.5 Z"/></g>
<g><path style="opacity:1" fill="#8d6350" d="M 70.5,64.5 C 70.4125,67.5983 70.9125,67.9316 72,65.5C 72.4974,68.146 72.6641,70.8127 72.5,73.5C 70.744,74.5521 70.0773,76.2188 70.5,78.5C 69.5386,76.7354 69.2053,74.7354 69.5,72.5C 69.6199,70.2655 69.2865,68.0989 68.5,66C 68.8361,64.9701 69.5028,64.4701 70.5,64.5 Z"/></g>
<g><path style="opacity:1" fill="#ae5750" d="M 77.5,64.5 C 76.9569,64.56 76.6236,64.8933 76.5,65.5C 78.1036,66.6026 79.1036,68.1026 79.5,70C 78.2754,72.9463 76.9421,75.7796 75.5,78.5C 75.1667,78.5 74.8333,78.5 74.5,78.5C 74.2834,73.7697 74.6167,69.1031 75.5,64.5C 76.1667,63.1667 76.8333,63.1667 77.5,64.5 Z"/></g>
<g><path style="opacity:1" fill="#572024" d="M 77.5,64.5 C 78.1667,64.5 78.8333,64.5 79.5,64.5C 80.5691,67.408 80.7358,70.408 80,73.5C 79.8455,76.5246 78.3455,78.1913 75.5,78.5C 76.9421,75.7796 78.2754,72.9463 79.5,70C 79.1036,68.1026 78.1036,66.6026 76.5,65.5C 76.6236,64.8933 76.9569,64.56 77.5,64.5 Z"/></g>
<g><path style="opacity:1" fill="#b98b71" d="M 75.5,64.5 C 74.6167,69.1031 74.2834,73.7697 74.5,78.5C 72.744,77.4479 72.0773,75.7812 72.5,73.5C 72.6641,70.8127 72.4974,68.146 72,65.5C 70.9125,67.9316 70.4125,67.5983 70.5,64.5C 70.5,64.1667 70.5,63.8333 70.5,63.5C 70.8333,63.5 71.1667,63.5 71.5,63.5C 72.1174,63.3893 72.6174,63.056 73,62.5C 73.4169,63.756 74.2502,64.4226 75.5,64.5 Z"/></g>
<g><path style="opacity:1" fill="#422b25" d="M 59.5,44.5 C 60.4954,56.989 60.8287,69.6557 60.5,82.5C 58.9328,81.3192 58.0995,79.6526 58,77.5C 57.3292,78.2524 56.4959,78.5858 55.5,78.5C 55.5,78.1667 55.5,77.8333 55.5,77.5C 58.3392,76.1263 59.0059,74.1263 57.5,71.5C 59.1606,63.603 59.8273,55.603 59.5,47.5C 59.5,46.5 59.5,45.5 59.5,44.5 Z"/></g>
<g><path style="opacity:1" fill="#7c6360" d="M 25.5,51.5 C 23.4906,56.2675 21.4906,60.9342 19.5,65.5C 17.4362,70.6139 17.1029,75.9473 18.5,81.5C 17.7784,81.0825 17.2784,80.4158 17,79.5C 16.5357,80.0944 16.369,80.7611 16.5,81.5C 15.8373,79.5274 15.5039,77.3608 15.5,75C 15.2274,67.0395 17.2274,59.8728 21.5,53.5C 23.0618,53.2671 24.3951,52.6005 25.5,51.5 Z"/></g>
<g><path style="opacity:1" fill="#9d7e3e" d="M 53.5,77.5 C 54.2104,83.5712 55.2104,89.5712 56.5,95.5C 55.8333,95.5 55.1667,95.5 54.5,95.5C 53.5075,89.632 52.5075,83.632 51.5,77.5C 49.5,77.5 47.5,77.5 45.5,77.5C 45.3505,76.448 45.5172,75.448 46,74.5C 46.3333,74.8333 46.6667,75.1667 47,75.5C 48.4926,73.4402 50.3259,73.1068 52.5,74.5C 53.1272,75.4168 53.4606,76.4168 53.5,77.5 Z"/></g>
<g><path style="opacity:1" fill="#9a4f50" d="M 19.5,65.5 C 18.9781,71.7482 19.6448,77.7482 21.5,83.5C 20.5,82.8333 19.5,82.1667 18.5,81.5C 17.1029,75.9473 17.4362,70.6139 19.5,65.5 Z"/></g>
<g><path style="opacity:1" fill="#a7a6a2" d="M 38.5,35.5 C 38.631,36.2389 38.4643,36.9056 38,37.5C 36.5391,36.1175 35.7058,36.4508 35.5,38.5C 37.3658,40.0005 38.6992,42.0005 39.5,44.5C 40.1098,45.391 40.4431,46.391 40.5,47.5C 39.5028,47.4701 38.8361,47.9701 38.5,49C 39.4953,54.4577 40.162,59.9577 40.5,65.5C 40.7851,76.5398 40.2851,87.5398 39,98.5C 38.5762,95.9746 37.4095,93.9746 35.5,92.5C 35.6322,88.9678 33.9656,86.9678 30.5,86.5C 31.3007,84.9582 31.634,83.2915 31.5,81.5C 32.29,82.6085 32.79,83.9419 33,85.5C 33.6667,77.1667 33.6667,68.8333 33,60.5C 32.9434,57.1888 32.1101,54.1888 30.5,51.5C 31.6378,48.6965 31.8045,45.6965 31,42.5C 30.6174,41.944 30.1174,41.6107 29.5,41.5C 29.5,40.1667 28.8333,39.5 27.5,39.5C 27.9528,38.5416 28.6195,37.7083 29.5,37C 32.4318,36.0467 35.4318,35.5467 38.5,35.5 Z"/></g>
<g><path style="opacity:1" fill="#e8be66" d="M 45.5,77.5 C 47.5,77.5 49.5,77.5 51.5,77.5C 52.5075,83.632 53.5075,89.632 54.5,95.5C 54.8151,98.2108 54.1484,100.544 52.5,102.5C 49.5,102.5 46.5,102.5 43.5,102.5C 43.4639,93.9632 44.1305,85.6299 45.5,77.5 Z"/></g>
<g><path style="opacity:1" fill="#2d3032" d="M 61.5,36.5 C 62.675,36.281 63.675,36.6143 64.5,37.5C 65.3482,39.4086 65.6816,41.4086 65.5,43.5C 65.9909,49.8891 65.9909,56.5557 65.5,63.5C 65.1948,70.0955 64.8615,76.4289 64.5,82.5C 64.631,81.7611 64.4643,81.0944 64,80.5C 63.7266,82.1012 63.2266,83.6012 62.5,85C 62.6573,89.7314 62.8239,94.5647 63,99.5C 63.3826,100.056 63.8826,100.389 64.5,100.5C 64.8333,100.5 65.1667,100.5 65.5,100.5C 65.8333,107.167 66.1667,113.833 66.5,120.5C 68.4749,127.735 70.1415,135.069 71.5,142.5C 69.6253,144.078 68.2919,143.745 67.5,141.5C 68.1239,141.083 68.4573,140.416 68.5,139.5C 64.6405,127.381 62.3071,115.047 61.5,102.5C 61.5,99.1667 61.5,95.8333 61.5,92.5C 61.5,89.8333 61.5,87.1667 61.5,84.5C 61.8195,68.6736 61.8195,52.6736 61.5,36.5 Z"/></g>
<g><path style="opacity:1" fill="#626161" d="M 84.5,71.5 C 85.1611,73.134 85.4944,74.9674 85.5,77C 85.7001,79.8655 85.0334,82.3655 83.5,84.5C 82.6715,83.6676 81.8382,84.001 81,85.5C 80.3603,83.735 80.5269,82.0683 81.5,80.5C 81.89,77.2033 82.89,74.2033 84.5,71.5 Z"/></g>
<g><path style="opacity:1" fill="#4a3f30" d="M 60.5,82.5 C 60.5,83.1667 60.5,83.8333 60.5,84.5C 59.9518,86.6264 59.2852,88.6264 58.5,90.5C 58.0855,86.3427 57.0855,82.3427 55.5,78.5C 56.4959,78.5858 57.3292,78.2524 58,77.5C 58.0995,79.6526 58.9328,81.3192 60.5,82.5 Z"/></g>
<g><path style="opacity:1" fill="#202627" d="M 35.5,38.5 C 37.3133,49.4222 38.3133,60.4222 38.5,71.5C 38.5988,77.5786 38.0988,83.5786 37,89.5C 36.1301,88.8921 35.6301,88.0588 35.5,87C 36.54,71.4863 35.2067,55.9863 31.5,40.5C 32.1019,37.841 33.4352,37.1744 35.5,38.5 Z"/></g>
<g><path style="opacity:1" fill="#dac893" d="M 53.5,77.5 C 54.1667,77.5 54.8333,77.5 55.5,77.5C 55.5,77.8333 55.5,78.1667 55.5,78.5C 57.0855,82.3427 58.0855,86.3427 58.5,90.5C 58.4207,93.2706 58.9207,95.9373 60,98.5C 60.1909,96.2922 60.6909,94.2922 61.5,92.5C 61.5,95.8333 61.5,99.1667 61.5,102.5C 61.5,103.5 61.5,104.5 61.5,105.5C 60.5489,104.081 60.2155,102.415 60.5,100.5C 59.1667,100.5 57.8333,100.5 56.5,100.5C 56.5,98.8333 56.5,97.1667 56.5,95.5C 55.2104,89.5712 54.2104,83.5712 53.5,77.5 Z"/></g>
<g><path style="opacity:1" fill="#284b36" d="M 66.5,80.5 C 67.7479,81.3339 68.4146,82.6672 68.5,84.5C 68.4892,86.0451 68.1558,87.3784 67.5,88.5C 67.1667,88.5 66.8333,88.5 66.5,88.5C 66.5,85.8333 66.5,83.1667 66.5,80.5 Z"/></g>
<g><path style="opacity:1" fill="#131319" d="M 64.5,82.5 C 65.3715,85.0618 65.3715,87.7284 64.5,90.5C 65.2466,93.9141 65.2466,97.2475 64.5,100.5C 63.8826,100.389 63.3826,100.056 63,99.5C 62.8239,94.5647 62.6573,89.7314 62.5,85C 63.2266,83.6012 63.7266,82.1012 64,80.5C 64.4643,81.0944 64.631,81.7611 64.5,82.5 Z"/></g>
<g><path style="opacity:1" fill="#cfdcd6" d="M 65.5,63.5 C 66.4794,66.6248 66.8128,69.9581 66.5,73.5C 66.5,75.8333 66.5,78.1667 66.5,80.5C 66.5,83.1667 66.5,85.8333 66.5,88.5C 66.6621,90.5273 66.4955,92.5273 66,94.5C 65.79,92.9419 65.29,91.6085 64.5,90.5C 65.3715,87.7284 65.3715,85.0618 64.5,82.5C 64.8615,76.4289 65.1948,70.0955 65.5,63.5 Z"/></g>
<g><path style="opacity:1" fill="#202924" d="M 72.5,73.5 C 72.0773,75.7812 72.744,77.4479 74.5,78.5C 76.7146,79.2679 79.0479,79.9346 81.5,80.5C 80.5269,82.0683 80.3603,83.735 81,85.5C 81.8382,84.001 82.6715,83.6676 83.5,84.5C 83.5,85.8333 83.5,87.1667 83.5,88.5C 82.6999,94.069 81.6999,99.7357 80.5,105.5C 80.5108,107.045 80.8442,108.378 81.5,109.5C 83.6963,118.761 84.0296,128.094 82.5,137.5C 81.8333,134.167 81.1667,130.833 80.5,127.5C 80.5,127.167 80.5,126.833 80.5,126.5C 80.7136,122.743 79.7136,122.076 77.5,124.5C 76.3351,116.521 76.1684,108.521 77,100.5C 80.0167,98.8798 80.85,96.5465 79.5,93.5C 78.4822,94.1925 77.4822,94.8592 76.5,95.5C 76.0618,95.5654 75.7284,95.3988 75.5,95C 77.2189,93.1295 78.2189,90.9628 78.5,88.5C 77.5,88.5 76.5,88.5 75.5,88.5C 74.3622,84.8911 72.6956,81.5578 70.5,78.5C 70.0773,76.2188 70.744,74.5521 72.5,73.5 Z"/></g>
<g><path style="opacity:1" fill="#554433" d="M 40.5,65.5 C 40.8333,65.5 41.1667,65.5 41.5,65.5C 41.2627,66.791 41.596,67.791 42.5,68.5C 43.1098,69.391 43.4431,70.391 43.5,71.5C 42.0291,79.7578 41.3624,88.0911 41.5,96.5C 40.8333,97.5 40.1667,98.5 39.5,99.5C 38.5041,99.5858 37.6708,99.2524 37,98.5C 36.79,96.9419 36.29,95.6085 35.5,94.5C 35.5,93.8333 35.5,93.1667 35.5,92.5C 37.4095,93.9746 38.5762,95.9746 39,98.5C 40.2851,87.5398 40.7851,76.5398 40.5,65.5 Z"/></g>
<g><path style="opacity:1" fill="#59967a" d="M 26.5,89.5 C 27.7736,91.9925 28.4403,94.6592 28.5,97.5C 27.8826,97.3893 27.3826,97.056 27,96.5C 26.1482,97.5707 25.3149,98.5707 24.5,99.5C 24.2457,95.6688 22.9124,92.3354 20.5,89.5C 20.3158,93.1439 20.9824,96.8106 22.5,100.5C 22.5,102.833 22.5,105.167 22.5,107.5C 22.7845,109.415 22.4511,111.081 21.5,112.5C 20.2266,103.638 18.8933,94.8046 17.5,86C 18.1258,85.2496 18.6258,84.4162 19,83.5C 21.1141,86.1208 23.6141,88.1208 26.5,89.5 Z"/></g>
<g><path style="opacity:1" fill="#e3d5b2" d="M 30.5,86.5 C 33.9656,86.9678 35.6322,88.9678 35.5,92.5C 35.5,93.1667 35.5,93.8333 35.5,94.5C 35.631,95.2389 35.4643,95.9056 35,96.5C 33.5861,95.5868 32.0861,95.5868 30.5,96.5C 29.3882,94.4006 28.7215,92.0673 28.5,89.5C 28.5,88.8333 28.5,88.1667 28.5,87.5C 29.1667,87.1667 29.8333,86.8333 30.5,86.5 Z"/></g>
<g><path style="opacity:1" fill="#a9a075" d="M 60.5,84.5 C 60.8333,84.5 61.1667,84.5 61.5,84.5C 61.5,87.1667 61.5,89.8333 61.5,92.5C 60.6909,94.2922 60.1909,96.2922 60,98.5C 58.9207,95.9373 58.4207,93.2706 58.5,90.5C 59.2852,88.6264 59.9518,86.6264 60.5,84.5 Z"/></g>
<g><path style="opacity:1" fill="#1b3a27" d="M 24.5,99.5 C 24.1583,100.338 23.4916,100.672 22.5,100.5C 20.9824,96.8106 20.3158,93.1439 20.5,89.5C 22.9124,92.3354 24.2457,95.6688 24.5,99.5 Z"/></g>
<g><path style="opacity:1" fill="#b89668" d="M 57.5,71.5 C 59.0059,74.1263 58.3392,76.1263 55.5,77.5C 54.8333,77.5 54.1667,77.5 53.5,77.5C 53.4606,76.4168 53.1272,75.4168 52.5,74.5C 50.3259,73.1068 48.4926,73.4402 47,75.5C 46.6667,75.1667 46.3333,74.8333 46,74.5C 45.5172,75.448 45.3505,76.448 45.5,77.5C 44.1305,85.6299 43.4639,93.9632 43.5,102.5C 46.5,102.5 49.5,102.5 52.5,102.5C 49.3752,103.479 46.0419,103.813 42.5,103.5C 42.0074,101.194 41.6741,98.861 41.5,96.5C 41.3624,88.0911 42.0291,79.7578 43.5,71.5C 48.1184,69.0253 52.7851,69.0253 57.5,71.5 Z"/></g>
<g><path style="opacity:1" fill="#4d926f" d="M 67.5,72.5 C 68.1667,72.5 68.8333,72.5 69.5,72.5C 69.2053,74.7354 69.5386,76.7354 70.5,78.5C 72.6956,81.5578 74.3622,84.8911 75.5,88.5C 76.5,88.5 77.5,88.5 78.5,88.5C 78.2189,90.9628 77.2189,93.1295 75.5,95C 75.7284,95.3988 76.0618,95.5654 76.5,95.5C 75.5556,99.6455 73.5556,100.312 70.5,97.5C 69.8165,97.8627 69.1499,98.1961 68.5,98.5C 68.3573,96.7376 68.6906,95.0709 69.5,93.5C 68.0499,92.1502 67.3832,90.4835 67.5,88.5C 68.1558,87.3784 68.4892,86.0451 68.5,84.5C 68.4146,82.6672 67.7479,81.3339 66.5,80.5C 66.5,78.1667 66.5,75.8333 66.5,73.5C 67.1667,73.5 67.5,73.1667 67.5,72.5 Z"/></g>
<g><path style="opacity:1" fill="#a69a8c" d="M 35.5,94.5 C 36.29,95.6085 36.79,96.9419 37,98.5C 37.6708,99.2524 38.5041,99.5858 39.5,99.5C 39.1077,101.179 38.6077,102.846 38,104.5C 37.5357,103.906 37.369,103.239 37.5,102.5C 37.0423,99.6909 35.7089,99.0242 33.5,100.5C 32.8333,101.5 32.1667,102.5 31.5,103.5C 31.702,101.05 31.3686,98.717 30.5,96.5C 32.0861,95.5868 33.5861,95.5868 35,96.5C 35.4643,95.9056 35.631,95.2389 35.5,94.5 Z"/></g>
<g><path style="opacity:1" fill="#9da1a0" d="M 83.5,88.5 C 83.5531,95.5828 82.8865,102.583 81.5,109.5C 80.8442,108.378 80.5108,107.045 80.5,105.5C 81.6999,99.7357 82.6999,94.069 83.5,88.5 Z"/></g>
<g><path style="opacity:1" fill="#3c4f42" d="M 18.5,81.5 C 19.5,82.1667 20.5,82.8333 21.5,83.5C 21.8333,84.5 22.5,85.1667 23.5,85.5C 24.7804,86.9313 26.4471,87.5979 28.5,87.5C 28.5,88.1667 28.5,88.8333 28.5,89.5C 27.8333,89.5 27.1667,89.5 26.5,89.5C 23.6141,88.1208 21.1141,86.1208 19,83.5C 18.6258,84.4162 18.1258,85.2496 17.5,86C 18.8933,94.8046 20.2266,103.638 21.5,112.5C 21.5,113.5 21.5,114.5 21.5,115.5C 20.8386,116.718 20.1719,118.051 19.5,119.5C 18.8333,112.679 18.1666,106.012 17.5,99.5C 16.5447,93.5907 16.2114,87.5907 16.5,81.5C 16.369,80.7611 16.5357,80.0944 17,79.5C 17.2784,80.4158 17.7784,81.0825 18.5,81.5 Z"/></g>
<g><path style="opacity:1" fill="#8ba194" d="M 66.5,88.5 C 66.8333,88.5 67.1667,88.5 67.5,88.5C 67.3832,90.4835 68.0499,92.1502 69.5,93.5C 68.6906,95.0709 68.3573,96.7376 68.5,98.5C 67.5655,99.5676 67.2322,100.901 67.5,102.5C 66.71,101.391 66.21,100.058 66,98.5C 65.5357,99.0944 65.369,99.7611 65.5,100.5C 65.1667,100.5 64.8333,100.5 64.5,100.5C 65.2466,97.2475 65.2466,93.9141 64.5,90.5C 65.29,91.6085 65.79,92.9419 66,94.5C 66.4955,92.5273 66.6621,90.5273 66.5,88.5 Z"/></g>
<g><path style="opacity:1" fill="#3d664f" d="M 80.5,126.5 C 78.9902,125.272 77.4902,125.272 76,126.5C 75.5026,123.854 75.3359,121.187 75.5,118.5C 75.5,112.833 75.5,107.167 75.5,101.5C 74.1266,101.343 72.7932,101.51 71.5,102C 70.511,103.82 69.511,105.653 68.5,107.5C 69.1869,109.177 69.8535,110.844 70.5,112.5C 69.8333,114.167 69.1667,115.833 68.5,117.5C 67.5546,112.595 67.2213,107.595 67.5,102.5C 67.2322,100.901 67.5655,99.5676 68.5,98.5C 69.1499,98.1961 69.8165,97.8627 70.5,97.5C 73.5556,100.312 75.5556,99.6455 76.5,95.5C 77.4822,94.8592 78.4822,94.1925 79.5,93.5C 80.85,96.5465 80.0167,98.8798 77,100.5C 76.1684,108.521 76.3351,116.521 77.5,124.5C 79.7136,122.076 80.7136,122.743 80.5,126.5 Z"/></g>
<g><path style="opacity:1" fill="#766446" d="M 54.5,95.5 C 55.1667,95.5 55.8333,95.5 56.5,95.5C 56.5,97.1667 56.5,98.8333 56.5,100.5C 57.8333,100.5 59.1667,100.5 60.5,100.5C 60.2155,102.415 60.5489,104.081 61.5,105.5C 61.5,108.5 61.5,111.5 61.5,114.5C 61.1667,114.5 60.8333,114.5 60.5,114.5C 60.5,114.833 60.5,115.167 60.5,115.5C 58.5,115.833 56.5,116.167 54.5,116.5C 54.5,117.5 54.5,118.5 54.5,119.5C 54.5,122.167 54.5,124.833 54.5,127.5C 54.1667,127.5 53.8333,127.5 53.5,127.5C 53.1667,127.5 52.8333,127.5 52.5,127.5C 51.7875,120.857 51.4542,114.191 51.5,107.5C 51.5,106.5 51.5,105.5 51.5,104.5C 49.1667,104.5 46.8333,104.5 44.5,104.5C 44.6646,107.518 44.498,110.518 44,113.5C 43.7216,114.416 43.2216,115.082 42.5,115.5C 42.8271,113.512 43.1604,111.512 43.5,109.5C 43.3838,107.448 42.3838,106.115 40.5,105.5C 39.0069,107.364 38.3403,109.53 38.5,112C 38.5085,113.707 38.8418,115.207 39.5,116.5C 38.4863,117.674 37.153,118.34 35.5,118.5C 37.0712,114.084 37.4045,109.751 36.5,105.5C 36.2627,104.209 36.596,103.209 37.5,102.5C 37.369,103.239 37.5357,103.906 38,104.5C 38.6077,102.846 39.1077,101.179 39.5,99.5C 40.1667,98.5 40.8333,97.5 41.5,96.5C 41.6741,98.861 42.0074,101.194 42.5,103.5C 46.0419,103.813 49.3752,103.479 52.5,102.5C 54.1484,100.544 54.8151,98.2108 54.5,95.5 Z"/></g>
<g><path style="opacity:1" fill="#d8bf7c" d="M 59.5,107.5 C 58.2921,106.766 56.9587,106.433 55.5,106.5C 55.5,108.833 55.5,111.167 55.5,113.5C 56.8333,113.5 58.1667,113.5 59.5,113.5C 59.5,112.5 59.5,111.5 59.5,110.5C 60.4345,111.568 60.7678,112.901 60.5,114.5C 55.3351,115.392 52.6684,113.225 52.5,108C 53.5305,104.548 55.8638,103.048 59.5,103.5C 59.5,104.833 59.5,106.167 59.5,107.5 Z"/></g>
<g><path style="opacity:1" fill="#1d2921" d="M 26.5,89.5 C 27.1667,89.5 27.8333,89.5 28.5,89.5C 28.7215,92.0673 29.3882,94.4006 30.5,96.5C 31.3686,98.717 31.702,101.05 31.5,103.5C 31.2189,107.188 30.7189,110.855 30,114.5C 29.6174,115.056 29.1174,115.389 28.5,115.5C 29.719,109.357 29.719,103.357 28.5,97.5C 28.4403,94.6592 27.7736,91.9925 26.5,89.5 Z"/></g>
<g><path style="opacity:1" fill="#e3c785" d="M 42.5,115.5 C 41.391,115.557 40.391,115.89 39.5,116.5C 38.8418,115.207 38.5085,113.707 38.5,112C 38.3403,109.53 39.0069,107.364 40.5,105.5C 42.3838,106.115 43.3838,107.448 43.5,109.5C 43.1604,111.512 42.8271,113.512 42.5,115.5 Z"/></g>
<g><path style="opacity:1" fill="#46a475" d="M 75.5,118.5 C 74.2921,119.234 72.9587,119.567 71.5,119.5C 71.702,117.05 71.3686,114.717 70.5,112.5C 69.8535,110.844 69.1869,109.177 68.5,107.5C 69.511,105.653 70.511,103.82 71.5,102C 72.7932,101.51 74.1266,101.343 75.5,101.5C 75.5,107.167 75.5,112.833 75.5,118.5 Z"/></g>
<g><path style="opacity:1" fill="#f2db72" d="M 59.5,107.5 C 59.5,108.5 59.5,109.5 59.5,110.5C 59.5,111.5 59.5,112.5 59.5,113.5C 58.1667,113.5 56.8333,113.5 55.5,113.5C 55.5,111.167 55.5,108.833 55.5,106.5C 56.9587,106.433 58.2921,106.766 59.5,107.5 Z"/></g>
<g><path style="opacity:1" fill="#b4b7b2" d="M 61.5,102.5 C 62.3071,115.047 64.6405,127.381 68.5,139.5C 68.4573,140.416 68.1239,141.083 67.5,141.5C 66.8333,139.5 66.1667,137.5 65.5,135.5C 63.6883,128.587 62.3549,121.587 61.5,114.5C 61.5,111.5 61.5,108.5 61.5,105.5C 61.5,104.5 61.5,103.5 61.5,102.5 Z"/></g>
<g><path style="opacity:1" fill="#c9d2cf" d="M 67.5,102.5 C 67.2213,107.595 67.5546,112.595 68.5,117.5C 68.5,118.5 68.5,119.5 68.5,120.5C 68.6567,121.873 68.49,123.207 68,124.5C 67.79,122.942 67.29,121.609 66.5,120.5C 66.1667,113.833 65.8333,107.167 65.5,100.5C 65.369,99.7611 65.5357,99.0944 66,98.5C 66.21,100.058 66.71,101.391 67.5,102.5 Z"/></g>
<g><path style="opacity:1" fill="#479772" d="M 28.5,97.5 C 29.719,103.357 29.719,109.357 28.5,115.5C 27.124,120.588 25.4573,125.588 23.5,130.5C 25.1342,122.556 26.1342,114.722 26.5,107C 26.3333,105.167 26.1667,103.333 26,101.5C 24.5415,103.432 23.3748,105.432 22.5,107.5C 22.5,105.167 22.5,102.833 22.5,100.5C 23.4916,100.672 24.1583,100.338 24.5,99.5C 25.3149,98.5707 26.1482,97.5707 27,96.5C 27.3826,97.056 27.8826,97.3893 28.5,97.5 Z"/></g>
<g><path style="opacity:1" fill="#5f2727" d="M 60.5,115.5 C 60.5,117.167 60.5,118.833 60.5,120.5C 58.4352,120.483 56.4352,120.15 54.5,119.5C 54.5,118.5 54.5,117.5 54.5,116.5C 56.5,116.167 58.5,115.833 60.5,115.5 Z"/></g>
<g><path style="opacity:1" fill="#4b7962" d="M 49.5,108.5 C 49.9064,121.5 50.9064,134.5 52.5,147.5C 50.5165,147.617 48.8498,146.95 47.5,145.5C 46.8333,146.167 46.1667,146.833 45.5,147.5C 41.5661,142.078 41.7327,136.745 46,131.5C 46.6869,129.432 46.5202,127.432 45.5,125.5C 47.3399,119.815 48.6732,114.148 49.5,108.5 Z"/></g>
<g><path style="opacity:1" fill="#6a3121" d="M 42.5,115.5 C 41.1667,117.833 41.1667,120.167 42.5,122.5C 42.1667,122.5 41.8333,122.5 41.5,122.5C 39.5,122.5 37.5,122.5 35.5,122.5C 35.0742,121.472 35.0742,120.139 35.5,118.5C 37.153,118.34 38.4863,117.674 39.5,116.5C 40.391,115.89 41.391,115.557 42.5,115.5 Z"/></g>
<g><path style="opacity:1" fill="#1d3123" d="M 49.5,108.5 C 49.8417,107.662 50.5084,107.328 51.5,107.5C 51.4542,114.191 51.7875,120.857 52.5,127.5C 52.9994,133.493 53.4994,139.493 54,145.5C 54.6708,146.252 55.5041,146.586 56.5,146.5C 57.1667,146.5 57.8333,146.5 58.5,146.5C 58.5,146.833 58.5,147.167 58.5,147.5C 57.6618,147.842 57.3284,148.508 57.5,149.5C 56.8333,149.833 56.1667,150.167 55.5,150.5C 55.1667,150.5 54.8333,150.5 54.5,150.5C 54.2178,149.222 53.5511,148.222 52.5,147.5C 50.9064,134.5 49.9064,121.5 49.5,108.5 Z"/></g>
<g><path style="opacity:1" fill="#1a2c21" d="M 70.5,112.5 C 71.3686,114.717 71.702,117.05 71.5,119.5C 71.4045,122.692 72.0712,125.692 73.5,128.5C 73.6309,129.376 73.2975,130.043 72.5,130.5C 71.8182,129.757 71.1515,129.091 70.5,128.5C 69.9216,125.72 69.2549,123.053 68.5,120.5C 68.5,119.5 68.5,118.5 68.5,117.5C 69.1667,115.833 69.8333,114.167 70.5,112.5 Z"/></g>
<g><path style="opacity:1" fill="#3aaa76" d="M 23.5,130.5 C 22.7784,130.918 22.2784,131.584 22,132.5C 21.6667,132.167 21.3333,131.833 21,131.5C 20.8312,126.172 20.9979,120.838 21.5,115.5C 21.5,114.5 21.5,113.5 21.5,112.5C 22.4511,111.081 22.7845,109.415 22.5,107.5C 23.3748,105.432 24.5415,103.432 26,101.5C 26.1667,103.333 26.3333,105.167 26.5,107C 26.1342,114.722 25.1342,122.556 23.5,130.5 Z"/></g>
<g><path style="opacity:1" fill="#3f3421" d="M 60.5,114.5 C 60.8333,114.5 61.1667,114.5 61.5,114.5C 62.3549,121.587 63.6883,128.587 65.5,135.5C 64.5318,137.607 64.1984,139.941 64.5,142.5C 64.0263,135.016 62.693,127.683 60.5,120.5C 60.5,118.833 60.5,117.167 60.5,115.5C 60.5,115.167 60.5,114.833 60.5,114.5 Z"/></g>
<g><path style="opacity:1" fill="#62937a" d="M 17.5,99.5 C 18.1666,106.012 18.8333,112.679 19.5,119.5C 20.1719,118.051 20.8386,116.718 21.5,115.5C 20.9979,120.838 20.8312,126.172 21,131.5C 21.3333,131.833 21.6667,132.167 22,132.5C 22.2784,131.584 22.7784,130.918 23.5,130.5C 23.4312,133.084 22.2645,135.084 20,136.5C 20.0704,133.008 19.2371,130.008 17.5,127.5C 17.5,125.833 17.5,124.167 17.5,122.5C 17.5,114.833 17.5,107.167 17.5,99.5 Z"/></g>
<g><path style="opacity:1" fill="#284032" d="M 28.5,115.5 C 27.9632,122.869 26.2965,129.869 23.5,136.5C 23.5654,136.062 23.3988,135.728 23,135.5C 21.951,137.107 20.451,137.773 18.5,137.5C 18.6646,134.482 18.498,131.482 18,128.5C 17.6174,129.056 17.1174,129.389 16.5,129.5C 16.3284,128.508 16.6618,127.842 17.5,127.5C 19.2371,130.008 20.0704,133.008 20,136.5C 22.2645,135.084 23.4312,133.084 23.5,130.5C 25.4573,125.588 27.124,120.588 28.5,115.5 Z"/></g>
<g><path style="opacity:1" fill="#aaaeaf" d="M 33.5,100.5 C 32.3002,116.169 28.9668,131.502 23.5,146.5C 22.1667,146.5 21.5,145.833 21.5,144.5C 23.0507,142.087 23.7174,139.421 23.5,136.5C 26.2965,129.869 27.9632,122.869 28.5,115.5C 29.1174,115.389 29.6174,115.056 30,114.5C 30.7189,110.855 31.2189,107.188 31.5,103.5C 32.1667,102.5 32.8333,101.5 33.5,100.5 Z"/></g>
<g><path style="opacity:1" fill="#a6a6a5" d="M 66.5,120.5 C 67.29,121.609 67.79,122.942 68,124.5C 68.49,123.207 68.6567,121.873 68.5,120.5C 69.2549,123.053 69.9216,125.72 70.5,128.5C 71.3385,132.855 72.3385,137.189 73.5,141.5C 73.4573,142.416 73.1239,143.083 72.5,143.5C 72.1667,143.5 71.8333,143.5 71.5,143.5C 71.5,143.167 71.5,142.833 71.5,142.5C 70.1415,135.069 68.4749,127.735 66.5,120.5 Z"/></g>
<g><path style="opacity:1" fill="#cbb7a3" d="M 36.5,105.5 C 37.4045,109.751 37.0712,114.084 35.5,118.5C 35.0742,120.139 35.0742,121.472 35.5,122.5C 33.9905,127.047 32.9905,131.713 32.5,136.5C 32.1667,136.5 31.8333,136.5 31.5,136.5C 30.6618,136.158 30.3284,135.492 30.5,134.5C 32.7557,124.888 34.7557,115.221 36.5,105.5 Z"/></g>
<g><path style="opacity:1" fill="#4f5f34" d="M 53.5,127.5 C 53.8333,127.5 54.1667,127.5 54.5,127.5C 57.5569,133.404 58.8902,139.737 58.5,146.5C 57.8333,146.5 57.1667,146.5 56.5,146.5C 57.0184,145.423 57.3517,144.256 57.5,143C 56.666,137.672 55.3327,132.505 53.5,127.5 Z"/></g>
<g><path style="opacity:1" fill="#446d5a" d="M 70.5,128.5 C 71.1515,129.091 71.8182,129.757 72.5,130.5C 73.2975,130.043 73.6309,129.376 73.5,128.5C 74.6693,131.341 75.6693,134.341 76.5,137.5C 74.8792,140.367 75.5459,142.7 78.5,144.5C 76.2014,145.757 74.2014,145.423 72.5,143.5C 73.1239,143.083 73.4573,142.416 73.5,141.5C 72.3385,137.189 71.3385,132.855 70.5,128.5 Z"/></g>
<g><path style="opacity:1" fill="#559478" d="M 75.5,118.5 C 75.3359,121.187 75.5026,123.854 76,126.5C 77.4902,125.272 78.9902,125.272 80.5,126.5C 80.5,126.833 80.5,127.167 80.5,127.5C 80.5,131.5 80.5,135.5 80.5,139.5C 78.6203,139.771 77.287,139.104 76.5,137.5C 75.6693,134.341 74.6693,131.341 73.5,128.5C 72.0712,125.692 71.4045,122.692 71.5,119.5C 72.9587,119.567 74.2921,119.234 75.5,118.5 Z"/></g>
<g><path style="opacity:1" fill="#867850" d="M 41.5,122.5 C 41.8333,122.5 42.1667,122.5 42.5,122.5C 42.8525,128.1 41.5191,133.1 38.5,137.5C 39.4437,134.194 40.4437,130.861 41.5,127.5C 41.5,126.5 41.5,125.5 41.5,124.5C 41.5,123.833 41.5,123.167 41.5,122.5 Z"/></g>
<g><path style="opacity:1" fill="#5b8875" d="M 52.5,127.5 C 52.8333,127.5 53.1667,127.5 53.5,127.5C 55.3327,132.505 56.666,137.672 57.5,143C 57.3517,144.256 57.0184,145.423 56.5,146.5C 55.5041,146.586 54.6708,146.252 54,145.5C 53.4994,139.493 52.9994,133.493 52.5,127.5 Z"/></g>
<g><path style="opacity:1" fill="#8f9997" d="M 17.5,122.5 C 17.5,124.167 17.5,125.833 17.5,127.5C 16.6618,127.842 16.3284,128.508 16.5,129.5C 16.5,133.167 16.5,136.833 16.5,140.5C 15.8362,138.19 15.5029,135.69 15.5,133C 15.3037,129.195 15.9704,125.695 17.5,122.5 Z"/></g>
<g><path style="opacity:1" fill="#262e30" d="M 37.5,102.5 C 36.596,103.209 36.2627,104.209 36.5,105.5C 34.7557,115.221 32.7557,124.888 30.5,134.5C 28.9758,139.882 26.6425,144.882 23.5,149.5C 22.1156,151.97 20.1156,153.637 17.5,154.5C 16.8333,154.5 16.1667,154.5 15.5,154.5C 15.5,154.167 15.5,153.833 15.5,153.5C 18.8102,151.854 21.4768,149.52 23.5,146.5C 28.9668,131.502 32.3002,116.169 33.5,100.5C 35.7089,99.0242 37.0423,99.6909 37.5,102.5 Z"/></g>
<g><path style="opacity:1" fill="#171612" d="M 65.5,135.5 C 66.1667,137.5 66.8333,139.5 67.5,141.5C 68.2919,143.745 69.6253,144.078 71.5,142.5C 71.5,142.833 71.5,143.167 71.5,143.5C 71.5,144.833 71.5,146.167 71.5,147.5C 70.448,147.351 69.448,147.517 68.5,148C 69.2524,148.671 69.5858,149.504 69.5,150.5C 68.8333,150.167 68.1667,149.833 67.5,149.5C 67.1667,149.5 66.8333,149.5 66.5,149.5C 66.0113,148.005 65.3446,146.671 64.5,145.5C 64.5,144.5 64.5,143.5 64.5,142.5C 64.1984,139.941 64.5318,137.607 65.5,135.5 Z"/></g>
<g><path style="opacity:1" fill="#959b98" d="M 30.5,134.5 C 30.3284,135.492 30.6618,136.158 31.5,136.5C 30.8902,137.391 30.5569,138.391 30.5,139.5C 29.8168,144.252 27.8168,148.252 24.5,151.5C 23.6618,151.158 23.3284,150.492 23.5,149.5C 26.6425,144.882 28.9758,139.882 30.5,134.5 Z"/></g>
<g><path style="opacity:1" fill="#e7be71" d="M 35.5,122.5 C 37.5,122.5 39.5,122.5 41.5,122.5C 41.5,123.167 41.5,123.833 41.5,124.5C 39.2776,124.178 37.4443,124.845 36,126.5C 34.4783,133.816 34.3117,141.149 35.5,148.5C 36.1671,144.687 36.8337,141.021 37.5,137.5C 37.7166,142.23 37.3833,146.897 36.5,151.5C 35.1667,150.833 33.8333,150.167 32.5,149.5C 32.5,145.167 32.5,140.833 32.5,136.5C 32.9905,131.713 33.9905,127.047 35.5,122.5 Z"/></g>
<g><path style="opacity:1" fill="#f1cd62" d="M 41.5,124.5 C 41.5,125.5 41.5,126.5 41.5,127.5C 39.9032,128.737 38.7365,130.404 38,132.5C 37.5065,134.134 37.3398,135.801 37.5,137.5C 36.8337,141.021 36.1671,144.687 35.5,148.5C 34.3117,141.149 34.4783,133.816 36,126.5C 37.4443,124.845 39.2776,124.178 41.5,124.5 Z"/></g>
<g><path style="opacity:1" fill="#e2cf82" d="M 54.5,119.5 C 56.4352,120.15 58.4352,120.483 60.5,120.5C 62.693,127.683 64.0263,135.016 64.5,142.5C 64.5,143.5 64.5,144.5 64.5,145.5C 64.5858,146.496 64.2524,147.329 63.5,148C 61.6131,148.78 59.9464,148.613 58.5,147.5C 58.5,147.167 58.5,146.833 58.5,146.5C 58.8902,139.737 57.5569,133.404 54.5,127.5C 54.5,124.833 54.5,122.167 54.5,119.5 Z"/></g>
<g><path style="opacity:1" fill="#f0db63" d="M 57.5,123.5 C 58.9432,124.335 59.9432,125.668 60.5,127.5C 61.8333,131.833 61.8333,136.167 60.5,140.5C 58.3341,134.881 57.3341,129.215 57.5,123.5 Z"/></g>
<g><path style="opacity:1" fill="#1a231e" d="M 23.5,136.5 C 23.7174,139.421 23.0507,142.087 21.5,144.5C 20.7924,146.378 19.6257,148.045 18,149.5C 17.8195,146.305 17.3195,143.305 16.5,140.5C 16.5,136.833 16.5,133.167 16.5,129.5C 17.1174,129.389 17.6174,129.056 18,128.5C 18.498,131.482 18.6646,134.482 18.5,137.5C 20.451,137.773 21.951,137.107 23,135.5C 23.3988,135.728 23.5654,136.062 23.5,136.5 Z"/></g>
<g><path style="opacity:1" fill="#e2d297" d="M 41.5,127.5 C 40.4437,130.861 39.4437,134.194 38.5,137.5C 38.8195,142.363 38.4861,147.03 37.5,151.5C 37.1667,151.5 36.8333,151.5 36.5,151.5C 37.3833,146.897 37.7166,142.23 37.5,137.5C 37.3398,135.801 37.5065,134.134 38,132.5C 38.7365,130.404 39.9032,128.737 41.5,127.5 Z"/></g>
<g><path style="opacity:1" fill="#835f45" d="M 31.5,136.5 C 31.8333,136.5 32.1667,136.5 32.5,136.5C 32.5,140.833 32.5,145.167 32.5,149.5C 32.5912,151.698 31.9245,152.031 30.5,150.5C 31.7866,146.732 31.7866,143.065 30.5,139.5C 30.5569,138.391 30.8902,137.391 31.5,136.5 Z"/></g>
<g><path style="opacity:1" fill="#231f1b" d="M 51.5,107.5 C 50.5084,107.328 49.8417,107.662 49.5,108.5C 48.6732,114.148 47.3399,119.815 45.5,125.5C 46.5202,127.432 46.6869,129.432 46,131.5C 41.7327,136.745 41.5661,142.078 45.5,147.5C 46.1667,146.833 46.8333,146.167 47.5,145.5C 48.8498,146.95 50.5165,147.617 52.5,147.5C 53.5511,148.222 54.2178,149.222 54.5,150.5C 49.5125,150.034 44.5125,150.534 39.5,152C 42.146,152.497 44.8127,152.664 47.5,152.5C 46.4489,153.222 45.7822,154.222 45.5,155.5C 44.0695,155.579 42.7362,155.246 41.5,154.5C 40.7025,154.957 40.3691,155.624 40.5,156.5C 38.4017,157.914 37.4017,157.248 37.5,154.5C 37.5,153.5 37.5,152.5 37.5,151.5C 38.4861,147.03 38.8195,142.363 38.5,137.5C 41.5191,133.1 42.8525,128.1 42.5,122.5C 41.1667,120.167 41.1667,117.833 42.5,115.5C 43.2216,115.082 43.7216,114.416 44,113.5C 44.498,110.518 44.6646,107.518 44.5,104.5C 46.8333,104.5 49.1667,104.5 51.5,104.5C 51.5,105.5 51.5,106.5 51.5,107.5 Z"/></g>
<g><path style="opacity:1" fill="#74797a" d="M 16.5,140.5 C 17.3195,143.305 17.8195,146.305 18,149.5C 19.6257,148.045 20.7924,146.378 21.5,144.5C 21.5,145.833 22.1667,146.5 23.5,146.5C 21.4768,149.52 18.8102,151.854 15.5,153.5C 16.3726,149.232 16.7059,144.898 16.5,140.5 Z"/></g>
<g><path style="opacity:1" fill="#203028" d="M 80.5,127.5 C 81.1667,130.833 81.8333,134.167 82.5,137.5C 82.698,144.218 83.3647,150.885 84.5,157.5C 84.5,158.833 84.5,160.167 84.5,161.5C 83.1667,161.5 81.8333,161.5 80.5,161.5C 79.8333,160.833 79.1667,160.167 78.5,159.5C 79.3007,157.958 79.634,156.292 79.5,154.5C 75.6424,154.23 72.309,152.897 69.5,150.5C 69.5858,149.504 69.2524,148.671 68.5,148C 69.448,147.517 70.448,147.351 71.5,147.5C 71.5,146.167 71.5,144.833 71.5,143.5C 71.8333,143.5 72.1667,143.5 72.5,143.5C 74.2014,145.423 76.2014,145.757 78.5,144.5C 75.5459,142.7 74.8792,140.367 76.5,137.5C 77.287,139.104 78.6203,139.771 80.5,139.5C 80.5,135.5 80.5,131.5 80.5,127.5 Z"/></g>
<g><path style="opacity:1" fill="#628979" d="M 73.5,146.5 C 75.5273,146.338 77.5273,146.505 79.5,147C 78.1667,147.333 76.8333,147.667 75.5,148C 77.4357,148.813 79.4357,149.313 81.5,149.5C 81.762,150.978 81.4287,152.311 80.5,153.5C 77.7366,151.404 75.4033,149.07 73.5,146.5 Z"/></g>
<g><path style="opacity:1" fill="#576068" d="M 23.5,149.5 C 23.3284,150.492 23.6618,151.158 24.5,151.5C 23.5218,153.812 21.8552,155.478 19.5,156.5C 18.2867,156.253 17.62,155.586 17.5,154.5C 20.1156,153.637 22.1156,151.97 23.5,149.5 Z"/></g>
<g><path style="opacity:1" fill="#be5e5e" d="M 32.5,149.5 C 33.8333,150.167 35.1667,150.833 36.5,151.5C 36.8333,151.5 37.1667,151.5 37.5,151.5C 37.5,152.5 37.5,153.5 37.5,154.5C 36.8333,155.167 36.1667,155.833 35.5,156.5C 34.8444,155.722 34.0111,155.056 33,154.5C 29.5273,156.34 28.3607,155.673 29.5,152.5C 29.8333,151.833 30.1667,151.167 30.5,150.5C 31.9245,152.031 32.5912,151.698 32.5,149.5 Z"/></g>
<g><path style="opacity:1" fill="#7b6566" d="M 54.5,150.5 C 54.8333,150.5 55.1667,150.5 55.5,150.5C 55.5,151.5 55.5,152.5 55.5,153.5C 52.7212,153.721 50.0545,153.388 47.5,152.5C 44.8127,152.664 42.146,152.497 39.5,152C 44.5125,150.534 49.5125,150.034 54.5,150.5 Z"/></g>
<g><path style="opacity:1" fill="#28201f" d="M 30.5,139.5 C 31.7866,143.065 31.7866,146.732 30.5,150.5C 30.1667,151.167 29.8333,151.833 29.5,152.5C 27.2639,154.893 24.5973,156.727 21.5,158C 23.8848,158.556 26.2181,158.39 28.5,157.5C 28.2178,158.778 27.5511,159.778 26.5,160.5C 23.5876,160.254 20.5876,160.254 17.5,160.5C 16.2319,158.696 15.5652,156.696 15.5,154.5C 16.1667,154.5 16.8333,154.5 17.5,154.5C 17.62,155.586 18.2867,156.253 19.5,156.5C 21.8552,155.478 23.5218,153.812 24.5,151.5C 27.8168,148.252 29.8168,144.252 30.5,139.5 Z"/></g>
<g><path style="opacity:1" fill="#7f3e43" d="M 29.5,152.5 C 28.3607,155.673 29.5273,156.34 33,154.5C 34.0111,155.056 34.8444,155.722 35.5,156.5C 33.264,157.982 30.9307,158.315 28.5,157.5C 26.2181,158.39 23.8848,158.556 21.5,158C 24.5973,156.727 27.2639,154.893 29.5,152.5 Z"/></g>
<g><path style="opacity:1" fill="#ac5860" d="M 64.5,145.5 C 65.3446,146.671 66.0113,148.005 66.5,149.5C 66.8333,149.5 67.1667,149.5 67.5,149.5C 67.7086,150.922 68.2086,152.255 69,153.5C 71.1917,154.399 73.3584,155.399 75.5,156.5C 76.8333,157.167 76.8333,157.833 75.5,158.5C 69.7647,156.013 63.7647,154.68 57.5,154.5C 57.5,152.833 57.5,151.167 57.5,149.5C 57.3284,148.508 57.6618,147.842 58.5,147.5C 59.9464,148.613 61.6131,148.78 63.5,148C 64.2524,147.329 64.5858,146.496 64.5,145.5 Z"/></g>
<g><path style="opacity:1" fill="#482825" d="M 57.5,149.5 C 57.5,151.167 57.5,152.833 57.5,154.5C 63.7647,154.68 69.7647,156.013 75.5,158.5C 76.8333,157.833 76.8333,157.167 75.5,156.5C 73.3584,155.399 71.1917,154.399 69,153.5C 68.2086,152.255 67.7086,150.922 67.5,149.5C 68.1667,149.833 68.8333,150.167 69.5,150.5C 72.309,152.897 75.6424,154.23 79.5,154.5C 79.634,156.292 79.3007,157.958 78.5,159.5C 74.1186,159.628 69.7853,159.295 65.5,158.5C 64.1984,157.193 62.865,157.193 61.5,158.5C 60.8076,157.975 60.3076,157.308 60,156.5C 59.6012,156.728 59.4346,157.062 59.5,157.5C 58.8333,157.5 58.1667,157.5 57.5,157.5C 56.0072,156.555 54.5072,155.555 53,154.5C 51.8615,154.989 50.6948,155.322 49.5,155.5C 48.3684,154.646 47.035,154.646 45.5,155.5C 45.7822,154.222 46.4489,153.222 47.5,152.5C 50.0545,153.388 52.7212,153.721 55.5,153.5C 55.5,152.5 55.5,151.5 55.5,150.5C 56.1667,150.167 56.8333,149.833 57.5,149.5 Z"/></g>
<g><path style="opacity:1" fill="#df5169" d="M 66.5,149.5 C 66.5,150.833 66.5,152.167 66.5,153.5C 64.1667,153.5 61.8333,153.5 59.5,153.5C 59.5,152.5 59.5,151.5 59.5,150.5C 61.9029,150.552 64.2362,150.219 66.5,149.5 Z"/></g>
<g><path style="opacity:1" fill="#bfb3a3" d="M 65.5,158.5 C 66.5981,159.397 66.5981,160.23 65.5,161C 63.3225,162.202 60.9892,162.702 58.5,162.5C 58.6287,160.784 58.962,159.117 59.5,157.5C 59.4346,157.062 59.6012,156.728 60,156.5C 60.3076,157.308 60.8076,157.975 61.5,158.5C 62.865,157.193 64.1984,157.193 65.5,158.5 Z"/></g>
<g><path style="opacity:1" fill="#918983" d="M 15.5,154.5 C 15.5652,156.696 16.2319,158.696 17.5,160.5C 20.5876,160.254 23.5876,160.254 26.5,160.5C 27.9305,160.579 29.2638,160.246 30.5,159.5C 31.2508,160.376 31.7508,161.376 32,162.5C 34.6958,161.257 36.8625,161.924 38.5,164.5C 29.5,164.5 20.5,164.5 11.5,164.5C 9.29426,159.676 10.6276,156.342 15.5,154.5 Z"/></g>
<g><path style="opacity:1" fill="#746459" d="M 37.5,154.5 C 37.4017,157.248 38.4017,157.914 40.5,156.5C 40.3691,155.624 40.7025,154.957 41.5,154.5C 42.7362,155.246 44.0695,155.579 45.5,155.5C 47.035,154.646 48.3684,154.646 49.5,155.5C 48.9569,155.56 48.6236,155.893 48.5,156.5C 49.376,157.251 50.376,157.751 51.5,158C 47.9406,159.938 44.6073,162.105 41.5,164.5C 40.5,164.5 39.5,164.5 38.5,164.5C 36.8625,161.924 34.6958,161.257 32,162.5C 31.7508,161.376 31.2508,160.376 30.5,159.5C 29.2638,160.246 27.9305,160.579 26.5,160.5C 27.5511,159.778 28.2178,158.778 28.5,157.5C 30.9307,158.315 33.264,157.982 35.5,156.5C 36.1667,155.833 36.8333,155.167 37.5,154.5 Z"/></g>
<g><path style="opacity:1" fill="#b4a99e" d="M 40.5,156.5 C 42.6648,156.116 44.3315,156.783 45.5,158.5C 43.3932,160.887 40.7265,162.22 37.5,162.5C 37.3501,158.839 38.8501,157.839 42,159.5C 42.2387,158.212 41.7387,157.212 40.5,156.5 Z"/></g>
<g><path style="opacity:1" fill="#a8a097" d="M 57.5,157.5 C 57.5858,158.496 57.2524,159.329 56.5,160C 54.2746,160.561 52.2746,161.561 50.5,163C 52.8087,163.756 54.8087,163.256 56.5,161.5C 58.1168,162.642 59.9501,163.309 62,163.5C 65.5032,162.496 69.0032,161.496 72.5,160.5C 73.5,160.833 74.5,161.167 75.5,161.5C 74.2713,162.281 72.938,162.781 71.5,163C 72.5,163.167 73.5,163.333 74.5,163.5C 76.5351,162.796 78.5351,162.129 80.5,161.5C 81.8333,161.5 83.1667,161.5 84.5,161.5C 84.5,160.167 84.5,158.833 84.5,157.5C 85.29,158.609 85.79,159.942 86,161.5C 86.3333,160.167 86.6667,158.833 87,157.5C 89.0115,160.1 88.8448,162.434 86.5,164.5C 71.5,164.5 56.5,164.5 41.5,164.5C 44.6073,162.105 47.9406,159.938 51.5,158C 50.376,157.751 49.376,157.251 48.5,156.5C 48.6236,155.893 48.9569,155.56 49.5,155.5C 50.6948,155.322 51.8615,154.989 53,154.5C 54.5072,155.555 56.0072,156.555 57.5,157.5 Z"/></g>
<g><path style="opacity:1" fill="#7c7065" d="M 57.5,157.5 C 58.1667,157.5 58.8333,157.5 59.5,157.5C 58.962,159.117 58.6287,160.784 58.5,162.5C 60.9892,162.702 63.3225,162.202 65.5,161C 66.5981,160.23 66.5981,159.397 65.5,158.5C 69.7853,159.295 74.1186,159.628 78.5,159.5C 79.1667,160.167 79.8333,160.833 80.5,161.5C 78.5351,162.129 76.5351,162.796 74.5,163.5C 73.5,163.333 72.5,163.167 71.5,163C 72.938,162.781 74.2713,162.281 75.5,161.5C 74.5,161.167 73.5,160.833 72.5,160.5C 69.0032,161.496 65.5032,162.496 62,163.5C 59.9501,163.309 58.1168,162.642 56.5,161.5C 54.8087,163.256 52.8087,163.756 50.5,163C 52.2746,161.561 54.2746,160.561 56.5,160C 57.2524,159.329 57.5858,158.496 57.5,157.5 Z"/></g>
</svg>
