<?xml version="1.0" encoding="UTF-8"?>
<!DOCTYPE svg PUBLIC "-//W3C//DTD SVG 1.1//EN" "http://www.w3.org/Graphics/SVG/1.1/DTD/svg11.dtd">
<svg xmlns="http://www.w3.org/2000/svg" version="1.1" width="100px" height="165px" style="shape-rendering:geometricPrecision; text-rendering:geometricPrecision; image-rendering:optimizeQuality; fill-rule:evenodd; clip-rule:evenodd" xmlns:xlink="http://www.w3.org/1999/xlink">
<g><path style="opacity:1" fill="#fcfcfb" d="M 50.5,-0.5 C 66.8333,-0.5 83.1667,-0.5 99.5,-0.5C 99.5,54.5 99.5,109.5 99.5,164.5C 94.1667,164.5 88.8333,164.5 83.5,164.5C 83.5,163.5 83.5,162.5 83.5,161.5C 85.7159,161.725 87.3826,160.892 88.5,159C 87.9558,158.283 87.2891,157.783 86.5,157.5C 85.2141,154.883 83.5475,152.55 81.5,150.5C 79.2784,144.609 77.9451,138.609 77.5,132.5C 76.5773,128.936 76.244,125.269 76.5,121.5C 76.3433,120.127 76.51,118.793 77,117.5C 79.4725,115.702 81.1392,113.368 82,110.5C 82.9744,105.511 83.8077,100.511 84.5,95.5C 85.1644,92.8541 85.4978,90.0208 85.5,87C 85.5945,81.9215 84.9278,77.0882 83.5,72.5C 82.1296,67.0017 80.4629,61.6684 78.5,56.5C 76.6951,51.0842 74.6951,45.7509 72.5,40.5C 71.3646,38.7868 69.698,38.1201 67.5,38.5C 65.4816,37.0674 63.8149,37.4008 62.5,39.5C 62.5792,38.0695 62.2458,36.7362 61.5,35.5C 63.0049,34.1585 63.6715,32.4918 63.5,30.5C 62.5,30.5 61.5,30.5 60.5,30.5C 60.4757,26.4003 59.809,22.4003 58.5,18.5C 58.7537,16.0389 59.7537,14.0389 61.5,12.5C 64.9694,13.1128 66.9694,11.7794 67.5,8.5C 66.3886,7.34029 65.3886,6.00696 64.5,4.5C 60.7817,6.66674 57.9483,5.66674 56,1.5C 55.586,1.95735 55.086,2.29069 54.5,2.5C 52.517,2.18517 51.1837,1.18517 50.5,-0.5 Z"/></g>
<g><path style="opacity:1" fill="#ab9e84" d="M 67.5,8.5 C 66.9694,11.7794 64.9694,13.1128 61.5,12.5C 60.1667,11.8333 59.1667,10.8333 58.5,9.5C 58.631,8.76109 58.4643,8.09442 58,7.5C 56.6667,8.16667 55.6667,9.16667 55,10.5C 54,7.83333 53,7.83333 52,10.5C 51.935,8.11669 51.1017,7.45003 49.5,8.5C 47.8045,7.82556 46.1379,7.1589 44.5,6.5C 46.5102,6.55831 48.6769,5.89164 51,4.5C 52.531,5.21729 53.8643,6.21729 55,7.5C 56,7.16667 57,6.83333 58,6.5C 60.5387,9.75758 63.7053,10.4242 67.5,8.5 Z"/></g>
<g><path style="opacity:1" fill="#a68667" d="M 44.5,6.5 C 46.1379,7.1589 47.8045,7.82556 49.5,8.5C 51.1017,7.45003 51.935,8.11669 52,10.5C 53,7.83333 54,7.83333 55,10.5C 55.6667,9.16667 56.6667,8.16667 58,7.5C 58.4643,8.09442 58.631,8.76109 58.5,9.5C 57.7611,9.36899 57.0944,9.53566 56.5,10C 59.112,12.1513 59.112,12.9847 56.5,12.5C 55.3279,12.9186 54.3279,13.5853 53.5,14.5C 54.3094,16.0709 54.6427,17.7376 54.5,19.5C 53.8333,20.1667 53.1667,20.8333 52.5,21.5C 51.548,20.548 50.548,19.548 49.5,18.5C 48.8933,18.6236 48.56,18.9569 48.5,19.5C 47.7784,19.0825 47.2784,18.4158 47,17.5C 46.5357,18.0944 46.369,18.7611 46.5,19.5C 44.1391,17.7966 44.1391,16.1299 46.5,14.5C 45.0095,13.7564 43.5095,13.0897 42,12.5C 41.6012,12.7284 41.4346,13.0618 41.5,13.5C 34.5481,8.80425 35.5481,6.47092 44.5,6.5 Z"/></g>
<g><path style="opacity:1" fill="#2d363c" d="M 17.5,11.5 C 22.5438,19.9234 26.2105,28.9234 28.5,38.5C 29.0649,41.4209 30.2316,44.0876 32,46.5C 32.3988,46.2716 32.5654,45.9382 32.5,45.5C 33.4013,46.2905 34.0679,47.2905 34.5,48.5C 34.5,48.8333 34.5,49.1667 34.5,49.5C 32.9505,50.4408 31.2838,51.1075 29.5,51.5C 26.004,38.0072 21.3374,25.0072 15.5,12.5C 15.9569,11.7025 16.6236,11.3691 17.5,11.5 Z"/></g>
<g><path style="opacity:1" fill="#775e51" d="M 46.5,19.5 C 45.7961,21.3442 44.4628,21.8442 42.5,21C 43.8825,19.5391 43.5492,18.7058 41.5,18.5C 41.1667,18.5 40.8333,18.5 40.5,18.5C 41.3007,16.9582 41.634,15.2915 41.5,13.5C 41.4346,13.0618 41.6012,12.7284 42,12.5C 43.5095,13.0897 45.0095,13.7564 46.5,14.5C 44.1391,16.1299 44.1391,17.7966 46.5,19.5 Z"/></g>
<g><path style="opacity:1" fill="#5f3a1f" d="M 52.5,21.5 C 50.5168,21.8432 49.1834,21.1765 48.5,19.5C 48.56,18.9569 48.8933,18.6236 49.5,18.5C 50.548,19.548 51.548,20.548 52.5,21.5 Z"/></g>
<g><path style="opacity:1" fill="#c6b7a4" d="M 48.5,19.5 C 49.1834,21.1765 50.5168,21.8432 52.5,21.5C 53.1667,20.8333 53.8333,20.1667 54.5,19.5C 55.0095,23.8131 54.3429,27.8131 52.5,31.5C 51.0695,31.4208 49.7362,31.7542 48.5,32.5C 46.8974,31.2066 45.2307,30.2066 43.5,29.5C 41.7024,26.1691 41.0357,22.5025 41.5,18.5C 43.5492,18.7058 43.8825,19.5391 42.5,21C 44.4628,21.8442 45.7961,21.3442 46.5,19.5C 46.369,18.7611 46.5357,18.0944 47,17.5C 47.2784,18.4158 47.7784,19.0825 48.5,19.5 Z"/></g>
<g><path style="opacity:1" fill="#393733" d="M 40.5,18.5 C 40.8333,18.5 41.1667,18.5 41.5,18.5C 41.0357,22.5025 41.7024,26.1691 43.5,29.5C 42.9569,29.56 42.6236,29.8933 42.5,30.5C 43.376,31.2508 44.376,31.7508 45.5,32C 43.6063,33.0793 43.273,34.4126 44.5,36C 43.9056,36.4643 43.2389,36.631 42.5,36.5C 42.6567,35.1266 42.49,33.7932 42,32.5C 41.1841,33.8228 40.0174,34.4894 38.5,34.5C 34.5016,32.484 34.6683,30.8173 39,29.5C 39.4196,25.8086 39.9196,22.1419 40.5,18.5 Z"/></g>
<g><path style="opacity:1" fill="#615339" d="M 44.5,25.5 C 46.1347,26.8146 47.8014,26.8146 49.5,25.5C 50.8448,26.3467 51.8448,27.5134 52.5,29C 49.9184,28.7446 47.2518,28.578 44.5,28.5C 44.5,27.5 44.5,26.5 44.5,25.5 Z"/></g>
<g><path style="opacity:1" fill="#797169" d="M 43.5,29.5 C 45.2307,30.2066 46.8974,31.2066 48.5,32.5C 49.7362,31.7542 51.0695,31.4208 52.5,31.5C 52.7229,34.1142 51.5562,35.7809 49,36.5C 47.7964,35.5294 47.2964,34.5294 47.5,33.5C 46.6376,34.7658 45.9709,36.0992 45.5,37.5C 44.209,37.7373 43.209,37.404 42.5,36.5C 43.2389,36.631 43.9056,36.4643 44.5,36C 43.273,34.4126 43.6063,33.0793 45.5,32C 44.376,31.7508 43.376,31.2508 42.5,30.5C 42.6236,29.8933 42.9569,29.56 43.5,29.5 Z"/></g>
<g><path style="opacity:1" fill="#403e37" d="M 58.5,9.5 C 59.1667,10.8333 60.1667,11.8333 61.5,12.5C 59.7537,14.0389 58.7537,16.0389 58.5,18.5C 59.809,22.4003 60.4757,26.4003 60.5,30.5C 61.5,30.5 62.5,30.5 63.5,30.5C 63.6715,32.4918 63.0049,34.1585 61.5,35.5C 62.2458,36.7362 62.5792,38.0695 62.5,39.5C 61.0689,40.0819 59.7356,40.9152 58.5,42C 59.9156,43.9151 59.5822,45.4151 57.5,46.5C 56.3054,46.1344 55.6387,45.301 55.5,44C 56.0439,42.415 56.7106,40.915 57.5,39.5C 58.4124,38.2618 58.5791,36.9285 58,35.5C 57.586,35.9574 57.086,36.2907 56.5,36.5C 54.5959,32.5564 53.5959,32.8897 53.5,37.5C 50.8333,37.5 48.1667,37.5 45.5,37.5C 45.9709,36.0992 46.6376,34.7658 47.5,33.5C 47.2964,34.5294 47.7964,35.5294 49,36.5C 51.5562,35.7809 52.7229,34.1142 52.5,31.5C 54.3429,27.8131 55.0095,23.8131 54.5,19.5C 54.6427,17.7376 54.3094,16.0709 53.5,14.5C 54.3279,13.5853 55.3279,12.9186 56.5,12.5C 59.112,12.9847 59.112,12.1513 56.5,10C 57.0944,9.53566 57.7611,9.36899 58.5,9.5 Z"/></g>
<g><path style="opacity:1" fill="#deb8af" d="M 36.5,39.5 C 38.341,41.8485 39.6743,44.5152 40.5,47.5C 38.127,45.4208 36.7936,42.7541 36.5,39.5 Z"/></g>
<g><path style="opacity:1" fill="#578ca3" d="M 17.5,11.5 C 16.6236,11.3691 15.9569,11.7025 15.5,12.5C 21.3374,25.0072 26.004,38.0072 29.5,51.5C 29.5,51.8333 29.5,52.1667 29.5,52.5C 28.5,52.5 27.5,52.5 26.5,52.5C 26.3713,50.7839 26.038,49.1172 25.5,47.5C 21.3989,37.6263 17.5655,27.6263 14,17.5C 13.3333,15.5 13.3333,13.5 14,11.5C 15.2917,10.2089 16.4583,10.2089 17.5,11.5 Z"/></g>
<g><path style="opacity:1" fill="#c9c58e" d="M 67.5,38.5 C 69.698,38.1201 71.3646,38.7868 72.5,40.5C 71.6618,40.8417 71.3284,41.5084 71.5,42.5C 70.7321,41.7375 70.2321,40.7375 70,39.5C 68.4226,43.2826 67.5893,47.2826 67.5,51.5C 67.5,52.1667 67.1667,52.5 66.5,52.5C 66.4672,48.1311 66.8005,43.7978 67.5,39.5C 67.5,39.1667 67.5,38.8333 67.5,38.5 Z"/></g>
<g><path style="opacity:1" fill="#894b40" d="M 36.5,39.5 C 36.7936,42.7541 38.127,45.4208 40.5,47.5C 41.5,48.8333 42.5,50.1667 43.5,51.5C 42.4168,51.4606 41.4168,51.1272 40.5,50.5C 40.0358,52.9749 39.0358,54.9749 37.5,56.5C 35.0504,56.702 32.717,56.3686 30.5,55.5C 30.5,55.1667 30.5,54.8333 30.5,54.5C 32.9852,55.2716 35.4852,54.9383 38,53.5C 38.7995,50.4277 37.6329,48.7611 34.5,48.5C 34.0679,47.2905 33.4013,46.2905 32.5,45.5C 32.3379,43.4727 32.5045,41.4727 33,39.5C 33.3333,39.8333 33.6667,40.1667 34,40.5C 34.3333,39.5 34.6667,38.5 35,37.5C 35.2784,38.4158 35.7784,39.0825 36.5,39.5 Z"/></g>
<g><path style="opacity:1" fill="#435e45" d="M 57.5,39.5 C 56.7106,40.915 56.0439,42.415 55.5,44C 55.6387,45.301 56.3054,46.1344 57.5,46.5C 57.4431,47.609 57.1098,48.609 56.5,49.5C 54.9557,49.7031 53.6223,50.3698 52.5,51.5C 50.0424,45.6335 51.709,41.6335 57.5,39.5 Z"/></g>
<g><path style="opacity:1" fill="#f1e376" d="M 71.5,42.5 C 71.607,47.2102 71.7737,51.8769 72,56.5C 70.2546,58.0891 69.088,60.0891 68.5,62.5C 67.52,59.9135 67.1866,57.2469 67.5,54.5C 68.625,53.3478 68.625,52.3478 67.5,51.5C 67.5893,47.2826 68.4226,43.2826 70,39.5C 70.2321,40.7375 70.7321,41.7375 71.5,42.5 Z"/></g>
<g><path style="opacity:1" fill="#3b5038" d="M 43.5,39.5 C 43.5569,40.609 43.8902,41.609 44.5,42.5C 44.8212,44.0481 45.8212,44.7148 47.5,44.5C 47.6567,45.8734 47.49,47.2068 47,48.5C 46.6667,48.1667 46.3333,47.8333 46,47.5C 45.6924,48.3081 45.1924,48.9747 44.5,49.5C 43.3777,48.3698 42.0443,47.7031 40.5,47.5C 39.6743,44.5152 38.341,41.8485 36.5,39.5C 36.5,38.5 36.5,37.5 36.5,36.5C 38.1667,36.5 39.8333,36.5 41.5,36.5C 41.2852,38.1788 41.9519,39.1788 43.5,39.5 Z"/></g>
<g><path style="opacity:1" fill="#a8a48d" d="M 42.5,36.5 C 43.209,37.404 44.209,37.7373 45.5,37.5C 48.1667,37.5 50.8333,37.5 53.5,37.5C 53.5959,32.8897 54.5959,32.5564 56.5,36.5C 57.086,36.2907 57.586,35.9574 58,35.5C 58.5791,36.9285 58.4124,38.2618 57.5,39.5C 51.709,41.6335 50.0424,45.6335 52.5,51.5C 53.6223,50.3698 54.9557,49.7031 56.5,49.5C 55.8333,50.5 55.1667,51.5 54.5,52.5C 53.5041,52.4142 52.6708,52.7476 52,53.5C 51.8296,62.343 51.3296,71.0097 50.5,79.5C 50.6567,78.1266 50.49,76.7932 50,75.5C 49.6174,76.056 49.1174,76.3893 48.5,76.5C 48.8254,68.6484 48.492,60.9818 47.5,53.5C 46.4863,52.3263 45.153,51.6596 43.5,51.5C 42.5,50.1667 41.5,48.8333 40.5,47.5C 42.0443,47.7031 43.3777,48.3698 44.5,49.5C 45.1924,48.9747 45.6924,48.3081 46,47.5C 46.3333,47.8333 46.6667,48.1667 47,48.5C 47.49,47.2068 47.6567,45.8734 47.5,44.5C 45.8212,44.7148 44.8212,44.0481 44.5,42.5C 46.5514,44.0376 48.218,43.7043 49.5,41.5C 48.2055,38.5131 46.2055,37.8464 43.5,39.5C 41.9519,39.1788 41.2852,38.1788 41.5,36.5C 39.8333,36.5 38.1667,36.5 36.5,36.5C 36.5,37.5 36.5,38.5 36.5,39.5C 35.7784,39.0825 35.2784,38.4158 35,37.5C 34.6667,38.5 34.3333,39.5 34,40.5C 33.6667,40.1667 33.3333,39.8333 33,39.5C 32.5045,41.4727 32.3379,43.4727 32.5,45.5C 32.5654,45.9382 32.3988,46.2716 32,46.5C 30.2316,44.0876 29.0649,41.4209 28.5,38.5C 30.2012,38.0338 31.7012,38.0338 33,38.5C 34.4562,36.5347 36.2895,35.2013 38.5,34.5C 40.0174,34.4894 41.1841,33.8228 42,32.5C 42.49,33.7932 42.6567,35.1266 42.5,36.5 Z"/></g>
<g><path style="opacity:1" fill="#d7c481" d="M 44.5,42.5 C 43.8902,41.609 43.5569,40.609 43.5,39.5C 46.2055,37.8464 48.2055,38.5131 49.5,41.5C 48.218,43.7043 46.5514,44.0376 44.5,42.5 Z"/></g>
<g><path style="opacity:1" fill="#294e54" d="M 67.5,39.5 C 66.8005,43.7978 66.4672,48.1311 66.5,52.5C 65.7784,52.0825 65.2784,51.4158 65,50.5C 64.5034,52.8098 64.3367,55.1432 64.5,57.5C 64.1667,57.5 63.8333,57.5 63.5,57.5C 63.3165,50.9229 64.6499,44.9229 67.5,39.5 Z"/></g>
<g><path style="opacity:1" fill="#4e4831" d="M 72.5,40.5 C 74.6951,45.7509 76.6951,51.0842 78.5,56.5C 78.7678,58.099 78.4345,59.4324 77.5,60.5C 76.5244,59.1851 75.5244,57.8518 74.5,56.5C 74.7093,55.914 75.0426,55.414 75.5,55C 73.6282,50.889 72.2948,46.7223 71.5,42.5C 71.3284,41.5084 71.6618,40.8417 72.5,40.5 Z"/></g>
<g><path style="opacity:1" fill="#866a4e" d="M 34.5,49.5 C 34.7214,50.7348 35.3881,51.7348 36.5,52.5C 34.4583,52.4231 32.4583,53.0898 30.5,54.5C 28.8002,54.6261 27.3002,55.2927 26,56.5C 25.5,56.1667 25,55.8333 24.5,55.5C 25.9469,54.0652 27.6136,53.0652 29.5,52.5C 29.5,52.1667 29.5,51.8333 29.5,51.5C 31.2838,51.1075 32.9505,50.4408 34.5,49.5 Z"/></g>
<g><path style="opacity:1" fill="#cea490" d="M 34.5,48.5 C 37.6329,48.7611 38.7995,50.4277 38,53.5C 35.4852,54.9383 32.9852,55.2716 30.5,54.5C 32.4583,53.0898 34.4583,52.4231 36.5,52.5C 35.3881,51.7348 34.7214,50.7348 34.5,49.5C 34.5,49.1667 34.5,48.8333 34.5,48.5 Z"/></g>
<g><path style="opacity:1" fill="#498ca2" d="M 67.5,38.5 C 67.5,38.8333 67.5,39.1667 67.5,39.5C 64.6499,44.9229 63.3165,50.9229 63.5,57.5C 63.8257,65.6841 63.4924,73.6841 62.5,81.5C 62.7411,73.1386 62.4078,64.8053 61.5,56.5C 61.8538,53.5585 62.5205,50.7252 63.5,48C 61.1489,48.1404 58.8155,48.6404 56.5,49.5C 57.1098,48.609 57.4431,47.609 57.5,46.5C 59.5822,45.4151 59.9156,43.9151 58.5,42C 59.7356,40.9152 61.0689,40.0819 62.5,39.5C 63.8149,37.4008 65.4816,37.0674 67.5,38.5 Z"/></g>
<g><path style="opacity:1" fill="#fafaf9" d="M -0.5,-0.5 C 16.5,-0.5 33.5,-0.5 50.5,-0.5C 51.1837,1.18517 52.517,2.18517 54.5,2.5C 55.086,2.29069 55.586,1.95735 56,1.5C 57.9483,5.66674 60.7817,6.66674 64.5,4.5C 65.3886,6.00696 66.3886,7.34029 67.5,8.5C 63.7053,10.4242 60.5387,9.75758 58,6.5C 57,6.83333 56,7.16667 55,7.5C 53.8643,6.21729 52.531,5.21729 51,4.5C 48.6769,5.89164 46.5102,6.55831 44.5,6.5C 35.5481,6.47092 34.5481,8.80425 41.5,13.5C 41.634,15.2915 41.3007,16.9582 40.5,18.5C 39.9196,22.1419 39.4196,25.8086 39,29.5C 34.6683,30.8173 34.5016,32.484 38.5,34.5C 36.2895,35.2013 34.4562,36.5347 33,38.5C 31.7012,38.0338 30.2012,38.0338 28.5,38.5C 26.2105,28.9234 22.5438,19.9234 17.5,11.5C 16.4583,10.2089 15.2917,10.2089 14,11.5C 13.3333,13.5 13.3333,15.5 14,17.5C 17.5655,27.6263 21.3989,37.6263 25.5,47.5C 23.8333,47.5 22.1667,47.5 20.5,47.5C 20.6621,49.5273 20.4955,51.5273 20,53.5C 14.0405,57.8066 10.5405,63.6399 9.5,71C 9.77282,72.5328 10.1062,74.0328 10.5,75.5C 10.255,78.8649 10.9217,82.0316 12.5,85C 11.5411,87.1199 11.3744,89.2865 12,91.5C 14.8517,95.2042 17.185,99.2042 19,103.5C 19.4811,118.944 18.6478,134.277 16.5,149.5C 16.3713,151.216 16.038,152.883 15.5,154.5C 14.8333,154.5 14.5,154.833 14.5,155.5C 13.5,155.5 12.5,155.5 11.5,155.5C 11.2053,157.735 11.5386,159.735 12.5,161.5C 27.1667,161.5 41.8333,161.5 56.5,161.5C 65.5,161.5 74.5,161.5 83.5,161.5C 83.5,162.5 83.5,163.5 83.5,164.5C 55.5,164.5 27.5,164.5 -0.5,164.5C -0.5,109.5 -0.5,54.5 -0.5,-0.5 Z"/></g>
<g><path style="opacity:1" fill="#25abdb" d="M 62.5,81.5 C 61.3285,82.3446 59.9952,83.0113 58.5,83.5C 56.8333,83.5 55.1667,83.5 53.5,83.5C 53.1917,73.0846 53.525,62.7513 54.5,52.5C 55.1667,51.5 55.8333,50.5 56.5,49.5C 58.8155,48.6404 61.1489,48.1404 63.5,48C 62.5205,50.7252 61.8538,53.5585 61.5,56.5C 62.4078,64.8053 62.7411,73.1386 62.5,81.5 Z"/></g>
<g><path style="opacity:1" fill="#e54555" d="M 38.5,79.5 C 39.3739,76.2107 40.0405,72.8774 40.5,69.5C 41.8291,64.1967 41.8291,58.8634 40.5,53.5C 42.4012,52.7691 44.4012,52.7691 46.5,53.5C 46.5,63.8333 46.5,74.1667 46.5,84.5C 43.8333,84.5 41.1667,84.5 38.5,84.5C 38.5,82.8333 38.5,81.1667 38.5,79.5 Z"/></g>
<g><path style="opacity:1" fill="#28301a" d="M 66.5,52.5 C 67.1667,52.5 67.5,52.1667 67.5,51.5C 68.625,52.3478 68.625,53.3478 67.5,54.5C 66.3516,58.9811 66.1849,63.6478 67,68.5C 67.9295,66.4547 69.4295,65.6213 71.5,66C 70.1008,68.7405 68.4341,71.2405 66.5,73.5C 65.0313,68.2838 64.3646,62.9505 64.5,57.5C 64.3367,55.1432 64.5034,52.8098 65,50.5C 65.2784,51.4158 65.7784,52.0825 66.5,52.5 Z"/></g>
<g><path style="opacity:1" fill="#beb07f" d="M 25.5,47.5 C 26.038,49.1172 26.3713,50.7839 26.5,52.5C 27.5,52.5 28.5,52.5 29.5,52.5C 27.6136,53.0652 25.9469,54.0652 24.5,55.5C 25,55.8333 25.5,56.1667 26,56.5C 27.3002,55.2927 28.8002,54.6261 30.5,54.5C 30.5,54.8333 30.5,55.1667 30.5,55.5C 31.1157,56.7978 31.1157,57.7978 30.5,58.5C 27.9455,57.612 25.2788,57.2786 22.5,57.5C 22.5191,59.0603 22.8524,60.5603 23.5,62C 22.8699,63.3102 21.8699,64.1435 20.5,64.5C 20.1192,61.4521 20.1192,58.4521 20.5,55.5C 18.1833,58.3174 15.6833,60.9841 13,63.5C 11.3164,68.0758 11.1497,72.7424 12.5,77.5C 11.8333,76.8333 11.1667,76.1667 10.5,75.5C 10.1062,74.0328 9.77282,72.5328 9.5,71C 10.5405,63.6399 14.0405,57.8066 20,53.5C 20.4955,51.5273 20.6621,49.5273 20.5,47.5C 22.1667,47.5 23.8333,47.5 25.5,47.5 Z"/></g>
<g><path style="opacity:1" fill="#573d29" d="M 30.5,58.5 C 29.4918,60.5439 28.4918,62.5439 27.5,64.5C 25.901,64.2322 24.5676,64.5655 23.5,65.5C 21.6064,66.0476 19.9397,67.0476 18.5,68.5C 18.1667,68.1667 17.8333,67.8333 17.5,67.5C 18.3398,66.265 19.3398,65.265 20.5,64.5C 21.8699,64.1435 22.8699,63.3102 23.5,62C 22.8524,60.5603 22.5191,59.0603 22.5,57.5C 25.2788,57.2786 27.9455,57.612 30.5,58.5 Z"/></g>
<g><path style="opacity:1" fill="#e6cba9" d="M 30.5,55.5 C 32.717,56.3686 35.0504,56.702 37.5,56.5C 37.5,56.8333 37.5,57.1667 37.5,57.5C 36.448,57.3505 35.448,57.5172 34.5,58C 36.1193,58.2355 37.1193,59.0689 37.5,60.5C 37.5,61.1667 37.1667,61.5 36.5,61.5C 35.197,63.1423 33.8637,64.8089 32.5,66.5C 31.4489,67.2223 30.7822,68.2223 30.5,69.5C 30.1667,69.5 29.8333,69.5 29.5,69.5C 26.4969,68.83 25.8303,67.1633 27.5,64.5C 28.4918,62.5439 29.4918,60.5439 30.5,58.5C 31.1157,57.7978 31.1157,56.7978 30.5,55.5 Z"/></g>
<g><path style="opacity:1" fill="#decc72" d="M 71.5,42.5 C 72.2948,46.7223 73.6282,50.889 75.5,55C 75.0426,55.414 74.7093,55.914 74.5,56.5C 75.5244,57.8518 76.5244,59.1851 77.5,60.5C 77.9896,63.6553 78.6562,66.6553 79.5,69.5C 78.759,71.3542 77.759,73.0209 76.5,74.5C 74.2806,73.4599 72.2806,73.9599 70.5,76C 72.2556,76.2022 73.9223,76.7022 75.5,77.5C 74.7666,78.087 73.7666,78.087 72.5,77.5C 70.1902,77.7583 68.1902,77.7583 66.5,77.5C 66.5,76.1667 66.5,74.8333 66.5,73.5C 68.4341,71.2405 70.1008,68.7405 71.5,66C 69.4295,65.6213 67.9295,66.4547 67,68.5C 66.1849,63.6478 66.3516,58.9811 67.5,54.5C 67.1866,57.2469 67.52,59.9135 68.5,62.5C 69.088,60.0891 70.2546,58.0891 72,56.5C 71.7737,51.8769 71.607,47.2102 71.5,42.5 Z"/></g>
<g><path style="opacity:1" fill="#b09581" d="M 36.5,61.5 C 37.0906,62.1515 37.7573,62.8182 38.5,63.5C 36.4476,65.3874 36.1142,67.3874 37.5,69.5C 38.6857,70.9613 38.6857,72.2946 37.5,73.5C 36.2508,70.9097 34.5841,68.5764 32.5,66.5C 33.8637,64.8089 35.197,63.1423 36.5,61.5 Z"/></g>
<g><path style="opacity:1" fill="#b4965b" d="M 20.5,64.5 C 19.3398,65.265 18.3398,66.265 17.5,67.5C 17.8333,67.8333 18.1667,68.1667 18.5,68.5C 19.9397,67.0476 21.6064,66.0476 23.5,65.5C 21.9539,67.8825 21.2872,70.5491 21.5,73.5C 21.573,75.0269 20.9063,76.0269 19.5,76.5C 21.2879,70.0263 19.6213,69.0263 14.5,73.5C 13.3847,71.5114 13.718,69.678 15.5,68C 14.8132,66.8382 14.6466,65.6716 15,64.5C 16.7755,63.4639 18.6089,63.4639 20.5,64.5 Z"/></g>
<g><path style="opacity:1" fill="#7f4944" d="M 27.5,64.5 C 25.8303,67.1633 26.4969,68.83 29.5,69.5C 28.0283,71.1343 26.3617,72.6343 24.5,74C 23.4232,74.4696 22.4232,74.3029 21.5,73.5C 21.2872,70.5491 21.9539,67.8825 23.5,65.5C 24.5676,64.5655 25.901,64.2322 27.5,64.5 Z"/></g>
<g><path style="opacity:1" fill="#6c4c3d" d="M 37.5,60.5 C 38.6491,60.7911 39.3158,61.6244 39.5,63C 39.1253,65.2886 38.4586,67.4553 37.5,69.5C 36.1142,67.3874 36.4476,65.3874 38.5,63.5C 37.7573,62.8182 37.0906,62.1515 36.5,61.5C 37.1667,61.5 37.5,61.1667 37.5,60.5 Z"/></g>
<g><path style="opacity:1" fill="#7f745a" d="M 78.5,56.5 C 80.4629,61.6684 82.1296,67.0017 83.5,72.5C 83.026,76.1569 81.6926,76.3236 79.5,73C 80.7911,71.7083 80.7911,70.5417 79.5,69.5C 78.6562,66.6553 77.9896,63.6553 77.5,60.5C 78.4345,59.4324 78.7678,58.099 78.5,56.5 Z"/></g>
<g><path style="opacity:1" fill="#3d211f" d="M 32.5,66.5 C 34.5841,68.5764 36.2508,70.9097 37.5,73.5C 35.6688,76.9981 34.3355,80.6647 33.5,84.5C 34.0204,79.1485 33.0204,74.1485 30.5,69.5C 30.7822,68.2223 31.4489,67.2223 32.5,66.5 Z"/></g>
<g><path style="opacity:1" fill="#742629" d="M 37.5,57.5 C 38.4959,57.4142 39.3292,57.7476 40,58.5C 40.2877,62.404 40.4543,66.0707 40.5,69.5C 40.0405,72.8774 39.3739,76.2107 38.5,79.5C 37.5386,81.2646 37.2053,83.2646 37.5,85.5C 36.7784,85.0825 36.2784,84.4158 36,83.5C 35.5831,84.756 34.7498,85.4226 33.5,85.5C 33.5,85.1667 33.5,84.8333 33.5,84.5C 34.3355,80.6647 35.6688,76.9981 37.5,73.5C 38.6857,72.2946 38.6857,70.9613 37.5,69.5C 38.4586,67.4553 39.1253,65.2886 39.5,63C 39.3158,61.6244 38.6491,60.7911 37.5,60.5C 37.1193,59.0689 36.1193,58.2355 34.5,58C 35.448,57.5172 36.448,57.3505 37.5,57.5 Z"/></g>
<g><path style="opacity:1" fill="#786756" d="M 50.5,79.5 C 50.2155,81.4147 50.5489,83.0813 51.5,84.5C 51.5,84.8333 51.5,85.1667 51.5,85.5C 50.2502,85.4226 49.4169,84.756 49,83.5C 48.5034,81.1902 48.3367,78.8568 48.5,76.5C 49.1174,76.3893 49.6174,76.056 50,75.5C 50.49,76.7932 50.6567,78.1266 50.5,79.5 Z"/></g>
<g><path style="opacity:1" fill="#292c21" d="M 29.5,69.5 C 29.8333,69.5 30.1667,69.5 30.5,69.5C 33.0204,74.1485 34.0204,79.1485 33.5,84.5C 33.5,84.8333 33.5,85.1667 33.5,85.5C 32.6805,82.6946 32.1805,79.6946 32,76.5C 31.4117,81.5276 31.5784,86.5276 32.5,91.5C 32.7947,93.7354 32.4614,95.7354 31.5,97.5C 30.0143,92.7056 29.1809,87.7056 29,82.5C 28.6667,84.1667 28.3333,85.8333 28,87.5C 27.8091,85.2922 27.3091,83.2922 26.5,81.5C 26.2942,79.4508 25.4609,79.1175 24,80.5C 23.5014,84.1516 23.3347,87.8183 23.5,91.5C 22.172,95.8031 22.172,100.136 23.5,104.5C 24.0016,105.521 24.6683,105.688 25.5,105C 26.7491,103.02 28.0824,101.187 29.5,99.5C 29.8333,99.5 30.1667,99.5 30.5,99.5C 28.9192,101.142 28.2525,103.142 28.5,105.5C 26.8657,106.972 25.3657,108.638 24,110.5C 23.7508,109.376 23.2508,108.376 22.5,107.5C 21.7025,107.957 21.3691,108.624 21.5,109.5C 20.6424,105.327 19.9758,100.993 19.5,96.5C 19.5,94.5 19.5,92.5 19.5,90.5C 19.5,85.8333 19.5,81.1667 19.5,76.5C 20.9063,76.0269 21.573,75.0269 21.5,73.5C 22.4232,74.3029 23.4232,74.4696 24.5,74C 26.3617,72.6343 28.0283,71.1343 29.5,69.5 Z"/></g>
<g><path style="opacity:1" fill="#dcd198" d="M 76.5,74.5 C 78.8994,76.6033 80.5661,79.27 81.5,82.5C 82.2965,86.7985 82.6299,91.1318 82.5,95.5C 82.6495,96.552 82.4828,97.552 82,98.5C 81.7679,97.2625 81.2679,96.2625 80.5,95.5C 80.8064,92.6146 80.4731,89.9479 79.5,87.5C 78.268,77.8587 76.9347,77.5254 75.5,86.5C 73.2971,83.8912 72.2971,80.8912 72.5,77.5C 73.7666,78.087 74.7666,78.087 75.5,77.5C 73.9223,76.7022 72.2556,76.2022 70.5,76C 72.2806,73.9599 74.2806,73.4599 76.5,74.5 Z"/></g>
<g><path style="opacity:1" fill="#1c282a" d="M 63.5,57.5 C 63.8333,57.5 64.1667,57.5 64.5,57.5C 64.3646,62.9505 65.0313,68.2838 66.5,73.5C 66.5,74.8333 66.5,76.1667 66.5,77.5C 67.1717,79.6687 67.1717,82.0021 66.5,84.5C 65.8333,84.1667 65.1667,83.8333 64.5,83.5C 61.0813,85.0867 57.4146,85.7533 53.5,85.5C 52.8333,85.5 52.1667,85.5 51.5,85.5C 51.5,85.1667 51.5,84.8333 51.5,84.5C 54.0593,84.8016 56.3926,84.4682 58.5,83.5C 59.9952,83.0113 61.3285,82.3446 62.5,81.5C 63.4924,73.6841 63.8257,65.6841 63.5,57.5 Z"/></g>
<g><path style="opacity:1" fill="#b54849" d="M 43.5,51.5 C 45.153,51.6596 46.4863,52.3263 47.5,53.5C 47.5,64.1667 47.5,74.8333 47.5,85.5C 44.4299,85.3677 41.4299,85.701 38.5,86.5C 38.5,85.8333 38.1667,85.5 37.5,85.5C 37.2053,83.2646 37.5386,81.2646 38.5,79.5C 38.5,81.1667 38.5,82.8333 38.5,84.5C 41.1667,84.5 43.8333,84.5 46.5,84.5C 46.5,74.1667 46.5,63.8333 46.5,53.5C 44.4012,52.7691 42.4012,52.7691 40.5,53.5C 41.8291,58.8634 41.8291,64.1967 40.5,69.5C 40.4543,66.0707 40.2877,62.404 40,58.5C 39.3292,57.7476 38.4959,57.4142 37.5,57.5C 37.5,57.1667 37.5,56.8333 37.5,56.5C 39.0358,54.9749 40.0358,52.9749 40.5,50.5C 41.4168,51.1272 42.4168,51.4606 43.5,51.5 Z"/></g>
<g><path style="opacity:1" fill="#5c8a99" d="M 54.5,52.5 C 53.525,62.7513 53.1917,73.0846 53.5,83.5C 55.1667,83.5 56.8333,83.5 58.5,83.5C 56.3926,84.4682 54.0593,84.8016 51.5,84.5C 50.5489,83.0813 50.2155,81.4147 50.5,79.5C 51.3296,71.0097 51.8296,62.343 52,53.5C 52.6708,52.7476 53.5041,52.4142 54.5,52.5 Z"/></g>
<g><path style="opacity:1" fill="#eedf7b" d="M 20.5,64.5 C 18.6089,63.4639 16.7755,63.4639 15,64.5C 14.6466,65.6716 14.8132,66.8382 15.5,68C 13.718,69.678 13.3847,71.5114 14.5,73.5C 19.6213,69.0263 21.2879,70.0263 19.5,76.5C 19.5,81.1667 19.5,85.8333 19.5,90.5C 17.8333,91.8333 16.1667,91.8333 14.5,90.5C 14.9783,86.056 14.3117,81.7226 12.5,77.5C 11.1497,72.7424 11.3164,68.0758 13,63.5C 15.6833,60.9841 18.1833,58.3174 20.5,55.5C 20.1192,58.4521 20.1192,61.4521 20.5,64.5 Z"/></g>
<g><path style="opacity:1" fill="#689489" d="M 26.5,81.5 C 26.6323,84.5701 26.299,87.5701 25.5,90.5C 24.8333,90.8333 24.1667,91.1667 23.5,91.5C 23.3347,87.8183 23.5014,84.1516 24,80.5C 25.4609,79.1175 26.2942,79.4508 26.5,81.5 Z"/></g>
<g><path style="opacity:1" fill="#aba57e" d="M 79.5,69.5 C 80.7911,70.5417 80.7911,71.7083 79.5,73C 81.6926,76.3236 83.026,76.1569 83.5,72.5C 84.9278,77.0882 85.5945,81.9215 85.5,87C 85.4978,90.0208 85.1644,92.8541 84.5,95.5C 84.6621,93.4727 84.4955,91.4727 84,89.5C 83.8091,91.7078 83.3091,93.7078 82.5,95.5C 82.6299,91.1318 82.2965,86.7985 81.5,82.5C 80.5661,79.27 78.8994,76.6033 76.5,74.5C 77.759,73.0209 78.759,71.3542 79.5,69.5 Z"/></g>
<g><path style="opacity:1" fill="#856c5b" d="M 33.5,85.5 C 34.7498,85.4226 35.5831,84.756 36,83.5C 36.2784,84.4158 36.7784,85.0825 37.5,85.5C 38.1667,85.5 38.5,85.8333 38.5,86.5C 37.7326,87.172 37.0659,88.0053 36.5,89C 36.8333,89.1667 37.1667,89.3333 37.5,89.5C 38.5237,88.1468 39.857,87.4802 41.5,87.5C 41.5,89.1667 41.5,90.8333 41.5,92.5C 38.4552,92.4921 35.4552,92.1587 32.5,91.5C 31.5784,86.5276 31.4117,81.5276 32,76.5C 32.1805,79.6946 32.6805,82.6946 33.5,85.5 Z"/></g>
<g><path style="opacity:1" fill="#8f775e" d="M 64.5,83.5 C 62.9127,86.1694 62.0794,89.1694 62,92.5C 60.9609,88.7771 59.7942,88.7771 58.5,92.5C 58.7529,90.1727 58.0863,88.1727 56.5,86.5C 54.5959,90.4436 53.5959,90.1103 53.5,85.5C 57.4146,85.7533 61.0813,85.0867 64.5,83.5 Z"/></g>
<g><path style="opacity:1" fill="#c59972" d="M 47.5,53.5 C 48.492,60.9818 48.8254,68.6484 48.5,76.5C 48.3367,78.8568 48.5034,81.1902 49,83.5C 49.4169,84.756 50.2502,85.4226 51.5,85.5C 52.1667,85.5 52.8333,85.5 53.5,85.5C 53.5959,90.1103 54.5959,90.4436 56.5,86.5C 58.0863,88.1727 58.7529,90.1727 58.5,92.5C 57.5084,92.3284 56.8417,92.6618 56.5,93.5C 51.3054,93.8205 46.3054,93.4872 41.5,92.5C 41.5,90.8333 41.5,89.1667 41.5,87.5C 39.857,87.4802 38.5237,88.1468 37.5,89.5C 37.1667,89.3333 36.8333,89.1667 36.5,89C 37.0659,88.0053 37.7326,87.172 38.5,86.5C 41.4299,85.701 44.4299,85.3677 47.5,85.5C 47.5,74.8333 47.5,64.1667 47.5,53.5 Z"/></g>
<g><path style="opacity:1" fill="#979285" d="M 66.5,77.5 C 68.1902,77.7583 70.1902,77.7583 72.5,77.5C 72.2971,80.8912 73.2971,83.8912 75.5,86.5C 76.9347,77.5254 78.268,77.8587 79.5,87.5C 77.6413,89.5729 75.308,90.9063 72.5,91.5C 71.548,90.467 71.548,89.3004 72.5,88C 71.8333,87 71.1667,86 70.5,85C 71.4589,82.8801 71.6256,80.7135 71,78.5C 70.1376,80.087 69.4709,81.7536 69,83.5C 68.5003,90.8258 68.3337,98.1591 68.5,105.5C 68.4893,109.464 69.4893,113.131 71.5,116.5C 70.1667,116.5 69.5,117.167 69.5,118.5C 68.086,116.956 67.7526,115.289 68.5,113.5C 67.846,111.885 67.346,110.218 67,108.5C 66.5003,101.174 66.3337,93.8409 66.5,86.5C 66.5,85.8333 66.5,85.1667 66.5,84.5C 67.1717,82.0021 67.1717,79.6687 66.5,77.5 Z"/></g>
<g><path style="opacity:1" fill="#d7c193" d="M 14.5,90.5 C 16.1667,91.8333 17.8333,91.8333 19.5,90.5C 19.5,92.5 19.5,94.5 19.5,96.5C 17.8235,95.8166 17.1568,94.4832 17.5,92.5C 15.8212,92.7148 14.8212,92.0481 14.5,90.5 Z"/></g>
<g><path style="opacity:1" fill="#3c7e5f" d="M 26.5,81.5 C 27.3091,83.2922 27.8091,85.2922 28,87.5C 28.3333,85.8333 28.6667,84.1667 29,82.5C 29.1809,87.7056 30.0143,92.7056 31.5,97.5C 31.1667,98.1667 30.8333,98.8333 30.5,99.5C 30.1667,99.5 29.8333,99.5 29.5,99.5C 28.5786,97.7313 27.4119,96.0646 26,94.5C 25.6667,94.8333 25.3333,95.1667 25,95.5C 24.6155,93.8034 24.7822,92.1368 25.5,90.5C 26.299,87.5701 26.6323,84.5701 26.5,81.5 Z"/></g>
<g><path style="opacity:1" fill="#212b20" d="M 79.5,87.5 C 80.4731,89.9479 80.8064,92.6146 80.5,95.5C 80.5,96.5 80.5,97.5 80.5,98.5C 79.2921,97.7659 77.9587,97.4326 76.5,97.5C 77.9889,101.23 77.8222,104.897 76,108.5C 75.6667,105.833 75.3333,103.167 75,100.5C 73.6439,99.6198 72.1439,99.2865 70.5,99.5C 69.8333,101.5 69.1667,103.5 68.5,105.5C 68.3337,98.1591 68.5003,90.8258 69,83.5C 69.4709,81.7536 70.1376,80.087 71,78.5C 71.6256,80.7135 71.4589,82.8801 70.5,85C 71.1667,86 71.8333,87 72.5,88C 71.548,89.3004 71.548,90.467 72.5,91.5C 75.308,90.9063 77.6413,89.5729 79.5,87.5 Z"/></g>
<g><path style="opacity:1" fill="#4e2521" d="M 32.5,91.5 C 35.4552,92.1587 38.4552,92.4921 41.5,92.5C 46.3054,93.4872 51.3054,93.8205 56.5,93.5C 54.369,94.3138 52.0356,94.8138 49.5,95C 50.4799,102.079 50.8132,109.245 50.5,116.5C 48.8235,115.817 48.1568,114.483 48.5,112.5C 49.7582,108.877 49.7582,105.21 48.5,101.5C 48.1667,101.667 47.8333,101.833 47.5,102C 45.7077,107.929 43.541,113.762 41,119.5C 38.6194,120.435 36.1194,120.768 33.5,120.5C 33.5,120.167 33.5,119.833 33.5,119.5C 36.3252,119.838 38.4918,118.838 40,116.5C 42.0806,112.052 43.2473,107.385 43.5,102.5C 46.2488,100.084 45.9154,97.9171 42.5,96C 39.5184,95.502 36.5184,95.3354 33.5,95.5C 33.5,96.5 33.5,97.5 33.5,98.5C 31.5523,102.344 31.5523,106.177 33.5,110C 32.6721,110.915 31.6721,111.581 30.5,112C 31.4061,113.699 31.7394,115.533 31.5,117.5C 30.8333,116.5 30.1667,115.5 29.5,114.5C 29.81,111.287 29.4767,108.287 28.5,105.5C 28.2525,103.142 28.9192,101.142 30.5,99.5C 30.8333,98.8333 31.1667,98.1667 31.5,97.5C 32.4614,95.7354 32.7947,93.7354 32.5,91.5 Z"/></g>
<g><path style="opacity:1" fill="#452620" d="M 64.5,83.5 C 65.1667,83.8333 65.8333,84.1667 66.5,84.5C 66.5,85.1667 66.5,85.8333 66.5,86.5C 65.2827,96.7462 63.7827,107.08 62,117.5C 61.4115,119.863 59.9115,120.863 57.5,120.5C 57.5,120.167 57.5,119.833 57.5,119.5C 58.4916,119.672 59.1583,119.338 59.5,118.5C 60.7249,113.71 61.3916,108.71 61.5,103.5C 63.5557,98.5046 61.889,95.1713 56.5,93.5C 56.8417,92.6618 57.5084,92.3284 58.5,92.5C 59.7942,88.7771 60.9609,88.7771 62,92.5C 62.0794,89.1694 62.9127,86.1694 64.5,83.5 Z"/></g>
<g><path style="opacity:1" fill="#4a997c" d="M 25.5,90.5 C 24.7822,92.1368 24.6155,93.8034 25,95.5C 25.3333,95.1667 25.6667,94.8333 26,94.5C 27.4119,96.0646 28.5786,97.7313 29.5,99.5C 28.0824,101.187 26.7491,103.02 25.5,105C 24.6683,105.688 24.0016,105.521 23.5,104.5C 22.172,100.136 22.172,95.8031 23.5,91.5C 24.1667,91.1667 24.8333,90.8333 25.5,90.5 Z"/></g>
<g><path style="opacity:1" fill="#ca4b5c" d="M 43.5,102.5 C 43.2473,107.385 42.0806,112.052 40,116.5C 38.4918,118.838 36.3252,119.838 33.5,119.5C 32.8333,119.5 32.1667,119.5 31.5,119.5C 31.5,118.833 31.5,118.167 31.5,117.5C 31.7394,115.533 31.4061,113.699 30.5,112C 31.6721,111.581 32.6721,110.915 33.5,110C 31.5523,106.177 31.5523,102.344 33.5,98.5C 35.1261,96.7568 37.1261,96.2568 39.5,97C 41.7458,98.2568 43.0791,100.09 43.5,102.5 Z"/></g>
<g><path style="opacity:1" fill="#7b2d35" d="M 43.5,102.5 C 43.0791,100.09 41.7458,98.2568 39.5,97C 37.1261,96.2568 35.1261,96.7568 33.5,98.5C 33.5,97.5 33.5,96.5 33.5,95.5C 36.5184,95.3354 39.5184,95.502 42.5,96C 45.9154,97.9171 46.2488,100.084 43.5,102.5 Z"/></g>
<g><path style="opacity:1" fill="#752f34" d="M 56.5,93.5 C 61.889,95.1713 63.5557,98.5046 61.5,103.5C 61.9465,100.99 61.2798,98.9899 59.5,97.5C 57.0521,96.5269 54.3854,96.1936 51.5,96.5C 51.2743,103.876 51.6076,111.209 52.5,118.5C 54.8333,118.5 57.1667,118.5 59.5,118.5C 59.1583,119.338 58.4916,119.672 57.5,119.5C 55.8333,119.5 54.1667,119.5 52.5,119.5C 52.1667,119.5 51.8333,119.5 51.5,119.5C 51.4431,118.391 51.1098,117.391 50.5,116.5C 50.8132,109.245 50.4799,102.079 49.5,95C 52.0356,94.8138 54.369,94.3138 56.5,93.5 Z"/></g>
<g><path style="opacity:1" fill="#ea3f58" d="M 34.5,99.5 C 36.8056,99.9926 39.139,100.326 41.5,100.5C 41.9981,106.526 40.6647,112.026 37.5,117C 35.7412,117.798 34.0745,117.631 32.5,116.5C 33.5921,114.817 34.2587,112.984 34.5,111C 33.3644,107.173 33.3644,103.339 34.5,99.5 Z"/></g>
<g><path style="opacity:1" fill="#7d8277" d="M 84.5,95.5 C 83.8077,100.511 82.9744,105.511 82,110.5C 81.1392,113.368 79.4725,115.702 77,117.5C 76.51,118.793 76.3433,120.127 76.5,121.5C 75.8333,121.5 75.1667,121.5 74.5,121.5C 73.5272,119.851 72.5272,118.184 71.5,116.5C 71.8333,116.5 72.1667,116.5 72.5,116.5C 73.4232,117.303 74.4232,117.47 75.5,117C 79.1357,111.453 80.8024,105.287 80.5,98.5C 80.5,97.5 80.5,96.5 80.5,95.5C 81.2679,96.2625 81.7679,97.2625 82,98.5C 82.4828,97.552 82.6495,96.552 82.5,95.5C 83.3091,93.7078 83.8091,91.7078 84,89.5C 84.4955,91.4727 84.6621,93.4727 84.5,95.5 Z"/></g>
<g><path style="opacity:1" fill="#578870" d="M 80.5,98.5 C 80.8024,105.287 79.1357,111.453 75.5,117C 74.4232,117.47 73.4232,117.303 72.5,116.5C 70.7897,110.989 70.123,105.323 70.5,99.5C 72.1439,99.2865 73.6439,99.6198 75,100.5C 75.3333,103.167 75.6667,105.833 76,108.5C 77.8222,104.897 77.9889,101.23 76.5,97.5C 77.9587,97.4326 79.2921,97.7659 80.5,98.5 Z"/></g>
<g><path style="opacity:1" fill="#46a37c" d="M 71.5,101.5 C 72.5,101.5 73.5,101.5 74.5,101.5C 74.3347,105.182 74.5014,108.848 75,112.5C 77.0328,111.984 77.0328,112.65 75,114.5C 72.1378,110.657 70.9711,106.324 71.5,101.5 Z"/></g>
<g><path style="opacity:1" fill="#211b1a" d="M 48.5,112.5 C 46.4155,114.333 44.4155,116.333 42.5,118.5C 43.0219,119.607 43.3552,120.774 43.5,122C 42.6216,123.8 41.955,125.633 41.5,127.5C 40.8333,126.167 40.1667,124.833 39.5,123.5C 37.8439,121.94 35.8439,120.94 33.5,120.5C 36.1194,120.768 38.6194,120.435 41,119.5C 43.541,113.762 45.7077,107.929 47.5,102C 47.8333,101.833 48.1667,101.667 48.5,101.5C 49.7582,105.21 49.7582,108.877 48.5,112.5 Z"/></g>
<g><path style="opacity:1" fill="#e43f55" d="M 59.5,97.5 C 61.2798,98.9899 61.9465,100.99 61.5,103.5C 59.7131,105.474 58.7131,107.974 58.5,111C 59.2865,113.099 59.6199,115.266 59.5,117.5C 57.8333,117.5 56.1667,117.5 54.5,117.5C 53.7243,110.863 53.391,104.196 53.5,97.5C 55.5,97.5 57.5,97.5 59.5,97.5 Z"/></g>
<g><path style="opacity:1" fill="#284735" d="M 70.5,99.5 C 70.123,105.323 70.7897,110.989 72.5,116.5C 72.1667,116.5 71.8333,116.5 71.5,116.5C 69.4893,113.131 68.4893,109.464 68.5,105.5C 69.1667,103.5 69.8333,101.5 70.5,99.5 Z"/></g>
<g><path style="opacity:1" fill="#776f5c" d="M 10.5,75.5 C 11.1667,76.1667 11.8333,76.8333 12.5,77.5C 14.3117,81.7226 14.9783,86.056 14.5,90.5C 14.8212,92.0481 15.8212,92.7148 17.5,92.5C 17.1568,94.4832 17.8235,95.8166 19.5,96.5C 19.9758,100.993 20.6424,105.327 21.5,109.5C 21.5,112.167 21.5,114.833 21.5,117.5C 21.5,117.833 21.5,118.167 21.5,118.5C 20.1667,125.5 20.1667,132.5 21.5,139.5C 21.5,140.167 21.8333,140.5 22.5,140.5C 21.3713,144.193 19.3713,147.193 16.5,149.5C 18.6478,134.277 19.4811,118.944 19,103.5C 17.185,99.2042 14.8517,95.2042 12,91.5C 11.3744,89.2865 11.5411,87.1199 12.5,85C 10.9217,82.0316 10.255,78.8649 10.5,75.5 Z"/></g>
<g><path style="opacity:1" fill="#c34e5e" d="M 59.5,97.5 C 57.5,97.5 55.5,97.5 53.5,97.5C 53.391,104.196 53.7243,110.863 54.5,117.5C 56.1667,117.5 57.8333,117.5 59.5,117.5C 59.6199,115.266 59.2865,113.099 58.5,111C 58.7131,107.974 59.7131,105.474 61.5,103.5C 61.3916,108.71 60.7249,113.71 59.5,118.5C 57.1667,118.5 54.8333,118.5 52.5,118.5C 51.6076,111.209 51.2743,103.876 51.5,96.5C 54.3854,96.1936 57.0521,96.5269 59.5,97.5 Z"/></g>
<g><path style="opacity:1" fill="#e3de90" d="M 24.5,116.5 C 25.0421,120.544 24.2088,124.211 22,127.5C 21.502,124.518 21.3354,121.518 21.5,118.5C 21.5,118.167 21.5,117.833 21.5,117.5C 22.3019,116.048 22.8019,114.382 23,112.5C 23.7914,113.745 24.2914,115.078 24.5,116.5 Z"/></g>
<g><path style="opacity:1" fill="#16202c" d="M 48.5,112.5 C 48.1568,114.483 48.8235,115.817 50.5,116.5C 51.1098,117.391 51.4431,118.391 51.5,119.5C 50.2106,117.752 48.7106,117.419 47,118.5C 45.1887,126.41 44.022,134.41 43.5,142.5C 42.5,142.5 41.5,142.5 40.5,142.5C 42.0417,138.209 43.0417,133.709 43.5,129C 43.1639,127.97 42.4972,127.47 41.5,127.5C 41.955,125.633 42.6216,123.8 43.5,122C 43.3552,120.774 43.0219,119.607 42.5,118.5C 44.4155,116.333 46.4155,114.333 48.5,112.5 Z"/></g>
<g><path style="opacity:1" fill="#3a4430" d="M 52.5,119.5 C 54.1667,119.5 55.8333,119.5 57.5,119.5C 57.5,119.833 57.5,120.167 57.5,120.5C 58.3007,122.042 58.634,123.708 58.5,125.5C 57.596,124.791 57.2627,123.791 57.5,122.5C 56.0413,122.567 54.7079,122.234 53.5,121.5C 53.1667,120.833 52.8333,120.167 52.5,119.5 Z"/></g>
<g><path style="opacity:1" fill="#bba77d" d="M 28.5,105.5 C 29.4767,108.287 29.81,111.287 29.5,114.5C 29.3916,119.71 28.7249,124.71 27.5,129.5C 28.0017,123.495 28.1683,117.495 28,111.5C 27.2086,112.745 26.7086,114.078 26.5,115.5C 25.8333,115.833 25.1667,116.167 24.5,116.5C 24.2914,115.078 23.7914,113.745 23,112.5C 22.8019,114.382 22.3019,116.048 21.5,117.5C 21.5,114.833 21.5,112.167 21.5,109.5C 21.3691,108.624 21.7025,107.957 22.5,107.5C 23.2508,108.376 23.7508,109.376 24,110.5C 25.3657,108.638 26.8657,106.972 28.5,105.5 Z"/></g>
<g><path style="opacity:1" fill="#191e21" d="M 66.5,86.5 C 66.3337,93.8409 66.5003,101.174 67,108.5C 67.346,110.218 67.846,111.885 68.5,113.5C 67.7526,115.289 68.086,116.956 69.5,118.5C 69.5,120.5 69.5,122.5 69.5,124.5C 69.1667,125.833 68.8333,127.167 68.5,128.5C 67.0532,127.866 66.3866,126.699 66.5,125C 67.5672,122.131 67.5672,119.297 66.5,116.5C 64.8406,123.394 64.174,130.394 64.5,137.5C 64.5,138.167 64.5,138.833 64.5,139.5C 63.5416,139.953 62.7083,140.619 62,141.5C 61.0467,144.432 60.5467,147.432 60.5,150.5C 59.1999,148.777 58.5332,146.61 58.5,144C 59.5003,137.665 59.5003,131.498 58.5,125.5C 58.634,123.708 58.3007,122.042 57.5,120.5C 59.9115,120.863 61.4115,119.863 62,117.5C 63.7827,107.08 65.2827,96.7462 66.5,86.5 Z"/></g>
<g><path style="opacity:1" fill="#cfc78d" d="M 71.5,116.5 C 72.5272,118.184 73.5272,119.851 74.5,121.5C 74.3793,127.631 75.046,133.631 76.5,139.5C 76.7373,140.791 76.404,141.791 75.5,142.5C 72.8714,136.614 70.8714,130.614 69.5,124.5C 69.5,122.5 69.5,120.5 69.5,118.5C 69.5,117.167 70.1667,116.5 71.5,116.5 Z"/></g>
<g><path style="opacity:1" fill="#325663" d="M 68.5,128.5 C 68.6567,129.873 68.49,131.207 68,132.5C 66.317,133.887 65.1504,135.553 64.5,137.5C 64.174,130.394 64.8406,123.394 66.5,116.5C 67.5672,119.297 67.5672,122.131 66.5,125C 66.3866,126.699 67.0532,127.866 68.5,128.5 Z"/></g>
<g><path style="opacity:1" fill="#133d2b" d="M 39.5,123.5 C 40.1667,124.833 40.8333,126.167 41.5,127.5C 39.3208,131.664 37.6542,135.998 36.5,140.5C 36.5,136.5 36.5,132.5 36.5,128.5C 37.29,129.609 37.79,130.942 38,132.5C 39.3919,129.722 39.8919,126.722 39.5,123.5 Z"/></g>
<g><path style="opacity:1" fill="#5f5535" d="M 74.5,121.5 C 75.1667,121.5 75.8333,121.5 76.5,121.5C 76.244,125.269 76.5773,128.936 77.5,132.5C 77.8016,135.059 77.4682,137.393 76.5,139.5C 75.046,133.631 74.3793,127.631 74.5,121.5 Z"/></g>
<g><path style="opacity:1" fill="#1c413d" d="M 51.5,125.5 C 53.7142,126.392 54.7142,128.058 54.5,130.5C 53.7035,134.798 53.3701,139.132 53.5,143.5C 52.6846,138.45 51.3512,133.45 49.5,128.5C 49.5,128.167 49.5,127.833 49.5,127.5C 48.7822,125.863 48.6155,124.197 49,122.5C 49.3768,123.942 50.2101,124.942 51.5,125.5 Z"/></g>
<g><path style="opacity:1" fill="#e0d5a6" d="M 27.5,129.5 C 27.5,130.167 27.5,130.833 27.5,131.5C 27.1511,135.18 25.4845,138.18 22.5,140.5C 21.8333,140.5 21.5,140.167 21.5,139.5C 24.9517,131.91 26.6183,123.91 26.5,115.5C 26.7086,114.078 27.2086,112.745 28,111.5C 28.1683,117.495 28.0017,123.495 27.5,129.5 Z"/></g>
<g><path style="opacity:1" fill="#1e2921" d="M 29.5,114.5 C 30.1667,115.5 30.8333,116.5 31.5,117.5C 31.5,118.167 31.5,118.833 31.5,119.5C 32.1377,128.895 31.4711,137.895 29.5,146.5C 29.5,143.167 29.5,139.833 29.5,136.5C 28.032,135.221 27.3653,133.554 27.5,131.5C 27.5,130.833 27.5,130.167 27.5,129.5C 28.7249,124.71 29.3916,119.71 29.5,114.5 Z"/></g>
<g><path style="opacity:1" fill="#458d72" d="M 31.5,119.5 C 32.1667,119.5 32.8333,119.5 33.5,119.5C 33.5,119.833 33.5,120.167 33.5,120.5C 35.8439,120.94 37.8439,121.94 39.5,123.5C 39.8919,126.722 39.3919,129.722 38,132.5C 37.79,130.942 37.29,129.609 36.5,128.5C 36.5,132.5 36.5,136.5 36.5,140.5C 36.5,143.167 36.5,145.833 36.5,148.5C 34.4101,150.11 32.0767,151.443 29.5,152.5C 28.4324,151.566 27.099,151.232 25.5,151.5C 25.5,150.5 25.5,149.5 25.5,148.5C 27.7543,151.004 29.0876,150.337 29.5,146.5C 31.4711,137.895 32.1377,128.895 31.5,119.5 Z"/></g>
<g><path style="opacity:1" fill="#90885d" d="M 26.5,115.5 C 26.6183,123.91 24.9517,131.91 21.5,139.5C 20.1667,132.5 20.1667,125.5 21.5,118.5C 21.3354,121.518 21.502,124.518 22,127.5C 24.2088,124.211 25.0421,120.544 24.5,116.5C 25.1667,116.167 25.8333,115.833 26.5,115.5 Z"/></g>
<g><path style="opacity:1" fill="#3a99b0" d="M 49.5,128.5 C 51.3512,133.45 52.6846,138.45 53.5,143.5C 53.5,145.167 53.5,146.833 53.5,148.5C 50.2869,148.81 47.2869,148.477 44.5,147.5C 44.5,147.167 44.5,146.833 44.5,146.5C 46.3792,145.659 48.3792,145.325 50.5,145.5C 50.9651,141.208 50.1318,137.208 48,133.5C 47.3457,134.696 46.8457,134.696 46.5,133.5C 47.7934,131.897 48.7934,130.231 49.5,128.5 Z"/></g>
<g><path style="opacity:1" fill="#3fa77c" d="M 36.5,128.5 C 35.3909,130.586 34.7243,132.92 34.5,135.5C 36.3271,139.919 35.8271,143.919 33,147.5C 32.3333,139.833 32.3333,132.167 33,124.5C 34.3561,123.62 35.8561,123.286 37.5,123.5C 37.634,125.292 37.3007,126.958 36.5,128.5 Z"/></g>
<g><path style="opacity:1" fill="#304038" d="M 58.5,125.5 C 59.5003,131.498 59.5003,137.665 58.5,144C 58.5332,146.61 59.1999,148.777 60.5,150.5C 62.5,150.833 64.5,151.167 66.5,151.5C 67.2905,152.401 68.2905,153.068 69.5,153.5C 71.4634,154.531 72.7967,155.531 73.5,156.5C 72.0413,156.433 70.7079,156.766 69.5,157.5C 69.1667,156.5 68.5,155.833 67.5,155.5C 66.2511,153.864 64.5844,152.697 62.5,152C 59.4133,151.741 56.4133,151.241 53.5,150.5C 53.5,150.167 53.5,149.833 53.5,149.5C 54.5832,149.539 55.5832,149.873 56.5,150.5C 57.6089,142.2 58.2755,133.867 58.5,125.5 Z"/></g>
<g><path style="opacity:1" fill="#4e9774" d="M 53.5,121.5 C 54.7079,122.234 56.0413,122.567 57.5,122.5C 57.2627,123.791 57.596,124.791 58.5,125.5C 58.2755,133.867 57.6089,142.2 56.5,150.5C 55.5832,149.873 54.5832,149.539 53.5,149.5C 53.5,149.167 53.5,148.833 53.5,148.5C 53.5,146.833 53.5,145.167 53.5,143.5C 53.3701,139.132 53.7035,134.798 54.5,130.5C 54.7142,128.058 53.7142,126.392 51.5,125.5C 51.1568,123.517 51.8235,122.183 53.5,121.5 Z"/></g>
<g><path style="opacity:1" fill="#26393d" d="M 27.5,131.5 C 27.3653,133.554 28.032,135.221 29.5,136.5C 28.5041,136.414 27.6708,136.748 27,137.5C 26.0695,140.362 24.4029,142.695 22,144.5C 21.3691,147.393 20.5358,150.226 19.5,153C 19.6387,154.301 20.3054,155.134 21.5,155.5C 21.5,155.833 21.5,156.167 21.5,156.5C 18.9179,156.975 16.9179,156.308 15.5,154.5C 16.038,152.883 16.3713,151.216 16.5,149.5C 19.3713,147.193 21.3713,144.193 22.5,140.5C 25.4845,138.18 27.1511,135.18 27.5,131.5 Z"/></g>
<g><path style="opacity:1" fill="#2698c2" d="M 49.5,127.5 C 49.5,127.833 49.5,128.167 49.5,128.5C 48.7934,130.231 47.7934,131.897 46.5,133.5C 46.8457,134.696 47.3457,134.696 48,133.5C 50.1318,137.208 50.9651,141.208 50.5,145.5C 48.3792,145.325 46.3792,145.659 44.5,146.5C 44.3374,142.293 44.6707,138.126 45.5,134C 46.2525,131.299 47.5859,129.132 49.5,127.5 Z"/></g>
<g><path style="opacity:1" fill="#305b6d" d="M 51.5,119.5 C 51.8333,119.5 52.1667,119.5 52.5,119.5C 52.8333,120.167 53.1667,120.833 53.5,121.5C 51.8235,122.183 51.1568,123.517 51.5,125.5C 50.2101,124.942 49.3768,123.942 49,122.5C 48.6155,124.197 48.7822,125.863 49.5,127.5C 47.5859,129.132 46.2525,131.299 45.5,134C 44.6707,138.126 44.3374,142.293 44.5,146.5C 44.5,146.833 44.5,147.167 44.5,147.5C 42.4727,147.662 40.4727,147.495 38.5,147C 40.0368,145.89 40.7035,144.39 40.5,142.5C 41.5,142.5 42.5,142.5 43.5,142.5C 44.022,134.41 45.1887,126.41 47,118.5C 48.7106,117.419 50.2106,117.752 51.5,119.5 Z"/></g>
<g><path style="opacity:1" fill="#14201d" d="M 41.5,127.5 C 42.4972,127.47 43.1639,127.97 43.5,129C 43.0417,133.709 42.0417,138.209 40.5,142.5C 40.7035,144.39 40.0368,145.89 38.5,147C 40.4727,147.495 42.4727,147.662 44.5,147.5C 47.2869,148.477 50.2869,148.81 53.5,148.5C 53.5,148.833 53.5,149.167 53.5,149.5C 53.5,149.833 53.5,150.167 53.5,150.5C 52.8333,150.5 52.1667,150.5 51.5,150.5C 47.1434,150.414 42.81,150.08 38.5,149.5C 38.1583,148.662 37.4916,148.328 36.5,148.5C 36.5,145.833 36.5,143.167 36.5,140.5C 37.6542,135.998 39.3208,131.664 41.5,127.5 Z"/></g>
<g><path style="opacity:1" fill="#39a6ce" d="M 68.5,128.5 C 69.2216,128.918 69.7216,129.584 70,130.5C 70.3333,133.5 70.6667,136.5 71,139.5C 73.536,141.962 75.036,144.962 75.5,148.5C 75.1543,149.696 74.6543,149.696 74,148.5C 73.9219,150.657 73.7552,152.657 73.5,154.5C 72.2638,153.754 70.9305,153.421 69.5,153.5C 68.2905,153.068 67.2905,152.401 66.5,151.5C 65.2196,150.069 63.5529,149.402 61.5,149.5C 62.8453,146.297 63.8453,142.964 64.5,139.5C 64.5,138.833 64.5,138.167 64.5,137.5C 65.1504,135.553 66.317,133.887 68,132.5C 68.49,131.207 68.6567,129.873 68.5,128.5 Z"/></g>
<g><path style="opacity:1" fill="#6c625e" d="M 77.5,132.5 C 77.9451,138.609 79.2784,144.609 81.5,150.5C 77.6311,149.291 75.6311,146.624 75.5,142.5C 76.404,141.791 76.7373,140.791 76.5,139.5C 77.4682,137.393 77.8016,135.059 77.5,132.5 Z"/></g>
<g><path style="opacity:1" fill="#2a5269" d="M 64.5,139.5 C 63.8453,142.964 62.8453,146.297 61.5,149.5C 63.5529,149.402 65.2196,150.069 66.5,151.5C 64.5,151.167 62.5,150.833 60.5,150.5C 60.5467,147.432 61.0467,144.432 62,141.5C 62.7083,140.619 63.5416,139.953 64.5,139.5 Z"/></g>
<g><path style="opacity:1" fill="#43656f" d="M 69.5,124.5 C 70.8714,130.614 72.8714,136.614 75.5,142.5C 75.6311,146.624 77.6311,149.291 81.5,150.5C 83.5475,152.55 85.2141,154.883 86.5,157.5C 85.2502,157.577 84.4169,158.244 84,159.5C 80.3385,158.76 76.8385,157.76 73.5,156.5C 72.7967,155.531 71.4634,154.531 69.5,153.5C 70.9305,153.421 72.2638,153.754 73.5,154.5C 73.7552,152.657 73.9219,150.657 74,148.5C 74.6543,149.696 75.1543,149.696 75.5,148.5C 75.036,144.962 73.536,141.962 71,139.5C 70.6667,136.5 70.3333,133.5 70,130.5C 69.7216,129.584 69.2216,128.918 68.5,128.5C 68.8333,127.167 69.1667,125.833 69.5,124.5 Z"/></g>
<g><path style="opacity:1" fill="#528eab" d="M 29.5,136.5 C 29.5,139.833 29.5,143.167 29.5,146.5C 29.0876,150.337 27.7543,151.004 25.5,148.5C 23.4551,149.923 22.4551,151.923 22.5,154.5C 22.5,155.167 22.1667,155.5 21.5,155.5C 20.3054,155.134 19.6387,154.301 19.5,153C 20.5358,150.226 21.3691,147.393 22,144.5C 24.4029,142.695 26.0695,140.362 27,137.5C 27.6708,136.748 28.5041,136.414 29.5,136.5 Z"/></g>
<g><path style="opacity:1" fill="#30201c" d="M 38.5,149.5 C 42.81,150.08 47.1434,150.414 51.5,150.5C 51.5,151.167 51.5,151.833 51.5,152.5C 47.688,153.026 44.0213,153.693 40.5,154.5C 39.8333,154.5 39.1667,154.5 38.5,154.5C 38.5,152.833 38.5,151.167 38.5,149.5 Z"/></g>
<g><path style="opacity:1" fill="#20262a" d="M 25.5,148.5 C 25.5,149.5 25.5,150.5 25.5,151.5C 27.099,151.232 28.4324,151.566 29.5,152.5C 27.2854,153.268 24.9521,153.935 22.5,154.5C 22.4551,151.923 23.4551,149.923 25.5,148.5 Z"/></g>
<g><path style="opacity:1" fill="#99474b" d="M 51.5,150.5 C 52.1667,150.5 52.8333,150.5 53.5,150.5C 56.4133,151.241 59.4133,151.741 62.5,152C 64.5844,152.697 66.2511,153.864 67.5,155.5C 64.5,156.833 61.5,156.833 58.5,155.5C 55.8561,157.034 53.5228,156.701 51.5,154.5C 51.5,153.833 51.5,153.167 51.5,152.5C 51.5,151.833 51.5,151.167 51.5,150.5 Z"/></g>
<g><path style="opacity:1" fill="#47a1ba" d="M 76.5,151.5 C 79.4905,151.33 81.4905,152.663 82.5,155.5C 78.1614,157.574 76.1614,156.241 76.5,151.5 Z"/></g>
<g><path style="opacity:1" fill="#965157" d="M 36.5,148.5 C 37.4916,148.328 38.1583,148.662 38.5,149.5C 38.5,151.167 38.5,152.833 38.5,154.5C 36.6792,155.117 34.6792,155.284 32.5,155C 29.743,156.586 27.0763,158.086 24.5,159.5C 23.5,159.5 22.5,159.5 21.5,159.5C 21.5,158.5 21.5,157.5 21.5,156.5C 21.5,156.167 21.5,155.833 21.5,155.5C 22.1667,155.5 22.5,155.167 22.5,154.5C 24.9521,153.935 27.2854,153.268 29.5,152.5C 32.0767,151.443 34.4101,150.11 36.5,148.5 Z"/></g>
<g><path style="opacity:1" fill="#81786b" d="M 51.5,152.5 C 51.5,153.167 51.5,153.833 51.5,154.5C 49.396,154.201 47.396,154.534 45.5,155.5C 43.8794,156.695 42.2128,157.695 40.5,158.5C 39.0331,159.292 37.6998,159.292 36.5,158.5C 38.188,157.479 39.5213,156.145 40.5,154.5C 44.0213,153.693 47.688,153.026 51.5,152.5 Z"/></g>
<g><path style="opacity:1" fill="#a8a399" d="M 14.5,155.5 C 14.5394,156.583 14.8728,157.583 15.5,158.5C 14.0065,159.141 13.0065,160.141 12.5,161.5C 11.5386,159.735 11.2053,157.735 11.5,155.5C 12.5,155.5 13.5,155.5 14.5,155.5 Z"/></g>
<g><path style="opacity:1" fill="#6d3e3f" d="M 58.5,155.5 C 61.5,156.833 64.5,156.833 67.5,155.5C 68.5,155.833 69.1667,156.5 69.5,157.5C 69.0296,158.693 68.0296,159.36 66.5,159.5C 63.9885,158.345 61.3219,157.678 58.5,157.5C 58.5,156.833 58.5,156.167 58.5,155.5 Z"/></g>
<g><path style="opacity:1" fill="#887f78" d="M 15.5,154.5 C 16.9179,156.308 18.9179,156.975 21.5,156.5C 21.5,157.5 21.5,158.5 21.5,159.5C 22.5,159.5 23.5,159.5 24.5,159.5C 27.0661,159.656 29.5661,159.322 32,158.5C 34.595,160.146 37.4284,160.813 40.5,160.5C 41.8333,160.5 43.1667,160.5 44.5,160.5C 44.3505,159.448 44.5172,158.448 45,157.5C 47.4699,159.487 50.3033,159.987 53.5,159C 51.5,158.167 49.5,157.333 47.5,156.5C 48.9492,155.828 50.2825,155.161 51.5,154.5C 53.5228,156.701 55.8561,157.034 58.5,155.5C 58.5,156.167 58.5,156.833 58.5,157.5C 57.5,157.5 56.5,157.5 55.5,157.5C 55.4326,158.959 55.7659,160.292 56.5,161.5C 41.8333,161.5 27.1667,161.5 12.5,161.5C 13.0065,160.141 14.0065,159.141 15.5,158.5C 14.8728,157.583 14.5394,156.583 14.5,155.5C 14.5,154.833 14.8333,154.5 15.5,154.5 Z"/></g>
<g><path style="opacity:1" fill="#534840" d="M 38.5,154.5 C 39.1667,154.5 39.8333,154.5 40.5,154.5C 39.5213,156.145 38.188,157.479 36.5,158.5C 37.6998,159.292 39.0331,159.292 40.5,158.5C 40.5,159.167 40.5,159.833 40.5,160.5C 37.4284,160.813 34.595,160.146 32,158.5C 29.5661,159.322 27.0661,159.656 24.5,159.5C 27.0763,158.086 29.743,156.586 32.5,155C 34.6792,155.284 36.6792,155.117 38.5,154.5 Z"/></g>
<g><path style="opacity:1" fill="#af9f96" d="M 51.5,154.5 C 50.2825,155.161 48.9492,155.828 47.5,156.5C 49.5,157.333 51.5,158.167 53.5,159C 50.3033,159.987 47.4699,159.487 45,157.5C 44.5172,158.448 44.3505,159.448 44.5,160.5C 43.1667,160.5 41.8333,160.5 40.5,160.5C 40.5,159.833 40.5,159.167 40.5,158.5C 42.2128,157.695 43.8794,156.695 45.5,155.5C 47.396,154.534 49.396,154.201 51.5,154.5 Z"/></g>
<g><path style="opacity:1" fill="#94948c" d="M 73.5,156.5 C 76.8385,157.76 80.3385,158.76 84,159.5C 84.4169,158.244 85.2502,157.577 86.5,157.5C 87.2891,157.783 87.9558,158.283 88.5,159C 87.3826,160.892 85.7159,161.725 83.5,161.5C 74.5,161.5 65.5,161.5 56.5,161.5C 55.7659,160.292 55.4326,158.959 55.5,157.5C 56.5,157.5 57.5,157.5 58.5,157.5C 61.3219,157.678 63.9885,158.345 66.5,159.5C 68.0296,159.36 69.0296,158.693 69.5,157.5C 70.7079,156.766 72.0413,156.433 73.5,156.5 Z"/></g>
</svg>
