<?xml version="1.0" encoding="UTF-8"?>
<!DOCTYPE svg PUBLIC "-//W3C//DTD SVG 1.1//EN" "http://www.w3.org/Graphics/SVG/1.1/DTD/svg11.dtd">
<svg xmlns="http://www.w3.org/2000/svg" version="1.1" width="100px" height="165px" style="shape-rendering:geometricPrecision; text-rendering:geometricPrecision; image-rendering:optimizeQuality; fill-rule:evenodd; clip-rule:evenodd" xmlns:xlink="http://www.w3.org/1999/xlink">
<g><path style="opacity:1" fill="#fafbfa" d="M -0.5,-0.5 C 32.8333,-0.5 66.1667,-0.5 99.5,-0.5C 99.5,54.5 99.5,109.5 99.5,164.5C 66.1667,164.5 32.8333,164.5 -0.5,164.5C -0.5,109.5 -0.5,54.5 -0.5,-0.5 Z"/></g>
<g><path style="opacity:1" fill="#6b6a6e" d="M 41.5,10.5 C 44.8303,12.1691 47.4969,14.5025 49.5,17.5C 47.8041,15.871 46.8041,16.2043 46.5,18.5C 45.5226,22.6438 43.5226,26.3105 40.5,29.5C 39.6618,29.8417 39.3284,30.5084 39.5,31.5C 38.5,31.5 37.5,31.5 36.5,31.5C 38.9501,29.3709 40.6167,26.7043 41.5,23.5C 43.2429,20.5048 44.2429,17.1715 44.5,13.5C 41.4655,13.817 40.4655,12.817 41.5,10.5 Z"/></g>
<g><path style="opacity:1" fill="#ac846d" d="M 41.5,10.5 C 40.4655,12.817 41.4655,13.817 44.5,13.5C 44.2429,17.1715 43.2429,20.5048 41.5,23.5C 42.075,19.8453 41.075,16.8453 38.5,14.5C 37.8549,13.1882 36.8549,12.1882 35.5,11.5C 32.9389,13.0936 30.7723,15.0936 29,17.5C 28.3333,16.8333 27.6667,16.1667 27,15.5C 25.1319,18.6051 23.9652,21.9385 23.5,25.5C 22.2527,21.6752 22.5861,17.8418 24.5,14C 23.9056,13.5357 23.2389,13.369 22.5,13.5C 28.0913,6.91056 34.4246,5.91056 41.5,10.5 Z"/></g>
<g><path style="opacity:1" fill="#a9544b" d="M 38.5,14.5 C 37.9681,16.6301 37.1348,18.6301 36,20.5C 32.7125,17.8794 30.8791,18.8794 30.5,23.5C 30.6667,24.1667 30.8333,24.8333 31,25.5C 32.7132,21.5879 34.5466,21.5879 36.5,25.5C 35.8728,26.4168 35.5394,27.4168 35.5,28.5C 34.2305,30.6109 32.2305,31.6109 29.5,31.5C 26.5898,31.5805 24.9231,30.2471 24.5,27.5C 24.1667,26.8333 23.8333,26.1667 23.5,25.5C 23.9652,21.9385 25.1319,18.6051 27,15.5C 27.6667,16.1667 28.3333,16.8333 29,17.5C 30.7723,15.0936 32.9389,13.0936 35.5,11.5C 36.8549,12.1882 37.8549,13.1882 38.5,14.5 Z"/></g>
<g><path style="opacity:1" fill="#28485a" d="M 49.5,17.5 C 56.8415,27.1979 60.1749,38.1979 59.5,50.5C 59.5,53.8333 59.5,57.1667 59.5,60.5C 58.2318,62.9052 57.5651,65.5718 57.5,68.5C 56.6618,68.1583 56.3284,67.4916 56.5,66.5C 57.3221,56.1201 57.4887,45.7868 57,35.5C 55.8147,33.6228 54.8147,31.6228 54,29.5C 53.3292,28.7476 52.4959,28.4142 51.5,28.5C 48.7895,25.7457 47.1228,22.4124 46.5,18.5C 46.8041,16.2043 47.8041,15.871 49.5,17.5 Z"/></g>
<g><path style="opacity:1" fill="#873d36" d="M 38.5,14.5 C 41.075,16.8453 42.075,19.8453 41.5,23.5C 39.5,25.1667 37.5,26.8333 35.5,28.5C 35.5394,27.4168 35.8728,26.4168 36.5,25.5C 34.5466,21.5879 32.7132,21.5879 31,25.5C 30.8333,24.8333 30.6667,24.1667 30.5,23.5C 30.8791,18.8794 32.7125,17.8794 36,20.5C 37.1348,18.6301 37.9681,16.6301 38.5,14.5 Z"/></g>
<g><path style="opacity:1" fill="#363e38" d="M 22.5,13.5 C 23.2389,13.369 23.9056,13.5357 24.5,14C 22.5861,17.8418 22.2527,21.6752 23.5,25.5C 23.8333,26.1667 24.1667,26.8333 24.5,27.5C 24.2865,29.1439 24.6198,30.6439 25.5,32C 28.0356,32.1862 30.369,32.6862 32.5,33.5C 32.1667,34.5 31.5,35.1667 30.5,35.5C 28.2195,35.2537 26.2195,35.2537 24.5,35.5C 26.161,41.3671 27.661,47.3671 29,53.5C 29.8935,55.7669 31.3935,57.4336 33.5,58.5C 33.6287,60.2161 33.962,61.8828 34.5,63.5C 34.462,68.0956 36.462,71.429 40.5,73.5C 41.4519,75.0453 41.7852,76.712 41.5,78.5C 38.0886,79.067 36.0886,77.7337 35.5,74.5C 34.4995,72.1868 33.1662,70.1868 31.5,68.5C 31.7373,67.209 31.404,66.209 30.5,65.5C 27.7982,58.0043 24.7982,50.6709 21.5,43.5C 20.0765,37.5653 19.0765,31.5653 18.5,25.5C 19.2567,21.3172 20.59,17.3172 22.5,13.5 Z"/></g>
<g><path style="opacity:1" fill="#8c635c" d="M 41.5,23.5 C 40.6167,26.7043 38.9501,29.3709 36.5,31.5C 35.713,33.1042 34.3797,33.7709 32.5,33.5C 30.369,32.6862 28.0356,32.1862 25.5,32C 24.6198,30.6439 24.2865,29.1439 24.5,27.5C 24.9231,30.2471 26.5898,31.5805 29.5,31.5C 32.2305,31.6109 34.2305,30.6109 35.5,28.5C 37.5,26.8333 39.5,25.1667 41.5,23.5 Z"/></g>
<g><path style="opacity:1" fill="#359cbc" d="M 46.5,18.5 C 47.1228,22.4124 48.7895,25.7457 51.5,28.5C 52.1098,29.391 52.4431,30.391 52.5,31.5C 51.5041,31.4142 50.6708,31.7476 50,32.5C 49.9736,29.8953 48.807,28.7287 46.5,29C 46.1537,31.9403 45.1537,34.4403 43.5,36.5C 42.3485,34.2209 41.3485,31.8876 40.5,29.5C 43.5226,26.3105 45.5226,22.6438 46.5,18.5 Z"/></g>
<g><path style="opacity:1" fill="#abafac" d="M 18.5,25.5 C 19.0765,31.5653 20.0765,37.5653 21.5,43.5C 18.3507,37.7627 17.3507,31.7627 18.5,25.5 Z"/></g>
<g><path style="opacity:1" fill="#3797af" d="M 36.5,31.5 C 37.5,31.5 38.5,31.5 39.5,31.5C 39.5,32.8333 39.5,34.1667 39.5,35.5C 36.8728,36.0916 34.2062,36.4249 31.5,36.5C 31.3347,40.1817 31.5014,43.8484 32,47.5C 34.8856,55.334 38.0523,63.0006 41.5,70.5C 39.39,69.5475 38.2233,67.8808 38,65.5C 37.1841,64.1772 36.0174,63.5106 34.5,63.5C 33.962,61.8828 33.6287,60.2161 33.5,58.5C 31.4966,52.6439 29.8299,46.6439 28.5,40.5C 28.4365,38.4861 29.1032,36.8194 30.5,35.5C 31.5,35.1667 32.1667,34.5 32.5,33.5C 34.3797,33.7709 35.713,33.1042 36.5,31.5 Z"/></g>
<g><path style="opacity:1" fill="#20a7d7" d="M 52.5,31.5 C 55.1543,35.9816 55.821,40.8149 54.5,46C 55.0766,52.9896 55.7433,59.823 56.5,66.5C 56.3284,67.4916 56.6618,68.1583 57.5,68.5C 57.3367,70.8568 57.5034,73.1902 58,75.5C 58.3826,76.056 58.8826,76.3893 59.5,76.5C 59.1557,82.0984 59.8224,87.4317 61.5,92.5C 61.1936,95.3854 61.5269,98.0521 62.5,100.5C 64.7007,110.691 65.8674,121.024 66,131.5C 66.2366,126.985 67.9033,126.318 71,129.5C 71.4643,128.906 71.631,128.239 71.5,127.5C 72.1667,127.5 72.5,127.833 72.5,128.5C 72.8753,133.626 73.8753,138.626 75.5,143.5C 74.5178,142.859 73.5178,142.193 72.5,141.5C 71.8933,141.624 71.56,141.957 71.5,142.5C 67.9359,141.577 64.2693,141.244 60.5,141.5C 59.8333,141.5 59.5,141.167 59.5,140.5C 62.0009,140.489 62.1676,139.822 60,138.5C 59.4518,134.83 58.9518,131.163 58.5,127.5C 57.8005,123.202 57.4672,118.869 57.5,114.5C 56.1779,114.67 55.0113,114.337 54,113.5C 53.6667,109.5 53.3333,105.5 53,101.5C 51.3988,97.9779 49.5655,93.9779 47.5,89.5C 48.1638,83.8112 46.8304,78.8112 43.5,74.5C 43.7709,72.6203 43.1042,71.287 41.5,70.5C 38.0523,63.0006 34.8856,55.334 32,47.5C 31.5014,43.8484 31.3347,40.1817 31.5,36.5C 34.2062,36.4249 36.8728,36.0916 39.5,35.5C 41.0672,36.6808 41.9005,38.3474 42,40.5C 42.7211,50.3048 43.7211,59.9715 45,69.5C 45.7804,58.3911 45.2804,47.3911 43.5,36.5C 45.1537,34.4403 46.1537,31.9403 46.5,29C 48.807,28.7287 49.9736,29.8953 50,32.5C 50.6708,31.7476 51.5041,31.4142 52.5,31.5 Z"/></g>
<g><path style="opacity:1" fill="#347fa4" d="M 51.5,28.5 C 52.4959,28.4142 53.3292,28.7476 54,29.5C 54.8147,31.6228 55.8147,33.6228 57,35.5C 57.4887,45.7868 57.3221,56.1201 56.5,66.5C 55.7433,59.823 55.0766,52.9896 54.5,46C 55.821,40.8149 55.1543,35.9816 52.5,31.5C 52.4431,30.391 52.1098,29.391 51.5,28.5 Z"/></g>
<g><path style="opacity:1" fill="#2e6d76" d="M 30.5,35.5 C 29.1032,36.8194 28.4365,38.4861 28.5,40.5C 29.8299,46.6439 31.4966,52.6439 33.5,58.5C 31.3935,57.4336 29.8935,55.7669 29,53.5C 27.661,47.3671 26.161,41.3671 24.5,35.5C 26.2195,35.2537 28.2195,35.2537 30.5,35.5 Z"/></g>
<g><path style="opacity:1" fill="#77574b" d="M 66.5,63.5 C 66.5,62.8333 66.1667,62.5 65.5,62.5C 65.8333,61.8333 66.1667,61.1667 66.5,60.5C 66.3801,58.2655 66.7135,56.0989 67.5,54C 66.47,51.4398 65.3034,48.9398 64,46.5C 63.4338,48.7226 62.6005,50.7226 61.5,52.5C 61.5,51.8333 61.5,51.1667 61.5,50.5C 61.9849,45.5894 63.3183,40.9228 65.5,36.5C 67.0754,39.2599 68.9088,41.9266 71,44.5C 71.8446,51.4494 70.3446,57.7827 66.5,63.5 Z"/></g>
<g><path style="opacity:1" fill="#213625" d="M 59.5,50.5 C 60.1667,50.5 60.8333,50.5 61.5,50.5C 61.5,51.1667 61.5,51.8333 61.5,52.5C 61.5,53.8333 61.5,55.1667 61.5,56.5C 61.0113,57.9952 60.3446,59.3285 59.5,60.5C 59.5,57.1667 59.5,53.8333 59.5,50.5 Z"/></g>
<g><path style="opacity:1" fill="#e0d187" d="M 66.5,60.5 C 63.6,60.5922 61.9333,59.2589 61.5,56.5C 61.5,55.1667 61.5,53.8333 61.5,52.5C 62.6005,50.7226 63.4338,48.7226 64,46.5C 65.3034,48.9398 66.47,51.4398 67.5,54C 66.7135,56.0989 66.3801,58.2655 66.5,60.5 Z"/></g>
<g><path style="opacity:1" fill="#624643" d="M 30.5,65.5 C 30.631,66.2389 30.4643,66.9056 30,67.5C 29,66.1667 28,66.1667 27,67.5C 26,66.1667 25,64.8333 24,63.5C 23.5825,65.788 24.2491,67.788 26,69.5C 26.3333,71.8333 26.6667,74.1667 27,76.5C 27.3826,77.056 27.8826,77.3893 28.5,77.5C 29.5,78.1667 30.5,78.8333 31.5,79.5C 32.6935,80.2719 33.6935,81.2719 34.5,82.5C 34.8333,83.1667 35.1667,83.8333 35.5,84.5C 29.5701,81.7383 25.0701,77.405 22,71.5C 21.1483,66.9979 21.6483,62.6645 23.5,58.5C 25.4459,61.2625 27.7792,63.5958 30.5,65.5 Z"/></g>
<g><path style="opacity:1" fill="#4d9d6d" d="M 61.5,56.5 C 61.9333,59.2589 63.6,60.5922 66.5,60.5C 66.1667,61.1667 65.8333,61.8333 65.5,62.5C 64.791,63.404 63.791,63.7373 62.5,63.5C 61.971,67.9487 60.971,72.282 59.5,76.5C 58.8826,76.3893 58.3826,76.056 58,75.5C 57.5034,73.1902 57.3367,70.8568 57.5,68.5C 57.5651,65.5718 58.2318,62.9052 59.5,60.5C 60.3446,59.3285 61.0113,57.9952 61.5,56.5 Z"/></g>
<g><path style="opacity:1" fill="#18729b" d="M 40.5,29.5 C 41.3485,31.8876 42.3485,34.2209 43.5,36.5C 45.2804,47.3911 45.7804,58.3911 45,69.5C 43.7211,59.9715 42.7211,50.3048 42,40.5C 41.9005,38.3474 41.0672,36.6808 39.5,35.5C 39.5,34.1667 39.5,32.8333 39.5,31.5C 39.3284,30.5084 39.6618,29.8417 40.5,29.5 Z"/></g>
<g><path style="opacity:1" fill="#805a5d" d="M 74.5,84.5 C 73.0755,86.0311 72.4088,85.6977 72.5,83.5C 72.9382,83.5654 73.2716,83.3988 73.5,83C 72.6433,82.3109 71.9767,81.4776 71.5,80.5C 73.2892,77.4439 73.9559,74.1106 73.5,70.5C 71.2967,70.9349 69.2967,70.9349 67.5,70.5C 67.4469,67.9394 68.4469,65.9394 70.5,64.5C 76.801,70.1879 78.1343,76.8545 74.5,84.5 Z"/></g>
<g><path style="opacity:1" fill="#8b5f45" d="M 30.5,65.5 C 31.404,66.209 31.7373,67.209 31.5,68.5C 29.6767,71.016 28.6767,74.016 28.5,77.5C 27.8826,77.3893 27.3826,77.056 27,76.5C 26.6667,74.1667 26.3333,71.8333 26,69.5C 24.2491,67.788 23.5825,65.788 24,63.5C 25,64.8333 26,66.1667 27,67.5C 28,66.1667 29,66.1667 30,67.5C 30.4643,66.9056 30.631,66.2389 30.5,65.5 Z"/></g>
<g><path style="opacity:1" fill="#e6d48a" d="M 31.5,68.5 C 33.1662,70.1868 34.4995,72.1868 35.5,74.5C 35.5,76.1667 35.5,77.8333 35.5,79.5C 34.1667,79.5 32.8333,79.5 31.5,79.5C 30.5,78.8333 29.5,78.1667 28.5,77.5C 28.6767,74.016 29.6767,71.016 31.5,68.5 Z"/></g>
<g><path style="opacity:1" fill="#804643" d="M 67.5,70.5 C 69.2967,70.9349 71.2967,70.9349 73.5,70.5C 73.9559,74.1106 73.2892,77.4439 71.5,80.5C 71.9767,81.4776 72.6433,82.3109 73.5,83C 73.2716,83.3988 72.9382,83.5654 72.5,83.5C 72.1667,83.5 71.8333,83.5 71.5,83.5C 71.1667,83.5 70.8333,83.5 70.5,83.5C 68.686,79.7207 67.686,75.7207 67.5,71.5C 67.5,71.1667 67.5,70.8333 67.5,70.5 Z"/></g>
<g><path style="opacity:1" fill="#ecebe7" d="M 21.5,43.5 C 24.7982,50.6709 27.7982,58.0043 30.5,65.5C 27.7792,63.5958 25.4459,61.2625 23.5,58.5C 21.6483,62.6645 21.1483,66.9979 22,71.5C 25.0701,77.405 29.5701,81.7383 35.5,84.5C 36.7927,86.2959 38.2927,87.9625 40,89.5C 40.5,91.5 41,93.5 41.5,95.5C 41.4573,96.4164 41.1239,97.0831 40.5,97.5C 38.1667,96.1667 35.8333,94.8333 33.5,93.5C 32.7095,92.5987 31.7095,91.9321 30.5,91.5C 29.5423,90.0384 28.3756,88.7051 27,87.5C 25.0085,92.901 25.1751,98.2343 27.5,103.5C 26.1751,102.047 25.3418,102.381 25,104.5C 25.2646,100.337 24.7646,96.1702 23.5,92C 26.0921,88.1909 26.9254,84.0242 26,79.5C 25.6667,80.5 25.3333,81.5 25,82.5C 24.5348,81.0692 23.7014,79.9025 22.5,79C 23.8331,77.1598 23.6665,76.6598 22,77.5C 21.6667,75.8333 21.3333,74.1667 21,72.5C 20.7508,73.624 20.2508,74.624 19.5,75.5C 18.6816,73.8917 18.0149,72.2251 17.5,70.5C 19.7828,67.3983 19.7828,64.3983 17.5,61.5C 17.8988,59.8034 18.3988,58.1368 19,56.5C 20,55.1667 21,55.1667 22,56.5C 22.1667,55.8333 22.3333,55.1667 22.5,54.5C 21.6536,50.8822 21.3203,47.2155 21.5,43.5 Z"/></g>
<g><path style="opacity:1" fill="#bca97b" d="M 67.5,71.5 C 67.686,75.7207 68.686,79.7207 70.5,83.5C 67.6286,82.0136 66.2953,83.0136 66.5,86.5C 66.1667,86.5 65.8333,86.5 65.5,86.5C 66.1186,82.6441 66.1186,78.9775 65.5,75.5C 65.6596,73.847 66.3263,72.5137 67.5,71.5 Z"/></g>
<g><path style="opacity:1" fill="#378b77" d="M 34.5,63.5 C 36.0174,63.5106 37.1841,64.1772 38,65.5C 38.2233,67.8808 39.39,69.5475 41.5,70.5C 43.1042,71.287 43.7709,72.6203 43.5,74.5C 44.7416,80.0835 45.7416,85.7502 46.5,91.5C 46.1029,92.9857 45.7695,94.4857 45.5,96C 45.7942,99.1211 46.9608,102.288 49,105.5C 49.4986,109.152 49.6653,112.818 49.5,116.5C 48.0527,115.378 47.0527,113.878 46.5,112C 45.552,111.517 44.552,111.351 43.5,111.5C 44.2186,109.236 44.552,106.903 44.5,104.5C 45.3764,104.631 46.0431,104.298 46.5,103.5C 44.5356,98.6433 43.0356,93.6433 42,88.5C 39.8799,85.8644 37.3799,83.8644 34.5,82.5C 33.6935,81.2719 32.6935,80.2719 31.5,79.5C 32.8333,79.5 34.1667,79.5 35.5,79.5C 35.5,77.8333 35.5,76.1667 35.5,74.5C 36.0886,77.7337 38.0886,79.067 41.5,78.5C 41.7852,76.712 41.4519,75.0453 40.5,73.5C 36.462,71.429 34.462,68.0956 34.5,63.5 Z"/></g>
<g><path style="opacity:1" fill="#34463e" d="M 65.5,62.5 C 66.1667,62.5 66.5,62.8333 66.5,63.5C 63.5613,69.1511 62.3947,75.1511 63,81.5C 63.9383,79.5115 64.7717,77.5115 65.5,75.5C 66.1186,78.9775 66.1186,82.6441 65.5,86.5C 63.5363,88.1274 62.203,90.1274 61.5,92.5C 59.8224,87.4317 59.1557,82.0984 59.5,76.5C 60.971,72.282 61.971,67.9487 62.5,63.5C 63.791,63.7373 64.791,63.404 65.5,62.5 Z"/></g>
<g><path style="opacity:1" fill="#7f765a" d="M 71.5,83.5 C 71.8333,83.5 72.1667,83.5 72.5,83.5C 72.4088,85.6977 73.0755,86.0311 74.5,84.5C 73.3255,88.1826 71.6588,91.5159 69.5,94.5C 69.5,93.8333 69.5,93.1667 69.5,92.5C 70.9288,89.6916 71.5955,86.6916 71.5,83.5 Z"/></g>
<g><path style="opacity:1" fill="#2b4036" d="M 34.5,82.5 C 37.3799,83.8644 39.8799,85.8644 42,88.5C 43.0356,93.6433 44.5356,98.6433 46.5,103.5C 46.0431,104.298 45.3764,104.631 44.5,104.5C 44.5323,102.381 43.5323,101.048 41.5,100.5C 41.4431,99.391 41.1098,98.391 40.5,97.5C 41.1239,97.0831 41.4573,96.4164 41.5,95.5C 41,93.5 40.5,91.5 40,89.5C 38.2927,87.9625 36.7927,86.2959 35.5,84.5C 35.1667,83.8333 34.8333,83.1667 34.5,82.5 Z"/></g>
<g><path style="opacity:1" fill="#dfdb8e" d="M 70.5,83.5 C 70.8333,83.5 71.1667,83.5 71.5,83.5C 71.5955,86.6916 70.9288,89.6916 69.5,92.5C 68.8333,92.5 68.5,92.8333 68.5,93.5C 67.0762,91.4855 66.4095,89.1522 66.5,86.5C 66.2953,83.0136 67.6286,82.0136 70.5,83.5 Z"/></g>
<g><path style="opacity:1" fill="#488d6b" d="M 65.5,86.5 C 65.8333,86.5 66.1667,86.5 66.5,86.5C 66.4095,89.1522 67.0762,91.4855 68.5,93.5C 66.8248,96.245 65.1581,98.9117 63.5,101.5C 63.5,100.833 63.1667,100.5 62.5,100.5C 61.5269,98.0521 61.1936,95.3854 61.5,92.5C 62.203,90.1274 63.5363,88.1274 65.5,86.5 Z"/></g>
<g><path style="opacity:1" fill="#856d44" d="M 33.5,93.5 C 35.8333,94.8333 38.1667,96.1667 40.5,97.5C 41.1098,98.391 41.4431,99.391 41.5,100.5C 39.357,98.9257 37.0237,97.5923 34.5,96.5C 33.8313,98.6309 33.1646,100.631 32.5,102.5C 32.6816,100.409 32.3482,98.4086 31.5,96.5C 32.6119,95.7348 33.2786,94.7348 33.5,93.5 Z"/></g>
<g><path style="opacity:1" fill="#834b4a" d="M 30.5,91.5 C 31.7095,91.9321 32.7095,92.5987 33.5,93.5C 33.2786,94.7348 32.6119,95.7348 31.5,96.5C 32.3482,98.4086 32.6816,100.409 32.5,102.5C 30.9705,101.933 29.4705,101.267 28,100.5C 27.502,97.5184 27.3354,94.5184 27.5,91.5C 28.5,91.5 29.5,91.5 30.5,91.5 Z"/></g>
<g><path style="opacity:1" fill="#269d9f" d="M 43.5,74.5 C 46.8304,78.8112 48.1638,83.8112 47.5,89.5C 48.7055,98.298 50.2055,106.965 52,115.5C 53.4417,119.609 54.9417,123.609 56.5,127.5C 55.7611,127.631 55.0944,127.464 54.5,127C 53.9152,125.698 53.2485,124.531 52.5,123.5C 52.0113,122.005 51.3446,120.671 50.5,119.5C 50.7373,118.209 50.404,117.209 49.5,116.5C 49.6653,112.818 49.4986,109.152 49,105.5C 46.9608,102.288 45.7942,99.1211 45.5,96C 45.7695,94.4857 46.1029,92.9857 46.5,91.5C 45.7416,85.7502 44.7416,80.0835 43.5,74.5 Z"/></g>
<g><path style="opacity:1" fill="#6c5551" d="M 30.5,91.5 C 29.5,91.5 28.5,91.5 27.5,91.5C 27.3354,94.5184 27.502,97.5184 28,100.5C 29.4705,101.267 30.9705,101.933 32.5,102.5C 32.0882,104.973 33.0882,106.306 35.5,106.5C 36.1667,107.167 36.8333,107.833 37.5,108.5C 36.8333,108.5 36.5,108.833 36.5,109.5C 35.8333,109.5 35.1667,109.5 34.5,109.5C 32.7656,106.8 30.4323,104.8 27.5,103.5C 25.1751,98.2343 25.0085,92.901 27,87.5C 28.3756,88.7051 29.5423,90.0384 30.5,91.5 Z"/></g>
<g><path style="opacity:1" fill="#d6bf7d" d="M 41.5,100.5 C 43.5323,101.048 44.5323,102.381 44.5,104.5C 41.7807,101.807 38.4473,100.14 34.5,99.5C 34.298,101.95 34.6314,104.283 35.5,106.5C 33.0882,106.306 32.0882,104.973 32.5,102.5C 33.1646,100.631 33.8313,98.6309 34.5,96.5C 37.0237,97.5923 39.357,98.9257 41.5,100.5 Z"/></g>
<g><path style="opacity:1" fill="#e2ce65" d="M 44.5,104.5 C 44.552,106.903 44.2186,109.236 43.5,111.5C 41.0532,111.385 39.0532,110.385 37.5,108.5C 36.8333,107.833 36.1667,107.167 35.5,106.5C 34.6314,104.283 34.298,101.95 34.5,99.5C 38.4473,100.14 41.7807,101.807 44.5,104.5 Z"/></g>
<g><path style="opacity:1" fill="#16adce" d="M 47.5,89.5 C 49.5655,93.9779 51.3988,97.9779 53,101.5C 53.3333,105.5 53.6667,109.5 54,113.5C 55.0113,114.337 56.1779,114.67 57.5,114.5C 57.4672,118.869 57.8005,123.202 58.5,127.5C 57.8333,127.5 57.1667,127.5 56.5,127.5C 54.9417,123.609 53.4417,119.609 52,115.5C 50.2055,106.965 48.7055,98.298 47.5,89.5 Z"/></g>
<g><path style="opacity:1" fill="#26434a" d="M 69.5,92.5 C 69.5,93.1667 69.5,93.8333 69.5,94.5C 65.9501,101.738 65.9501,109.071 69.5,116.5C 70.5223,116.145 71.189,115.478 71.5,114.5C 72.625,115.348 72.625,116.348 71.5,117.5C 71.5,117.833 71.5,118.167 71.5,118.5C 70.6554,119.671 69.9887,121.005 69.5,122.5C 68.5416,122.953 67.7083,123.619 67,124.5C 66.4375,122.134 66.6042,119.801 67.5,117.5C 65.9538,112.2 64.6205,106.866 63.5,101.5C 65.1581,98.9117 66.8248,96.245 68.5,93.5C 68.5,92.8333 68.8333,92.5 69.5,92.5 Z"/></g>
<g><path style="opacity:1" fill="#80635d" d="M 75.5,127.5 C 75.4431,126.391 75.1098,125.391 74.5,124.5C 75.4778,124.189 76.1445,123.522 76.5,122.5C 74.6666,120.851 72.9999,119.184 71.5,117.5C 72.625,116.348 72.625,115.348 71.5,114.5C 72.5774,109.934 74.2441,105.6 76.5,101.5C 83.3961,110.438 83.0628,119.105 75.5,127.5 Z"/></g>
<g><path style="opacity:1" fill="#33879f" d="M 62.5,100.5 C 63.1667,100.5 63.5,100.833 63.5,101.5C 64.6205,106.866 65.9538,112.2 67.5,117.5C 66.6042,119.801 66.4375,122.134 67,124.5C 67.7083,123.619 68.5416,122.953 69.5,122.5C 70.5375,123.93 71.2041,125.597 71.5,127.5C 71.631,128.239 71.4643,128.906 71,129.5C 67.9033,126.318 66.2366,126.985 66,131.5C 65.8674,121.024 64.7007,110.691 62.5,100.5 Z"/></g>
<g><path style="opacity:1" fill="#874c47" d="M 76.5,107.5 C 78.8837,108.425 79.8837,110.258 79.5,113C 79.5561,116.013 78.5561,118.513 76.5,120.5C 75.0627,118.979 74.396,117.145 74.5,115C 74.9448,112.41 75.6114,109.91 76.5,107.5 Z"/></g>
<g><path style="opacity:1" fill="#63454b" d="M 35.5,111.5 C 34.9112,116.853 35.5779,122.186 37.5,127.5C 37.5,127.833 37.5,128.167 37.5,128.5C 35.8267,127.657 34.66,126.324 34,124.5C 33.3333,119.833 33.3333,115.167 34,110.5C 34.3826,111.056 34.8826,111.389 35.5,111.5 Z"/></g>
<g><path style="opacity:1" fill="#8d544f" d="M 35.5,111.5 C 37.4707,113.808 39.4707,116.142 41.5,118.5C 41.5,119.5 41.5,120.5 41.5,121.5C 41.702,123.95 41.3686,126.283 40.5,128.5C 39.609,127.89 38.609,127.557 37.5,127.5C 35.5779,122.186 34.9112,116.853 35.5,111.5 Z"/></g>
<g><path style="opacity:1" fill="#3a4538" d="M 37.5,108.5 C 39.0532,110.385 41.0532,111.385 43.5,111.5C 44.552,111.351 45.552,111.517 46.5,112C 47.0527,113.878 48.0527,115.378 49.5,116.5C 50.404,117.209 50.7373,118.209 50.5,119.5C 50.0137,121.807 50.0137,123.973 50.5,126C 49.552,126.483 48.552,126.649 47.5,126.5C 46.7124,123.379 44.7124,121.712 41.5,121.5C 41.5,120.5 41.5,119.5 41.5,118.5C 43.4021,119.368 45.2355,120.368 47,121.5C 48.5426,120.423 48.5426,119.089 47,117.5C 43.3416,114.934 39.8416,112.268 36.5,109.5C 36.5,108.833 36.8333,108.5 37.5,108.5 Z"/></g>
<g><path style="opacity:1" fill="#c9c59b" d="M 71.5,117.5 C 72.9999,119.184 74.6666,120.851 76.5,122.5C 76.1445,123.522 75.4778,124.189 74.5,124.5C 72.9925,122.819 71.9925,120.819 71.5,118.5C 71.5,118.167 71.5,117.833 71.5,117.5 Z"/></g>
<g><path style="opacity:1" fill="#cccdc7" d="M 34.5,109.5 C 35.1667,109.5 35.8333,109.5 36.5,109.5C 39.8416,112.268 43.3416,114.934 47,117.5C 48.5426,119.089 48.5426,120.423 47,121.5C 45.2355,120.368 43.4021,119.368 41.5,118.5C 39.4707,116.142 37.4707,113.808 35.5,111.5C 34.8826,111.389 34.3826,111.056 34,110.5C 33.3333,115.167 33.3333,119.833 34,124.5C 34.66,126.324 35.8267,127.657 37.5,128.5C 39.8652,130.86 42.5319,132.86 45.5,134.5C 44.3112,135.429 42.9778,135.762 41.5,135.5C 38.8806,135.232 36.3806,135.565 34,136.5C 33.5172,135.552 33.3505,134.552 33.5,133.5C 40.8404,134.077 41.1737,132.411 34.5,128.5C 33.5,129.167 32.5,129.833 31.5,130.5C 30.52,127.914 30.1866,125.247 30.5,122.5C 31.8333,118.167 33.1667,113.833 34.5,109.5 Z"/></g>
<g><path style="opacity:1" fill="#d8d078" d="M 41.5,121.5 C 44.7124,121.712 46.7124,123.379 47.5,126.5C 47.1667,127.833 46.8333,129.167 46.5,130.5C 44.2143,130.405 42.2143,129.738 40.5,128.5C 41.3686,126.283 41.702,123.95 41.5,121.5 Z"/></g>
<g><path style="opacity:1" fill="#517367" d="M 26.5,124.5 C 25.9033,124.735 25.5699,125.235 25.5,126C 25.7628,128.432 26.7628,130.432 28.5,132C 27.1509,132.772 26.3176,133.939 26,135.5C 25.6543,132.424 24.9876,129.424 24,126.5C 22.883,127.949 22.2163,129.616 22,131.5C 21.2825,130.549 20.4491,130.383 19.5,131C 21.0139,132.439 21.3473,133.939 20.5,135.5C 19.4513,133.784 18.118,132.451 16.5,131.5C 15.3646,129.787 13.698,129.12 11.5,129.5C 11.5,128.5 11.5,127.5 11.5,126.5C 14.4475,126.223 17.2809,126.556 20,127.5C 20.3012,124.02 21.1345,120.687 22.5,117.5C 24.2035,119.598 25.5368,121.931 26.5,124.5 Z"/></g>
<g><path style="opacity:1" fill="#457556" d="M 71.5,118.5 C 71.9925,120.819 72.9925,122.819 74.5,124.5C 75.1098,125.391 75.4431,126.391 75.5,127.5C 74.6618,127.842 74.3284,128.508 74.5,129.5C 73.8333,129.167 73.1667,128.833 72.5,128.5C 72.5,127.833 72.1667,127.5 71.5,127.5C 71.2041,125.597 70.5375,123.93 69.5,122.5C 69.9887,121.005 70.6554,119.671 71.5,118.5 Z"/></g>
<g><path style="opacity:1" fill="#3a7759" d="M 50.5,119.5 C 51.3446,120.671 52.0113,122.005 52.5,123.5C 52.5533,126.14 53.22,128.64 54.5,131C 54.2272,132.533 53.8938,134.033 53.5,135.5C 50.7447,134.369 48.4114,132.702 46.5,130.5C 46.8333,129.167 47.1667,127.833 47.5,126.5C 48.552,126.649 49.552,126.483 50.5,126C 50.0137,123.973 50.0137,121.807 50.5,119.5 Z"/></g>
<g><path style="opacity:1" fill="#9da499" d="M 75.5,127.5 C 75.5,129.167 75.5,130.833 75.5,132.5C 80.6946,132.179 85.6946,132.513 90.5,133.5C 85.1667,133.5 79.8333,133.5 74.5,133.5C 74.5,132.167 74.5,130.833 74.5,129.5C 74.3284,128.508 74.6618,127.842 75.5,127.5 Z"/></g>
<g><path style="opacity:1" fill="#309f88" d="M 52.5,123.5 C 53.2485,124.531 53.9152,125.698 54.5,127C 55.0944,127.464 55.7611,127.631 56.5,127.5C 57.1667,127.5 57.8333,127.5 58.5,127.5C 58.9518,131.163 59.4518,134.83 60,138.5C 62.1676,139.822 62.0009,140.489 59.5,140.5C 57.9095,138.367 55.9095,136.701 53.5,135.5C 53.8938,134.033 54.2272,132.533 54.5,131C 53.22,128.64 52.5533,126.14 52.5,123.5 Z"/></g>
<g><path style="opacity:1" fill="#334e40" d="M 30.5,122.5 C 30.1866,125.247 30.52,127.914 31.5,130.5C 32.5,129.833 33.5,129.167 34.5,128.5C 41.1737,132.411 40.8404,134.077 33.5,133.5C 33.3505,134.552 33.5172,135.552 34,136.5C 36.3806,135.565 38.8806,135.232 41.5,135.5C 43.2646,136.461 45.2646,136.795 47.5,136.5C 47.5,137.167 47.5,137.833 47.5,138.5C 46.8333,138.5 46.1667,138.5 45.5,138.5C 40.657,137.044 35.8236,137.377 31,139.5C 31.1484,140.825 30.9817,141.992 30.5,143C 28.973,144.368 27.473,144.868 26,144.5C 22.6991,142.53 19.6991,140.197 17,137.5C 15.6072,140.125 14.4405,140.125 13.5,137.5C 11.5542,137.807 9.88748,137.807 8.5,137.5C 11.5564,136.804 14.5564,135.97 17.5,135C 16.552,134.517 15.552,134.351 14.5,134.5C 10.1914,130.691 10.8581,129.691 16.5,131.5C 18.118,132.451 19.4513,133.784 20.5,135.5C 21.3473,133.939 21.0139,132.439 19.5,131C 20.4491,130.383 21.2825,130.549 22,131.5C 22.2163,129.616 22.883,127.949 24,126.5C 24.9876,129.424 25.6543,132.424 26,135.5C 26.3176,133.939 27.1509,132.772 28.5,132C 26.7628,130.432 25.7628,128.432 25.5,126C 25.5699,125.235 25.9033,124.735 26.5,124.5C 26.9867,125.473 27.4867,126.473 28,127.5C 28.8221,125.212 29.4888,122.878 30,120.5C 30.4643,121.094 30.631,121.761 30.5,122.5 Z"/></g>
<g><path style="opacity:1" fill="#4e8672" d="M 13.5,137.5 C 14.4405,140.125 15.6072,140.125 17,137.5C 19.6991,140.197 22.6991,142.53 26,144.5C 27.473,144.868 28.973,144.368 30.5,143C 30.9817,141.992 31.1484,140.825 31,139.5C 35.8236,137.377 40.657,137.044 45.5,138.5C 45.631,139.239 45.4643,139.906 45,140.5C 43.2739,139.424 41.4406,139.257 39.5,140C 42.9816,140.813 43.3149,142.479 40.5,145C 39.451,145.492 38.451,145.326 37.5,144.5C 36.4593,146.991 35.6259,146.991 35,144.5C 33.883,145.949 33.2163,147.616 33,149.5C 31.9887,148.663 30.8221,148.33 29.5,148.5C 28.9553,144.828 28.6219,145.162 28.5,149.5C 30.6382,149.703 32.3049,150.703 33.5,152.5C 35.78,149.814 36.4467,149.981 35.5,153C 36.1301,154.31 37.1301,155.144 38.5,155.5C 42.1865,157.871 45.1865,156.871 47.5,152.5C 48.1667,152.5 48.8333,152.5 49.5,152.5C 50.4972,152.47 51.1639,152.97 51.5,154C 50.8505,155.69 50.8505,157.523 51.5,159.5C 50.8333,159.5 50.1667,159.5 49.5,159.5C 40.4613,159.574 31.4613,159.574 22.5,159.5C 22.6766,157.019 21.6766,155.186 19.5,154C 18.7926,154.744 17.4592,155.244 15.5,155.5C 15.2965,153.61 15.9632,152.11 17.5,151C 15.5273,150.505 13.5273,150.338 11.5,150.5C 9.63269,145.723 10.2994,141.389 13.5,137.5 Z"/></g>
<g><path style="opacity:1" fill="#5b8e78" d="M 47.5,136.5 C 48.1577,137.398 48.8243,138.398 49.5,139.5C 50.1667,139.167 50.8333,138.833 51.5,138.5C 55.5031,140.84 58.3364,144.173 60,148.5C 62.8437,150.159 65.3437,152.159 67.5,154.5C 68.209,155.404 69.209,155.737 70.5,155.5C 70.5,156.833 70.5,158.167 70.5,159.5C 68.8333,159.5 67.1667,159.5 65.5,159.5C 65.6463,154.563 64.6463,153.897 62.5,157.5C 61.6922,155.577 61.1922,153.577 61,151.5C 60.7679,152.737 60.2679,153.737 59.5,154.5C 59.9227,152.219 59.256,150.552 57.5,149.5C 56.7659,148.292 56.4326,146.959 56.5,145.5C 54.6096,145.297 53.1096,145.963 52,147.5C 52.2753,143.517 51.2753,143.517 49,147.5C 48.5172,146.552 48.3505,145.552 48.5,144.5C 45.139,146.484 43.4723,145.484 43.5,141.5C 44.8333,141.5 46.1667,141.5 47.5,141.5C 47.5,140.5 47.5,139.5 47.5,138.5C 47.5,137.833 47.5,137.167 47.5,136.5 Z"/></g>
<g><path style="opacity:1" fill="#4a7369" d="M 14.5,134.5 C 15.552,134.351 16.552,134.517 17.5,135C 14.5564,135.97 11.5564,136.804 8.5,137.5C 9.88748,137.807 11.5542,137.807 13.5,137.5C 10.2994,141.389 9.63269,145.723 11.5,150.5C 13.5273,150.338 15.5273,150.505 17.5,151C 15.9632,152.11 15.2965,153.61 15.5,155.5C 17.4592,155.244 18.7926,154.744 19.5,154C 21.6766,155.186 22.6766,157.019 22.5,159.5C 19.8127,159.664 17.146,159.497 14.5,159C 13.7761,156.33 12.1094,154.83 9.5,154.5C 9.66501,151.15 9.49834,147.817 9,144.5C 8.17053,149.864 8.33719,155.198 9.5,160.5C 11.2249,158.908 12.2249,159.242 12.5,161.5C 10.8333,161.5 9.16667,161.5 7.5,161.5C 7.5,152.833 7.5,144.167 7.5,135.5C 10.0593,135.802 12.3926,135.468 14.5,134.5 Z"/></g>
<g><path style="opacity:1" fill="#366653" d="M 45.5,138.5 C 46.1667,138.5 46.8333,138.5 47.5,138.5C 47.5,139.5 47.5,140.5 47.5,141.5C 46.1667,141.5 44.8333,141.5 43.5,141.5C 43.4723,145.484 45.139,146.484 48.5,144.5C 48.3505,145.552 48.5172,146.552 49,147.5C 51.2753,143.517 52.2753,143.517 52,147.5C 53.1096,145.963 54.6096,145.297 56.5,145.5C 56.4326,146.959 56.7659,148.292 57.5,149.5C 57.44,150.043 57.1067,150.376 56.5,150.5C 55.7189,149.271 55.2189,147.938 55,146.5C 53.8372,148.285 53.1705,150.285 53,152.5C 51.4455,150.073 50.2789,150.073 49.5,152.5C 48.8333,152.5 48.1667,152.5 47.5,152.5C 46.7436,150.237 46.5769,147.903 47,145.5C 45.5619,146.9 44.7286,148.567 44.5,150.5C 43.5,150.5 42.5,150.5 41.5,150.5C 41.6567,149.127 41.49,147.793 41,146.5C 39.8695,149.445 39.0362,152.445 38.5,155.5C 37.1301,155.144 36.1301,154.31 35.5,153C 36.4467,149.981 35.78,149.814 33.5,152.5C 32.3049,150.703 30.6382,149.703 28.5,149.5C 28.6219,145.162 28.9553,144.828 29.5,148.5C 30.8221,148.33 31.9887,148.663 33,149.5C 33.2163,147.616 33.883,145.949 35,144.5C 35.6259,146.991 36.4593,146.991 37.5,144.5C 38.451,145.326 39.451,145.492 40.5,145C 43.3149,142.479 42.9816,140.813 39.5,140C 41.4406,139.257 43.2739,139.424 45,140.5C 45.4643,139.906 45.631,139.239 45.5,138.5 Z"/></g>
<g><path style="opacity:1" fill="#254135" d="M 47.5,152.5 C 45.1865,156.871 42.1865,157.871 38.5,155.5C 39.0362,152.445 39.8695,149.445 41,146.5C 41.49,147.793 41.6567,149.127 41.5,150.5C 42.5,150.5 43.5,150.5 44.5,150.5C 44.7286,148.567 45.5619,146.9 47,145.5C 46.5769,147.903 46.7436,150.237 47.5,152.5 Z"/></g>
<g><path style="opacity:1" fill="#3f908b" d="M 57.5,149.5 C 59.256,150.552 59.9227,152.219 59.5,154.5C 60.2178,156.137 60.3845,157.803 60,159.5C 57.3787,159.296 54.5453,159.296 51.5,159.5C 50.8505,157.523 50.8505,155.69 51.5,154C 51.1639,152.97 50.4972,152.47 49.5,152.5C 50.2789,150.073 51.4455,150.073 53,152.5C 53.1705,150.285 53.8372,148.285 55,146.5C 55.2189,147.938 55.7189,149.271 56.5,150.5C 57.1067,150.376 57.44,150.043 57.5,149.5 Z"/></g>
<g><path style="opacity:1" fill="#46685c" d="M 67.5,154.5 C 73.0572,156.403 78.7238,157.903 84.5,159C 78.4933,159.635 72.4933,160.468 66.5,161.5C 63.1667,161.5 59.8333,161.5 56.5,161.5C 54.1667,160.833 51.8333,160.167 49.5,159.5C 50.1667,159.5 50.8333,159.5 51.5,159.5C 54.5453,159.296 57.3787,159.296 60,159.5C 60.3845,157.803 60.2178,156.137 59.5,154.5C 60.2679,153.737 60.7679,152.737 61,151.5C 61.1922,153.577 61.6922,155.577 62.5,157.5C 64.6463,153.897 65.6463,154.563 65.5,159.5C 67.1667,159.5 68.8333,159.5 70.5,159.5C 70.5,158.167 70.5,156.833 70.5,155.5C 69.209,155.737 68.209,155.404 67.5,154.5 Z"/></g>
<g><path style="opacity:1" fill="#374a45" d="M 22.5,159.5 C 31.4613,159.574 40.4613,159.574 49.5,159.5C 51.8333,160.167 54.1667,160.833 56.5,161.5C 41.8333,161.5 27.1667,161.5 12.5,161.5C 12.2249,159.242 11.2249,158.908 9.5,160.5C 8.33719,155.198 8.17053,149.864 9,144.5C 9.49834,147.817 9.66501,151.15 9.5,154.5C 12.1094,154.83 13.7761,156.33 14.5,159C 17.146,159.497 19.8127,159.664 22.5,159.5 Z"/></g>
<g><path style="opacity:1" fill="#2e3e34" d="M 37.5,128.5 C 37.5,128.167 37.5,127.833 37.5,127.5C 38.609,127.557 39.609,127.89 40.5,128.5C 42.2143,129.738 44.2143,130.405 46.5,130.5C 48.4114,132.702 50.7447,134.369 53.5,135.5C 55.9095,136.701 57.9095,138.367 59.5,140.5C 59.5,141.167 59.8333,141.5 60.5,141.5C 60.179,144.577 61.179,146.91 63.5,148.5C 68.3938,152.693 74.0605,155.359 80.5,156.5C 80.5,154.833 80.5,153.167 80.5,151.5C 82.2133,154.197 83.88,156.864 85.5,159.5C 86.8333,159.5 88.1667,159.5 89.5,159.5C 89.5,155.5 89.5,151.5 89.5,147.5C 88.9953,143.4 88.9953,139.4 89.5,135.5C 85.2098,134.645 80.8765,134.645 76.5,135.5C 76.294,140.619 77.6274,145.286 80.5,149.5C 80.5,149.833 80.5,150.167 80.5,150.5C 79.2719,149.694 78.2719,148.694 77.5,147.5C 77.3404,145.847 76.6737,144.514 75.5,143.5C 73.8753,138.626 72.8753,133.626 72.5,128.5C 73.1667,128.833 73.8333,129.167 74.5,129.5C 74.5,130.833 74.5,132.167 74.5,133.5C 79.8333,133.5 85.1667,133.5 90.5,133.5C 90.8907,142.651 90.8907,151.984 90.5,161.5C 82.5,161.5 74.5,161.5 66.5,161.5C 72.4933,160.468 78.4933,159.635 84.5,159C 78.7238,157.903 73.0572,156.403 67.5,154.5C 65.3437,152.159 62.8437,150.159 60,148.5C 58.3364,144.173 55.5031,140.84 51.5,138.5C 50.8333,138.833 50.1667,139.167 49.5,139.5C 48.8243,138.398 48.1577,137.398 47.5,136.5C 45.2646,136.795 43.2646,136.461 41.5,135.5C 42.9778,135.762 44.3112,135.429 45.5,134.5C 42.5319,132.86 39.8652,130.86 37.5,128.5 Z"/></g>
<g><path style="opacity:1" fill="#56877e" d="M 89.5,147.5 C 89.5,151.5 89.5,155.5 89.5,159.5C 88.1667,159.5 86.8333,159.5 85.5,159.5C 83.88,156.864 82.2133,154.197 80.5,151.5C 80.5,151.167 80.5,150.833 80.5,150.5C 80.5,150.167 80.5,149.833 80.5,149.5C 81.8249,148.047 82.6582,148.381 83,150.5C 85.2585,149.62 87.4252,148.62 89.5,147.5 Z"/></g>
<g><path style="opacity:1" fill="#b4aba6" d="M 75.5,143.5 C 76.6737,144.514 77.3404,145.847 77.5,147.5C 75.2459,146.585 73.2459,145.252 71.5,143.5C 71.5,143.167 71.5,142.833 71.5,142.5C 71.56,141.957 71.8933,141.624 72.5,141.5C 73.5178,142.193 74.5178,142.859 75.5,143.5 Z"/></g>
<g><path style="opacity:1" fill="#854647" d="M 71.5,143.5 C 73.2459,145.252 75.2459,146.585 77.5,147.5C 78.2719,148.694 79.2719,149.694 80.5,150.5C 80.5,150.833 80.5,151.167 80.5,151.5C 80.5,153.167 80.5,154.833 80.5,156.5C 74.0605,155.359 68.3938,152.693 63.5,148.5C 62.4639,146.609 62.4639,144.776 63.5,143C 66.1922,142.57 68.8589,142.737 71.5,143.5 Z"/></g>
<g><path style="opacity:1" fill="#478366" d="M 89.5,147.5 C 87.4252,148.62 85.2585,149.62 83,150.5C 82.6582,148.381 81.8249,148.047 80.5,149.5C 77.6274,145.286 76.294,140.619 76.5,135.5C 80.8765,134.645 85.2098,134.645 89.5,135.5C 88.9953,139.4 88.9953,143.4 89.5,147.5 Z"/></g>
<g><path style="opacity:1" fill="#52494a" d="M 60.5,141.5 C 64.2693,141.244 67.9359,141.577 71.5,142.5C 71.5,142.833 71.5,143.167 71.5,143.5C 68.8589,142.737 66.1922,142.57 63.5,143C 62.4639,144.776 62.4639,146.609 63.5,148.5C 61.179,146.91 60.179,144.577 60.5,141.5 Z"/></g>
</svg>
