<?xml version="1.0" encoding="UTF-8"?>
<!DOCTYPE svg PUBLIC "-//W3C//DTD SVG 1.1//EN" "http://www.w3.org/Graphics/SVG/1.1/DTD/svg11.dtd">
<svg xmlns="http://www.w3.org/2000/svg" version="1.1" width="100px" height="165px" style="shape-rendering:geometricPrecision; text-rendering:geometricPrecision; image-rendering:optimizeQuality; fill-rule:evenodd; clip-rule:evenodd" xmlns:xlink="http://www.w3.org/1999/xlink">
<g><path style="opacity:1" fill="#fafaf9" d="M 1.5,-0.5 C 22.1667,-0.5 42.8333,-0.5 63.5,-0.5C 63.1667,2.5 64.5,3.83333 67.5,3.5C 67.2865,5.14387 67.6198,6.64387 68.5,8C 67.6721,8.91471 66.6721,9.58138 65.5,10C 67.1922,11.4007 67.8588,13.2341 67.5,15.5C 65.857,15.4802 64.5237,16.1468 63.5,17.5C 62.8153,19.7808 62.6487,22.1141 63,24.5C 62.296,22.273 61.1294,21.9397 59.5,23.5C 60.4726,19.2985 62.4726,15.6318 65.5,12.5C 63.9783,11.438 62.3117,10.7713 60.5,10.5C 59.2652,10.2786 58.2652,9.61191 57.5,8.5C 56.5832,9.12723 55.5832,9.46056 54.5,9.5C 52.3146,9.29644 50.3146,8.62977 48.5,7.5C 46.6368,9.61733 44.4701,9.95067 42,8.5C 40.6362,9.37067 39.4695,10.3707 38.5,11.5C 36.9102,11.6282 35.5769,12.2949 34.5,13.5C 37.9568,18.0165 40.9568,22.8498 43.5,28C 41.8152,31.638 41.1486,35.4714 41.5,39.5C 40.3509,39.7911 39.6842,40.6244 39.5,42C 39.528,43.0698 39.8614,43.9032 40.5,44.5C 40.5,44.8333 40.5,45.1667 40.5,45.5C 39.5251,47.1927 38.1918,48.6927 36.5,50C 33.3874,51.4169 30.3874,52.9169 27.5,54.5C 22.0332,56.4585 17.5332,59.7919 14,64.5C 13.6393,67.5252 13.1393,70.5252 12.5,73.5C 12.5427,74.4164 12.8761,75.0831 13.5,75.5C 13.3766,81.6003 14.0432,87.6003 15.5,93.5C 15.9321,94.7095 16.5987,95.7095 17.5,96.5C 19.9865,102.659 23.9865,107.659 29.5,111.5C 32.961,114.069 36.6277,116.403 40.5,118.5C 41.4709,119.962 41.1376,121.295 39.5,122.5C 38.8333,122.5 38.5,122.833 38.5,123.5C 37.2905,123.932 36.2905,124.599 35.5,125.5C 32.0308,127.802 29.0308,130.635 26.5,134C 24.3763,135.582 22.2096,135.749 20,134.5C 19.2828,135.044 18.7828,135.711 18.5,136.5C 17.2905,136.932 16.2905,137.599 15.5,138.5C 13.2657,139.819 11.9324,141.819 11.5,144.5C 15.8544,149.521 20.521,154.188 25.5,158.5C 42.1667,159.833 58.8333,159.833 75.5,158.5C 79.4483,154.077 83.615,149.743 88,145.5C 88.3478,143.86 87.8478,142.527 86.5,141.5C 84.4567,138.457 81.7901,136.124 78.5,134.5C 77.8333,134.5 77.1667,134.5 76.5,134.5C 73.4873,131.664 70.154,129.331 66.5,127.5C 66.0283,124.185 64.195,121.851 61,120.5C 60.3333,119.5 60.3333,118.5 61,117.5C 66.1383,114.021 71.3049,110.688 76.5,107.5C 75.5423,108.962 74.3756,110.295 73,111.5C 72.6667,113.167 72.3333,114.833 72,116.5C 70.6796,116.799 69.1796,116.966 67.5,117C 68.8333,118 68.8333,119 67.5,120C 68.4491,120.617 69.2825,120.451 70,119.5C 72.9023,121.583 74.9023,124.249 76,127.5C 76.9195,127.93 77.7528,128.264 78.5,128.5C 77.6744,129.451 77.5078,130.451 78,131.5C 79.6255,131.146 81.4588,131.146 83.5,131.5C 83.9662,133.201 83.9662,134.701 83.5,136C 87,136.833 89.1667,139 90,142.5C 90.8333,140.5 91.6667,138.5 92.5,136.5C 92.8333,136.833 93.1667,137.167 93.5,137.5C 93.6491,139.504 92.9824,141.504 91.5,143.5C 91.5288,145.029 92.1955,146.196 93.5,147C 92.0506,148.117 90.3839,148.784 88.5,149C 85.2403,152.425 82.5736,156.259 80.5,160.5C 78.5106,161.632 76.8439,162.965 75.5,164.5C 51.1667,164.5 26.8333,164.5 2.5,164.5C 2.1714,153.883 2.83806,143.383 4.5,133C 2.52694,113.837 1.86027,94.8367 2.5,76C 3.16667,74.6667 3.83333,73.3333 4.5,72C 3.78342,67.0465 3.11675,62.0465 2.5,57C 3.34419,50.2313 3.67752,43.398 3.5,36.5C 3.63897,34.1175 2.97231,32.1175 1.5,30.5C 1.5,20.1667 1.5,9.83333 1.5,-0.5 Z"/></g>
<g><path style="opacity:1" fill="#fcfcfb" d="M 63.5,-0.5 C 75.5,-0.5 87.5,-0.5 99.5,-0.5C 99.5,54.5 99.5,109.5 99.5,164.5C 91.5,164.5 83.5,164.5 75.5,164.5C 76.8439,162.965 78.5106,161.632 80.5,160.5C 82.5736,156.259 85.2403,152.425 88.5,149C 90.3839,148.784 92.0506,148.117 93.5,147C 92.1955,146.196 91.5288,145.029 91.5,143.5C 92.9824,141.504 93.6491,139.504 93.5,137.5C 93.1667,137.167 92.8333,136.833 92.5,136.5C 91.6667,138.5 90.8333,140.5 90,142.5C 89.1667,139 87,136.833 83.5,136C 83.9662,134.701 83.9662,133.201 83.5,131.5C 81.4588,131.146 79.6255,131.146 78,131.5C 77.5078,130.451 77.6744,129.451 78.5,128.5C 77.7528,128.264 76.9195,127.93 76,127.5C 74.9023,124.249 72.9023,121.583 70,119.5C 69.2825,120.451 68.4491,120.617 67.5,120C 68.8333,119 68.8333,118 67.5,117C 69.1796,116.966 70.6796,116.799 72,116.5C 72.3333,114.833 72.6667,113.167 73,111.5C 74.3756,110.295 75.5423,108.962 76.5,107.5C 81.4624,101.575 84.7958,94.9085 86.5,87.5C 87.8333,79.8333 87.8333,72.1667 86.5,64.5C 85.3508,59.7777 82.3508,57.111 77.5,56.5C 73.8229,54.9873 70.1562,53.3206 66.5,51.5C 62.4118,49.4133 60.4118,46.08 60.5,41.5C 59.759,39.6458 58.759,37.9791 57.5,36.5C 57.3239,33.2727 56.6572,30.2727 55.5,27.5C 55.5,27.1667 55.5,26.8333 55.5,26.5C 57.1405,25.853 58.4739,24.853 59.5,23.5C 61.1294,21.9397 62.296,22.273 63,24.5C 62.6487,22.1141 62.8153,19.7808 63.5,17.5C 64.5237,16.1468 65.857,15.4802 67.5,15.5C 67.8588,13.2341 67.1922,11.4007 65.5,10C 66.6721,9.58138 67.6721,8.91471 68.5,8C 67.6198,6.64387 67.2865,5.14387 67.5,3.5C 64.5,3.83333 63.1667,2.5 63.5,-0.5 Z"/></g>
<g><path style="opacity:1" fill="#897447" d="M 48.5,7.5 C 50.3146,8.62977 52.3146,9.29644 54.5,9.5C 53.7822,11.1368 53.6155,12.8034 54,14.5C 55.5069,13.4652 57.0069,13.6319 58.5,15C 56.2102,15.7904 55.8769,17.1237 57.5,19C 57.3613,20.301 56.6946,21.1344 55.5,21.5C 55.7953,19.565 55.2953,17.565 54,15.5C 53.0201,17.0589 52.1867,18.7256 51.5,20.5C 50.2736,21.3629 48.9403,21.3629 47.5,20.5C 46.118,20.5978 44.618,20.5978 43,20.5C 40.5511,17.0881 41.3844,14.7548 45.5,13.5C 46.1667,13.8333 46.8333,14.1667 47.5,14.5C 46.5,15.3333 45.5,16.1667 44.5,17C 46.8127,17.662 49.146,18.162 51.5,18.5C 51.2924,16.0799 51.6258,13.7466 52.5,11.5C 52.1667,11.1667 51.8333,10.8333 51.5,10.5C 50.8333,12.5 50.1667,14.5 49.5,16.5C 48.876,13.4229 48.5427,10.4229 48.5,7.5 Z"/></g>
<g><path style="opacity:1" fill="#847264" d="M 38.5,11.5 C 39.5,11.5 40.5,11.5 41.5,11.5C 41.3739,13.1998 40.7073,14.6998 39.5,16C 40.4721,18.1113 41.3054,20.2779 42,22.5C 43.6995,23.4061 45.5328,23.7394 47.5,23.5C 46.791,24.404 45.791,24.7373 44.5,24.5C 44.1568,26.4832 44.8235,27.8166 46.5,28.5C 44.0216,31.3291 43.0216,34.6625 43.5,38.5C 42.8333,38.8333 42.1667,39.1667 41.5,39.5C 41.1486,35.4714 41.8152,31.638 43.5,28C 40.9568,22.8498 37.9568,18.0165 34.5,13.5C 35.5769,12.2949 36.9102,11.6282 38.5,11.5 Z"/></g>
<g><path style="opacity:1" fill="#c7b18c" d="M 48.5,7.5 C 48.5427,10.4229 48.876,13.4229 49.5,16.5C 50.1667,14.5 50.8333,12.5 51.5,10.5C 51.8333,10.8333 52.1667,11.1667 52.5,11.5C 51.6258,13.7466 51.2924,16.0799 51.5,18.5C 49.146,18.162 46.8127,17.662 44.5,17C 45.5,16.1667 46.5,15.3333 47.5,14.5C 46.8333,14.1667 46.1667,13.8333 45.5,13.5C 41.3844,14.7548 40.5511,17.0881 43,20.5C 44.618,20.5978 46.118,20.5978 47.5,20.5C 48.1098,21.391 48.4431,22.391 48.5,23.5C 48.1667,23.5 47.8333,23.5 47.5,23.5C 45.5328,23.7394 43.6995,23.4061 42,22.5C 41.3054,20.2779 40.4721,18.1113 39.5,16C 40.7073,14.6998 41.3739,13.1998 41.5,11.5C 40.5,11.5 39.5,11.5 38.5,11.5C 39.4695,10.3707 40.6362,9.37067 42,8.5C 44.4701,9.95067 46.6368,9.61733 48.5,7.5 Z"/></g>
<g><path style="opacity:1" fill="#cfc49a" d="M 60.5,10.5 C 59.9094,11.1515 59.2427,11.8182 58.5,12.5C 59.3966,12.6691 60.3966,13.0024 61.5,13.5C 60.1813,16.4423 59.0146,19.4423 58,22.5C 57.2917,23.3805 56.4584,24.0472 55.5,24.5C 55.5,23.5 55.5,22.5 55.5,21.5C 56.6946,21.1344 57.3613,20.301 57.5,19C 55.8769,17.1237 56.2102,15.7904 58.5,15C 57.0069,13.6319 55.5069,13.4652 54,14.5C 53.6155,12.8034 53.7822,11.1368 54.5,9.5C 55.5832,9.46056 56.5832,9.12723 57.5,8.5C 58.2652,9.61191 59.2652,10.2786 60.5,10.5 Z"/></g>
<g><path style="opacity:1" fill="#68644b" d="M 60.5,10.5 C 62.3117,10.7713 63.9783,11.438 65.5,12.5C 62.4726,15.6318 60.4726,19.2985 59.5,23.5C 58.4739,24.853 57.1405,25.853 55.5,26.5C 55.5,25.8333 55.5,25.1667 55.5,24.5C 56.4584,24.0472 57.2917,23.3805 58,22.5C 59.0146,19.4423 60.1813,16.4423 61.5,13.5C 60.3966,13.0024 59.3966,12.6691 58.5,12.5C 59.2427,11.8182 59.9094,11.1515 60.5,10.5 Z"/></g>
<g><path style="opacity:1" fill="#d4bf7a" d="M 55.5,21.5 C 55.5,22.5 55.5,23.5 55.5,24.5C 53.283,23.6314 50.9496,23.298 48.5,23.5C 48.4431,22.391 48.1098,21.391 47.5,20.5C 48.9403,21.3629 50.2736,21.3629 51.5,20.5C 52.1867,18.7256 53.0201,17.0589 54,15.5C 55.2953,17.565 55.7953,19.565 55.5,21.5 Z"/></g>
<g><path style="opacity:1" fill="#5b341e" d="M 47.5,23.5 C 47.8333,23.5 48.1667,23.5 48.5,23.5C 50.9496,23.298 53.283,23.6314 55.5,24.5C 55.5,25.1667 55.5,25.8333 55.5,26.5C 55.5,26.8333 55.5,27.1667 55.5,27.5C 55.44,28.0431 55.1067,28.3764 54.5,28.5C 51.7563,25.8761 49.0896,25.8761 46.5,28.5C 44.8235,27.8166 44.1568,26.4832 44.5,24.5C 45.791,24.7373 46.791,24.404 47.5,23.5 Z"/></g>
<g><path style="opacity:1" fill="#a04d53" d="M 55.5,27.5 C 56.6572,30.2727 57.3239,33.2727 57.5,36.5C 56.596,37.209 56.2627,38.209 56.5,39.5C 52.1018,39.7059 47.7685,39.3726 43.5,38.5C 43.0216,34.6625 44.0216,31.3291 46.5,28.5C 49.0896,25.8761 51.7563,25.8761 54.5,28.5C 55.1067,28.3764 55.44,28.0431 55.5,27.5 Z"/></g>
<g><path style="opacity:1" fill="#554a5e" d="M 57.5,36.5 C 58.759,37.9791 59.759,39.6458 60.5,41.5C 59.3478,40.375 58.3478,40.375 57.5,41.5C 52.5,41.5 47.5,41.5 42.5,41.5C 40.9519,41.8212 40.2852,42.8212 40.5,44.5C 39.8614,43.9032 39.528,43.0698 39.5,42C 39.6842,40.6244 40.3509,39.7911 41.5,39.5C 42.1667,39.1667 42.8333,38.8333 43.5,38.5C 47.7685,39.3726 52.1018,39.7059 56.5,39.5C 56.2627,38.209 56.596,37.209 57.5,36.5 Z"/></g>
<g><path style="opacity:1" fill="#393a37" d="M 60.5,41.5 C 60.4118,46.08 62.4118,49.4133 66.5,51.5C 67.0522,53.3307 67.0522,54.9974 66.5,56.5C 65.3216,52.8299 63.1549,49.8299 60,47.5C 59.805,48.8193 59.9717,50.1526 60.5,51.5C 58.7202,50.0101 58.0535,48.0101 58.5,45.5C 56.5,45.5 54.5,45.5 52.5,45.5C 49.5,45.5 46.5,45.5 43.5,45.5C 42.5,45.5 41.5,45.5 40.5,45.5C 40.5,45.1667 40.5,44.8333 40.5,44.5C 40.2852,42.8212 40.9519,41.8212 42.5,41.5C 42.5774,42.7498 43.244,43.5831 44.5,44C 48.8206,44.499 53.1539,44.6657 57.5,44.5C 57.5,43.5 57.5,42.5 57.5,41.5C 58.3478,40.375 59.3478,40.375 60.5,41.5 Z"/></g>
<g><path style="opacity:1" fill="#587987" d="M 42.5,41.5 C 47.5,41.5 52.5,41.5 57.5,41.5C 57.5,42.5 57.5,43.5 57.5,44.5C 53.1539,44.6657 48.8206,44.499 44.5,44C 43.244,43.5831 42.5774,42.7498 42.5,41.5 Z"/></g>
<g><path style="opacity:1" fill="#965055" d="M 43.5,45.5 C 46.5,45.5 49.5,45.5 52.5,45.5C 52.5,45.8333 52.5,46.1667 52.5,46.5C 50.5328,46.2606 48.6995,46.5939 47,47.5C 46.4028,50.9578 45.4028,54.2912 44,57.5C 43.6232,58.9423 42.7899,59.9423 41.5,60.5C 38.8315,61.0989 36.9982,62.7656 36,65.5C 35.6012,65.2716 35.4346,64.9382 35.5,64.5C 37.3623,60.4582 39.8623,56.7916 43,53.5C 43.4828,52.552 43.6495,51.552 43.5,50.5C 43.5,48.8333 43.5,47.1667 43.5,45.5 Z"/></g>
<g><path style="opacity:1" fill="#4e3331" d="M 52.5,46.5 C 52.5,46.1667 52.5,45.8333 52.5,45.5C 54.5,45.5 56.5,45.5 58.5,45.5C 58.0535,48.0101 58.7202,50.0101 60.5,51.5C 62.4803,52.8475 63.647,54.8475 64,57.5C 65.8778,58.0527 67.3778,59.0527 68.5,60.5C 69.449,62.7373 70.1156,65.0706 70.5,67.5C 70.7678,69.099 70.4345,70.4324 69.5,71.5C 69.6621,69.4727 69.4955,67.4727 69,65.5C 67.1217,63.9571 65.6217,62.1238 64.5,60C 62.641,59.3161 60.9743,58.3161 59.5,57C 59.8333,56.6667 60.1667,56.3333 60.5,56C 59.6006,54.3484 58.6006,52.8484 57.5,51.5C 57.8383,47.8493 56.1716,46.1826 52.5,46.5 Z"/></g>
<g><path style="opacity:1" fill="#a73f44" d="M 52.5,46.5 C 56.1716,46.1826 57.8383,47.8493 57.5,51.5C 56.7822,53.1368 56.6155,54.8034 57,56.5C 57.3333,55.8333 57.6667,55.1667 58,54.5C 58.0726,58.6453 59.7393,61.9786 63,64.5C 63.7494,65.635 63.5827,66.635 62.5,67.5C 60.1793,64.1757 57.846,60.8424 55.5,57.5C 54.6964,59.7638 55.3631,61.7638 57.5,63.5C 57,64.5 56.5,65.5 56,66.5C 54.2995,61.9186 52.4662,57.5853 50.5,53.5C 49.5798,52.9326 49.2465,53.5992 49.5,55.5C 48.7784,55.9175 48.2784,56.5842 48,57.5C 47.6667,56.5 47.3333,55.5 47,54.5C 44.9453,60.2774 42.112,65.6108 38.5,70.5C 38.1667,70.1667 37.8333,69.8333 37.5,69.5C 39.6582,66.8515 40.9916,63.8515 41.5,60.5C 42.7899,59.9423 43.6232,58.9423 44,57.5C 45.4028,54.2912 46.4028,50.9578 47,47.5C 48.6995,46.5939 50.5328,46.2606 52.5,46.5 Z"/></g>
<g><path style="opacity:1" fill="#45564b" d="M 66.5,51.5 C 70.1562,53.3206 73.8229,54.9873 77.5,56.5C 76.448,56.3505 75.448,56.5172 74.5,57C 76.3416,58.3435 78.0083,59.8435 79.5,61.5C 79.1667,61.8333 78.8333,62.1667 78.5,62.5C 77.1311,60.876 75.4645,60.376 73.5,61C 75.5,62.3333 77.5,63.6667 79.5,65C 77.4473,65.3247 75.4473,64.9913 73.5,64C 71.9354,62.5881 70.2687,61.4214 68.5,60.5C 67.3778,59.0527 65.8778,58.0527 64,57.5C 63.647,54.8475 62.4803,52.8475 60.5,51.5C 59.9717,50.1526 59.805,48.8193 60,47.5C 63.1549,49.8299 65.3216,52.8299 66.5,56.5C 67.0522,54.9974 67.0522,53.3307 66.5,51.5 Z"/></g>
<g><path style="opacity:1" fill="#537161" d="M 27.5,54.5 C 26.5707,55.3149 25.5707,56.1482 24.5,57C 26.8776,57.9745 26.5443,58.6411 23.5,59C 24.9561,59.4226 25.4561,60.2559 25,61.5C 23.9264,62.6184 22.7598,63.6184 21.5,64.5C 23.8433,65.7253 25.6766,65.0586 27,62.5C 27.4828,63.448 27.6495,64.448 27.5,65.5C 25.9743,66.1047 24.9743,67.2714 24.5,69C 21.3036,69.3958 18.4703,70.5625 16,72.5C 15.6667,71.5 15.3333,70.5 15,69.5C 14.187,71.4357 13.687,73.4357 13.5,75.5C 12.8761,75.0831 12.5427,74.4164 12.5,73.5C 13.1393,70.5252 13.6393,67.5252 14,64.5C 17.5332,59.7919 22.0332,56.4585 27.5,54.5 Z"/></g>
<g><path style="opacity:1" fill="#3f5649" d="M 40.5,45.5 C 41.5,45.5 42.5,45.5 43.5,45.5C 43.5,47.1667 43.5,48.8333 43.5,50.5C 39.4764,55.5189 35.4764,60.5189 31.5,65.5C 30.1667,65.5 28.8333,65.5 27.5,65.5C 27.6495,64.448 27.4828,63.448 27,62.5C 25.6766,65.0586 23.8433,65.7253 21.5,64.5C 22.7598,63.6184 23.9264,62.6184 25,61.5C 25.4561,60.2559 24.9561,59.4226 23.5,59C 26.5443,58.6411 26.8776,57.9745 24.5,57C 25.5707,56.1482 26.5707,55.3149 27.5,54.5C 30.3874,52.9169 33.3874,51.4169 36.5,50C 38.1918,48.6927 39.5251,47.1927 40.5,45.5 Z"/></g>
<g><path style="opacity:1" fill="#492e2c" d="M 43.5,50.5 C 43.6495,51.552 43.4828,52.552 43,53.5C 39.8623,56.7916 37.3623,60.4582 35.5,64.5C 34.1667,65.5 32.8333,66.5 31.5,67.5C 31.5,66.8333 31.5,66.1667 31.5,65.5C 35.4764,60.5189 39.4764,55.5189 43.5,50.5 Z"/></g>
<g><path style="opacity:1" fill="#363c34" d="M 77.5,56.5 C 82.3508,57.111 85.3508,59.7777 86.5,64.5C 86.6633,66.8568 86.4966,69.1902 86,71.5C 84.9887,72.3366 83.8221,72.67 82.5,72.5C 81.5,72.5 80.5,72.5 79.5,72.5C 78.8333,72.1667 78.1667,71.8333 77.5,71.5C 75.5659,70.8897 73.8993,69.8897 72.5,68.5C 72.1583,67.6618 71.4916,67.3284 70.5,67.5C 70.1156,65.0706 69.449,62.7373 68.5,60.5C 70.2687,61.4214 71.9354,62.5881 73.5,64C 75.4473,64.9913 77.4473,65.3247 79.5,65C 77.5,63.6667 75.5,62.3333 73.5,61C 75.4645,60.376 77.1311,60.876 78.5,62.5C 78.8333,62.1667 79.1667,61.8333 79.5,61.5C 78.0083,59.8435 76.3416,58.3435 74.5,57C 75.448,56.5172 76.448,56.3505 77.5,56.5 Z"/></g>
<g><path style="opacity:1" fill="#603121" d="M 50.5,53.5 C 50.804,56.5219 51.304,59.5219 52,62.5C 53.4317,66.3772 55.5984,69.7105 58.5,72.5C 58.1034,73.525 57.4368,73.6917 56.5,73C 53.4565,70.4067 51.2899,67.24 50,63.5C 49.4005,65.9096 48.2338,67.9096 46.5,69.5C 47.2488,64.7545 48.2488,60.0878 49.5,55.5C 49.2465,53.5992 49.5798,52.9326 50.5,53.5 Z"/></g>
<g><path style="opacity:1" fill="#ad967d" d="M 72.5,68.5 C 73.8993,69.8897 75.5659,70.8897 77.5,71.5C 74.8771,71.6649 72.5438,72.1649 70.5,73C 71.0989,71.3775 71.7656,69.8775 72.5,68.5 Z"/></g>
<g><path style="opacity:1" fill="#b95a5c" d="M 49.5,55.5 C 48.2488,60.0878 47.2488,64.7545 46.5,69.5C 43.4464,72.1878 39.7797,73.5212 35.5,73.5C 34.5,72.8333 33.5,72.1667 32.5,71.5C 31.5655,70.4324 31.2322,69.099 31.5,67.5C 32.8333,66.5 34.1667,65.5 35.5,64.5C 35.4346,64.9382 35.6012,65.2716 36,65.5C 36.9982,62.7656 38.8315,61.0989 41.5,60.5C 40.9916,63.8515 39.6582,66.8515 37.5,69.5C 37.8333,69.8333 38.1667,70.1667 38.5,70.5C 42.112,65.6108 44.9453,60.2774 47,54.5C 47.3333,55.5 47.6667,56.5 48,57.5C 48.2784,56.5842 48.7784,55.9175 49.5,55.5 Z"/></g>
<g><path style="opacity:1" fill="#b45856" d="M 57.5,51.5 C 58.6006,52.8484 59.6006,54.3484 60.5,56C 60.1667,56.3333 59.8333,56.6667 59.5,57C 60.9743,58.3161 62.641,59.3161 64.5,60C 65.6217,62.1238 67.1217,63.9571 69,65.5C 69.4955,67.4727 69.6621,69.4727 69.5,71.5C 66.7623,71.8511 64.0956,72.5178 61.5,73.5C 60.5832,72.8728 59.5832,72.5394 58.5,72.5C 55.5984,69.7105 53.4317,66.3772 52,62.5C 51.304,59.5219 50.804,56.5219 50.5,53.5C 52.4662,57.5853 54.2995,61.9186 56,66.5C 56.5,65.5 57,64.5 57.5,63.5C 55.3631,61.7638 54.6964,59.7638 55.5,57.5C 57.846,60.8424 60.1793,64.1757 62.5,67.5C 63.5827,66.635 63.7494,65.635 63,64.5C 59.7393,61.9786 58.0726,58.6453 58,54.5C 57.6667,55.1667 57.3333,55.8333 57,56.5C 56.6155,54.8034 56.7822,53.1368 57.5,51.5 Z"/></g>
<g><path style="opacity:1" fill="#fafef3" d="M 1.5,30.5 C 2.97231,32.1175 3.63897,34.1175 3.5,36.5C 3.67752,43.398 3.34419,50.2313 2.5,57C 3.11675,62.0465 3.78342,67.0465 4.5,72C 3.83333,73.3333 3.16667,74.6667 2.5,76C 1.86027,94.8367 2.52694,113.837 4.5,133C 2.83806,143.383 2.1714,153.883 2.5,164.5C 2.16667,164.5 1.83333,164.5 1.5,164.5C 1.03564,119.824 1.03564,75.1578 1.5,30.5 Z"/></g>
<g><path style="opacity:1" fill="#71716c" d="M 86.5,64.5 C 87.8333,72.1667 87.8333,79.8333 86.5,87.5C 86.6655,83.4862 86.4988,79.4862 86,75.5C 85.2904,74.0267 84.1238,73.3601 82.5,73.5C 82.5,73.1667 82.5,72.8333 82.5,72.5C 83.8221,72.67 84.9887,72.3366 86,71.5C 86.4966,69.1902 86.6633,66.8568 86.5,64.5 Z"/></g>
<g><path style="opacity:1" fill="#876946" d="M 70.5,67.5 C 71.4916,67.3284 72.1583,67.6618 72.5,68.5C 71.7656,69.8775 71.0989,71.3775 70.5,73C 72.5438,72.1649 74.8771,71.6649 77.5,71.5C 78.1667,71.8333 78.8333,72.1667 79.5,72.5C 76.4405,73.4256 73.2738,74.4256 70,75.5C 69.5,75.1667 69,74.8333 68.5,74.5C 69.1272,73.5832 69.4606,72.5832 69.5,71.5C 70.4345,70.4324 70.7678,69.099 70.5,67.5 Z"/></g>
<g><path style="opacity:1" fill="#a58c6d" d="M 32.5,71.5 C 33.5,72.1667 34.5,72.8333 35.5,73.5C 34.9218,75.3802 33.5885,76.3802 31.5,76.5C 28.8459,75.7325 26.1792,75.5658 23.5,76C 24.056,76.3826 24.3893,76.8826 24.5,77.5C 21.4606,76.99 18.4606,76.3234 15.5,75.5C 14.2267,74.9232 14.2267,74.2565 15.5,73.5C 17.7676,74.5443 20.1009,74.711 22.5,74C 24.7798,71.6963 27.4464,70.1963 30.5,69.5C 30.372,71.6547 30.872,73.6547 32,75.5C 32.49,74.2068 32.6567,72.8734 32.5,71.5 Z"/></g>
<g><path style="opacity:1" fill="#64563c" d="M 15.5,75.5 C 18.4606,76.3234 21.4606,76.99 24.5,77.5C 25.791,77.2627 26.791,77.596 27.5,78.5C 24.7277,78.5952 22.7277,79.9285 21.5,82.5C 19.7048,79.8528 17.7048,77.5195 15.5,75.5 Z"/></g>
<g><path style="opacity:1" fill="#be9b73" d="M 58.5,72.5 C 59.5832,72.5394 60.5832,72.8728 61.5,73.5C 64.0956,72.5178 66.7623,71.8511 69.5,71.5C 69.4606,72.5832 69.1272,73.5832 68.5,74.5C 69,74.8333 69.5,75.1667 70,75.5C 73.2738,74.4256 76.4405,73.4256 79.5,72.5C 80.5,72.5 81.5,72.5 82.5,72.5C 82.5,72.8333 82.5,73.1667 82.5,73.5C 81.1667,74.1667 79.8333,74.8333 78.5,75.5C 70.2564,77.1478 61.9231,78.1478 53.5,78.5C 45.1667,78.5 36.8333,78.5 28.5,78.5C 28.1667,78.5 27.8333,78.5 27.5,78.5C 26.791,77.596 25.791,77.2627 24.5,77.5C 24.3893,76.8826 24.056,76.3826 23.5,76C 26.1792,75.5658 28.8459,75.7325 31.5,76.5C 33.5885,76.3802 34.9218,75.3802 35.5,73.5C 39.7797,73.5212 43.4464,72.1878 46.5,69.5C 48.2338,67.9096 49.4005,65.9096 50,63.5C 51.2899,67.24 53.4565,70.4067 56.5,73C 57.4368,73.6917 58.1034,73.525 58.5,72.5 Z"/></g>
<g><path style="opacity:1" fill="#886534" d="M 49.5,68.5 C 51.5,69.976 53.1666,71.8094 54.5,74C 56.7765,75.142 59.1099,75.642 61.5,75.5C 54.8333,76.8333 48.1667,76.8333 41.5,75.5C 42.2421,74.7132 43.0754,74.0465 44,73.5C 45.1531,75.497 46.6531,75.8304 48.5,74.5C 48.2907,73.914 47.9574,73.414 47.5,73C 48.5822,71.6703 49.2488,70.1703 49.5,68.5 Z"/></g>
<g><path style="opacity:1" fill="#8a7b53" d="M 28.5,79.5 C 28.5,79.1667 28.5,78.8333 28.5,78.5C 36.8333,78.5 45.1667,78.5 53.5,78.5C 54.9179,80.3079 56.9179,80.9746 59.5,80.5C 58.9688,82.5441 57.8022,84.2107 56,85.5C 53.7608,82.3921 50.9275,80.3921 47.5,79.5C 47.7373,80.791 47.404,81.791 46.5,82.5C 45.0821,80.6921 43.0821,80.0254 40.5,80.5C 38.3166,79.1566 36.3166,79.49 34.5,81.5C 32.7857,80.2616 30.7857,79.595 28.5,79.5 Z"/></g>
<g><path style="opacity:1" fill="#72522e" d="M 78.5,75.5 C 80.688,77.0923 80.688,78.4257 78.5,79.5C 76.8957,79.0609 75.3957,78.3943 74,77.5C 72.9701,77.8361 72.4701,78.5028 72.5,79.5C 70.4465,78.8502 67.7798,78.8502 64.5,79.5C 62.5853,79.2155 60.9187,79.5489 59.5,80.5C 56.9179,80.9746 54.9179,80.3079 53.5,78.5C 61.9231,78.1478 70.2564,77.1478 78.5,75.5 Z"/></g>
<g><path style="opacity:1" fill="#3a4c31" d="M 40.5,80.5 C 41.4663,82.0568 42.7996,83.3901 44.5,84.5C 45.5223,84.1445 46.189,83.4778 46.5,82.5C 47.404,81.791 47.7373,80.791 47.5,79.5C 50.9275,80.3921 53.7608,82.3921 56,85.5C 57.8022,84.2107 58.9688,82.5441 59.5,80.5C 60.9187,79.5489 62.5853,79.2155 64.5,79.5C 66.0874,82.7833 68.4207,84.1166 71.5,83.5C 70.8444,84.2778 70.0111,84.9444 69,85.5C 67.3435,84.5159 65.6768,83.5159 64,82.5C 63.6292,91.4971 61.9626,92.1638 59,84.5C 58.4115,86.8633 56.9115,87.8633 54.5,87.5C 52.704,81.9995 50.0373,81.3328 46.5,85.5C 44.8333,86.8333 43.1667,86.8333 41.5,85.5C 40.343,83.8624 39.1764,82.1957 38,80.5C 36.9609,81.7101 35.7942,82.7101 34.5,83.5C 34.5,82.8333 34.5,82.1667 34.5,81.5C 36.3166,79.49 38.3166,79.1566 40.5,80.5 Z"/></g>
<g><path style="opacity:1" fill="#a19a82" d="M 28.5,79.5 C 30.7857,79.595 32.7857,80.2616 34.5,81.5C 34.5,82.1667 34.5,82.8333 34.5,83.5C 31.3241,84.372 29.3241,83.0387 28.5,79.5 Z"/></g>
<g><path style="opacity:1" fill="#7c7b67" d="M 72.5,79.5 C 73.9587,79.4326 75.2921,79.7659 76.5,80.5C 76.7192,84.5274 75.5525,85.1941 73,82.5C 72.6012,82.7284 72.4346,83.0618 72.5,83.5C 72.1667,83.5 71.8333,83.5 71.5,83.5C 68.4207,84.1166 66.0874,82.7833 64.5,79.5C 67.7798,78.8502 70.4465,78.8502 72.5,79.5 Z"/></g>
<g><path style="opacity:1" fill="#9b9a83" d="M 40.5,80.5 C 43.0821,80.0254 45.0821,80.6921 46.5,82.5C 46.189,83.4778 45.5223,84.1445 44.5,84.5C 42.7996,83.3901 41.4663,82.0568 40.5,80.5 Z"/></g>
<g><path style="opacity:1" fill="#4b7155" d="M 41.5,85.5 C 39.3731,86.3976 38.2065,88.0643 38,90.5C 36.5415,88.5681 35.3748,86.5681 34.5,84.5C 34.5,84.1667 34.5,83.8333 34.5,83.5C 35.7942,82.7101 36.9609,81.7101 38,80.5C 39.1764,82.1957 40.343,83.8624 41.5,85.5 Z"/></g>
<g><path style="opacity:1" fill="#618b70" d="M 29.5,85.5 C 28.2915,88.5215 26.9582,88.8549 25.5,86.5C 24.1014,78.8755 25.4347,78.5421 29.5,85.5 Z"/></g>
<g><path style="opacity:1" fill="#343d30" d="M 27.5,65.5 C 28.8333,65.5 30.1667,65.5 31.5,65.5C 31.5,66.1667 31.5,66.8333 31.5,67.5C 31.2322,69.099 31.5655,70.4324 32.5,71.5C 32.6567,72.8734 32.49,74.2068 32,75.5C 30.872,73.6547 30.372,71.6547 30.5,69.5C 27.4464,70.1963 24.7798,71.6963 22.5,74C 20.1009,74.711 17.7676,74.5443 15.5,73.5C 14.2267,74.2565 14.2267,74.9232 15.5,75.5C 17.7048,77.5195 19.7048,79.8528 21.5,82.5C 22.7277,79.9285 24.7277,78.5952 27.5,78.5C 27.8333,78.5 28.1667,78.5 28.5,78.5C 28.5,78.8333 28.5,79.1667 28.5,79.5C 29.3241,83.0387 31.3241,84.372 34.5,83.5C 34.5,83.8333 34.5,84.1667 34.5,84.5C 33.2524,86.69 31.5857,87.0234 29.5,85.5C 25.4347,78.5421 24.1014,78.8755 25.5,86.5C 23.8754,86.1072 22.0421,86.1072 20,86.5C 19.7811,85.062 19.2811,83.7287 18.5,82.5C 16.6692,87.1306 17.6692,90.7973 21.5,93.5C 19.7411,93.9539 17.7411,93.9539 15.5,93.5C 14.0432,87.6003 13.3766,81.6003 13.5,75.5C 13.687,73.4357 14.187,71.4357 15,69.5C 15.3333,70.5 15.6667,71.5 16,72.5C 18.4703,70.5625 21.3036,69.3958 24.5,69C 24.9743,67.2714 25.9743,66.1047 27.5,65.5 Z"/></g>
<g><path style="opacity:1" fill="#399467" d="M 25.5,86.5 C 26.9582,88.8549 28.2915,88.5215 29.5,85.5C 31.5857,87.0234 33.2524,86.69 34.5,84.5C 35.3748,86.5681 36.5415,88.5681 38,90.5C 38.2065,88.0643 39.3731,86.3976 41.5,85.5C 43.1667,86.8333 44.8333,86.8333 46.5,85.5C 47.6751,86.9738 48.6751,88.6404 49.5,90.5C 50.3857,89.675 50.719,88.675 50.5,87.5C 51.8333,87.5 53.1667,87.5 54.5,87.5C 56.9115,87.8633 58.4115,86.8633 59,84.5C 61.9626,92.1638 63.6292,91.4971 64,82.5C 65.6768,83.5159 67.3435,84.5159 69,85.5C 70.0111,84.9444 70.8444,84.2778 71.5,83.5C 71.8333,83.5 72.1667,83.5 72.5,83.5C 72.8567,85.5891 73.5233,87.5891 74.5,89.5C 75.7541,87.4622 77.4208,85.7956 79.5,84.5C 80.8676,87.0677 80.5342,89.4011 78.5,91.5C 75.4871,92.1328 72.6538,93.1328 70,94.5C 68.0767,93.1981 66.2434,93.3648 64.5,95C 53.2949,95.3906 42.2949,95.5573 31.5,95.5C 28.3707,93.2121 25.0373,92.5454 21.5,93.5C 17.6692,90.7973 16.6692,87.1306 18.5,82.5C 19.2811,83.7287 19.7811,85.062 20,86.5C 22.0421,86.1072 23.8754,86.1072 25.5,86.5 Z"/></g>
<g><path style="opacity:1" fill="#4a7657" d="M 54.5,87.5 C 53.1667,87.5 51.8333,87.5 50.5,87.5C 50.719,88.675 50.3857,89.675 49.5,90.5C 48.6751,88.6404 47.6751,86.9738 46.5,85.5C 50.0373,81.3328 52.704,81.9995 54.5,87.5 Z"/></g>
<g><path style="opacity:1" fill="#436e4f" d="M 76.5,80.5 C 81.1463,79.8291 83.1463,81.8291 82.5,86.5C 82.6302,91.3676 80.2969,94.0343 75.5,94.5C 73.0968,94.393 71.2635,95.393 70,97.5C 68.0388,95.4197 65.8722,95.0863 63.5,96.5C 62.5084,96.3284 61.8417,96.6618 61.5,97.5C 60.8333,97.1667 60.1667,96.8333 59.5,96.5C 55.2984,96.1832 51.2984,96.5166 47.5,97.5C 45.5,97.8333 43.5,98.1667 41.5,98.5C 41.1667,98.5 40.8333,98.5 40.5,98.5C 39.6522,97.375 38.6522,97.375 37.5,98.5C 36.216,96.3862 34.216,95.3862 31.5,95.5C 42.2949,95.5573 53.2949,95.3906 64.5,95C 66.2434,93.3648 68.0767,93.1981 70,94.5C 72.6538,93.1328 75.4871,92.1328 78.5,91.5C 80.5342,89.4011 80.8676,87.0677 79.5,84.5C 77.4208,85.7956 75.7541,87.4622 74.5,89.5C 73.5233,87.5891 72.8567,85.5891 72.5,83.5C 72.4346,83.0618 72.6012,82.7284 73,82.5C 75.5525,85.1941 76.7192,84.5274 76.5,80.5 Z"/></g>
<g><path style="opacity:1" fill="#5c6554" d="M 31.5,95.5 C 34.216,95.3862 36.216,96.3862 37.5,98.5C 36.609,97.8902 35.609,97.5569 34.5,97.5C 34.1667,97.5 33.8333,97.5 33.5,97.5C 33.44,96.9569 33.1067,96.6236 32.5,96.5C 31.3777,97.6302 30.0443,98.2969 28.5,98.5C 27.5,97.8333 26.5,97.1667 25.5,96.5C 25.5,95.1667 24.8333,94.5 23.5,94.5C 21.6408,96.3995 19.6408,97.0662 17.5,96.5C 16.5987,95.7095 15.9321,94.7095 15.5,93.5C 17.7411,93.9539 19.7411,93.9539 21.5,93.5C 25.0373,92.5454 28.3707,93.2121 31.5,95.5 Z"/></g>
<g><path style="opacity:1" fill="#68735f" d="M 47.5,97.5 C 51.2984,96.5166 55.2984,96.1832 59.5,96.5C 59.5,96.8333 59.5,97.1667 59.5,97.5C 58.0181,100.688 57.0181,104.021 56.5,107.5C 55.6438,104.542 55.4771,101.542 56,98.5C 54.5944,99.6682 53.4277,99.3348 52.5,97.5C 51.7025,97.9569 51.3691,98.6236 51.5,99.5C 50.8333,99.1667 50.1667,98.8333 49.5,98.5C 49.1583,97.6618 48.4916,97.3284 47.5,97.5 Z"/></g>
<g><path style="opacity:1" fill="#32251e" d="M 25.5,96.5 C 26.5,97.1667 27.5,97.8333 28.5,98.5C 29.5025,100.011 30.1692,101.678 30.5,103.5C 30.6495,104.552 30.4828,105.552 30,106.5C 28.8595,104.967 27.6928,103.3 26.5,101.5C 25.962,99.8828 25.6287,98.2161 25.5,96.5 Z"/></g>
<g><path style="opacity:1" fill="#5b5948" d="M 74.5,105.5 C 74.6309,104.624 74.2975,103.957 73.5,103.5C 72.1552,104.347 71.1552,105.513 70.5,107C 69.5165,107.591 68.8499,107.257 68.5,106C 70.7352,102.341 73.0686,98.8413 75.5,95.5C 76.1499,95.8039 76.8165,96.1373 77.5,96.5C 78.6199,95.1666 79.9532,94.6666 81.5,95C 80.0335,98.7164 77.7001,102.216 74.5,105.5 Z"/></g>
<g><path style="opacity:1" fill="#83746f" d="M 23.5,94.5 C 24.8333,94.5 25.5,95.1667 25.5,96.5C 25.6287,98.2161 25.962,99.8828 26.5,101.5C 26.0919,102.643 25.4252,103.643 24.5,104.5C 22.4864,102.495 21.6531,100.161 22,97.5C 22.3333,97.8333 22.6667,98.1667 23,98.5C 23.49,97.2068 23.6567,95.8734 23.5,94.5 Z"/></g>
<g><path style="opacity:1" fill="#494231" d="M 40.5,98.5 C 40.8333,98.5 41.1667,98.5 41.5,98.5C 43.4484,100.32 44.4484,102.654 44.5,105.5C 43.9033,105.735 43.5699,106.235 43.5,107C 44.1667,108.333 44.8333,109.667 45.5,111C 44.8626,112.713 43.8626,112.879 42.5,111.5C 41.4654,108.008 40.1321,104.675 38.5,101.5C 38.9424,100.261 39.6091,99.2613 40.5,98.5 Z"/></g>
<g><path style="opacity:1" fill="#544743" d="M 23.5,94.5 C 23.6567,95.8734 23.49,97.2068 23,98.5C 22.6667,98.1667 22.3333,97.8333 22,97.5C 21.6531,100.161 22.4864,102.495 24.5,104.5C 25.4252,103.643 26.0919,102.643 26.5,101.5C 27.6928,103.3 28.8595,104.967 30,106.5C 30.4828,105.552 30.6495,104.552 30.5,103.5C 31.3941,105.308 32.3941,107.142 33.5,109C 33.1667,109.5 32.8333,110 32.5,110.5C 31.8333,109.833 31.1667,109.167 30.5,108.5C 30.0357,109.636 29.7024,110.636 29.5,111.5C 23.9865,107.659 19.9865,102.659 17.5,96.5C 19.6408,97.0662 21.6408,96.3995 23.5,94.5 Z"/></g>
<g><path style="opacity:1" fill="#3e3e35" d="M 82.5,73.5 C 84.1238,73.3601 85.2904,74.0267 86,75.5C 86.4988,79.4862 86.6655,83.4862 86.5,87.5C 84.7958,94.9085 81.4624,101.575 76.5,107.5C 71.3049,110.688 66.1383,114.021 61,117.5C 60.3333,118.5 60.3333,119.5 61,120.5C 64.195,121.851 66.0283,124.185 66.5,127.5C 64.9916,128.746 63.4916,130.08 62,131.5C 61.6174,130.944 61.1174,130.611 60.5,130.5C 59.8333,130.833 59.1667,131.167 58.5,131.5C 56.8333,130.167 55.1667,130.167 53.5,131.5C 52.1667,131.5 50.8333,131.5 49.5,131.5C 48.5,131.5 47.5,131.5 46.5,131.5C 45.8333,131.5 45.1667,131.5 44.5,131.5C 43.6522,130.375 42.6522,130.375 41.5,131.5C 41.1667,131.5 40.8333,131.5 40.5,131.5C 40.2893,129.576 39.6226,129.243 38.5,130.5C 37.1224,129.455 36.1224,128.122 35.5,126.5C 43.8612,129.977 52.5278,130.477 61.5,128C 63.9563,125.841 63.2896,125.008 59.5,125.5C 59.6107,124.883 59.944,124.383 60.5,124C 59.2625,123.768 58.2625,123.268 57.5,122.5C 60.1667,122.167 60.1667,121.833 57.5,121.5C 57.6287,119.784 57.962,118.117 58.5,116.5C 61.0145,113.795 64.3479,111.961 68.5,111C 70.6961,109.301 72.6961,107.467 74.5,105.5C 77.7001,102.216 80.0335,98.7164 81.5,95C 79.9532,94.6666 78.6199,95.1666 77.5,96.5C 76.8165,96.1373 76.1499,95.8039 75.5,95.5C 75.5,95.1667 75.5,94.8333 75.5,94.5C 80.2969,94.0343 82.6302,91.3676 82.5,86.5C 83.1463,81.8291 81.1463,79.8291 76.5,80.5C 75.2921,79.7659 73.9587,79.4326 72.5,79.5C 72.4701,78.5028 72.9701,77.8361 74,77.5C 75.3957,78.3943 76.8957,79.0609 78.5,79.5C 80.688,78.4257 80.688,77.0923 78.5,75.5C 79.8333,74.8333 81.1667,74.1667 82.5,73.5 Z"/></g>
<g><path style="opacity:1" fill="#a7a58c" d="M 41.5,98.5 C 43.5,98.1667 45.5,97.8333 47.5,97.5C 48.4916,97.3284 49.1583,97.6618 49.5,98.5C 48.8826,98.6107 48.3826,98.944 48,99.5C 47.7096,101.92 47.2096,104.254 46.5,106.5C 45.5084,106.672 44.8417,106.338 44.5,105.5C 44.4484,102.654 43.4484,100.32 41.5,98.5 Z"/></g>
<g><path style="opacity:1" fill="#464b3d" d="M 49.5,98.5 C 50.1667,98.8333 50.8333,99.1667 51.5,99.5C 52.1174,99.6107 52.6174,99.944 53,100.5C 53.1667,102 53.3333,103.5 53.5,105C 52.975,108.541 52.3083,112.041 51.5,115.5C 50.5,114.833 49.5,114.167 48.5,113.5C 48.5321,110.924 47.8654,108.591 46.5,106.5C 47.2096,104.254 47.7096,101.92 48,99.5C 48.3826,98.944 48.8826,98.6107 49.5,98.5 Z"/></g>
<g><path style="opacity:1" fill="#a09877" d="M 75.5,94.5 C 75.5,94.8333 75.5,95.1667 75.5,95.5C 73.0686,98.8413 70.7352,102.341 68.5,106C 68.8499,107.257 69.5165,107.591 70.5,107C 71.1552,105.513 72.1552,104.347 73.5,103.5C 74.2975,103.957 74.6309,104.624 74.5,105.5C 72.6961,107.467 70.6961,109.301 68.5,111C 64.3479,111.961 61.0145,113.795 58.5,116.5C 55.9407,116.802 53.6074,116.468 51.5,115.5C 52.3083,112.041 52.975,108.541 53.5,105C 53.3333,103.5 53.1667,102 53,100.5C 52.6174,99.944 52.1174,99.6107 51.5,99.5C 51.3691,98.6236 51.7025,97.9569 52.5,97.5C 53.4277,99.3348 54.5944,99.6682 56,98.5C 55.4771,101.542 55.6438,104.542 56.5,107.5C 56.3505,108.552 56.5172,109.552 57,110.5C 60.2099,106.567 61.0432,102.234 59.5,97.5C 59.5,97.1667 59.5,96.8333 59.5,96.5C 60.1667,96.8333 60.8333,97.1667 61.5,97.5C 64.3197,102.109 63.9864,106.442 60.5,110.5C 61.2472,110.736 62.0805,111.07 63,111.5C 64.7506,109.51 65.7506,107.177 66,104.5C 67.3435,102.658 68.8435,100.992 70.5,99.5C 69.2643,98.6433 67.931,97.9766 66.5,97.5C 64.1048,102.994 63.1048,102.661 63.5,96.5C 65.8722,95.0863 68.0388,95.4197 70,97.5C 71.2635,95.393 73.0968,94.393 75.5,94.5 Z"/></g>
<g><path style="opacity:1" fill="#3c3527" d="M 59.5,97.5 C 61.0432,102.234 60.2099,106.567 57,110.5C 56.5172,109.552 56.3505,108.552 56.5,107.5C 57.0181,104.021 58.0181,100.688 59.5,97.5 Z"/></g>
<g><path style="opacity:1" fill="#4d5039" d="M 63.5,96.5 C 63.1048,102.661 64.1048,102.994 66.5,97.5C 67.931,97.9766 69.2643,98.6433 70.5,99.5C 68.8435,100.992 67.3435,102.658 66,104.5C 65.7506,107.177 64.7506,109.51 63,111.5C 62.0805,111.07 61.2472,110.736 60.5,110.5C 63.9864,106.442 64.3197,102.109 61.5,97.5C 61.8417,96.6618 62.5084,96.3284 63.5,96.5 Z"/></g>
<g><path style="opacity:1" fill="#8f7b68" d="M 33.5,97.5 C 32.5342,102.628 33.8675,107.295 37.5,111.5C 37.8333,110.833 38.1667,110.167 38.5,109.5C 36.8617,105.619 35.5284,101.619 34.5,97.5C 35.609,97.5569 36.609,97.8902 37.5,98.5C 38.6522,97.375 39.6522,97.375 40.5,98.5C 39.6091,99.2613 38.9424,100.261 38.5,101.5C 40.1321,104.675 41.4654,108.008 42.5,111.5C 43.8626,112.879 44.8626,112.713 45.5,111C 44.8333,109.667 44.1667,108.333 43.5,107C 43.5699,106.235 43.9033,105.735 44.5,105.5C 44.8417,106.338 45.5084,106.672 46.5,106.5C 47.8654,108.591 48.5321,110.924 48.5,113.5C 48.5,114.5 48.5,115.5 48.5,116.5C 45.3019,115.964 42.6353,116.631 40.5,118.5C 36.6277,116.403 32.961,114.069 29.5,111.5C 29.7024,110.636 30.0357,109.636 30.5,108.5C 31.1667,109.167 31.8333,109.833 32.5,110.5C 32.8333,110 33.1667,109.5 33.5,109C 32.3941,107.142 31.3941,105.308 30.5,103.5C 30.1692,101.678 29.5025,100.011 28.5,98.5C 30.0443,98.2969 31.3777,97.6302 32.5,96.5C 33.1067,96.6236 33.44,96.9569 33.5,97.5 Z"/></g>
<g><path style="opacity:1" fill="#402f1c" d="M 33.5,97.5 C 33.8333,97.5 34.1667,97.5 34.5,97.5C 35.5284,101.619 36.8617,105.619 38.5,109.5C 38.1667,110.167 37.8333,110.833 37.5,111.5C 33.8675,107.295 32.5342,102.628 33.5,97.5 Z"/></g>
<g><path style="opacity:1" fill="#ebf3dc" d="M -0.5,-0.5 C 0.166667,-0.5 0.833333,-0.5 1.5,-0.5C 1.5,9.83333 1.5,20.1667 1.5,30.5C 1.03564,75.1578 1.03564,119.824 1.5,164.5C 0.833333,164.5 0.166667,164.5 -0.5,164.5C -0.5,109.5 -0.5,54.5 -0.5,-0.5 Z"/></g>
<g><path style="opacity:1" fill="#6f453c" d="M 48.5,113.5 C 49.5,114.167 50.5,114.833 51.5,115.5C 53.6074,116.468 55.9407,116.802 58.5,116.5C 57.962,118.117 57.6287,119.784 57.5,121.5C 53.8815,122.244 50.2148,122.577 46.5,122.5C 44.5,121.167 42.5,119.833 40.5,118.5C 42.6353,116.631 45.3019,115.964 48.5,116.5C 48.5,115.5 48.5,114.5 48.5,113.5 Z"/></g>
<g><path style="opacity:1" fill="#9c9595" d="M 57.5,121.5 C 60.1667,121.833 60.1667,122.167 57.5,122.5C 53.7316,123.787 50.0649,123.787 46.5,122.5C 50.2148,122.577 53.8815,122.244 57.5,121.5 Z"/></g>
<g><path style="opacity:1" fill="#566172" d="M 40.5,118.5 C 42.5,119.833 44.5,121.167 46.5,122.5C 50.0649,123.787 53.7316,123.787 57.5,122.5C 58.2625,123.268 59.2625,123.768 60.5,124C 59.944,124.383 59.6107,124.883 59.5,125.5C 52.7431,125.877 46.0764,125.377 39.5,124C 43.449,123.193 43.449,122.693 39.5,122.5C 41.1376,121.295 41.4709,119.962 40.5,118.5 Z"/></g>
<g><path style="opacity:1" fill="#1c3d52" d="M 39.5,122.5 C 43.449,122.693 43.449,123.193 39.5,124C 46.0764,125.377 52.7431,125.877 59.5,125.5C 59.3893,126.117 59.056,126.617 58.5,127C 52.8333,127.667 47.1667,127.667 41.5,127C 39.5743,126.578 38.5743,125.411 38.5,123.5C 38.5,122.833 38.8333,122.5 39.5,122.5 Z"/></g>
<g><path style="opacity:1" fill="#5e787f" d="M 38.5,123.5 C 38.5743,125.411 39.5743,126.578 41.5,127C 47.1667,127.667 52.8333,127.667 58.5,127C 59.056,126.617 59.3893,126.117 59.5,125.5C 63.2896,125.008 63.9563,125.841 61.5,128C 52.5278,130.477 43.8612,129.977 35.5,126.5C 35.5,126.167 35.5,125.833 35.5,125.5C 36.2905,124.599 37.2905,123.932 38.5,123.5 Z"/></g>
<g><path style="opacity:1" fill="#7d633d" d="M 66.5,127.5 C 70.154,129.331 73.4873,131.664 76.5,134.5C 78.0311,135.925 77.6977,136.591 75.5,136.5C 71.437,135.94 68.2703,133.94 66,130.5C 65.5,130.667 65,130.833 64.5,131C 63.0445,134.554 63.7112,137.721 66.5,140.5C 66.9972,138.784 67.3306,137.117 67.5,135.5C 69.3198,136.883 71.3198,137.883 73.5,138.5C 73.7148,140.179 73.0481,141.179 71.5,141.5C 71.6309,140.624 71.2975,139.957 70.5,139.5C 69.7379,140.628 69.0712,141.795 68.5,143C 65.854,143.497 63.1873,143.664 60.5,143.5C 60.5569,142.391 60.8902,141.391 61.5,140.5C 62.552,140.649 63.552,140.483 64.5,140C 62.8724,136.948 61.539,133.782 60.5,130.5C 61.1174,130.611 61.6174,130.944 62,131.5C 63.4916,130.08 64.9916,128.746 66.5,127.5 Z"/></g>
<g><path style="opacity:1" fill="#d8c791" d="M 40.5,131.5 C 39.5416,131.953 38.7083,132.619 38,133.5C 37.3116,137.209 35.8116,140.543 33.5,143.5C 32.5754,144.562 31.5754,144.562 30.5,143.5C 30.0742,142.472 30.0742,141.139 30.5,139.5C 28.7748,139.157 28.2748,138.157 29,136.5C 30.3513,134.981 31.8513,133.648 33.5,132.5C 34.1924,133.025 34.6924,133.692 35,134.5C 36.3756,133.295 37.5423,131.962 38.5,130.5C 39.6226,129.243 40.2893,129.576 40.5,131.5 Z"/></g>
<g><path style="opacity:1" fill="#d9ba89" d="M 75.5,136.5 C 75.5,137.833 74.8333,138.5 73.5,138.5C 71.3198,137.883 69.3198,136.883 67.5,135.5C 67.3306,137.117 66.9972,138.784 66.5,140.5C 63.7112,137.721 63.0445,134.554 64.5,131C 65,130.833 65.5,130.667 66,130.5C 68.2703,133.94 71.437,135.94 75.5,136.5 Z"/></g>
<g><path style="opacity:1" fill="#897b65" d="M 35.5,125.5 C 35.5,125.833 35.5,126.167 35.5,126.5C 36.1224,128.122 37.1224,129.455 38.5,130.5C 37.5423,131.962 36.3756,133.295 35,134.5C 34.6924,133.692 34.1924,133.025 33.5,132.5C 31.8513,133.648 30.3513,134.981 29,136.5C 28.2748,138.157 28.7748,139.157 30.5,139.5C 30.0742,141.139 30.0742,142.472 30.5,143.5C 30.3284,144.492 30.6618,145.158 31.5,145.5C 31.5,146.167 31.5,146.833 31.5,147.5C 31.1667,147.5 30.8333,147.5 30.5,147.5C 27.0926,143.089 23.0926,139.422 18.5,136.5C 18.7828,135.711 19.2828,135.044 20,134.5C 22.2096,135.749 24.3763,135.582 26.5,134C 29.0308,130.635 32.0308,127.802 35.5,125.5 Z"/></g>
<g><path style="opacity:1" fill="#967f4d" d="M 58.5,131.5 C 57.7611,131.369 57.0944,131.536 56.5,132C 57.5496,135.276 59.2163,138.11 61.5,140.5C 60.8902,141.391 60.5569,142.391 60.5,143.5C 60.5,144.167 60.5,144.833 60.5,145.5C 59.2652,145.279 58.2652,144.612 57.5,143.5C 56.7348,144.612 55.7348,145.279 54.5,145.5C 55.7374,142.838 56.5707,140.171 57,137.5C 54.5173,140.139 52.684,143.139 51.5,146.5C 50.8333,146.5 50.1667,146.5 49.5,146.5C 48.6091,144.391 47.4424,142.391 46,140.5C 45.4054,141.899 45.5721,143.232 46.5,144.5C 44.8333,145.833 43.1667,145.833 41.5,144.5C 42.7515,142.999 43.7515,141.332 44.5,139.5C 43.2974,136.84 43.2974,134.173 44.5,131.5C 45.1667,131.5 45.8333,131.5 46.5,131.5C 44.543,135.488 45.543,138.155 49.5,139.5C 49.5,136.833 49.5,134.167 49.5,131.5C 50.8333,131.5 52.1667,131.5 53.5,131.5C 55.1667,130.167 56.8333,130.167 58.5,131.5 Z"/></g>
<g><path style="opacity:1" fill="#ddca85" d="M 46.5,131.5 C 47.5,131.5 48.5,131.5 49.5,131.5C 49.5,134.167 49.5,136.833 49.5,139.5C 45.543,138.155 44.543,135.488 46.5,131.5 Z"/></g>
<g><path style="opacity:1" fill="#d7ca85" d="M 53.5,131.5 C 56.2963,134.742 55.7963,137.742 52,140.5C 51.0935,137.156 51.5935,134.156 53.5,131.5 Z"/></g>
<g><path style="opacity:1" fill="#dec987" d="M 60.5,130.5 C 61.539,133.782 62.8724,136.948 64.5,140C 63.552,140.483 62.552,140.649 61.5,140.5C 59.2163,138.11 57.5496,135.276 56.5,132C 57.0944,131.536 57.7611,131.369 58.5,131.5C 59.1667,131.167 59.8333,130.833 60.5,130.5 Z"/></g>
<g><path style="opacity:1" fill="#5f4e1f" d="M 30.5,139.5 C 33.0225,135.227 33.8558,135.56 33,140.5C 32.3292,139.748 31.4959,139.414 30.5,139.5 Z"/></g>
<g><path style="opacity:1" fill="#406273" d="M 18.5,136.5 C 23.0926,139.422 27.0926,143.089 30.5,147.5C 29.1272,150.132 28.1272,152.966 27.5,156C 28.943,158.078 28.2763,158.911 25.5,158.5C 26.494,156.666 26.494,154.999 25.5,153.5C 26.1667,152.833 26.8333,152.167 27.5,151.5C 27.7035,149.61 27.0368,148.11 25.5,147C 22.9804,145.237 20.6471,143.237 18.5,141C 17.5632,140.308 16.8966,140.475 16.5,141.5C 15.8333,141.5 15.5,141.167 15.5,140.5C 15.5,139.833 15.5,139.167 15.5,138.5C 16.2905,137.599 17.2905,136.932 18.5,136.5 Z"/></g>
<g><path style="opacity:1" fill="#416b7d" d="M 78.5,134.5 C 81.7901,136.124 84.4567,138.457 86.5,141.5C 85.391,141.557 84.391,141.89 83.5,142.5C 83.4827,140.972 82.816,140.472 81.5,141C 78.9638,143.705 76.2971,146.205 73.5,148.5C 73.6716,147.508 73.3382,146.842 72.5,146.5C 74.5016,143.405 76.6683,140.405 79,137.5C 79.4696,136.423 79.3029,135.423 78.5,134.5 Z"/></g>
<g><path style="opacity:1" fill="#e5ca91" d="M 54.5,145.5 C 53.791,146.404 52.791,146.737 51.5,146.5C 52.684,143.139 54.5173,140.139 57,137.5C 56.5707,140.171 55.7374,142.838 54.5,145.5 Z"/></g>
<g><path style="opacity:1" fill="#917d50" d="M 40.5,131.5 C 40.8333,131.5 41.1667,131.5 41.5,131.5C 40.1666,135.656 38.1666,139.489 35.5,143C 35.6667,143.5 35.8333,144 36,144.5C 37.0302,142.224 38.5302,141.557 40.5,142.5C 39.1482,143.524 37.8149,144.524 36.5,145.5C 34.8333,145.5 33.1667,145.5 31.5,145.5C 30.6618,145.158 30.3284,144.492 30.5,143.5C 31.5754,144.562 32.5754,144.562 33.5,143.5C 35.8116,140.543 37.3116,137.209 38,133.5C 38.7083,132.619 39.5416,131.953 40.5,131.5 Z"/></g>
<g><path style="opacity:1" fill="#d7ba84" d="M 44.5,131.5 C 43.2974,134.173 43.2974,136.84 44.5,139.5C 43.7515,141.332 42.7515,142.999 41.5,144.5C 43.1667,145.833 44.8333,145.833 46.5,144.5C 45.5721,143.232 45.4054,141.899 46,140.5C 47.4424,142.391 48.6091,144.391 49.5,146.5C 44.9677,146.818 40.6344,146.485 36.5,145.5C 37.8149,144.524 39.1482,143.524 40.5,142.5C 38.5302,141.557 37.0302,142.224 36,144.5C 35.8333,144 35.6667,143.5 35.5,143C 38.1666,139.489 40.1666,135.656 41.5,131.5C 42.6522,130.375 43.6522,130.375 44.5,131.5 Z"/></g>
<g><path style="opacity:1" fill="#c6aa73" d="M 71.5,141.5 C 70.6586,143.379 70.3253,145.379 70.5,147.5C 69.8333,147.5 69.1667,147.5 68.5,147.5C 65.8333,146.833 63.1667,146.167 60.5,145.5C 60.5,144.833 60.5,144.167 60.5,143.5C 63.1873,143.664 65.854,143.497 68.5,143C 69.0712,141.795 69.7379,140.628 70.5,139.5C 71.2975,139.957 71.6309,140.624 71.5,141.5 Z"/></g>
<g><path style="opacity:1" fill="#14516f" d="M 86.5,141.5 C 82.5343,145.827 78.5343,150.161 74.5,154.5C 73.7659,153.292 73.4326,151.959 73.5,150.5C 77.2071,148.312 80.5405,145.645 83.5,142.5C 84.391,141.89 85.391,141.557 86.5,141.5 Z"/></g>
<g><path style="opacity:1" fill="#92896c" d="M 76.5,134.5 C 77.1667,134.5 77.8333,134.5 78.5,134.5C 79.3029,135.423 79.4696,136.423 79,137.5C 76.6683,140.405 74.5016,143.405 72.5,146.5C 71.6618,146.842 71.3284,147.508 71.5,148.5C 70.8333,148.5 70.5,148.167 70.5,147.5C 70.3253,145.379 70.6586,143.379 71.5,141.5C 73.0481,141.179 73.7148,140.179 73.5,138.5C 74.8333,138.5 75.5,137.833 75.5,136.5C 77.6977,136.591 78.0311,135.925 76.5,134.5 Z"/></g>
<g><path style="opacity:1" fill="#4198bb" d="M 83.5,142.5 C 80.5405,145.645 77.2071,148.312 73.5,150.5C 73.5,149.833 73.5,149.167 73.5,148.5C 76.2971,146.205 78.9638,143.705 81.5,141C 82.816,140.472 83.4827,140.972 83.5,142.5 Z"/></g>
<g><path style="opacity:1" fill="#bf8a69" d="M 60.5,145.5 C 63.1667,146.167 65.8333,146.833 68.5,147.5C 56.5,147.5 44.5,147.5 32.5,147.5C 32.1667,147.5 31.8333,147.5 31.5,147.5C 31.5,146.833 31.5,146.167 31.5,145.5C 33.1667,145.5 34.8333,145.5 36.5,145.5C 40.6344,146.485 44.9677,146.818 49.5,146.5C 50.1667,146.5 50.8333,146.5 51.5,146.5C 52.791,146.737 53.791,146.404 54.5,145.5C 55.7348,145.279 56.7348,144.612 57.5,143.5C 58.2652,144.612 59.2652,145.279 60.5,145.5 Z"/></g>
<g><path style="opacity:1" fill="#3e97b9" d="M 27.5,151.5 C 23.4113,148.685 19.7447,145.352 16.5,141.5C 16.8966,140.475 17.5632,140.308 18.5,141C 20.6471,143.237 22.9804,145.237 25.5,147C 27.0368,148.11 27.7035,149.61 27.5,151.5 Z"/></g>
<g><path style="opacity:1" fill="#679aab" d="M 15.5,138.5 C 15.5,139.167 15.5,139.833 15.5,140.5C 14.2947,141.672 14.2947,143.005 15.5,144.5C 18.8376,147.505 22.1709,150.505 25.5,153.5C 26.494,154.999 26.494,156.666 25.5,158.5C 20.521,154.188 15.8544,149.521 11.5,144.5C 11.9324,141.819 13.2657,139.819 15.5,138.5 Z"/></g>
<g><path style="opacity:1" fill="#a55749" d="M 32.5,147.5 C 44.5,147.5 56.5,147.5 68.5,147.5C 69.1667,147.5 69.8333,147.5 70.5,147.5C 70.5,148.167 70.8333,148.5 71.5,148.5C 71.5,149.167 71.5,149.833 71.5,150.5C 71.1667,150.5 70.8333,150.5 70.5,150.5C 57.5794,149.52 44.5794,149.186 31.5,149.5C 31.8333,148.833 32.1667,148.167 32.5,147.5 Z"/></g>
<g><path style="opacity:1" fill="#1c5679" d="M 15.5,140.5 C 15.5,141.167 15.8333,141.5 16.5,141.5C 19.7447,145.352 23.4113,148.685 27.5,151.5C 26.8333,152.167 26.1667,152.833 25.5,153.5C 22.1709,150.505 18.8376,147.505 15.5,144.5C 14.2947,143.005 14.2947,141.672 15.5,140.5 Z"/></g>
<g><path style="opacity:1" fill="#9b3031" d="M 31.5,149.5 C 44.5794,149.186 57.5794,149.52 70.5,150.5C 57.5,151.833 44.5,151.833 31.5,150.5C 31.5,150.167 31.5,149.833 31.5,149.5 Z"/></g>
<g><path style="opacity:1" fill="#d87475" d="M 31.5,150.5 C 44.5,151.833 57.5,151.833 70.5,150.5C 70.8333,150.5 71.1667,150.5 71.5,150.5C 71.5,151.167 71.5,151.833 71.5,152.5C 57.4213,152.185 43.4213,152.518 29.5,153.5C 29.427,151.973 30.0937,150.973 31.5,150.5 Z"/></g>
<g><path style="opacity:1" fill="#942f2f" d="M 71.5,152.5 C 72.4013,153.29 73.0679,154.29 73.5,155.5C 72.8333,155.5 72.1667,155.5 71.5,155.5C 57.5,155.5 43.5,155.5 29.5,155.5C 29.5,154.833 29.5,154.167 29.5,153.5C 43.4213,152.518 57.4213,152.185 71.5,152.5 Z"/></g>
<g><path style="opacity:1" fill="#5e8d9f" d="M 86.5,141.5 C 87.8478,142.527 88.3478,143.86 88,145.5C 83.615,149.743 79.4483,154.077 75.5,158.5C 75.1667,157.167 74.8333,155.833 74.5,154.5C 78.5343,150.161 82.5343,145.827 86.5,141.5 Z"/></g>
<g><path style="opacity:1" fill="#a6686b" d="M 30.5,147.5 C 30.8333,147.5 31.1667,147.5 31.5,147.5C 31.8333,147.5 32.1667,147.5 32.5,147.5C 32.1667,148.167 31.8333,148.833 31.5,149.5C 31.5,149.833 31.5,150.167 31.5,150.5C 30.0937,150.973 29.427,151.973 29.5,153.5C 29.5,154.167 29.5,154.833 29.5,155.5C 35.7983,156.83 42.4649,157.497 49.5,157.5C 56.1667,157.333 62.8333,157.167 69.5,157C 70.4158,156.722 71.0825,156.222 71.5,155.5C 72.1667,155.5 72.8333,155.5 73.5,155.5C 73.5858,156.496 73.2524,157.329 72.5,158C 73.448,158.483 74.448,158.649 75.5,158.5C 58.8333,159.833 42.1667,159.833 25.5,158.5C 28.2763,158.911 28.943,158.078 27.5,156C 28.1272,152.966 29.1272,150.132 30.5,147.5 Z"/></g>
<g><path style="opacity:1" fill="#de6976" d="M 29.5,155.5 C 43.5,155.5 57.5,155.5 71.5,155.5C 71.0825,156.222 70.4158,156.722 69.5,157C 62.8333,157.167 56.1667,157.333 49.5,157.5C 42.4649,157.497 35.7983,156.83 29.5,155.5 Z"/></g>
<g><path style="opacity:1" fill="#5d5151" d="M 72.5,146.5 C 73.3382,146.842 73.6716,147.508 73.5,148.5C 73.5,149.167 73.5,149.833 73.5,150.5C 73.4326,151.959 73.7659,153.292 74.5,154.5C 74.8333,155.833 75.1667,157.167 75.5,158.5C 74.448,158.649 73.448,158.483 72.5,158C 73.2524,157.329 73.5858,156.496 73.5,155.5C 73.0679,154.29 72.4013,153.29 71.5,152.5C 71.5,151.833 71.5,151.167 71.5,150.5C 71.5,149.833 71.5,149.167 71.5,148.5C 71.3284,147.508 71.6618,146.842 72.5,146.5 Z"/></g>
</svg>
