<?xml version="1.0" encoding="UTF-8"?>
<!DOCTYPE svg PUBLIC "-//W3C//DTD SVG 1.1//EN" "http://www.w3.org/Graphics/SVG/1.1/DTD/svg11.dtd">
<svg xmlns="http://www.w3.org/2000/svg" version="1.1" width="100px" height="165px" style="shape-rendering:geometricPrecision; text-rendering:geometricPrecision; image-rendering:optimizeQuality; fill-rule:evenodd; clip-rule:evenodd" xmlns:xlink="http://www.w3.org/1999/xlink">
<g><path style="opacity:1" fill="#fcfcfc" d="M -0.5,-0.5 C 32.8333,-0.5 66.1667,-0.5 99.5,-0.5C 99.5,54.5 99.5,109.5 99.5,164.5C 66.1667,164.5 32.8333,164.5 -0.5,164.5C -0.5,109.5 -0.5,54.5 -0.5,-0.5 Z"/></g>
<g><path style="opacity:1" fill="#717171" d="M 56.5,8.5 C 58.288,8.21478 59.9547,8.54811 61.5,9.5C 60.624,10.2508 59.624,10.7508 58.5,11C 59.624,11.2492 60.624,11.7492 61.5,12.5C 60.0521,13.3539 58.7187,14.3539 57.5,15.5C 56.5258,13.2573 56.1924,10.924 56.5,8.5 Z"/></g>
<g><path style="opacity:1" fill="#818181" d="M 81.5,8.5 C 85.9791,8.89755 87.3124,11.2309 85.5,15.5C 84.4104,14.6086 84.4104,13.6086 85.5,12.5C 84.3803,10.4038 82.8803,10.0705 81,11.5C 81.2626,12.9506 81.0959,14.2839 80.5,15.5C 79.1544,12.9004 79.4877,10.5671 81.5,8.5 Z"/></g>
<g><path style="opacity:1" fill="#8d8d8d" d="M 10.5,8.5 C 12.288,8.21478 13.9547,8.54811 15.5,9.5C 14.1735,11.3113 13.1735,13.3113 12.5,15.5C 11.5793,13.2235 10.9126,10.8901 10.5,8.5 Z"/></g>
<g><path style="opacity:1" fill="#888888" d="M 48.5,9.5 C 50.3841,9.71182 51.7174,10.7118 52.5,12.5C 53.2508,11.624 53.7508,10.624 54,9.5C 54.4955,11.4727 54.6621,13.4727 54.5,15.5C 51.9505,15.4392 50.4505,14.1059 50,11.5C 49.7811,12.938 49.2811,14.2713 48.5,15.5C 48.0798,13.674 48.0798,11.674 48.5,9.5 Z"/></g>
<g><path style="opacity:1" fill="#757575" d="M 34.5,12.5 C 33.9473,16.4557 33.1139,16.4557 32,12.5C 31.2828,13.0442 30.7828,13.7109 30.5,14.5C 30.0307,15.7454 29.6974,15.5787 29.5,14C 29.9536,11.9636 30.7869,10.1303 32,8.5C 32.6082,10.0664 33.4415,11.3998 34.5,12.5 Z"/></g>
<g><path style="opacity:1" fill="#727272" d="M 72.5,9.5 C 74.288,9.21478 75.9547,9.54811 77.5,10.5C 76.3966,10.9976 75.3966,11.3309 74.5,11.5C 76.0396,12.5321 76.5396,13.8654 76,15.5C 75,14.1667 74,14.1667 73,15.5C 72.5045,13.5273 72.3379,11.5273 72.5,9.5 Z"/></g>
<g><path style="opacity:1" fill="#868686" d="M 21.5,9.5 C 26.6673,8.49189 28.334,10.3252 26.5,15C 24.8659,15.4935 23.1992,15.6602 21.5,15.5C 21.5,13.5 21.5,11.5 21.5,9.5 Z"/></g>
<g><path style="opacity:1" fill="#e7e7e7" d="M 23.5,10.5 C 24.5862,10.62 25.2528,11.2867 25.5,12.5C 25.1667,13.1667 24.8333,13.8333 24.5,14.5C 23.5713,13.3112 23.238,11.9778 23.5,10.5 Z"/></g>
<g><path style="opacity:1" fill="#9d9d9d" d="M 65.5,8.5 C 67.3464,8.22216 68.6798,8.88882 69.5,10.5C 68.4425,10.9059 67.1092,10.9059 65.5,10.5C 65.238,11.9778 65.5713,13.3112 66.5,14.5C 67.5237,13.1468 68.857,12.4802 70.5,12.5C 69.955,15.9444 67.955,17.1111 64.5,16C 63.0825,13.2565 63.4159,10.7565 65.5,8.5 Z"/></g>
<g><path style="opacity:1" fill="#c9c9c9" d="M 30.5,14.5 C 30.7828,13.7109 31.2828,13.0442 32,12.5C 33.1139,16.4557 33.9473,16.4557 34.5,12.5C 35.7942,11.7101 36.9609,10.7101 38,9.5C 38.4935,11.1341 38.6602,12.8008 38.5,14.5C 39.552,14.3505 40.552,14.5172 41.5,15C 39.1108,16.0961 36.6108,16.9294 34,17.5C 32.6412,16.635 31.4745,15.635 30.5,14.5 Z"/></g>
<g><path style="opacity:1" fill="#5f97b0" d="M 77.5,74.5 C 73.3535,75.4727 69.3535,75.1393 65.5,73.5C 70.4967,71.6683 75.1634,69.335 79.5,66.5C 79.0372,69.221 78.3705,71.8877 77.5,74.5 Z"/></g>
<g><path style="opacity:1" fill="#668a9c" d="M 26.5,72.5 C 27.0164,73.7582 26.3497,74.7582 24.5,75.5C 23.5146,71.3932 21.5146,70.7265 18.5,73.5C 17.7106,72.085 17.0439,70.585 16.5,69C 16.6135,67.7202 17.2801,66.8869 18.5,66.5C 20.9264,68.9407 23.593,70.9407 26.5,72.5 Z"/></g>
<g><path style="opacity:1" fill="#58add8" d="M 24.5,75.5 C 22.5,75.5 20.5,75.5 18.5,75.5C 18.5,74.8333 18.5,74.1667 18.5,73.5C 21.5146,70.7265 23.5146,71.3932 24.5,75.5 Z"/></g>
<g><path style="opacity:1" fill="#948c74" d="M 45.5,76.5 C 44.791,77.404 43.791,77.7373 42.5,77.5C 40.6854,76.3702 38.6854,75.7036 36.5,75.5C 36.6716,74.5084 36.3382,73.8417 35.5,73.5C 37.3059,70.6618 38.3059,70.9952 38.5,74.5C 40.8333,75.1667 43.1667,75.8333 45.5,76.5 Z"/></g>
<g><path style="opacity:1" fill="#4b6c63" d="M 26.5,72.5 C 29.4299,73.299 32.4299,73.6323 35.5,73.5C 36.3382,73.8417 36.6716,74.5084 36.5,75.5C 36.5,76.5 36.5,77.5 36.5,78.5C 35.7677,77.1917 34.9344,75.8584 34,74.5C 33.2419,76.7695 33.4086,78.9361 34.5,81C 32.9632,82.1096 32.2965,83.6096 32.5,85.5C 33.8333,85.5 35.1667,85.5 36.5,85.5C 36.5,86.1667 36.8333,86.5 37.5,86.5C 38.7733,87.0768 38.7733,87.7435 37.5,88.5C 36.3122,87.16 34.8122,86.4934 33,86.5C 30.863,87.0767 28.6963,87.41 26.5,87.5C 26.6107,86.8826 26.944,86.3826 27.5,86C 26.2644,84.9152 24.9311,84.0819 23.5,83.5C 25.6979,82.8347 28.0312,82.1681 30.5,81.5C 29.6906,79.9291 29.3573,78.2624 29.5,76.5C 25.8333,76.5 22.1667,76.5 18.5,76.5C 18.5,76.1667 18.5,75.8333 18.5,75.5C 20.5,75.5 22.5,75.5 24.5,75.5C 26.3497,74.7582 27.0164,73.7582 26.5,72.5 Z"/></g>
<g><path style="opacity:1" fill="#417268" d="M 60.5,73.5 C 62.1667,73.5 63.8333,73.5 65.5,73.5C 69.3535,75.1393 73.3535,75.4727 77.5,74.5C 77.7373,75.791 77.404,76.791 76.5,77.5C 73.1972,76.174 69.8639,76.174 66.5,77.5C 65.2404,79.3529 65.2404,81.1862 66.5,83C 68.7972,83.0178 71.1305,82.8511 73.5,82.5C 74.5,82.5 75.5,82.5 76.5,82.5C 76.5,83.1667 76.5,83.8333 76.5,84.5C 74.0971,84.448 71.7638,84.7814 69.5,85.5C 67.1944,85.9926 64.861,86.3259 62.5,86.5C 62.1667,86.5 61.8333,86.5 61.5,86.5C 61.5,86.1667 61.5,85.8333 61.5,85.5C 62.2674,84.828 62.9341,83.9947 63.5,83C 63.0268,79.5884 62.0268,76.4217 60.5,73.5 Z"/></g>
<g><path style="opacity:1" fill="#a79073" d="M 57.5,73.5 C 59.51,75.3166 59.8434,77.3166 58.5,79.5C 58.5,78.5 58.5,77.5 58.5,76.5C 54.0243,76.8222 52.5243,79.1556 54,83.5C 56.501,85.0558 58.001,84.3892 58.5,81.5C 59.5,82.8333 60.5,84.1667 61.5,85.5C 61.5,85.8333 61.5,86.1667 61.5,86.5C 60.1851,87.4756 58.8518,88.4756 57.5,89.5C 56.1906,86.7575 54.0239,85.0908 51,84.5C 46.6097,84.6843 42.2764,84.6843 38,84.5C 37.5357,85.0944 37.369,85.7611 37.5,86.5C 36.8333,86.5 36.5,86.1667 36.5,85.5C 36.5,84.5 36.5,83.5 36.5,82.5C 38.5,83.8333 40.5,83.8333 42.5,82.5C 45.728,83.4137 49.0613,83.7471 52.5,83.5C 52.8151,80.7892 52.1484,78.4559 50.5,76.5C 53.3208,76.4546 55.6541,75.4546 57.5,73.5 Z"/></g>
<g><path style="opacity:1" fill="#7c4742" d="M 45.5,76.5 C 47.1667,76.5 48.8333,76.5 50.5,76.5C 52.1484,78.4559 52.8151,80.7892 52.5,83.5C 49.0613,83.7471 45.728,83.4137 42.5,82.5C 42.5,80.8333 42.5,79.1667 42.5,77.5C 43.791,77.7373 44.791,77.404 45.5,76.5 Z"/></g>
<g><path style="opacity:1" fill="#dfc97d" d="M 58.5,79.5 C 58.5,80.1667 58.5,80.8333 58.5,81.5C 58.001,84.3892 56.501,85.0558 54,83.5C 52.5243,79.1556 54.0243,76.8222 58.5,76.5C 58.5,77.5 58.5,78.5 58.5,79.5 Z"/></g>
<g><path style="opacity:1" fill="#4f9d6c" d="M 76.5,77.5 C 76.5,77.8333 76.5,78.1667 76.5,78.5C 74.7986,79.2114 73.7986,80.5447 73.5,82.5C 71.1305,82.8511 68.7972,83.0178 66.5,83C 65.2404,81.1862 65.2404,79.3529 66.5,77.5C 69.8639,76.174 73.1972,76.174 76.5,77.5 Z"/></g>
<g><path style="opacity:1" fill="#a2a88d" d="M 77.5,74.5 C 78.3941,76.3085 79.3941,78.1418 80.5,80C 78.9003,81.1233 77.9003,82.6233 77.5,84.5C 77.1667,84.5 76.8333,84.5 76.5,84.5C 76.5,83.8333 76.5,83.1667 76.5,82.5C 77.6857,81.0387 77.6857,79.7054 76.5,78.5C 76.5,78.1667 76.5,77.8333 76.5,77.5C 77.404,76.791 77.7373,75.791 77.5,74.5 Z"/></g>
<g><path style="opacity:1" fill="#c9dd89" d="M 18.5,77.5 C 21.5497,76.9232 23.5497,78.0899 24.5,81C 22.3225,82.2022 19.9892,82.7022 17.5,82.5C 16.8614,81.9032 16.528,81.0698 16.5,80C 16.6842,78.6244 17.3509,77.7911 18.5,77.5 Z"/></g>
<g><path style="opacity:1" fill="#373b30" d="M 36.5,78.5 C 37.3543,79.6316 37.3543,80.965 36.5,82.5C 36.5,83.5 36.5,84.5 36.5,85.5C 35.1667,85.5 33.8333,85.5 32.5,85.5C 32.2965,83.6096 32.9632,82.1096 34.5,81C 33.4086,78.9361 33.2419,76.7695 34,74.5C 34.9344,75.8584 35.7677,77.1917 36.5,78.5 Z"/></g>
<g><path style="opacity:1" fill="#509565" d="M 18.5,77.5 C 18.5,77.1667 18.5,76.8333 18.5,76.5C 22.1667,76.5 25.8333,76.5 29.5,76.5C 29.3573,78.2624 29.6906,79.9291 30.5,81.5C 28.0312,82.1681 25.6979,82.8347 23.5,83.5C 21.8333,83.5 20.1667,83.5 18.5,83.5C 17.8333,83.5 17.5,83.1667 17.5,82.5C 19.9892,82.7022 22.3225,82.2022 24.5,81C 23.5497,78.0899 21.5497,76.9232 18.5,77.5 Z"/></g>
<g><path style="opacity:1" fill="#c8e09d" d="M 76.5,78.5 C 77.6857,79.7054 77.6857,81.0387 76.5,82.5C 75.5,82.5 74.5,82.5 73.5,82.5C 73.7986,80.5447 74.7986,79.2114 76.5,78.5 Z"/></g>
<g><path style="opacity:1" fill="#cd6f70" d="M 46.5,78.5 C 47.8333,78.5 49.1667,78.5 50.5,78.5C 50.5,79.8333 50.5,81.1667 50.5,82.5C 46.5089,83.128 45.1755,81.7947 46.5,78.5 Z"/></g>
<g><path style="opacity:1" fill="#ddd185" d="M 36.5,75.5 C 38.6854,75.7036 40.6854,76.3702 42.5,77.5C 42.5,79.1667 42.5,80.8333 42.5,82.5C 40.5,83.8333 38.5,83.8333 36.5,82.5C 37.3543,80.965 37.3543,79.6316 36.5,78.5C 36.5,77.5 36.5,76.5 36.5,75.5 Z"/></g>
<g><path style="opacity:1" fill="#3f4035" d="M 60.5,73.5 C 62.0268,76.4217 63.0268,79.5884 63.5,83C 62.9341,83.9947 62.2674,84.828 61.5,85.5C 60.5,84.1667 59.5,82.8333 58.5,81.5C 58.5,80.8333 58.5,80.1667 58.5,79.5C 59.8434,77.3166 59.51,75.3166 57.5,73.5C 58.3478,72.375 59.3478,72.375 60.5,73.5 Z"/></g>
<g><path style="opacity:1" fill="#599dbd" d="M 76.5,84.5 C 76.8333,84.5 77.1667,84.5 77.5,84.5C 78.4511,85.9187 78.7845,87.5853 78.5,89.5C 74.8355,89.4982 71.8355,88.1648 69.5,85.5C 71.7638,84.7814 74.0971,84.448 76.5,84.5 Z"/></g>
<g><path style="opacity:1" fill="#88aabb" d="M 18.5,84.5 C 19.4916,84.3284 20.1583,84.6618 20.5,85.5C 19.1148,86.9473 19.4482,87.9473 21.5,88.5C 20.828,89.2674 19.9947,89.9341 19,90.5C 18.3083,91.4368 18.475,92.1034 19.5,92.5C 19.44,93.0431 19.1067,93.3764 18.5,93.5C 18.1667,92.6667 17.8333,91.8333 17.5,91C 18.0767,88.863 18.41,86.6963 18.5,84.5 Z"/></g>
<g><path style="opacity:1" fill="#53abd3" d="M 21.5,88.5 C 19.4482,87.9473 19.1148,86.9473 20.5,85.5C 21.8221,85.67 22.9887,85.3366 24,84.5C 24.9098,86.9449 24.0764,88.2782 21.5,88.5 Z"/></g>
<g><path style="opacity:1" fill="#457b8d" d="M 18.5,84.5 C 18.5,84.1667 18.5,83.8333 18.5,83.5C 20.1667,83.5 21.8333,83.5 23.5,83.5C 24.9311,84.0819 26.2644,84.9152 27.5,86C 26.944,86.3826 26.6107,86.8826 26.5,87.5C 24.3428,89.4121 22.0094,91.0787 19.5,92.5C 18.475,92.1034 18.3083,91.4368 19,90.5C 19.9947,89.9341 20.828,89.2674 21.5,88.5C 24.0764,88.2782 24.9098,86.9449 24,84.5C 22.9887,85.3366 21.8221,85.67 20.5,85.5C 20.1583,84.6618 19.4916,84.3284 18.5,84.5 Z"/></g>
<g><path style="opacity:1" fill="#5e808d" d="M 69.5,85.5 C 71.8355,88.1648 74.8355,89.4982 78.5,89.5C 78.719,90.675 78.3857,91.675 77.5,92.5C 72.6808,89.7281 67.6808,87.7281 62.5,86.5C 64.861,86.3259 67.1944,85.9926 69.5,85.5 Z"/></g>
<g><path style="opacity:1" fill="#e8e8e8" d="M 55.5,146.5 C 53.6921,147.918 53.0254,149.918 53.5,152.5C 52.6236,152.369 51.9569,152.702 51.5,153.5C 54.1667,154.167 56.8333,154.833 59.5,155.5C 55.3843,157.281 51.0509,157.947 46.5,157.5C 47.128,153.509 45.7947,152.176 42.5,153.5C 42.4226,152.25 41.756,151.417 40.5,151C 42.9913,150.374 42.9913,149.541 40.5,148.5C 42.9238,146.286 42.2571,145.286 38.5,145.5C 38.5,148.167 38.5,150.833 38.5,153.5C 39.5,153.5 40.5,153.5 41.5,153.5C 42.7175,154.161 44.0508,154.828 45.5,155.5C 45.3764,156.107 45.0431,156.44 44.5,156.5C 41.5568,155.208 39.2235,155.208 37.5,156.5C 35.9106,157.621 34.2439,157.454 32.5,156C 32.8333,155.667 33.1667,155.333 33.5,155C 31.6969,154.363 30.3636,153.197 29.5,151.5C 28.8165,151.863 28.1499,152.196 27.5,152.5C 27.5,150.5 27.5,148.5 27.5,146.5C 26.448,146.351 25.448,146.517 24.5,147C 25.4231,149.041 25.7564,151.208 25.5,153.5C 24.7784,153.082 24.2784,152.416 24,151.5C 23.3012,156.281 22.8012,156.447 22.5,152C 22.5651,149.474 23.2317,147.141 24.5,145C 22.8333,144.667 21.1667,144.333 19.5,144C 20.646,143.355 21.646,142.522 22.5,141.5C 23.086,141.709 23.586,142.043 24,142.5C 24.7096,141.027 25.8762,140.36 27.5,140.5C 27.3287,143.797 27.9954,144.131 29.5,141.5C 30.1924,142.025 30.6924,142.692 31,143.5C 34.1196,141.337 37.6196,140.504 41.5,141C 41.8333,141.333 42.1667,141.667 42.5,142C 41.5,142.333 40.5,142.667 39.5,143C 38.3044,143.654 38.3044,144.154 39.5,144.5C 41.9983,145.121 44.3316,144.455 46.5,142.5C 46.8333,143.167 47.1667,143.833 47.5,144.5C 49.1913,142.744 51.1913,142.244 53.5,143C 53.0426,143.414 52.7093,143.914 52.5,144.5C 53.6016,145.176 54.6016,145.842 55.5,146.5 Z"/></g>
<g><path style="opacity:1" fill="#8c8c8c" d="M 67.5,145.5 C 69.5,145.833 71.5,146.167 73.5,146.5C 74.1325,152.21 71.7992,154.21 66.5,152.5C 64.9841,149.826 65.3174,147.492 67.5,145.5 Z"/></g>
<g><path style="opacity:1" fill="#696969" d="M 27.5,152.5 C 27.1583,153.338 26.4916,153.672 25.5,153.5C 25.7564,151.208 25.4231,149.041 24.5,147C 25.448,146.517 26.448,146.351 27.5,146.5C 27.5,148.5 27.5,150.5 27.5,152.5 Z"/></g>
<g><path style="opacity:1" fill="#c0c0c0" d="M 63.5,149.5 C 61.6096,149.703 60.1096,149.037 59,147.5C 58.6913,149.391 59.5247,150.725 61.5,151.5C 60.7261,152.711 59.8928,152.711 59,151.5C 58.5357,152.094 58.369,152.761 58.5,153.5C 57.3709,151.372 57.2042,149.039 58,146.5C 59.6995,145.594 61.5328,145.261 63.5,145.5C 63.5,146.833 63.5,148.167 63.5,149.5 Z"/></g>
<g><path style="opacity:1" fill="#ececec" d="M 67.5,147.5 C 68.5,147.5 69.5,147.5 70.5,147.5C 70.5,148.833 70.5,150.167 70.5,151.5C 69.5,151.5 68.5,151.5 67.5,151.5C 67.5,150.167 67.5,148.833 67.5,147.5 Z"/></g>
<g><path style="opacity:1" fill="#474747" d="M 35.5,146.5 C 35.631,147.239 35.4643,147.906 35,148.5C 34.1072,147.289 33.2739,147.289 32.5,148.5C 33.0253,149.192 33.6919,149.692 34.5,150C 33.5842,150.278 32.9175,150.778 32.5,151.5C 31.4819,150.708 31.1486,149.041 31.5,146.5C 32.8333,146.5 34.1667,146.5 35.5,146.5 Z"/></g>
<g><path style="opacity:1" fill="#888888" d="M 35.5,146.5 C 35.9133,148.395 36.2466,150.395 36.5,152.5C 36.1667,152.833 35.8333,153.167 35.5,153.5C 34.7348,152.388 33.7348,151.721 32.5,151.5C 32.9175,150.778 33.5842,150.278 34.5,150C 33.6919,149.692 33.0253,149.192 32.5,148.5C 33.2739,147.289 34.1072,147.289 35,148.5C 35.4643,147.906 35.631,147.239 35.5,146.5 Z"/></g>
<g><path style="opacity:1" fill="#838383" d="M 45.5,146.5 C 47.4109,146.574 48.5776,147.574 49,149.5C 49.2492,148.376 49.7492,147.376 50.5,146.5C 51.7115,148.841 51.3782,151.007 49.5,153C 47.3787,151.686 46.0454,149.519 45.5,146.5 Z"/></g>
<g><path style="opacity:1" fill="#9a9a9a" d="M 55.5,146.5 C 55.8076,148.924 55.4742,151.257 54.5,153.5C 53.8933,153.376 53.56,153.043 53.5,152.5C 53.0254,149.918 53.6921,147.918 55.5,146.5 Z"/></g>
<g><path style="opacity:1" fill="#787878" d="M 63.5,149.5 C 63.6162,152.91 61.9496,154.244 58.5,153.5C 58.369,152.761 58.5357,152.094 59,151.5C 59.8928,152.711 60.7261,152.711 61.5,151.5C 59.5247,150.725 58.6913,149.391 59,147.5C 60.1096,149.037 61.6096,149.703 63.5,149.5 Z"/></g>
<g><path style="opacity:1" fill="#7e7e7e" d="M 42.5,153.5 C 42.1667,153.5 41.8333,153.5 41.5,153.5C 40.5,153.5 39.5,153.5 38.5,153.5C 38.5,150.833 38.5,148.167 38.5,145.5C 42.2571,145.286 42.9238,146.286 40.5,148.5C 42.9913,149.541 42.9913,150.374 40.5,151C 41.756,151.417 42.4226,152.25 42.5,153.5 Z"/></g>
<g><path style="opacity:1" fill="#7e7e7e" d="M 44.5,156.5 C 42.3743,157.103 40.0409,157.103 37.5,156.5C 39.2235,155.208 41.5568,155.208 44.5,156.5 Z"/></g>
</svg>
