<?xml version="1.0" encoding="UTF-8"?>
<!DOCTYPE svg PUBLIC "-//W3C//DTD SVG 1.1//EN" "http://www.w3.org/Graphics/SVG/1.1/DTD/svg11.dtd">
<svg xmlns="http://www.w3.org/2000/svg" version="1.1" width="100px" height="165px" style="shape-rendering:geometricPrecision; text-rendering:geometricPrecision; image-rendering:optimizeQuality; fill-rule:evenodd; clip-rule:evenodd" xmlns:xlink="http://www.w3.org/1999/xlink">
<g><path style="opacity:1" fill="#fafaf9" d="M -0.5,-0.5 C 20.5,-0.5 41.5,-0.5 62.5,-0.5C 61.5863,2.72797 61.2529,6.06131 61.5,9.5C 60.5386,7.73535 60.2053,5.73535 60.5,3.5C 59.5,3.5 58.5,3.5 57.5,3.5C 57.33,4.82207 57.6634,5.98873 58.5,7C 56.3476,9.0824 55.6809,8.91574 56.5,6.5C 55.5,5.83333 54.5,5.16667 53.5,4.5C 52.0416,3.21798 50.7082,3.21798 49.5,4.5C 48.8333,4.5 48.5,4.83333 48.5,5.5C 45.2109,7.13245 42.2109,9.13245 39.5,11.5C 38.5084,11.3284 37.8417,11.6618 37.5,12.5C 33.4581,13.0227 29.7914,14.5227 26.5,17C 9.95141,29.5945 3.61808,46.0945 7.5,66.5C 8.2112,72.303 9.54453,77.9697 11.5,83.5C 10.2621,88.8322 10.2621,94.1656 11.5,99.5C 12.1667,99.8333 12.8333,100.167 13.5,100.5C 14.4963,106.798 14.8297,113.132 14.5,119.5C 10.8284,119.183 9.16174,120.849 9.5,124.5C 7.28141,130.285 9.28141,132.951 15.5,132.5C 15.5,132.833 15.5,133.167 15.5,133.5C 14.5489,134.919 14.2155,136.585 14.5,138.5C 14.5,139.167 14.5,139.833 14.5,140.5C 14.3354,143.518 14.502,146.518 15,149.5C 16.5107,152.796 17.6774,156.129 18.5,159.5C 19.8333,159.5 21.1667,159.5 22.5,159.5C 22.5,158.167 22.5,156.833 22.5,155.5C 25.8685,148.253 27.5352,140.586 27.5,132.5C 30.368,132.915 32.5347,131.915 34,129.5C 34.3333,129.833 34.6667,130.167 35,130.5C 34.4347,133.404 33.9347,136.404 33.5,139.5C 31.8811,146.053 30.2144,152.72 28.5,159.5C 28.369,160.239 28.5357,160.906 29,161.5C 29.8928,160.289 30.7261,160.289 31.5,161.5C 30.3881,162.265 29.7214,163.265 29.5,164.5C 19.5,164.5 9.5,164.5 -0.5,164.5C -0.5,109.5 -0.5,54.5 -0.5,-0.5 Z"/></g>
<g><path style="opacity:1" fill="#faf9f8" d="M 62.5,-0.5 C 74.8333,-0.5 87.1667,-0.5 99.5,-0.5C 99.5,54.5 99.5,109.5 99.5,164.5C 76.1667,164.5 52.8333,164.5 29.5,164.5C 29.7214,163.265 30.3881,162.265 31.5,161.5C 30.7261,160.289 29.8928,160.289 29,161.5C 28.5357,160.906 28.369,160.239 28.5,159.5C 31.5788,159.74 34.5788,159.407 37.5,158.5C 38.2268,153.258 39.7268,148.258 42,143.5C 43.0616,142.101 44.395,141.101 46,140.5C 49.7051,142.704 52.5384,145.704 54.5,149.5C 55.031,152.099 55.1977,154.765 55,157.5C 57.6402,161.457 60.1402,161.457 62.5,157.5C 62.6528,153.033 62.9861,148.533 63.5,144C 63.3158,142.624 62.6491,141.791 61.5,141.5C 61.1583,140.662 60.4916,140.328 59.5,140.5C 58.2287,135.461 55.562,131.295 51.5,128C 53.3807,125.622 55.7141,123.789 58.5,122.5C 65.1071,127.779 69.7737,134.446 72.5,142.5C 72.6495,143.552 72.4828,144.552 72,145.5C 67.8658,148.427 66.6991,152.094 68.5,156.5C 68.7376,158.404 69.7376,159.738 71.5,160.5C 78.629,164.01 83.629,162.01 86.5,154.5C 86.4535,151.072 85.2868,148.072 83,145.5C 83.2605,138.935 81.7605,132.935 78.5,127.5C 74.3323,119.15 68.3323,112.483 60.5,107.5C 60.5,107.167 60.5,106.833 60.5,106.5C 60.5,102.5 60.5,98.5 60.5,94.5C 60.6985,92.0401 61.3652,89.7067 62.5,87.5C 63.1924,88.0253 63.6924,88.6919 64,89.5C 65.0391,88.2899 66.2058,87.2899 67.5,86.5C 67.5608,89.0495 68.8941,90.5495 71.5,91C 73.4884,91.1805 75.4884,91.0138 77.5,90.5C 79.3142,90.124 80.9808,90.124 82.5,90.5C 83.4786,93.9528 84.9786,94.2862 87,91.5C 88.8576,87.6689 88.6909,84.0022 86.5,80.5C 86.5,80.1667 86.5,79.8333 86.5,79.5C 86.1195,75.7193 84.1195,73.386 80.5,72.5C 77.8112,70.883 74.8112,69.883 71.5,69.5C 70.0959,66.6231 67.7626,64.9565 64.5,64.5C 64.5,63.1667 65.1667,62.5 66.5,62.5C 68.719,63.8796 70.719,63.5463 72.5,61.5C 72.9949,58.5297 74.4949,56.1963 77,54.5C 77.4935,52.8659 77.6602,51.1992 77.5,49.5C 78.3382,49.1583 78.6716,48.4916 78.5,47.5C 78.7683,44.8806 78.435,42.3806 77.5,40C 75.1401,37.6468 72.4735,35.6468 69.5,34C 62.7149,32.6695 56.3815,33.6695 50.5,37C 48.8194,39.5221 47.8194,42.3555 47.5,45.5C 47.5427,46.4164 47.8761,47.0831 48.5,47.5C 49.2632,49.3684 50.2632,51.0351 51.5,52.5C 52.1667,53.1667 52.8333,53.8333 53.5,54.5C 53.7373,55.791 53.404,56.791 52.5,57.5C 51.5041,57.5858 50.6708,57.2524 50,56.5C 48.7291,53.5674 47.0624,50.9007 45,48.5C 44.502,45.5184 44.3354,42.5184 44.5,39.5C 46.6866,36.474 48.6866,33.3074 50.5,30C 48.8069,27.7799 47.8069,25.2799 47.5,22.5C 54.2167,21.0926 60.8834,21.426 67.5,23.5C 69.3548,25.0331 71.1881,26.6997 73,28.5C 73.3736,30.4913 74.207,32.158 75.5,33.5C 76.0577,34.7899 77.0577,35.6232 78.5,36C 80.8098,36.4966 83.1432,36.6633 85.5,36.5C 89.7244,36.9475 91.391,35.2809 90.5,31.5C 92.9075,28.8691 92.9075,26.3691 90.5,24C 91.4506,23.2825 91.6172,22.4491 91,21.5C 90.3457,22.6956 89.8457,22.6956 89.5,21.5C 90.1667,20.1667 90.8333,18.8333 91.5,17.5C 90.5,16.8333 89.5,16.1667 88.5,15.5C 90.2336,13.0246 91.067,10.3579 91,7.5C 89.4157,6.13865 87.5824,5.47199 85.5,5.5C 85.059,0.563681 83.559,0.230348 81,4.5C 80.4768,2.77735 79.4768,1.44402 78,0.5C 77.5,0.833333 77,1.16667 76.5,1.5C 77.0024,3.64408 77.5024,5.97741 78,8.5C 76.4345,7.9394 75.1011,8.60607 74,10.5C 73.5172,11.448 73.3505,12.448 73.5,13.5C 69.7205,11.5735 65.7205,10.2401 61.5,9.5C 61.2529,6.06131 61.5863,2.72797 62.5,-0.5 Z"/></g>
<g><path style="opacity:1" fill="#535860" d="M 49.5,4.5 C 50.3764,4.36912 51.0431,4.70245 51.5,5.5C 50.2947,6.99481 50.2947,8.32814 51.5,9.5C 51.1667,10.1667 50.8333,10.8333 50.5,11.5C 50.1667,11.5 49.8333,11.5 49.5,11.5C 49.6716,10.5084 49.3382,9.84171 48.5,9.5C 48.5,8.16667 48.5,6.83333 48.5,5.5C 48.5,4.83333 48.8333,4.5 49.5,4.5 Z"/></g>
<g><path style="opacity:1" fill="#499abd" d="M 48.5,5.5 C 48.5,6.83333 48.5,8.16667 48.5,9.5C 47.5418,11.3024 46.8751,13.3024 46.5,15.5C 44.8539,20.668 45.5206,25.668 48.5,30.5C 47.9649,32.261 46.9649,33.5943 45.5,34.5C 47.4024,29.6418 45.7357,26.9751 40.5,26.5C 43.0364,22.6102 44.0364,18.2768 43.5,13.5C 42.5,13.5 41.5,13.5 40.5,13.5C 42.0311,12.0755 41.6977,11.4088 39.5,11.5C 42.2109,9.13245 45.2109,7.13245 48.5,5.5 Z"/></g>
<g><path style="opacity:1" fill="#eeedeb" d="M 85.5,36.5 C 91.4138,31.5128 91.7471,26.1795 86.5,20.5C 87.4299,16.6002 87.7633,12.6002 87.5,8.5C 85.6915,7.60592 83.8582,6.60592 82,5.5C 81.5,5.83333 81,6.16667 80.5,6.5C 78.7829,10.9966 78.1162,15.6632 78.5,20.5C 78.1667,20.5 77.8333,20.5 77.5,20.5C 70.2933,13.568 61.6266,9.90137 51.5,9.5C 50.2947,8.32814 50.2947,6.99481 51.5,5.5C 51.0431,4.70245 50.3764,4.36912 49.5,4.5C 50.7082,3.21798 52.0416,3.21798 53.5,4.5C 54.5,5.16667 55.5,5.83333 56.5,6.5C 55.6809,8.91574 56.3476,9.0824 58.5,7C 57.6634,5.98873 57.33,4.82207 57.5,3.5C 58.5,3.5 59.5,3.5 60.5,3.5C 60.2053,5.73535 60.5386,7.73535 61.5,9.5C 65.7205,10.2401 69.7205,11.5735 73.5,13.5C 73.3505,12.448 73.5172,11.448 74,10.5C 75.1011,8.60607 76.4345,7.9394 78,8.5C 77.5024,5.97741 77.0024,3.64408 76.5,1.5C 77,1.16667 77.5,0.833333 78,0.5C 79.4768,1.44402 80.4768,2.77735 81,4.5C 83.559,0.230348 85.059,0.563681 85.5,5.5C 87.5824,5.47199 89.4157,6.13865 91,7.5C 91.067,10.3579 90.2336,13.0246 88.5,15.5C 89.5,16.1667 90.5,16.8333 91.5,17.5C 90.8333,18.8333 90.1667,20.1667 89.5,21.5C 89.8457,22.6956 90.3457,22.6956 91,21.5C 91.6172,22.4491 91.4506,23.2825 90.5,24C 92.9075,26.3691 92.9075,28.8691 90.5,31.5C 91.391,35.2809 89.7244,36.9475 85.5,36.5 Z"/></g>
<g><path style="opacity:1" fill="#738a7c" d="M 87.5,8.5 C 86.6236,8.36912 85.9569,8.70245 85.5,9.5C 86.3256,10.451 86.4922,11.451 86,12.5C 84.9563,11.3774 84.2896,10.0441 84,8.5C 83.6667,12.1667 83.3333,15.8333 83,19.5C 82.0592,6.55486 80.8925,6.88819 79.5,20.5C 79.1667,20.5 78.8333,20.5 78.5,20.5C 78.1162,15.6632 78.7829,10.9966 80.5,6.5C 81,6.16667 81.5,5.83333 82,5.5C 83.8582,6.60592 85.6915,7.60592 87.5,8.5 Z"/></g>
<g><path style="opacity:1" fill="#7d4d48" d="M 51.5,9.5 C 61.6266,9.90137 70.2933,13.568 77.5,20.5C 77.5,21.5 77.5,22.5 77.5,23.5C 76.8333,23.5 76.1667,23.5 75.5,23.5C 73.2918,18.8011 69.6251,15.6345 64.5,14C 60.0783,11.8964 55.4116,11.0631 50.5,11.5C 50.8333,10.8333 51.1667,10.1667 51.5,9.5 Z"/></g>
<g><path style="opacity:1" fill="#384a3a" d="M 87.5,8.5 C 87.7633,12.6002 87.4299,16.6002 86.5,20.5C 83.8965,21.2151 81.5632,21.2151 79.5,20.5C 80.8925,6.88819 82.0592,6.55486 83,19.5C 83.3333,15.8333 83.6667,12.1667 84,8.5C 84.2896,10.0441 84.9563,11.3774 86,12.5C 86.4922,11.451 86.3256,10.451 85.5,9.5C 85.9569,8.70245 86.6236,8.36912 87.5,8.5 Z"/></g>
<g><path style="opacity:1" fill="#21242e" d="M 48.5,9.5 C 49.3382,9.84171 49.6716,10.5084 49.5,11.5C 47.783,14.8448 47.1164,18.5115 47.5,22.5C 46.5318,20.3926 46.1984,18.0593 46.5,15.5C 46.8751,13.3024 47.5418,11.3024 48.5,9.5 Z"/></g>
<g><path style="opacity:1" fill="#5e4c64" d="M 39.5,11.5 C 41.6977,11.4088 42.0311,12.0755 40.5,13.5C 36.1004,17.9672 32.4338,22.9672 29.5,28.5C 29.8701,24.7114 31.2034,21.378 33.5,18.5C 36.0442,17.2921 37.3775,15.2921 37.5,12.5C 37.8417,11.6618 38.5084,11.3284 39.5,11.5 Z"/></g>
<g><path style="opacity:1" fill="#c15f6c" d="M 33.5,18.5 C 31.2034,21.378 29.8701,24.7114 29.5,28.5C 29.6716,29.4916 29.3382,30.1583 28.5,30.5C 27.8333,31.1667 27.1667,31.8333 26.5,32.5C 27.5222,28.4174 28.8556,24.4174 30.5,20.5C 29.1916,19.3744 27.8583,19.3744 26.5,20.5C 27.5904,18.3509 29.4238,17.0175 32,16.5C 33.0299,16.8361 33.5299,17.5028 33.5,18.5 Z"/></g>
<g><path style="opacity:1" fill="#9d4848" d="M 49.5,11.5 C 49.8333,11.5 50.1667,11.5 50.5,11.5C 55.4116,11.0631 60.0783,11.8964 64.5,14C 69.6251,15.6345 73.2918,18.8011 75.5,23.5C 75.7148,25.1788 75.0481,26.1788 73.5,26.5C 72.7372,24.4325 71.4039,22.7659 69.5,21.5C 65.9285,20.2937 62.2618,19.627 58.5,19.5C 58.5,18.5 58.5,17.5 58.5,16.5C 55.5,16.5 52.5,16.5 49.5,16.5C 49.5,14.8333 49.5,13.1667 49.5,11.5 Z"/></g>
<g><path style="opacity:1" fill="#8f4f52" d="M 49.5,11.5 C 49.5,13.1667 49.5,14.8333 49.5,16.5C 52.5,16.5 55.5,16.5 58.5,16.5C 58.5,17.5 58.5,18.5 58.5,19.5C 62.2618,19.627 65.9285,20.2937 69.5,21.5C 71.4039,22.7659 72.7372,24.4325 73.5,26.5C 71.7837,24.9752 69.7837,23.9752 67.5,23.5C 60.8834,21.426 54.2167,21.0926 47.5,22.5C 47.1164,18.5115 47.783,14.8448 49.5,11.5 Z"/></g>
<g><path style="opacity:1" fill="#907b6c" d="M 77.5,20.5 C 77.8333,20.5 78.1667,20.5 78.5,20.5C 78.8333,20.5 79.1667,20.5 79.5,20.5C 81.5632,21.2151 83.8965,21.2151 86.5,20.5C 91.7471,26.1795 91.4138,31.5128 85.5,36.5C 83.1432,36.6633 80.8098,36.4966 78.5,36C 77.0577,35.6232 76.0577,34.7899 75.5,33.5C 77.1667,33.5 78.8333,33.5 80.5,33.5C 81.8734,33.6567 83.2068,33.49 84.5,33C 82.5946,32.1739 82.2612,31.0072 83.5,29.5C 86.0412,32.4094 87.7078,31.9094 88.5,28C 87.842,26.0955 86.6753,24.5955 85,23.5C 84.2904,24.9733 83.1238,25.6399 81.5,25.5C 81.719,24.325 81.3857,23.325 80.5,22.5C 79.5832,23.1272 78.5832,23.4606 77.5,23.5C 77.5,22.5 77.5,21.5 77.5,20.5 Z"/></g>
<g><path style="opacity:1" fill="#496e7c" d="M 46.5,15.5 C 46.1984,18.0593 46.5318,20.3926 47.5,22.5C 47.8069,25.2799 48.8069,27.7799 50.5,30C 48.6866,33.3074 46.6866,36.474 44.5,39.5C 43.5326,40.8062 42.1993,41.4729 40.5,41.5C 39.6522,40.375 38.6522,40.375 37.5,41.5C 37.7373,40.209 37.404,39.209 36.5,38.5C 37.8278,36.2554 39.6612,35.9221 42,37.5C 43.5185,36.8366 44.6851,35.8366 45.5,34.5C 46.9649,33.5943 47.9649,32.261 48.5,30.5C 45.5206,25.668 44.8539,20.668 46.5,15.5 Z"/></g>
<g><path style="opacity:1" fill="#e24f5b" d="M 26.5,32.5 C 24.5152,35.1209 23.5152,38.1209 23.5,41.5C 22.2502,41.5774 21.4169,42.244 21,43.5C 20.1487,48.7053 18.982,53.7053 17.5,58.5C 15.6429,48.9296 16.4762,39.5962 20,30.5C 22.1718,29.4911 23.3385,27.8244 23.5,25.5C 24.759,24.0209 25.759,22.3542 26.5,20.5C 27.8583,19.3744 29.1916,19.3744 30.5,20.5C 28.8556,24.4174 27.5222,28.4174 26.5,32.5 Z"/></g>
<g><path style="opacity:1" fill="#8c6458" d="M 67.5,23.5 C 69.7837,23.9752 71.7837,24.9752 73.5,26.5C 75.0481,26.1788 75.7148,25.1788 75.5,23.5C 76.1667,23.5 76.8333,23.5 77.5,23.5C 79.3162,25.1366 81.3162,26.6366 83.5,28C 81.1902,28.4966 78.8568,28.6633 76.5,28.5C 76.3505,29.552 76.5172,30.552 77,31.5C 78.0665,29.7174 79.5665,29.2174 81.5,30C 80.6634,31.0113 80.33,32.1779 80.5,33.5C 78.8333,33.5 77.1667,33.5 75.5,33.5C 74.207,32.158 73.3736,30.4913 73,28.5C 71.1881,26.6997 69.3548,25.0331 67.5,23.5 Z"/></g>
<g><path style="opacity:1" fill="#6d4331" d="M 80.5,33.5 C 80.33,32.1779 80.6634,31.0113 81.5,30C 79.5665,29.2174 78.0665,29.7174 77,31.5C 76.5172,30.552 76.3505,29.552 76.5,28.5C 78.8568,28.6633 81.1902,28.4966 83.5,28C 81.3162,26.6366 79.3162,25.1366 77.5,23.5C 78.5832,23.4606 79.5832,23.1272 80.5,22.5C 81.3857,23.325 81.719,24.325 81.5,25.5C 83.1238,25.6399 84.2904,24.9733 85,23.5C 86.6753,24.5955 87.842,26.0955 88.5,28C 87.7078,31.9094 86.0412,32.4094 83.5,29.5C 82.2612,31.0072 82.5946,32.1739 84.5,33C 83.2068,33.49 81.8734,33.6567 80.5,33.5 Z"/></g>
<g><path style="opacity:1" fill="#2c93c0" d="M 40.5,26.5 C 45.7357,26.9751 47.4024,29.6418 45.5,34.5C 44.6851,35.8366 43.5185,36.8366 42,37.5C 39.6612,35.9221 37.8278,36.2554 36.5,38.5C 36.1667,39.8333 35.8333,41.1667 35.5,42.5C 34.7398,46.8125 33.5731,51.1459 32,55.5C 31.9005,53.3474 31.0672,51.6808 29.5,50.5C 28.7784,50.9175 28.2784,51.5842 28,52.5C 28.8654,45.7375 31.0321,39.4042 34.5,33.5C 33.7542,32.2638 33.4208,30.9305 33.5,29.5C 36.0384,28.9573 38.3718,27.9573 40.5,26.5 Z"/></g>
<g><path style="opacity:1" fill="#3aa9d7" d="M 40.5,13.5 C 41.5,13.5 42.5,13.5 43.5,13.5C 44.0364,18.2768 43.0364,22.6102 40.5,26.5C 38.3718,27.9573 36.0384,28.9573 33.5,29.5C 33.4208,30.9305 33.7542,32.2638 34.5,33.5C 31.0321,39.4042 28.8654,45.7375 28,52.5C 28.2784,51.5842 28.7784,50.9175 29.5,50.5C 30.0283,51.8474 30.195,53.1807 30,54.5C 28.984,53.3659 28.3173,53.6992 28,55.5C 27.0255,53.1224 26.3589,53.4557 26,56.5C 25.4375,58.8661 25.6042,61.1994 26.5,63.5C 26.263,66.0635 25.763,66.0635 25,63.5C 24.8333,64.1667 24.6667,64.8333 24.5,65.5C 25.5423,69.7988 25.7089,74.1321 25,78.5C 23.331,80.1691 22.4977,82.1691 22.5,84.5C 22.7373,85.791 22.404,86.791 21.5,87.5C 20.3285,86.6554 18.9952,85.9887 17.5,85.5C 19.1105,66.6645 22.7772,48.3311 28.5,30.5C 29.3382,30.1583 29.6716,29.4916 29.5,28.5C 32.4338,22.9672 36.1004,17.9672 40.5,13.5 Z"/></g>
<g><path style="opacity:1" fill="#9d6662" d="M 78.5,47.5 C 77.2334,48.087 76.2334,48.087 75.5,47.5C 77.5524,45.6126 77.8858,43.6126 76.5,41.5C 71.9528,36.7062 66.2861,34.3729 59.5,34.5C 57.4501,35.0766 56.4501,36.4099 56.5,38.5C 56.6309,39.3764 56.2975,40.0431 55.5,40.5C 54.2638,39.7542 52.9305,39.4208 51.5,39.5C 51.5,41.5 51.5,43.5 51.5,45.5C 50.7519,47.7349 49.9186,47.4016 49,44.5C 48.5172,45.448 48.3505,46.448 48.5,47.5C 47.8761,47.0831 47.5427,46.4164 47.5,45.5C 47.8194,42.3555 48.8194,39.5221 50.5,37C 56.3815,33.6695 62.7149,32.6695 69.5,34C 72.4735,35.6468 75.1401,37.6468 77.5,40C 78.435,42.3806 78.7683,44.8806 78.5,47.5 Z"/></g>
<g><path style="opacity:1" fill="#be5a5b" d="M 76.5,41.5 C 76.5,42.8333 75.8333,43.5 74.5,43.5C 73.9344,41.9217 72.9344,40.5884 71.5,39.5C 68.5692,38.7272 65.7359,37.7272 63,36.5C 62.51,37.7932 62.3433,39.1266 62.5,40.5C 60.3146,40.2964 58.3146,39.6298 56.5,38.5C 56.4501,36.4099 57.4501,35.0766 59.5,34.5C 66.2861,34.3729 71.9528,36.7062 76.5,41.5 Z"/></g>
<g><path style="opacity:1" fill="#842e2a" d="M 74.5,43.5 C 66.2658,40.1609 58.5992,40.8276 51.5,45.5C 51.5,43.5 51.5,41.5 51.5,39.5C 52.9305,39.4208 54.2638,39.7542 55.5,40.5C 56.2975,40.0431 56.6309,39.3764 56.5,38.5C 58.3146,39.6298 60.3146,40.2964 62.5,40.5C 62.3433,39.1266 62.51,37.7932 63,36.5C 65.7359,37.7272 68.5692,38.7272 71.5,39.5C 72.9344,40.5884 73.9344,41.9217 74.5,43.5 Z"/></g>
<g><path style="opacity:1" fill="#eab990" d="M 40.5,41.5 C 42.571,48.3087 45.7376,54.642 50,60.5C 51.0495,61.5171 52.2161,61.6838 53.5,61C 52.8333,60.6667 52.1667,60.3333 51.5,60C 51.7284,59.6012 52.0618,59.4346 52.5,59.5C 54.0109,58.4975 55.6776,57.8308 57.5,57.5C 57.5,56.5 57.5,55.5 57.5,54.5C 58.9235,51.2876 59.2569,47.9543 58.5,44.5C 58.6107,43.8826 58.944,43.3826 59.5,43C 66.5273,40.9256 71.5273,43.0923 74.5,49.5C 74.5,50.8333 74.5,52.1667 74.5,53.5C 72.8333,53.5 71.1667,53.5 69.5,53.5C 71.4979,57.1678 70.4979,59.5011 66.5,60.5C 64.0846,60.3735 61.7513,60.2068 59.5,60C 60.5,61 61.5,62 62.5,63C 57.2182,62.8233 57.2182,63.6566 62.5,65.5C 64.0532,67.3134 65.7199,69.1467 67.5,71C 66.2668,73.3143 64.9334,75.4809 63.5,77.5C 62.3886,76.3403 61.3886,75.007 60.5,73.5C 59.246,75.2592 59.5794,76.7592 61.5,78C 61,78.1667 60.5,78.3333 60,78.5C 58.05,76.4285 55.8833,76.0952 53.5,77.5C 49.0207,77.621 46.0207,75.621 44.5,71.5C 43.675,70.6143 42.675,70.281 41.5,70.5C 41.2949,65.6406 40.2949,65.6406 38.5,70.5C 38.3398,68.8008 38.5065,67.1341 39,65.5C 40.4638,64.541 41.2972,63.2077 41.5,61.5C 40.0371,55.4756 38.7038,49.4756 37.5,43.5C 37.5,42.8333 37.5,42.1667 37.5,41.5C 38.6522,40.375 39.6522,40.375 40.5,41.5 Z"/></g>
<g><path style="opacity:1" fill="#5b4e62" d="M 28.5,30.5 C 22.7772,48.3311 19.1105,66.6645 17.5,85.5C 16.7281,84.3065 15.7281,83.3065 14.5,82.5C 14.1667,81.1667 13.8333,79.8333 13.5,78.5C 14.4584,78.9528 15.2917,79.6195 16,80.5C 16.3988,80.2716 16.5654,79.9382 16.5,79.5C 17.2476,73.6336 17.9143,67.6336 18.5,61.5C 19.9818,54.8114 21.6484,48.1448 23.5,41.5C 23.5152,38.1209 24.5152,35.1209 26.5,32.5C 27.1667,31.8333 27.8333,31.1667 28.5,30.5 Z"/></g>
<g><path style="opacity:1" fill="#704036" d="M 74.5,43.5 C 75.8333,43.5 76.5,42.8333 76.5,41.5C 77.8858,43.6126 77.5524,45.6126 75.5,47.5C 76.2334,48.087 77.2334,48.087 78.5,47.5C 78.6716,48.4916 78.3382,49.1583 77.5,49.5C 76.71,50.6085 76.21,51.9419 76,53.5C 75.79,51.9419 75.29,50.6085 74.5,49.5C 71.5273,43.0923 66.5273,40.9256 59.5,43C 58.944,43.3826 58.6107,43.8826 58.5,44.5C 55.8283,46.3914 54.8283,49.0581 55.5,52.5C 54.1667,52.5 52.8333,52.5 51.5,52.5C 50.2632,51.0351 49.2632,49.3684 48.5,47.5C 48.3505,46.448 48.5172,45.448 49,44.5C 49.9186,47.4016 50.7519,47.7349 51.5,45.5C 58.5992,40.8276 66.2658,40.1609 74.5,43.5 Z"/></g>
<g><path style="opacity:1" fill="#b38573" d="M 58.5,44.5 C 59.2569,47.9543 58.9235,51.2876 57.5,54.5C 57.1667,49.1667 56.8333,49.1667 56.5,54.5C 55.5,54.5 54.5,54.5 53.5,54.5C 52.8333,53.8333 52.1667,53.1667 51.5,52.5C 52.8333,52.5 54.1667,52.5 55.5,52.5C 54.8283,49.0581 55.8283,46.3914 58.5,44.5 Z"/></g>
<g><path style="opacity:1" fill="#a67a56" d="M 65.5,46.5 C 67.6348,46.147 68.9681,46.9803 69.5,49C 68.381,50.876 66.7144,51.7093 64.5,51.5C 64.6287,49.7839 64.962,48.1172 65.5,46.5 Z"/></g>
<g><path style="opacity:1" fill="#a33842" d="M 23.5,25.5 C 23.3385,27.8244 22.1718,29.4911 20,30.5C 16.4762,39.5962 15.6429,48.9296 17.5,58.5C 17.4606,59.5832 17.1272,60.5832 16.5,61.5C 16.9698,62.463 17.6365,62.463 18.5,61.5C 17.9143,67.6336 17.2476,73.6336 16.5,79.5C 14.9696,74.9411 13.3029,70.4411 11.5,66C 13.5545,63.837 14.3878,61.337 14,58.5C 12.8145,60.5593 11.6479,60.726 10.5,59C 8.69926,51.0095 9.86593,43.5095 14,36.5C 16.2279,32.0996 19.3945,28.4329 23.5,25.5 Z"/></g>
<g><path style="opacity:1" fill="#724145" d="M 37.5,12.5 C 37.3775,15.2921 36.0442,17.2921 33.5,18.5C 33.5299,17.5028 33.0299,16.8361 32,16.5C 29.4238,17.0175 27.5904,18.3509 26.5,20.5C 11.289,31.6247 5.45571,46.6247 9,65.5C 10.0799,69.9882 11.5799,74.3215 13.5,78.5C 10.6107,74.9356 8.61067,70.9356 7.5,66.5C 3.61808,46.0945 9.95141,29.5945 26.5,17C 29.7914,14.5227 33.4581,13.0227 37.5,12.5 Z"/></g>
<g><path style="opacity:1" fill="#334b5d" d="M 36.5,38.5 C 37.404,39.209 37.7373,40.209 37.5,41.5C 37.5,42.1667 37.5,42.8333 37.5,43.5C 37.3444,46.0661 37.6777,48.5661 38.5,51C 37.9444,52.0111 37.2778,52.8444 36.5,53.5C 34.3657,60.3711 32.6991,67.3711 31.5,74.5C 31.1667,74.5 30.8333,74.5 30.5,74.5C 30.6083,67.5149 32.1083,60.8483 35,54.5C 35.4988,50.5138 35.6655,46.5138 35.5,42.5C 35.8333,41.1667 36.1667,39.8333 36.5,38.5 Z"/></g>
<g><path style="opacity:1" fill="#a88c72" d="M 44.5,39.5 C 44.3354,42.5184 44.502,45.5184 45,48.5C 47.0624,50.9007 48.7291,53.5674 50,56.5C 50.6708,57.2524 51.5041,57.5858 52.5,57.5C 52.5,58.1667 52.5,58.8333 52.5,59.5C 52.0618,59.4346 51.7284,59.6012 51.5,60C 52.1667,60.3333 52.8333,60.6667 53.5,61C 52.2161,61.6838 51.0495,61.5171 50,60.5C 45.7376,54.642 42.571,48.3087 40.5,41.5C 42.1993,41.4729 43.5326,40.8062 44.5,39.5 Z"/></g>
<g><path style="opacity:1" fill="#704936" d="M 57.5,54.5 C 57.5,55.5 57.5,56.5 57.5,57.5C 55.6776,57.8308 54.0109,58.4975 52.5,59.5C 52.5,58.8333 52.5,58.1667 52.5,57.5C 53.404,56.791 53.7373,55.791 53.5,54.5C 54.5,54.5 55.5,54.5 56.5,54.5C 56.8333,49.1667 57.1667,49.1667 57.5,54.5 Z"/></g>
<g><path style="opacity:1" fill="#c86273" d="M 23.5,41.5 C 21.6484,48.1448 19.9818,54.8114 18.5,61.5C 17.6365,62.463 16.9698,62.463 16.5,61.5C 17.1272,60.5832 17.4606,59.5832 17.5,58.5C 18.982,53.7053 20.1487,48.7053 21,43.5C 21.4169,42.244 22.2502,41.5774 23.5,41.5 Z"/></g>
<g><path style="opacity:1" fill="#b6805d" d="M 64.5,55.5 C 65.5,55.5 66.5,55.5 67.5,55.5C 67.1144,59.7376 65.4477,60.4043 62.5,57.5C 63.2427,56.8182 63.9094,56.1515 64.5,55.5 Z"/></g>
<g><path style="opacity:1" fill="#b15360" d="M 26.5,20.5 C 25.759,22.3542 24.759,24.0209 23.5,25.5C 19.3945,28.4329 16.2279,32.0996 14,36.5C 9.86593,43.5095 8.69926,51.0095 10.5,59C 11.6479,60.726 12.8145,60.5593 14,58.5C 14.3878,61.337 13.5545,63.837 11.5,66C 13.3029,70.4411 14.9696,74.9411 16.5,79.5C 16.5654,79.9382 16.3988,80.2716 16,80.5C 15.2917,79.6195 14.4584,78.9528 13.5,78.5C 11.5799,74.3215 10.0799,69.9882 9,65.5C 5.45571,46.6247 11.289,31.6247 26.5,20.5 Z"/></g>
<g><path style="opacity:1" fill="#e1e3e0" d="M 36.5,53.5 C 38.2343,55.6832 39.2343,58.3498 39.5,61.5C 37.5601,66.3997 34.8934,70.733 31.5,74.5C 32.6991,67.3711 34.3657,60.3711 36.5,53.5 Z"/></g>
<g><path style="opacity:1" fill="#6e5347" d="M 74.5,49.5 C 75.29,50.6085 75.79,51.9419 76,53.5C 76.21,51.9419 76.71,50.6085 77.5,49.5C 77.6602,51.1992 77.4935,52.8659 77,54.5C 74.4949,56.1963 72.9949,58.5297 72.5,61.5C 70.719,63.5463 68.719,63.8796 66.5,62.5C 66.5,61.8333 66.5,61.1667 66.5,60.5C 70.4979,59.5011 71.4979,57.1678 69.5,53.5C 71.1667,53.5 72.8333,53.5 74.5,53.5C 74.5,52.1667 74.5,50.8333 74.5,49.5 Z"/></g>
<g><path style="opacity:1" fill="#846b5b" d="M 37.5,43.5 C 38.7038,49.4756 40.0371,55.4756 41.5,61.5C 41.2972,63.2077 40.4638,64.541 39,65.5C 38.5065,67.1341 38.3398,68.8008 38.5,70.5C 36.478,71.507 35.1447,73.1737 34.5,75.5C 34.7373,76.791 34.404,77.791 33.5,78.5C 33.719,77.325 33.3857,76.325 32.5,75.5C 31.7025,75.9569 31.3691,76.6236 31.5,77.5C 30.596,76.791 30.2627,75.791 30.5,74.5C 30.8333,74.5 31.1667,74.5 31.5,74.5C 34.8934,70.733 37.5601,66.3997 39.5,61.5C 39.2343,58.3498 38.2343,55.6832 36.5,53.5C 37.2778,52.8444 37.9444,52.0111 38.5,51C 37.6777,48.5661 37.3444,46.0661 37.5,43.5 Z"/></g>
<g><path style="opacity:1" fill="#8d6b4b" d="M 66.5,60.5 C 66.5,61.1667 66.5,61.8333 66.5,62.5C 65.1667,62.5 64.5,63.1667 64.5,64.5C 64.1583,65.3382 63.4916,65.6716 62.5,65.5C 57.2182,63.6566 57.2182,62.8233 62.5,63C 61.5,62 60.5,61 59.5,60C 61.7513,60.2068 64.0846,60.3735 66.5,60.5 Z"/></g>
<g><path style="opacity:1" fill="#d8ae93" d="M 64.5,64.5 C 67.7626,64.9565 70.0959,66.6231 71.5,69.5C 67.7758,71.5259 66.4425,74.5259 67.5,78.5C 66.1667,79.5 64.8333,80.5 63.5,81.5C 63.5,80.1667 63.5,78.8333 63.5,77.5C 64.9334,75.4809 66.2668,73.3143 67.5,71C 65.7199,69.1467 64.0532,67.3134 62.5,65.5C 63.4916,65.6716 64.1583,65.3382 64.5,64.5 Z"/></g>
<g><path style="opacity:1" fill="#a67860" d="M 41.5,70.5 C 40.0138,73.9552 40.3472,77.2885 42.5,80.5C 40.7085,80.366 39.0418,80.6993 37.5,81.5C 37.6641,78.8127 37.4974,76.146 37,73.5C 36.5831,74.756 35.7498,75.4226 34.5,75.5C 35.1447,73.1737 36.478,71.507 38.5,70.5C 40.2949,65.6406 41.2949,65.6406 41.5,70.5 Z"/></g>
<g><path style="opacity:1" fill="#945c41" d="M 45.5,66.5 C 49.8915,67.1953 53.5581,69.1953 56.5,72.5C 50.4127,74.7217 46.746,72.7217 45.5,66.5 Z"/></g>
<g><path style="opacity:1" fill="#b0837e" d="M 71.5,69.5 C 74.8112,69.883 77.8112,70.883 80.5,72.5C 77.7531,72.8134 75.0865,72.48 72.5,71.5C 72.1373,70.8165 71.8039,70.1499 71.5,69.5 Z"/></g>
<g><path style="opacity:1" fill="#9c5e56" d="M 71.5,69.5 C 71.8039,70.1499 72.1373,70.8165 72.5,71.5C 75.0865,72.48 77.7531,72.8134 80.5,72.5C 84.1195,73.386 86.1195,75.7193 86.5,79.5C 85.5,79.5 84.5,79.5 83.5,79.5C 81.8191,75.1027 78.8191,73.436 74.5,74.5C 73.1779,74.67 72.0113,74.3366 71,73.5C 70.7767,75.8808 69.61,77.5475 67.5,78.5C 66.4425,74.5259 67.7758,71.5259 71.5,69.5 Z"/></g>
<g><path style="opacity:1" fill="#e4b69d" d="M 37.5,81.5 C 37.728,83.3547 37.0613,84.1881 35.5,84C 34.1387,82.4157 33.472,80.5824 33.5,78.5C 34.404,77.791 34.7373,76.791 34.5,75.5C 35.7498,75.4226 36.5831,74.756 37,73.5C 37.4974,76.146 37.6641,78.8127 37.5,81.5 Z"/></g>
<g><path style="opacity:1" fill="#2b7da8" d="M 35.5,42.5 C 35.6655,46.5138 35.4988,50.5138 35,54.5C 32.1083,60.8483 30.6083,67.5149 30.5,74.5C 29.7895,79.2201 28.7895,83.8868 27.5,88.5C 26.8333,88.1667 26.1667,87.8333 25.5,87.5C 25.1436,85.8102 24.1436,84.8102 22.5,84.5C 22.4977,82.1691 23.331,80.1691 25,78.5C 25.7089,74.1321 25.5423,69.7988 24.5,65.5C 24.6667,64.8333 24.8333,64.1667 25,63.5C 25.763,66.0635 26.263,66.0635 26.5,63.5C 25.6042,61.1994 25.4375,58.8661 26,56.5C 26.3589,53.4557 27.0255,53.1224 28,55.5C 28.3173,53.6992 28.984,53.3659 30,54.5C 30.195,53.1807 30.0283,51.8474 29.5,50.5C 31.0672,51.6808 31.9005,53.3474 32,55.5C 33.5731,51.1459 34.7398,46.8125 35.5,42.5 Z"/></g>
<g><path style="opacity:1" fill="#993f3d" d="M 83.5,79.5 C 81.591,81.8726 79.7577,81.8726 78,79.5C 76.951,81.1066 75.451,81.7733 73.5,81.5C 73.631,80.7611 73.4643,80.0944 73,79.5C 71.8173,80.731 70.6507,80.731 69.5,79.5C 70.325,78.6143 71.325,78.281 72.5,78.5C 72.5271,76.8007 73.1938,75.4674 74.5,74.5C 78.8191,73.436 81.8191,75.1027 83.5,79.5 Z"/></g>
<g><path style="opacity:1" fill="#f1c291" d="M 41.5,70.5 C 42.675,70.281 43.675,70.6143 44.5,71.5C 46.0207,75.621 49.0207,77.621 53.5,77.5C 55.8833,76.0952 58.05,76.4285 60,78.5C 60.5,78.3333 61,78.1667 61.5,78C 59.5794,76.7592 59.246,75.2592 60.5,73.5C 61.3886,75.007 62.3886,76.3403 63.5,77.5C 63.5,78.8333 63.5,80.1667 63.5,81.5C 62.1667,83.5 60.8333,85.5 59.5,87.5C 56.3303,91.0213 52.6636,94.0213 48.5,96.5C 50.754,91.9602 49.4206,89.4602 44.5,89C 43.4019,88.2303 43.4019,87.397 44.5,86.5C 44.7475,84.1417 44.0808,82.1417 42.5,80.5C 40.3472,77.2885 40.0138,73.9552 41.5,70.5 Z"/></g>
<g><path style="opacity:1" fill="#6c3c32" d="M 74.5,74.5 C 73.1938,75.4674 72.5271,76.8007 72.5,78.5C 71.325,78.281 70.325,78.6143 69.5,79.5C 70.6507,80.731 71.8173,80.731 73,79.5C 73.4643,80.0944 73.631,80.7611 73.5,81.5C 73.5,81.8333 73.5,82.1667 73.5,82.5C 72.2876,83.2299 71.2876,84.2299 70.5,85.5C 68.7751,83.9084 67.7751,84.2417 67.5,86.5C 66.2058,87.2899 65.0391,88.2899 64,89.5C 63.6924,88.6919 63.1924,88.0253 62.5,87.5C 61.3652,89.7067 60.6985,92.0401 60.5,94.5C 59.71,95.6085 59.21,96.9419 59,98.5C 58.5065,96.8659 58.3398,95.1992 58.5,93.5C 58.5172,91.4352 58.8505,89.4352 59.5,87.5C 60.8333,85.5 62.1667,83.5 63.5,81.5C 64.8333,80.5 66.1667,79.5 67.5,78.5C 69.61,77.5475 70.7767,75.8808 71,73.5C 72.0113,74.3366 73.1779,74.67 74.5,74.5 Z"/></g>
<g><path style="opacity:1" fill="#a7563f" d="M 83.5,79.5 C 84.5,79.5 85.5,79.5 86.5,79.5C 86.5,79.8333 86.5,80.1667 86.5,80.5C 85.7402,81.8933 85.0735,83.3933 84.5,85C 85.7627,90.6444 84.9294,90.8111 82,85.5C 81.5172,86.448 81.3505,87.448 81.5,88.5C 80.5,88.5 79.5,88.5 78.5,88.5C 76.5112,87.1134 74.6779,87.4468 73,89.5C 72.9326,87.2648 73.4326,85.0981 74.5,83C 74.2716,82.6012 73.9382,82.4346 73.5,82.5C 73.5,82.1667 73.5,81.8333 73.5,81.5C 75.451,81.7733 76.951,81.1066 78,79.5C 79.7577,81.8726 81.591,81.8726 83.5,79.5 Z"/></g>
<g><path style="opacity:1" fill="#5a3429" d="M 33.5,78.5 C 33.472,80.5824 34.1387,82.4157 35.5,84C 37.0613,84.1881 37.728,83.3547 37.5,81.5C 39.0418,80.6993 40.7085,80.366 42.5,80.5C 44.0808,82.1417 44.7475,84.1417 44.5,86.5C 43.0413,86.4326 41.7079,86.7659 40.5,87.5C 39.8333,87.8333 39.1667,88.1667 38.5,88.5C 36.1667,86.8333 34.1667,84.8333 32.5,82.5C 32.1667,81.8333 31.8333,81.1667 31.5,80.5C 31.5,79.5 31.5,78.5 31.5,77.5C 31.3691,76.6236 31.7025,75.9569 32.5,75.5C 33.3857,76.325 33.719,77.325 33.5,78.5 Z"/></g>
<g><path style="opacity:1" fill="#2c2431" d="M 30.5,74.5 C 30.2627,75.791 30.596,76.791 31.5,77.5C 31.5,78.5 31.5,79.5 31.5,80.5C 29.7623,85.2169 29.0956,90.2169 29.5,95.5C 29.5,96.5 29.5,97.5 29.5,98.5C 29.5,99.1667 29.5,99.8333 29.5,100.5C 28.8333,100.5 28.1667,100.5 27.5,100.5C 27.5,99.1667 27.5,97.8333 27.5,96.5C 27.5,93.8333 27.5,91.1667 27.5,88.5C 28.7895,83.8868 29.7895,79.2201 30.5,74.5 Z"/></g>
<g><path style="opacity:1" fill="#c1ab9a" d="M 14.5,82.5 C 15.7281,83.3065 16.7281,84.3065 17.5,85.5C 18.9952,85.9887 20.3285,86.6554 21.5,87.5C 19.8212,87.2852 18.8212,87.9519 18.5,89.5C 18.5,90.5 18.5,91.5 18.5,92.5C 16.2188,92.0773 14.5521,92.744 13.5,94.5C 12.4749,93.6261 11.8082,92.4595 11.5,91C 12.1272,87.9658 13.1272,85.1325 14.5,82.5 Z"/></g>
<g><path style="opacity:1" fill="#2e4753" d="M 22.5,84.5 C 24.1436,84.8102 25.1436,85.8102 25.5,87.5C 25.5,89.1667 25.5,90.8333 25.5,92.5C 24.1667,92.5 22.8333,92.5 21.5,92.5C 22.0906,91.8485 22.7573,91.1818 23.5,90.5C 21.9547,89.5481 20.288,89.2148 18.5,89.5C 18.8212,87.9519 19.8212,87.2852 21.5,87.5C 22.404,86.791 22.7373,85.791 22.5,84.5 Z"/></g>
<g><path style="opacity:1" fill="#92495c" d="M 31.5,80.5 C 31.8333,81.1667 32.1667,81.8333 32.5,82.5C 31.5924,86.8511 30.5924,91.1844 29.5,95.5C 29.0956,90.2169 29.7623,85.2169 31.5,80.5 Z"/></g>
<g><path style="opacity:1" fill="#bf957e" d="M 86.5,80.5 C 88.6909,84.0022 88.8576,87.6689 87,91.5C 84.9786,94.2862 83.4786,93.9528 82.5,90.5C 80.9808,90.124 79.3142,90.124 77.5,90.5C 77.3284,89.5084 77.6618,88.8417 78.5,88.5C 79.5,88.5 80.5,88.5 81.5,88.5C 81.3505,87.448 81.5172,86.448 82,85.5C 84.9294,90.8111 85.7627,90.6444 84.5,85C 85.0735,83.3933 85.7402,81.8933 86.5,80.5 Z"/></g>
<g><path style="opacity:1" fill="#d4a082" d="M 44.5,86.5 C 43.4019,87.397 43.4019,88.2303 44.5,89C 49.4206,89.4602 50.754,91.9602 48.5,96.5C 45.0969,94.1002 42.4302,91.1002 40.5,87.5C 41.7079,86.7659 43.0413,86.4326 44.5,86.5 Z"/></g>
<g><path style="opacity:1" fill="#b77b71" d="M 73.5,82.5 C 73.9382,82.4346 74.2716,82.6012 74.5,83C 73.4326,85.0981 72.9326,87.2648 73,89.5C 74.6779,87.4468 76.5112,87.1134 78.5,88.5C 77.6618,88.8417 77.3284,89.5084 77.5,90.5C 75.4884,91.0138 73.4884,91.1805 71.5,91C 68.8941,90.5495 67.5608,89.0495 67.5,86.5C 67.7751,84.2417 68.7751,83.9084 70.5,85.5C 71.2876,84.2299 72.2876,83.2299 73.5,82.5 Z"/></g>
<g><path style="opacity:1" fill="#88342c" d="M 40.5,87.5 C 42.4302,91.1002 45.0969,94.1002 48.5,96.5C 51.8416,99.2212 55.1749,101.888 58.5,104.5C 58.8333,105.5 59.5,106.167 60.5,106.5C 60.5,106.833 60.5,107.167 60.5,107.5C 60.5,107.833 60.5,108.167 60.5,108.5C 59.3951,107.4 58.0618,106.733 56.5,106.5C 52.0943,102.116 47.4277,97.9492 42.5,94C 41.035,92.2258 39.7017,90.3925 38.5,88.5C 39.1667,88.1667 39.8333,87.8333 40.5,87.5 Z"/></g>
<g><path style="opacity:1" fill="#9f8272" d="M 18.5,89.5 C 20.288,89.2148 21.9547,89.5481 23.5,90.5C 22.7573,91.1818 22.0906,91.8485 21.5,92.5C 18.7102,93.9671 17.0435,96.3004 16.5,99.5C 16.1667,99.5 15.8333,99.5 15.5,99.5C 15.6085,97.4862 14.9418,95.8195 13.5,94.5C 14.5521,92.744 16.2188,92.0773 18.5,92.5C 18.5,91.5 18.5,90.5 18.5,89.5 Z"/></g>
<g><path style="opacity:1" fill="#d6a089" d="M 59.5,87.5 C 58.8505,89.4352 58.5172,91.4352 58.5,93.5C 57.7337,95.6843 57.0671,98.0177 56.5,100.5C 57.6302,101.622 58.2969,102.956 58.5,104.5C 55.1749,101.888 51.8416,99.2212 48.5,96.5C 52.6636,94.0213 56.3303,91.0213 59.5,87.5 Z"/></g>
<g><path style="opacity:1" fill="#e7e6e3" d="M 7.5,66.5 C 8.61067,70.9356 10.6107,74.9356 13.5,78.5C 13.8333,79.8333 14.1667,81.1667 14.5,82.5C 13.1272,85.1325 12.1272,87.9658 11.5,91C 11.8082,92.4595 12.4749,93.6261 13.5,94.5C 14.9418,95.8195 15.6085,97.4862 15.5,99.5C 15.5,106.5 15.5,113.5 15.5,120.5C 13.5,121.833 11.5,123.167 9.5,124.5C 9.16174,120.849 10.8284,119.183 14.5,119.5C 14.8297,113.132 14.4963,106.798 13.5,100.5C 12.8333,100.167 12.1667,99.8333 11.5,99.5C 10.2621,94.1656 10.2621,88.8322 11.5,83.5C 9.54453,77.9697 8.2112,72.303 7.5,66.5 Z"/></g>
<g><path style="opacity:1" fill="#7c5e52" d="M 58.5,93.5 C 58.3398,95.1992 58.5065,96.8659 59,98.5C 59.21,96.9419 59.71,95.6085 60.5,94.5C 60.5,98.5 60.5,102.5 60.5,106.5C 59.5,106.167 58.8333,105.5 58.5,104.5C 58.2969,102.956 57.6302,101.622 56.5,100.5C 57.0671,98.0177 57.7337,95.6843 58.5,93.5 Z"/></g>
<g><path style="opacity:1" fill="#3c5e75" d="M 25.5,87.5 C 26.1667,87.8333 26.8333,88.1667 27.5,88.5C 27.5,91.1667 27.5,93.8333 27.5,96.5C 26.7326,97.172 26.0659,98.0053 25.5,99C 26.5995,102.934 26.5995,106.934 25.5,111C 25.6667,112.167 25.8333,113.333 26,114.5C 26.3826,113.944 26.8826,113.611 27.5,113.5C 27.5,115.833 27.5,118.167 27.5,120.5C 26.8501,120.196 26.1835,119.863 25.5,119.5C 24.8333,115.833 24.1667,112.167 23.5,108.5C 22.8165,108.863 22.1499,109.196 21.5,109.5C 21.6653,105.818 21.4986,102.152 21,98.5C 19.6439,99.3802 18.1439,99.7135 16.5,99.5C 17.0435,96.3004 18.7102,93.9671 21.5,92.5C 22.8333,92.5 24.1667,92.5 25.5,92.5C 25.5,90.8333 25.5,89.1667 25.5,87.5 Z"/></g>
<g><path style="opacity:1" fill="#b63e48" d="M 32.5,82.5 C 34.1667,84.8333 36.1667,86.8333 38.5,88.5C 39.7017,90.3925 41.035,92.2258 42.5,94C 47.4277,97.9492 52.0943,102.116 56.5,106.5C 55.2209,107.968 53.5542,108.635 51.5,108.5C 51.6567,109.873 51.49,111.207 51,112.5C 45.1589,109.995 39.9923,106.495 35.5,102C 34.552,101.517 33.552,101.351 32.5,101.5C 31.7281,100.306 30.7281,99.3065 29.5,98.5C 29.5,97.5 29.5,96.5 29.5,95.5C 30.5924,91.1844 31.5924,86.8511 32.5,82.5 Z"/></g>
<g><path style="opacity:1" fill="#33405f" d="M 27.5,96.5 C 27.5,97.8333 27.5,99.1667 27.5,100.5C 27.5,104.833 27.5,109.167 27.5,113.5C 26.8826,113.611 26.3826,113.944 26,114.5C 25.8333,113.333 25.6667,112.167 25.5,111C 26.5995,106.934 26.5995,102.934 25.5,99C 26.0659,98.0053 26.7326,97.172 27.5,96.5 Z"/></g>
<g><path style="opacity:1" fill="#49819d" d="M 21.5,109.5 C 21.5,113.167 21.5,116.833 21.5,120.5C 19.8333,120.5 18.1667,120.5 16.5,120.5C 16.1667,120.5 15.8333,120.5 15.5,120.5C 15.5,113.5 15.5,106.5 15.5,99.5C 15.8333,99.5 16.1667,99.5 16.5,99.5C 18.1439,99.7135 19.6439,99.3802 21,98.5C 21.4986,102.152 21.6653,105.818 21.5,109.5 Z"/></g>
<g><path style="opacity:1" fill="#48a6d4" d="M 17.5,100.5 C 18.5,100.5 19.5,100.5 20.5,100.5C 20.5,106.833 20.5,113.167 20.5,119.5C 19.0222,119.762 17.6888,119.429 16.5,118.5C 17.4571,112.561 17.7904,106.561 17.5,100.5 Z"/></g>
<g><path style="opacity:1" fill="#743c2e" d="M 29.5,98.5 C 30.7281,99.3065 31.7281,100.306 32.5,101.5C 36.454,105.116 40.454,108.783 44.5,112.5C 43.5,112.5 42.5,112.5 41.5,112.5C 39.6446,110.307 37.3113,108.974 34.5,108.5C 32.9704,108.64 31.9704,109.307 31.5,110.5C 30.8333,108.167 30.1667,105.833 29.5,103.5C 29.5,102.5 29.5,101.5 29.5,100.5C 29.5,99.8333 29.5,99.1667 29.5,98.5 Z"/></g>
<g><path style="opacity:1" fill="#d2d0d5" d="M 27.5,100.5 C 28.1667,100.5 28.8333,100.5 29.5,100.5C 29.5,101.5 29.5,102.5 29.5,103.5C 29.5,106.5 29.5,109.5 29.5,112.5C 29.2938,115.495 29.9605,118.162 31.5,120.5C 31.6495,121.552 31.4828,122.552 31,123.5C 29.8873,122.695 28.7206,122.028 27.5,121.5C 27.5,121.167 27.5,120.833 27.5,120.5C 27.5,118.167 27.5,115.833 27.5,113.5C 27.5,109.167 27.5,104.833 27.5,100.5 Z"/></g>
<g><path style="opacity:1" fill="#442a28" d="M 29.5,103.5 C 30.1667,105.833 30.8333,108.167 31.5,110.5C 31.5,112.5 31.5,114.5 31.5,116.5C 30.8333,115.167 30.1667,113.833 29.5,112.5C 29.5,109.5 29.5,106.5 29.5,103.5 Z"/></g>
<g><path style="opacity:1" fill="#a64648" d="M 32.5,101.5 C 33.552,101.351 34.552,101.517 35.5,102C 39.9923,106.495 45.1589,109.995 51,112.5C 51.49,111.207 51.6567,109.873 51.5,108.5C 53.5542,108.635 55.2209,107.968 56.5,106.5C 58.0618,106.733 59.3951,107.4 60.5,108.5C 66.1855,113.021 71.0188,118.354 75,124.5C 74.5976,126.874 74.7643,129.207 75.5,131.5C 74.2176,131.088 73.2176,131.754 72.5,133.5C 70.998,131.825 69.6647,129.992 68.5,128C 65.0172,126.008 61.6839,123.842 58.5,121.5C 54.3698,117.71 49.7031,114.71 44.5,112.5C 40.454,108.783 36.454,105.116 32.5,101.5 Z"/></g>
<g><path style="opacity:1" fill="#202e30" d="M 27.5,120.5 C 27.5,120.833 27.5,121.167 27.5,121.5C 25.5648,120.85 23.5648,120.517 21.5,120.5C 21.5,116.833 21.5,113.167 21.5,109.5C 22.1499,109.196 22.8165,108.863 23.5,108.5C 24.1667,112.167 24.8333,115.833 25.5,119.5C 26.1835,119.863 26.8501,120.196 27.5,120.5 Z"/></g>
<g><path style="opacity:1" fill="#69301f" d="M 44.5,112.5 C 49.7031,114.71 54.3698,117.71 58.5,121.5C 56.4862,121.608 54.8195,120.942 53.5,119.5C 53.5,118.833 53.1667,118.5 52.5,118.5C 50.9184,117.124 49.0851,116.124 47,115.5C 46.2352,115.57 45.7352,115.903 45.5,116.5C 44.325,116.719 43.325,116.386 42.5,115.5C 43.6119,114.735 44.2786,113.735 44.5,112.5 Z"/></g>
<g><path style="opacity:1" fill="#a77d5b" d="M 41.5,112.5 C 42.5,112.5 43.5,112.5 44.5,112.5C 44.2786,113.735 43.6119,114.735 42.5,115.5C 43.325,116.386 44.325,116.719 45.5,116.5C 44.8333,117.833 43.8333,118.833 42.5,119.5C 40.822,120.747 39.4887,122.414 38.5,124.5C 38.1667,124 37.8333,123.5 37.5,123C 39.0971,119.58 40.4305,116.08 41.5,112.5 Z"/></g>
<g><path style="opacity:1" fill="#7f756d" d="M 29.5,112.5 C 30.1667,113.833 30.8333,115.167 31.5,116.5C 31.5,117.833 31.5,119.167 31.5,120.5C 29.9605,118.162 29.2938,115.495 29.5,112.5 Z"/></g>
<g><path style="opacity:1" fill="#635739" d="M 16.5,121.5 C 16.5,121.167 16.5,120.833 16.5,120.5C 18.1667,120.5 19.8333,120.5 21.5,120.5C 23.5648,120.517 25.5648,120.85 27.5,121.5C 28.7206,122.028 29.8873,122.695 31,123.5C 31.4828,122.552 31.6495,121.552 31.5,120.5C 32.2852,122.374 32.9518,124.374 33.5,126.5C 33.1583,127.338 32.4916,127.672 31.5,127.5C 30.9688,125.376 29.6355,123.876 27.5,123C 23.9399,121.763 20.2733,121.263 16.5,121.5 Z"/></g>
<g><path style="opacity:1" fill="#d2be84" d="M 16.5,121.5 C 20.2733,121.263 23.9399,121.763 27.5,123C 29.6355,123.876 30.9688,125.376 31.5,127.5C 31.5123,130.142 30.179,131.475 27.5,131.5C 27.281,130.325 27.6143,129.325 28.5,128.5C 29.3957,129.506 30.0623,129.506 30.5,128.5C 30.1207,126.787 29.1207,125.787 27.5,125.5C 23.6227,125.117 19.6227,124.783 15.5,124.5C 14.4777,124.855 13.811,125.522 13.5,126.5C 12.0937,126.973 11.427,127.973 11.5,129.5C 10.2947,128.328 10.2947,126.995 11.5,125.5C 13.1856,124.143 14.8523,122.81 16.5,121.5 Z"/></g>
<g><path style="opacity:1" fill="#958e7d" d="M 15.5,120.5 C 15.8333,120.5 16.1667,120.5 16.5,120.5C 16.5,120.833 16.5,121.167 16.5,121.5C 14.8523,122.81 13.1856,124.143 11.5,125.5C 10.2947,126.995 10.2947,128.328 11.5,129.5C 13.9886,128.255 15.3219,129.255 15.5,132.5C 9.28141,132.951 7.28141,130.285 9.5,124.5C 11.5,123.167 13.5,121.833 15.5,120.5 Z"/></g>
<g><path style="opacity:1" fill="#cba37d" d="M 52.5,118.5 C 53.1667,118.5 53.5,118.833 53.5,119.5C 53.762,120.978 53.4287,122.311 52.5,123.5C 50.443,125.269 48.6097,127.269 47,129.5C 46.5172,130.448 46.3505,131.448 46.5,132.5C 45.8571,134.076 44.8571,135.41 43.5,136.5C 43.268,132.543 44.1013,128.876 46,125.5C 47.4413,124.13 49.108,123.13 51,122.5C 51.7914,121.255 52.2914,119.922 52.5,118.5 Z"/></g>
<g><path style="opacity:1" fill="#9e754d" d="M 27.5,125.5 C 26.2092,126.778 24.2092,127.445 21.5,127.5C 21.5,128.833 21.5,130.167 21.5,131.5C 22.5,131.5 23.5,131.5 24.5,131.5C 25.0371,134.972 24.0371,137.805 21.5,140C 23.3588,140.601 23.6921,141.434 22.5,142.5C 21.352,141.836 20.0187,141.669 18.5,142C 21.1511,138.812 20.4844,137.979 16.5,139.5C 16.5,138.833 16.5,138.167 16.5,137.5C 19.2005,136.644 21.5338,135.144 23.5,133C 22.2161,132.316 21.0495,132.483 20,133.5C 19.7645,131.881 18.9311,130.881 17.5,130.5C 17.6107,129.883 17.944,129.383 18.5,129C 16.751,128.215 15.0843,127.382 13.5,126.5C 13.811,125.522 14.4777,124.855 15.5,124.5C 19.6227,124.783 23.6227,125.117 27.5,125.5 Z"/></g>
<g><path style="opacity:1" fill="#6e5645" d="M 53.5,119.5 C 54.8195,120.942 56.4862,121.608 58.5,121.5C 58.5,121.833 58.5,122.167 58.5,122.5C 55.7141,123.789 53.3807,125.622 51.5,128C 55.562,131.295 58.2287,135.461 59.5,140.5C 58.5041,140.586 57.6708,140.252 57,139.5C 56.3889,135.93 54.5555,133.263 51.5,131.5C 50.791,130.596 49.791,130.263 48.5,130.5C 48.7692,132.429 48.2692,134.095 47,135.5C 46.5172,134.552 46.3505,133.552 46.5,132.5C 46.3505,131.448 46.5172,130.448 47,129.5C 48.6097,127.269 50.443,125.269 52.5,123.5C 53.4287,122.311 53.762,120.978 53.5,119.5 Z"/></g>
<g><path style="opacity:1" fill="#7e6d52" d="M 13.5,126.5 C 15.0843,127.382 16.751,128.215 18.5,129C 17.944,129.383 17.6107,129.883 17.5,130.5C 17.7852,132.288 17.4519,133.955 16.5,135.5C 15.7025,135.043 15.3691,134.376 15.5,133.5C 15.5,133.167 15.5,132.833 15.5,132.5C 15.3219,129.255 13.9886,128.255 11.5,129.5C 11.427,127.973 12.0937,126.973 13.5,126.5 Z"/></g>
<g><path style="opacity:1" fill="#8c7764" d="M 33.5,126.5 C 35.5647,128.289 37.2313,129.789 38.5,131C 36.7775,134.737 35.4442,138.57 34.5,142.5C 33.596,141.791 33.2627,140.791 33.5,139.5C 33.9347,136.404 34.4347,133.404 35,130.5C 34.6667,130.167 34.3333,129.833 34,129.5C 32.5347,131.915 30.368,132.915 27.5,132.5C 27.5,132.167 27.5,131.833 27.5,131.5C 30.179,131.475 31.5123,130.142 31.5,127.5C 32.4916,127.672 33.1583,127.338 33.5,126.5 Z"/></g>
<g><path style="opacity:1" fill="#8c464a" d="M 60.5,107.5 C 68.3323,112.483 74.3323,119.15 78.5,127.5C 78.8656,132.296 79.8656,136.963 81.5,141.5C 79.9775,143.283 77.9775,143.949 75.5,143.5C 75.2925,139.882 74.2925,136.548 72.5,133.5C 73.2176,131.754 74.2176,131.088 75.5,131.5C 74.7643,129.207 74.5976,126.874 75,124.5C 71.0188,118.354 66.1855,113.021 60.5,108.5C 60.5,108.167 60.5,107.833 60.5,107.5 Z"/></g>
<g><path style="opacity:1" fill="#c2a77d" d="M 17.5,130.5 C 18.9311,130.881 19.7645,131.881 20,133.5C 21.0495,132.483 22.2161,132.316 23.5,133C 21.5338,135.144 19.2005,136.644 16.5,137.5C 15.8333,137.833 15.1667,138.167 14.5,138.5C 14.2155,136.585 14.5489,134.919 15.5,133.5C 15.3691,134.376 15.7025,135.043 16.5,135.5C 17.4519,133.955 17.7852,132.288 17.5,130.5 Z"/></g>
<g><path style="opacity:1" fill="#f0cb8f" d="M 52.5,118.5 C 52.2914,119.922 51.7914,121.255 51,122.5C 49.108,123.13 47.4413,124.13 46,125.5C 44.1013,128.876 43.268,132.543 43.5,136.5C 42.5987,137.29 41.9321,138.29 41.5,139.5C 40.1851,140.476 38.8518,141.476 37.5,142.5C 37.1667,141.833 36.8333,141.167 36.5,140.5C 39.8771,133.923 41.8771,126.923 42.5,119.5C 43.8333,118.833 44.8333,117.833 45.5,116.5C 45.7352,115.903 46.2352,115.57 47,115.5C 49.0851,116.124 50.9184,117.124 52.5,118.5 Z"/></g>
<g><path style="opacity:1" fill="#634335" d="M 27.5,125.5 C 29.1207,125.787 30.1207,126.787 30.5,128.5C 30.0623,129.506 29.3957,129.506 28.5,128.5C 27.6143,129.325 27.281,130.325 27.5,131.5C 27.5,131.833 27.5,132.167 27.5,132.5C 27.5352,140.586 25.8685,148.253 22.5,155.5C 21.8423,156.398 21.1757,157.398 20.5,158.5C 20.1667,158.333 19.8333,158.167 19.5,158C 20.1614,154.863 21.4948,152.03 23.5,149.5C 23.2563,147.45 22.923,145.45 22.5,143.5C 22.5,143.167 22.5,142.833 22.5,142.5C 23.6921,141.434 23.3588,140.601 21.5,140C 24.0371,137.805 25.0371,134.972 24.5,131.5C 23.5,131.5 22.5,131.5 21.5,131.5C 21.5,130.167 21.5,128.833 21.5,127.5C 24.2092,127.445 26.2092,126.778 27.5,125.5 Z"/></g>
<g><path style="opacity:1" fill="#6c6752" d="M 16.5,137.5 C 16.5,138.167 16.5,138.833 16.5,139.5C 16.4208,140.93 16.7542,142.264 17.5,143.5C 17.0431,144.298 16.3764,144.631 15.5,144.5C 15.7678,142.901 15.4345,141.568 14.5,140.5C 14.5,139.833 14.5,139.167 14.5,138.5C 15.1667,138.167 15.8333,137.833 16.5,137.5 Z"/></g>
<g><path style="opacity:1" fill="#a8917d" d="M 51.5,131.5 C 49.5567,133.971 48.5567,136.971 48.5,140.5C 50.9032,140.393 52.7365,141.393 54,143.5C 55.5914,146.767 57.0914,150.1 58.5,153.5C 59.4168,154.127 60.4168,154.461 61.5,154.5C 61.2627,155.791 61.596,156.791 62.5,157.5C 60.1402,161.457 57.6402,161.457 55,157.5C 55.1977,154.765 55.031,152.099 54.5,149.5C 52.5384,145.704 49.7051,142.704 46,140.5C 44.395,141.101 43.0616,142.101 42,143.5C 39.7268,148.258 38.2268,153.258 37.5,158.5C 34.5788,159.407 31.5788,159.74 28.5,159.5C 30.2144,152.72 31.8811,146.053 33.5,139.5C 33.2627,140.791 33.596,141.791 34.5,142.5C 32.9212,147.009 31.9212,151.676 31.5,156.5C 32.5,156.5 33.5,156.5 34.5,156.5C 34.5958,152.689 35.2624,152.689 36.5,156.5C 37.446,154.925 37.446,153.258 36.5,151.5C 38.5607,147.648 40.2274,143.648 41.5,139.5C 41.9321,138.29 42.5987,137.29 43.5,136.5C 44.8571,135.41 45.8571,134.076 46.5,132.5C 46.3505,133.552 46.5172,134.552 47,135.5C 48.2692,134.095 48.7692,132.429 48.5,130.5C 49.791,130.263 50.791,130.596 51.5,131.5 Z"/></g>
<g><path style="opacity:1" fill="#e9cf9a" d="M 51.5,131.5 C 54.5555,133.263 56.3889,135.93 57,139.5C 57.6708,140.252 58.5041,140.586 59.5,140.5C 60.4916,140.328 61.1583,140.662 61.5,141.5C 61.0553,145.834 61.0553,150.167 61.5,154.5C 60.4168,154.461 59.4168,154.127 58.5,153.5C 57.0914,150.1 55.5914,146.767 54,143.5C 52.7365,141.393 50.9032,140.393 48.5,140.5C 48.5567,136.971 49.5567,133.971 51.5,131.5 Z"/></g>
<g><path style="opacity:1" fill="#ceae81" d="M 22.5,142.5 C 22.5,142.833 22.5,143.167 22.5,143.5C 20.5979,144.368 18.7645,145.368 17,146.5C 15.9701,146.164 15.4701,145.497 15.5,144.5C 16.3764,144.631 17.0431,144.298 17.5,143.5C 16.7542,142.264 16.4208,140.93 16.5,139.5C 20.4844,137.979 21.1511,138.812 18.5,142C 20.0187,141.669 21.352,141.836 22.5,142.5 Z"/></g>
<g><path style="opacity:1" fill="#e8c697" d="M 41.5,112.5 C 40.4305,116.08 39.0971,119.58 37.5,123C 37.8333,123.5 38.1667,124 38.5,124.5C 39.4887,122.414 40.822,120.747 42.5,119.5C 41.8771,126.923 39.8771,133.923 36.5,140.5C 36.8333,141.167 37.1667,141.833 37.5,142.5C 38.8518,141.476 40.1851,140.476 41.5,139.5C 40.2274,143.648 38.5607,147.648 36.5,151.5C 37.446,153.258 37.446,154.925 36.5,156.5C 35.2624,152.689 34.5958,152.689 34.5,156.5C 33.5,156.5 32.5,156.5 31.5,156.5C 31.9212,151.676 32.9212,147.009 34.5,142.5C 35.4442,138.57 36.7775,134.737 38.5,131C 37.2313,129.789 35.5647,128.289 33.5,126.5C 32.9518,124.374 32.2852,122.374 31.5,120.5C 31.5,119.167 31.5,117.833 31.5,116.5C 31.5,114.5 31.5,112.5 31.5,110.5C 31.9704,109.307 32.9704,108.64 34.5,108.5C 37.3113,108.974 39.6446,110.307 41.5,112.5 Z"/></g>
<g><path style="opacity:1" fill="#785552" d="M 58.5,121.5 C 61.6839,123.842 65.0172,126.008 68.5,128C 69.6647,129.992 70.998,131.825 72.5,133.5C 74.2925,136.548 75.2925,139.882 75.5,143.5C 77.9775,143.949 79.9775,143.283 81.5,141.5C 79.8656,136.963 78.8656,132.296 78.5,127.5C 81.7605,132.935 83.2605,138.935 83,145.5C 85.2868,148.072 86.4535,151.072 86.5,154.5C 85.7321,153.737 85.2321,152.737 85,151.5C 84.0228,152.774 83.1894,152.774 82.5,151.5C 83.525,151.103 83.6917,150.437 83,149.5C 81.6703,148.418 80.1703,147.751 78.5,147.5C 78.6107,146.883 78.944,146.383 79.5,146C 77.5273,145.505 75.5273,145.338 73.5,145.5C 73.7373,144.209 73.404,143.209 72.5,142.5C 69.7737,134.446 65.1071,127.779 58.5,122.5C 58.5,122.167 58.5,121.833 58.5,121.5 Z"/></g>
<g><path style="opacity:1" fill="#94867c" d="M 72.5,142.5 C 73.404,143.209 73.7373,144.209 73.5,145.5C 75.5273,145.338 77.5273,145.505 79.5,146C 78.944,146.383 78.6107,146.883 78.5,147.5C 80.0544,148.895 79.721,149.561 77.5,149.5C 73.298,146.703 71.9646,147.703 73.5,152.5C 72.5,152.5 71.5,152.5 70.5,152.5C 69.3263,153.514 68.6596,154.847 68.5,156.5C 66.6991,152.094 67.8658,148.427 72,145.5C 72.4828,144.552 72.6495,143.552 72.5,142.5 Z"/></g>
<g><path style="opacity:1" fill="#9d8d72" d="M 14.5,140.5 C 15.4345,141.568 15.7678,142.901 15.5,144.5C 15.4701,145.497 15.9701,146.164 17,146.5C 18.7645,145.368 20.5979,144.368 22.5,143.5C 22.923,145.45 23.2563,147.45 23.5,149.5C 21.4948,152.03 20.1614,154.863 19.5,158C 19.8333,158.167 20.1667,158.333 20.5,158.5C 21.1757,157.398 21.8423,156.398 22.5,155.5C 22.5,156.833 22.5,158.167 22.5,159.5C 21.1667,159.5 19.8333,159.5 18.5,159.5C 17.6774,156.129 16.5107,152.796 15,149.5C 14.502,146.518 14.3354,143.518 14.5,140.5 Z"/></g>
<g><path style="opacity:1" fill="#706458" d="M 61.5,141.5 C 62.6491,141.791 63.3158,142.624 63.5,144C 62.9861,148.533 62.6528,153.033 62.5,157.5C 61.596,156.791 61.2627,155.791 61.5,154.5C 61.0553,150.167 61.0553,145.834 61.5,141.5 Z"/></g>
<g><path style="opacity:1" fill="#664139" d="M 78.5,147.5 C 80.1703,147.751 81.6703,148.418 83,149.5C 83.6917,150.437 83.525,151.103 82.5,151.5C 82.44,150.957 82.1067,150.624 81.5,150.5C 80.5713,151.689 80.238,153.022 80.5,154.5C 83.684,154.332 84.184,155.666 82,158.5C 81.5172,157.552 81.3505,156.552 81.5,155.5C 79.5082,155.328 77.8415,155.995 76.5,157.5C 74.8443,154.982 73.5109,154.982 72.5,157.5C 71.0687,156.22 70.4021,154.553 70.5,152.5C 71.5,152.5 72.5,152.5 73.5,152.5C 71.9646,147.703 73.298,146.703 77.5,149.5C 79.721,149.561 80.0544,148.895 78.5,147.5 Z"/></g>
<g><path style="opacity:1" fill="#685c50" d="M 70.5,152.5 C 70.4021,154.553 71.0687,156.22 72.5,157.5C 74.3691,158.165 76.3691,158.831 78.5,159.5C 76.1916,159.553 73.8583,159.886 71.5,160.5C 69.7376,159.738 68.7376,158.404 68.5,156.5C 68.6596,154.847 69.3263,153.514 70.5,152.5 Z"/></g>
<g><path style="opacity:1" fill="#8c7e74" d="M 82.5,151.5 C 83.1894,152.774 84.0228,152.774 85,151.5C 85.2321,152.737 85.7321,153.737 86.5,154.5C 83.629,162.01 78.629,164.01 71.5,160.5C 73.8583,159.886 76.1916,159.553 78.5,159.5C 76.3691,158.831 74.3691,158.165 72.5,157.5C 73.5109,154.982 74.8443,154.982 76.5,157.5C 77.8415,155.995 79.5082,155.328 81.5,155.5C 81.3505,156.552 81.5172,157.552 82,158.5C 84.184,155.666 83.684,154.332 80.5,154.5C 80.238,153.022 80.5713,151.689 81.5,150.5C 82.1067,150.624 82.44,150.957 82.5,151.5 Z"/></g>
</svg>
