<?xml version="1.0" encoding="UTF-8"?>
<!DOCTYPE svg PUBLIC "-//W3C//DTD SVG 1.1//EN" "http://www.w3.org/Graphics/SVG/1.1/DTD/svg11.dtd">
<svg xmlns="http://www.w3.org/2000/svg" version="1.1" width="100px" height="165px" style="shape-rendering:geometricPrecision; text-rendering:geometricPrecision; image-rendering:optimizeQuality; fill-rule:evenodd; clip-rule:evenodd" xmlns:xlink="http://www.w3.org/1999/xlink">
<g><path style="opacity:1" fill="#f8f7f6" d="M -0.5,-0.5 C 32.8333,-0.5 66.1667,-0.5 99.5,-0.5C 99.5,1.5 99.5,3.5 99.5,5.5C 98.7784,5.91753 98.2784,6.5842 98,7.5C 97.1944,13.0838 97.3611,18.5838 98.5,24C 97.7256,26.405 97.2256,28.905 97,31.5C 96.6667,31.1667 96.3333,30.8333 96,30.5C 95.6667,39.1667 95.3333,47.8333 95,56.5C 94.6667,56.1667 94.3333,55.8333 94,55.5C 93.3333,57.1667 93.3333,58.8333 94,60.5C 94.6493,57.0626 95.1493,56.896 95.5,60C 94.8333,61.6667 94.1667,63.3333 93.5,65C 94.331,68.1081 95.1643,67.9415 96,64.5C 96.2269,74.6894 96.7269,84.856 97.5,95C 97.0788,97.1846 96.5788,99.3513 96,101.5C 95.6667,94.1667 95.3333,86.8333 95,79.5C 93.7919,81.4788 92.9586,83.6454 92.5,86C 93.606,87.8822 93.606,89.7156 92.5,91.5C 91.7174,89.7118 90.3841,88.7118 88.5,88.5C 87.9094,87.8485 87.2427,87.1818 86.5,86.5C 87.3094,84.9291 87.6427,83.2624 87.5,81.5C 87.2588,77.1968 86.0921,73.1968 84,69.5C 82.5462,72.0711 81.3795,74.7378 80.5,77.5C 79.596,76.791 79.2627,75.791 79.5,74.5C 80.047,71.0789 81.3803,68.0789 83.5,65.5C 84.8853,64.3862 86.3853,63.3862 88,62.5C 88.8151,57.6478 88.6484,52.9811 87.5,48.5C 87.7535,46.5992 87.4202,45.9326 86.5,46.5C 85.2058,47.2899 84.0391,48.2899 83,49.5C 82.6012,49.2716 82.4346,48.9382 82.5,48.5C 87.8228,37.0778 87.8228,25.7445 82.5,14.5C 77.5255,9.0103 71.5255,7.5103 64.5,10C 62.9371,10.7589 61.9371,11.9256 61.5,13.5C 59.4503,15.2368 57.617,17.2368 56,19.5C 55.4835,23.566 54.6502,27.566 53.5,31.5C 54.4105,36.6565 55.4105,41.6565 56.5,46.5C 56.5,47.8333 56.5,49.1667 56.5,50.5C 56.6602,52.1992 56.4935,53.8659 56,55.5C 51.8705,44.6763 49.7039,45.343 49.5,57.5C 49.3817,60.4857 50.0483,63.1524 51.5,65.5C 51.3284,66.4916 51.6618,67.1583 52.5,67.5C 55.6506,75.0453 56.9839,82.712 56.5,90.5C 53.9539,82.5855 51.7872,82.2522 50,89.5C 48.5586,95.2694 49.7253,100.269 53.5,104.5C 53.5569,105.609 53.8902,106.609 54.5,107.5C 52.5198,108.368 50.8531,107.701 49.5,105.5C 48.8076,106.025 48.3076,106.692 48,107.5C 48.4275,104.907 48.5942,102.407 48.5,100C 47.2298,99.1004 46.2298,97.9337 45.5,96.5C 44.5726,98.1128 43.7393,99.7795 43,101.5C 42.6667,100.167 42.3333,98.8333 42,97.5C 41.9817,101.071 40.315,103.404 37,104.5C 36.6667,110.833 36.3333,117.167 36,123.5C 35.79,125.058 35.29,126.391 34.5,127.5C 34.2299,119.445 34.5632,111.445 35.5,103.5C 39.32,99.8729 42.1533,95.5396 44,90.5C 44.2868,88.1093 44.7868,85.7759 45.5,83.5C 42.8323,82.4944 40.4989,83.161 38.5,85.5C 38.1667,84.5 37.8333,83.5 37.5,82.5C 39.7757,75.3381 42.4423,68.3381 45.5,61.5C 47.0173,59.5379 47.6839,57.2046 47.5,54.5C 47.2317,51.4825 46.8984,48.4825 46.5,45.5C 45.5,45.5 44.5,45.5 43.5,45.5C 41.5977,42.6627 40.931,39.3293 41.5,35.5C 41.5,35.1667 41.5,34.8333 41.5,34.5C 42.5326,29.9683 42.366,25.3016 41,20.5C 38.9121,18.2256 37.4121,15.5589 36.5,12.5C 32.5871,10.1568 28.4204,8.49009 24,7.5C 22.3333,10.1667 20.6667,10.1667 19,7.5C 18.3923,9.15448 17.8923,10.8211 17.5,12.5C 15.4042,15.2622 13.7375,18.2622 12.5,21.5C 10.7585,24.4816 9.75855,27.815 9.5,31.5C 10.9303,38.1357 11.7637,44.8023 12,51.5C 10.6667,50.1667 9.33333,50.1667 8,51.5C 7.33333,55.1667 7.33333,58.8333 8,62.5C 8.7083,63.3805 9.54163,64.0472 10.5,64.5C 11.8333,66.5 13.1667,68.5 14.5,70.5C 14.665,73.8499 14.4983,77.1832 14,80.5C 11.9288,77.5845 10.5954,77.9178 10,81.5C 9.50098,85.8206 9.33432,90.1539 9.5,94.5C 8.69626,92.8113 7.69626,91.1446 6.5,89.5C 7.90227,88.1575 7.56893,87.3242 5.5,87C 6.86721,84.6985 7.53388,82.1985 7.5,79.5C 2.74856,80.8266 1.41522,83.8266 3.5,88.5C 2.67504,89.3857 1.67504,89.719 0.5,89.5C 0.784479,91.4147 0.451145,93.0813 -0.5,94.5C -0.5,62.8333 -0.5,31.1667 -0.5,-0.5 Z"/></g>
<g><path style="opacity:1" fill="#fafbfa" d="M 99.5,5.5 C 99.5,58.5 99.5,111.5 99.5,164.5C 66.1667,164.5 32.8333,164.5 -0.5,164.5C -0.5,141.167 -0.5,117.833 -0.5,94.5C 0.451145,93.0813 0.784479,91.4147 0.5,89.5C 1.67504,89.719 2.67504,89.3857 3.5,88.5C 1.41522,83.8266 2.74856,80.8266 7.5,79.5C 7.53388,82.1985 6.86721,84.6985 5.5,87C 7.56893,87.3242 7.90227,88.1575 6.5,89.5C 7.69626,91.1446 8.69626,92.8113 9.5,94.5C 10.1667,95.5 10.8333,96.5 11.5,97.5C 12.7316,104.287 13.7316,111.121 14.5,118C 14.41,121.769 13.41,125.269 11.5,128.5C 11.6667,129.5 11.8333,130.5 12,131.5C 12.8893,130.112 13.3893,130.278 13.5,132C 12.2061,132.106 11.5394,133.106 11.5,135C 12.7797,137.734 13.9463,140.567 15,143.5C 16.5822,140.685 16.4155,138.185 14.5,136C 15.2266,134.601 15.7266,133.101 16,131.5C 17.4164,135.694 17.5831,139.861 16.5,144C 17.9141,147.5 19.5807,150.667 21.5,153.5C 22.1667,153.833 22.8333,154.167 23.5,154.5C 25.6845,156.585 28.3511,157.585 31.5,157.5C 34.6248,158.479 37.9581,158.813 41.5,158.5C 39.997,155.476 37.8303,152.81 35,150.5C 33.6746,145.599 33.1746,140.599 33.5,135.5C 33.1936,132.615 33.5269,129.948 34.5,127.5C 35.29,126.391 35.79,125.058 36,123.5C 36.3333,117.167 36.6667,110.833 37,104.5C 40.315,103.404 41.9817,101.071 42,97.5C 42.3333,98.8333 42.6667,100.167 43,101.5C 43.7393,99.7795 44.5726,98.1128 45.5,96.5C 46.2298,97.9337 47.2298,99.1004 48.5,100C 48.5942,102.407 48.4275,104.907 48,107.5C 48.3076,106.692 48.8076,106.025 49.5,105.5C 50.8531,107.701 52.5198,108.368 54.5,107.5C 56.5,109.833 58.5,112.167 60.5,114.5C 60.7081,123.039 61.3747,131.539 62.5,140C 62.7104,144.057 62.0437,147.891 60.5,151.5C 59.1103,152.899 58.1103,154.566 57.5,156.5C 56.9569,156.56 56.6236,156.893 56.5,157.5C 59.1562,158.614 61.8229,158.614 64.5,157.5C 65.1667,157.5 65.5,157.167 65.5,156.5C 69.5436,155.969 72.7103,153.969 75,150.5C 78.2796,138.714 80.4463,126.714 81.5,114.5C 82.1758,110.546 83.1758,106.546 84.5,102.5C 83.1699,98.4601 83.3366,94.4601 85,90.5C 87.1293,91.8627 87.6293,91.5294 86.5,89.5C 86.9569,88.7025 87.6236,88.3691 88.5,88.5C 90.3841,88.7118 91.7174,89.7118 92.5,91.5C 93.606,89.7156 93.606,87.8822 92.5,86C 92.9586,83.6454 93.7919,81.4788 95,79.5C 95.3333,86.8333 95.6667,94.1667 96,101.5C 96.5788,99.3513 97.0788,97.1846 97.5,95C 96.7269,84.856 96.2269,74.6894 96,64.5C 95.1643,67.9415 94.331,68.1081 93.5,65C 94.1667,63.3333 94.8333,61.6667 95.5,60C 95.1493,56.896 94.6493,57.0626 94,60.5C 93.3333,58.8333 93.3333,57.1667 94,55.5C 94.3333,55.8333 94.6667,56.1667 95,56.5C 95.3333,47.8333 95.6667,39.1667 96,30.5C 96.3333,30.8333 96.6667,31.1667 97,31.5C 97.2256,28.905 97.7256,26.405 98.5,24C 97.3611,18.5838 97.1944,13.0838 98,7.5C 98.2784,6.5842 98.7784,5.91753 99.5,5.5 Z"/></g>
<g><path style="opacity:1" fill="#505757" d="M 82.5,14.5 C 80.9902,15.7279 79.4902,15.7279 78,14.5C 77.5357,15.0944 77.369,15.7611 77.5,16.5C 76.352,19.2895 75.0186,21.9561 73.5,24.5C 70.2196,25.8653 66.8862,26.8653 63.5,27.5C 63.1667,27.5 62.8333,27.5 62.5,27.5C 61.8333,27.5 61.5,27.1667 61.5,26.5C 61.5,25.8333 61.5,25.1667 61.5,24.5C 65.1879,24.2189 68.8546,23.7189 72.5,23C 75.0761,19.2847 76.0761,15.118 75.5,10.5C 72.5388,8.99992 69.8721,9.33326 67.5,11.5C 67.5,11.8333 67.5,12.1667 67.5,12.5C 65.5887,13.075 63.922,14.075 62.5,15.5C 62.6716,14.5084 62.3382,13.8417 61.5,13.5C 61.9371,11.9256 62.9371,10.7589 64.5,10C 71.5255,7.5103 77.5255,9.0103 82.5,14.5 Z"/></g>
<g><path style="opacity:1" fill="#e6dcd4" d="M 41.5,34.5 C 41.6323,31.4299 41.299,28.4299 40.5,25.5C 40.1415,20.1432 37.4748,16.4765 32.5,14.5C 30.829,11.7461 28.329,10.4128 25,10.5C 22.3647,10.7388 19.8647,11.4055 17.5,12.5C 17.8923,10.8211 18.3923,9.15448 19,7.5C 20.6667,10.1667 22.3333,10.1667 24,7.5C 28.4204,8.49009 32.5871,10.1568 36.5,12.5C 37.4121,15.5589 38.9121,18.2256 41,20.5C 42.366,25.3016 42.5326,29.9683 41.5,34.5 Z"/></g>
<g><path style="opacity:1" fill="#7d5945" d="M 32.5,14.5 C 37.4748,16.4765 40.1415,20.1432 40.5,25.5C 40.1667,25.5 39.8333,25.5 39.5,25.5C 39.1583,24.6618 38.4916,24.3284 37.5,24.5C 35.0439,22.2073 32.7106,19.7073 30.5,17C 31.756,16.5831 32.4226,15.7498 32.5,14.5 Z"/></g>
<g><path style="opacity:1" fill="#a2563f" d="M 67.5,12.5 C 67.5,12.1667 67.5,11.8333 67.5,11.5C 68.8734,11.3433 70.2068,11.51 71.5,12C 70.3044,12.6543 70.3044,13.1543 71.5,13.5C 72.324,11.2524 73.324,11.0858 74.5,13C 73.8635,20.3837 69.5302,23.5504 61.5,22.5C 61.5,20.8333 61.5,19.1667 61.5,17.5C 63.1992,17.6602 64.8659,17.4935 66.5,17C 67.6405,16.2588 67.6405,15.4255 66.5,14.5C 67.0253,13.8076 67.6919,13.3076 68.5,13C 68.2716,12.6012 67.9382,12.4346 67.5,12.5 Z"/></g>
<g><path style="opacity:1" fill="#bc8a65" d="M 32.5,14.5 C 32.4226,15.7498 31.756,16.5831 30.5,17C 32.7106,19.7073 35.0439,22.2073 37.5,24.5C 34.8079,26.7318 31.8079,27.0651 28.5,25.5C 26.1196,22.917 26.1196,20.417 28.5,18C 26.5109,15.6166 24.1776,14.7833 21.5,15.5C 21.4772,12.8787 22.8105,11.5454 25.5,11.5C 27.7033,12.7674 30.0367,13.7674 32.5,14.5 Z"/></g>
<g><path style="opacity:1" fill="#a27466" d="M 61.5,24.5 C 61.1667,23.8333 60.8333,23.1667 60.5,22.5C 59.9898,19.6122 60.6565,17.2789 62.5,15.5C 63.922,14.075 65.5887,13.075 67.5,12.5C 67.9382,12.4346 68.2716,12.6012 68.5,13C 67.6919,13.3076 67.0253,13.8076 66.5,14.5C 67.6405,15.4255 67.6405,16.2588 66.5,17C 64.8659,17.4935 63.1992,17.6602 61.5,17.5C 61.5,19.1667 61.5,20.8333 61.5,22.5C 69.5302,23.5504 73.8635,20.3837 74.5,13C 73.324,11.0858 72.324,11.2524 71.5,13.5C 70.3044,13.1543 70.3044,12.6543 71.5,12C 70.2068,11.51 68.8734,11.3433 67.5,11.5C 69.8721,9.33326 72.5388,8.99992 75.5,10.5C 76.0761,15.118 75.0761,19.2847 72.5,23C 68.8546,23.7189 65.1879,24.2189 61.5,24.5 Z"/></g>
<g><path style="opacity:1" fill="#323b38" d="M 61.5,13.5 C 62.3382,13.8417 62.6716,14.5084 62.5,15.5C 60.6565,17.2789 59.9898,19.6122 60.5,22.5C 57.5873,26.2033 56.254,30.5366 56.5,35.5C 57.4184,39.2116 57.4184,42.8782 56.5,46.5C 55.4105,41.6565 54.4105,36.6565 53.5,31.5C 54.6502,27.566 55.4835,23.566 56,19.5C 57.617,17.2368 59.4503,15.2368 61.5,13.5 Z"/></g>
<g><path style="opacity:1" fill="#2a4452" d="M 82.5,14.5 C 87.8228,25.7445 87.8228,37.0778 82.5,48.5C 81.6295,51.003 80.9628,53.6697 80.5,56.5C 79.2961,60.1269 77.6294,63.4603 75.5,66.5C 74.9033,66.2648 74.5699,65.7648 74.5,65C 75.9056,63.022 76.9056,60.8553 77.5,58.5C 78.0534,53.5714 79.0534,48.7381 80.5,44C 80.4148,42.8926 80.0814,41.8926 79.5,41C 81.8875,37.2469 82.8875,33.0803 82.5,28.5C 82.4714,25.7305 81.8048,23.3972 80.5,21.5C 80.7593,19.0107 79.7593,17.344 77.5,16.5C 77.369,15.7611 77.5357,15.0944 78,14.5C 79.4902,15.7279 80.9902,15.7279 82.5,14.5 Z"/></g>
<g><path style="opacity:1" fill="#9b433c" d="M 37.5,24.5 C 38.4916,24.3284 39.1583,24.6618 39.5,25.5C 38.4971,36.1737 37.4971,46.8404 36.5,57.5C 35.5655,58.5676 35.2322,59.901 35.5,61.5C 34.596,60.791 34.2627,59.791 34.5,58.5C 35.2401,48.5052 35.9068,38.5052 36.5,28.5C 27.1155,27.0974 23.2822,31.0974 25,40.5C 24.2015,34.5147 23.5348,28.5147 23,22.5C 21.5822,20.6368 19.7489,20.1368 17.5,21C 15.9607,25.1437 15.2941,29.477 15.5,34C 15.5018,37.3518 15.8351,40.5185 16.5,43.5C 16.7556,46.5979 17.4222,49.5979 18.5,52.5C 18.5,54.5 18.5,56.5 18.5,58.5C 17.1392,56.2592 16.1392,53.7592 15.5,51C 14.0335,41.5397 13.5335,32.0397 14,22.5C 14.9305,19.6384 16.5971,17.305 19,15.5C 20.0712,18.1125 20.9045,18.1125 21.5,15.5C 24.1776,14.7833 26.5109,15.6166 28.5,18C 26.1196,20.417 26.1196,22.917 28.5,25.5C 31.8079,27.0651 34.8079,26.7318 37.5,24.5 Z"/></g>
<g><path style="opacity:1" fill="#673632" d="M 39.5,25.5 C 39.8333,25.5 40.1667,25.5 40.5,25.5C 41.299,28.4299 41.6323,31.4299 41.5,34.5C 41.5,34.8333 41.5,35.1667 41.5,35.5C 39.4196,40.8549 38.4196,46.5216 38.5,52.5C 37.8333,54.1667 37.1667,55.8333 36.5,57.5C 37.4971,46.8404 38.4971,36.1737 39.5,25.5 Z"/></g>
<g><path style="opacity:1" fill="#d54a4e" d="M 34.5,58.5 C 33.6981,59.9516 33.1981,61.6183 33,63.5C 30.8456,54.4865 31.3456,45.6532 34.5,37C 34.0602,33.3914 32.0602,31.8914 28.5,32.5C 27.994,37.5541 27.1606,42.5541 26,47.5C 25.7599,45.1484 24.9265,43.1484 23.5,41.5C 22.5611,35.8989 21.7277,30.2323 21,24.5C 19.5944,23.3318 18.4277,23.6652 17.5,25.5C 16.5041,31.4632 16.1707,37.4632 16.5,43.5C 15.8351,40.5185 15.5018,37.3518 15.5,34C 15.2941,29.477 15.9607,25.1437 17.5,21C 19.7489,20.1368 21.5822,20.6368 23,22.5C 23.5348,28.5147 24.2015,34.5147 25,40.5C 23.2822,31.0974 27.1155,27.0974 36.5,28.5C 35.9068,38.5052 35.2401,48.5052 34.5,58.5 Z"/></g>
<g><path style="opacity:1" fill="#23a5da" d="M 77.5,16.5 C 79.7593,17.344 80.7593,19.0107 80.5,21.5C 80.53,27.3498 79.53,33.0165 77.5,38.5C 78.8754,40.1634 78.542,41.4968 76.5,42.5C 77.6034,42.9976 78.6034,43.3309 79.5,43.5C 76.7715,44.0618 75.2715,45.7285 75,48.5C 74.0853,47.6721 73.4186,46.6721 73,45.5C 72.2055,38.4197 72.3722,31.4197 73.5,24.5C 75.0186,21.9561 76.352,19.2895 77.5,16.5 Z"/></g>
<g><path style="opacity:1" fill="#daccc2" d="M 41.5,35.5 C 40.931,39.3293 41.5977,42.6627 43.5,45.5C 43.5,45.8333 43.5,46.1667 43.5,46.5C 42.0927,48.3083 40.926,50.3083 40,52.5C 39.31,53.7383 38.81,53.7383 38.5,52.5C 38.4196,46.5216 39.4196,40.8549 41.5,35.5 Z"/></g>
<g><path style="opacity:1" fill="#1ba9da" d="M 62.5,27.5 C 62.8333,27.5 63.1667,27.5 63.5,27.5C 65.288,27.2148 66.9547,27.5481 68.5,28.5C 69.9677,35.067 70.801,41.7336 71,48.5C 72.3333,49.1667 73.3333,50.1667 74,51.5C 74.414,51.0426 74.914,50.7093 75.5,50.5C 76.7673,53.2392 76.6006,55.9058 75,58.5C 73.3813,59.083 71.548,59.083 69.5,58.5C 68.6143,59.325 68.281,60.325 68.5,61.5C 67.6739,56.6835 67.1739,51.6835 67,46.5C 65.1207,41.9387 63.954,37.272 63.5,32.5C 62.6993,30.9582 62.366,29.2915 62.5,27.5 Z"/></g>
<g><path style="opacity:1" fill="#25a3a5" d="M 61.5,26.5 C 61.5,27.1667 61.8333,27.5 62.5,27.5C 62.366,29.2915 62.6993,30.9582 63.5,32.5C 64.4614,46.3316 64.4614,59.9982 63.5,73.5C 64.0865,62.4933 63.0865,51.6599 60.5,41C 60.3635,36.0848 60.6968,31.2514 61.5,26.5 Z"/></g>
<g><path style="opacity:1" fill="#2694bf" d="M 80.5,21.5 C 81.8048,23.3972 82.4714,25.7305 82.5,28.5C 82.8875,33.0803 81.8875,37.2469 79.5,41C 80.0814,41.8926 80.4148,42.8926 80.5,44C 79.0534,48.7381 78.0534,53.5714 77.5,58.5C 74.1065,60.8893 72.7732,64.2226 73.5,68.5C 73.9567,71.9146 74.6234,75.2479 75.5,78.5C 70.9491,73.7417 68.6158,68.0751 68.5,61.5C 68.281,60.325 68.6143,59.325 69.5,58.5C 71.548,59.083 73.3813,59.083 75,58.5C 76.6006,55.9058 76.7673,53.2392 75.5,50.5C 74.914,50.7093 74.414,51.0426 74,51.5C 73.3333,50.1667 72.3333,49.1667 71,48.5C 70.801,41.7336 69.9677,35.067 68.5,28.5C 66.9547,27.5481 65.288,27.2148 63.5,27.5C 66.8862,26.8653 70.2196,25.8653 73.5,24.5C 72.3722,31.4197 72.2055,38.4197 73,45.5C 73.4186,46.6721 74.0853,47.6721 75,48.5C 75.2715,45.7285 76.7715,44.0618 79.5,43.5C 78.6034,43.3309 77.6034,42.9976 76.5,42.5C 78.542,41.4968 78.8754,40.1634 77.5,38.5C 79.53,33.0165 80.53,27.3498 80.5,21.5 Z"/></g>
<g><path style="opacity:1" fill="#1e3728" d="M 56.5,35.5 C 58.2516,41.3126 59.5849,47.3126 60.5,53.5C 59.6425,58.2077 59.4758,62.8744 60,67.5C 58.5886,65.3496 57.7553,63.0163 57.5,60.5C 57.4141,57.0929 57.0808,53.7596 56.5,50.5C 56.5,49.1667 56.5,47.8333 56.5,46.5C 57.4184,42.8782 57.4184,39.2116 56.5,35.5 Z"/></g>
<g><path style="opacity:1" fill="#ed4949" d="M 34.5,58.5 C 34.2627,59.791 34.596,60.791 35.5,61.5C 35.5,62.8333 36.1667,63.5 37.5,63.5C 36.8999,68.1978 36.0666,72.8645 35,77.5C 33.9308,79.4074 32.4308,80.7407 30.5,81.5C 29.2468,73.669 28.2468,65.669 27.5,57.5C 25.5082,57.3285 23.8415,57.9951 22.5,59.5C 21.4679,54.6456 22.1346,49.9789 24.5,45.5C 23.7542,44.2638 23.4208,42.9305 23.5,41.5C 24.9265,43.1484 25.7599,45.1484 26,47.5C 27.1606,42.5541 27.994,37.5541 28.5,32.5C 32.0602,31.8914 34.0602,33.3914 34.5,37C 31.3456,45.6532 30.8456,54.4865 33,63.5C 33.1981,61.6183 33.6981,59.9516 34.5,58.5 Z"/></g>
<g><path style="opacity:1" fill="#937d69" d="M 43.5,46.5 C 43.5,46.1667 43.5,45.8333 43.5,45.5C 44.5,45.5 45.5,45.5 46.5,45.5C 46.8984,48.4825 47.2317,51.4825 47.5,54.5C 47.6839,57.2046 47.0173,59.5379 45.5,61.5C 46.1083,56.0557 45.4417,51.0557 43.5,46.5 Z"/></g>
<g><path style="opacity:1" fill="#6e3e34" d="M 32.5,14.5 C 30.0367,13.7674 27.7033,12.7674 25.5,11.5C 22.8105,11.5454 21.4772,12.8787 21.5,15.5C 20.9045,18.1125 20.0712,18.1125 19,15.5C 16.5971,17.305 14.9305,19.6384 14,22.5C 13.5335,32.0397 14.0335,41.5397 15.5,51C 16.1392,53.7592 17.1392,56.2592 18.5,58.5C 19.4511,59.9187 19.7845,61.5853 19.5,63.5C 18.3303,61.7215 16.6636,60.7215 14.5,60.5C 14.7373,61.791 14.404,62.791 13.5,63.5C 12.609,64.1098 11.609,64.4431 10.5,64.5C 10.9182,61.9104 11.9182,59.5771 13.5,57.5C 13.0468,45.6883 12.7135,33.6883 12.5,21.5C 13.7375,18.2622 15.4042,15.2622 17.5,12.5C 19.8647,11.4055 22.3647,10.7388 25,10.5C 28.329,10.4128 30.829,11.7461 32.5,14.5 Z"/></g>
<g><path style="opacity:1" fill="#89635e" d="M 86.5,46.5 C 86.8204,49.8984 86.487,53.2317 85.5,56.5C 85.6425,54.6177 85.1425,52.6177 84,50.5C 83.0977,52.9269 82.2644,55.2603 81.5,57.5C 81.5,56.8333 81.1667,56.5 80.5,56.5C 80.9628,53.6697 81.6295,51.003 82.5,48.5C 82.4346,48.9382 82.6012,49.2716 83,49.5C 84.0391,48.2899 85.2058,47.2899 86.5,46.5 Z"/></g>
<g><path style="opacity:1" fill="#735251" d="M 12.5,21.5 C 12.7135,33.6883 13.0468,45.6883 13.5,57.5C 11.9182,59.5771 10.9182,61.9104 10.5,64.5C 9.54163,64.0472 8.7083,63.3805 8,62.5C 7.33333,58.8333 7.33333,55.1667 8,51.5C 9.33333,50.1667 10.6667,50.1667 12,51.5C 11.7637,44.8023 10.9303,38.1357 9.5,31.5C 9.75855,27.815 10.7585,24.4816 12.5,21.5 Z"/></g>
<g><path style="opacity:1" fill="#633a3a" d="M 87.5,48.5 C 87.6657,52.8461 87.499,57.1794 87,61.5C 86.6667,61.8333 86.3333,62.1667 86,62.5C 84.9076,60.0688 83.7409,60.0688 82.5,62.5C 81.962,60.8828 81.6287,59.2161 81.5,57.5C 82.2644,55.2603 83.0977,52.9269 84,50.5C 85.1425,52.6177 85.6425,54.6177 85.5,56.5C 86.487,53.2317 86.8204,49.8984 86.5,46.5C 87.4202,45.9326 87.7535,46.5992 87.5,48.5 Z"/></g>
<g><path style="opacity:1" fill="#837571" d="M 87.5,48.5 C 88.6484,52.9811 88.8151,57.6478 88,62.5C 86.3853,63.3862 84.8853,64.3862 83.5,65.5C 83.5,64.8333 83.1667,64.5 82.5,64.5C 82.5,63.8333 82.5,63.1667 82.5,62.5C 83.7409,60.0688 84.9076,60.0688 86,62.5C 86.3333,62.1667 86.6667,61.8333 87,61.5C 87.499,57.1794 87.6657,52.8461 87.5,48.5 Z"/></g>
<g><path style="opacity:1" fill="#735045" d="M 56.5,50.5 C 57.0808,53.7596 57.4141,57.0929 57.5,60.5C 57.1667,60.5 56.8333,60.5 56.5,60.5C 55.1667,61.1667 54.1667,62.1667 53.5,63.5C 52.8333,64.1667 52.1667,64.8333 51.5,65.5C 50.0483,63.1524 49.3817,60.4857 49.5,57.5C 49.7039,45.343 51.8705,44.6763 56,55.5C 56.4935,53.8659 56.6602,52.1992 56.5,50.5 Z"/></g>
<g><path style="opacity:1" fill="#c2815b" d="M 41.5,64.5 C 40.4324,63.5655 39.099,63.2322 37.5,63.5C 36.1667,63.5 35.5,62.8333 35.5,61.5C 37.0443,61.2969 38.3777,60.6302 39.5,59.5C 40.3539,60.9479 41.3539,62.2813 42.5,63.5C 42.3764,64.1067 42.0431,64.44 41.5,64.5 Z"/></g>
<g><path style="opacity:1" fill="#d3deb0" d="M 56.5,60.5 C 56.7163,62.6807 55.883,64.3474 54,65.5C 53.5357,64.9056 53.369,64.2389 53.5,63.5C 54.1667,62.1667 55.1667,61.1667 56.5,60.5 Z"/></g>
<g><path style="opacity:1" fill="#895546" d="M 43.5,46.5 C 45.4417,51.0557 46.1083,56.0557 45.5,61.5C 42.4423,68.3381 39.7757,75.3381 37.5,82.5C 37.8333,83.5 38.1667,84.5 38.5,85.5C 40.4989,83.161 42.8323,82.4944 45.5,83.5C 44.7868,85.7759 44.2868,88.1093 44,90.5C 42.1533,95.5396 39.32,99.8729 35.5,103.5C 35.1667,103.5 34.8333,103.5 34.5,103.5C 34.8333,102.167 35.1667,100.833 35.5,99.5C 35.8333,98.8333 36.1667,98.1667 36.5,97.5C 37.675,97.719 38.675,97.3857 39.5,96.5C 38.1028,94.0182 37.2694,91.3516 37,88.5C 36.1841,89.8228 35.0174,90.4894 33.5,90.5C 32.7853,87.7516 33.7853,85.4182 36.5,83.5C 36.0688,82.7065 35.7355,81.8732 35.5,81C 38.3864,75.8424 40.3864,70.3424 41.5,64.5C 42.0431,64.44 42.3764,64.1067 42.5,63.5C 41.3539,62.2813 40.3539,60.9479 39.5,59.5C 38.3777,60.6302 37.0443,61.2969 35.5,61.5C 35.2322,59.901 35.5655,58.5676 36.5,57.5C 37.1667,55.8333 37.8333,54.1667 38.5,52.5C 38.81,53.7383 39.31,53.7383 40,52.5C 40.926,50.3083 42.0927,48.3083 43.5,46.5 Z"/></g>
<g><path style="opacity:1" fill="#e0b978" d="M 19.5,63.5 C 19.5,65.5 19.5,67.5 19.5,69.5C 18.1667,69.5 16.8333,69.5 15.5,69.5C 15.2964,67.3146 14.6298,65.3146 13.5,63.5C 14.404,62.791 14.7373,61.791 14.5,60.5C 16.6636,60.7215 18.3303,61.7215 19.5,63.5 Z"/></g>
<g><path style="opacity:1" fill="#689572" d="M 80.5,56.5 C 81.1667,56.5 81.5,56.8333 81.5,57.5C 81.6287,59.2161 81.962,60.8828 82.5,62.5C 82.5,63.1667 82.5,63.8333 82.5,64.5C 81.8826,64.3893 81.3826,64.056 81,63.5C 80.5899,64.9007 80.0899,66.234 79.5,67.5C 78.5,67.5 77.5,67.5 76.5,67.5C 75.9553,71.1716 75.6219,70.8383 75.5,66.5C 77.6294,63.4603 79.2961,60.1269 80.5,56.5 Z"/></g>
<g><path style="opacity:1" fill="#866d4a" d="M 13.5,63.5 C 14.6298,65.3146 15.2964,67.3146 15.5,69.5C 15.5,69.8333 15.5,70.1667 15.5,70.5C 15.1667,70.5 14.8333,70.5 14.5,70.5C 13.1667,68.5 11.8333,66.5 10.5,64.5C 11.609,64.4431 12.609,64.1098 13.5,63.5 Z"/></g>
<g><path style="opacity:1" fill="#9f2628" d="M 26.5,76.5 C 25.3065,76.0296 24.6399,75.0296 24.5,73.5C 25.083,69.916 25.083,66.2493 24.5,62.5C 24.3691,61.6236 24.7025,60.9569 25.5,60.5C 26.3184,62.1083 26.9851,63.7749 27.5,65.5C 26.5741,69.0938 26.2408,72.7604 26.5,76.5 Z"/></g>
<g><path style="opacity:1" fill="#18a4c0" d="M 63.5,32.5 C 63.954,37.272 65.1207,41.9387 67,46.5C 67.1739,51.6835 67.6739,56.6835 68.5,61.5C 67.1653,67.5433 65.832,73.5433 64.5,79.5C 64.4423,82.0571 65.1089,84.3904 66.5,86.5C 67.4959,92.4632 67.8293,98.4632 67.5,104.5C 66.5128,99.6946 66.1795,94.6946 66.5,89.5C 65.5,89.5 64.5,89.5 63.5,89.5C 62.8147,84.1107 62.8147,78.7773 63.5,73.5C 64.4614,59.9982 64.4614,46.3316 63.5,32.5 Z"/></g>
<g><path style="opacity:1" fill="#234135" d="M 82.5,64.5 C 83.1667,64.5 83.5,64.8333 83.5,65.5C 81.3803,68.0789 80.047,71.0789 79.5,74.5C 78.3068,76.5097 78.3068,78.6763 79.5,81C 79.1918,82.4595 78.5251,83.6261 77.5,84.5C 76.5489,83.0813 76.2155,81.4147 76.5,79.5C 76.3359,76.8127 76.5026,74.146 77,71.5C 78.4813,70.5291 79.3146,69.1958 79.5,67.5C 80.0899,66.234 80.5899,64.9007 81,63.5C 81.3826,64.056 81.8826,64.3893 82.5,64.5 Z"/></g>
<g><path style="opacity:1" fill="#3a866f" d="M 60.5,22.5 C 60.8333,23.1667 61.1667,23.8333 61.5,24.5C 61.5,25.1667 61.5,25.8333 61.5,26.5C 60.6968,31.2514 60.3635,36.0848 60.5,41C 63.0865,51.6599 64.0865,62.4933 63.5,73.5C 62.8147,78.7773 62.8147,84.1107 63.5,89.5C 63.5,90.1667 63.5,90.8333 63.5,91.5C 61.7056,88.2955 60.8723,84.9621 61,81.5C 59.7554,85.4977 58.922,85.3311 58.5,81C 58.7483,79.2841 59.415,77.7841 60.5,76.5C 57.2834,74.7835 55.4501,72.1169 55,68.5C 54.1618,67.001 53.3285,66.6676 52.5,67.5C 51.6618,67.1583 51.3284,66.4916 51.5,65.5C 52.1667,64.8333 52.8333,64.1667 53.5,63.5C 53.369,64.2389 53.5357,64.9056 54,65.5C 55.883,64.3474 56.7163,62.6807 56.5,60.5C 56.8333,60.5 57.1667,60.5 57.5,60.5C 57.7553,63.0163 58.5886,65.3496 60,67.5C 59.4758,62.8744 59.6425,58.2077 60.5,53.5C 59.5849,47.3126 58.2516,41.3126 56.5,35.5C 56.254,30.5366 57.5873,26.2033 60.5,22.5 Z"/></g>
<g><path style="opacity:1" fill="#307d77" d="M 77.5,58.5 C 76.9056,60.8553 75.9056,63.022 74.5,65C 74.5699,65.7648 74.9033,66.2648 75.5,66.5C 75.6219,70.8383 75.9553,71.1716 76.5,67.5C 77.5,67.5 78.5,67.5 79.5,67.5C 79.3146,69.1958 78.4813,70.5291 77,71.5C 76.5026,74.146 76.3359,76.8127 76.5,79.5C 76.1667,79.5 75.8333,79.5 75.5,79.5C 75.5,79.1667 75.5,78.8333 75.5,78.5C 74.6234,75.2479 73.9567,71.9146 73.5,68.5C 72.7732,64.2226 74.1065,60.8893 77.5,58.5 Z"/></g>
<g><path style="opacity:1" fill="#654540" d="M 87.5,81.5 C 86.8333,82.1667 86.1667,82.8333 85.5,83.5C 85.1583,82.6618 84.4916,82.3284 83.5,82.5C 82.8333,81.1667 82.1667,79.8333 81.5,78.5C 81.5,77.8333 81.1667,77.5 80.5,77.5C 81.3795,74.7378 82.5462,72.0711 84,69.5C 86.0921,73.1968 87.2588,77.1968 87.5,81.5 Z"/></g>
<g><path style="opacity:1" fill="#2d4d3f" d="M 63.5,91.5 C 63.5,92.5 63.5,93.5 63.5,94.5C 61.2102,97.3424 60.2102,100.676 60.5,104.5C 59.5,104.5 58.5,104.5 57.5,104.5C 57.5,103.167 57.5,101.833 57.5,100.5C 58.8789,97.1174 58.5456,93.7841 56.5,90.5C 56.9839,82.712 55.6506,75.0453 52.5,67.5C 53.3285,66.6676 54.1618,67.001 55,68.5C 55.4501,72.1169 57.2834,74.7835 60.5,76.5C 59.415,77.7841 58.7483,79.2841 58.5,81C 58.922,85.3311 59.7554,85.4977 61,81.5C 60.8723,84.9621 61.7056,88.2955 63.5,91.5 Z"/></g>
<g><path style="opacity:1" fill="#d0cdad" d="M 81.5,78.5 C 82.1667,79.8333 82.8333,81.1667 83.5,82.5C 83.5,83.5 83.5,84.5 83.5,85.5C 82.2502,85.4226 81.4169,84.756 81,83.5C 80.2204,81.6131 80.3871,79.9464 81.5,78.5 Z"/></g>
<g><path style="opacity:1" fill="#d6544b" d="M 24.5,62.5 C 25.083,66.2493 25.083,69.916 24.5,73.5C 24.6399,75.0296 25.3065,76.0296 26.5,76.5C 26.8174,79.5719 26.4841,82.5719 25.5,85.5C 23.1572,84.0045 21.8239,84.6712 21.5,87.5C 22.2921,91.4086 22.6254,95.2419 22.5,99C 21.5509,99.6172 20.7175,99.4506 20,98.5C 19.5831,99.756 18.7498,100.423 17.5,100.5C 17.5,99.5 17.5,98.5 17.5,97.5C 21.4856,94.7942 21.4856,92.1275 17.5,89.5C 19.2892,83.9842 19.7892,78.3176 19,72.5C 18.6667,72.8333 18.3333,73.1667 18,73.5C 17.7645,71.8807 16.9311,70.8807 15.5,70.5C 15.5,70.1667 15.5,69.8333 15.5,69.5C 16.8333,69.5 18.1667,69.5 19.5,69.5C 19.5,67.5 19.5,65.5 19.5,63.5C 19.7845,61.5853 19.4511,59.9187 18.5,58.5C 18.5,56.5 18.5,54.5 18.5,52.5C 19.2216,52.0825 19.7216,51.4158 20,50.5C 20.3333,53.8333 20.6667,57.1667 21,60.5C 21.7096,61.9733 22.8762,62.6399 24.5,62.5 Z"/></g>
<g><path style="opacity:1" fill="#82443a" d="M 15.5,70.5 C 16.9311,70.8807 17.7645,71.8807 18,73.5C 18.3333,73.1667 18.6667,72.8333 19,72.5C 19.7892,78.3176 19.2892,83.9842 17.5,89.5C 15.7069,92.2587 15.2069,95.2587 16,98.5C 16.3826,97.944 16.8826,97.6107 17.5,97.5C 17.5,98.5 17.5,99.5 17.5,100.5C 17.1667,100.5 16.8333,100.5 16.5,100.5C 14.9519,100.179 14.2852,99.1788 14.5,97.5C 14.2955,93.5272 13.2955,89.5272 11.5,85.5C 11.7189,83.0847 13.0523,82.0847 15.5,82.5C 15.3379,80.4727 15.5045,78.4727 16,76.5C 16.6493,79.9374 17.1493,80.104 17.5,77C 16.9671,74.7739 16.3004,72.6073 15.5,70.5 Z"/></g>
<g><path style="opacity:1" fill="#7f5b59" d="M 14.5,70.5 C 14.8333,70.5 15.1667,70.5 15.5,70.5C 16.3004,72.6073 16.9671,74.7739 17.5,77C 17.1493,80.104 16.6493,79.9374 16,76.5C 15.5045,78.4727 15.3379,80.4727 15.5,82.5C 13.0523,82.0847 11.7189,83.0847 11.5,85.5C 13.2955,89.5272 14.2955,93.5272 14.5,97.5C 13.6618,97.8417 13.3284,98.5084 13.5,99.5C 12.8333,98.8333 12.1667,98.1667 11.5,97.5C 10.8333,96.5 10.1667,95.5 9.5,94.5C 9.33432,90.1539 9.50098,85.8206 10,81.5C 10.5954,77.9178 11.9288,77.5845 14,80.5C 14.4983,77.1832 14.665,73.8499 14.5,70.5 Z"/></g>
<g><path style="opacity:1" fill="#bf484a" d="M 37.5,63.5 C 39.099,63.2322 40.4324,63.5655 41.5,64.5C 40.3864,70.3424 38.3864,75.8424 35.5,81C 35.7355,81.8732 36.0688,82.7065 36.5,83.5C 33.7853,85.4182 32.7853,87.7516 33.5,90.5C 33.1667,90.5 32.8333,90.5 32.5,90.5C 27.3286,94.4669 25.3286,99.8002 26.5,106.5C 31.2473,106.716 33.5806,104.383 33.5,99.5C 34.1667,99.5 34.8333,99.5 35.5,99.5C 35.1667,100.833 34.8333,102.167 34.5,103.5C 33.71,104.609 33.21,105.942 33,107.5C 32.4167,120.5 31.9167,133.5 31.5,146.5C 31.1667,146.5 30.8333,146.5 30.5,146.5C 29.997,134.863 29.997,123.197 30.5,111.5C 28.857,111.48 27.5237,112.147 26.5,113.5C 25.8333,115.5 25.1667,117.5 24.5,119.5C 23.7823,114.818 23.1157,110.151 22.5,105.5C 22.8328,102.655 23.8328,100.155 25.5,98C 24.9186,97.1074 24.5852,96.1074 24.5,95C 25.6086,91.632 27.4419,88.7986 30,86.5C 30.4935,84.8659 30.6602,83.1992 30.5,81.5C 32.4308,80.7407 33.9308,79.4074 35,77.5C 36.0666,72.8645 36.8999,68.1978 37.5,63.5 Z"/></g>
<g><path style="opacity:1" fill="#dc9e6b" d="M 17.5,89.5 C 21.4856,92.1275 21.4856,94.7942 17.5,97.5C 16.8826,97.6107 16.3826,97.944 16,98.5C 15.2069,95.2587 15.7069,92.2587 17.5,89.5 Z"/></g>
<g><path style="opacity:1" fill="#744b4b" d="M 56.5,90.5 C 58.5456,93.7841 58.8789,97.1174 57.5,100.5C 57.1667,96.5 56.8333,96.5 56.5,100.5C 55.1266,100.343 53.7932,100.51 52.5,101C 53.9733,101.71 54.6399,102.876 54.5,104.5C 54.1667,104.5 53.8333,104.5 53.5,104.5C 49.7253,100.269 48.5586,95.2694 50,89.5C 51.7872,82.2522 53.9539,82.5855 56.5,90.5 Z"/></g>
<g><path style="opacity:1" fill="#457e64" d="M 79.5,74.5 C 79.2627,75.791 79.596,76.791 80.5,77.5C 81.1667,77.5 81.5,77.8333 81.5,78.5C 80.3871,79.9464 80.2204,81.6131 81,83.5C 81.4169,84.756 82.2502,85.4226 83.5,85.5C 82.5589,89.3246 81.2255,92.9913 79.5,96.5C 79.1667,96.5 78.8333,96.5 78.5,96.5C 77.5701,92.6002 77.2367,88.6002 77.5,84.5C 78.5251,83.6261 79.1918,82.4595 79.5,81C 78.3068,78.6763 78.3068,76.5097 79.5,74.5 Z"/></g>
<g><path style="opacity:1" fill="#29a0bc" d="M 75.5,79.5 C 75.8333,79.5 76.1667,79.5 76.5,79.5C 76.2155,81.4147 76.5489,83.0813 77.5,84.5C 77.2367,88.6002 77.5701,92.6002 78.5,96.5C 78.5,97.1667 78.5,97.8333 78.5,98.5C 77.596,99.209 77.2627,100.209 77.5,101.5C 76.4415,100.4 75.6082,99.0664 75,97.5C 74.5012,91.4839 74.6679,85.4839 75.5,79.5 Z"/></g>
<g><path style="opacity:1" fill="#dbac79" d="M 36.5,97.5 C 34.6878,95.5395 33.6878,93.2061 33.5,90.5C 35.0174,90.4894 36.1841,89.8228 37,88.5C 37.2694,91.3516 38.1028,94.0182 39.5,96.5C 38.675,97.3857 37.675,97.719 36.5,97.5 Z"/></g>
<g><path style="opacity:1" fill="#20a0a9" d="M 63.5,89.5 C 64.5,89.5 65.5,89.5 66.5,89.5C 66.1795,94.6946 66.5128,99.6946 67.5,104.5C 67.6417,112.208 67.1417,119.875 66,127.5C 65.6174,128.056 65.1174,128.389 64.5,128.5C 64.5,127.833 64.1667,127.5 63.5,127.5C 63.5,123.5 63.5,119.5 63.5,115.5C 64.2216,115.918 64.7216,116.584 65,117.5C 66.0777,109.565 65.5777,101.898 63.5,94.5C 63.5,93.5 63.5,92.5 63.5,91.5C 63.5,90.8333 63.5,90.1667 63.5,89.5 Z"/></g>
<g><path style="opacity:1" fill="#db7246" d="M 32.5,90.5 C 32.8333,90.5 33.1667,90.5 33.5,90.5C 33.6878,93.2061 34.6878,95.5395 36.5,97.5C 36.1667,98.1667 35.8333,98.8333 35.5,99.5C 34.8333,99.5 34.1667,99.5 33.5,99.5C 32.8413,96.5448 32.5079,93.5448 32.5,90.5 Z"/></g>
<g><path style="opacity:1" fill="#db494c" d="M 32.5,90.5 C 32.5079,93.5448 32.8413,96.5448 33.5,99.5C 33.5806,104.383 31.2473,106.716 26.5,106.5C 25.3286,99.8002 27.3286,94.4669 32.5,90.5 Z"/></g>
<g><path style="opacity:1" fill="#2c3c39" d="M 83.5,82.5 C 84.4916,82.3284 85.1583,82.6618 85.5,83.5C 81.9353,93.5014 80.6019,103.835 81.5,114.5C 80.7784,114.082 80.2784,113.416 80,112.5C 79.5006,107.177 79.334,101.844 79.5,96.5C 81.2255,92.9913 82.5589,89.3246 83.5,85.5C 83.5,84.5 83.5,83.5 83.5,82.5 Z"/></g>
<g><path style="opacity:1" fill="#d5d9d7" d="M 87.5,81.5 C 87.6427,83.2624 87.3094,84.9291 86.5,86.5C 87.2427,87.1818 87.9094,87.8485 88.5,88.5C 87.6236,88.3691 86.9569,88.7025 86.5,89.5C 87.6293,91.5294 87.1293,91.8627 85,90.5C 83.3366,94.4601 83.1699,98.4601 84.5,102.5C 83.1758,106.546 82.1758,110.546 81.5,114.5C 80.6019,103.835 81.9353,93.5014 85.5,83.5C 86.1667,82.8333 86.8333,82.1667 87.5,81.5 Z"/></g>
<g><path style="opacity:1" fill="#c5c3a9" d="M 57.5,100.5 C 57.5,101.833 57.5,103.167 57.5,104.5C 57.1583,105.338 56.4916,105.672 55.5,105.5C 54.8333,105.5 54.5,105.167 54.5,104.5C 54.6399,102.876 53.9733,101.71 52.5,101C 53.7932,100.51 55.1266,100.343 56.5,100.5C 56.8333,96.5 57.1667,96.5 57.5,100.5 Z"/></g>
<g><path style="opacity:1" fill="#359e80" d="M 63.5,94.5 C 65.5777,101.898 66.0777,109.565 65,117.5C 64.7216,116.584 64.2216,115.918 63.5,115.5C 62.1286,113.741 61.1286,111.741 60.5,109.5C 58.2276,108.866 56.5609,107.532 55.5,105.5C 56.4916,105.672 57.1583,105.338 57.5,104.5C 58.5,104.5 59.5,104.5 60.5,104.5C 60.2102,100.676 61.2102,97.3424 63.5,94.5 Z"/></g>
<g><path style="opacity:1" fill="#2982a2" d="M 78.5,98.5 C 78.0606,110.166 77.5606,121.833 77,133.5C 74.8358,136.447 74.0025,139.781 74.5,143.5C 73.5,143.5 72.5,143.5 71.5,143.5C 71.7863,141.723 72.4529,140.056 73.5,138.5C 72.0509,136.392 72.5509,134.725 75,133.5C 75.9843,122.84 76.8177,112.173 77.5,101.5C 77.2627,100.209 77.596,99.209 78.5,98.5 Z"/></g>
<g><path style="opacity:1" fill="#1fa4d6" d="M 68.5,61.5 C 68.6158,68.0751 70.9491,73.7417 75.5,78.5C 75.5,78.8333 75.5,79.1667 75.5,79.5C 74.6679,85.4839 74.5012,91.4839 75,97.5C 75.6082,99.0664 76.4415,100.4 77.5,101.5C 76.8177,112.173 75.9843,122.84 75,133.5C 72.5509,134.725 72.0509,136.392 73.5,138.5C 72.4529,140.056 71.7863,141.723 71.5,143.5C 69.847,143.66 68.5137,144.326 67.5,145.5C 66.5,145.5 65.5,145.5 64.5,145.5C 64.5,139.833 64.5,134.167 64.5,128.5C 65.1174,128.389 65.6174,128.056 66,127.5C 67.1417,119.875 67.6417,112.208 67.5,104.5C 67.8293,98.4632 67.4959,92.4632 66.5,86.5C 65.1089,84.3904 64.4423,82.0571 64.5,79.5C 65.832,73.5433 67.1653,67.5433 68.5,61.5 Z"/></g>
<g><path style="opacity:1" fill="#693c3a" d="M 14.5,97.5 C 14.2852,99.1788 14.9519,100.179 16.5,100.5C 17.7795,110.964 18.7795,121.464 19.5,132C 20.8641,137.259 22.5308,142.426 24.5,147.5C 23.325,147.281 22.325,147.614 21.5,148.5C 22.3721,150.45 23.0388,152.45 23.5,154.5C 22.8333,154.167 22.1667,153.833 21.5,153.5C 17.9244,135.625 15.2577,117.625 13.5,99.5C 13.3284,98.5084 13.6618,97.8417 14.5,97.5 Z"/></g>
<g><path style="opacity:1" fill="#e54e51" d="M 23.5,41.5 C 23.4208,42.9305 23.7542,44.2638 24.5,45.5C 22.1346,49.9789 21.4679,54.6456 22.5,59.5C 23.8415,57.9951 25.5082,57.3285 27.5,57.5C 28.2468,65.669 29.2468,73.669 30.5,81.5C 30.6602,83.1992 30.4935,84.8659 30,86.5C 27.4419,88.7986 25.6086,91.632 24.5,95C 24.5852,96.1074 24.9186,97.1074 25.5,98C 23.8328,100.155 22.8328,102.655 22.5,105.5C 23.1157,110.151 23.7823,114.818 24.5,119.5C 25.1667,117.5 25.8333,115.5 26.5,113.5C 27.5237,112.147 28.857,111.48 30.5,111.5C 29.997,123.197 29.997,134.863 30.5,146.5C 30.1583,147.338 29.4916,147.672 28.5,147.5C 27.6851,146.163 26.5185,145.163 25,144.5C 24.7837,142.616 24.117,140.949 23,139.5C 21.33,126.424 19.4967,113.424 17.5,100.5C 18.7498,100.423 19.5831,99.756 20,98.5C 20.7175,99.4506 21.5509,99.6172 22.5,99C 22.6254,95.2419 22.2921,91.4086 21.5,87.5C 21.8239,84.6712 23.1572,84.0045 25.5,85.5C 26.4841,82.5719 26.8174,79.5719 26.5,76.5C 26.2408,72.7604 26.5741,69.0938 27.5,65.5C 26.9851,63.7749 26.3184,62.1083 25.5,60.5C 24.7025,60.9569 24.3691,61.6236 24.5,62.5C 22.8762,62.6399 21.7096,61.9733 21,60.5C 20.6667,57.1667 20.3333,53.8333 20,50.5C 19.7216,51.4158 19.2216,52.0825 18.5,52.5C 17.4222,49.5979 16.7556,46.5979 16.5,43.5C 16.1707,37.4632 16.5041,31.4632 17.5,25.5C 18.4277,23.6652 19.5944,23.3318 21,24.5C 21.7277,30.2323 22.5611,35.8989 23.5,41.5 Z"/></g>
<g><path style="opacity:1" fill="#703532" d="M 34.5,103.5 C 34.8333,103.5 35.1667,103.5 35.5,103.5C 34.5632,111.445 34.2299,119.445 34.5,127.5C 33.5269,129.948 33.1936,132.615 33.5,135.5C 32.5151,139.634 32.1818,143.968 32.5,148.5C 31.6618,148.158 31.3284,147.492 31.5,146.5C 31.9167,133.5 32.4167,120.5 33,107.5C 33.21,105.942 33.71,104.609 34.5,103.5 Z"/></g>
<g><path style="opacity:1" fill="#29594a" d="M 53.5,104.5 C 53.8333,104.5 54.1667,104.5 54.5,104.5C 54.5,105.167 54.8333,105.5 55.5,105.5C 56.5609,107.532 58.2276,108.866 60.5,109.5C 61.1286,111.741 62.1286,113.741 63.5,115.5C 63.5,119.5 63.5,123.5 63.5,127.5C 62.6762,123.688 62.1762,119.688 62,115.5C 61.6174,114.944 61.1174,114.611 60.5,114.5C 58.5,112.167 56.5,109.833 54.5,107.5C 53.8902,106.609 53.5569,105.609 53.5,104.5 Z"/></g>
<g><path style="opacity:1" fill="#e6e1e2" d="M 11.5,97.5 C 12.1667,98.1667 12.8333,98.8333 13.5,99.5C 15.2577,117.625 17.9244,135.625 21.5,153.5C 19.5807,150.667 17.9141,147.5 16.5,144C 17.5831,139.861 17.4164,135.694 16,131.5C 15.7266,133.101 15.2266,134.601 14.5,136C 16.4155,138.185 16.5822,140.685 15,143.5C 13.9463,140.567 12.7797,137.734 11.5,135C 11.5394,133.106 12.2061,132.106 13.5,132C 13.3893,130.278 12.8893,130.112 12,131.5C 11.8333,130.5 11.6667,129.5 11.5,128.5C 13.41,125.269 14.41,121.769 14.5,118C 13.7316,111.121 12.7316,104.287 11.5,97.5 Z"/></g>
<g><path style="opacity:1" fill="#2e403c" d="M 60.5,114.5 C 61.1174,114.611 61.6174,114.944 62,115.5C 62.1762,119.688 62.6762,123.688 63.5,127.5C 63.2045,134.588 63.5379,141.588 64.5,148.5C 63.343,150.138 62.1764,151.804 61,153.5C 60.5357,152.906 60.369,152.239 60.5,151.5C 62.0437,147.891 62.7104,144.057 62.5,140C 61.3747,131.539 60.7081,123.039 60.5,114.5 Z"/></g>
<g><path style="opacity:1" fill="#3d4e57" d="M 78.5,96.5 C 78.8333,96.5 79.1667,96.5 79.5,96.5C 79.334,101.844 79.5006,107.177 80,112.5C 80.2784,113.416 80.7784,114.082 81.5,114.5C 80.4463,126.714 78.2796,138.714 75,150.5C 72.7103,153.969 69.5436,155.969 65.5,156.5C 66.8273,154.818 68.4939,153.485 70.5,152.5C 71.404,151.791 71.7373,150.791 71.5,149.5C 73.9845,148.74 73.9845,147.74 71.5,146.5C 70.4324,145.566 69.099,145.232 67.5,145.5C 68.5137,144.326 69.847,143.66 71.5,143.5C 72.5,143.5 73.5,143.5 74.5,143.5C 74.0025,139.781 74.8358,136.447 77,133.5C 77.5606,121.833 78.0606,110.166 78.5,98.5C 78.5,97.8333 78.5,97.1667 78.5,96.5 Z"/></g>
<g><path style="opacity:1" fill="#a24142" d="M 16.5,100.5 C 16.8333,100.5 17.1667,100.5 17.5,100.5C 19.4967,113.424 21.33,126.424 23,139.5C 24.117,140.949 24.7837,142.616 25,144.5C 26.5185,145.163 27.6851,146.163 28.5,147.5C 27.8333,147.5 27.1667,147.5 26.5,147.5C 25.8333,147.5 25.1667,147.5 24.5,147.5C 22.5308,142.426 20.8641,137.259 19.5,132C 18.7795,121.464 17.7795,110.964 16.5,100.5 Z"/></g>
<g><path style="opacity:1" fill="#3e747e" d="M 63.5,127.5 C 64.1667,127.5 64.5,127.833 64.5,128.5C 64.5,134.167 64.5,139.833 64.5,145.5C 65.5,145.5 66.5,145.5 67.5,145.5C 69.099,145.232 70.4324,145.566 71.5,146.5C 68.9214,146.394 66.588,147.061 64.5,148.5C 63.5379,141.588 63.2045,134.588 63.5,127.5 Z"/></g>
<g><path style="opacity:1" fill="#a49375" d="M 71.5,146.5 C 73.9845,147.74 73.9845,148.74 71.5,149.5C 71.631,148.761 71.4643,148.094 71,147.5C 67.8997,148.298 65.3997,149.965 63.5,152.5C 65.5524,152.705 67.8857,152.705 70.5,152.5C 68.4939,153.485 66.8273,154.818 65.5,156.5C 65.5,157.167 65.1667,157.5 64.5,157.5C 62.3926,156.532 60.0593,156.198 57.5,156.5C 58.1103,154.566 59.1103,152.899 60.5,151.5C 60.369,152.239 60.5357,152.906 61,153.5C 62.1764,151.804 63.343,150.138 64.5,148.5C 66.588,147.061 68.9214,146.394 71.5,146.5 Z"/></g>
<g><path style="opacity:1" fill="#966543" d="M 30.5,146.5 C 30.8333,146.5 31.1667,146.5 31.5,146.5C 31.3284,147.492 31.6618,148.158 32.5,148.5C 32.5,149.5 32.5,150.5 32.5,151.5C 30.6965,151.424 28.6965,151.757 26.5,152.5C 26.5,150.833 26.5,149.167 26.5,147.5C 27.1667,147.5 27.8333,147.5 28.5,147.5C 29.4916,147.672 30.1583,147.338 30.5,146.5 Z"/></g>
<g><path style="opacity:1" fill="#bb9960" d="M 71.5,149.5 C 71.7373,150.791 71.404,151.791 70.5,152.5C 67.8857,152.705 65.5524,152.705 63.5,152.5C 65.3997,149.965 67.8997,148.298 71,147.5C 71.4643,148.094 71.631,148.761 71.5,149.5 Z"/></g>
<g><path style="opacity:1" fill="#9f826d" d="M 24.5,147.5 C 25.1667,147.5 25.8333,147.5 26.5,147.5C 26.5,149.167 26.5,150.833 26.5,152.5C 28.6965,151.757 30.6965,151.424 32.5,151.5C 36.2606,153.792 35.9273,155.792 31.5,157.5C 28.3511,157.585 25.6845,156.585 23.5,154.5C 23.0388,152.45 22.3721,150.45 21.5,148.5C 22.325,147.614 23.325,147.281 24.5,147.5 Z"/></g>
<g><path style="opacity:1" fill="#7c6f62" d="M 33.5,135.5 C 33.1746,140.599 33.6746,145.599 35,150.5C 37.8303,152.81 39.997,155.476 41.5,158.5C 37.9581,158.813 34.6248,158.479 31.5,157.5C 35.9273,155.792 36.2606,153.792 32.5,151.5C 32.5,150.5 32.5,149.5 32.5,148.5C 32.1818,143.968 32.5151,139.634 33.5,135.5 Z"/></g>
<g><path style="opacity:1" fill="#626159" d="M 57.5,156.5 C 60.0593,156.198 62.3926,156.532 64.5,157.5C 61.8229,158.614 59.1562,158.614 56.5,157.5C 56.6236,156.893 56.9569,156.56 57.5,156.5 Z"/></g>
</svg>
