<?xml version="1.0" encoding="UTF-8"?>
<!DOCTYPE svg PUBLIC "-//W3C//DTD SVG 1.1//EN" "http://www.w3.org/Graphics/SVG/1.1/DTD/svg11.dtd">
<svg xmlns="http://www.w3.org/2000/svg" version="1.1" width="100px" height="165px" style="shape-rendering:geometricPrecision; text-rendering:geometricPrecision; image-rendering:optimizeQuality; fill-rule:evenodd; clip-rule:evenodd" xmlns:xlink="http://www.w3.org/1999/xlink">
<g><path style="opacity:1" fill="#fafcf3" d="M -0.5,-0.5 C 0.833333,-0.5 2.16667,-0.5 3.5,-0.5C 3.4026,12.6688 3.4026,25.8354 3.5,39C 3.66883,42.8463 3.00216,46.513 1.5,50C 1.86229,51.2247 2.36229,52.3914 3,53.5C 3.16667,59.5 3.33333,65.5 3.5,71.5C 3.75782,102.587 3.09116,133.587 1.5,164.5C 0.833333,164.5 0.166667,164.5 -0.5,164.5C -0.5,109.5 -0.5,54.5 -0.5,-0.5 Z"/></g>
<g><path style="opacity:1" fill="#fbfbfa" d="M 3.5,-0.5 C 35.5,-0.5 67.5,-0.5 99.5,-0.5C 99.5,54.5 99.5,109.5 99.5,164.5C 66.8333,164.5 34.1667,164.5 1.5,164.5C 3.09116,133.587 3.75782,102.587 3.5,71.5C 3.33333,65.5 3.16667,59.5 3,53.5C 2.36229,52.3914 1.86229,51.2247 1.5,50C 3.00216,46.513 3.66883,42.8463 3.5,39C 3.4026,25.8354 3.4026,12.6688 3.5,-0.5 Z"/></g>
<g><path style="opacity:1" fill="#86635e" d="M 54.5,5.5 C 48.3237,6.17057 42.157,7.17057 36,8.5C 35.0979,8.25675 34.2646,7.92342 33.5,7.5C 35.8766,6.11274 38.5432,5.27941 41.5,5C 46.0204,4.18636 50.3537,4.35303 54.5,5.5 Z"/></g>
<g><path style="opacity:1" fill="#a75151" d="M 59.5,5.5 C 64.8137,6.28462 69.3137,8.61796 73,12.5C 72.68,16.022 70.8467,18.6887 67.5,20.5C 65.8333,20.5 64.1667,20.5 62.5,20.5C 63.7822,18.8205 65.4489,17.4871 67.5,16.5C 69.2252,16.1575 69.7252,15.1575 69,13.5C 67.3523,12.283 65.519,11.4497 63.5,11C 56.0388,10.0367 48.7054,10.5367 41.5,12.5C 40.7469,14.7534 39.4136,16.5867 37.5,18C 38.0944,18.4643 38.7611,18.631 39.5,18.5C 39.5,18.8333 39.5,19.1667 39.5,19.5C 38.1667,19.5 36.8333,19.5 35.5,19.5C 37.1771,16.9755 38.6771,14.3088 40,11.5C 41.4194,10.5399 42.9194,9.70653 44.5,9C 50.8431,8.81995 57.1764,8.81995 63.5,9C 61.5,8.33333 59.5,7.66667 57.5,7C 58.4158,6.72158 59.0825,6.22158 59.5,5.5 Z"/></g>
<g><path style="opacity:1" fill="#d1454b" d="M 67.5,16.5 C 67.5,15.5 67.5,14.5 67.5,13.5C 59.0703,11.8787 50.737,12.212 42.5,14.5C 41.4756,15.8518 40.4756,17.1851 39.5,18.5C 38.7611,18.631 38.0944,18.4643 37.5,18C 39.4136,16.5867 40.7469,14.7534 41.5,12.5C 48.7054,10.5367 56.0388,10.0367 63.5,11C 65.519,11.4497 67.3523,12.283 69,13.5C 69.7252,15.1575 69.2252,16.1575 67.5,16.5 Z"/></g>
<g><path style="opacity:1" fill="#743432" d="M 54.5,5.5 C 56.1667,5.5 57.8333,5.5 59.5,5.5C 59.0825,6.22158 58.4158,6.72158 57.5,7C 59.5,7.66667 61.5,8.33333 63.5,9C 57.1764,8.81995 50.8431,8.81995 44.5,9C 42.9194,9.70653 41.4194,10.5399 40,11.5C 38.6771,14.3088 37.1771,16.9755 35.5,19.5C 31.9763,18.2143 28.643,16.5476 25.5,14.5C 27.8333,13.1667 30.1667,11.8333 32.5,10.5C 32.7093,9.91395 33.0426,9.41395 33.5,9C 32.5842,8.72158 31.9175,8.22158 31.5,7.5C 32.1667,7.5 32.8333,7.5 33.5,7.5C 34.2646,7.92342 35.0979,8.25675 36,8.5C 42.157,7.17057 48.3237,6.17057 54.5,5.5 Z"/></g>
<g><path style="opacity:1" fill="#875b64" d="M 31.5,7.5 C 31.9175,8.22158 32.5842,8.72158 33.5,9C 33.0426,9.41395 32.7093,9.91395 32.5,10.5C 30.1667,11.8333 27.8333,13.1667 25.5,14.5C 28.643,16.5476 31.9763,18.2143 35.5,19.5C 36.8333,19.5 38.1667,19.5 39.5,19.5C 39.5,19.8333 39.5,20.1667 39.5,20.5C 39.5,20.8333 39.5,21.1667 39.5,21.5C 36.5647,21.2833 33.7313,20.6166 31,19.5C 29.9302,19.528 29.0968,19.8614 28.5,20.5C 24.5132,18.6946 23.0132,15.6946 24,11.5C 26.4476,10.0268 28.9476,8.69345 31.5,7.5 Z"/></g>
<g><path style="opacity:1" fill="#f24c4e" d="M 67.5,16.5 C 65.4489,17.4871 63.7822,18.8205 62.5,20.5C 54.8333,20.5 47.1667,20.5 39.5,20.5C 39.5,20.1667 39.5,19.8333 39.5,19.5C 39.5,19.1667 39.5,18.8333 39.5,18.5C 40.4756,17.1851 41.4756,15.8518 42.5,14.5C 50.737,12.212 59.0703,11.8787 67.5,13.5C 67.5,14.5 67.5,15.5 67.5,16.5 Z"/></g>
<g><path style="opacity:1" fill="#3a3e52" d="M 28.5,20.5 C 29.0968,19.8614 29.9302,19.528 31,19.5C 33.7313,20.6166 36.5647,21.2833 39.5,21.5C 42.1459,22.1644 44.9792,22.4978 48,22.5C 53.0785,22.5945 57.9118,21.9278 62.5,20.5C 64.1667,20.5 65.8333,20.5 67.5,20.5C 66.6586,22.3792 66.3253,24.3792 66.5,26.5C 66.5,26.8333 66.5,27.1667 66.5,27.5C 65.5041,27.5858 64.6708,27.2524 64,26.5C 63.7679,27.7375 63.2679,28.7375 62.5,29.5C 62.7678,27.901 62.4345,26.5676 61.5,25.5C 59.8762,25.6399 58.7096,24.9733 58,23.5C 57.6667,23.8333 57.3333,24.1667 57,24.5C 50.5809,23.6871 44.0809,23.1871 37.5,23C 36.0993,22.5899 34.766,22.0899 33.5,21.5C 32.1667,21.5 30.8333,21.5 29.5,21.5C 29.5,20.8333 29.1667,20.5 28.5,20.5 Z"/></g>
<g><path style="opacity:1" fill="#a54f5f" d="M 39.5,20.5 C 47.1667,20.5 54.8333,20.5 62.5,20.5C 57.9118,21.9278 53.0785,22.5945 48,22.5C 44.9792,22.4978 42.1459,22.1644 39.5,21.5C 39.5,21.1667 39.5,20.8333 39.5,20.5 Z"/></g>
<g><path style="opacity:1" fill="#2c93c1" d="M 33.5,21.5 C 34.766,22.0899 36.0993,22.5899 37.5,23C 44.0809,23.1871 50.5809,23.6871 57,24.5C 57.3333,24.1667 57.6667,23.8333 58,23.5C 58.7096,24.9733 59.8762,25.6399 61.5,25.5C 61.5386,26.7562 61.0386,27.7562 60,28.5C 58.0548,27.3078 56.0548,27.3078 54,28.5C 52.6667,27.8333 51.3333,27.1667 50,26.5C 48.1113,27.9304 45.9446,28.5971 43.5,28.5C 39.9909,27.5531 36.6576,27.5531 33.5,28.5C 32.7611,28.631 32.0944,28.4643 31.5,28C 32.7111,26.8869 32.7111,25.7202 31.5,24.5C 32.6119,23.7348 33.2786,22.7348 33.5,21.5 Z"/></g>
<g><path style="opacity:1" fill="#349eb7" d="M 61.5,25.5 C 62.4345,26.5676 62.7678,27.901 62.5,29.5C 61.0883,30.5325 59.4216,31.1992 57.5,31.5C 49.4398,30.6173 41.4398,29.6173 33.5,28.5C 36.6576,27.5531 39.9909,27.5531 43.5,28.5C 45.9446,28.5971 48.1113,27.9304 50,26.5C 51.3333,27.1667 52.6667,27.8333 54,28.5C 56.0548,27.3078 58.0548,27.3078 60,28.5C 61.0386,27.7562 61.5386,26.7562 61.5,25.5 Z"/></g>
<g><path style="opacity:1" fill="#3b5d59" d="M 29.5,21.5 C 30.8333,21.5 32.1667,21.5 33.5,21.5C 33.2786,22.7348 32.6119,23.7348 31.5,24.5C 32.7111,25.7202 32.7111,26.8869 31.5,28C 32.0944,28.4643 32.7611,28.631 33.5,28.5C 41.4398,29.6173 49.4398,30.6173 57.5,31.5C 59.4216,31.1992 61.0883,30.5325 62.5,29.5C 63.2679,28.7375 63.7679,27.7375 64,26.5C 64.6708,27.2524 65.5041,27.5858 66.5,27.5C 66.5858,28.4959 66.2524,29.3292 65.5,30C 66.448,30.4828 67.448,30.6495 68.5,30.5C 68.5,30.8333 68.5,31.1667 68.5,31.5C 68.1667,31.5 67.8333,31.5 67.5,31.5C 66.1667,31.5 64.8333,31.5 63.5,31.5C 62.8333,32.1667 62.1667,32.8333 61.5,33.5C 61.0831,32.8761 60.4164,32.5427 59.5,32.5C 58.2867,32.7472 57.62,33.4138 57.5,34.5C 57.1667,34.5 56.8333,34.5 56.5,34.5C 55.713,32.8958 54.3797,32.2291 52.5,32.5C 50.1667,32.5 47.8333,32.5 45.5,32.5C 43.7354,31.5386 41.7354,31.2053 39.5,31.5C 38.5,31.5 37.5,31.5 36.5,31.5C 35.8333,31.5 35.1667,31.5 34.5,31.5C 33.609,30.8902 32.609,30.5569 31.5,30.5C 31.0679,29.2905 30.4013,28.2905 29.5,27.5C 30.6414,25.5487 30.6414,23.5487 29.5,21.5 Z"/></g>
<g><path style="opacity:1" fill="#e1d097" d="M 61.5,33.5 C 62.5109,35.4024 62.6776,37.4024 62,39.5C 59.7343,43.042 57.2343,46.3753 54.5,49.5C 54.1667,49.5 53.8333,49.5 53.5,49.5C 54.412,47.4048 55.5787,45.4048 57,43.5C 58.0651,40.4273 58.2318,37.4273 57.5,34.5C 57.62,33.4138 58.2867,32.7472 59.5,32.5C 60.4164,32.5427 61.0831,32.8761 61.5,33.5 Z"/></g>
<g><path style="opacity:1" fill="#d8cea0" d="M 68.5,31.5 C 68.5,31.1667 68.5,30.8333 68.5,30.5C 71.2431,30.0772 72.5765,31.2439 72.5,34C 71.8695,37.2962 70.3695,40.1296 68,42.5C 68.1433,39.8374 68.6433,37.1708 69.5,34.5C 69.4805,33.2739 69.1471,32.2739 68.5,31.5 Z"/></g>
<g><path style="opacity:1" fill="#ddce95" d="M 36.5,31.5 C 37.5,31.5 38.5,31.5 39.5,31.5C 37.7421,36.8595 38.4088,41.8595 41.5,46.5C 41.3764,47.1067 41.0431,47.44 40.5,47.5C 36.6073,42.813 35.2739,37.4797 36.5,31.5 Z"/></g>
<g><path style="opacity:1" fill="#ddd29c" d="M 31.5,30.5 C 32.609,30.5569 33.609,30.8902 34.5,31.5C 32.6774,36.4297 33.3441,40.9297 36.5,45C 35.4232,45.4696 34.4232,45.3029 33.5,44.5C 30.3243,40.2711 29.6576,35.6044 31.5,30.5 Z"/></g>
<g><path style="opacity:1" fill="#7b7157" d="M 66.5,26.5 C 75.2266,29.6261 76.7266,34.9594 71,42.5C 67.2674,46.3842 62.7674,48.7175 57.5,49.5C 57.5,50.5 57.5,51.5 57.5,52.5C 57.1667,52.5 56.8333,52.5 56.5,52.5C 56.7148,50.8212 56.0481,49.8212 54.5,49.5C 57.2343,46.3753 59.7343,43.042 62,39.5C 62.6776,37.4024 62.5109,35.4024 61.5,33.5C 62.1667,32.8333 62.8333,32.1667 63.5,31.5C 64.5896,37.6126 62.923,42.7792 58.5,47C 61.6256,46.2288 63.9589,44.2288 65.5,41C 67.0783,38.0316 67.745,34.8649 67.5,31.5C 67.8333,31.5 68.1667,31.5 68.5,31.5C 69.1471,32.2739 69.4805,33.2739 69.5,34.5C 68.6433,37.1708 68.1433,39.8374 68,42.5C 70.3695,40.1296 71.8695,37.2962 72.5,34C 72.5765,31.2439 71.2431,30.0772 68.5,30.5C 67.448,30.6495 66.448,30.4828 65.5,30C 66.2524,29.3292 66.5858,28.4959 66.5,27.5C 66.5,27.1667 66.5,26.8333 66.5,26.5 Z"/></g>
<g><path style="opacity:1" fill="#87794f" d="M 34.5,31.5 C 35.1667,31.5 35.8333,31.5 36.5,31.5C 35.2739,37.4797 36.6073,42.813 40.5,47.5C 37.4231,47.821 35.0897,46.821 33.5,44.5C 34.4232,45.3029 35.4232,45.4696 36.5,45C 33.3441,40.9297 32.6774,36.4297 34.5,31.5 Z"/></g>
<g><path style="opacity:1" fill="#e0d391" d="M 52.5,32.5 C 54.3797,32.2291 55.713,32.8958 56.5,34.5C 57.2728,39.6838 55.7728,44.0171 52,47.5C 52.0539,43.8323 52.5539,40.1656 53.5,36.5C 53.1543,35.1508 52.821,33.8175 52.5,32.5 Z"/></g>
<g><path style="opacity:1" fill="#635844" d="M 29.5,27.5 C 30.4013,28.2905 31.0679,29.2905 31.5,30.5C 29.6576,35.6044 30.3243,40.2711 33.5,44.5C 35.0897,46.821 37.4231,47.821 40.5,47.5C 40.8333,48.1667 41.1667,48.8333 41.5,49.5C 40.596,50.209 40.2627,51.209 40.5,52.5C 40.1667,52.5 39.8333,52.5 39.5,52.5C 39.5,51.5 39.5,50.5 39.5,49.5C 34.8843,49.7057 31.8843,47.7057 30.5,43.5C 30.631,44.2389 30.4643,44.9056 30,45.5C 24.8376,41.3411 23.1709,36.0078 25,29.5C 26.1096,27.9632 27.6096,27.2965 29.5,27.5 Z"/></g>
<g><path style="opacity:1" fill="#dccbac" d="M 30.5,43.5 C 27.3585,41.0171 25.6919,37.6838 25.5,33.5C 25.7466,30.9185 27.08,30.0851 29.5,31C 28.137,35.2729 28.4704,39.4396 30.5,43.5 Z"/></g>
<g><path style="opacity:1" fill="#938053" d="M 39.5,31.5 C 41.7354,31.2053 43.7354,31.5386 45.5,32.5C 47.8333,32.5 50.1667,32.5 52.5,32.5C 52.821,33.8175 53.1543,35.1508 53.5,36.5C 52.5539,40.1656 52.0539,43.8323 52,47.5C 55.7728,44.0171 57.2728,39.6838 56.5,34.5C 56.8333,34.5 57.1667,34.5 57.5,34.5C 58.2318,37.4273 58.0651,40.4273 57,43.5C 55.5787,45.4048 54.412,47.4048 53.5,49.5C 49.7307,49.244 46.0641,49.5773 42.5,50.5C 41.8333,50.5 41.5,50.1667 41.5,49.5C 41.1667,48.8333 40.8333,48.1667 40.5,47.5C 41.0431,47.44 41.3764,47.1067 41.5,46.5C 38.4088,41.8595 37.7421,36.8595 39.5,31.5 Z"/></g>
<g><path style="opacity:1" fill="#dbc97c" d="M 45.5,32.5 C 47.4812,36.1827 47.9812,40.1827 47,44.5C 45.8468,41.2889 45.1802,37.9555 45,34.5C 44.8199,38.9236 44.6532,43.2569 44.5,47.5C 40.9109,43.5336 39.7442,38.8669 41,33.5C 42.3561,32.6198 43.8561,32.2865 45.5,32.5 Z"/></g>
<g><path style="opacity:1" fill="#c3b287" d="M 49.5,33.5 C 51.9784,36.5298 52.1451,39.8632 50,43.5C 49.5017,40.1832 49.335,36.8499 49.5,33.5 Z"/></g>
<g><path style="opacity:1" fill="#cebb92" d="M 63.5,31.5 C 64.8333,31.5 66.1667,31.5 67.5,31.5C 67.745,34.8649 67.0783,38.0316 65.5,41C 63.9589,44.2288 61.6256,46.2288 58.5,47C 62.923,42.7792 64.5896,37.6126 63.5,31.5 Z"/></g>
<g><path style="opacity:1" fill="#834640" d="M 53.5,49.5 C 53.8333,49.5 54.1667,49.5 54.5,49.5C 56.0481,49.8212 56.7148,50.8212 56.5,52.5C 52.2529,53.6018 47.9196,53.7684 43.5,53C 42.7476,52.3292 42.4142,51.4959 42.5,50.5C 46.0641,49.5773 49.7307,49.244 53.5,49.5 Z"/></g>
<g><path style="opacity:1" fill="#32232f" d="M 41.5,49.5 C 41.5,50.1667 41.8333,50.5 42.5,50.5C 42.4142,51.4959 42.7476,52.3292 43.5,53C 47.9196,53.7684 52.2529,53.6018 56.5,52.5C 56.8333,52.5 57.1667,52.5 57.5,52.5C 57.5,52.8333 57.5,53.1667 57.5,53.5C 53.9694,54.2296 50.3027,54.8963 46.5,55.5C 44.22,54.8641 42.22,53.8641 40.5,52.5C 40.2627,51.209 40.596,50.209 41.5,49.5 Z"/></g>
<g><path style="opacity:1" fill="#667d89" d="M 61.5,53.5 C 63.5786,53.9707 65.5786,54.6373 67.5,55.5C 69.2685,58.2766 71.6018,60.2766 74.5,61.5C 72.8762,61.3601 71.7096,62.0267 71,63.5C 69.322,61.655 67.4887,59.9884 65.5,58.5C 64.1667,56.8333 62.8333,55.1667 61.5,53.5 Z"/></g>
<g><path style="opacity:1" fill="#3b677d" d="M 39.5,52.5 C 39.8333,52.5 40.1667,52.5 40.5,52.5C 42.22,53.8641 44.22,54.8641 46.5,55.5C 50.3027,54.8963 53.9694,54.2296 57.5,53.5C 58.8333,53.5 60.1667,53.5 61.5,53.5C 62.8333,55.1667 64.1667,56.8333 65.5,58.5C 65.0328,61.8258 63.8661,62.1591 62,59.5C 61,60.8333 60,62.1667 59,63.5C 57.2435,62.015 56.0768,62.3484 55.5,64.5C 54.8333,64.5 54.1667,64.5 53.5,64.5C 53.5,63.5 53.5,62.5 53.5,61.5C 51.4078,61.4386 49.9078,60.4386 49,58.5C 47.9563,59.6226 47.2896,60.9559 47,62.5C 45.5267,60.9929 43.6934,60.3262 41.5,60.5C 38.4102,60.7519 35.4102,61.4186 32.5,62.5C 29.9712,62.0711 27.6379,61.4045 25.5,60.5C 28.9936,55.78 33.6602,53.1133 39.5,52.5 Z"/></g>
<g><path style="opacity:1" fill="#e9e6e2" d="M 67.5,55.5 C 69.0443,55.7031 70.3777,56.3698 71.5,57.5C 72.1667,57.1667 72.8333,56.8333 73.5,56.5C 75.234,58.2342 77.234,59.5676 79.5,60.5C 78.518,62.8343 78.3513,65.1676 79,67.5C 77.1006,68.0385 74.934,68.7052 72.5,69.5C 72.5,70.5 72.5,71.5 72.5,72.5C 70.1155,72.5567 67.7822,72.2234 65.5,71.5C 64.3527,71.8178 63.5194,72.4844 63,73.5C 49.2169,72.7957 35.3836,71.9624 21.5,71C 18.8749,69.6072 18.8749,68.4405 21.5,67.5C 24.7893,68.3739 28.1226,69.0405 31.5,69.5C 42.3154,72.0068 52.9821,72.0068 63.5,69.5C 67.2198,69.4358 70.8865,68.9358 74.5,68C 75.8112,65.7265 75.8112,63.5598 74.5,61.5C 71.6018,60.2766 69.2685,58.2766 67.5,55.5 Z"/></g>
<g><path style="opacity:1" fill="#664547" d="M 21.5,62.5 C 24.0593,62.1984 26.3926,62.5318 28.5,63.5C 27.209,63.2627 26.209,63.596 25.5,64.5C 24.7611,64.369 24.0944,64.5357 23.5,65C 26.072,66.4543 28.7386,67.6209 31.5,68.5C 31.5,68.8333 31.5,69.1667 31.5,69.5C 28.1226,69.0405 24.7893,68.3739 21.5,67.5C 21.5,65.8333 21.5,64.1667 21.5,62.5 Z"/></g>
<g><path style="opacity:1" fill="#767264" d="M 53.5,64.5 C 45.2543,65.8006 36.921,65.4673 28.5,63.5C 26.3926,62.5318 24.0593,62.1984 21.5,62.5C 22.1834,60.8235 23.5168,60.1568 25.5,60.5C 27.6379,61.4045 29.9712,62.0711 32.5,62.5C 35.4102,61.4186 38.4102,60.7519 41.5,60.5C 43.6934,60.3262 45.5267,60.9929 47,62.5C 47.2896,60.9559 47.9563,59.6226 49,58.5C 49.9078,60.4386 51.4078,61.4386 53.5,61.5C 53.5,62.5 53.5,63.5 53.5,64.5 Z"/></g>
<g><path style="opacity:1" fill="#5b4d4c" d="M 65.5,58.5 C 67.4887,59.9884 69.322,61.655 71,63.5C 71.7096,62.0267 72.8762,61.3601 74.5,61.5C 75.8112,63.5598 75.8112,65.7265 74.5,68C 70.8865,68.9358 67.2198,69.4358 63.5,69.5C 66.2116,68.6414 68.8782,67.4748 71.5,66C 69.8659,65.5065 68.1992,65.3398 66.5,65.5C 63.0381,64.5184 59.3714,64.185 55.5,64.5C 56.0768,62.3484 57.2435,62.015 59,63.5C 60,62.1667 61,60.8333 62,59.5C 63.8661,62.1591 65.0328,61.8258 65.5,58.5 Z"/></g>
<g><path style="opacity:1" fill="#61231f" d="M 25.5,64.5 C 26.209,63.596 27.209,63.2627 28.5,63.5C 36.921,65.4673 45.2543,65.8006 53.5,64.5C 54.1667,64.5 54.8333,64.5 55.5,64.5C 59.3714,64.185 63.0381,64.5184 66.5,65.5C 52.7962,66.9678 39.1295,66.6345 25.5,64.5 Z"/></g>
<g><path style="opacity:1" fill="#cb5f6b" d="M 25.5,64.5 C 39.1295,66.6345 52.7962,66.9678 66.5,65.5C 68.1992,65.3398 69.8659,65.5065 71.5,66C 68.8782,67.4748 66.2116,68.6414 63.5,69.5C 52.8098,69.6785 42.1432,69.3452 31.5,68.5C 28.7386,67.6209 26.072,66.4543 23.5,65C 24.0944,64.5357 24.7611,64.369 25.5,64.5 Z"/></g>
<g><path style="opacity:1" fill="#803f41" d="M 31.5,69.5 C 31.5,69.1667 31.5,68.8333 31.5,68.5C 42.1432,69.3452 52.8098,69.6785 63.5,69.5C 52.9821,72.0068 42.3154,72.0068 31.5,69.5 Z"/></g>
<g><path style="opacity:1" fill="#a44147" d="M 59.5,95.5 C 61.5,95.5 63.5,95.5 65.5,95.5C 66.8333,96.5 68.1667,97.5 69.5,98.5C 61.2018,97.4263 52.8684,97.2596 44.5,98C 39.3649,98.6276 37.0315,101.461 37.5,106.5C 36.209,106.737 35.209,106.404 34.5,105.5C 35.952,100.491 39.2854,97.3243 44.5,96C 49.4889,95.5007 54.4889,95.3341 59.5,95.5 Z"/></g>
<g><path style="opacity:1" fill="#693130" d="M 59.5,95.5 C 54.4889,95.3341 49.4889,95.5007 44.5,96C 39.2854,97.3243 35.952,100.491 34.5,105.5C 31.2728,105.144 29.1061,103.477 28,100.5C 27.6174,101.056 27.1174,101.389 26.5,101.5C 26.5106,99.9826 27.1772,98.8159 28.5,98C 38.6429,93.2376 48.9763,92.4043 59.5,95.5 Z"/></g>
<g><path style="opacity:1" fill="#c84c55" d="M 69.5,98.5 C 71.18,100.726 70.8466,102.393 68.5,103.5C 68.5,102.167 68.5,100.833 68.5,99.5C 61.4993,98.9387 54.4993,98.772 47.5,99C 42.0535,98.8254 39.0535,101.325 38.5,106.5C 43.787,107.342 49.1203,107.676 54.5,107.5C 49.6842,108.65 44.6842,108.816 39.5,108C 38.5842,107.722 37.9175,107.222 37.5,106.5C 37.0315,101.461 39.3649,98.6276 44.5,98C 52.8684,97.2596 61.2018,97.4263 69.5,98.5 Z"/></g>
<g><path style="opacity:1" fill="#8a6262" d="M 65.5,95.5 C 63.5,95.5 61.5,95.5 59.5,95.5C 48.9763,92.4043 38.6429,93.2376 28.5,98C 27.1772,98.8159 26.5106,99.9826 26.5,101.5C 26.6107,102.117 26.944,102.617 27.5,103C 26.5842,103.278 25.9175,103.778 25.5,104.5C 23.0863,103.594 22.253,101.928 23,99.5C 32.7459,92.5492 43.5793,90.0492 55.5,92C 59.2451,92.3022 62.5784,93.4688 65.5,95.5 Z"/></g>
<g><path style="opacity:1" fill="#a25e5d" d="M 65.5,95.5 C 74.5863,97.2947 75.5863,100.961 68.5,106.5C 67.5,106.5 66.5,106.5 65.5,106.5C 66.1667,105.167 67.1667,104.167 68.5,103.5C 70.8466,102.393 71.18,100.726 69.5,98.5C 68.1667,97.5 66.8333,96.5 65.5,95.5 Z"/></g>
<g><path style="opacity:1" fill="#ed5055" d="M 68.5,103.5 C 67.1667,104.167 66.1667,105.167 65.5,106.5C 64.0413,106.433 62.7079,106.766 61.5,107.5C 59.1667,107.5 56.8333,107.5 54.5,107.5C 49.1203,107.676 43.787,107.342 38.5,106.5C 39.0535,101.325 42.0535,98.8254 47.5,99C 54.4993,98.772 61.4993,98.9387 68.5,99.5C 68.5,100.833 68.5,102.167 68.5,103.5 Z"/></g>
<g><path style="opacity:1" fill="#744752" d="M 34.5,105.5 C 35.209,106.404 36.209,106.737 37.5,106.5C 37.9175,107.222 38.5842,107.722 39.5,108C 44.6842,108.816 49.6842,108.65 54.5,107.5C 56.8333,107.5 59.1667,107.5 61.5,107.5C 56.4174,109.078 51.084,109.745 45.5,109.5C 40.3273,108.707 35.3273,108.707 30.5,109.5C 28.5,108.167 26.8333,106.5 25.5,104.5C 25.9175,103.778 26.5842,103.278 27.5,103C 26.944,102.617 26.6107,102.117 26.5,101.5C 27.1174,101.389 27.6174,101.056 28,100.5C 29.1061,103.477 31.2728,105.144 34.5,105.5 Z"/></g>
<g><path style="opacity:1" fill="#403645" d="M 65.5,106.5 C 66.5,106.5 67.5,106.5 68.5,106.5C 65.3287,110.844 65.9954,114.177 70.5,116.5C 68.7839,116.629 67.1172,116.962 65.5,117.5C 65.5,117.167 65.5,116.833 65.5,116.5C 65.2732,114.003 63.9398,112.336 61.5,111.5C 62.0253,110.808 62.6919,110.308 63.5,110C 57.3443,110.528 51.3443,110.361 45.5,109.5C 51.084,109.745 56.4174,109.078 61.5,107.5C 62.7079,106.766 64.0413,106.433 65.5,106.5 Z"/></g>
<g><path style="opacity:1" fill="#356282" d="M 45.5,109.5 C 51.3443,110.361 57.3443,110.528 63.5,110C 62.6919,110.308 62.0253,110.808 61.5,111.5C 63.9398,112.336 65.2732,114.003 65.5,116.5C 64.5,116.5 63.5,116.5 62.5,116.5C 61.609,115.89 60.609,115.557 59.5,115.5C 58.7659,114.292 58.4326,112.959 58.5,111.5C 50.4831,112.04 42.4831,111.373 34.5,109.5C 32.0847,109.719 31.0847,111.052 31.5,113.5C 31.6716,114.492 31.3382,115.158 30.5,115.5C 30.6716,114.508 30.3382,113.842 29.5,113.5C 30.2341,112.292 30.5674,110.959 30.5,109.5C 35.3273,108.707 40.3273,108.707 45.5,109.5 Z"/></g>
<g><path style="opacity:1" fill="#249cc5" d="M 59.5,115.5 C 58.828,116.267 57.9947,116.934 57,117.5C 56.1376,115.913 55.4709,114.246 55,112.5C 54.5,113.667 53.6667,114.5 52.5,115C 45.2975,116.046 38.2975,115.546 31.5,113.5C 31.0847,111.052 32.0847,109.719 34.5,109.5C 42.4831,111.373 50.4831,112.04 58.5,111.5C 58.4326,112.959 58.7659,114.292 59.5,115.5 Z"/></g>
<g><path style="opacity:1" fill="#42929f" d="M 59.5,115.5 C 60.609,115.557 61.609,115.89 62.5,116.5C 60.7165,117.455 58.7165,118.122 56.5,118.5C 49.3342,118.647 42.0009,118.313 34.5,117.5C 33.1667,117.5 31.8333,117.5 30.5,117.5C 30.5,118.5 30.5,119.5 30.5,120.5C 30.1667,120.5 29.8333,120.5 29.5,120.5C 29.5,119.167 29.5,117.833 29.5,116.5C 29.5,115.833 29.8333,115.5 30.5,115.5C 31.3382,115.158 31.6716,114.492 31.5,113.5C 38.2975,115.546 45.2975,116.046 52.5,115C 53.6667,114.5 54.5,113.667 55,112.5C 55.4709,114.246 56.1376,115.913 57,117.5C 57.9947,116.934 58.828,116.267 59.5,115.5 Z"/></g>
<g><path style="opacity:1" fill="#9b8f66" d="M 34.5,117.5 C 34.5,118.833 35.1667,119.5 36.5,119.5C 35.6586,121.379 35.3253,123.379 35.5,125.5C 34.8333,123.833 34.1667,122.167 33.5,120.5C 33.6309,119.624 33.2975,118.957 32.5,118.5C 31.3044,118.846 31.3044,119.346 32.5,120C 31.9056,120.464 31.2389,120.631 30.5,120.5C 30.5,119.5 30.5,118.5 30.5,117.5C 31.8333,117.5 33.1667,117.5 34.5,117.5 Z"/></g>
<g><path style="opacity:1" fill="#7b7154" d="M 70.5,116.5 C 74.1461,117.462 75.3128,119.795 74,123.5C 72.3448,127.654 69.5114,130.654 65.5,132.5C 63.9639,135.092 61.6305,136.092 58.5,135.5C 60.8333,132.833 63.1667,130.167 65.5,127.5C 66.1616,125.53 66.8283,123.53 67.5,121.5C 67.1207,119.787 66.1207,118.787 64.5,118.5C 64.5,117.833 64.8333,117.5 65.5,117.5C 67.1172,116.962 68.7839,116.629 70.5,116.5 Z"/></g>
<g><path style="opacity:1" fill="#d5c8af" d="M 29.5,116.5 C 29.5,117.833 29.5,119.167 29.5,120.5C 28.3773,122.688 28.3773,125.021 29.5,127.5C 30.3029,128.423 30.4696,129.423 30,130.5C 26.8199,127.112 25.4866,123.112 26,118.5C 26.8159,117.177 27.9826,116.511 29.5,116.5 Z"/></g>
<g><path style="opacity:1" fill="#d8cc97" d="M 33.5,120.5 C 32.6644,125.594 33.9978,129.927 37.5,133.5C 34.5468,132.213 32.2135,130.213 30.5,127.5C 30.3259,125.139 29.9926,122.806 29.5,120.5C 29.8333,120.5 30.1667,120.5 30.5,120.5C 31.2389,120.631 31.9056,120.464 32.5,120C 31.3044,119.346 31.3044,118.846 32.5,118.5C 33.2975,118.957 33.6309,119.624 33.5,120.5 Z"/></g>
<g><path style="opacity:1" fill="#dac985" d="M 41.5,119.5 C 43.5,119.5 45.5,119.5 47.5,119.5C 47.5,122.5 47.5,125.5 47.5,128.5C 47.6567,129.873 47.49,131.207 47,132.5C 46.6667,132.167 46.3333,131.833 46,131.5C 45.8236,128.118 45.3236,124.785 44.5,121.5C 43.2609,125.929 43.5942,130.263 45.5,134.5C 44.8333,135.833 44.1667,135.833 43.5,134.5C 40.613,129.747 39.9463,124.747 41.5,119.5 Z"/></g>
<g><path style="opacity:1" fill="#5a5337" d="M 62.5,116.5 C 63.5,116.5 64.5,116.5 65.5,116.5C 65.5,116.833 65.5,117.167 65.5,117.5C 64.8333,117.5 64.5,117.833 64.5,118.5C 63.6236,118.369 62.9569,118.702 62.5,119.5C 63.3928,122.084 63.7261,124.751 63.5,127.5C 61.5272,130.139 59.1939,132.473 56.5,134.5C 58.3111,131.556 60.1444,128.556 62,125.5C 62.1805,123.512 62.0138,121.512 61.5,119.5C 60.1667,119.5 58.8333,119.5 57.5,119.5C 57.5,122.167 57.5,124.833 57.5,127.5C 56.8333,127.5 56.5,127.167 56.5,126.5C 56.8493,123.537 55.8493,121.204 53.5,119.5C 52.52,122.086 52.1866,124.753 52.5,127.5C 51.7356,125.26 50.9023,122.927 50,120.5C 50.0533,123.675 49.22,126.342 47.5,128.5C 47.5,125.5 47.5,122.5 47.5,119.5C 45.5,119.5 43.5,119.5 41.5,119.5C 40.5,119.5 39.5,119.5 38.5,119.5C 37.8333,118.167 37.1667,118.167 36.5,119.5C 35.1667,119.5 34.5,118.833 34.5,117.5C 42.0009,118.313 49.3342,118.647 56.5,118.5C 58.7165,118.122 60.7165,117.455 62.5,116.5 Z"/></g>
<g><path style="opacity:1" fill="#e1d693" d="M 64.5,118.5 C 66.1207,118.787 67.1207,119.787 67.5,121.5C 66.8283,123.53 66.1616,125.53 65.5,127.5C 64.8333,127.5 64.1667,127.5 63.5,127.5C 63.7261,124.751 63.3928,122.084 62.5,119.5C 62.9569,118.702 63.6236,118.369 64.5,118.5 Z"/></g>
<g><path style="opacity:1" fill="#c9bda1" d="M 65.5,132.5 C 64.7611,132.631 64.0944,132.464 63.5,132C 67.6331,128.264 69.2998,123.764 68.5,118.5C 69.325,117.614 70.325,117.281 71.5,117.5C 71.9834,123.528 69.9834,128.528 65.5,132.5 Z"/></g>
<g><path style="opacity:1" fill="#362910" d="M 29.5,120.5 C 29.9926,122.806 30.3259,125.139 30.5,127.5C 30.1667,127.5 29.8333,127.5 29.5,127.5C 28.3773,125.021 28.3773,122.688 29.5,120.5 Z"/></g>
<g><path style="opacity:1" fill="#e4d58e" d="M 56.5,126.5 C 54.9396,129.332 53.1062,131.998 51,134.5C 51.011,132.115 51.511,129.782 52.5,127.5C 52.1866,124.753 52.52,122.086 53.5,119.5C 55.8493,121.204 56.8493,123.537 56.5,126.5 Z"/></g>
<g><path style="opacity:1" fill="#ded491" d="M 56.5,134.5 C 55.8333,134.5 55.1667,134.5 54.5,134.5C 55.758,132.313 56.758,129.98 57.5,127.5C 57.5,124.833 57.5,122.167 57.5,119.5C 58.8333,119.5 60.1667,119.5 61.5,119.5C 62.0138,121.512 62.1805,123.512 62,125.5C 60.1444,128.556 58.3111,131.556 56.5,134.5 Z"/></g>
<g><path style="opacity:1" fill="#d6cb95" d="M 38.5,119.5 C 37.9749,124.14 38.6416,128.473 40.5,132.5C 40.0623,133.506 39.3957,133.506 38.5,132.5C 36.9255,130.453 35.9255,128.119 35.5,125.5C 35.3253,123.379 35.6586,121.379 36.5,119.5C 37.1667,118.167 37.8333,118.167 38.5,119.5 Z"/></g>
<g><path style="opacity:1" fill="#625529" d="M 33.5,120.5 C 34.1667,122.167 34.8333,123.833 35.5,125.5C 35.9255,128.119 36.9255,130.453 38.5,132.5C 38.5,133.167 38.1667,133.5 37.5,133.5C 33.9978,129.927 32.6644,125.594 33.5,120.5 Z"/></g>
<g><path style="opacity:1" fill="#9d8a59" d="M 38.5,119.5 C 39.5,119.5 40.5,119.5 41.5,119.5C 39.9463,124.747 40.613,129.747 43.5,134.5C 44.1667,135.833 44.8333,135.833 45.5,134.5C 43.5942,130.263 43.2609,125.929 44.5,121.5C 45.3236,124.785 45.8236,128.118 46,131.5C 46.3333,131.833 46.6667,132.167 47,132.5C 47.49,131.207 47.6567,129.873 47.5,128.5C 49.22,126.342 50.0533,123.675 50,120.5C 50.9023,122.927 51.7356,125.26 52.5,127.5C 51.511,129.782 51.011,132.115 51,134.5C 53.1062,131.998 54.9396,129.332 56.5,126.5C 56.5,127.167 56.8333,127.5 57.5,127.5C 56.758,129.98 55.758,132.313 54.5,134.5C 53.4479,136.256 51.7812,136.923 49.5,136.5C 49.5,135.5 49.5,134.5 49.5,133.5C 48.5,133.5 47.5,133.5 46.5,133.5C 46.5,134.5 46.5,135.5 46.5,136.5C 45.1667,136.5 43.8333,136.5 42.5,136.5C 42.3404,134.847 41.6737,133.514 40.5,132.5C 38.6416,128.473 37.9749,124.14 38.5,119.5 Z"/></g>
<g><path style="opacity:1" fill="#bbaf94" d="M 63.5,127.5 C 64.1667,127.5 64.8333,127.5 65.5,127.5C 63.1667,130.167 60.8333,132.833 58.5,135.5C 57.5084,135.672 56.8417,135.338 56.5,134.5C 59.1939,132.473 61.5272,130.139 63.5,127.5 Z"/></g>
<g><path style="opacity:1" fill="#746b5f" d="M 29.5,113.5 C 30.3382,113.842 30.6716,114.508 30.5,115.5C 29.8333,115.5 29.5,115.833 29.5,116.5C 27.9826,116.511 26.8159,117.177 26,118.5C 25.4866,123.112 26.8199,127.112 30,130.5C 30.4696,129.423 30.3029,128.423 29.5,127.5C 29.8333,127.5 30.1667,127.5 30.5,127.5C 32.2135,130.213 34.5468,132.213 37.5,133.5C 38.1667,133.5 38.5,133.167 38.5,132.5C 39.3957,133.506 40.0623,133.506 40.5,132.5C 41.6737,133.514 42.3404,134.847 42.5,136.5C 40.9395,134.365 39.2729,134.198 37.5,136C 38.8228,136.816 39.4894,137.983 39.5,139.5C 37.9582,140.301 36.2915,140.634 34.5,140.5C 35.4293,139.685 36.4293,138.852 37.5,138C 28.5777,134.078 24.0777,127.245 24,117.5C 25.4998,115.531 27.3331,114.198 29.5,113.5 Z"/></g>
<g><path style="opacity:1" fill="#6d4840" d="M 54.5,134.5 C 55.1667,134.5 55.8333,134.5 56.5,134.5C 56.8417,135.338 57.5084,135.672 58.5,135.5C 57.3995,136.605 56.7329,137.938 56.5,139.5C 50.8333,140.833 45.1667,140.833 39.5,139.5C 39.4894,137.983 38.8228,136.816 37.5,136C 39.2729,134.198 40.9395,134.365 42.5,136.5C 43.8333,136.5 45.1667,136.5 46.5,136.5C 46.5,135.5 46.5,134.5 46.5,133.5C 47.5,133.5 48.5,133.5 49.5,133.5C 49.5,134.5 49.5,135.5 49.5,136.5C 51.7812,136.923 53.4479,136.256 54.5,134.5 Z"/></g>
<g><path style="opacity:1" fill="#3f565e" d="M 39.5,139.5 C 45.1667,140.833 50.8333,140.833 56.5,139.5C 62.3956,140.122 67.0622,142.789 70.5,147.5C 70.4142,148.496 70.7476,149.329 71.5,150C 69.1009,150.711 66.7676,150.544 64.5,149.5C 63.7025,149.957 63.3691,150.624 63.5,151.5C 61.8333,151.5 60.1667,151.5 58.5,151.5C 57.5313,150.691 56.6979,149.691 56,148.5C 55.5172,149.448 55.3505,150.448 55.5,151.5C 54.5,151.5 53.5,151.5 52.5,151.5C 51.8333,150.167 51.1667,148.833 50.5,147.5C 51.8153,145.024 52.982,145.358 54,148.5C 56.19,145.751 57.8567,146.085 59,149.5C 59.4828,148.552 59.6495,147.552 59.5,146.5C 62.3613,146.487 63.3613,145.321 62.5,143C 58.1103,142.228 53.777,142.394 49.5,143.5C 44.2913,141.078 38.6246,140.911 32.5,143C 32.0426,143.414 31.7093,143.914 31.5,144.5C 37.8893,144.861 43.8893,145.861 49.5,147.5C 45.7382,147.525 41.7382,147.692 37.5,148C 38.6956,148.654 38.6956,149.154 37.5,149.5C 34.9009,146.766 33.2343,147.099 32.5,150.5C 29.2356,149.676 25.9023,149.342 22.5,149.5C 25.7021,145.552 29.7021,142.552 34.5,140.5C 36.2915,140.634 37.9582,140.301 39.5,139.5 Z"/></g>
<g><path style="opacity:1" fill="#396b87" d="M 50.5,147.5 C 50.1667,147.5 49.8333,147.5 49.5,147.5C 43.8893,145.861 37.8893,144.861 31.5,144.5C 31.7093,143.914 32.0426,143.414 32.5,143C 38.6246,140.911 44.2913,141.078 49.5,143.5C 53.777,142.394 58.1103,142.228 62.5,143C 63.3613,145.321 62.3613,146.487 59.5,146.5C 59.6495,147.552 59.4828,148.552 59,149.5C 57.8567,146.085 56.19,145.751 54,148.5C 52.982,145.358 51.8153,145.024 50.5,147.5 Z"/></g>
<g><path style="opacity:1" fill="#6b7c6e" d="M 49.5,147.5 C 49.8333,147.5 50.1667,147.5 50.5,147.5C 51.1667,148.833 51.8333,150.167 52.5,151.5C 50.7697,152.912 49.2697,152.578 48,150.5C 46.951,152.107 45.451,152.773 43.5,152.5C 43.719,151.325 43.3857,150.325 42.5,149.5C 41.5318,150.489 40.3651,151.156 39,151.5C 36.6482,150.594 34.4815,150.26 32.5,150.5C 33.2343,147.099 34.9009,146.766 37.5,149.5C 38.6956,149.154 38.6956,148.654 37.5,148C 41.7382,147.692 45.7382,147.525 49.5,147.5 Z"/></g>
<g><path style="opacity:1" fill="#4e403d" d="M 70.5,147.5 C 74.1522,148.968 75.1522,151.468 73.5,155C 72.552,155.483 71.552,155.649 70.5,155.5C 70.5774,154.25 71.244,153.417 72.5,153C 71.7562,151.961 70.7562,151.461 69.5,151.5C 67.5,151.5 65.5,151.5 63.5,151.5C 63.3691,150.624 63.7025,149.957 64.5,149.5C 66.7676,150.544 69.1009,150.711 71.5,150C 70.7476,149.329 70.4142,148.496 70.5,147.5 Z"/></g>
<g><path style="opacity:1" fill="#64322e" d="M 22.5,149.5 C 25.9023,149.342 29.2356,149.676 32.5,150.5C 34.4815,150.26 36.6482,150.594 39,151.5C 40.3651,151.156 41.5318,150.489 42.5,149.5C 43.3857,150.325 43.719,151.325 43.5,152.5C 45.451,152.773 46.951,152.107 48,150.5C 49.2697,152.578 50.7697,152.912 52.5,151.5C 53.5,151.5 54.5,151.5 55.5,151.5C 56.5,152.833 57.5,152.833 58.5,151.5C 60.1667,151.5 61.8333,151.5 63.5,151.5C 65.5,151.5 67.5,151.5 69.5,151.5C 67.7857,152.738 65.7857,153.405 63.5,153.5C 50.9394,153.87 38.4394,153.203 26,151.5C 24.8333,151.667 23.6667,151.833 22.5,152C 24.2331,153.189 25.8998,154.356 27.5,155.5C 25.5,155.167 23.5,154.833 21.5,154.5C 21.2155,152.585 21.5489,150.919 22.5,149.5 Z"/></g>
<g><path style="opacity:1" fill="#a08078" d="M 58.5,151.5 C 57.5,152.833 56.5,152.833 55.5,151.5C 55.3505,150.448 55.5172,149.448 56,148.5C 56.6979,149.691 57.5313,150.691 58.5,151.5 Z"/></g>
<g><path style="opacity:1" fill="#c65e63" d="M 63.5,153.5 C 63.5,154.5 63.5,155.5 63.5,156.5C 51.8169,156.602 40.1502,156.269 28.5,155.5C 28.1667,155.5 27.8333,155.5 27.5,155.5C 25.8998,154.356 24.2331,153.189 22.5,152C 23.6667,151.833 24.8333,151.667 26,151.5C 38.4394,153.203 50.9394,153.87 63.5,153.5 Z"/></g>
<g><path style="opacity:1" fill="#86484a" d="M 69.5,151.5 C 70.7562,151.461 71.7562,151.961 72.5,153C 71.244,153.417 70.5774,154.25 70.5,155.5C 56.4002,159.434 42.4002,159.434 28.5,155.5C 40.1502,156.269 51.8169,156.602 63.5,156.5C 63.5,155.5 63.5,154.5 63.5,153.5C 65.7857,153.405 67.7857,152.738 69.5,151.5 Z"/></g>
</svg>
