<?xml version="1.0" encoding="UTF-8"?>
<!DOCTYPE svg PUBLIC "-//W3C//DTD SVG 1.1//EN" "http://www.w3.org/Graphics/SVG/1.1/DTD/svg11.dtd">
<svg xmlns="http://www.w3.org/2000/svg" version="1.1" width="100px" height="165px" style="shape-rendering:geometricPrecision; text-rendering:geometricPrecision; image-rendering:optimizeQuality; fill-rule:evenodd; clip-rule:evenodd" xmlns:xlink="http://www.w3.org/1999/xlink">
<g><path style="opacity:1" fill="#fbfbfa" d="M -0.5,-0.5 C 32.8333,-0.5 66.1667,-0.5 99.5,-0.5C 99.5,54.5 99.5,109.5 99.5,164.5C 66.1667,164.5 32.8333,164.5 -0.5,164.5C -0.5,109.5 -0.5,54.5 -0.5,-0.5 Z"/></g>
<g><path style="opacity:1" fill="#605147" d="M 64.5,68.5 C 73.3234,63.5438 79.3234,56.2105 82.5,46.5C 83.6507,41.3497 83.8174,36.0164 83,30.5C 82.6667,31.1667 82.3333,31.8333 82,32.5C 81.6012,32.2716 81.4346,31.9382 81.5,31.5C 82.2178,29.8632 82.3845,28.1966 82,26.5C 76.8697,15.5364 68.3697,8.86969 56.5,6.5C 50.7969,6.37477 45.1302,6.7081 39.5,7.5C 55.4033,1.5206 68.9033,5.18727 80,18.5C 88.7044,34.9215 86.8711,50.0882 74.5,64C 71.5201,66.324 68.1867,67.824 64.5,68.5 Z"/></g>
<g><path style="opacity:1" fill="#dac7af" d="M 56.5,6.5 C 56.3893,7.11742 56.056,7.61742 55.5,8C 52.1667,8.33333 48.8333,8.66667 45.5,9C 41.9793,10.6738 38.3127,11.8404 34.5,12.5C 34.3713,14.2161 34.038,15.8828 33.5,17.5C 31.8212,17.2852 30.8212,17.9519 30.5,19.5C 28.2598,20.5676 26.4264,22.2342 25,24.5C 24.5172,23.552 24.3505,22.552 24.5,21.5C 28.2166,15.4497 33.2166,10.7831 39.5,7.5C 45.1302,6.7081 50.7969,6.37477 56.5,6.5 Z"/></g>
<g><path style="opacity:1" fill="#7f592f" d="M 66.5,14.5 C 68.3603,15.9387 70.027,17.6053 71.5,19.5C 70.5151,23.6344 70.1818,27.9677 70.5,32.5C 69.5151,28.3656 69.1818,24.0323 69.5,19.5C 63.8606,20.4795 59.1939,18.9795 55.5,15C 49.4797,11.1782 45.4797,12.6782 43.5,19.5C 39.1869,18.9905 35.1869,19.6571 31.5,21.5C 30.8333,21.5 30.1667,21.5 29.5,21.5C 29.8333,20.8333 30.1667,20.1667 30.5,19.5C 30.8212,17.9519 31.8212,17.2852 33.5,17.5C 43.7807,9.35322 54.7807,8.35322 66.5,14.5 Z"/></g>
<g><path style="opacity:1" fill="#e1c175" d="M 70.5,32.5 C 76.5552,34.472 78.2219,38.1386 75.5,43.5C 73.6954,44.2371 72.0287,45.2371 70.5,46.5C 69.803,50.3771 69.1363,54.2104 68.5,58C 65.438,58.7415 62.438,58.5748 59.5,57.5C 58.059,58.8651 56.7256,60.3651 55.5,62C 53.5789,62.3603 51.9122,63.1936 50.5,64.5C 47.064,62.3034 44.564,59.3034 43,55.5C 42.6174,56.056 42.1174,56.3893 41.5,56.5C 38.5,56.5 35.5,56.5 32.5,56.5C 32.7678,54.901 32.4345,53.5676 31.5,52.5C 31.3801,50.2655 31.7135,48.0989 32.5,46C 29.5197,43.8539 27.5197,41.0206 26.5,37.5C 27.389,35.1017 28.889,33.1017 31,31.5C 31.4983,28.1832 31.665,24.8499 31.5,21.5C 35.1869,19.6571 39.1869,18.9905 43.5,19.5C 45.4797,12.6782 49.4797,11.1782 55.5,15C 59.1939,18.9795 63.8606,20.4795 69.5,19.5C 69.1818,24.0323 69.5151,28.3656 70.5,32.5 Z"/></g>
<g><path style="opacity:1" fill="#724c25" d="M 56.5,21.5 C 53.1371,21.7026 49.8038,21.7026 46.5,21.5C 48.539,20.089 49.539,18.089 49.5,15.5C 50.5,15.5 51.5,15.5 52.5,15.5C 52.3746,18.6082 53.7079,20.6082 56.5,21.5 Z"/></g>
<g><path style="opacity:1" fill="#a26a44" d="M 46.5,21.5 C 49.8038,21.7026 53.1371,21.7026 56.5,21.5C 57.1667,21.5 57.5,21.8333 57.5,22.5C 59.193,23.8533 60.5264,25.52 61.5,27.5C 60.7354,27.9234 59.9021,28.2568 59,28.5C 51.6698,23.6822 45.3365,24.6822 40,31.5C 39.5034,29.1902 39.3367,26.8568 39.5,24.5C 37.8212,24.2852 36.8212,24.9519 36.5,26.5C 35.596,25.791 35.2627,24.791 35.5,23.5C 39.3721,23.7578 43.0388,23.0911 46.5,21.5 Z"/></g>
<g><path style="opacity:1" fill="#c0a086" d="M 56.5,6.5 C 68.3697,8.86969 76.8697,15.5364 82,26.5C 82.3845,28.1966 82.2178,29.8632 81.5,31.5C 79.2065,24.0141 74.7065,18.0141 68,13.5C 67.6174,14.056 67.1174,14.3893 66.5,14.5C 54.7807,8.35322 43.7807,9.35322 33.5,17.5C 34.038,15.8828 34.3713,14.2161 34.5,12.5C 38.3127,11.8404 41.9793,10.6738 45.5,9C 48.8333,8.66667 52.1667,8.33333 55.5,8C 56.056,7.61742 56.3893,7.11742 56.5,6.5 Z"/></g>
<g><path style="opacity:1" fill="#d3ad8b" d="M 57.5,14.5 C 60.0286,13.5511 62.3619,14.2178 64.5,16.5C 63.6667,16.8333 62.8333,17.1667 62,17.5C 60.1074,16.9923 58.6074,15.9923 57.5,14.5 Z"/></g>
<g><path style="opacity:1" fill="#6f3c30" d="M 61.5,27.5 C 62.7503,27.0926 63.917,27.7593 65,29.5C 66.8987,32.8758 67.732,36.5425 67.5,40.5C 66.0221,39.5525 65.0221,38.2191 64.5,36.5C 64.1433,34.4109 63.4767,32.4109 62.5,30.5C 61.8281,31.9492 61.1614,33.2825 60.5,34.5C 60.573,32.9731 59.9063,31.9731 58.5,31.5C 56.9444,29.0118 54.6111,28.0118 51.5,28.5C 47.7347,27.7907 45.068,29.124 43.5,32.5C 40.9253,35.7178 40.9253,39.0512 43.5,42.5C 43.5569,43.609 43.8902,44.609 44.5,45.5C 43.609,46.1098 42.609,46.4431 41.5,46.5C 40.3778,45.0527 38.8778,44.0527 37,43.5C 36.0572,40.7493 35.2239,38.0826 34.5,35.5C 36.123,32.7847 36.7896,29.7847 36.5,26.5C 36.8212,24.9519 37.8212,24.2852 39.5,24.5C 39.3367,26.8568 39.5034,29.1902 40,31.5C 45.3365,24.6822 51.6698,23.6822 59,28.5C 59.9021,28.2568 60.7354,27.9234 61.5,27.5 Z"/></g>
<g><path style="opacity:1" fill="#b98d83" d="M 58.5,31.5 C 52.8271,28.4466 47.9938,29.4466 44,34.5C 43.5357,33.9056 43.369,33.2389 43.5,32.5C 45.068,29.124 47.7347,27.7907 51.5,28.5C 54.6111,28.0118 56.9444,29.0118 58.5,31.5 Z"/></g>
<g><path style="opacity:1" fill="#764320" d="M 57.5,22.5 C 60.1735,23.7026 62.8401,23.7026 65.5,22.5C 66.2525,26.1915 67.0858,29.8582 68,33.5C 69.1667,36 71,37.8333 73.5,39C 71.8043,40.1764 70.1376,41.343 68.5,42.5C 67.6618,42.1583 67.3284,41.4916 67.5,40.5C 67.732,36.5425 66.8987,32.8758 65,29.5C 63.917,27.7593 62.7503,27.0926 61.5,27.5C 60.5264,25.52 59.193,23.8533 57.5,22.5 Z"/></g>
<g><path style="opacity:1" fill="#b65e5a" d="M 58.5,31.5 C 59.9063,31.9731 60.573,32.9731 60.5,34.5C 60.5,34.8333 60.5,35.1667 60.5,35.5C 58.6118,46.9432 52.9451,49.2765 43.5,42.5C 40.9253,39.0512 40.9253,35.7178 43.5,32.5C 43.369,33.2389 43.5357,33.9056 44,34.5C 47.9938,29.4466 52.8271,28.4466 58.5,31.5 Z"/></g>
<g><path style="opacity:1" fill="#bfa890" d="M 30.5,19.5 C 30.1667,20.1667 29.8333,20.8333 29.5,21.5C 26.308,27.6904 23.9747,33.5237 22.5,39C 24.738,44.0944 26.9047,49.2611 29,54.5C 31.159,56.9563 31.9923,56.2896 31.5,52.5C 32.4345,53.5676 32.7678,54.901 32.5,56.5C 35.5,56.5 38.5,56.5 41.5,56.5C 38.6946,57.3195 35.6946,57.8195 32.5,58C 38.1954,63.9163 45.1954,66.4163 53.5,65.5C 53.9175,66.2216 54.5842,66.7216 55.5,67C 52.7493,67.9428 50.0826,68.7761 47.5,69.5C 30.7041,66.2034 21.3707,56.0367 19.5,39C 20.0252,32.7159 21.6919,26.8826 24.5,21.5C 24.3505,22.552 24.5172,23.552 25,24.5C 26.4264,22.2342 28.2598,20.5676 30.5,19.5 Z"/></g>
<g><path style="opacity:1" fill="#5f3c22" d="M 29.5,21.5 C 30.1667,21.5 30.8333,21.5 31.5,21.5C 31.665,24.8499 31.4983,28.1832 31,31.5C 28.889,33.1017 27.389,35.1017 26.5,37.5C 27.5197,41.0206 29.5197,43.8539 32.5,46C 31.7135,48.0989 31.3801,50.2655 31.5,52.5C 31.9923,56.2896 31.159,56.9563 29,54.5C 26.9047,49.2611 24.738,44.0944 22.5,39C 23.9747,33.5237 26.308,27.6904 29.5,21.5 Z"/></g>
<g><path style="opacity:1" fill="#cfad91" d="M 28.5,25.5 C 30.0635,28.4454 29.5635,31.112 27,33.5C 27.1529,30.8262 27.6529,28.1595 28.5,25.5 Z"/></g>
<g><path style="opacity:1" fill="#a62e33" d="M 51.5,42.5 C 53.0842,39.8636 52.7508,37.5303 50.5,35.5C 51.0253,34.8076 51.6919,34.3076 52.5,34C 48.468,34.5801 46.8014,37.0801 47.5,41.5C 44.7244,38.4898 45.0577,35.6565 48.5,33C 51.4663,32.1048 54.1329,32.6048 56.5,34.5C 56.2907,35.086 55.9574,35.586 55.5,36C 57.3632,37.4178 57.8632,39.2511 57,41.5C 56.6667,41.1667 56.3333,40.8333 56,40.5C 55.7508,41.624 55.2508,42.624 54.5,43.5C 53.5832,42.8728 52.5832,42.5394 51.5,42.5 Z"/></g>
<g><path style="opacity:1" fill="#e25052" d="M 51.5,42.5 C 49.901,42.7678 48.5676,42.4345 47.5,41.5C 46.8014,37.0801 48.468,34.5801 52.5,34C 51.6919,34.3076 51.0253,34.8076 50.5,35.5C 52.7508,37.5303 53.0842,39.8636 51.5,42.5 Z"/></g>
<g><path style="opacity:1" fill="#5d3b25" d="M 71.5,19.5 C 73.3137,21.7641 75.147,24.0975 77,26.5C 77.1177,29.3713 77.7844,32.038 79,34.5C 79.8182,39.651 79.3182,44.651 77.5,49.5C 76.8333,48.1667 76.1667,46.8333 75.5,45.5C 75.5,44.8333 75.5,44.1667 75.5,43.5C 78.2219,38.1386 76.5552,34.472 70.5,32.5C 70.1818,27.9677 70.5151,23.6344 71.5,19.5 Z"/></g>
<g><path style="opacity:1" fill="#cba786" d="M 72.5,25.5 C 75.8551,26.8476 76.8551,29.1809 75.5,32.5C 72.9711,30.9375 71.9711,28.6041 72.5,25.5 Z"/></g>
<g><path style="opacity:1" fill="#ae8679" d="M 81.5,31.5 C 81.4346,31.9382 81.6012,32.2716 82,32.5C 82.3333,31.8333 82.6667,31.1667 83,30.5C 83.8174,36.0164 83.6507,41.3497 82.5,46.5C 82.0133,45.5266 81.5133,44.5266 81,43.5C 80.647,46.1525 79.4803,48.1525 77.5,49.5C 79.3182,44.651 79.8182,39.651 79,34.5C 77.7844,32.038 77.1177,29.3713 77,26.5C 75.147,24.0975 73.3137,21.7641 71.5,19.5C 70.027,17.6053 68.3603,15.9387 66.5,14.5C 67.1174,14.3893 67.6174,14.056 68,13.5C 74.7065,18.0141 79.2065,24.0141 81.5,31.5 Z"/></g>
<g><path style="opacity:1" fill="#8a5b3e" d="M 64.5,36.5 C 65.0221,38.2191 66.0221,39.5525 67.5,40.5C 67.3284,41.4916 67.6618,42.1583 68.5,42.5C 65.9087,46.1977 64.9087,50.1977 65.5,54.5C 63.9291,53.6906 62.2624,53.3573 60.5,53.5C 59.7611,53.631 59.0944,53.4643 58.5,53C 59.5,52.1667 60.5,51.3333 61.5,50.5C 62.6527,49.3132 62.6527,48.3132 61.5,47.5C 63.8797,44.2376 64.8797,40.5709 64.5,36.5 Z"/></g>
<g><path style="opacity:1" fill="#d19994" d="M 60.5,35.5 C 62.9304,43.2539 59.9304,47.2539 51.5,47.5C 48.8906,47.5587 46.5572,46.892 44.5,45.5C 43.8902,44.609 43.5569,43.609 43.5,42.5C 52.9451,49.2765 58.6118,46.9432 60.5,35.5 Z"/></g>
<g><path style="opacity:1" fill="#cead95" d="M 26.5,43.5 C 30.7104,45.0752 31.5437,47.7418 29,51.5C 27.8644,48.9036 27.031,46.237 26.5,43.5 Z"/></g>
<g><path style="opacity:1" fill="#6d4829" d="M 34.5,35.5 C 35.2239,38.0826 36.0572,40.7493 37,43.5C 38.8778,44.0527 40.3778,45.0527 41.5,46.5C 42.8333,47.8333 44.1667,49.1667 45.5,50.5C 45.4701,51.4972 45.9701,52.1639 47,52.5C 49.8193,52.9821 52.3193,53.9821 54.5,55.5C 53.1733,56.8001 51.84,58.1335 50.5,59.5C 47.0743,53.7206 42.0743,51.7206 35.5,53.5C 38.1857,46.5504 36.1857,41.5504 29.5,38.5C 30.9397,37.0476 32.6064,36.0476 34.5,35.5 Z"/></g>
<g><path style="opacity:1" fill="#533224" d="M 64.5,36.5 C 64.8797,40.5709 63.8797,44.2376 61.5,47.5C 59.5833,48.4056 57.9166,49.7389 56.5,51.5C 52.9062,50.5741 49.2396,50.2408 45.5,50.5C 44.1667,49.1667 42.8333,47.8333 41.5,46.5C 42.609,46.4431 43.609,46.1098 44.5,45.5C 46.5572,46.892 48.8906,47.5587 51.5,47.5C 59.9304,47.2539 62.9304,43.2539 60.5,35.5C 60.5,35.1667 60.5,34.8333 60.5,34.5C 61.1614,33.2825 61.8281,31.9492 62.5,30.5C 63.4767,32.4109 64.1433,34.4109 64.5,36.5 Z"/></g>
<g><path style="opacity:1" fill="#a58a5e" d="M 61.5,47.5 C 62.6527,48.3132 62.6527,49.3132 61.5,50.5C 60.5,51.3333 59.5,52.1667 58.5,53C 59.0944,53.4643 59.7611,53.631 60.5,53.5C 58.6264,54.2852 56.6264,54.9518 54.5,55.5C 52.3193,53.9821 49.8193,52.9821 47,52.5C 45.9701,52.1639 45.4701,51.4972 45.5,50.5C 49.2396,50.2408 52.9062,50.5741 56.5,51.5C 57.9166,49.7389 59.5833,48.4056 61.5,47.5 Z"/></g>
<g><path style="opacity:1" fill="#644828" d="M 75.5,43.5 C 75.5,44.1667 75.5,44.8333 75.5,45.5C 72.7334,46.754 72.0667,48.754 73.5,51.5C 74.451,50.6744 75.451,50.5078 76.5,51C 72.9531,57.6082 67.6198,62.1082 60.5,64.5C 59.8333,64.3333 59.1667,64.1667 58.5,64C 64.7539,61.4883 64.7539,60.4883 58.5,61C 56.6063,62.0793 56.273,63.4126 57.5,65C 56.2068,65.49 54.8734,65.6567 53.5,65.5C 45.1954,66.4163 38.1954,63.9163 32.5,58C 35.6946,57.8195 38.6946,57.3195 41.5,56.5C 42.1174,56.3893 42.6174,56.056 43,55.5C 44.564,59.3034 47.064,62.3034 50.5,64.5C 51.9122,63.1936 53.5789,62.3603 55.5,62C 56.7256,60.3651 58.059,58.8651 59.5,57.5C 62.438,58.5748 65.438,58.7415 68.5,58C 69.1363,54.2104 69.803,50.3771 70.5,46.5C 72.0287,45.2371 73.6954,44.2371 75.5,43.5 Z"/></g>
<g><path style="opacity:1" fill="#dfcca4" d="M 38.5,60.5 C 40.515,59.1475 42.1817,59.6475 43.5,62C 41.8107,61.8657 40.144,61.3657 38.5,60.5 Z"/></g>
<g><path style="opacity:1" fill="#d3c1ae" d="M 82.5,46.5 C 79.3234,56.2105 73.3234,63.5438 64.5,68.5C 60.3036,68.9233 56.1369,69.59 52,70.5C 50.4085,70.3948 48.9085,70.0614 47.5,69.5C 50.0826,68.7761 52.7493,67.9428 55.5,67C 54.5842,66.7216 53.9175,66.2216 53.5,65.5C 54.8734,65.6567 56.2068,65.49 57.5,65C 56.273,63.4126 56.6063,62.0793 58.5,61C 64.7539,60.4883 64.7539,61.4883 58.5,64C 59.1667,64.1667 59.8333,64.3333 60.5,64.5C 67.6198,62.1082 72.9531,57.6082 76.5,51C 75.451,50.5078 74.451,50.6744 73.5,51.5C 72.0667,48.754 72.7334,46.754 75.5,45.5C 76.1667,46.8333 76.8333,48.1667 77.5,49.5C 79.4803,48.1525 80.647,46.1525 81,43.5C 81.5133,44.5266 82.0133,45.5266 82.5,46.5 Z"/></g>
<g><path style="opacity:1" fill="#4f463d" d="M 39.5,7.5 C 33.2166,10.7831 28.2166,15.4497 24.5,21.5C 21.6919,26.8826 20.0252,32.7159 19.5,39C 21.3707,56.0367 30.7041,66.2034 47.5,69.5C 48.9085,70.0614 50.4085,70.3948 52,70.5C 56.1369,69.59 60.3036,68.9233 64.5,68.5C 62.042,70.7128 59.042,71.8795 55.5,72C 33.0559,72.0618 20.3892,60.8951 17.5,38.5C 17.7843,28.4419 21.4509,19.9419 28.5,13C 31.6422,10.0956 35.3089,8.26224 39.5,7.5 Z"/></g>
<g><path style="opacity:1" fill="#b9a38d" d="M 71.5,99.5 C 70.713,101.104 69.3797,101.771 67.5,101.5C 63.5006,99.244 59.1673,97.744 54.5,97C 54.8333,96.6667 55.1667,96.3333 55.5,96C 52.5,95.3333 49.5,95.3333 46.5,96C 46.8333,96.3333 47.1667,96.6667 47.5,97C 44.578,97.4171 41.9113,98.4171 39.5,100C 40.7376,99.9227 41.7376,100.089 42.5,100.5C 41.7542,101.736 41.4208,103.07 41.5,104.5C 39.712,104.785 38.0453,104.452 36.5,103.5C 37.5063,102.604 37.5063,101.938 36.5,101.5C 30.9884,104.203 27.6551,108.537 26.5,114.5C 25.5207,115.765 24.5207,117.099 23.5,118.5C 23.1416,123.527 23.8083,128.527 25.5,133.5C 30.7599,147.139 40.7599,153.139 55.5,151.5C 56.2625,152.268 57.2625,152.768 58.5,153C 53.8333,153.667 49.1667,154.333 44.5,155C 46.5,155 48.5,155 50.5,155C 49.5842,155.278 48.9175,155.778 48.5,156.5C 46.5853,156.216 44.9187,156.549 43.5,157.5C 42.209,157.737 41.209,157.404 40.5,156.5C 42.3786,156.607 42.7119,156.107 41.5,155C 27.3309,149.323 19.9976,138.823 19.5,123.5C 23.8852,99.2996 38.2186,89.4663 62.5,94C 65.7111,95.5613 68.7111,97.3947 71.5,99.5 Z"/></g>
<g><path style="opacity:1" fill="#50453f" d="M 43.5,157.5 C 44.9187,156.549 46.5853,156.216 48.5,156.5C 65.8421,156.842 77.1754,148.842 82.5,132.5C 85.7123,119.249 82.0456,108.249 71.5,99.5C 68.7111,97.3947 65.7111,95.5613 62.5,94C 38.2186,89.4663 23.8852,99.2996 19.5,123.5C 19.9976,138.823 27.3309,149.323 41.5,155C 42.7119,156.107 42.3786,156.607 40.5,156.5C 29.3983,152.061 22.065,144.061 18.5,132.5C 17.1667,127.167 17.1667,121.833 18.5,116.5C 24.1466,98.6522 36.4799,90.1522 55.5,91C 76.5708,95.3357 86.4042,108.169 85,129.5C 79.6791,151.305 65.8458,160.639 43.5,157.5 Z"/></g>
<g><path style="opacity:1" fill="#dcc37b" d="M 77.5,124.5 C 76.2972,126.395 75.1305,128.395 74,130.5C 72.4002,131.866 70.5668,132.866 68.5,133.5C 71.6397,143.86 68.3064,146.86 58.5,142.5C 54.9408,151.068 50.1074,152.068 44,145.5C 43.5172,144.552 43.3505,143.552 43.5,142.5C 39.5483,143.272 35.5483,143.605 31.5,143.5C 31.0431,139.416 31.7098,135.583 33.5,132C 32.4734,131.487 31.4734,130.987 30.5,130.5C 28.2433,128.836 26.5767,126.669 25.5,124C 26.9798,121.251 28.9798,118.917 31.5,117C 28.5884,107.413 31.9217,103.913 41.5,106.5C 43.1812,102.492 46.1812,99.8256 50.5,98.5C 54.1405,100.307 56.9739,102.974 59,106.5C 62.1347,105.201 65.3013,105.201 68.5,106.5C 69.1667,110.5 69.8333,114.5 70.5,118.5C 73.4933,119.833 75.8266,121.833 77.5,124.5 Z"/></g>
<g><path style="opacity:1" fill="#5b3c22" d="M 67.5,101.5 C 70.9154,104.588 73.5821,108.255 75.5,112.5C 75.3764,113.107 75.0431,113.44 74.5,113.5C 73.0584,110.8 72.3917,111.134 72.5,114.5C 72.3402,116.355 73.0069,117.688 74.5,118.5C 74.56,119.043 74.8933,119.376 75.5,119.5C 76.2978,117.922 76.7978,116.256 77,114.5C 77.977,116.74 78.477,119.073 78.5,121.5C 78.7373,122.791 78.404,123.791 77.5,124.5C 75.8266,121.833 73.4933,119.833 70.5,118.5C 69.8333,114.5 69.1667,110.5 68.5,106.5C 65.3013,105.201 62.1347,105.201 59,106.5C 56.9739,102.974 54.1405,100.307 50.5,98.5C 46.1812,99.8256 43.1812,102.492 41.5,106.5C 31.9217,103.913 28.5884,107.413 31.5,117C 28.9798,118.917 26.9798,121.251 25.5,124C 26.5767,126.669 28.2433,128.836 30.5,130.5C 30.1583,131.338 29.4916,131.672 28.5,131.5C 28.44,130.957 28.1067,130.624 27.5,130.5C 26.8243,131.602 26.1577,132.602 25.5,133.5C 23.8083,128.527 23.1416,123.527 23.5,118.5C 24.5207,117.099 25.5207,115.765 26.5,114.5C 27.6551,108.537 30.9884,104.203 36.5,101.5C 37.5063,101.938 37.5063,102.604 36.5,103.5C 38.0453,104.452 39.712,104.785 41.5,104.5C 41.4208,103.07 41.7542,101.736 42.5,100.5C 41.7376,100.089 40.7376,99.9227 39.5,100C 41.9113,98.4171 44.578,97.4171 47.5,97C 47.1667,96.6667 46.8333,96.3333 46.5,96C 49.5,95.3333 52.5,95.3333 55.5,96C 55.1667,96.3333 54.8333,96.6667 54.5,97C 59.1673,97.744 63.5006,99.244 67.5,101.5 Z"/></g>
<g><path style="opacity:1" fill="#957559" d="M 47.5,107.5 C 49.5563,108.216 51.723,108.883 54,109.5C 54.4643,108.906 54.631,108.239 54.5,107.5C 58.3005,109.143 62.3005,109.81 66.5,109.5C 66.5,111.5 66.5,113.5 66.5,115.5C 65.5489,114.081 65.2155,112.415 65.5,110.5C 62.2869,110.19 59.2869,110.523 56.5,111.5C 49.2976,110.688 43.6309,113.021 39.5,118.5C 38.7784,118.918 38.2784,119.584 38,120.5C 37.3333,118.833 37.3333,117.167 38,115.5C 39.353,114.315 40.5197,112.981 41.5,111.5C 40.0508,110.828 38.7175,110.161 37.5,109.5C 41.162,109.966 44.4954,109.299 47.5,107.5 Z"/></g>
<g><path style="opacity:1" fill="#5a3b1f" d="M 54.5,107.5 C 54.631,108.239 54.4643,108.906 54,109.5C 51.723,108.883 49.5563,108.216 47.5,107.5C 48.2371,105.695 49.2371,104.029 50.5,102.5C 51.8347,104.201 53.168,105.868 54.5,107.5 Z"/></g>
<g><path style="opacity:1" fill="#d7baa8" d="M 56.5,100.5 C 56.7352,99.9033 57.2352,99.5699 58,99.5C 60.2644,99.8537 62.0978,100.854 63.5,102.5C 62.277,103.614 60.9437,103.781 59.5,103C 58.6266,101.955 57.6266,101.122 56.5,100.5 Z"/></g>
<g><path style="opacity:1" fill="#cdb790" d="M 74.5,113.5 C 75.7199,115.284 75.7199,116.95 74.5,118.5C 73.0069,117.688 72.3402,116.355 72.5,114.5C 72.3917,111.134 73.0584,110.8 74.5,113.5 Z"/></g>
<g><path style="opacity:1" fill="#c9a983" d="M 26.5,114.5 C 27.5,114.5 28.5,114.5 29.5,114.5C 29.7778,116.346 29.1112,117.68 27.5,118.5C 26.5713,117.311 26.238,115.978 26.5,114.5 Z"/></g>
<g><path style="opacity:1" fill="#ae8f76" d="M 71.5,99.5 C 82.0456,108.249 85.7123,119.249 82.5,132.5C 81.7321,131.737 81.2321,130.737 81,129.5C 80.6667,130.833 80.3333,132.167 80,133.5C 79.3292,134.252 78.4959,134.586 77.5,134.5C 79.5401,130.176 79.8734,125.843 78.5,121.5C 78.477,119.073 77.977,116.74 77,114.5C 76.7978,116.256 76.2978,117.922 75.5,119.5C 74.8933,119.376 74.56,119.043 74.5,118.5C 75.7199,116.95 75.7199,115.284 74.5,113.5C 75.0431,113.44 75.3764,113.107 75.5,112.5C 73.5821,108.255 70.9154,104.588 67.5,101.5C 69.3797,101.771 70.713,101.104 71.5,99.5 Z"/></g>
<g><path style="opacity:1" fill="#4f2d22" d="M 56.5,111.5 C 58.3276,113.161 60.3276,114.828 62.5,116.5C 63.1919,119.145 64.1919,121.645 65.5,124C 64.6634,125.011 64.33,126.178 64.5,127.5C 61.8357,135.484 56.5024,138.817 48.5,137.5C 38.9584,134.192 35.9584,127.859 39.5,118.5C 43.6309,113.021 49.2976,110.688 56.5,111.5 Z"/></g>
<g><path style="opacity:1" fill="#b68682" d="M 43.5,128.5 C 42.8826,128.389 42.3826,128.056 42,127.5C 41.0522,120.268 44.2189,115.934 51.5,114.5C 59.4004,115.97 62.5671,120.637 61,128.5C 56.415,135.252 50.7483,136.252 44,131.5C 43.5172,130.552 43.3505,129.552 43.5,128.5 Z"/></g>
<g><path style="opacity:1" fill="#9c3331" d="M 57.5,119.5 C 59.2227,121.78 59.8893,124.447 59.5,127.5C 58.8826,127.389 58.3826,127.056 58,126.5C 55.4807,128.082 53.314,129.415 51.5,130.5C 50.5836,130.457 49.9169,130.124 49.5,129.5C 50.3164,127.856 51.6498,126.69 53.5,126C 52.1667,125 52.1667,124 53.5,123C 51.5795,121.878 49.5795,121.044 47.5,120.5C 49.927,117.986 52.5937,117.986 55.5,120.5C 56.1835,120.137 56.8501,119.804 57.5,119.5 Z"/></g>
<g><path style="opacity:1" fill="#c0b8b2" d="M 18.5,116.5 C 17.1667,121.833 17.1667,127.167 18.5,132.5C 17.027,129.983 16.3603,127.15 16.5,124C 16.2999,121.134 16.9666,118.634 18.5,116.5 Z"/></g>
<g><path style="opacity:1" fill="#d34748" d="M 47.5,120.5 C 49.5795,121.044 51.5795,121.878 53.5,123C 52.1667,124 52.1667,125 53.5,126C 51.6498,126.69 50.3164,127.856 49.5,129.5C 46.6489,128.172 44.9823,125.839 44.5,122.5C 45.7824,122.912 46.7824,122.246 47.5,120.5 Z"/></g>
<g><path style="opacity:1" fill="#b75e5b" d="M 57.5,119.5 C 56.8501,119.804 56.1835,120.137 55.5,120.5C 52.5937,117.986 49.927,117.986 47.5,120.5C 46.7824,122.246 45.7824,122.912 44.5,122.5C 44.9823,125.839 46.6489,128.172 49.5,129.5C 49.9169,130.124 50.5836,130.457 51.5,130.5C 53.314,129.415 55.4807,128.082 58,126.5C 58.3826,127.056 58.8826,127.389 59.5,127.5C 58.6024,129.627 56.9357,130.794 54.5,131C 54.8333,131.333 55.1667,131.667 55.5,132C 53.1667,132.667 50.8333,132.667 48.5,132C 46.9354,130.588 45.2687,129.421 43.5,128.5C 41.8383,121.51 44.5049,117.51 51.5,116.5C 54.1016,116.467 56.1016,117.467 57.5,119.5 Z"/></g>
<g><path style="opacity:1" fill="#744231" d="M 66.5,115.5 C 67.4738,119.959 69.8072,123.459 73.5,126C 71.3083,126.926 69.3083,128.093 67.5,129.5C 66.7321,128.737 66.2321,127.737 66,126.5C 65.6174,127.056 65.1174,127.389 64.5,127.5C 64.33,126.178 64.6634,125.011 65.5,124C 64.1919,121.645 63.1919,119.145 62.5,116.5C 60.3276,114.828 58.3276,113.161 56.5,111.5C 59.2869,110.523 62.2869,110.19 65.5,110.5C 65.2155,112.415 65.5489,114.081 66.5,115.5 Z"/></g>
<g><path style="opacity:1" fill="#7b5438" d="M 37.5,109.5 C 38.7175,110.161 40.0508,110.828 41.5,111.5C 40.5197,112.981 39.353,114.315 38,115.5C 37.3333,117.167 37.3333,118.833 38,120.5C 38.2784,119.584 38.7784,118.918 39.5,118.5C 35.9584,127.859 38.9584,134.192 48.5,137.5C 47.448,137.351 46.448,137.517 45.5,138C 45.8333,138.333 46.1667,138.667 46.5,139C 49.2507,139.943 51.9174,140.776 54.5,141.5C 52.8726,143.464 50.8726,144.797 48.5,145.5C 48.7035,143.61 48.0368,142.11 46.5,141C 43.3334,138.876 40,138.376 36.5,139.5C 35.6747,135.878 35.1747,132.211 35,128.5C 33.0266,127.36 31.1933,126.027 29.5,124.5C 30.9328,122.878 32.5995,121.545 34.5,120.5C 34.7727,116.405 35.7727,112.738 37.5,109.5 Z"/></g>
<g><path style="opacity:1" fill="#b0936f" d="M 67.5,129.5 C 67.0679,130.71 66.4013,131.71 65.5,132.5C 63.6049,135.557 60.9382,137.723 57.5,139C 60.0356,139.186 62.369,139.686 64.5,140.5C 61.0977,140.342 57.7644,140.676 54.5,141.5C 51.9174,140.776 49.2507,139.943 46.5,139C 46.1667,138.667 45.8333,138.333 45.5,138C 46.448,137.517 47.448,137.351 48.5,137.5C 56.5024,138.817 61.8357,135.484 64.5,127.5C 65.1174,127.389 65.6174,127.056 66,126.5C 66.2321,127.737 66.7321,128.737 67.5,129.5 Z"/></g>
<g><path style="opacity:1" fill="#654929" d="M 78.5,121.5 C 79.8734,125.843 79.5401,130.176 77.5,134.5C 74.4739,141.196 69.6405,146.196 63,149.5C 62.5,149.333 62,149.167 61.5,149C 64.2297,147.768 64.063,146.935 61,146.5C 59.1012,146.898 57.6012,147.898 56.5,149.5C 57.3914,150.59 58.3914,150.59 59.5,149.5C 60.6956,149.846 60.6956,150.346 59.5,151C 58.2068,151.49 56.8734,151.657 55.5,151.5C 40.7599,153.139 30.7599,147.139 25.5,133.5C 26.1577,132.602 26.8243,131.602 27.5,130.5C 28.1067,130.624 28.44,130.957 28.5,131.5C 29.4916,131.672 30.1583,131.338 30.5,130.5C 31.4734,130.987 32.4734,131.487 33.5,132C 31.7098,135.583 31.0431,139.416 31.5,143.5C 35.5483,143.605 39.5483,143.272 43.5,142.5C 43.3505,143.552 43.5172,144.552 44,145.5C 50.1074,152.068 54.9408,151.068 58.5,142.5C 68.3064,146.86 71.6397,143.86 68.5,133.5C 70.5668,132.866 72.4002,131.866 74,130.5C 75.1305,128.395 76.2972,126.395 77.5,124.5C 78.404,123.791 78.7373,122.791 78.5,121.5 Z"/></g>
<g><path style="opacity:1" fill="#5e3d18" d="M 65.5,132.5 C 65.2924,134.92 65.6258,137.253 66.5,139.5C 66.0431,140.298 65.3764,140.631 64.5,140.5C 62.369,139.686 60.0356,139.186 57.5,139C 60.9382,137.723 63.6049,135.557 65.5,132.5 Z"/></g>
<g><path style="opacity:1" fill="#c9b48d" d="M 73.5,132.5 C 75.1765,133.183 75.8432,134.517 75.5,136.5C 74.325,136.719 73.325,136.386 72.5,135.5C 73.1272,134.583 73.4606,133.583 73.5,132.5 Z"/></g>
<g><path style="opacity:1" fill="#eac8ab" d="M 28.5,131.5 C 29.5109,133.402 29.6776,135.402 29,137.5C 27.4577,135.435 27.291,133.435 28.5,131.5 Z"/></g>
<g><path style="opacity:1" fill="#563023" d="M 36.5,131.5 C 38.0331,133.355 39.6997,135.188 41.5,137C 39.8659,137.494 38.1992,137.66 36.5,137.5C 36.5,135.5 36.5,133.5 36.5,131.5 Z"/></g>
<g><path style="opacity:1" fill="#c5aa8c" d="M 36.5,146.5 C 37.2739,145.853 38.2739,145.52 39.5,145.5C 42.5589,145.667 43.5589,147.001 42.5,149.5C 40.4734,148.487 38.4734,147.487 36.5,146.5 Z"/></g>
<g><path style="opacity:1" fill="#c9bba7" d="M 82.5,132.5 C 77.1754,148.842 65.8421,156.842 48.5,156.5C 48.9175,155.778 49.5842,155.278 50.5,155C 48.5,155 46.5,155 44.5,155C 49.1667,154.333 53.8333,153.667 58.5,153C 57.2625,152.768 56.2625,152.268 55.5,151.5C 56.8734,151.657 58.2068,151.49 59.5,151C 60.6956,150.346 60.6956,149.846 59.5,149.5C 58.3914,150.59 57.3914,150.59 56.5,149.5C 57.6012,147.898 59.1012,146.898 61,146.5C 64.063,146.935 64.2297,147.768 61.5,149C 62,149.167 62.5,149.333 63,149.5C 69.6405,146.196 74.4739,141.196 77.5,134.5C 78.4959,134.586 79.3292,134.252 80,133.5C 80.3333,132.167 80.6667,130.833 81,129.5C 81.2321,130.737 81.7321,131.737 82.5,132.5 Z"/></g>
</svg>
