<?xml version="1.0" encoding="UTF-8"?>
<!DOCTYPE svg PUBLIC "-//W3C//DTD SVG 1.1//EN" "http://www.w3.org/Graphics/SVG/1.1/DTD/svg11.dtd">
<svg xmlns="http://www.w3.org/2000/svg" version="1.1" width="100px" height="165px" style="shape-rendering:geometricPrecision; text-rendering:geometricPrecision; image-rendering:optimizeQuality; fill-rule:evenodd; clip-rule:evenodd" xmlns:xlink="http://www.w3.org/1999/xlink">
<g><path style="opacity:1" fill="#f9f9f9" d="M -0.5,-0.5 C 22.8333,-0.5 46.1667,-0.5 69.5,-0.5C 68.5707,0.314913 67.5707,1.14825 66.5,2C 68.0412,3.57934 69.2078,5.41267 70,7.5C 72.1117,9.99416 74.6117,10.8275 77.5,10C 76.3909,11.813 77.0576,12.6463 79.5,12.5C 80.1503,16.7668 81.9837,17.7668 85,15.5C 85.1667,16 85.3333,16.5 85.5,17C 83.864,21.3116 83.0307,25.8116 83,30.5C 81.9887,31.3366 80.8221,31.67 79.5,31.5C 79.6567,30.1266 79.49,28.7932 79,27.5C 78.3292,28.2524 77.4959,28.5858 76.5,28.5C 78.8307,24.5467 78.9974,20.5467 77,16.5C 75.4712,19.2588 73.3045,21.2588 70.5,22.5C 71.7491,16.3685 70.0825,11.3685 65.5,7.5C 63.5308,9.05936 61.6975,10.726 60,12.5C 59.5007,17.4889 59.3341,22.4889 59.5,27.5C 59.5,28.1667 59.1667,28.5 58.5,28.5C 51.6442,31.6447 49.8109,36.6447 53,43.5C 55.7821,45.7705 57.9488,48.4372 59.5,51.5C 52.767,54.2991 50.267,59.2991 52,66.5C 52.2233,68.8808 53.39,70.5475 55.5,71.5C 56.2623,73.2624 57.5956,74.2624 59.5,74.5C 59.5,76.1667 59.5,77.8333 59.5,79.5C 52.0985,79.3597 44.7652,78.693 37.5,77.5C 37.5,66.8333 37.5,56.1667 37.5,45.5C 39.1958,45.6854 40.5291,46.5187 41.5,48C 46.4063,49.756 49.0729,48.0893 49.5,43C 47.3865,37.7633 43.3865,35.2633 37.5,35.5C 37.5,34.8333 37.5,34.1667 37.5,33.5C 38.5862,33.38 39.2528,32.7133 39.5,31.5C 38.9537,29.8653 38.6204,28.1986 38.5,26.5C 38.3483,22.7218 37.3483,19.2218 35.5,16C 36.1297,12.2229 36.1297,8.38952 35.5,4.5C 33.5853,4.21552 31.9187,4.54885 30.5,5.5C 28.8663,8.6795 28.5329,12.0128 29.5,15.5C 29.4894,17.0174 28.8228,18.1841 27.5,19C 28.2524,19.6708 28.5858,20.5041 28.5,21.5C 27.8333,21.5 27.5,21.8333 27.5,22.5C 27.2029,26.4273 27.2029,30.4273 27.5,34.5C 27.719,35.675 27.3857,36.675 26.5,37.5C 21.3286,32.7997 17.9953,33.7997 16.5,40.5C 18.0157,46.031 21.6824,48.031 27.5,46.5C 27.5,52.8333 27.5,59.1667 27.5,65.5C 27.5,69.1667 27.5,72.8333 27.5,76.5C 27.5,76.8333 27.5,77.1667 27.5,77.5C 24.6829,78.0951 22.3495,79.4284 20.5,81.5C 15.4803,84.6956 13.6469,89.3623 15,95.5C 17.2943,101.076 21.461,104.41 27.5,105.5C 28.1667,105.5 28.5,105.833 28.5,106.5C 28.5,106.833 28.5,107.167 28.5,107.5C 24.6172,108.718 21.6172,111.051 19.5,114.5C 18.8826,114.611 18.3826,114.944 18,115.5C 17.7132,117.891 17.2132,120.224 16.5,122.5C 17.1882,123.855 18.1882,124.855 19.5,125.5C 22.0674,127.953 24.4007,130.62 26.5,133.5C 21.0255,136.265 19.0255,140.599 20.5,146.5C 22.8676,145.111 25.2009,143.778 27.5,142.5C 27.3347,146.182 27.5014,149.848 28,153.5C 28.8518,154.571 29.6851,155.571 30.5,156.5C 31.1515,157.091 31.8182,157.757 32.5,158.5C 33.8149,156.684 35.3149,155.017 37,153.5C 37.4994,148.177 37.666,142.844 37.5,137.5C 44.296,135.575 46.6294,131.241 44.5,124.5C 42.7541,122.748 40.7541,121.415 38.5,120.5C 38.1667,120.5 37.8333,120.5 37.5,120.5C 37.5,119.167 37.5,117.833 37.5,116.5C 37.5,116.167 37.5,115.833 37.5,115.5C 41.016,113.446 44.1827,110.779 47,107.5C 49.6179,102.054 48.4512,97.554 43.5,94C 41.9751,92.9914 40.3084,92.4914 38.5,92.5C 42.97,91.5139 47.6367,91.1805 52.5,91.5C 52.8333,91.5 53.1667,91.5 53.5,91.5C 55.2646,92.4614 57.2646,92.7947 59.5,92.5C 59.5,93.5 59.5,94.5 59.5,95.5C 60.1335,103.903 59.4668,111.903 57.5,119.5C 57.6716,118.508 57.3382,117.842 56.5,117.5C 54.8333,116.167 53.1667,116.167 51.5,117.5C 47.6333,120.798 47.6333,124.298 51.5,128C 54.3979,128.436 56.7312,129.603 58.5,131.5C 58.325,134.524 57.9916,137.69 57.5,141C 59.3854,143.158 60.3854,145.658 60.5,148.5C 60.7811,152.188 61.2811,155.855 62,159.5C 64.4798,161.09 66.3132,160.59 67.5,158C 67.077,154.936 67.077,151.769 67.5,148.5C 67.5,148.167 67.5,147.833 67.5,147.5C 69.1644,146.051 69.9977,144.051 70,141.5C 70.8099,137.642 70.6433,133.976 69.5,130.5C 69.4088,128.302 70.0755,127.969 71.5,129.5C 73.8151,131.797 76.4818,132.131 79.5,130.5C 77.0724,131.719 74.7391,133.219 72.5,135C 73.7604,136.113 74.927,136.28 76,135.5C 78.2361,137.676 77.7361,139.009 74.5,139.5C 73.6143,140.325 73.281,141.325 73.5,142.5C 72.5,142.5 71.5,142.5 70.5,142.5C 71.1346,145.493 71.3013,148.493 71,151.5C 69.7684,148.77 68.935,148.937 68.5,152C 68.796,153.888 69.296,155.722 70,157.5C 70.6543,156.304 71.1543,156.304 71.5,157.5C 70.5,158.333 69.5,159.167 68.5,160C 69.1667,160.333 69.8333,160.667 70.5,161C 69.2899,162.039 68.2899,163.206 67.5,164.5C 44.8333,164.5 22.1667,164.5 -0.5,164.5C -0.5,109.5 -0.5,54.5 -0.5,-0.5 Z"/></g>
<g><path style="opacity:1" fill="#fbfbfb" d="M 69.5,-0.5 C 79.5,-0.5 89.5,-0.5 99.5,-0.5C 99.5,54.5 99.5,109.5 99.5,164.5C 88.8333,164.5 78.1667,164.5 67.5,164.5C 68.2899,163.206 69.2899,162.039 70.5,161C 69.8333,160.667 69.1667,160.333 68.5,160C 69.5,159.167 70.5,158.333 71.5,157.5C 71.1543,156.304 70.6543,156.304 70,157.5C 69.296,155.722 68.796,153.888 68.5,152C 68.935,148.937 69.7684,148.77 71,151.5C 71.3013,148.493 71.1346,145.493 70.5,142.5C 71.5,142.5 72.5,142.5 73.5,142.5C 73.281,141.325 73.6143,140.325 74.5,139.5C 77.7361,139.009 78.2361,137.676 76,135.5C 74.927,136.28 73.7604,136.113 72.5,135C 74.7391,133.219 77.0724,131.719 79.5,130.5C 81.8499,122.542 78.8499,118.542 70.5,118.5C 70.5,109.5 70.5,100.5 70.5,91.5C 80.2231,86.3714 82.8898,78.7047 78.5,68.5C 76.4807,66.8103 74.4807,65.1436 72.5,63.5C 71.8333,63.1667 71.1667,62.8333 70.5,62.5C 70.5,60.8333 70.5,59.1667 70.5,57.5C 72.4789,54.8544 74.8122,52.5211 77.5,50.5C 78.1272,49.5832 78.4606,48.5832 78.5,47.5C 80.2766,40.7521 77.6099,36.4188 70.5,34.5C 70.5,33.8333 70.5,33.1667 70.5,32.5C 72.7721,31.5589 74.7721,30.2255 76.5,28.5C 77.4959,28.5858 78.3292,28.2524 79,27.5C 79.49,28.7932 79.6567,30.1266 79.5,31.5C 80.8221,31.67 81.9887,31.3366 83,30.5C 83.0307,25.8116 83.864,21.3116 85.5,17C 85.3333,16.5 85.1667,16 85,15.5C 81.9837,17.7668 80.1503,16.7668 79.5,12.5C 77.0576,12.6463 76.3909,11.813 77.5,10C 74.6117,10.8275 72.1117,9.99416 70,7.5C 69.2078,5.41267 68.0412,3.57934 66.5,2C 67.5707,1.14825 68.5707,0.314913 69.5,-0.5 Z"/></g>
<g><path style="opacity:1" fill="#4c7d99" d="M 70.5,22.5 C 69.8333,22.8333 69.1667,23.1667 68.5,23.5C 68.8226,19.774 68.4892,16.1073 67.5,12.5C 66.914,12.2907 66.414,11.9574 66,11.5C 65.501,15.8206 65.3343,20.1539 65.5,24.5C 63.7837,26.0248 61.7837,27.0248 59.5,27.5C 59.3341,22.4889 59.5007,17.4889 60,12.5C 61.6975,10.726 63.5308,9.05936 65.5,7.5C 70.0825,11.3685 71.7491,16.3685 70.5,22.5 Z"/></g>
<g><path style="opacity:1" fill="#c6a482" d="M 30.5,5.5 C 30.5,7.16667 30.5,8.83333 30.5,10.5C 33.9103,10.3838 35.2436,12.0504 34.5,15.5C 33.5,15.5 32.5,15.5 31.5,15.5C 30.8333,15.5 30.1667,15.5 29.5,15.5C 28.5329,12.0128 28.8663,8.6795 30.5,5.5 Z"/></g>
<g><path style="opacity:1" fill="#503326" d="M 29.5,15.5 C 30.1667,15.5 30.8333,15.5 31.5,15.5C 31.634,17.2915 31.3007,18.9582 30.5,20.5C 30.1583,21.3382 29.4916,21.6716 28.5,21.5C 28.5858,20.5041 28.2524,19.6708 27.5,19C 28.8228,18.1841 29.4894,17.0174 29.5,15.5 Z"/></g>
<g><path style="opacity:1" fill="#359ac5" d="M 62.5,12.5 C 63.7647,13.5145 64.4313,15.0145 64.5,17C 64.5893,19.723 63.9226,22.223 62.5,24.5C 61.2354,20.4539 61.2354,16.4539 62.5,12.5 Z"/></g>
<g><path style="opacity:1" fill="#59aad1" d="M 68.5,23.5 C 67.609,24.1098 66.609,24.4431 65.5,24.5C 65.3343,20.1539 65.501,15.8206 66,11.5C 66.414,11.9574 66.914,12.2907 67.5,12.5C 68.4892,16.1073 68.8226,19.774 68.5,23.5 Z"/></g>
<g><path style="opacity:1" fill="#7e5a49" d="M 38.5,26.5 C 37.7321,27.2625 37.2321,28.2625 37,29.5C 36.2496,28.8742 35.4162,28.3742 34.5,28C 37.3526,23.6678 36.0193,21.1678 30.5,20.5C 31.3007,18.9582 31.634,17.2915 31.5,15.5C 32.5,15.5 33.5,15.5 34.5,15.5C 35.2436,12.0504 33.9103,10.3838 30.5,10.5C 30.5,8.83333 30.5,7.16667 30.5,5.5C 31.9187,4.54885 33.5853,4.21552 35.5,4.5C 36.1297,8.38952 36.1297,12.2229 35.5,16C 37.3483,19.2218 38.3483,22.7218 38.5,26.5 Z"/></g>
<g><path style="opacity:1" fill="#434e3c" d="M 70.5,22.5 C 70.5,23.1667 70.5,23.8333 70.5,24.5C 66.7143,25.8926 63.0477,27.5593 59.5,29.5C 58.8333,29.5 58.5,29.1667 58.5,28.5C 59.1667,28.5 59.5,28.1667 59.5,27.5C 61.7837,27.0248 63.7837,26.0248 65.5,24.5C 66.609,24.4431 67.609,24.1098 68.5,23.5C 69.1667,23.1667 69.8333,22.8333 70.5,22.5 Z"/></g>
<g><path style="opacity:1" fill="#5a352e" d="M 27.5,22.5 C 30.7452,24.1131 31.0785,26.4464 28.5,29.5C 29.0253,30.1924 29.6919,30.6924 30.5,31C 29.5868,32.4139 29.5868,33.9139 30.5,35.5C 29.8333,35.5 29.5,35.8333 29.5,36.5C 28.8333,35.8333 28.1667,35.1667 27.5,34.5C 27.2029,30.4273 27.2029,26.4273 27.5,22.5 Z"/></g>
<g><path style="opacity:1" fill="#978d6a" d="M 76.5,28.5 C 74.7721,30.2255 72.7721,31.5589 70.5,32.5C 69.8333,32.5 69.1667,32.5 68.5,32.5C 71.4789,30.1877 74.1456,27.5211 76.5,24.5C 76.1667,23.5 75.5,22.8333 74.5,22.5C 73.1401,23.1799 71.8068,23.8466 70.5,24.5C 70.5,23.8333 70.5,23.1667 70.5,22.5C 73.3045,21.2588 75.4712,19.2588 77,16.5C 78.9974,20.5467 78.8307,24.5467 76.5,28.5 Z"/></g>
<g><path style="opacity:1" fill="#ac7766" d="M 30.5,20.5 C 36.0193,21.1678 37.3526,23.6678 34.5,28C 35.4162,28.3742 36.2496,28.8742 37,29.5C 37.2321,28.2625 37.7321,27.2625 38.5,26.5C 38.6204,28.1986 38.9537,29.8653 39.5,31.5C 39.2528,32.7133 38.5862,33.38 37.5,33.5C 38.3029,32.5768 38.4696,31.5768 38,30.5C 37.2588,31.6405 36.4255,31.6405 35.5,30.5C 35.574,32.3121 35.2407,34.3121 34.5,36.5C 33.8165,36.1373 33.1499,35.8039 32.5,35.5C 31.8333,35.5 31.1667,35.5 30.5,35.5C 29.5868,33.9139 29.5868,32.4139 30.5,31C 29.6919,30.6924 29.0253,30.1924 28.5,29.5C 31.0785,26.4464 30.7452,24.1131 27.5,22.5C 27.5,21.8333 27.8333,21.5 28.5,21.5C 29.4916,21.6716 30.1583,21.3382 30.5,20.5 Z"/></g>
<g><path style="opacity:1" fill="#435052" d="M 68.5,32.5 C 69.1667,32.5 69.8333,32.5 70.5,32.5C 70.5,33.1667 70.5,33.8333 70.5,34.5C 69.5206,37.6248 69.1872,40.9581 69.5,44.5C 68.5994,46.7271 66.9328,47.7271 64.5,47.5C 65.6883,46.6364 66.8549,45.6364 68,44.5C 68.6667,40.8333 68.6667,37.1667 68,33.5C 65.904,35.2658 63.5707,36.5991 61,37.5C 60.5017,40.8168 60.335,44.1501 60.5,47.5C 61.5,47.5 62.5,47.5 63.5,47.5C 63.5,47.8333 63.5,48.1667 63.5,48.5C 62.1667,48.5 60.8333,48.5 59.5,48.5C 59.5,44.5 59.5,40.5 59.5,36.5C 62.1268,34.3993 65.1268,33.0659 68.5,32.5 Z"/></g>
<g><path style="opacity:1" fill="#e7cd74" d="M 68.5,32.5 C 65.1268,33.0659 62.1268,34.3993 59.5,36.5C 58.8826,36.6107 58.3826,36.944 58,37.5C 57.3236,46.4291 55.4902,46.5958 52.5,38C 53.9593,34.3806 56.2927,31.5472 59.5,29.5C 63.0477,27.5593 66.7143,25.8926 70.5,24.5C 71.8068,23.8466 73.1401,23.1799 74.5,22.5C 75.5,22.8333 76.1667,23.5 76.5,24.5C 74.1456,27.5211 71.4789,30.1877 68.5,32.5 Z"/></g>
<g><path style="opacity:1" fill="#513535" d="M 70.5,34.5 C 77.6099,36.4188 80.2766,40.7521 78.5,47.5C 78.7678,45.901 78.4345,44.5676 77.5,43.5C 77.7067,40.8732 76.54,39.2065 74,38.5C 72.124,39.619 71.2907,41.2856 71.5,43.5C 71.1583,44.3382 70.4916,44.6716 69.5,44.5C 69.1872,40.9581 69.5206,37.6248 70.5,34.5 Z"/></g>
<g><path style="opacity:1" fill="#8f7969" d="M 27.5,34.5 C 28.1667,35.1667 28.8333,35.8333 29.5,36.5C 29.7373,37.791 29.404,38.791 28.5,39.5C 25.6687,41.0672 23.3354,40.4006 21.5,37.5C 20.4376,38.4246 20.4376,39.4246 21.5,40.5C 19.1231,42.0302 19.1231,43.5302 21.5,45C 23.8098,45.4966 26.1432,45.6633 28.5,45.5C 28.5,46.1667 28.1667,46.5 27.5,46.5C 21.6824,48.031 18.0157,46.031 16.5,40.5C 17.9953,33.7997 21.3286,32.7997 26.5,37.5C 27.3857,36.675 27.719,35.675 27.5,34.5 Z"/></g>
<g><path style="opacity:1" fill="#6e4834" d="M 37.5,33.5 C 37.5,34.1667 37.5,34.8333 37.5,35.5C 37.5,36.1667 37.5,36.8333 37.5,37.5C 32.678,37.5605 32.3447,38.7272 36.5,41C 35.944,41.3826 35.6107,41.8826 35.5,42.5C 34.5084,42.3284 33.8417,42.6618 33.5,43.5C 33.1667,43.5 32.8333,43.5 32.5,43.5C 31.5028,43.5299 30.8361,43.0299 30.5,42C 31.096,39.7752 31.7626,37.6085 32.5,35.5C 33.1499,35.8039 33.8165,36.1373 34.5,36.5C 35.2407,34.3121 35.574,32.3121 35.5,30.5C 36.4255,31.6405 37.2588,31.6405 38,30.5C 38.4696,31.5768 38.3029,32.5768 37.5,33.5 Z"/></g>
<g><path style="opacity:1" fill="#7f3838" d="M 77.5,43.5 C 75.4513,42.3586 73.4513,42.3586 71.5,43.5C 71.2907,41.2856 72.124,39.619 74,38.5C 76.54,39.2065 77.7067,40.8732 77.5,43.5 Z"/></g>
<g><path style="opacity:1" fill="#b89b7d" d="M 30.5,35.5 C 31.1667,35.5 31.8333,35.5 32.5,35.5C 31.7626,37.6085 31.096,39.7752 30.5,42C 30.8361,43.0299 31.5028,43.5299 32.5,43.5C 31.8166,45.1765 30.4832,45.8432 28.5,45.5C 26.1432,45.6633 23.8098,45.4966 21.5,45C 19.1231,43.5302 19.1231,42.0302 21.5,40.5C 21.5,41.5 21.5,42.5 21.5,43.5C 23.8333,43.5 26.1667,43.5 28.5,43.5C 28.5,42.1667 28.5,40.8333 28.5,39.5C 29.404,38.791 29.7373,37.791 29.5,36.5C 29.5,35.8333 29.8333,35.5 30.5,35.5 Z"/></g>
<g><path style="opacity:1" fill="#a67d55" d="M 37.5,37.5 C 39.9267,37.523 42.26,38.023 44.5,39C 47.1047,40.9308 47.1047,42.7642 44.5,44.5C 41.3596,43.9106 38.3596,43.2439 35.5,42.5C 35.6107,41.8826 35.944,41.3826 36.5,41C 32.3447,38.7272 32.678,37.5605 37.5,37.5 Z"/></g>
<g><path style="opacity:1" fill="#a77753" d="M 28.5,39.5 C 28.5,40.8333 28.5,42.1667 28.5,43.5C 26.1667,43.5 23.8333,43.5 21.5,43.5C 21.5,42.5 21.5,41.5 21.5,40.5C 20.4376,39.4246 20.4376,38.4246 21.5,37.5C 23.3354,40.4006 25.6687,41.0672 28.5,39.5 Z"/></g>
<g><path style="opacity:1" fill="#7e6550" d="M 58.5,28.5 C 58.5,29.1667 58.8333,29.5 59.5,29.5C 56.2927,31.5472 53.9593,34.3806 52.5,38C 55.4902,46.5958 57.3236,46.4291 58,37.5C 58.3826,36.944 58.8826,36.6107 59.5,36.5C 59.5,40.5 59.5,44.5 59.5,48.5C 60.8333,48.5 62.1667,48.5 63.5,48.5C 62.5637,49.9744 61.2303,50.9744 59.5,51.5C 57.9488,48.4372 55.7821,45.7705 53,43.5C 49.8109,36.6447 51.6442,31.6447 58.5,28.5 Z"/></g>
<g><path style="opacity:1" fill="#408bae" d="M 64.5,47.5 C 64.1667,47.5 63.8333,47.5 63.5,47.5C 62.5,47.5 61.5,47.5 60.5,47.5C 60.335,44.1501 60.5017,40.8168 61,37.5C 63.5707,36.5991 65.904,35.2658 68,33.5C 68.6667,37.1667 68.6667,40.8333 68,44.5C 66.8549,45.6364 65.6883,46.6364 64.5,47.5 Z"/></g>
<g><path style="opacity:1" fill="#89766b" d="M 37.5,35.5 C 43.3865,35.2633 47.3865,37.7633 49.5,43C 49.0729,48.0893 46.4063,49.756 41.5,48C 40.5291,46.5187 39.1958,45.6854 37.5,45.5C 36.1667,44.8333 34.8333,44.1667 33.5,43.5C 33.8417,42.6618 34.5084,42.3284 35.5,42.5C 38.3596,43.2439 41.3596,43.9106 44.5,44.5C 47.1047,42.7642 47.1047,40.9308 44.5,39C 42.26,38.023 39.9267,37.523 37.5,37.5C 37.5,36.8333 37.5,36.1667 37.5,35.5 Z"/></g>
<g><path style="opacity:1" fill="#385e6c" d="M 32.5,43.5 C 32.8333,43.5 33.1667,43.5 33.5,43.5C 34.8333,44.1667 36.1667,44.8333 37.5,45.5C 37.5,56.1667 37.5,66.8333 37.5,77.5C 34.1667,77.5 30.8333,77.5 27.5,77.5C 27.5,77.1667 27.5,76.8333 27.5,76.5C 29.5,76.5 31.5,76.5 33.5,76.5C 34.1667,76.5 34.8333,76.5 35.5,76.5C 36.6585,66.3416 36.8252,56.0083 36,45.5C 33.876,46.2272 31.7094,46.8938 29.5,47.5C 28.3316,52.4896 28.3316,57.4896 29.5,62.5C 29.3601,64.0296 28.6935,65.0296 27.5,65.5C 27.5,59.1667 27.5,52.8333 27.5,46.5C 28.1667,46.5 28.5,46.1667 28.5,45.5C 30.4832,45.8432 31.8166,45.1765 32.5,43.5 Z"/></g>
<g><path style="opacity:1" fill="#904950" d="M 77.5,43.5 C 78.4345,44.5676 78.7678,45.901 78.5,47.5C 78.4606,48.5832 78.1272,49.5832 77.5,50.5C 74.8122,52.5211 72.4789,54.8544 70.5,57.5C 68.302,57.1201 66.6354,57.7868 65.5,59.5C 64.6618,59.8417 64.3284,60.5084 64.5,61.5C 62.901,61.2322 61.5676,61.5655 60.5,62.5C 59.3962,65.8104 57.7295,68.8104 55.5,71.5C 53.39,70.5475 52.2233,68.8808 52,66.5C 50.267,59.2991 52.767,54.2991 59.5,51.5C 57.4998,53.671 55.6665,56.0043 54,58.5C 53.1993,61.367 53.3659,64.0336 54.5,66.5C 55.1174,66.6107 55.6174,66.944 56,67.5C 58.4048,60.423 63.2382,56.2563 70.5,55C 72.3734,53.2962 74.0401,51.4628 75.5,49.5C 77.0739,47.8984 77.7406,45.8984 77.5,43.5 Z"/></g>
<g><path style="opacity:1" fill="#387b9e" d="M 35.5,76.5 C 35.8318,66.8104 35.4984,57.1437 34.5,47.5C 33.2853,57.2059 32.952,66.8726 33.5,76.5C 31.5,76.5 29.5,76.5 27.5,76.5C 27.5,72.8333 27.5,69.1667 27.5,65.5C 28.6935,65.0296 29.3601,64.0296 29.5,62.5C 28.3316,57.4896 28.3316,52.4896 29.5,47.5C 31.7094,46.8938 33.876,46.2272 36,45.5C 36.8252,56.0083 36.6585,66.3416 35.5,76.5 Z"/></g>
<g><path style="opacity:1" fill="#ec5257" d="M 75.5,49.5 C 74.0401,51.4628 72.3734,53.2962 70.5,55C 63.2382,56.2563 58.4048,60.423 56,67.5C 55.6174,66.944 55.1174,66.6107 54.5,66.5C 54.8423,56.8195 59.8423,51.1529 69.5,49.5C 72.5013,44.8492 74.5013,44.8492 75.5,49.5 Z"/></g>
<g><path style="opacity:1" fill="#ce6165" d="M 77.5,43.5 C 77.7406,45.8984 77.0739,47.8984 75.5,49.5C 74.5013,44.8492 72.5013,44.8492 69.5,49.5C 59.8423,51.1529 54.8423,56.8195 54.5,66.5C 53.3659,64.0336 53.1993,61.367 54,58.5C 55.6665,56.0043 57.4998,53.671 59.5,51.5C 61.2303,50.9744 62.5637,49.9744 63.5,48.5C 63.5,48.1667 63.5,47.8333 63.5,47.5C 63.8333,47.5 64.1667,47.5 64.5,47.5C 66.9328,47.7271 68.5994,46.7271 69.5,44.5C 70.4916,44.6716 71.1583,44.3382 71.5,43.5C 73.4513,42.3586 75.4513,42.3586 77.5,43.5 Z"/></g>
<g><path style="opacity:1" fill="#437185" d="M 70.5,57.5 C 70.5,59.1667 70.5,60.8333 70.5,62.5C 69.5139,66.97 69.1805,71.6367 69.5,76.5C 66.4843,78.2305 63.151,79.2305 59.5,79.5C 59.5,77.8333 59.5,76.1667 59.5,74.5C 60.4834,70.7016 60.8168,66.7016 60.5,62.5C 61.5676,61.5655 62.901,61.2322 64.5,61.5C 64.1725,66.544 64.5059,71.544 65.5,76.5C 66.1667,76.1667 66.8333,75.8333 67.5,75.5C 68.6632,69.8625 68.8299,64.1959 68,58.5C 67.3292,59.2524 66.4959,59.5858 65.5,59.5C 66.6354,57.7868 68.302,57.1201 70.5,57.5 Z"/></g>
<g><path style="opacity:1" fill="#4cacd2" d="M 35.5,76.5 C 34.8333,76.5 34.1667,76.5 33.5,76.5C 32.952,66.8726 33.2853,57.2059 34.5,47.5C 35.4984,57.1437 35.8318,66.8104 35.5,76.5 Z"/></g>
<g><path style="opacity:1" fill="#393940" d="M 70.5,62.5 C 71.1667,62.8333 71.8333,63.1667 72.5,63.5C 70.652,67.8536 69.9853,72.5203 70.5,77.5C 69.8333,77.5 69.5,77.1667 69.5,76.5C 69.1805,71.6367 69.5139,66.97 70.5,62.5 Z"/></g>
<g><path style="opacity:1" fill="#867457" d="M 72.5,63.5 C 74.4807,65.1436 76.4807,66.8103 78.5,68.5C 82.8898,78.7047 80.2231,86.3714 70.5,91.5C 70.1667,91.5 69.8333,91.5 69.5,91.5C 68.5,91.5 67.5,91.5 66.5,91.5C 76.2814,88.2721 80.1147,81.6054 78,71.5C 76.8139,69.3234 74.9806,68.3234 72.5,68.5C 72.5,69.8333 72.5,71.1667 72.5,72.5C 72.8799,74.698 72.2132,76.3646 70.5,77.5C 69.9853,72.5203 70.652,67.8536 72.5,63.5 Z"/></g>
<g><path style="opacity:1" fill="#573d40" d="M 60.5,62.5 C 60.8168,66.7016 60.4834,70.7016 59.5,74.5C 57.5956,74.2624 56.2623,73.2624 55.5,71.5C 57.7295,68.8104 59.3962,65.8104 60.5,62.5 Z"/></g>
<g><path style="opacity:1" fill="#4ca6cf" d="M 64.5,61.5 C 64.3284,60.5084 64.6618,59.8417 65.5,59.5C 66.4959,59.5858 67.3292,59.2524 68,58.5C 68.8299,64.1959 68.6632,69.8625 67.5,75.5C 66.8333,75.8333 66.1667,76.1667 65.5,76.5C 64.5059,71.544 64.1725,66.544 64.5,61.5 Z"/></g>
<g><path style="opacity:1" fill="#7e7343" d="M 27.5,77.5 C 30.8333,77.5 34.1667,77.5 37.5,77.5C 44.7652,78.693 52.0985,79.3597 59.5,79.5C 59.5,79.8333 59.5,80.1667 59.5,80.5C 48.0014,79.5636 36.6681,79.5636 25.5,80.5C 23.8828,81.038 22.2161,81.3713 20.5,81.5C 22.3495,79.4284 24.6829,78.0951 27.5,77.5 Z"/></g>
<g><path style="opacity:1" fill="#3c4c2e" d="M 69.5,76.5 C 69.5,77.1667 69.8333,77.5 70.5,77.5C 70.3893,78.1174 70.056,78.6174 69.5,79C 66.2072,79.8256 62.8738,80.3256 59.5,80.5C 59.5,80.1667 59.5,79.8333 59.5,79.5C 63.151,79.2305 66.4843,78.2305 69.5,76.5 Z"/></g>
<g><path style="opacity:1" fill="#f4d554" d="M 25.5,80.5 C 40.6237,81.9388 55.957,82.7722 71.5,83C 72.3366,84.0113 72.67,85.1779 72.5,86.5C 71.1917,87.2323 69.8584,88.0656 68.5,89C 54.1432,88.7937 39.8099,88.9604 25.5,89.5C 25.5,91.8333 25.5,94.1667 25.5,96.5C 23.9519,96.8212 23.2852,97.8212 23.5,99.5C 20.656,99.6574 18.9893,98.324 18.5,95.5C 17.3644,88.7755 19.6977,83.7755 25.5,80.5 Z"/></g>
<g><path style="opacity:1" fill="#efd366" d="M 72.5,86.5 C 72.67,85.1779 72.3366,84.0113 71.5,83C 55.957,82.7722 40.6237,81.9388 25.5,80.5C 36.6681,79.5636 48.0014,79.5636 59.5,80.5C 62.8738,80.3256 66.2072,79.8256 69.5,79C 70.056,78.6174 70.3893,78.1174 70.5,77.5C 72.2132,76.3646 72.8799,74.698 72.5,72.5C 75.6635,71.0985 77.3301,72.2651 77.5,76C 77.4428,80.3723 75.7761,83.8723 72.5,86.5 Z"/></g>
<g><path style="opacity:1" fill="#e1c97e" d="M 66.5,91.5 C 62.1667,91.5 57.8333,91.5 53.5,91.5C 53.1667,91.5 52.8333,91.5 52.5,91.5C 45.2108,89.6308 37.8775,89.2975 30.5,90.5C 29.8333,90.5 29.5,90.8333 29.5,91.5C 28.5041,91.4142 27.6708,91.7476 27,92.5C 26.79,94.0581 26.29,95.3915 25.5,96.5C 25.5,94.1667 25.5,91.8333 25.5,89.5C 39.8099,88.9604 54.1432,88.7937 68.5,89C 69.8584,88.0656 71.1917,87.2323 72.5,86.5C 75.7761,83.8723 77.4428,80.3723 77.5,76C 77.3301,72.2651 75.6635,71.0985 72.5,72.5C 72.5,71.1667 72.5,69.8333 72.5,68.5C 74.9806,68.3234 76.8139,69.3234 78,71.5C 80.1147,81.6054 76.2814,88.2721 66.5,91.5 Z"/></g>
<g><path style="opacity:1" fill="#ebd281" d="M 25.5,80.5 C 19.6977,83.7755 17.3644,88.7755 18.5,95.5C 18.1667,95.5 17.8333,95.5 17.5,95.5C 16.3659,93.0336 16.1993,90.367 17,87.5C 18.4213,85.5952 19.588,83.5952 20.5,81.5C 22.2161,81.3713 23.8828,81.038 25.5,80.5 Z"/></g>
<g><path style="opacity:1" fill="#35464d" d="M 30.5,90.5 C 33.5331,90.1315 36.1998,90.7982 38.5,92.5C 39.0906,93.1515 39.7573,93.8182 40.5,94.5C 40.0431,95.2975 39.3764,95.6309 38.5,95.5C 37.6862,97.631 37.1862,99.9644 37,102.5C 36.6174,103.056 36.1174,103.389 35.5,103.5C 36.0894,99.0293 35.4228,95.0293 33.5,91.5C 32.0413,91.4326 30.7079,91.7659 29.5,92.5C 29.5,92.1667 29.5,91.8333 29.5,91.5C 29.5,90.8333 29.8333,90.5 30.5,90.5 Z"/></g>
<g><path style="opacity:1" fill="#7d6d50" d="M 30.5,90.5 C 37.8775,89.2975 45.2108,89.6308 52.5,91.5C 47.6367,91.1805 42.97,91.5139 38.5,92.5C 36.1998,90.7982 33.5331,90.1315 30.5,90.5 Z"/></g>
<g><path style="opacity:1" fill="#333a43" d="M 29.5,92.5 C 29.5,96.8333 29.5,101.167 29.5,105.5C 29.5,106.167 29.1667,106.5 28.5,106.5C 28.5,105.833 28.1667,105.5 27.5,105.5C 27.3893,104.883 27.056,104.383 26.5,104C 27.056,99.9615 28.056,96.1281 29.5,92.5 Z"/></g>
<g><path style="opacity:1" fill="#3e6374" d="M 53.5,91.5 C 57.8333,91.5 62.1667,91.5 66.5,91.5C 67.5,91.5 68.5,91.5 69.5,91.5C 69.8266,100.682 69.4933,109.682 68.5,118.5C 68.5,109.833 68.5,101.167 68.5,92.5C 67.1667,92.5 65.8333,92.5 64.5,92.5C 64.5,93.5 64.5,94.5 64.5,95.5C 62.8333,95.5 61.1667,95.5 59.5,95.5C 59.5,94.5 59.5,93.5 59.5,92.5C 57.2646,92.7947 55.2646,92.4614 53.5,91.5 Z"/></g>
<g><path style="opacity:1" fill="#4ca2c8" d="M 33.5,91.5 C 35.4228,95.0293 36.0894,99.0293 35.5,103.5C 34.5,103.5 33.5,103.5 32.5,103.5C 32.2367,99.3998 32.5701,95.3998 33.5,91.5 Z"/></g>
<g><path style="opacity:1" fill="#846951" d="M 20.5,81.5 C 19.588,83.5952 18.4213,85.5952 17,87.5C 16.1993,90.367 16.3659,93.0336 17.5,95.5C 18.2236,99.8802 20.8903,101.88 25.5,101.5C 25.5,99.8333 25.5,98.1667 25.5,96.5C 26.29,95.3915 26.79,94.0581 27,92.5C 27.6708,91.7476 28.5041,91.4142 29.5,91.5C 29.5,91.8333 29.5,92.1667 29.5,92.5C 28.056,96.1281 27.056,99.9615 26.5,104C 27.056,104.383 27.3893,104.883 27.5,105.5C 21.461,104.41 17.2943,101.076 15,95.5C 13.6469,89.3623 15.4803,84.6956 20.5,81.5 Z"/></g>
<g><path style="opacity:1" fill="#cf9b5e" d="M 17.5,95.5 C 17.8333,95.5 18.1667,95.5 18.5,95.5C 18.9893,98.324 20.656,99.6574 23.5,99.5C 23.2852,97.8212 23.9519,96.8212 25.5,96.5C 25.5,98.1667 25.5,99.8333 25.5,101.5C 20.8903,101.88 18.2236,99.8802 17.5,95.5 Z"/></g>
<g><path style="opacity:1" fill="#8d4f4f" d="M 38.5,92.5 C 40.3084,92.4914 41.9751,92.9914 43.5,94C 48.4512,97.554 49.6179,102.054 47,107.5C 44.1827,110.779 41.016,113.446 37.5,115.5C 33.7273,114.822 30.894,116.156 29,119.5C 28.1165,122.657 26.9498,125.657 25.5,128.5C 26.5471,130.056 27.2137,131.723 27.5,133.5C 27.1667,133.5 26.8333,133.5 26.5,133.5C 24.4007,130.62 22.0674,127.953 19.5,125.5C 18.1667,121.833 18.1667,118.167 19.5,114.5C 21.6172,111.051 24.6172,108.718 28.5,107.5C 28.8333,107.5 29.1667,107.5 29.5,107.5C 29.1667,108.167 28.8333,108.833 28.5,109.5C 18.8652,113.559 17.3652,119.559 24,127.5C 25.2872,122.973 27.4539,118.973 30.5,115.5C 30.6107,114.883 30.944,114.383 31.5,114C 39.5054,113.963 44.5054,110.129 46.5,102.5C 46.2395,100.813 45.5728,99.3129 44.5,98C 43.8333,97.3333 43.1667,97.3333 42.5,98C 41.4209,99.8587 40.0876,101.359 38.5,102.5C 39.6861,100.126 39.6861,97.7922 38.5,95.5C 39.3764,95.6309 40.0431,95.2975 40.5,94.5C 39.7573,93.8182 39.0906,93.1515 38.5,92.5 Z"/></g>
<g><path style="opacity:1" fill="#336a87" d="M 33.5,91.5 C 32.5701,95.3998 32.2367,99.3998 32.5,103.5C 33.5,103.5 34.5,103.5 35.5,103.5C 33.6976,104.458 31.6976,105.125 29.5,105.5C 29.5,101.167 29.5,96.8333 29.5,92.5C 30.7079,91.7659 32.0413,91.4326 33.5,91.5 Z"/></g>
<g><path style="opacity:1" fill="#572e3f" d="M 38.5,95.5 C 39.6861,97.7922 39.6861,100.126 38.5,102.5C 38.0472,103.458 37.3805,104.292 36.5,105C 33.9398,105.384 31.6064,106.217 29.5,107.5C 29.1667,107.5 28.8333,107.5 28.5,107.5C 28.5,107.167 28.5,106.833 28.5,106.5C 29.1667,106.5 29.5,106.167 29.5,105.5C 31.6976,105.125 33.6976,104.458 35.5,103.5C 36.1174,103.389 36.6174,103.056 37,102.5C 37.1862,99.9644 37.6862,97.631 38.5,95.5 Z"/></g>
<g><path style="opacity:1" fill="#76929d" d="M 69.5,91.5 C 69.8333,91.5 70.1667,91.5 70.5,91.5C 70.5,100.5 70.5,109.5 70.5,118.5C 70.5,119.167 70.5,119.833 70.5,120.5C 70.1667,120.5 69.8333,120.5 69.5,120.5C 68.791,119.596 67.791,119.263 66.5,119.5C 66.8417,118.662 67.5084,118.328 68.5,118.5C 69.4933,109.682 69.8266,100.682 69.5,91.5 Z"/></g>
<g><path style="opacity:1" fill="#e75156" d="M 30.5,115.5 C 27.2812,116.713 24.6146,118.713 22.5,121.5C 21.359,119.579 21.1923,117.579 22,115.5C 24.3631,113.634 26.5298,111.634 28.5,109.5C 28.8333,108.833 29.1667,108.167 29.5,107.5C 31.6064,106.217 33.9398,105.384 36.5,105C 37.3805,104.292 38.0472,103.458 38.5,102.5C 40.0876,101.359 41.4209,99.8587 42.5,98C 43.1667,97.3333 43.8333,97.3333 44.5,98C 45.5728,99.3129 46.2395,100.813 46.5,102.5C 44.5054,110.129 39.5054,113.963 31.5,114C 30.944,114.383 30.6107,114.883 30.5,115.5 Z"/></g>
<g><path style="opacity:1" fill="#47a2c5" d="M 68.5,118.5 C 67.5084,118.328 66.8417,118.662 66.5,119.5C 65.8333,119.5 65.1667,119.5 64.5,119.5C 64.5,111.5 64.5,103.5 64.5,95.5C 64.5,94.5 64.5,93.5 64.5,92.5C 65.8333,92.5 67.1667,92.5 68.5,92.5C 68.5,101.167 68.5,109.833 68.5,118.5 Z"/></g>
<g><path style="opacity:1" fill="#db5f66" d="M 28.5,109.5 C 26.5298,111.634 24.3631,113.634 22,115.5C 21.1923,117.579 21.359,119.579 22.5,121.5C 24.6146,118.713 27.2812,116.713 30.5,115.5C 27.4539,118.973 25.2872,122.973 24,127.5C 17.3652,119.559 18.8652,113.559 28.5,109.5 Z"/></g>
<g><path style="opacity:1" fill="#407b95" d="M 59.5,95.5 C 61.1667,95.5 62.8333,95.5 64.5,95.5C 64.5,103.5 64.5,111.5 64.5,119.5C 62.5,119.833 60.5,120.167 58.5,120.5C 57.8333,120.5 57.5,120.167 57.5,119.5C 59.4668,111.903 60.1335,103.903 59.5,95.5 Z"/></g>
<g><path style="opacity:1" fill="#ccc0b3" d="M 51.5,117.5 C 53.1667,116.167 54.8333,116.167 56.5,117.5C 53.4017,117.413 53.0684,117.913 55.5,119C 53.0103,119.495 51.5103,120.995 51,123.5C 50.1751,121.299 50.6751,119.466 52.5,118C 52.2716,117.601 51.9382,117.435 51.5,117.5 Z"/></g>
<g><path style="opacity:1" fill="#30383f" d="M 64.5,119.5 C 65.1667,119.5 65.8333,119.5 66.5,119.5C 67.791,119.263 68.791,119.596 69.5,120.5C 65.8648,121.114 62.1981,121.448 58.5,121.5C 58.5,121.167 58.5,120.833 58.5,120.5C 60.5,120.167 62.5,119.833 64.5,119.5 Z"/></g>
<g><path style="opacity:1" fill="#cdaeb8" d="M 19.5,114.5 C 18.1667,118.167 18.1667,121.833 19.5,125.5C 18.1882,124.855 17.1882,123.855 16.5,122.5C 17.2132,120.224 17.7132,117.891 18,115.5C 18.3826,114.944 18.8826,114.611 19.5,114.5 Z"/></g>
<g><path style="opacity:1" fill="#957562" d="M 75.5,121.5 C 76.2389,121.369 76.9056,121.536 77.5,122C 76.8971,123.825 76.2304,125.659 75.5,127.5C 73.3426,125.217 72.0093,125.884 71.5,129.5C 70.0755,127.969 69.4088,128.302 69.5,130.5C 68.2089,129.458 68.2089,128.292 69.5,127C 68.1667,126.667 66.8333,126.333 65.5,126C 66.1712,125.014 66.1712,123.847 65.5,122.5C 68.7861,121.793 72.1194,121.46 75.5,121.5 Z"/></g>
<g><path style="opacity:1" fill="#878072" d="M 70.5,118.5 C 78.8499,118.542 81.8499,122.542 79.5,130.5C 76.4818,132.131 73.8151,131.797 71.5,129.5C 72.0093,125.884 73.3426,125.217 75.5,127.5C 76.2304,125.659 76.8971,123.825 77.5,122C 76.9056,121.536 76.2389,121.369 75.5,121.5C 74.0813,120.549 72.4147,120.216 70.5,120.5C 70.5,119.833 70.5,119.167 70.5,118.5 Z"/></g>
<g><path style="opacity:1" fill="#3f7f9e" d="M 37.5,116.5 C 37.5,117.833 37.5,119.167 37.5,120.5C 36.7337,122.684 36.0671,125.018 35.5,127.5C 33.6675,128.248 32.0009,129.248 30.5,130.5C 27.3426,122.734 29.676,118.068 37.5,116.5 Z"/></g>
<g><path style="opacity:1" fill="#b49779" d="M 69.5,120.5 C 69.8333,120.5 70.1667,120.5 70.5,120.5C 72.4147,120.216 74.0813,120.549 75.5,121.5C 72.1194,121.46 68.7861,121.793 65.5,122.5C 63.5767,122.795 61.9101,123.628 60.5,125C 62.935,125.075 63.6016,125.908 62.5,127.5C 61.5,127.5 60.5,127.5 59.5,127.5C 57.8333,127.5 56.1667,127.5 54.5,127.5C 54.5,126.167 54.5,124.833 54.5,123.5C 56.1993,123.473 57.5326,122.806 58.5,121.5C 62.1981,121.448 65.8648,121.114 69.5,120.5 Z"/></g>
<g><path style="opacity:1" fill="#847262" d="M 51.5,117.5 C 51.9382,117.435 52.2716,117.601 52.5,118C 50.6751,119.466 50.1751,121.299 51,123.5C 51.5103,120.995 53.0103,119.495 55.5,119C 53.0684,117.913 53.4017,117.413 56.5,117.5C 57.3382,117.842 57.6716,118.508 57.5,119.5C 57.5,120.167 57.8333,120.5 58.5,120.5C 58.5,120.833 58.5,121.167 58.5,121.5C 57.5326,122.806 56.1993,123.473 54.5,123.5C 54.5,124.833 54.5,126.167 54.5,127.5C 56.1667,127.5 57.8333,127.5 59.5,127.5C 59.7678,129.099 59.4345,130.432 58.5,131.5C 56.7312,129.603 54.3979,128.436 51.5,128C 47.6333,124.298 47.6333,120.798 51.5,117.5 Z"/></g>
<g><path style="opacity:1" fill="#404747" d="M 37.5,115.5 C 37.5,115.833 37.5,116.167 37.5,116.5C 29.676,118.068 27.3426,122.734 30.5,130.5C 32.0009,129.248 33.6675,128.248 35.5,127.5C 36.0671,125.018 36.7337,122.684 37.5,120.5C 37.8333,120.5 38.1667,120.5 38.5,120.5C 37.8505,122.435 37.5172,124.435 37.5,126.5C 36.4563,128.843 34.7897,130.51 32.5,131.5C 31.8333,131.5 31.5,131.833 31.5,132.5C 30.0413,132.433 28.7079,132.766 27.5,133.5C 27.2137,131.723 26.5471,130.056 25.5,128.5C 26.9498,125.657 28.1165,122.657 29,119.5C 30.894,116.156 33.7273,114.822 37.5,115.5 Z"/></g>
<g><path style="opacity:1" fill="#918861" d="M 38.5,120.5 C 40.7541,121.415 42.7541,122.748 44.5,124.5C 46.6294,131.241 44.296,135.575 37.5,137.5C 36.8333,137.5 36.1667,137.5 35.5,137.5C 38.3442,136.121 40.8442,134.121 43,131.5C 44.6514,126.841 43.1514,124.174 38.5,123.5C 38.7373,124.791 38.404,125.791 37.5,126.5C 37.5172,124.435 37.8505,122.435 38.5,120.5 Z"/></g>
<g><path style="opacity:1" fill="#f0df5f" d="M 31.5,132.5 C 31.5,131.833 31.8333,131.5 32.5,131.5C 35.5497,132.077 37.5497,130.91 38.5,128C 39.448,127.517 40.448,127.351 41.5,127.5C 41.4506,130.099 40.4506,132.266 38.5,134C 35.6096,135.029 32.7763,136.195 30,137.5C 29.5,137.167 29,136.833 28.5,136.5C 30.2882,135.717 31.2882,134.384 31.5,132.5 Z"/></g>
<g><path style="opacity:1" fill="#704f44" d="M 65.5,122.5 C 66.1712,123.847 66.1712,125.014 65.5,126C 66.8333,126.333 68.1667,126.667 69.5,127C 68.2089,128.292 68.2089,129.458 69.5,130.5C 70.6433,133.976 70.8099,137.642 70,141.5C 69.9977,144.051 69.1644,146.051 67.5,147.5C 67.5,146.833 67.1667,146.5 66.5,146.5C 67.4398,140.502 67.7731,134.669 67.5,129C 66.255,128.209 64.9217,127.709 63.5,127.5C 63.1667,127.5 62.8333,127.5 62.5,127.5C 63.6016,125.908 62.935,125.075 60.5,125C 61.9101,123.628 63.5767,122.795 65.5,122.5 Z"/></g>
<g><path style="opacity:1" fill="#e6d880" d="M 35.5,137.5 C 30.865,138.718 26.5316,140.718 22.5,143.5C 21.4173,142.635 21.2506,141.635 22,140.5C 23.7209,137.961 25.5542,135.628 27.5,133.5C 28.7079,132.766 30.0413,132.433 31.5,132.5C 31.2882,134.384 30.2882,135.717 28.5,136.5C 29,136.833 29.5,137.167 30,137.5C 32.7763,136.195 35.6096,135.029 38.5,134C 40.4506,132.266 41.4506,130.099 41.5,127.5C 40.448,127.351 39.448,127.517 38.5,128C 37.5497,130.91 35.5497,132.077 32.5,131.5C 34.7897,130.51 36.4563,128.843 37.5,126.5C 38.404,125.791 38.7373,124.791 38.5,123.5C 43.1514,124.174 44.6514,126.841 43,131.5C 40.8442,134.121 38.3442,136.121 35.5,137.5 Z"/></g>
<g><path style="opacity:1" fill="#643736" d="M 59.5,127.5 C 60.5,127.5 61.5,127.5 62.5,127.5C 62.8333,127.5 63.1667,127.5 63.5,127.5C 60.4351,132.215 60.1018,137.049 62.5,142C 62.0137,144.027 62.0137,146.193 62.5,148.5C 64.1993,148.473 65.5326,147.806 66.5,146.5C 67.1667,146.5 67.5,146.833 67.5,147.5C 67.5,147.833 67.5,148.167 67.5,148.5C 64.8627,150.458 62.5294,150.458 60.5,148.5C 60.3854,145.658 59.3854,143.158 57.5,141C 57.9916,137.69 58.325,134.524 58.5,131.5C 59.4345,130.432 59.7678,129.099 59.5,127.5 Z"/></g>
<g><path style="opacity:1" fill="#828165" d="M 26.5,133.5 C 26.8333,133.5 27.1667,133.5 27.5,133.5C 25.5542,135.628 23.7209,137.961 22,140.5C 21.2506,141.635 21.4173,142.635 22.5,143.5C 26.5316,140.718 30.865,138.718 35.5,137.5C 33.751,139.256 31.751,140.589 29.5,141.5C 28.5084,141.328 27.8417,141.662 27.5,142.5C 25.2009,143.778 22.8676,145.111 20.5,146.5C 19.0255,140.599 21.0255,136.265 26.5,133.5 Z"/></g>
<g><path style="opacity:1" fill="#974643" d="M 63.5,127.5 C 64.9217,127.709 66.255,128.209 67.5,129C 67.7731,134.669 67.4398,140.502 66.5,146.5C 65.5326,147.806 64.1993,148.473 62.5,148.5C 62.0137,146.193 62.0137,144.027 62.5,142C 60.1018,137.049 60.4351,132.215 63.5,127.5 Z"/></g>
<g><path style="opacity:1" fill="#43b6cb" d="M 35.5,150.5 C 33.7773,148.22 33.1107,145.553 33.5,142.5C 33.4614,141.244 33.9614,140.244 35,139.5C 35.4986,143.152 35.6653,146.818 35.5,150.5 Z"/></g>
<g><path style="opacity:1" fill="#3e7586" d="M 35.5,137.5 C 36.1667,137.5 36.8333,137.5 37.5,137.5C 37.666,142.844 37.4994,148.177 37,153.5C 35.3149,155.017 33.8149,156.684 32.5,158.5C 31.8182,157.757 31.1515,157.091 30.5,156.5C 31.4737,154.915 32.9737,153.915 35,153.5C 35.4828,152.552 35.6495,151.552 35.5,150.5C 35.6653,146.818 35.4986,143.152 35,139.5C 33.9614,140.244 33.4614,141.244 33.5,142.5C 32.2921,141.766 30.9587,141.433 29.5,141.5C 31.751,140.589 33.751,139.256 35.5,137.5 Z"/></g>
<g><path style="opacity:1" fill="#3d92bf" d="M 29.5,141.5 C 30.9587,141.433 32.2921,141.766 33.5,142.5C 33.1107,145.553 33.7773,148.22 35.5,150.5C 35.6495,151.552 35.4828,152.552 35,153.5C 32.9737,153.915 31.4737,154.915 30.5,156.5C 29.6851,155.571 28.8518,154.571 28,153.5C 27.5014,149.848 27.3347,146.182 27.5,142.5C 27.8417,141.662 28.5084,141.328 29.5,141.5 Z"/></g>
<g><path style="opacity:1" fill="#6b5c57" d="M 60.5,148.5 C 62.5294,150.458 64.8627,150.458 67.5,148.5C 67.077,151.769 67.077,154.936 67.5,158C 66.3132,160.59 64.4798,161.09 62,159.5C 61.2811,155.855 60.7811,152.188 60.5,148.5 Z"/></g>
</svg>
