<?xml version="1.0" encoding="UTF-8"?>
<!DOCTYPE svg PUBLIC "-//W3C//DTD SVG 1.1//EN" "http://www.w3.org/Graphics/SVG/1.1/DTD/svg11.dtd">
<svg xmlns="http://www.w3.org/2000/svg" version="1.1" width="100px" height="165px" style="shape-rendering:geometricPrecision; text-rendering:geometricPrecision; image-rendering:optimizeQuality; fill-rule:evenodd; clip-rule:evenodd" xmlns:xlink="http://www.w3.org/1999/xlink">
<g><path style="opacity:1" fill="#c87959" d="M 17.5,31.5 C 16.5,31.5 15.5,31.5 14.5,31.5C 14.595,33.7857 15.2616,35.7857 16.5,37.5C 17.4467,41.4763 18.9467,45.1429 21,48.5C 21.3333,48.1667 21.6667,47.8333 22,47.5C 23.5908,51.019 25.4241,54.3523 27.5,57.5C 27.9954,59.4817 28.4954,61.4817 29,63.5C 29.3173,61.6992 29.984,61.3659 31,62.5C 31.4922,63.549 31.3256,64.549 30.5,65.5C 32.1933,68.1841 33.86,70.8508 35.5,73.5C 34.5084,73.3284 33.8417,73.6618 33.5,74.5C 31.4458,74.6347 29.7791,73.968 28.5,72.5C 26.0609,64.7089 22.7275,57.3756 18.5,50.5C 12.5086,39.5527 10.5086,27.8861 12.5,15.5C 13.4508,12.9548 14.4508,12.9548 15.5,15.5C 14.9739,20.8998 15.6406,26.2331 17.5,31.5 Z"/></g>
<g><path style="opacity:1" fill="#725f3f" d="M 37.5,44.5 C 39.3006,52.4142 40.8006,60.4142 42,68.5C 42.2784,69.4158 42.7784,70.0825 43.5,70.5C 43.5,71.1667 43.8333,71.5 44.5,71.5C 44.5,72.1667 44.1667,72.5 43.5,72.5C 40.341,73.3307 37.341,74.3307 34.5,75.5C 34.1667,75.5 33.8333,75.5 33.5,75.5C 33.5,75.1667 33.5,74.8333 33.5,74.5C 33.8417,73.6618 34.5084,73.3284 35.5,73.5C 36.4916,73.6716 37.1583,73.3382 37.5,72.5C 38.5,72.5 39.5,72.5 40.5,72.5C 40.2368,67.2301 39.2368,62.2301 37.5,57.5C 34.9348,43.2393 31.4348,29.2393 27,15.5C 26.0513,13.9069 24.8846,12.5736 23.5,11.5C 17.8746,7.87946 14.2079,9.21279 12.5,15.5C 11.2502,15.5774 10.4169,16.244 10,17.5C 9.50115,21.4862 9.33449,25.4862 9.5,29.5C 7.86338,23.4271 8.36338,17.4271 11,11.5C 14.396,7.79725 18.5626,6.63058 23.5,8C 26.5435,10.5933 28.7101,13.76 30,17.5C 31.4372,26.885 33.9372,35.885 37.5,44.5 Z"/></g>
<g><path style="opacity:1" fill="#a53433" d="M 86.5,28.5 C 84.6668,36.1153 82.3335,42.7819 79.5,48.5C 77.9907,49.8595 77.324,49.3595 77.5,47C 77.9434,45.175 78.2767,43.3417 78.5,41.5C 81.0215,35.0291 82.6882,28.3625 83.5,21.5C 84.5,21.5 85.5,21.5 86.5,21.5C 86.5,23.8333 86.5,26.1667 86.5,28.5 Z"/></g>
<g><path style="opacity:1" fill="#25a3d5" d="M 62.5,34.5 C 60.6478,45.7983 58.9812,57.1316 57.5,68.5C 56.8333,68.5 56.5,68.8333 56.5,69.5C 52.6286,69.815 48.9619,69.4816 45.5,68.5C 43.5489,54.7237 41.8822,40.8903 40.5,27C 41.1459,23.1875 41.6459,19.3542 42,15.5C 45.2596,9.35363 50.0929,7.85363 56.5,11C 58.9686,13.4411 60.802,16.2744 62,19.5C 62.4993,24.4889 62.6659,29.4889 62.5,34.5 Z"/></g>
<g><path style="opacity:1" fill="#2e586d" d="M 64.5,25.5 C 63.8333,28.5 63.1667,31.5 62.5,34.5C 62.6659,29.4889 62.4993,24.4889 62,19.5C 60.802,16.2744 58.9686,13.4411 56.5,11C 50.0929,7.85363 45.2596,9.35363 42,15.5C 41.6459,19.3542 41.1459,23.1875 40.5,27C 41.8822,40.8903 43.5489,54.7237 45.5,68.5C 44.8333,68.1667 44.1667,67.8333 43.5,67.5C 42.4635,59.3503 41.1301,51.3503 39.5,43.5C 38.7503,34.8407 38.5836,26.1741 39,17.5C 42.6806,7.71707 49.1806,5.21707 58.5,10C 63.4238,14.0172 65.4238,19.1839 64.5,25.5 Z"/></g>
<g><path style="opacity:1" fill="#ec4e54" d="M 85.5,13.5 C 86.391,14.1098 87.391,14.4431 88.5,14.5C 89.2341,15.7079 89.5674,17.0413 89.5,18.5C 89.6646,21.5184 89.498,24.5184 89,27.5C 88.3292,28.2524 87.4959,28.5858 86.5,28.5C 86.5,26.1667 86.5,23.8333 86.5,21.5C 85.5,21.5 84.5,21.5 83.5,21.5C 82.6882,28.3625 81.0215,35.0291 78.5,41.5C 76.8906,44.1489 76.0572,47.1489 76,50.5C 75.586,50.9574 75.086,51.2907 74.5,51.5C 73.5713,50.3112 73.238,48.9778 73.5,47.5C 72.5,47.5 71.5,47.5 70.5,47.5C 70.5,45.1667 70.5,42.8333 70.5,40.5C 70.8333,38.5 71.1667,36.5 71.5,34.5C 73.2244,28.3336 74.7244,22.0003 76,15.5C 76.8624,17.087 77.5291,18.7536 78,20.5C 78.5,19.3333 79.3333,18.5 80.5,18C 79.6634,16.9887 79.33,15.8221 79.5,14.5C 81.5,14.1667 83.5,13.8333 85.5,13.5 Z"/></g>
<g><path style="opacity:1" fill="#654342" d="M 87.5,9.5 C 86.1667,9.5 84.8333,9.5 83.5,9.5C 79.6625,9.91286 76.6625,11.5795 74.5,14.5C 74.5,14.8333 74.5,15.1667 74.5,15.5C 72.3219,19.4813 70.8219,23.8147 70,28.5C 67.7116,42.8934 64.8782,57.2267 61.5,71.5C 60.1667,71.5 58.8333,71.5 57.5,71.5C 57.1667,70.8333 56.8333,70.1667 56.5,69.5C 56.5,68.8333 56.8333,68.5 57.5,68.5C 57.8333,68.5 58.1667,68.5 58.5,68.5C 63.2463,60.802 65.5797,51.802 65.5,41.5C 66.8467,31.4924 69.3467,21.8257 73,12.5C 77.2965,7.76664 82.1299,6.76664 87.5,9.5 Z"/></g>
<g><path style="opacity:1" fill="#fafafa" d="M 94.5,-0.5 C 96.1667,-0.5 97.8333,-0.5 99.5,-0.5C 99.5,54.5 99.5,109.5 99.5,164.5C 82.8333,164.5 66.1667,164.5 49.5,164.5C 50.6085,163.71 51.9419,163.21 53.5,163C 51.4936,162.917 50.4936,162.417 50.5,161.5C 52.2624,160.738 53.2624,159.404 53.5,157.5C 54.871,155.064 55.871,152.397 56.5,149.5C 56.5,143.833 56.5,138.167 56.5,132.5C 57.4614,130.735 57.7947,128.735 57.5,126.5C 62.3475,133.528 66.6808,140.861 70.5,148.5C 70.9321,149.71 71.5987,150.71 72.5,151.5C 75.0579,158.272 80.0579,160.938 87.5,159.5C 88.1239,159.083 88.4573,158.416 88.5,157.5C 86.567,155.205 86.2337,152.705 87.5,150C 86.3406,146.549 85.8406,143.049 86,139.5C 86.3333,140.167 86.6667,140.833 87,141.5C 89.8318,139.149 91.6651,136.149 92.5,132.5C 92.1484,130.315 91.1484,128.481 89.5,127C 89.5497,124.721 89.8831,122.388 90.5,120C 90.0368,117.415 88.8701,115.248 87,113.5C 86.6667,114.167 86.3333,114.833 86,115.5C 84.2111,113.771 82.0444,113.104 79.5,113.5C 73.0022,110.889 66.3355,108.889 59.5,107.5C 58.6618,107.158 58.3284,106.492 58.5,105.5C 60.8333,105.5 63.1667,105.5 65.5,105.5C 66.0242,101.572 65.0242,98.239 62.5,95.5C 62.5,94.8333 62.8333,94.5 63.5,94.5C 70.5618,93.8853 76.7285,91.2187 82,86.5C 82.6667,83.8333 82.6667,81.1667 82,78.5C 81.6174,77.944 81.1174,77.6107 80.5,77.5C 78.2872,76.2271 75.9538,75.2271 73.5,74.5C 77.3087,67.5542 81.1421,60.5542 85,53.5C 86.2781,49.3021 87.7781,45.3021 89.5,41.5C 90.5,41.5 91.5,41.5 92.5,41.5C 92.3505,40.448 92.5172,39.448 93,38.5C 94.8378,43.4968 96.0045,42.9968 96.5,37C 94.1127,34.6857 93.1127,31.8524 93.5,28.5C 95.729,21.7903 96.0623,15.2903 94.5,9C 95.8749,6.68465 96.8749,4.18465 97.5,1.5C 96.2192,1.98393 95.2192,1.31726 94.5,-0.5 Z"/></g>
<g><path style="opacity:1" fill="#eab154" d="M 19.5,29.5 C 19.5,30.5 19.5,31.5 19.5,32.5C 20.5,32.5 21.5,32.5 22.5,32.5C 22.584,35.6817 23.9173,38.015 26.5,39.5C 26.811,40.4778 27.4777,41.1445 28.5,41.5C 29.2916,40.3002 29.2916,38.9669 28.5,37.5C 29.1515,36.9094 29.8182,36.2427 30.5,35.5C 31.7681,37.3043 32.4348,39.3043 32.5,41.5C 31.776,43.2184 31.1094,45.0517 30.5,47C 31.8491,47.7724 32.6824,48.9391 33,50.5C 33.4988,54.4862 33.6655,58.4862 33.5,62.5C 32.8337,58.9792 32.1671,55.3125 31.5,51.5C 31.642,53.8901 31.142,56.2235 30,58.5C 29.1153,55.0477 28.282,51.7144 27.5,48.5C 26.9522,46.4677 25.6188,45.4677 23.5,45.5C 23.5,44.5 23.5,43.5 23.5,42.5C 22.448,42.6495 21.448,42.4828 20.5,42C 19.7171,39.8816 18.3838,38.3816 16.5,37.5C 15.2616,35.7857 14.595,33.7857 14.5,31.5C 15.5,31.5 16.5,31.5 17.5,31.5C 18.1667,30.8333 18.8333,30.1667 19.5,29.5 Z"/></g>
<g><path style="opacity:1" fill="#d75a5d" d="M 89.5,18.5 C 90.647,22.6463 90.8136,26.9796 90,31.5C 88.1302,37.8204 86.1302,44.1537 84,50.5C 79.6978,57.2368 75.8645,64.2368 72.5,71.5C 71.675,72.3857 70.675,72.719 69.5,72.5C 68.1667,72.5 67.5,71.8333 67.5,70.5C 69.0418,69.6993 70.7085,69.366 72.5,69.5C 74.969,62.6576 77.3024,55.6576 79.5,48.5C 82.3335,42.7819 84.6668,36.1153 86.5,28.5C 87.4959,28.5858 88.3292,28.2524 89,27.5C 89.498,24.5184 89.6646,21.5184 89.5,18.5 Z"/></g>
<g><path style="opacity:1" fill="#f7f7f7" d="M 3.5,-0.5 C 33.8333,-0.5 64.1667,-0.5 94.5,-0.5C 95.2192,1.31726 96.2192,1.98393 97.5,1.5C 96.8749,4.18465 95.8749,6.68465 94.5,9C 96.0623,15.2903 95.729,21.7903 93.5,28.5C 93.1127,31.8524 94.1127,34.6857 96.5,37C 96.0045,42.9968 94.8378,43.4968 93,38.5C 92.5172,39.448 92.3505,40.448 92.5,41.5C 91.5,41.5 90.5,41.5 89.5,41.5C 90.4155,35.667 91.4155,29.8336 92.5,24C 92.3788,18.4385 90.7122,13.6052 87.5,9.5C 82.1299,6.76664 77.2965,7.76664 73,12.5C 69.3467,21.8257 66.8467,31.4924 65.5,41.5C 64.5386,39.7354 64.2053,37.7354 64.5,35.5C 64.5,32.1667 64.5,28.8333 64.5,25.5C 65.4238,19.1839 63.4238,14.0172 58.5,10C 49.1806,5.21707 42.6806,7.71707 39,17.5C 38.5836,26.1741 38.7503,34.8407 39.5,43.5C 39.6332,46.925 38.9665,47.2583 37.5,44.5C 33.9372,35.885 31.4372,26.885 30,17.5C 28.7101,13.76 26.5435,10.5933 23.5,8C 18.5626,6.63058 14.396,7.79725 11,11.5C 8.36338,17.4271 7.86338,23.4271 9.5,29.5C 11.2338,41.5079 15.2338,52.5079 21.5,62.5C 22.5828,66.4567 24.5828,69.79 27.5,72.5C 27.5,73.1667 27.5,73.8333 27.5,74.5C 25.7392,75.3127 24.0725,76.3127 22.5,77.5C 20.2985,87.0008 24.2985,92.0008 34.5,92.5C 37.4676,93.4675 39.4676,95.4675 40.5,98.5C 36.4862,98.3345 32.4862,98.5012 28.5,99C 27.5842,99.2784 26.9175,99.7784 26.5,100.5C 24.597,100.796 22.9303,101.463 21.5,102.5C 19.8639,103.749 18.6972,105.416 18,107.5C 16.8054,111.751 16.3054,116.085 16.5,120.5C 16.4223,123.487 17.589,124.153 20,122.5C 21.3943,123.613 22.561,124.947 23.5,126.5C 24.48,123.914 24.8134,121.247 24.5,118.5C 24.7618,115.252 24.7618,112.252 24.5,109.5C 24.8333,108.5 25.5,107.833 26.5,107.5C 29.221,107.037 31.8877,106.371 34.5,105.5C 36.8333,105.5 39.1667,105.5 41.5,105.5C 42.2389,105.369 42.9056,105.536 43.5,106C 42.4178,107.33 41.7512,108.83 41.5,110.5C 39.7549,112.033 38.7549,114.033 38.5,116.5C 34.1742,125.126 29.8409,133.793 25.5,142.5C 24.8826,142.611 24.3826,142.944 24,143.5C 22.0546,148.91 20.8879,154.243 20.5,159.5C 22.9738,158.68 25.3071,157.68 27.5,156.5C 28.5,156.167 29.1667,155.5 29.5,154.5C 31.9755,151.215 33.6421,147.548 34.5,143.5C 37.8,138.523 41.1334,133.523 44.5,128.5C 44.5,128.167 44.5,127.833 44.5,127.5C 44.8333,127.5 45.1667,127.5 45.5,127.5C 45.3336,135.507 45.5003,143.507 46,151.5C 47.7862,154.736 49.2862,158.07 50.5,161.5C 50.4936,162.417 51.4936,162.917 53.5,163C 51.9419,163.21 50.6085,163.71 49.5,164.5C 34.1667,164.5 18.8333,164.5 3.5,164.5C 3.37286,160.051 4.37286,155.884 6.5,152C 3.71229,145.899 3.04562,139.899 4.5,134C 2.26878,128.915 2.26878,123.748 4.5,118.5C 3.69409,112.279 3.36076,106.112 3.5,100C 4.74346,98.1303 5.41013,95.9637 5.5,93.5C 3.03921,62.1971 2.37254,30.8637 3.5,-0.5 Z"/></g>
<g><path style="opacity:1" fill="#b3832d" d="M 28.5,37.5 C 29.2916,38.9669 29.2916,40.3002 28.5,41.5C 27.4777,41.1445 26.811,40.4778 26.5,39.5C 25.0396,34.6222 24.0396,29.6222 23.5,24.5C 23.3505,23.448 23.5172,22.448 24,21.5C 25.191,26.9756 26.691,32.3089 28.5,37.5 Z"/></g>
<g><path style="opacity:1" fill="#f1c963" d="M 23.5,11.5 C 23.1117,15.8884 23.1117,20.2218 23.5,24.5C 24.0396,29.6222 25.0396,34.6222 26.5,39.5C 23.9173,38.015 22.584,35.6817 22.5,32.5C 21.5,32.5 20.5,32.5 19.5,32.5C 19.5,31.5 19.5,30.5 19.5,29.5C 19.5,28.8333 19.5,28.1667 19.5,27.5C 19.8399,24.8559 19.1733,22.5225 17.5,20.5C 18.304,19.0589 18.9706,17.5589 19.5,16C 18.5705,14.9231 17.9038,13.7564 17.5,12.5C 19.2646,11.5386 21.2646,11.2053 23.5,11.5 Z"/></g>
<g><path style="opacity:1" fill="#e1a650" d="M 17.5,12.5 C 17.9038,13.7564 18.5705,14.9231 19.5,16C 18.9706,17.5589 18.304,19.0589 17.5,20.5C 19.1733,22.5225 19.8399,24.8559 19.5,27.5C 17.3891,26.2305 16.3891,24.2305 16.5,21.5C 17.3451,18.3293 17.6785,15.3293 17.5,12.5 Z"/></g>
<g><path style="opacity:1" fill="#db9d65" d="M 23.5,11.5 C 21.2646,11.2053 19.2646,11.5386 17.5,12.5C 17.6785,15.3293 17.3451,18.3293 16.5,21.5C 16.3891,24.2305 17.3891,26.2305 19.5,27.5C 19.5,28.1667 19.5,28.8333 19.5,29.5C 18.8333,30.1667 18.1667,30.8333 17.5,31.5C 15.6406,26.2331 14.9739,20.8998 15.5,15.5C 14.4508,12.9548 13.4508,12.9548 12.5,15.5C 14.2079,9.21279 17.8746,7.87946 23.5,11.5 Z"/></g>
<g><path style="opacity:1" fill="#bf424a" d="M 85.5,13.5 C 83.5,13.8333 81.5,14.1667 79.5,14.5C 79.33,15.8221 79.6634,16.9887 80.5,18C 79.3333,18.5 78.5,19.3333 78,20.5C 77.5291,18.7536 76.8624,17.087 76,15.5C 74.7244,22.0003 73.2244,28.3336 71.5,34.5C 72.0946,28.0678 73.0946,21.7345 74.5,15.5C 74.5,15.1667 74.5,14.8333 74.5,14.5C 77.0903,13.7476 79.5903,12.7476 82,11.5C 83.6991,11.3866 84.8658,12.0532 85.5,13.5 Z"/></g>
<g><path style="opacity:1" fill="#a35155" d="M 83.5,9.5 C 84.6412,10.339 85.9745,11.0057 87.5,11.5C 88.3857,12.325 88.719,13.325 88.5,14.5C 87.391,14.4431 86.391,14.1098 85.5,13.5C 84.8658,12.0532 83.6991,11.3866 82,11.5C 79.5903,12.7476 77.0903,13.7476 74.5,14.5C 76.6625,11.5795 79.6625,9.91286 83.5,9.5 Z"/></g>
<g><path style="opacity:1" fill="#197ca5" d="M 53.5,17.5 C 54.1174,17.6107 54.6174,17.944 55,18.5C 55.6667,27.8333 55.6667,37.1667 55,46.5C 54.586,46.9574 54.086,47.2907 53.5,47.5C 52.9868,37.5293 52.9868,27.5293 53.5,17.5 Z"/></g>
<g><path style="opacity:1" fill="#e78f50" d="M 16.5,37.5 C 18.3838,38.3816 19.7171,39.8816 20.5,42C 21.448,42.4828 22.448,42.6495 23.5,42.5C 23.5,43.5 23.5,44.5 23.5,45.5C 25.6188,45.4677 26.9522,46.4677 27.5,48.5C 26.3224,51.4773 26.3224,54.4773 27.5,57.5C 25.4241,54.3523 23.5908,51.019 22,47.5C 21.6667,47.8333 21.3333,48.1667 21,48.5C 18.9467,45.1429 17.4467,41.4763 16.5,37.5 Z"/></g>
<g><path style="opacity:1" fill="#efcb63" d="M 32.5,41.5 C 33.7101,46.0838 34.7101,50.7505 35.5,55.5C 35.7472,56.7133 36.4138,57.38 37.5,57.5C 37.8426,62.0411 37.8426,66.3744 37.5,70.5C 36.7375,69.7321 35.7375,69.2321 34.5,69C 35.5796,66.7009 35.2463,64.5342 33.5,62.5C 33.6655,58.4862 33.4988,54.4862 33,50.5C 32.6824,48.9391 31.8491,47.7724 30.5,47C 31.1094,45.0517 31.776,43.2184 32.5,41.5 Z"/></g>
<g><path style="opacity:1" fill="#6f433b" d="M 12.5,15.5 C 10.5086,27.8861 12.5086,39.5527 18.5,50.5C 19.5,54.5 20.5,58.5 21.5,62.5C 15.2338,52.5079 11.2338,41.5079 9.5,29.5C 9.33449,25.4862 9.50115,21.4862 10,17.5C 10.4169,16.244 11.2502,15.5774 12.5,15.5 Z"/></g>
<g><path style="opacity:1" fill="#e4c575" d="M 23.5,11.5 C 24.8846,12.5736 26.0513,13.9069 27,15.5C 31.4348,29.2393 34.9348,43.2393 37.5,57.5C 36.4138,57.38 35.7472,56.7133 35.5,55.5C 34.7101,50.7505 33.7101,46.0838 32.5,41.5C 32.4348,39.3043 31.7681,37.3043 30.5,35.5C 29.8182,36.2427 29.1515,36.9094 28.5,37.5C 26.691,32.3089 25.191,26.9756 24,21.5C 23.5172,22.448 23.3505,23.448 23.5,24.5C 23.1117,20.2218 23.1117,15.8884 23.5,11.5 Z"/></g>
<g><path style="opacity:1" fill="#c8ccc5" d="M 39.5,43.5 C 41.1301,51.3503 42.4635,59.3503 43.5,67.5C 43.5,68.5 43.5,69.5 43.5,70.5C 42.7784,70.0825 42.2784,69.4158 42,68.5C 40.8006,60.4142 39.3006,52.4142 37.5,44.5C 38.9665,47.2583 39.6332,46.925 39.5,43.5 Z"/></g>
<g><path style="opacity:1" fill="#18394f" d="M 64.5,25.5 C 64.5,28.8333 64.5,32.1667 64.5,35.5C 62.7848,46.4209 60.7848,57.4209 58.5,68.5C 58.1667,68.5 57.8333,68.5 57.5,68.5C 58.9812,57.1316 60.6478,45.7983 62.5,34.5C 63.1667,31.5 63.8333,28.5 64.5,25.5 Z"/></g>
<g><path style="opacity:1" fill="#9b4542" d="M 74.5,15.5 C 73.0946,21.7345 72.0946,28.0678 71.5,34.5C 71.1667,36.5 70.8333,38.5 70.5,40.5C 69.7784,40.9175 69.2784,41.5842 69,42.5C 68.0351,48.1496 67.2018,53.8162 66.5,59.5C 65.3521,61.6272 64.3521,63.7939 63.5,66C 64.8333,67 64.8333,68 63.5,69C 65.0581,69.21 66.3915,69.71 67.5,70.5C 67.5,71.8333 68.1667,72.5 69.5,72.5C 69.5,72.8333 69.5,73.1667 69.5,73.5C 66.4467,73.8893 63.78,73.2227 61.5,71.5C 64.8782,57.2267 67.7116,42.8934 70,28.5C 70.8219,23.8147 72.3219,19.4813 74.5,15.5 Z"/></g>
<g><path style="opacity:1" fill="#93564b" d="M 18.5,50.5 C 22.7275,57.3756 26.0609,64.7089 28.5,72.5C 28.1667,72.5 27.8333,72.5 27.5,72.5C 24.5828,69.79 22.5828,66.4567 21.5,62.5C 20.5,58.5 19.5,54.5 18.5,50.5 Z"/></g>
<g><path style="opacity:1" fill="#d79b55" d="M 27.5,48.5 C 28.282,51.7144 29.1153,55.0477 30,58.5C 31.142,56.2235 31.642,53.8901 31.5,51.5C 32.1671,55.3125 32.8337,58.9792 33.5,62.5C 35.2463,64.5342 35.5796,66.7009 34.5,69C 35.7375,69.2321 36.7375,69.7321 37.5,70.5C 36.4937,71.3957 36.4937,72.0623 37.5,72.5C 37.1583,73.3382 36.4916,73.6716 35.5,73.5C 33.86,70.8508 32.1933,68.1841 30.5,65.5C 31.3256,64.549 31.4922,63.549 31,62.5C 29.984,61.3659 29.3173,61.6992 29,63.5C 28.4954,61.4817 27.9954,59.4817 27.5,57.5C 26.3224,54.4773 26.3224,51.4773 27.5,48.5 Z"/></g>
<g><path style="opacity:1" fill="#cbc8cf" d="M 64.5,35.5 C 64.2053,37.7354 64.5386,39.7354 65.5,41.5C 65.5797,51.802 63.2463,60.802 58.5,68.5C 60.7848,57.4209 62.7848,46.4209 64.5,35.5 Z"/></g>
<g><path style="opacity:1" fill="#d54b4c" d="M 70.5,40.5 C 70.5,42.8333 70.5,45.1667 70.5,47.5C 71.5,47.5 72.5,47.5 73.5,47.5C 73.238,48.9778 73.5713,50.3112 74.5,51.5C 75.086,51.2907 75.586,50.9574 76,50.5C 76.0572,47.1489 76.8906,44.1489 78.5,41.5C 78.2767,43.3417 77.9434,45.175 77.5,47C 77.324,49.3595 77.9907,49.8595 79.5,48.5C 77.3024,55.6576 74.969,62.6576 72.5,69.5C 70.7085,69.366 69.0418,69.6993 67.5,70.5C 66.3915,69.71 65.0581,69.21 63.5,69C 64.8333,68 64.8333,67 63.5,66C 64.3521,63.7939 65.3521,61.6272 66.5,59.5C 67.2018,53.8162 68.0351,48.1496 69,42.5C 69.2784,41.5842 69.7784,40.9175 70.5,40.5 Z"/></g>
<g><path style="opacity:1" fill="#e3c47d" d="M 37.5,57.5 C 39.2368,62.2301 40.2368,67.2301 40.5,72.5C 39.5,72.5 38.5,72.5 37.5,72.5C 36.4937,72.0623 36.4937,71.3957 37.5,70.5C 37.8426,66.3744 37.8426,62.0411 37.5,57.5 Z"/></g>
<g><path style="opacity:1" fill="#edf5eb" d="M -0.5,-0.5 C 0.833333,-0.5 2.16667,-0.5 3.5,-0.5C 2.37254,30.8637 3.03921,62.1971 5.5,93.5C 5.41013,95.9637 4.74346,98.1303 3.5,100C 3.36076,106.112 3.69409,112.279 4.5,118.5C 2.26878,123.748 2.26878,128.915 4.5,134C 3.04562,139.899 3.71229,145.899 6.5,152C 4.37286,155.884 3.37286,160.051 3.5,164.5C 2.16667,164.5 0.833333,164.5 -0.5,164.5C -0.5,109.5 -0.5,54.5 -0.5,-0.5 Z"/></g>
<g><path style="opacity:1" fill="#436259" d="M 43.5,67.5 C 44.1667,67.8333 44.8333,68.1667 45.5,68.5C 48.9619,69.4816 52.6286,69.815 56.5,69.5C 56.8333,70.1667 57.1667,70.8333 57.5,71.5C 56.1667,71.5 54.8333,71.5 53.5,71.5C 50.5,71.5 47.5,71.5 44.5,71.5C 43.8333,71.5 43.5,71.1667 43.5,70.5C 43.5,69.5 43.5,68.5 43.5,67.5 Z"/></g>
<g><path style="opacity:1" fill="#723c35" d="M 83.5,9.5 C 84.8333,9.5 86.1667,9.5 87.5,9.5C 90.7122,13.6052 92.3788,18.4385 92.5,24C 91.4155,29.8336 90.4155,35.667 89.5,41.5C 87.7781,45.3021 86.2781,49.3021 85,53.5C 81.1421,60.5542 77.3087,67.5542 73.5,74.5C 73.1667,74.5 72.8333,74.5 72.5,74.5C 71.8333,74.5 71.1667,74.5 70.5,74.5C 69.8333,74.5 69.5,74.1667 69.5,73.5C 69.5,73.1667 69.5,72.8333 69.5,72.5C 70.675,72.719 71.675,72.3857 72.5,71.5C 75.8645,64.2368 79.6978,57.2368 84,50.5C 86.1302,44.1537 88.1302,37.8204 90,31.5C 90.8136,26.9796 90.647,22.6463 89.5,18.5C 89.5674,17.0413 89.2341,15.7079 88.5,14.5C 88.719,13.325 88.3857,12.325 87.5,11.5C 85.9745,11.0057 84.6412,10.339 83.5,9.5 Z"/></g>
<g><path style="opacity:1" fill="#e6c46a" d="M 53.5,71.5 C 54.8333,71.5 56.1667,71.5 57.5,71.5C 58.8333,71.5 60.1667,71.5 61.5,71.5C 63.78,73.2227 66.4467,73.8893 69.5,73.5C 69.5,74.1667 69.8333,74.5 70.5,74.5C 69.0582,75.8195 68.3915,77.4862 68.5,79.5C 66.8333,79.5 65.1667,79.5 63.5,79.5C 61.7857,78.2616 59.7857,77.595 57.5,77.5C 57.1667,77.5 56.8333,77.5 56.5,77.5C 56.5,76.8333 56.1667,76.5 55.5,76.5C 53.9581,75.8365 52.2914,75.1698 50.5,74.5C 51.3398,73.265 52.3398,72.265 53.5,71.5 Z"/></g>
<g><path style="opacity:1" fill="#362627" d="M 27.5,72.5 C 27.8333,72.5 28.1667,72.5 28.5,72.5C 29.7791,73.968 31.4458,74.6347 33.5,74.5C 33.5,74.8333 33.5,75.1667 33.5,75.5C 32.5,75.5 31.5,75.5 30.5,75.5C 29.391,75.4431 28.391,75.1098 27.5,74.5C 27.5,73.8333 27.5,73.1667 27.5,72.5 Z"/></g>
<g><path style="opacity:1" fill="#e6c575" d="M 43.5,72.5 C 45.6618,74.1689 45.9952,76.1689 44.5,78.5C 41.9455,79.388 39.2788,79.7214 36.5,79.5C 35.3263,78.4863 34.6596,77.153 34.5,75.5C 37.341,74.3307 40.341,73.3307 43.5,72.5 Z"/></g>
<g><path style="opacity:1" fill="#e9e1ae" d="M 44.5,71.5 C 47.5,71.5 50.5,71.5 53.5,71.5C 52.3398,72.265 51.3398,73.265 50.5,74.5C 52.2914,75.1698 53.9581,75.8365 55.5,76.5C 52.0314,76.5465 48.698,77.2132 45.5,78.5C 45.1667,78.5 44.8333,78.5 44.5,78.5C 45.9952,76.1689 45.6618,74.1689 43.5,72.5C 44.1667,72.5 44.5,72.1667 44.5,71.5 Z"/></g>
<g><path style="opacity:1" fill="#365551" d="M 27.5,74.5 C 28.391,75.1098 29.391,75.4431 30.5,75.5C 29.713,77.1042 28.3797,77.7709 26.5,77.5C 26.5,78.8333 26.5,80.1667 26.5,81.5C 25.1667,81.5 23.8333,81.5 22.5,81.5C 22.5,80.1667 22.5,78.8333 22.5,77.5C 24.0725,76.3127 25.7392,75.3127 27.5,74.5 Z"/></g>
<g><path style="opacity:1" fill="#51a4b9" d="M 30.5,75.5 C 31.5,75.5 32.5,75.5 33.5,75.5C 33.8333,75.5 34.1667,75.5 34.5,75.5C 34.6596,77.153 35.3263,78.4863 36.5,79.5C 36.5,79.8333 36.5,80.1667 36.5,80.5C 36.1667,80.5 35.8333,80.5 35.5,80.5C 32.8478,80.4095 30.5145,81.0762 28.5,82.5C 27.5084,82.6716 26.8417,82.3382 26.5,81.5C 26.5,80.1667 26.5,78.8333 26.5,77.5C 28.3797,77.7709 29.713,77.1042 30.5,75.5 Z"/></g>
<g><path style="opacity:1" fill="#804526" d="M 44.5,78.5 C 44.8333,78.5 45.1667,78.5 45.5,78.5C 45.1667,79.1667 44.8333,79.8333 44.5,80.5C 41.9039,81.2653 39.2372,81.5987 36.5,81.5C 36.5,81.1667 36.5,80.8333 36.5,80.5C 36.5,80.1667 36.5,79.8333 36.5,79.5C 39.2788,79.7214 41.9455,79.388 44.5,78.5 Z"/></g>
<g><path style="opacity:1" fill="#442735" d="M 55.5,77.5 C 55.8333,77.5 56.1667,77.5 56.5,77.5C 56.8333,77.5 57.1667,77.5 57.5,77.5C 57.5,78.1667 57.5,78.8333 57.5,79.5C 56.7241,83.0525 55.3908,86.3858 53.5,89.5C 52.8333,89.8333 52.1667,90.1667 51.5,90.5C 51.5,90.1667 51.5,89.8333 51.5,89.5C 53.9532,85.9383 55.2866,81.9383 55.5,77.5 Z"/></g>
<g><path style="opacity:1" fill="#5897a6" d="M 70.5,74.5 C 71.1667,74.5 71.8333,74.5 72.5,74.5C 74.5116,75.5236 76.1783,77.0236 77.5,79C 76.9288,80.2051 76.2621,81.3717 75.5,82.5C 74.3132,81.3473 73.3132,81.3473 72.5,82.5C 71.5,82.5 70.5,82.5 69.5,82.5C 69.9175,81.7784 70.5842,81.2784 71.5,81C 70.2625,80.7679 69.2625,80.2679 68.5,79.5C 68.3915,77.4862 69.0582,75.8195 70.5,74.5 Z"/></g>
<g><path style="opacity:1" fill="#3d4b48" d="M 72.5,74.5 C 72.8333,74.5 73.1667,74.5 73.5,74.5C 75.9538,75.2271 78.2872,76.2271 80.5,77.5C 81.2653,80.0961 81.5987,82.7628 81.5,85.5C 79.7085,85.634 78.0418,85.3007 76.5,84.5C 76.1667,84.5 75.8333,84.5 75.5,84.5C 74.7095,83.5987 73.7095,82.9321 72.5,82.5C 73.3132,81.3473 74.3132,81.3473 75.5,82.5C 76.2621,81.3717 76.9288,80.2051 77.5,79C 76.1783,77.0236 74.5116,75.5236 72.5,74.5 Z"/></g>
<g><path style="opacity:1" fill="#4a6f7b" d="M 35.5,80.5 C 34.0582,81.8195 33.3915,83.4862 33.5,85.5C 31.5887,84.925 29.922,83.925 28.5,82.5C 30.5145,81.0762 32.8478,80.4095 35.5,80.5 Z"/></g>
<g><path style="opacity:1" fill="#38a4ca" d="M 52.5,78.5 C 53.6225,80.2884 53.7891,82.2884 53,84.5C 51.2859,85.9255 49.9525,85.5922 49,83.5C 48.51,82.2068 48.3433,80.8734 48.5,79.5C 49.5676,78.5655 50.901,78.2322 52.5,78.5 Z"/></g>
<g><path style="opacity:1" fill="#684034" d="M 63.5,79.5 C 65.1667,79.5 66.8333,79.5 68.5,79.5C 69.2625,80.2679 70.2625,80.7679 71.5,81C 70.5842,81.2784 69.9175,81.7784 69.5,82.5C 68.8333,82.8333 68.1667,83.1667 67.5,83.5C 66.596,82.791 66.2627,81.791 66.5,80.5C 65.209,80.7373 64.209,80.404 63.5,79.5 Z"/></g>
<g><path style="opacity:1" fill="#676e5c" d="M 22.5,77.5 C 22.5,78.8333 22.5,80.1667 22.5,81.5C 23.8333,81.5 25.1667,81.5 26.5,81.5C 26.8417,82.3382 27.5084,82.6716 28.5,82.5C 29.922,83.925 31.5887,84.925 33.5,85.5C 34.4682,87.6074 34.8016,89.9407 34.5,92.5C 24.2985,92.0008 20.2985,87.0008 22.5,77.5 Z"/></g>
<g><path style="opacity:1" fill="#3d4a45" d="M 55.5,76.5 C 56.1667,76.5 56.5,76.8333 56.5,77.5C 56.1667,77.5 55.8333,77.5 55.5,77.5C 54.209,77.2627 53.209,77.596 52.5,78.5C 50.901,78.2322 49.5676,78.5655 48.5,79.5C 47.0993,83.409 48.0993,86.7423 51.5,89.5C 51.5,89.8333 51.5,90.1667 51.5,90.5C 50.6618,90.8417 50.3284,91.5084 50.5,92.5C 49.1667,90.1667 47.8333,87.8333 46.5,85.5C 46.2041,83.597 45.5375,81.9303 44.5,80.5C 44.8333,79.8333 45.1667,79.1667 45.5,78.5C 48.698,77.2132 52.0314,76.5465 55.5,76.5 Z"/></g>
<g><path style="opacity:1" fill="#c96060" d="M 57.5,79.5 C 58.8333,79.5 60.1667,79.5 61.5,79.5C 61.5,80.5 61.5,81.5 61.5,82.5C 56.5289,86.236 54.3622,91.236 55,97.5C 56.0113,98.3366 57.1779,98.67 58.5,98.5C 58.5,98.8333 58.5,99.1667 58.5,99.5C 58.1436,101.19 57.1436,102.19 55.5,102.5C 53.3619,98.3106 52.6952,93.9772 53.5,89.5C 55.3908,86.3858 56.7241,83.0525 57.5,79.5 Z"/></g>
<g><path style="opacity:1" fill="#d45c3d" d="M 43.5,88.5 C 43.631,89.2389 43.4643,89.9056 43,90.5C 42.2917,89.6195 41.4584,88.9528 40.5,88.5C 38.9192,86.8583 38.2525,84.8583 38.5,82.5C 42.314,82.6509 43.9807,84.6509 43.5,88.5 Z"/></g>
<g><path style="opacity:1" fill="#55859b" d="M 52.5,78.5 C 53.209,77.596 54.209,77.2627 55.5,77.5C 55.2866,81.9383 53.9532,85.9383 51.5,89.5C 48.0993,86.7423 47.0993,83.409 48.5,79.5C 48.3433,80.8734 48.51,82.2068 49,83.5C 49.9525,85.5922 51.2859,85.9255 53,84.5C 53.7891,82.2884 53.6225,80.2884 52.5,78.5 Z"/></g>
<g><path style="opacity:1" fill="#ae9d74" d="M 69.5,82.5 C 70.5,82.5 71.5,82.5 72.5,82.5C 73.7095,82.9321 74.7095,83.5987 75.5,84.5C 72.2814,84.7759 69.6148,86.1093 67.5,88.5C 67.5,86.8333 67.5,85.1667 67.5,83.5C 68.1667,83.1667 68.8333,82.8333 69.5,82.5 Z"/></g>
<g><path style="opacity:1" fill="#adc382" d="M 26.5,84.5 C 27.8221,84.33 28.9887,84.6634 30,85.5C 29.8516,86.825 30.0183,87.9916 30.5,89C 26.7506,89.4252 25.4173,87.9252 26.5,84.5 Z"/></g>
<g><path style="opacity:1" fill="#e2c97f" d="M 75.5,84.5 C 75.8333,84.5 76.1667,84.5 76.5,84.5C 75.377,90.0649 72.0436,92.0649 66.5,90.5C 66.8627,89.8165 67.1961,89.1499 67.5,88.5C 69.6148,86.1093 72.2814,84.7759 75.5,84.5 Z"/></g>
<g><path style="opacity:1" fill="#e4504f" d="M 58.5,98.5 C 57.1779,98.67 56.0113,98.3366 55,97.5C 54.3622,91.236 56.5289,86.236 61.5,82.5C 62.7079,81.7659 64.0413,81.4326 65.5,81.5C 64.141,87.5794 61.8076,93.2461 58.5,98.5 Z"/></g>
<g><path style="opacity:1" fill="#974137" d="M 57.5,77.5 C 59.7857,77.595 61.7857,78.2616 63.5,79.5C 64.209,80.404 65.209,80.7373 66.5,80.5C 66.2627,81.791 66.596,82.791 67.5,83.5C 67.5,85.1667 67.5,86.8333 67.5,88.5C 64.9142,89.4866 63.5809,91.4866 63.5,94.5C 62.8333,94.5 62.5,94.8333 62.5,95.5C 61.5116,96.795 60.5116,98.1283 59.5,99.5C 59.1667,99.5 58.8333,99.5 58.5,99.5C 58.5,99.1667 58.5,98.8333 58.5,98.5C 61.8076,93.2461 64.141,87.5794 65.5,81.5C 64.0413,81.4326 62.7079,81.7659 61.5,82.5C 61.5,81.5 61.5,80.5 61.5,79.5C 60.1667,79.5 58.8333,79.5 57.5,79.5C 57.5,78.8333 57.5,78.1667 57.5,77.5 Z"/></g>
<g><path style="opacity:1" fill="#ada086" d="M 80.5,77.5 C 81.1174,77.6107 81.6174,77.944 82,78.5C 82.6667,81.1667 82.6667,83.8333 82,86.5C 76.7285,91.2187 70.5618,93.8853 63.5,94.5C 63.5809,91.4866 64.9142,89.4866 67.5,88.5C 67.1961,89.1499 66.8627,89.8165 66.5,90.5C 72.0436,92.0649 75.377,90.0649 76.5,84.5C 78.0418,85.3007 79.7085,85.634 81.5,85.5C 81.5987,82.7628 81.2653,80.0961 80.5,77.5 Z"/></g>
<g><path style="opacity:1" fill="#ba6f60" d="M 44.5,80.5 C 45.5375,81.9303 46.2041,83.597 46.5,85.5C 45.8333,86.5 45.1667,87.5 44.5,88.5C 44.1667,88.5 43.8333,88.5 43.5,88.5C 43.9807,84.6509 42.314,82.6509 38.5,82.5C 38.2525,84.8583 38.9192,86.8583 40.5,88.5C 41.1667,90.8333 41.8333,93.1667 42.5,95.5C 37.9341,91.7692 35.9341,87.1026 36.5,81.5C 39.2372,81.5987 41.9039,81.2653 44.5,80.5 Z"/></g>
<g><path style="opacity:1" fill="#d58856" d="M 40.5,88.5 C 41.4584,88.9528 42.2917,89.6195 43,90.5C 43.4643,89.9056 43.631,89.2389 43.5,88.5C 43.8333,88.5 44.1667,88.5 44.5,88.5C 45.171,92.9387 46.3376,97.272 48,101.5C 48.6979,102.691 49.5313,103.691 50.5,104.5C 49.0222,104.762 47.6888,104.429 46.5,103.5C 44.6982,101.042 43.3649,98.3751 42.5,95.5C 41.8333,93.1667 41.1667,90.8333 40.5,88.5 Z"/></g>
<g><path style="opacity:1" fill="#e4bb70" d="M 46.5,85.5 C 47.8333,87.8333 49.1667,90.1667 50.5,92.5C 51.7202,96.4035 53.3868,100.07 55.5,103.5C 55.2089,104.649 54.3756,105.316 53,105.5C 51.9302,105.472 51.0968,105.139 50.5,104.5C 49.5313,103.691 48.6979,102.691 48,101.5C 46.3376,97.272 45.171,92.9387 44.5,88.5C 45.1667,87.5 45.8333,86.5 46.5,85.5 Z"/></g>
<g><path style="opacity:1" fill="#794125" d="M 53.5,89.5 C 52.6952,93.9772 53.3619,98.3106 55.5,102.5C 55.5,102.833 55.5,103.167 55.5,103.5C 53.3868,100.07 51.7202,96.4035 50.5,92.5C 50.3284,91.5084 50.6618,90.8417 51.5,90.5C 52.1667,90.1667 52.8333,89.8333 53.5,89.5 Z"/></g>
<g><path style="opacity:1" fill="#31a9c8" d="M 37.5,103.5 C 35.4727,103.662 33.4727,103.495 31.5,103C 30.944,102.617 30.6107,102.117 30.5,101.5C 33.3035,100.362 36.3035,100.195 39.5,101C 38.6195,101.708 37.9528,102.542 37.5,103.5 Z"/></g>
<g><path style="opacity:1" fill="#427787" d="M 40.5,98.5 C 44.4807,101.249 44.1474,103.082 39.5,104C 40.4158,104.278 41.0825,104.778 41.5,105.5C 39.1667,105.5 36.8333,105.5 34.5,105.5C 35.5,104.833 36.5,104.167 37.5,103.5C 37.9528,102.542 38.6195,101.708 39.5,101C 36.3035,100.195 33.3035,100.362 30.5,101.5C 29.0413,101.567 27.7079,101.234 26.5,100.5C 26.9175,99.7784 27.5842,99.2784 28.5,99C 32.4862,98.5012 36.4862,98.3345 40.5,98.5 Z"/></g>
<g><path style="opacity:1" fill="#44575c" d="M 62.5,95.5 C 65.0242,98.239 66.0242,101.572 65.5,105.5C 63.1667,105.5 60.8333,105.5 58.5,105.5C 58.5,105.167 58.5,104.833 58.5,104.5C 59.5,104.5 60.5,104.5 61.5,104.5C 61.8432,102.517 61.1765,101.183 59.5,100.5C 59.5,100.167 59.5,99.8333 59.5,99.5C 60.5116,98.1283 61.5116,96.795 62.5,95.5 Z"/></g>
<g><path style="opacity:1" fill="#77a4a8" d="M 59.5,100.5 C 61.1765,101.183 61.8432,102.517 61.5,104.5C 60.5,104.5 59.5,104.5 58.5,104.5C 58.8333,103.167 59.1667,101.833 59.5,100.5 Z"/></g>
<g><path style="opacity:1" fill="#4d8878" d="M 26.5,100.5 C 27.7079,101.234 29.0413,101.567 30.5,101.5C 30.6107,102.117 30.944,102.617 31.5,103C 33.4727,103.495 35.4727,103.662 37.5,103.5C 36.5,104.167 35.5,104.833 34.5,105.5C 31.8877,106.371 29.221,107.037 26.5,107.5C 25.6776,104.619 24.0109,103.619 21.5,104.5C 21.5,103.833 21.5,103.167 21.5,102.5C 22.9303,101.463 24.597,100.796 26.5,100.5 Z"/></g>
<g><path style="opacity:1" fill="#523130" d="M 35.5,80.5 C 35.8333,80.5 36.1667,80.5 36.5,80.5C 36.5,80.8333 36.5,81.1667 36.5,81.5C 35.9341,87.1026 37.9341,91.7692 42.5,95.5C 43.3649,98.3751 44.6982,101.042 46.5,103.5C 47.6888,104.429 49.0222,104.762 50.5,104.5C 51.0968,105.139 51.9302,105.472 53,105.5C 54.3756,105.316 55.2089,104.649 55.5,103.5C 55.5,103.167 55.5,102.833 55.5,102.5C 57.1436,102.19 58.1436,101.19 58.5,99.5C 58.8333,99.5 59.1667,99.5 59.5,99.5C 59.5,99.8333 59.5,100.167 59.5,100.5C 59.1667,101.833 58.8333,103.167 58.5,104.5C 58.5,104.833 58.5,105.167 58.5,105.5C 58.3284,106.492 58.6618,107.158 59.5,107.5C 58.828,108.267 57.9947,108.934 57,109.5C 56.8019,111.382 56.3019,113.048 55.5,114.5C 54.6618,114.842 54.3284,115.508 54.5,116.5C 53.8333,116.167 53.1667,115.833 52.5,115.5C 51.8106,114.226 50.9772,114.226 50,115.5C 49.0594,118.154 48.2261,120.821 47.5,123.5C 46.8333,124.5 46.1667,125.5 45.5,126.5C 46.0827,122.414 47.0827,118.414 48.5,114.5C 48.315,113.416 47.9817,112.416 47.5,111.5C 47.6309,110.624 47.2975,109.957 46.5,109.5C 44.6396,110.26 42.973,111.26 41.5,112.5C 41.5,111.833 41.5,111.167 41.5,110.5C 41.7512,108.83 42.4178,107.33 43.5,106C 42.9056,105.536 42.2389,105.369 41.5,105.5C 41.0825,104.778 40.4158,104.278 39.5,104C 44.1474,103.082 44.4807,101.249 40.5,98.5C 39.4676,95.4675 37.4676,93.4675 34.5,92.5C 34.8016,89.9407 34.4682,87.6074 33.5,85.5C 33.3915,83.4862 34.0582,81.8195 35.5,80.5 Z"/></g>
<g><path style="opacity:1" fill="#e5d17f" d="M 26.5,107.5 C 25.5,107.833 24.8333,108.5 24.5,109.5C 23.5309,111.663 22.6976,113.996 22,116.5C 21,117.833 20,117.833 19,116.5C 18.0316,112.104 18.8649,108.104 21.5,104.5C 24.0109,103.619 25.6776,104.619 26.5,107.5 Z"/></g>
<g><path style="opacity:1" fill="#85473d" d="M 59.5,107.5 C 66.3355,108.889 73.0022,110.889 79.5,113.5C 84.5195,117.208 87.5195,122.208 88.5,128.5C 87.7784,128.918 87.2784,129.584 87,130.5C 84.9419,129.771 83.1086,128.771 81.5,127.5C 83.1439,127.286 84.6439,127.62 86,128.5C 85.5874,123.013 83.0874,118.68 78.5,115.5C 75.5703,113.262 72.2369,111.929 68.5,111.5C 66.0262,109.885 63.3595,109.552 60.5,110.5C 59.4173,111.365 59.2506,112.365 60,113.5C 61.7286,113.974 62.8953,114.974 63.5,116.5C 64.1667,118.167 64.8333,119.833 65.5,121.5C 65.5,122.167 65.1667,122.5 64.5,122.5C 63.7368,120.632 62.7368,118.965 61.5,117.5C 59.7512,116.015 57.7512,115.015 55.5,114.5C 56.3019,113.048 56.8019,111.382 57,109.5C 57.9947,108.934 58.828,108.267 59.5,107.5 Z"/></g>
<g><path style="opacity:1" fill="#e65d60" d="M 68.5,111.5 C 72.2369,111.929 75.5703,113.262 78.5,115.5C 79.2916,116.967 79.2916,118.3 78.5,119.5C 72.8109,118.5 67.8109,116.166 63.5,112.5C 65.0453,111.548 66.712,111.215 68.5,111.5 Z"/></g>
<g><path style="opacity:1" fill="#a48b88" d="M 41.5,110.5 C 41.5,111.167 41.5,111.833 41.5,112.5C 40.8571,114.076 39.8571,115.41 38.5,116.5C 38.7549,114.033 39.7549,112.033 41.5,110.5 Z"/></g>
<g><path style="opacity:1" fill="#9d845a" d="M 21.5,102.5 C 21.5,103.167 21.5,103.833 21.5,104.5C 18.8649,108.104 18.0316,112.104 19,116.5C 20,117.833 21,117.833 22,116.5C 22.6976,113.996 23.5309,111.663 24.5,109.5C 24.7618,112.252 24.7618,115.252 24.5,118.5C 22.6612,119.752 20.8278,119.752 19,118.5C 18.9252,120.935 18.0919,121.602 16.5,120.5C 16.3054,116.085 16.8054,111.751 18,107.5C 18.6972,105.416 19.8639,103.749 21.5,102.5 Z"/></g>
<g><path style="opacity:1" fill="#c27a61" d="M 55.5,114.5 C 57.7512,115.015 59.7512,116.015 61.5,117.5C 60.7611,117.369 60.0944,117.536 59.5,118C 60.8423,120.015 61.3423,122.182 61,124.5C 60.2917,123.619 59.4584,122.953 58.5,122.5C 58.1667,121.5 57.5,120.833 56.5,120.5C 55.8333,119.167 55.1667,117.833 54.5,116.5C 54.3284,115.508 54.6618,114.842 55.5,114.5 Z"/></g>
<g><path style="opacity:1" fill="#bc5658" d="M 68.5,111.5 C 66.712,111.215 65.0453,111.548 63.5,112.5C 67.8109,116.166 72.8109,118.5 78.5,119.5C 79.2916,118.3 79.2916,116.967 78.5,115.5C 83.0874,118.68 85.5874,123.013 86,128.5C 84.6439,127.62 83.1439,127.286 81.5,127.5C 80.7434,123.616 78.4101,121.283 74.5,120.5C 71.1614,118.386 67.4947,117.053 63.5,116.5C 62.8953,114.974 61.7286,113.974 60,113.5C 59.2506,112.365 59.4173,111.365 60.5,110.5C 63.3595,109.552 66.0262,109.885 68.5,111.5 Z"/></g>
<g><path style="opacity:1" fill="#63594f" d="M 24.5,118.5 C 24.8134,121.247 24.48,123.914 23.5,126.5C 22.561,124.947 21.3943,123.613 20,122.5C 17.589,124.153 16.4223,123.487 16.5,120.5C 18.0919,121.602 18.9252,120.935 19,118.5C 20.8278,119.752 22.6612,119.752 24.5,118.5 Z"/></g>
<g><path style="opacity:1" fill="#dc4f55" d="M 44.5,112.5 C 45.6935,112.97 46.3601,113.97 46.5,115.5C 44.8788,119.743 43.5455,124.076 42.5,128.5C 40.4667,131.523 38.4667,134.523 36.5,137.5C 35.6236,137.369 34.9569,137.702 34.5,138.5C 34.3223,141.804 32.6557,143.471 29.5,143.5C 32.2467,135.34 36.08,127.673 41,120.5C 41.49,119.207 41.6567,117.873 41.5,116.5C 41.7376,114.596 42.7376,113.262 44.5,112.5 Z"/></g>
<g><path style="opacity:1" fill="#a9505a" d="M 44.5,112.5 C 45.209,111.596 46.209,111.263 47.5,111.5C 47.9817,112.416 48.315,113.416 48.5,114.5C 47.0827,118.414 46.0827,122.414 45.5,126.5C 44.8333,126.5 44.5,126.833 44.5,127.5C 44.5,127.833 44.5,128.167 44.5,128.5C 43.8333,128.5 43.1667,128.5 42.5,128.5C 43.5455,124.076 44.8788,119.743 46.5,115.5C 46.3601,113.97 45.6935,112.97 44.5,112.5 Z"/></g>
<g><path style="opacity:1" fill="#213137" d="M 52.5,115.5 C 53.1667,115.833 53.8333,116.167 54.5,116.5C 55.1667,117.833 55.8333,119.167 56.5,120.5C 57.1495,122.435 57.4828,124.435 57.5,126.5C 56.2028,124.629 55.2028,122.629 54.5,120.5C 53.5592,118.95 52.8925,117.284 52.5,115.5 Z"/></g>
<g><path style="opacity:1" fill="#c85f60" d="M 41.5,116.5 C 41.6567,117.873 41.49,119.207 41,120.5C 36.08,127.673 32.2467,135.34 29.5,143.5C 32.6557,143.471 34.3223,141.804 34.5,138.5C 34.9569,137.702 35.6236,137.369 36.5,137.5C 35.3702,139.315 34.7036,141.315 34.5,143.5C 33.0256,144.436 32.0256,145.77 31.5,147.5C 29.7263,146.63 28.393,145.297 27.5,143.5C 31.405,134.021 36.0716,125.021 41.5,116.5 Z"/></g>
<g><path style="opacity:1" fill="#2ba4d3" d="M 52.5,115.5 C 52.8925,117.284 53.5592,118.95 54.5,120.5C 54.6662,126.509 54.4995,132.509 54,138.5C 52.5187,139.471 51.6854,140.804 51.5,142.5C 50.1667,142.5 48.8333,142.5 47.5,142.5C 47.5,136.167 47.5,129.833 47.5,123.5C 48.2261,120.821 49.0594,118.154 50,115.5C 50.9772,114.226 51.8106,114.226 52.5,115.5 Z"/></g>
<g><path style="opacity:1" fill="#6f3c3f" d="M 47.5,111.5 C 46.209,111.263 45.209,111.596 44.5,112.5C 42.7376,113.262 41.7376,114.596 41.5,116.5C 36.0716,125.021 31.405,134.021 27.5,143.5C 27.5,144.167 27.1667,144.5 26.5,144.5C 26.1667,143.833 25.8333,143.167 25.5,142.5C 29.8409,133.793 34.1742,125.126 38.5,116.5C 39.8571,115.41 40.8571,114.076 41.5,112.5C 42.973,111.26 44.6396,110.26 46.5,109.5C 47.2975,109.957 47.6309,110.624 47.5,111.5 Z"/></g>
<g><path style="opacity:1" fill="#dca86c" d="M 61.5,117.5 C 62.7368,118.965 63.7368,120.632 64.5,122.5C 66.4325,125.366 68.0991,128.366 69.5,131.5C 68.8999,132.9 67.8999,133.9 66.5,134.5C 62.6566,131.316 59.9899,127.316 58.5,122.5C 59.4584,122.953 60.2917,123.619 61,124.5C 61.3423,122.182 60.8423,120.015 59.5,118C 60.0944,117.536 60.7611,117.369 61.5,117.5 Z"/></g>
<g><path style="opacity:1" fill="#86744c" d="M 65.5,121.5 C 66.452,122.452 67.452,123.452 68.5,124.5C 72.4937,131.82 76.4937,139.153 80.5,146.5C 81.3029,147.423 81.4696,148.423 81,149.5C 79.9505,148.483 78.7839,148.316 77.5,149C 75.7922,150.062 75.1255,151.229 75.5,152.5C 74.8333,151.833 74.1667,151.167 73.5,150.5C 72.8933,150.624 72.56,150.957 72.5,151.5C 71.5987,150.71 70.9321,149.71 70.5,148.5C 71.1667,148.5 71.8333,148.5 72.5,148.5C 75.0173,149.247 77.0173,148.247 78.5,145.5C 75.5045,140.836 72.5045,136.17 69.5,131.5C 68.0991,128.366 66.4325,125.366 64.5,122.5C 65.1667,122.5 65.5,122.167 65.5,121.5 Z"/></g>
<g><path style="opacity:1" fill="#2b596f" d="M 47.5,123.5 C 47.5,129.833 47.5,136.167 47.5,142.5C 48.8333,142.5 50.1667,142.5 51.5,142.5C 51.5,142.833 51.5,143.167 51.5,143.5C 51.1667,143.5 50.8333,143.5 50.5,143.5C 49.1667,143.5 47.8333,143.5 46.5,143.5C 46.8214,137.974 46.4881,132.64 45.5,127.5C 45.1667,127.5 44.8333,127.5 44.5,127.5C 44.5,126.833 44.8333,126.5 45.5,126.5C 46.1667,125.5 46.8333,124.5 47.5,123.5 Z"/></g>
<g><path style="opacity:1" fill="#884b41" d="M 42.5,128.5 C 43.1667,128.5 43.8333,128.5 44.5,128.5C 41.1334,133.523 37.8,138.523 34.5,143.5C 34.7036,141.315 35.3702,139.315 36.5,137.5C 38.4667,134.523 40.4667,131.523 42.5,128.5 Z"/></g>
<g><path style="opacity:1" fill="#43869f" d="M 54.5,120.5 C 55.2028,122.629 56.2028,124.629 57.5,126.5C 57.7947,128.735 57.4614,130.735 56.5,132.5C 54.9995,131.487 54.6662,134.821 55.5,142.5C 54.1667,142.5 52.8333,142.5 51.5,142.5C 51.6854,140.804 52.5187,139.471 54,138.5C 54.4995,132.509 54.6662,126.509 54.5,120.5 Z"/></g>
<g><path style="opacity:1" fill="#f3f1e5" d="M 79.5,113.5 C 82.0444,113.104 84.2111,113.771 86,115.5C 86.3333,114.833 86.6667,114.167 87,113.5C 88.8701,115.248 90.0368,117.415 90.5,120C 89.8831,122.388 89.5497,124.721 89.5,127C 91.1484,128.481 92.1484,130.315 92.5,132.5C 91.6651,136.149 89.8318,139.149 87,141.5C 86.6667,140.833 86.3333,140.167 86,139.5C 85.8406,143.049 86.3406,146.549 87.5,150C 86.2337,152.705 86.567,155.205 88.5,157.5C 88.4573,158.416 88.1239,159.083 87.5,159.5C 85.5339,155.649 83.8672,151.649 82.5,147.5C 82.0431,146.702 81.3764,146.369 80.5,146.5C 76.4937,139.153 72.4937,131.82 68.5,124.5C 67.452,123.452 66.452,122.452 65.5,121.5C 64.8333,119.833 64.1667,118.167 63.5,116.5C 67.4947,117.053 71.1614,118.386 74.5,120.5C 76.5002,122.671 78.3335,125.004 80,127.5C 80.2065,130.623 80.8732,133.623 82,136.5C 82.0976,134.381 82.9309,132.714 84.5,131.5C 89.4274,138.165 90.7608,137.165 88.5,128.5C 87.5195,122.208 84.5195,117.208 79.5,113.5 Z"/></g>
<g><path style="opacity:1" fill="#634746" d="M 74.5,120.5 C 78.4101,121.283 80.7434,123.616 81.5,127.5C 83.1086,128.771 84.9419,129.771 87,130.5C 87.2784,129.584 87.7784,128.918 88.5,128.5C 90.7608,137.165 89.4274,138.165 84.5,131.5C 82.9309,132.714 82.0976,134.381 82,136.5C 80.8732,133.623 80.2065,130.623 80,127.5C 78.3335,125.004 76.5002,122.671 74.5,120.5 Z"/></g>
<g><path style="opacity:1" fill="#323934" d="M 56.5,132.5 C 56.5,138.167 56.5,143.833 56.5,149.5C 55.3127,147.928 54.3127,146.261 53.5,144.5C 53.1583,143.662 52.4916,143.328 51.5,143.5C 51.5,143.167 51.5,142.833 51.5,142.5C 52.8333,142.5 54.1667,142.5 55.5,142.5C 54.6662,134.821 54.9995,131.487 56.5,132.5 Z"/></g>
<g><path style="opacity:1" fill="#725743" d="M 56.5,120.5 C 57.5,120.833 58.1667,121.5 58.5,122.5C 59.9899,127.316 62.6566,131.316 66.5,134.5C 66.3433,135.873 66.51,137.207 67,138.5C 69.0574,141.721 70.8908,145.054 72.5,148.5C 71.8333,148.5 71.1667,148.5 70.5,148.5C 66.6808,140.861 62.3475,133.528 57.5,126.5C 57.4828,124.435 57.1495,122.435 56.5,120.5 Z"/></g>
<g><path style="opacity:1" fill="#aa997b" d="M 50.5,143.5 C 50.8333,143.5 51.1667,143.5 51.5,143.5C 52.4916,143.328 53.1583,143.662 53.5,144.5C 53.75,147.214 53.9167,149.881 54,152.5C 53.0675,148.678 50.9008,147.345 47.5,148.5C 47.7215,146.336 48.7215,144.67 50.5,143.5 Z"/></g>
<g><path style="opacity:1" fill="#ceb373" d="M 69.5,131.5 C 72.5045,136.17 75.5045,140.836 78.5,145.5C 77.0173,148.247 75.0173,149.247 72.5,148.5C 70.8908,145.054 69.0574,141.721 67,138.5C 66.51,137.207 66.3433,135.873 66.5,134.5C 67.8999,133.9 68.8999,132.9 69.5,131.5 Z"/></g>
<g><path style="opacity:1" fill="#8f6c4f" d="M 53.5,144.5 C 54.3127,146.261 55.3127,147.928 56.5,149.5C 55.871,152.397 54.871,155.064 53.5,157.5C 52.1938,156.533 51.5271,155.199 51.5,153.5C 48.5299,153.254 47.1966,151.588 47.5,148.5C 50.9008,147.345 53.0675,148.678 54,152.5C 53.9167,149.881 53.75,147.214 53.5,144.5 Z"/></g>
<g><path style="opacity:1" fill="#a68864" d="M 27.5,143.5 C 28.393,145.297 29.7263,146.63 31.5,147.5C 31.1632,149.672 30.1632,151.505 28.5,153C 28.5699,153.765 28.9033,154.265 29.5,154.5C 29.1667,155.5 28.5,156.167 27.5,156.5C 27.0533,153.476 26.22,153.143 25,155.5C 24.5,153.5 24,151.5 23.5,149.5C 24.5272,147.816 25.5272,146.149 26.5,144.5C 27.1667,144.5 27.5,144.167 27.5,143.5 Z"/></g>
<g><path style="opacity:1" fill="#714f43" d="M 34.5,143.5 C 33.6421,147.548 31.9755,151.215 29.5,154.5C 28.9033,154.265 28.5699,153.765 28.5,153C 30.1632,151.505 31.1632,149.672 31.5,147.5C 32.0256,145.77 33.0256,144.436 34.5,143.5 Z"/></g>
<g><path style="opacity:1" fill="#756655" d="M 25.5,142.5 C 25.8333,143.167 26.1667,143.833 26.5,144.5C 25.5272,146.149 24.5272,147.816 23.5,149.5C 24,151.5 24.5,153.5 25,155.5C 26.22,153.143 27.0533,153.476 27.5,156.5C 25.3071,157.68 22.9738,158.68 20.5,159.5C 20.8879,154.243 22.0546,148.91 24,143.5C 24.3826,142.944 24.8826,142.611 25.5,142.5 Z"/></g>
<g><path style="opacity:1" fill="#736a66" d="M 45.5,127.5 C 46.4881,132.64 46.8214,137.974 46.5,143.5C 47.8333,143.5 49.1667,143.5 50.5,143.5C 48.7215,144.67 47.7215,146.336 47.5,148.5C 47.1966,151.588 48.5299,153.254 51.5,153.5C 51.5271,155.199 52.1938,156.533 53.5,157.5C 53.2624,159.404 52.2624,160.738 50.5,161.5C 49.2862,158.07 47.7862,154.736 46,151.5C 45.5003,143.507 45.3336,135.507 45.5,127.5 Z"/></g>
<g><path style="opacity:1" fill="#907361" d="M 80.5,146.5 C 81.3764,146.369 82.0431,146.702 82.5,147.5C 83.8672,151.649 85.5339,155.649 87.5,159.5C 80.0579,160.938 75.0579,158.272 72.5,151.5C 72.56,150.957 72.8933,150.624 73.5,150.5C 74.1667,151.167 74.8333,151.833 75.5,152.5C 75.1255,151.229 75.7922,150.062 77.5,149C 78.7839,148.316 79.9505,148.483 81,149.5C 81.4696,148.423 81.3029,147.423 80.5,146.5 Z"/></g>
</svg>
