<?xml version="1.0" encoding="UTF-8"?>
<!DOCTYPE svg PUBLIC "-//W3C//DTD SVG 1.1//EN" "http://www.w3.org/Graphics/SVG/1.1/DTD/svg11.dtd">
<svg xmlns="http://www.w3.org/2000/svg" version="1.1" width="100px" height="165px" style="shape-rendering:geometricPrecision; text-rendering:geometricPrecision; image-rendering:optimizeQuality; fill-rule:evenodd; clip-rule:evenodd" xmlns:xlink="http://www.w3.org/1999/xlink">
<g><path style="opacity:1" fill="#f9f9f8" d="M 53.5,-0.5 C 68.8333,-0.5 84.1667,-0.5 99.5,-0.5C 99.5,54.5 99.5,109.5 99.5,164.5C 84.5,164.5 69.5,164.5 54.5,164.5C 54.4142,163.504 54.7476,162.671 55.5,162C 54.1667,162.333 52.8333,162.667 51.5,163C 51.0269,160.14 49.6936,157.807 47.5,156C 51.1261,155.722 53.1261,153.888 53.5,150.5C 54.791,150.263 55.791,150.596 56.5,151.5C 52.3079,154.806 52.6412,157.639 57.5,160C 66.2135,160.798 74.8802,160.464 83.5,159C 85.291,156.894 85.9577,154.394 85.5,151.5C 84.5,151.5 83.5,151.5 82.5,151.5C 80.5,148.833 78.1667,146.5 75.5,144.5C 76.7503,142.846 78.0837,141.179 79.5,139.5C 82.766,138.463 84.4327,136.13 84.5,132.5C 84.4268,128.817 82.7602,126.484 79.5,125.5C 80.1667,122.833 80.8333,120.167 81.5,117.5C 81.8333,116.833 82.1667,116.167 82.5,115.5C 83.6521,114.166 84.6521,112.666 85.5,111C 82.6028,106.885 78.6028,104.885 73.5,105C 65.9668,103.761 59.1335,105.261 53,109.5C 52.8333,110.167 52.6667,110.833 52.5,111.5C 54.0981,113.698 55.4314,116.031 56.5,118.5C 56.3284,119.492 56.6618,120.158 57.5,120.5C 58.6414,122.549 58.6414,124.549 57.5,126.5C 54.5231,126.641 52.8564,128.141 52.5,131C 52.8586,133.546 53.8586,135.713 55.5,137.5C 57.4426,140.471 60.1092,142.471 63.5,143.5C 61.7267,146.06 59.7267,148.393 57.5,150.5C 56.9423,149.21 55.9423,148.377 54.5,148C 56.2077,146.49 57.8744,144.99 59.5,143.5C 57.4148,142.459 55.7481,140.959 54.5,139C 53.5509,138.383 52.7175,138.549 52,139.5C 51.6667,136.167 51.3333,132.833 51,129.5C 50.6667,131.167 50.3333,132.833 50,134.5C 49.1562,131.394 49.6562,128.561 51.5,126C 51.3333,125.5 51.1667,125 51,124.5C 50,125.833 49,127.167 48,128.5C 48.35,125.577 48.5167,122.744 48.5,120C 48.2409,118.739 47.5742,117.739 46.5,117C 49.8713,115.283 50.2047,112.95 47.5,110C 46.2068,109.51 44.8734,109.343 43.5,109.5C 43.5,110.833 43.5,112.167 43.5,113.5C 37.7891,112.809 32.1224,112.642 26.5,113C 29.3004,111.768 32.3004,111.101 35.5,111C 32.9644,110.814 30.631,110.314 28.5,109.5C 34.2283,109.947 39.5617,108.947 44.5,106.5C 45.4682,104.393 45.8016,102.059 45.5,99.5C 43.7376,99.6427 42.0709,99.3094 40.5,98.5C 38.4773,96.1472 36.4773,93.8138 34.5,91.5C 40.1802,89.4816 43.5136,85.4816 44.5,79.5C 44.2295,77.3074 43.2295,75.6407 41.5,74.5C 40.5285,73.6009 39.8618,72.4343 39.5,71C 40.0329,68.7739 40.6996,66.6073 41.5,64.5C 44.2762,62.9477 45.4428,60.6144 45,57.5C 41.5678,55.6886 38.0678,54.3553 34.5,53.5C 34.5,53.1667 34.5,52.8333 34.5,52.5C 37.3938,52.9577 39.8938,52.291 42,50.5C 43.8175,52.6454 45.3175,52.6454 46.5,50.5C 42.7517,48.9896 43.085,47.8229 47.5,47C 48.7717,45.6932 49.7717,44.1932 50.5,42.5C 52.198,43.6808 53.8647,43.6808 55.5,42.5C 53.9108,39.2789 51.9108,36.4455 49.5,34C 49.9212,31.8154 50.4212,29.6487 51,27.5C 51.3333,28.8333 51.6667,30.1667 52,31.5C 52.1981,29.6183 52.6981,27.9516 53.5,26.5C 53.2155,28.4147 53.5489,30.0813 54.5,31.5C 55.3985,36.4751 58.3985,39.4751 63.5,40.5C 62.1944,42.8162 60.8611,45.1495 59.5,47.5C 57.6943,48.0241 56.0276,48.6908 54.5,49.5C 54.5,52.1667 54.5,54.8333 54.5,57.5C 63.144,58.5067 71.8106,58.6733 80.5,58C 84.7537,56.8948 86.4203,54.0615 85.5,49.5C 80.9856,47.9943 77.6522,44.9943 75.5,40.5C 76.1667,40.5 76.5,40.1667 76.5,39.5C 83.0893,37.6667 85.5893,33.3334 84,26.5C 82.3506,25.1155 81.1839,23.4488 80.5,21.5C 80.448,19.0971 80.7814,16.7638 81.5,14.5C 82.1667,14.5 82.5,14.1667 82.5,13.5C 86.7211,10.1225 86.3878,7.12248 81.5,4.5C 72.5313,1.44585 63.8646,1.94585 55.5,6C 52.9327,8.53884 52.9327,11.0388 55.5,13.5C 56.1098,14.391 56.4431,15.391 56.5,16.5C 55.2106,14.752 53.7106,14.4186 52,15.5C 51.6824,13.9391 50.8491,12.7724 49.5,12C 51.1556,10.2028 52.1556,8.03609 52.5,5.5C 53.5,4.66667 54.5,3.83333 55.5,3C 54.0267,2.29044 53.3601,1.12377 53.5,-0.5 Z"/></g>
<g><path style="opacity:1" fill="#976a69" d="M 82.5,13.5 C 82.5,12.8333 82.5,12.1667 82.5,11.5C 83.1239,11.0831 83.4573,10.4164 83.5,9.5C 83.2528,8.28665 82.5862,7.61998 81.5,7.5C 80.5707,6.68509 79.5707,5.85175 78.5,5C 70.8981,3.82719 63.5648,4.66052 56.5,7.5C 55.4173,8.36495 55.2506,9.36495 56,10.5C 56.9947,11.0659 57.828,11.7326 58.5,12.5C 57.209,12.2627 56.209,12.596 55.5,13.5C 52.9327,11.0388 52.9327,8.53884 55.5,6C 63.8646,1.94585 72.5313,1.44585 81.5,4.5C 86.3878,7.12248 86.7211,10.1225 82.5,13.5 Z"/></g>
<g><path style="opacity:1" fill="#8b3d38" d="M 81.5,7.5 C 75.5368,6.46962 69.5368,6.30295 63.5,7C 62.8641,9.39381 62.8641,11.8938 63.5,14.5C 69.5606,15.0033 75.2273,14.0033 80.5,11.5C 81.1667,11.5 81.8333,11.5 82.5,11.5C 82.5,12.1667 82.5,12.8333 82.5,13.5C 82.5,14.1667 82.1667,14.5 81.5,14.5C 79.901,14.2322 78.5676,14.5655 77.5,15.5C 76.8333,15.5 76.1667,15.5 75.5,15.5C 70.8091,16.6726 66.1425,16.6726 61.5,15.5C 60.8333,15.5 60.1667,15.5 59.5,15.5C 59.4431,14.391 59.1098,13.391 58.5,12.5C 57.828,11.7326 56.9947,11.0659 56,10.5C 55.2506,9.36495 55.4173,8.36495 56.5,7.5C 63.5648,4.66052 70.8981,3.82719 78.5,5C 79.5707,5.85175 80.5707,6.68509 81.5,7.5 Z"/></g>
<g><path style="opacity:1" fill="#d45652" d="M 81.5,7.5 C 82.5862,7.61998 83.2528,8.28665 83.5,9.5C 83.4573,10.4164 83.1239,11.0831 82.5,11.5C 81.8333,11.5 81.1667,11.5 80.5,11.5C 75.2273,14.0033 69.5606,15.0033 63.5,14.5C 62.8641,11.8938 62.8641,9.39381 63.5,7C 69.5368,6.30295 75.5368,6.46962 81.5,7.5 Z"/></g>
<g><path style="opacity:1" fill="#f14e4e" d="M 80.5,11.5 C 75.1592,12.7402 69.8259,12.7402 64.5,11.5C 64.5,10.5 64.5,9.5 64.5,8.5C 69.8333,8.5 75.1667,8.5 80.5,8.5C 80.5,9.5 80.5,10.5 80.5,11.5 Z"/></g>
<g><path style="opacity:1" fill="#5a453e" d="M 58.5,12.5 C 59.1098,13.391 59.4431,14.391 59.5,15.5C 58.6365,14.537 57.9698,14.537 57.5,15.5C 58.8089,18.0832 59.8089,20.7499 60.5,23.5C 59.8333,23.5 59.1667,23.5 58.5,23.5C 58.6061,20.9214 57.9395,18.588 56.5,16.5C 56.4431,15.391 56.1098,14.391 55.5,13.5C 56.209,12.596 57.209,12.2627 58.5,12.5 Z"/></g>
<g><path style="opacity:1" fill="#5a503a" d="M 77.5,15.5 C 78.5676,14.5655 79.901,14.2322 81.5,14.5C 80.7814,16.7638 80.448,19.0971 80.5,21.5C 79.5,22.1667 78.5,22.8333 77.5,23.5C 78.6567,20.6926 78.6567,18.0259 77.5,15.5 Z"/></g>
<g><path style="opacity:1" fill="#b6a67a" d="M 59.5,15.5 C 60.1667,15.5 60.8333,15.5 61.5,15.5C 62.4196,17.8809 62.4196,20.2143 61.5,22.5C 66.456,23.4941 71.456,23.8275 76.5,23.5C 76.1667,20.8333 75.8333,18.1667 75.5,15.5C 76.1667,15.5 76.8333,15.5 77.5,15.5C 78.6567,18.0259 78.6567,20.6926 77.5,23.5C 73.7643,24.9891 69.7643,25.6558 65.5,25.5C 63.8333,24.8333 62.1667,24.1667 60.5,23.5C 59.8089,20.7499 58.8089,18.0832 57.5,15.5C 57.9698,14.537 58.6365,14.537 59.5,15.5 Z"/></g>
<g><path style="opacity:1" fill="#e1bd64" d="M 61.5,15.5 C 66.1425,16.6726 70.8091,16.6726 75.5,15.5C 75.8333,18.1667 76.1667,20.8333 76.5,23.5C 71.456,23.8275 66.456,23.4941 61.5,22.5C 62.4196,20.2143 62.4196,17.8809 61.5,15.5 Z"/></g>
<g><path style="opacity:1" fill="#276483" d="M 58.5,25.5 C 59.3091,27.2922 59.8091,29.2922 60,31.5C 59.4078,27.1019 61.2411,25.1019 65.5,25.5C 66.209,26.404 67.209,26.7373 68.5,26.5C 66.8951,27.9183 65.8951,29.7516 65.5,32C 66.8561,33.5671 67.5228,35.4004 67.5,37.5C 67.1667,37.5 66.8333,37.5 66.5,37.5C 65.0964,33.9989 64.0964,30.3322 63.5,26.5C 62.914,26.7093 62.414,27.0426 62,27.5C 61.3333,29.8333 61.3333,32.1667 62,34.5C 63.8022,35.7893 64.9688,37.4559 65.5,39.5C 65.1583,40.3382 64.4916,40.6716 63.5,40.5C 58.3985,39.4751 55.3985,36.4751 54.5,31.5C 56.5031,34.688 59.1698,36.8547 62.5,38C 58.9609,34.6132 57.6276,30.4466 58.5,25.5 Z"/></g>
<g><path style="opacity:1" fill="#2c5667" d="M 80.5,21.5 C 81.1839,23.4488 82.3506,25.1155 84,26.5C 85.5893,33.3334 83.0893,37.6667 76.5,39.5C 76.5,40.1667 76.1667,40.5 75.5,40.5C 75.1667,40.5 74.8333,40.5 74.5,40.5C 71.8728,39.9084 69.2062,39.5751 66.5,39.5C 66.5,38.8333 66.5,38.1667 66.5,37.5C 66.8333,37.5 67.1667,37.5 67.5,37.5C 70.9496,37.4274 72.283,35.5941 71.5,32C 71.3333,30.5 71.1667,29 71,27.5C 70.3292,26.7476 69.4959,26.4142 68.5,26.5C 67.209,26.7373 66.209,26.404 65.5,25.5C 69.7643,25.6558 73.7643,24.9891 77.5,23.5C 78.5,22.8333 79.5,22.1667 80.5,21.5 Z"/></g>
<g><path style="opacity:1" fill="#2a4b5a" d="M 58.5,23.5 C 59.1667,23.5 59.8333,23.5 60.5,23.5C 62.1667,24.1667 63.8333,24.8333 65.5,25.5C 61.2411,25.1019 59.4078,27.1019 60,31.5C 59.8091,29.2922 59.3091,27.2922 58.5,25.5C 55.7079,26.3918 54.3746,28.3918 54.5,31.5C 53.5489,30.0813 53.2155,28.4147 53.5,26.5C 54.6594,24.7497 56.326,23.7497 58.5,23.5 Z"/></g>
<g><path style="opacity:1" fill="#429fca" d="M 66.5,37.5 C 66.5,38.1667 66.5,38.8333 66.5,39.5C 66.1667,39.5 65.8333,39.5 65.5,39.5C 64.9688,37.4559 63.8022,35.7893 62,34.5C 61.3333,32.1667 61.3333,29.8333 62,27.5C 62.414,27.0426 62.914,26.7093 63.5,26.5C 64.0964,30.3322 65.0964,33.9989 66.5,37.5 Z"/></g>
<g><path style="opacity:1" fill="#379ecd" d="M 68.5,26.5 C 69.4959,26.4142 70.3292,26.7476 71,27.5C 71.1667,29 71.3333,30.5 71.5,32C 72.283,35.5941 70.9496,37.4274 67.5,37.5C 67.5228,35.4004 66.8561,33.5671 65.5,32C 65.8951,29.7516 66.8951,27.9183 68.5,26.5 Z"/></g>
<g><path style="opacity:1" fill="#4e97b9" d="M 73.5,26.5 C 74.4959,26.4142 75.3292,26.7476 76,27.5C 77.7318,30.9174 77.0651,33.9174 74,36.5C 73.5017,33.1832 73.335,29.8499 73.5,26.5 Z"/></g>
<g><path style="opacity:1" fill="#579ec3" d="M 76.5,39.5 C 75.7611,39.631 75.0944,39.4643 74.5,39C 79.1445,35.5902 80.1445,31.4235 77.5,26.5C 79.0026,25.9478 80.6693,25.9478 82.5,26.5C 82.6633,28.8568 82.4966,31.1902 82,33.5C 80.2309,35.6174 78.3976,37.6174 76.5,39.5 Z"/></g>
<g><path style="opacity:1" fill="#4ca2c9" d="M 58.5,25.5 C 57.6276,30.4466 58.9609,34.6132 62.5,38C 59.1698,36.8547 56.5031,34.688 54.5,31.5C 54.3746,28.3918 55.7079,26.3918 58.5,25.5 Z"/></g>
<g><path style="opacity:1" fill="#48563e" d="M 65.5,39.5 C 65.8333,39.5 66.1667,39.5 66.5,39.5C 69.2062,39.5751 71.8728,39.9084 74.5,40.5C 74.2178,41.7777 73.5511,42.7777 72.5,43.5C 70.6943,44.0241 69.0276,44.6908 67.5,45.5C 67.1667,45.5 66.8333,45.5 66.5,45.5C 66.5299,44.5028 66.0299,43.8361 65,43.5C 63.3551,45.1449 61.6884,46.8116 60,48.5C 59.6012,48.2716 59.4346,47.9382 59.5,47.5C 60.8611,45.1495 62.1944,42.8162 63.5,40.5C 64.4916,40.6716 65.1583,40.3382 65.5,39.5 Z"/></g>
<g><path style="opacity:1" fill="#b7a987" d="M 66.5,45.5 C 65.7677,46.8083 64.9344,48.1416 64,49.5C 63.6667,48.8333 63.3333,48.1667 63,47.5C 62.3021,48.6906 61.4687,49.6906 60.5,50.5C 58.5648,49.8505 56.5648,49.5172 54.5,49.5C 56.0276,48.6908 57.6943,48.0241 59.5,47.5C 59.4346,47.9382 59.6012,48.2716 60,48.5C 61.6884,46.8116 63.3551,45.1449 65,43.5C 66.0299,43.8361 66.5299,44.5028 66.5,45.5 Z"/></g>
<g><path style="opacity:1" fill="#d8bc86" d="M 72.5,43.5 C 73.5,43.5 74.5,43.5 75.5,43.5C 75.7845,45.4147 75.4511,47.0813 74.5,48.5C 74.5852,47.0047 73.9185,46.0047 72.5,45.5C 70.3606,52.098 68.6939,52.098 67.5,45.5C 69.0276,44.6908 70.6943,44.0241 72.5,43.5 Z"/></g>
<g><path style="opacity:1" fill="#9d8a67" d="M 74.5,40.5 C 74.8333,40.5 75.1667,40.5 75.5,40.5C 77.6522,44.9943 80.9856,47.9943 85.5,49.5C 84.609,50.1098 83.609,50.4431 82.5,50.5C 81.1667,50.5 79.8333,50.5 78.5,50.5C 77.1667,49.8333 75.8333,49.1667 74.5,48.5C 75.4511,47.0813 75.7845,45.4147 75.5,43.5C 74.5,43.5 73.5,43.5 72.5,43.5C 73.5511,42.7777 74.2178,41.7777 74.5,40.5 Z"/></g>
<g><path style="opacity:1" fill="#88613d" d="M 66.5,45.5 C 66.8333,45.5 67.1667,45.5 67.5,45.5C 68.6939,52.098 70.3606,52.098 72.5,45.5C 73.9185,46.0047 74.5852,47.0047 74.5,48.5C 75.8333,49.1667 77.1667,49.8333 78.5,50.5C 72.4915,51.7034 66.4915,51.7034 60.5,50.5C 61.4687,49.6906 62.3021,48.6906 63,47.5C 63.3333,48.1667 63.6667,48.8333 64,49.5C 64.9344,48.1416 65.7677,46.8083 66.5,45.5 Z"/></g>
<g><path style="opacity:1" fill="#bea1a1" d="M 34.5,52.5 C 34.5,52.8333 34.5,53.1667 34.5,53.5C 30.3998,53.2367 26.3998,53.5701 22.5,54.5C 21.5,54.5 20.5,54.5 19.5,54.5C 19.9175,53.7784 20.5842,53.2784 21.5,53C 25.8206,52.501 30.1539,52.3343 34.5,52.5 Z"/></g>
<g><path style="opacity:1" fill="#6b4644" d="M 54.5,49.5 C 56.5648,49.5172 58.5648,49.8505 60.5,50.5C 58.9254,52.1137 58.2587,54.1137 58.5,56.5C 60.1667,56.5 61.8333,56.5 63.5,56.5C 69.0673,57.804 74.734,57.804 80.5,56.5C 82.3079,55.0821 82.9746,53.0821 82.5,50.5C 83.609,50.4431 84.609,50.1098 85.5,49.5C 86.4203,54.0615 84.7537,56.8948 80.5,58C 71.8106,58.6733 63.144,58.5067 54.5,57.5C 54.5,54.8333 54.5,52.1667 54.5,49.5 Z"/></g>
<g><path style="opacity:1" fill="#d45759" d="M 80.5,56.5 C 74.734,57.804 69.0673,57.804 63.5,56.5C 63.2222,54.6536 63.8888,53.3202 65.5,52.5C 70.8126,52.6926 76.1459,53.0259 81.5,53.5C 80.8728,54.4168 80.5394,55.4168 80.5,56.5 Z"/></g>
<g><path style="opacity:1" fill="#984341" d="M 60.5,50.5 C 66.4915,51.7034 72.4915,51.7034 78.5,50.5C 79.8333,50.5 81.1667,50.5 82.5,50.5C 82.9746,53.0821 82.3079,55.0821 80.5,56.5C 80.5394,55.4168 80.8728,54.4168 81.5,53.5C 76.1459,53.0259 70.8126,52.6926 65.5,52.5C 63.8888,53.3202 63.2222,54.6536 63.5,56.5C 61.8333,56.5 60.1667,56.5 58.5,56.5C 58.2587,54.1137 58.9254,52.1137 60.5,50.5 Z"/></g>
<g><path style="opacity:1" fill="#a0544c" d="M 34.5,53.5 C 38.0678,54.3553 41.5678,55.6886 45,57.5C 45.4428,60.6144 44.2762,62.9477 41.5,64.5C 40.5,64.5 39.5,64.5 38.5,64.5C 37.5416,64.9528 36.7083,65.6195 36,66.5C 34.0565,65.193 32.2232,65.193 30.5,66.5C 27.1442,67.237 23.8109,66.9036 20.5,65.5C 19.8333,65.5 19.1667,65.5 18.5,65.5C 18.5,65.1667 18.5,64.8333 18.5,64.5C 19.209,63.596 20.209,63.2627 21.5,63.5C 27.4943,64.9111 33.4943,64.4111 39.5,62C 40.7468,60.5421 40.7468,59.0421 39.5,57.5C 33.1115,56.2097 26.7782,56.2097 20.5,57.5C 20.5,56.8333 20.5,56.1667 20.5,55.5C 21.4916,55.6716 22.1583,55.3382 22.5,54.5C 26.3998,53.5701 30.3998,53.2367 34.5,53.5 Z"/></g>
<g><path style="opacity:1" fill="#8e6f72" d="M 19.5,54.5 C 20.5,54.5 21.5,54.5 22.5,54.5C 22.1583,55.3382 21.4916,55.6716 20.5,55.5C 16.6455,57.2791 14.6455,59.9458 14.5,63.5C 13.8826,63.3893 13.3826,63.056 13,62.5C 11.2596,56.736 13.4263,54.0693 19.5,54.5 Z"/></g>
<g><path style="opacity:1" fill="#733837" d="M 20.5,55.5 C 20.5,56.1667 20.5,56.8333 20.5,57.5C 20.5172,59.5648 20.8505,61.5648 21.5,63.5C 20.209,63.2627 19.209,63.596 18.5,64.5C 17.391,64.5569 16.391,64.8902 15.5,65.5C 15.1667,64.8333 14.8333,64.1667 14.5,63.5C 14.6455,59.9458 16.6455,57.2791 20.5,55.5 Z"/></g>
<g><path style="opacity:1" fill="#e15454" d="M 21.5,63.5 C 20.8505,61.5648 20.5172,59.5648 20.5,57.5C 26.7782,56.2097 33.1115,56.2097 39.5,57.5C 40.7468,59.0421 40.7468,60.5421 39.5,62C 33.4943,64.4111 27.4943,64.9111 21.5,63.5 Z"/></g>
<g><path style="opacity:1" fill="#7b6557" d="M 18.5,64.5 C 18.5,64.8333 18.5,65.1667 18.5,65.5C 17.9569,65.56 17.6236,65.8933 17.5,66.5C 18.7472,68.323 19.4139,70.323 19.5,72.5C 18.8333,72.8333 18.1667,73.1667 17.5,73.5C 17.7174,70.5794 17.0507,67.9128 15.5,65.5C 16.391,64.8902 17.391,64.5569 18.5,64.5 Z"/></g>
<g><path style="opacity:1" fill="#685643" d="M 38.5,64.5 C 39.5,64.5 40.5,64.5 41.5,64.5C 40.6996,66.6073 40.0329,68.7739 39.5,71C 39.8618,72.4343 40.5285,73.6009 41.5,74.5C 40.0413,74.5674 38.7079,74.2341 37.5,73.5C 37.3677,70.4299 37.701,67.4299 38.5,64.5 Z"/></g>
<g><path style="opacity:1" fill="#bea878" d="M 38.5,64.5 C 37.701,67.4299 37.3677,70.4299 37.5,73.5C 33.8632,74.1654 30.1965,74.8321 26.5,75.5C 23.6549,75.2343 21.3216,74.2343 19.5,72.5C 19.4139,70.323 18.7472,68.323 17.5,66.5C 17.6236,65.8933 17.9569,65.56 18.5,65.5C 19.1667,65.5 19.8333,65.5 20.5,65.5C 21.2653,68.0961 21.5987,70.7628 21.5,73.5C 25.5453,73.3575 29.3786,73.3575 33,73.5C 34.3186,71.7505 34.8186,69.7505 34.5,67.5C 33.0413,67.5674 31.7079,67.2341 30.5,66.5C 32.2232,65.193 34.0565,65.193 36,66.5C 36.7083,65.6195 37.5416,64.9528 38.5,64.5 Z"/></g>
<g><path style="opacity:1" fill="#e5c86c" d="M 20.5,65.5 C 23.8109,66.9036 27.1442,67.237 30.5,66.5C 31.7079,67.2341 33.0413,67.5674 34.5,67.5C 34.8186,69.7505 34.3186,71.7505 33,73.5C 29.3786,73.3575 25.5453,73.3575 21.5,73.5C 21.5987,70.7628 21.2653,68.0961 20.5,65.5 Z"/></g>
<g><path style="opacity:1" fill="#3c5b65" d="M 19.5,72.5 C 21.3216,74.2343 23.6549,75.2343 26.5,75.5C 30.1965,74.8321 33.8632,74.1654 37.5,73.5C 38.7079,74.2341 40.0413,74.5674 41.5,74.5C 43.2295,75.6407 44.2295,77.3074 44.5,79.5C 43.5136,85.4816 40.1802,89.4816 34.5,91.5C 34.1667,91.5 33.8333,91.5 33.5,91.5C 31.6336,92.0138 29.8003,92.6805 28,93.5C 27.5,93.1667 27,92.8333 26.5,92.5C 27.6527,91.3132 27.6527,90.3132 26.5,89.5C 26.1667,89.5 25.8333,89.5 25.5,89.5C 25.5,88.8333 25.5,88.1667 25.5,87.5C 26.1667,87.5 26.5,87.1667 26.5,86.5C 27.1515,87.0906 27.8182,87.7573 28.5,88.5C 29.1757,87.3984 29.8423,86.3984 30.5,85.5C 30.8333,85.5 31.1667,85.5 31.5,85.5C 31.3284,86.4916 31.6618,87.1583 32.5,87.5C 32.3691,88.3764 32.7025,89.0431 33.5,89.5C 34.2876,88.2299 35.2876,87.2299 36.5,86.5C 36.8966,87.525 37.5632,87.6917 38.5,87C 43.9392,82.7294 43.7725,78.8961 38,75.5C 36.9701,75.8361 36.4701,76.5028 36.5,77.5C 35.8333,77.5 35.1667,77.5 34.5,77.5C 33.3774,76.2426 32.7107,76.5759 32.5,78.5C 31.8333,77.8333 31.1667,77.1667 30.5,76.5C 29.209,76.2627 28.209,76.596 27.5,77.5C 26.8333,77.5 26.1667,77.5 25.5,77.5C 23.6112,76.2584 21.6112,76.2584 19.5,77.5C 19.1667,77.5 18.8333,77.5 18.5,77.5C 17.7211,75.0728 16.5545,75.0728 15,77.5C 14.1093,80.4976 14.6093,83.1643 16.5,85.5C 16.5,86.1667 16.1667,86.5 15.5,86.5C 12.813,83.7537 11.9796,80.4204 13,76.5C 14.129,74.8588 15.629,73.8588 17.5,73.5C 18.1667,73.1667 18.8333,72.8333 19.5,72.5 Z"/></g>
<g><path style="opacity:1" fill="#4f99bd" d="M 36.5,86.5 C 37.3567,84.5965 38.0234,82.5965 38.5,80.5C 38.5466,78.9623 37.8799,77.9623 36.5,77.5C 36.4701,76.5028 36.9701,75.8361 38,75.5C 43.7725,78.8961 43.9392,82.7294 38.5,87C 37.5632,87.6917 36.8966,87.525 36.5,86.5 Z"/></g>
<g><path style="opacity:1" fill="#3f93b8" d="M 25.5,77.5 C 24.2749,78.1522 23.6083,79.3189 23.5,81C 23.4823,83.4418 24.149,85.6085 25.5,87.5C 25.5,88.1667 25.5,88.8333 25.5,89.5C 24.236,87.7299 22.736,86.0632 21,84.5C 20.338,82.1873 19.838,79.854 19.5,77.5C 21.6112,76.2584 23.6112,76.2584 25.5,77.5 Z"/></g>
<g><path style="opacity:1" fill="#09466b" d="M 30.5,76.5 C 31.1667,77.1667 31.8333,77.8333 32.5,78.5C 32.8016,81.0593 32.4682,83.3926 31.5,85.5C 31.1667,85.5 30.8333,85.5 30.5,85.5C 30.5,82.5 30.5,79.5 30.5,76.5 Z"/></g>
<g><path style="opacity:1" fill="#115e85" d="M 25.5,77.5 C 26.1667,77.5 26.8333,77.5 27.5,77.5C 25.233,80.2001 24.8997,83.2001 26.5,86.5C 26.5,87.1667 26.1667,87.5 25.5,87.5C 24.149,85.6085 23.4823,83.4418 23.5,81C 23.6083,79.3189 24.2749,78.1522 25.5,77.5 Z"/></g>
<g><path style="opacity:1" fill="#4e9fba" d="M 18.5,77.5 C 17.2831,81.9614 18.6164,85.7947 22.5,89C 21.8333,89.6667 21.1667,89.6667 20.5,89C 19.2949,87.6244 17.9616,86.4577 16.5,85.5C 14.6093,83.1643 14.1093,80.4976 15,77.5C 16.5545,75.0728 17.7211,75.0728 18.5,77.5 Z"/></g>
<g><path style="opacity:1" fill="#34a6c0" d="M 30.5,76.5 C 30.5,79.5 30.5,82.5 30.5,85.5C 29.8423,86.3984 29.1757,87.3984 28.5,88.5C 27.8182,87.7573 27.1515,87.0906 26.5,86.5C 24.8997,83.2001 25.233,80.2001 27.5,77.5C 28.209,76.596 29.209,76.2627 30.5,76.5 Z"/></g>
<g><path style="opacity:1" fill="#2e6487" d="M 18.5,77.5 C 18.8333,77.5 19.1667,77.5 19.5,77.5C 19.838,79.854 20.338,82.1873 21,84.5C 22.736,86.0632 24.236,87.7299 25.5,89.5C 25.8333,89.5 26.1667,89.5 26.5,89.5C 25.205,90.4884 23.8717,91.4884 22.5,92.5C 20.1667,90.5 17.8333,88.5 15.5,86.5C 16.1667,86.5 16.5,86.1667 16.5,85.5C 17.9616,86.4577 19.2949,87.6244 20.5,89C 21.1667,89.6667 21.8333,89.6667 22.5,89C 18.6164,85.7947 17.2831,81.9614 18.5,77.5 Z"/></g>
<g><path style="opacity:1" fill="#4591ae" d="M 34.5,77.5 C 37.3204,81.4009 36.6537,84.7342 32.5,87.5C 31.6618,87.1583 31.3284,86.4916 31.5,85.5C 32.4682,83.3926 32.8016,81.0593 32.5,78.5C 32.7107,76.5759 33.3774,76.2426 34.5,77.5 Z"/></g>
<g><path style="opacity:1" fill="#1d5c7f" d="M 34.5,77.5 C 35.1667,77.5 35.8333,77.5 36.5,77.5C 37.8799,77.9623 38.5466,78.9623 38.5,80.5C 38.0234,82.5965 37.3567,84.5965 36.5,86.5C 35.2876,87.2299 34.2876,88.2299 33.5,89.5C 32.7025,89.0431 32.3691,88.3764 32.5,87.5C 36.6537,84.7342 37.3204,81.4009 34.5,77.5 Z"/></g>
<g><path style="opacity:1" fill="#303924" d="M 26.5,89.5 C 27.6527,90.3132 27.6527,91.3132 26.5,92.5C 27,92.8333 27.5,93.1667 28,93.5C 29.8003,92.6805 31.6336,92.0138 33.5,91.5C 33.0472,92.4584 32.3805,93.2917 31.5,94C 28.4686,94.4954 25.4686,94.3287 22.5,93.5C 22.5,93.1667 22.5,92.8333 22.5,92.5C 23.8717,91.4884 25.205,90.4884 26.5,89.5 Z"/></g>
<g><path style="opacity:1" fill="#ab9a7c" d="M 33.5,91.5 C 33.8333,91.5 34.1667,91.5 34.5,91.5C 36.4773,93.8138 38.4773,96.1472 40.5,98.5C 42.0709,99.3094 43.7376,99.6427 45.5,99.5C 45.8016,102.059 45.4682,104.393 44.5,106.5C 45.1287,101.945 43.462,100.278 39.5,101.5C 39.1667,101.5 38.8333,101.5 38.5,101.5C 37.3303,99.7215 35.6636,98.7215 33.5,98.5C 33.719,97.325 33.3857,96.325 32.5,95.5C 31.5481,97.0453 31.2148,98.712 31.5,100.5C 29.8333,100.5 28.1667,100.5 26.5,100.5C 26.6768,96.0901 25.3434,95.4234 22.5,98.5C 20.7837,100.025 18.7837,101.025 16.5,101.5C 16.0269,100.094 15.0269,99.427 13.5,99.5C 17.0127,98.3296 20.0127,96.3296 22.5,93.5C 25.4686,94.3287 28.4686,94.4954 31.5,94C 32.3805,93.2917 33.0472,92.4584 33.5,91.5 Z"/></g>
<g><path style="opacity:1" fill="#7a533e" d="M 38.5,101.5 C 33.8405,102.167 29.1738,102.333 24.5,102C 23.0267,101.29 22.3601,100.124 22.5,98.5C 25.3434,95.4234 26.6768,96.0901 26.5,100.5C 28.1667,100.5 29.8333,100.5 31.5,100.5C 31.2148,98.712 31.5481,97.0453 32.5,95.5C 33.3857,96.325 33.719,97.325 33.5,98.5C 35.6636,98.7215 37.3303,99.7215 38.5,101.5 Z"/></g>
<g><path style="opacity:1" fill="#8a3a33" d="M 22.5,98.5 C 22.3601,100.124 23.0267,101.29 24.5,102C 29.1738,102.333 33.8405,102.167 38.5,101.5C 38.8333,101.5 39.1667,101.5 39.5,101.5C 39.5,101.833 39.5,102.167 39.5,102.5C 38.8333,102.5 38.5,102.833 38.5,103.5C 32.5,103.5 26.5,103.5 20.5,103.5C 19.1667,103.5 17.8333,103.5 16.5,103.5C 16.5,102.833 16.5,102.167 16.5,101.5C 18.7837,101.025 20.7837,100.025 22.5,98.5 Z"/></g>
<g><path style="opacity:1" fill="#fdfdfd" d="M 5.5,-0.5 C 21.5,-0.5 37.5,-0.5 53.5,-0.5C 53.3601,1.12377 54.0267,2.29044 55.5,3C 54.5,3.83333 53.5,4.66667 52.5,5.5C 52.1556,8.03609 51.1556,10.2028 49.5,12C 50.8491,12.7724 51.6824,13.9391 52,15.5C 53.7106,14.4186 55.2106,14.752 56.5,16.5C 57.9395,18.588 58.6061,20.9214 58.5,23.5C 56.326,23.7497 54.6594,24.7497 53.5,26.5C 52.6981,27.9516 52.1981,29.6183 52,31.5C 51.6667,30.1667 51.3333,28.8333 51,27.5C 50.4212,29.6487 49.9212,31.8154 49.5,34C 51.9108,36.4455 53.9108,39.2789 55.5,42.5C 53.8647,43.6808 52.198,43.6808 50.5,42.5C 49.7717,44.1932 48.7717,45.6932 47.5,47C 43.085,47.8229 42.7517,48.9896 46.5,50.5C 45.3175,52.6454 43.8175,52.6454 42,50.5C 39.8938,52.291 37.3938,52.9577 34.5,52.5C 30.1539,52.3343 25.8206,52.501 21.5,53C 20.5842,53.2784 19.9175,53.7784 19.5,54.5C 13.4263,54.0693 11.2596,56.736 13,62.5C 13.3826,63.056 13.8826,63.3893 14.5,63.5C 14.8333,64.1667 15.1667,64.8333 15.5,65.5C 17.0507,67.9128 17.7174,70.5794 17.5,73.5C 15.629,73.8588 14.129,74.8588 13,76.5C 11.9796,80.4204 12.813,83.7537 15.5,86.5C 17.8333,88.5 20.1667,90.5 22.5,92.5C 22.5,92.8333 22.5,93.1667 22.5,93.5C 20.0127,96.3296 17.0127,98.3296 13.5,99.5C 13.1936,102.385 13.5269,105.052 14.5,107.5C 18.8996,109.104 23.5662,109.771 28.5,109.5C 30.631,110.314 32.9644,110.814 35.5,111C 32.3004,111.101 29.3004,111.768 26.5,113C 32.1224,112.642 37.7891,112.809 43.5,113.5C 43.5,112.167 43.5,110.833 43.5,109.5C 44.8734,109.343 46.2068,109.51 47.5,110C 50.2047,112.95 49.8713,115.283 46.5,117C 47.5742,117.739 48.2409,118.739 48.5,120C 48.5167,122.744 48.35,125.577 48,128.5C 49,127.167 50,125.833 51,124.5C 51.1667,125 51.3333,125.5 51.5,126C 49.6562,128.561 49.1562,131.394 50,134.5C 50.3333,132.833 50.6667,131.167 51,129.5C 51.3333,132.833 51.6667,136.167 52,139.5C 52.7175,138.549 53.5509,138.383 54.5,139C 55.7481,140.959 57.4148,142.459 59.5,143.5C 57.8744,144.99 56.2077,146.49 54.5,148C 55.9423,148.377 56.9423,149.21 57.5,150.5C 57.5,151.167 57.1667,151.5 56.5,151.5C 55.791,150.596 54.791,150.263 53.5,150.5C 53.1261,153.888 51.1261,155.722 47.5,156C 49.6936,157.807 51.0269,160.14 51.5,163C 52.8333,162.667 54.1667,162.333 55.5,162C 54.7476,162.671 54.4142,163.504 54.5,164.5C 37.5,164.5 20.5,164.5 3.5,164.5C 3.71386,157.803 3.38052,151.136 2.5,144.5C 5.93441,131.079 6.26774,117.579 3.5,104C 3.95468,98.5537 4.95468,93.2204 6.5,88C 5.33333,87.5 4.5,86.6667 4,85.5C 3.33333,80.8333 3.33333,76.1667 4,71.5C 4.77385,69.0607 6.27385,67.2273 8.5,66C 7.38256,64.1079 5.71589,63.2746 3.5,63.5C 3.4368,57.7347 4.10346,52.0681 5.5,46.5C 5.37992,30.9016 5.37992,15.2349 5.5,-0.5 Z"/></g>
<g><path style="opacity:1" fill="#504340" d="M 13.5,99.5 C 15.0269,99.427 16.0269,100.094 16.5,101.5C 16.5,102.167 16.5,102.833 16.5,103.5C 15.8333,104.833 15.1667,106.167 14.5,107.5C 13.5269,105.052 13.1936,102.385 13.5,99.5 Z"/></g>
<g><path style="opacity:1" fill="#926a66" d="M 82.5,115.5 C 82.5,114.833 82.1667,114.5 81.5,114.5C 83.0234,112.414 82.69,110.748 80.5,109.5C 73.7747,105.849 66.7747,105.515 59.5,108.5C 54.3065,110.598 54.3065,112.765 59.5,115C 58.944,115.383 58.6107,115.883 58.5,116.5C 57.8333,117.167 57.1667,117.833 56.5,118.5C 55.4314,116.031 54.0981,113.698 52.5,111.5C 52.6667,110.833 52.8333,110.167 53,109.5C 59.1335,105.261 65.9668,103.761 73.5,105C 78.6028,104.885 82.6028,106.885 85.5,111C 84.6521,112.666 83.6521,114.166 82.5,115.5 Z"/></g>
<g><path style="opacity:1" fill="#b6595e" d="M 39.5,102.5 C 42.1731,102.684 42.8398,103.851 41.5,106C 34.2735,107.594 26.9402,107.928 19.5,107C 17.5743,106.578 16.5743,105.411 16.5,103.5C 17.8333,103.5 19.1667,103.5 20.5,103.5C 20.5,104.5 20.5,105.5 20.5,106.5C 26.1764,106.666 31.8431,106.499 37.5,106C 38.2524,105.329 38.5858,104.496 38.5,103.5C 38.5,102.833 38.8333,102.5 39.5,102.5 Z"/></g>
<g><path style="opacity:1" fill="#855958" d="M 44.5,106.5 C 39.5617,108.947 34.2283,109.947 28.5,109.5C 23.5662,109.771 18.8996,109.104 14.5,107.5C 15.1667,106.167 15.8333,104.833 16.5,103.5C 16.5743,105.411 17.5743,106.578 19.5,107C 26.9402,107.928 34.2735,107.594 41.5,106C 42.8398,103.851 42.1731,102.684 39.5,102.5C 39.5,102.167 39.5,101.833 39.5,101.5C 43.462,100.278 45.1287,101.945 44.5,106.5 Z"/></g>
<g><path style="opacity:1" fill="#dd5c62" d="M 20.5,103.5 C 26.5,103.5 32.5,103.5 38.5,103.5C 38.5858,104.496 38.2524,105.329 37.5,106C 31.8431,106.499 26.1764,106.666 20.5,106.5C 20.5,105.5 20.5,104.5 20.5,103.5 Z"/></g>
<g><path style="opacity:1" fill="#943d3c" d="M 80.5,109.5 C 78.8333,109.5 77.1667,109.5 75.5,109.5C 71.6888,108.355 67.6888,108.188 63.5,109C 61.8934,110.049 61.2267,111.549 61.5,113.5C 59.7868,112.365 59.1201,110.698 59.5,108.5C 66.7747,105.515 73.7747,105.849 80.5,109.5 Z"/></g>
<g><path style="opacity:1" fill="#6d3230" d="M 59.5,108.5 C 59.1201,110.698 59.7868,112.365 61.5,113.5C 61.5,114.5 61.5,115.5 61.5,116.5C 61.5,116.833 61.5,117.167 61.5,117.5C 61.1667,117.5 60.8333,117.5 60.5,117.5C 59.5084,117.672 58.8417,117.338 58.5,116.5C 58.6107,115.883 58.944,115.383 59.5,115C 54.3065,112.765 54.3065,110.598 59.5,108.5 Z"/></g>
<g><path style="opacity:1" fill="#f9faf0" d="M -0.5,-0.5 C 1.5,-0.5 3.5,-0.5 5.5,-0.5C 5.37992,15.2349 5.37992,30.9016 5.5,46.5C 4.10346,52.0681 3.4368,57.7347 3.5,63.5C 5.71589,63.2746 7.38256,64.1079 8.5,66C 6.27385,67.2273 4.77385,69.0607 4,71.5C 3.33333,76.1667 3.33333,80.8333 4,85.5C 4.5,86.6667 5.33333,87.5 6.5,88C 4.95468,93.2204 3.95468,98.5537 3.5,104C 6.26774,117.579 5.93441,131.079 2.5,144.5C 3.38052,151.136 3.71386,157.803 3.5,164.5C 2.16667,164.5 0.833333,164.5 -0.5,164.5C -0.5,109.5 -0.5,54.5 -0.5,-0.5 Z"/></g>
<g><path style="opacity:1" fill="#d45855" d="M 75.5,109.5 C 71.7852,109.423 68.1185,109.756 64.5,110.5C 64.5,111.833 64.5,113.167 64.5,114.5C 69.5,114.5 74.5,114.5 79.5,114.5C 79.67,113.178 79.3366,112.011 78.5,111C 79.4158,110.722 80.0825,110.222 80.5,109.5C 82.69,110.748 83.0234,112.414 81.5,114.5C 80.7109,114.783 80.0442,115.283 79.5,116C 73.5092,116.499 67.5092,116.666 61.5,116.5C 61.5,115.5 61.5,114.5 61.5,113.5C 61.2267,111.549 61.8934,110.049 63.5,109C 67.6888,108.188 71.6888,108.355 75.5,109.5 Z"/></g>
<g><path style="opacity:1" fill="#ef4f54" d="M 75.5,109.5 C 77.1667,109.5 78.8333,109.5 80.5,109.5C 80.0825,110.222 79.4158,110.722 78.5,111C 79.3366,112.011 79.67,113.178 79.5,114.5C 74.5,114.5 69.5,114.5 64.5,114.5C 64.5,113.167 64.5,111.833 64.5,110.5C 68.1185,109.756 71.7852,109.423 75.5,109.5 Z"/></g>
<g><path style="opacity:1" fill="#874f29" d="M 81.5,114.5 C 82.1667,114.5 82.5,114.833 82.5,115.5C 82.1667,116.167 81.8333,116.833 81.5,117.5C 80.609,118.11 79.609,118.443 78.5,118.5C 77.791,117.596 76.791,117.263 75.5,117.5C 70.7331,118.797 66.0665,118.797 61.5,117.5C 61.5,117.167 61.5,116.833 61.5,116.5C 67.5092,116.666 73.5092,116.499 79.5,116C 80.0442,115.283 80.7109,114.783 81.5,114.5 Z"/></g>
<g><path style="opacity:1" fill="#675649" d="M 81.5,117.5 C 80.8333,120.167 80.1667,122.833 79.5,125.5C 78.8333,125.167 78.1667,124.833 77.5,124.5C 77.5172,122.435 77.8505,120.435 78.5,118.5C 79.609,118.443 80.609,118.11 81.5,117.5 Z"/></g>
<g><path style="opacity:1" fill="#e8cd7a" d="M 69.5,121.5 C 71.1765,122.183 71.8432,123.517 71.5,125.5C 69.7354,126.461 67.7354,126.795 65.5,126.5C 63.7809,125.978 62.4475,124.978 61.5,123.5C 61.9231,120.753 63.5898,119.42 66.5,119.5C 68.0296,119.64 69.0296,120.307 69.5,121.5 Z"/></g>
<g><path style="opacity:1" fill="#c2a668" d="M 60.5,117.5 C 60.8333,117.5 61.1667,117.5 61.5,117.5C 66.0665,118.797 70.7331,118.797 75.5,117.5C 75.9408,120.231 76.2741,122.731 76.5,125C 74.8659,125.494 73.1992,125.66 71.5,125.5C 71.8432,123.517 71.1765,122.183 69.5,121.5C 69.0296,120.307 68.0296,119.64 66.5,119.5C 63.5898,119.42 61.9231,120.753 61.5,123.5C 59.8704,121.642 59.5371,119.642 60.5,117.5 Z"/></g>
<g><path style="opacity:1" fill="#a2966d" d="M 75.5,117.5 C 76.791,117.263 77.791,117.596 78.5,118.5C 77.8505,120.435 77.5172,122.435 77.5,124.5C 76.4107,126.117 74.744,126.95 72.5,127C 69.9615,127.796 67.6282,127.629 65.5,126.5C 67.7354,126.795 69.7354,126.461 71.5,125.5C 73.1992,125.66 74.8659,125.494 76.5,125C 76.2741,122.731 75.9408,120.231 75.5,117.5 Z"/></g>
<g><path style="opacity:1" fill="#f3d856" d="M 69.5,121.5 C 69.5,122.5 69.5,123.5 69.5,124.5C 67.0225,124.949 65.0225,124.283 63.5,122.5C 65.396,121.534 67.396,121.201 69.5,121.5 Z"/></g>
<g><path style="opacity:1" fill="#a69b7f" d="M 58.5,116.5 C 58.8417,117.338 59.5084,117.672 60.5,117.5C 59.5371,119.642 59.8704,121.642 61.5,123.5C 62.4475,124.978 63.7809,125.978 65.5,126.5C 65.1667,126.5 64.8333,126.5 64.5,126.5C 63.1266,126.657 61.7932,126.49 60.5,126C 60.0015,123.205 59.0015,121.371 57.5,120.5C 56.6618,120.158 56.3284,119.492 56.5,118.5C 57.1667,117.833 57.8333,117.167 58.5,116.5 Z"/></g>
<g><path style="opacity:1" fill="#323a36" d="M 64.5,126.5 C 64.5,127.167 64.1667,127.5 63.5,127.5C 62.8333,127.5 62.1667,127.5 61.5,127.5C 60.8333,127.5 60.1667,127.5 59.5,127.5C 59.1583,126.662 58.4916,126.328 57.5,126.5C 58.6414,124.549 58.6414,122.549 57.5,120.5C 59.0015,121.371 60.0015,123.205 60.5,126C 61.7932,126.49 63.1266,126.657 64.5,126.5 Z"/></g>
<g><path style="opacity:1" fill="#263f43" d="M 57.5,126.5 C 54.3112,129.264 53.6445,132.598 55.5,136.5C 55.5,136.833 55.5,137.167 55.5,137.5C 53.8586,135.713 52.8586,133.546 52.5,131C 52.8564,128.141 54.5231,126.641 57.5,126.5 Z"/></g>
<g><path style="opacity:1" fill="#509bbd" d="M 57.5,126.5 C 58.4916,126.328 59.1583,126.662 59.5,127.5C 57.5988,132.353 58.5988,136.52 62.5,140C 59.9812,139.407 57.6478,138.241 55.5,136.5C 53.6445,132.598 54.3112,129.264 57.5,126.5 Z"/></g>
<g><path style="opacity:1" fill="#295a77" d="M 59.5,127.5 C 60.1667,127.5 60.8333,127.5 61.5,127.5C 61.2767,129.342 60.9434,131.175 60.5,133C 62.0611,135.965 63.7278,138.798 65.5,141.5C 65.1667,142.167 64.8333,142.833 64.5,143.5C 64.1667,143.5 63.8333,143.5 63.5,143.5C 60.1092,142.471 57.4426,140.471 55.5,137.5C 55.5,137.167 55.5,136.833 55.5,136.5C 57.6478,138.241 59.9812,139.407 62.5,140C 58.5988,136.52 57.5988,132.353 59.5,127.5 Z"/></g>
<g><path style="opacity:1" fill="#4c92b4" d="M 79.5,139.5 C 77.8333,140.167 76.1667,140.833 74.5,141.5C 77.9586,138.123 78.9586,134.123 77.5,129.5C 77.0011,133.208 75.6678,136.541 73.5,139.5C 73.5753,136.225 73.242,132.892 72.5,129.5C 74.6077,128.645 76.7744,127.978 79,127.5C 82.2052,128.798 83.2052,131.132 82,134.5C 80.9055,136.078 80.0722,137.745 79.5,139.5 Z"/></g>
<g><path style="opacity:1" fill="#28526a" d="M 77.5,124.5 C 78.1667,124.833 78.8333,125.167 79.5,125.5C 82.7602,126.484 84.4268,128.817 84.5,132.5C 84.4327,136.13 82.766,138.463 79.5,139.5C 80.0722,137.745 80.9055,136.078 82,134.5C 83.2052,131.132 82.2052,128.798 79,127.5C 76.7744,127.978 74.6077,128.645 72.5,129.5C 73.242,132.892 73.5753,136.225 73.5,139.5C 75.6678,136.541 77.0011,133.208 77.5,129.5C 78.9586,134.123 77.9586,138.123 74.5,141.5C 73.2022,140.884 72.2022,140.884 71.5,141.5C 70.8333,141.5 70.1667,141.5 69.5,141.5C 70.8127,137.924 71.3127,134.258 71,130.5C 69.6667,129.167 68.3333,129.167 67,130.5C 66.6658,133.766 66.4992,136.766 66.5,139.5C 65.1311,135.565 64.1311,131.565 63.5,127.5C 64.1667,127.5 64.5,127.167 64.5,126.5C 64.8333,126.5 65.1667,126.5 65.5,126.5C 67.6282,127.629 69.9615,127.796 72.5,127C 74.744,126.95 76.4107,126.117 77.5,124.5 Z"/></g>
<g><path style="opacity:1" fill="#3994b7" d="M 61.5,127.5 C 62.1667,127.5 62.8333,127.5 63.5,127.5C 64.1311,131.565 65.1311,135.565 66.5,139.5C 66.4992,136.766 66.6658,133.766 67,130.5C 68.3333,129.167 69.6667,129.167 71,130.5C 71.3127,134.258 70.8127,137.924 69.5,141.5C 68.1667,141.5 66.8333,141.5 65.5,141.5C 63.7278,138.798 62.0611,135.965 60.5,133C 60.9434,131.175 61.2767,129.342 61.5,127.5 Z"/></g>
<g><path style="opacity:1" fill="#375136" d="M 65.5,141.5 C 66.8333,141.5 68.1667,141.5 69.5,141.5C 70.1667,141.5 70.8333,141.5 71.5,141.5C 72.1667,142.5 72.8333,143.5 73.5,144.5C 72.8333,144.5 72.5,144.833 72.5,145.5C 70.283,146.369 67.9496,146.702 65.5,146.5C 64.8902,145.609 64.5569,144.609 64.5,143.5C 64.8333,142.833 65.1667,142.167 65.5,141.5 Z"/></g>
<g><path style="opacity:1" fill="#597573" d="M 79.5,139.5 C 78.0837,141.179 76.7503,142.846 75.5,144.5C 74.8333,144.5 74.1667,144.5 73.5,144.5C 72.8333,143.5 72.1667,142.5 71.5,141.5C 72.2022,140.884 73.2022,140.884 74.5,141.5C 76.1667,140.833 77.8333,140.167 79.5,139.5 Z"/></g>
<g><path style="opacity:1" fill="#cdb589" d="M 72.5,145.5 C 74.1958,145.685 75.5291,146.519 76.5,148C 75.552,148.483 74.552,148.649 73.5,148.5C 73.44,147.957 73.1067,147.624 72.5,147.5C 70.6067,154.105 68.6067,154.105 66.5,147.5C 64.5808,148.612 62.9142,149.946 61.5,151.5C 60.8333,151.833 60.1667,152.167 59.5,152.5C 59.0618,152.565 58.7284,152.399 58.5,152C 60.4412,149.546 62.7746,147.713 65.5,146.5C 67.9496,146.702 70.283,146.369 72.5,145.5 Z"/></g>
<g><path style="opacity:1" fill="#8e785e" d="M 72.5,145.5 C 72.5,144.833 72.8333,144.5 73.5,144.5C 74.1667,144.5 74.8333,144.5 75.5,144.5C 78.1667,146.5 80.5,148.833 82.5,151.5C 79.87,152.473 77.37,152.806 75,152.5C 73.8118,151.437 73.3118,150.103 73.5,148.5C 74.552,148.649 75.552,148.483 76.5,148C 75.5291,146.519 74.1958,145.685 72.5,145.5 Z"/></g>
<g><path style="opacity:1" fill="#86633f" d="M 73.5,148.5 C 72.2801,150.05 72.2801,151.716 73.5,153.5C 69.1869,154.01 65.1869,153.343 61.5,151.5C 62.9142,149.946 64.5808,148.612 66.5,147.5C 68.6067,154.105 70.6067,154.105 72.5,147.5C 73.1067,147.624 73.44,147.957 73.5,148.5 Z"/></g>
<g><path style="opacity:1" fill="#6c4e46" d="M 63.5,143.5 C 63.8333,143.5 64.1667,143.5 64.5,143.5C 64.5569,144.609 64.8902,145.609 65.5,146.5C 62.7746,147.713 60.4412,149.546 58.5,152C 58.7284,152.399 59.0618,152.565 59.5,152.5C 57.7809,153.022 56.4475,154.022 55.5,155.5C 57.2747,157.584 59.6081,158.751 62.5,159C 67.0204,159.814 71.3537,159.647 75.5,158.5C 77.1667,158.5 78.8333,158.5 80.5,158.5C 80.9258,156.861 80.9258,155.528 80.5,154.5C 78.3926,153.532 76.0593,153.198 73.5,153.5C 72.2801,151.716 72.2801,150.05 73.5,148.5C 73.3118,150.103 73.8118,151.437 75,152.5C 77.37,152.806 79.87,152.473 82.5,151.5C 83.5,151.5 84.5,151.5 85.5,151.5C 85.9577,154.394 85.291,156.894 83.5,159C 74.8802,160.464 66.2135,160.798 57.5,160C 52.6412,157.639 52.3079,154.806 56.5,151.5C 57.1667,151.5 57.5,151.167 57.5,150.5C 59.7267,148.393 61.7267,146.06 63.5,143.5 Z"/></g>
<g><path style="opacity:1" fill="#c25659" d="M 80.5,154.5 C 80.9258,155.528 80.9258,156.861 80.5,158.5C 78.8333,158.5 77.1667,158.5 75.5,158.5C 71.3537,159.647 67.0204,159.814 62.5,159C 59.6081,158.751 57.2747,157.584 55.5,155.5C 63.7788,154.56 72.1122,154.227 80.5,154.5 Z"/></g>
<g><path style="opacity:1" fill="#6d2a1e" d="M 61.5,151.5 C 65.1869,153.343 69.1869,154.01 73.5,153.5C 76.0593,153.198 78.3926,153.532 80.5,154.5C 72.1122,154.227 63.7788,154.56 55.5,155.5C 56.4475,154.022 57.7809,153.022 59.5,152.5C 60.1667,152.167 60.8333,151.833 61.5,151.5 Z"/></g>
<g><path style="opacity:1" fill="#e65860" d="M 75.5,158.5 C 70.968,158.931 66.6346,158.431 62.5,157C 65.3089,155.878 68.3089,155.378 71.5,155.5C 74.1667,155.833 76.8333,156.167 79.5,156.5C 78.0508,157.172 76.7175,157.839 75.5,158.5 Z"/></g>
</svg>
