<?xml version="1.0" encoding="UTF-8"?>
<!DOCTYPE svg PUBLIC "-//W3C//DTD SVG 1.1//EN" "http://www.w3.org/Graphics/SVG/1.1/DTD/svg11.dtd">
<svg xmlns="http://www.w3.org/2000/svg" version="1.1" width="100px" height="165px" style="shape-rendering:geometricPrecision; text-rendering:geometricPrecision; image-rendering:optimizeQuality; fill-rule:evenodd; clip-rule:evenodd" xmlns:xlink="http://www.w3.org/1999/xlink">
<g><path style="opacity:1" fill="#fcfcfc" d="M -0.5,-0.5 C 32.8333,-0.5 66.1667,-0.5 99.5,-0.5C 99.5,54.5 99.5,109.5 99.5,164.5C 66.1667,164.5 32.8333,164.5 -0.5,164.5C -0.5,109.5 -0.5,54.5 -0.5,-0.5 Z"/></g>
<g><path style="opacity:1" fill="#66615d" d="M 30.5,3.5 C 46.76,4.59299 54.26,13.2597 53,29.5C 48.5852,42.9141 39.4185,48.4141 25.5,46C 12.2859,39.0155 8.11922,28.5155 13,14.5C 15.1753,11.6238 17.6753,9.12377 20.5,7C 23.8502,5.51368 27.1835,4.34702 30.5,3.5 Z"/></g>
<g><path style="opacity:1" fill="#6f4e36" d="M 49.5,21.5 C 50.1064,26.2195 48.4397,29.8862 44.5,32.5C 45.2458,33.7362 45.5792,35.0695 45.5,36.5C 40.8345,41.9869 34.8345,43.9869 27.5,42.5C 27.7358,40.9509 27.7358,39.4509 27.5,38C 25.0709,37.2967 22.7375,37.4634 20.5,38.5C 15.1627,33.3088 13.3294,26.9755 15,19.5C 19.4205,9.01186 27.2538,5.17852 38.5,8C 44.6212,10.6103 48.2878,15.1103 49.5,21.5 Z"/></g>
<g><path style="opacity:1" fill="#c8aa86" d="M 20.5,31.5 C 22.4171,30.8836 23.5838,29.5503 24,27.5C 24.49,28.7932 24.6567,30.1266 24.5,31.5C 25.8333,31.5 27.1667,31.5 28.5,31.5C 29.657,33.1376 30.8236,34.8043 32,36.5C 33.8451,32.2052 36.5118,31.5385 40,34.5C 39.6256,32.2313 39.6256,29.898 40,27.5C 44.4387,25.7875 44.4387,24.4542 40,23.5C 39.5045,21.5273 39.3379,19.5273 39.5,17.5C 36.4349,17.7593 33.9349,16.7593 32,14.5C 30.122,17.4501 27.622,18.1167 24.5,16.5C 24.669,20.191 24.0024,23.8577 22.5,27.5C 20.4352,27.4828 18.4352,27.1495 16.5,26.5C 16.33,25.1779 16.6634,24.0113 17.5,23C 23.4447,22.4249 24.778,19.7582 21.5,15C 21.8333,14.1667 22.1667,13.3333 22.5,12.5C 24.4872,14.3274 26.8205,15.3274 29.5,15.5C 29.0217,12.7224 30.0217,10.7224 32.5,9.5C 34.9783,10.7224 35.9783,12.7224 35.5,15.5C 37.5996,15.5228 39.4329,14.8561 41,13.5C 41.772,13.6448 42.4387,13.9781 43,14.5C 43.3264,17.3323 42.8264,19.999 41.5,22.5C 50.3572,23.8732 50.5239,25.8732 42,28.5C 42.9189,31.2836 43.4189,34.2836 43.5,37.5C 40.366,36.7593 37.366,35.7593 34.5,34.5C 34.9675,37.3795 34.1341,39.7129 32,41.5C 29.5061,39.8331 28.0061,37.4998 27.5,34.5C 25.4902,36.1713 23.1569,36.838 20.5,36.5C 20.5,34.8333 20.5,33.1667 20.5,31.5 Z"/></g>
<g><path style="opacity:1" fill="#5c3b28" d="M 28.5,31.5 C 27.1667,31.5 25.8333,31.5 24.5,31.5C 24.6567,30.1266 24.49,28.7932 24,27.5C 23.5838,29.5503 22.4171,30.8836 20.5,31.5C 18.807,30.1467 17.4736,28.48 16.5,26.5C 18.4352,27.1495 20.4352,27.4828 22.5,27.5C 24.0024,23.8577 24.669,20.191 24.5,16.5C 27.622,18.1167 30.122,17.4501 32,14.5C 33.9349,16.7593 36.4349,17.7593 39.5,17.5C 39.3379,19.5273 39.5045,21.5273 40,23.5C 44.4387,24.4542 44.4387,25.7875 40,27.5C 39.6256,29.898 39.6256,32.2313 40,34.5C 36.5118,31.5385 33.8451,32.2052 32,36.5C 30.8236,34.8043 29.657,33.1376 28.5,31.5 Z"/></g>
<g><path style="opacity:1" fill="#a87362" d="M 28.5,31.5 C 26.657,28.4363 26.157,25.1029 27,21.5C 29.7993,17.855 32.966,17.5217 36.5,20.5C 37.4556,21.8651 38.1223,23.3651 38.5,25C 37.3802,26.7374 36.3802,28.5708 35.5,30.5C 33.2573,31.4742 30.924,31.8076 28.5,31.5 Z"/></g>
<g><path style="opacity:1" fill="#83382d" d="M 28.5,21.5 C 30.5273,21.3379 32.5273,21.5045 34.5,22C 34.1667,22.3333 33.8333,22.6667 33.5,23C 36.4583,27.0344 35.4583,29.0344 30.5,29C 27.8477,26.905 27.181,24.405 28.5,21.5 Z"/></g>
<g><path style="opacity:1" fill="#cec2bc" d="M 49.5,21.5 C 48.2878,15.1103 44.6212,10.6103 38.5,8C 27.2538,5.17852 19.4205,9.01186 15,19.5C 13.3294,26.9755 15.1627,33.3088 20.5,38.5C 22.3356,40.588 24.6689,41.9213 27.5,42.5C 34.8345,43.9869 40.8345,41.9869 45.5,36.5C 47.2225,34.7472 48.7225,32.7472 50,30.5C 48.9627,38.2048 44.4627,42.7048 36.5,44C 18.1785,44.3456 10.6785,35.5123 14,17.5C 18.9605,7.93682 26.7939,4.10348 37.5,6C 48.2822,9.77297 52.7822,17.273 51,28.5C 50.8138,25.9644 50.3138,23.631 49.5,21.5 Z"/></g>
<g><path style="opacity:1" fill="#947863" d="M 27.5,42.5 C 24.6689,41.9213 22.3356,40.588 20.5,38.5C 22.7375,37.4634 25.0709,37.2967 27.5,38C 27.7358,39.4509 27.7358,40.9509 27.5,42.5 Z"/></g>
<g><path style="opacity:1" fill="#544d49" d="M 80.5,99.5 C 80.5,99.1667 80.5,98.8333 80.5,98.5C 83.7539,96.3226 85.7539,93.3226 86.5,89.5C 90.4895,74.1871 84.4895,65.5205 68.5,63.5C 64.3499,63.9089 60.3499,64.9089 56.5,66.5C 63.0947,60.7602 70.428,59.9268 78.5,64C 87.6383,69.7477 91.1383,77.9144 89,88.5C 88.556,91.6108 87.2227,94.2775 85,96.5C 83.871,98.1412 82.371,99.1412 80.5,99.5 Z"/></g>
<g><path style="opacity:1" fill="#d7ccc5" d="M 86.5,89.5 C 85.7539,93.3226 83.7539,96.3226 80.5,98.5C 74.6649,102.649 68.3316,103.483 61.5,101C 58.6711,99.6443 56.0045,98.1443 53.5,96.5C 47.3009,85.6808 48.3009,75.6808 56.5,66.5C 60.3499,64.9089 64.3499,63.9089 68.5,63.5C 84.4895,65.5205 90.4895,74.1871 86.5,89.5 Z"/></g>
<g><path style="opacity:1" fill="#715445" d="M 55.5,71.5 C 56.6303,74.1967 56.6303,76.8633 55.5,79.5C 53.439,80.7514 53.1057,82.4181 54.5,84.5C 55.7362,85.2458 57.0695,85.5792 58.5,85.5C 59.8333,86.5 59.8333,87.5 58.5,88.5C 57.5418,90.3024 56.8751,92.3024 56.5,94.5C 55.5041,94.5858 54.6708,94.2524 54,93.5C 48.9302,85.6474 49.4302,78.3141 55.5,71.5 Z"/></g>
<g><path style="opacity:1" fill="#d2b58b" d="M 73.5,73.5 C 75.588,72.0605 77.9214,71.3939 80.5,71.5C 80.4558,74.3158 79.4558,76.6492 77.5,78.5C 76.7025,78.0431 76.3691,77.3764 76.5,76.5C 76.631,75.7611 76.4643,75.0944 76,74.5C 73.1751,76.0843 71.0084,75.4176 69.5,72.5C 67.352,75.3704 64.6853,76.037 61.5,74.5C 60.5258,76.7427 60.1924,79.076 60.5,81.5C 56.9952,81.6941 56.6618,82.6941 59.5,84.5C 59.5,85.1667 59.1667,85.5 58.5,85.5C 57.0695,85.5792 55.7362,85.2458 54.5,84.5C 53.1057,82.4181 53.439,80.7514 55.5,79.5C 56.8333,79.5 58.1667,79.5 59.5,79.5C 59.1489,76.7623 58.4822,74.0956 57.5,71.5C 57.8333,71.1667 58.1667,70.8333 58.5,70.5C 60.9793,72.0761 63.646,73.0761 66.5,73.5C 66.1459,70.5794 67.1459,68.2461 69.5,66.5C 71.1274,68.7654 72.4608,71.0987 73.5,73.5 Z"/></g>
<g><path style="opacity:1" fill="#73553b" d="M 72.5,65.5 C 84.2961,69.0664 88.9628,77.0664 86.5,89.5C 84.4848,91.576 82.4848,93.576 80.5,95.5C 80.4935,92.4824 79.4935,89.8157 77.5,87.5C 79.896,86.1429 82.2293,84.6429 84.5,83C 82.4901,80.4986 80.1568,79.9986 77.5,81.5C 75.655,80.0045 75.3217,78.3379 76.5,76.5C 76.3691,77.3764 76.7025,78.0431 77.5,78.5C 79.4558,76.6492 80.4558,74.3158 80.5,71.5C 77.9214,71.3939 75.588,72.0605 73.5,73.5C 73.4249,70.7938 73.0916,68.1272 72.5,65.5 Z"/></g>
<g><path style="opacity:1" fill="#9e7869" d="M 64.5,65.5 C 66.4144,67.1939 66.2477,69.1939 64,71.5C 62.6545,69.6583 60.8211,68.6583 58.5,68.5C 60.1815,66.9925 62.1815,65.9925 64.5,65.5 Z"/></g>
<g><path style="opacity:1" fill="#593a23" d="M 64.5,65.5 C 67.1667,65.5 69.8333,65.5 72.5,65.5C 73.0916,68.1272 73.4249,70.7938 73.5,73.5C 72.4608,71.0987 71.1274,68.7654 69.5,66.5C 67.1459,68.2461 66.1459,70.5794 66.5,73.5C 63.646,73.0761 60.9793,72.0761 58.5,70.5C 58.1667,70.8333 57.8333,71.1667 57.5,71.5C 58.4822,74.0956 59.1489,76.7623 59.5,79.5C 58.1667,79.5 56.8333,79.5 55.5,79.5C 56.6303,76.8633 56.6303,74.1967 55.5,71.5C 56.1667,70.1667 57.1667,69.1667 58.5,68.5C 60.8211,68.6583 62.6545,69.6583 64,71.5C 66.2477,69.1939 66.4144,67.1939 64.5,65.5 Z"/></g>
<g><path style="opacity:1" fill="#563b24" d="M 76.5,76.5 C 75.3217,78.3379 75.655,80.0045 77.5,81.5C 78.2625,82.2679 79.2625,82.7679 80.5,83C 79.0692,83.4652 77.9025,84.2986 77,85.5C 76.8078,87.5767 76.3078,89.5767 75.5,91.5C 72.1844,89.9871 69.8511,90.9871 68.5,94.5C 67.8503,92.8164 66.8503,91.4831 65.5,90.5C 65.8417,89.6618 66.5084,89.3284 67.5,89.5C 72.4258,89.67 74.7591,87.3367 74.5,82.5C 73.3574,76.5503 70.0241,75.0503 64.5,78C 63.0203,79.2991 62.3536,80.9658 62.5,83C 63.0911,85.239 63.7578,87.4057 64.5,89.5C 63.5,89.5 62.5,89.5 61.5,89.5C 61.8799,87.302 61.2132,85.6354 59.5,84.5C 56.6618,82.6941 56.9952,81.6941 60.5,81.5C 60.1924,79.076 60.5258,76.7427 61.5,74.5C 64.6853,76.037 67.352,75.3704 69.5,72.5C 71.0084,75.4176 73.1751,76.0843 76,74.5C 76.4643,75.0944 76.631,75.7611 76.5,76.5 Z"/></g>
<g><path style="opacity:1" fill="#62281e" d="M 68.5,79.5 C 69.5,79.8333 70.1667,80.5 70.5,81.5C 67.4124,81.1966 65.7458,82.5299 65.5,85.5C 63.8094,82.3362 64.8094,80.3362 68.5,79.5 Z"/></g>
<g><path style="opacity:1" fill="#93715c" d="M 74.5,82.5 C 72.8506,81.3515 71.3506,80.0182 70,78.5C 69.2352,78.5699 68.7352,78.9033 68.5,79.5C 64.8094,80.3362 63.8094,82.3362 65.5,85.5C 65.5271,87.1993 66.1938,88.5326 67.5,89.5C 66.5084,89.3284 65.8417,89.6618 65.5,90.5C 63.7376,90.3573 62.0709,90.6906 60.5,91.5C 59.2888,90.7261 59.2888,89.8928 60.5,89C 59.9056,88.5357 59.2389,88.369 58.5,88.5C 59.8333,87.5 59.8333,86.5 58.5,85.5C 59.1667,85.5 59.5,85.1667 59.5,84.5C 61.2132,85.6354 61.8799,87.302 61.5,89.5C 62.5,89.5 63.5,89.5 64.5,89.5C 63.7578,87.4057 63.0911,85.239 62.5,83C 62.3536,80.9658 63.0203,79.2991 64.5,78C 70.0241,75.0503 73.3574,76.5503 74.5,82.5 Z"/></g>
<g><path style="opacity:1" fill="#a93f32" d="M 70.5,81.5 C 71.9186,86.9482 70.2519,88.2816 65.5,85.5C 65.7458,82.5299 67.4124,81.1966 70.5,81.5 Z"/></g>
<g><path style="opacity:1" fill="#ac6757" d="M 68.5,79.5 C 68.7352,78.9033 69.2352,78.5699 70,78.5C 71.3506,80.0182 72.8506,81.3515 74.5,82.5C 74.7591,87.3367 72.4258,89.67 67.5,89.5C 66.1938,88.5326 65.5271,87.1993 65.5,85.5C 70.2519,88.2816 71.9186,86.9482 70.5,81.5C 70.1667,80.5 69.5,79.8333 68.5,79.5 Z"/></g>
<g><path style="opacity:1" fill="#54514d" d="M 56.5,66.5 C 48.3009,75.6808 47.3009,85.6808 53.5,96.5C 49.269,93.3182 47.269,88.9849 47.5,83.5C 47.6786,76.1333 50.6786,70.4666 56.5,66.5 Z"/></g>
<g><path style="opacity:1" fill="#ceb58d" d="M 80.5,95.5 C 77.6583,95.3854 75.1583,94.3854 73,92.5C 71.2295,94.6172 69.7295,96.9506 68.5,99.5C 67.4777,99.1445 66.811,98.4778 66.5,97.5C 66.6716,96.5084 66.3382,95.8417 65.5,95.5C 65.5,94.5 65.5,93.5 65.5,92.5C 62.5739,93.4608 59.5739,94.1274 56.5,94.5C 56.8751,92.3024 57.5418,90.3024 58.5,88.5C 59.2389,88.369 59.9056,88.5357 60.5,89C 59.2888,89.8928 59.2888,90.7261 60.5,91.5C 62.0709,90.6906 63.7376,90.3573 65.5,90.5C 66.8503,91.4831 67.8503,92.8164 68.5,94.5C 69.8511,90.9871 72.1844,89.9871 75.5,91.5C 76.3078,89.5767 76.8078,87.5767 77,85.5C 77.9025,84.2986 79.0692,83.4652 80.5,83C 79.2625,82.7679 78.2625,82.2679 77.5,81.5C 80.1568,79.9986 82.4901,80.4986 84.5,83C 82.2293,84.6429 79.896,86.1429 77.5,87.5C 79.4935,89.8157 80.4935,92.4824 80.5,95.5 Z"/></g>
<g><path style="opacity:1" fill="#553610" d="M 65.5,95.5 C 62.9962,94.6745 59.9962,94.6745 56.5,95.5C 56.5,95.1667 56.5,94.8333 56.5,94.5C 59.5739,94.1274 62.5739,93.4608 65.5,92.5C 65.5,93.5 65.5,94.5 65.5,95.5 Z"/></g>
<g><path style="opacity:1" fill="#8e7757" d="M 65.5,95.5 C 66.3382,95.8417 66.6716,96.5084 66.5,97.5C 65.596,98.209 65.2627,99.209 65.5,100.5C 61.893,99.7574 58.893,98.0907 56.5,95.5C 59.9962,94.6745 62.9962,94.6745 65.5,95.5 Z"/></g>
<g><path style="opacity:1" fill="#734c3d" d="M 80.5,95.5 C 76.5755,99.9612 71.5755,101.628 65.5,100.5C 65.2627,99.209 65.596,98.209 66.5,97.5C 66.811,98.4778 67.4777,99.1445 68.5,99.5C 69.7295,96.9506 71.2295,94.6172 73,92.5C 75.1583,94.3854 77.6583,95.3854 80.5,95.5 Z"/></g>
<g><path style="opacity:1" fill="#726d6d" d="M 53.5,96.5 C 56.0045,98.1443 58.6711,99.6443 61.5,101C 68.3316,103.483 74.6649,102.649 80.5,98.5C 80.5,98.8333 80.5,99.1667 80.5,99.5C 74.3056,104.621 67.3056,105.788 59.5,103C 57.2941,100.963 55.2941,98.7966 53.5,96.5 Z"/></g>
<g><path style="opacity:1" fill="#635e5d" d="M 27.5,119.5 C 27.5,120.167 27.8333,120.5 28.5,120.5C 13.0146,126.335 8.6813,137.001 15.5,152.5C 13.3809,151.014 11.8809,149.014 11,146.5C 8.87326,132.742 14.3733,123.742 27.5,119.5 Z"/></g>
<g><path style="opacity:1" fill="#cabeb8" d="M 28.5,120.5 C 32.1595,120.159 35.4928,120.825 38.5,122.5C 44.7194,124.217 48.8861,128.217 51,134.5C 52.9011,149.25 46.5677,157.583 32,159.5C 25.4062,159.446 19.9062,157.113 15.5,152.5C 8.6813,137.001 13.0146,126.335 28.5,120.5 Z"/></g>
<g><path style="opacity:1" fill="#63472e" d="M 29.5,122.5 C 32.5,122.5 35.5,122.5 38.5,122.5C 42.1667,124.833 45.1667,127.833 47.5,131.5C 45.4807,133.19 43.4807,134.856 41.5,136.5C 43.0461,134.118 43.7128,131.451 43.5,128.5C 40.6424,128.595 38.3091,129.762 36.5,132C 39.1468,132.315 39.8135,133.482 38.5,135.5C 39.2485,137.332 40.2485,138.999 41.5,140.5C 40.081,142.958 39.081,145.625 38.5,148.5C 35.1844,146.987 32.8511,147.987 31.5,151.5C 30.305,149.879 29.305,148.213 28.5,146.5C 35.8247,147.008 38.6581,143.674 37,136.5C 33.5019,133.88 30.0019,133.88 26.5,136.5C 25.8902,135.609 25.5569,134.609 25.5,133.5C 29.1068,133.621 31.2734,131.955 32,128.5C 32.6667,129.167 33.3333,129.833 34,130.5C 34.6667,128.833 34.6667,127.167 34,125.5C 33.2825,124.549 32.4491,124.383 31.5,125C 30.2396,127.268 28.9063,129.434 27.5,131.5C 25.9713,130.237 24.3046,129.237 22.5,128.5C 21.1498,127.35 21.3164,126.683 23,126.5C 27.3256,129.391 29.4922,128.057 29.5,122.5 Z"/></g>
<g><path style="opacity:1" fill="#cbb286" d="M 25.5,133.5 C 24.6253,135.172 23.6253,137.505 22.5,140.5C 24.6096,142.925 25.1096,145.592 24,148.5C 25.1096,146.963 26.6096,146.297 28.5,146.5C 29.305,148.213 30.305,149.879 31.5,151.5C 32.8511,147.987 35.1844,146.987 38.5,148.5C 39.081,145.625 40.081,142.958 41.5,140.5C 40.2485,138.999 39.2485,137.332 38.5,135.5C 39.8135,133.482 39.1468,132.315 36.5,132C 38.3091,129.762 40.6424,128.595 43.5,128.5C 43.7128,131.451 43.0461,134.118 41.5,136.5C 43.7813,137.314 45.7813,138.648 47.5,140.5C 46.2776,142.978 44.2776,143.978 41.5,143.5C 42.9205,146.261 43.5871,149.261 43.5,152.5C 40.3181,151.97 37.3181,150.97 34.5,149.5C 34.8493,152.463 33.8493,154.796 31.5,156.5C 29.3958,154.149 27.8958,151.482 27,148.5C 25.4912,150.919 23.3245,151.919 20.5,151.5C 20.162,148.843 20.8287,146.51 22.5,144.5C 20.2341,143.284 18.2341,141.784 16.5,140C 17.6864,137.569 19.6864,136.403 22.5,136.5C 21.7417,133.648 21.7417,130.981 22.5,128.5C 24.3046,129.237 25.9713,130.237 27.5,131.5C 28.9063,129.434 30.2396,127.268 31.5,125C 32.4491,124.383 33.2825,124.549 34,125.5C 34.6667,127.167 34.6667,128.833 34,130.5C 33.3333,129.833 32.6667,129.167 32,128.5C 31.2734,131.955 29.1068,133.621 25.5,133.5 Z"/></g>
<g><path style="opacity:1" fill="#73543d" d="M 29.5,122.5 C 29.4922,128.057 27.3256,129.391 23,126.5C 21.3164,126.683 21.1498,127.35 22.5,128.5C 21.7417,130.981 21.7417,133.648 22.5,136.5C 19.6864,136.403 17.6864,137.569 16.5,140C 18.2341,141.784 20.2341,143.284 22.5,144.5C 20.8287,146.51 20.162,148.843 20.5,151.5C 23.3245,151.919 25.4912,150.919 27,148.5C 27.8958,151.482 29.3958,154.149 31.5,156.5C 33.8493,154.796 34.8493,152.463 34.5,149.5C 37.3181,150.97 40.3181,151.97 43.5,152.5C 43.5871,149.261 42.9205,146.261 41.5,143.5C 44.2776,143.978 46.2776,142.978 47.5,140.5C 45.7813,138.648 43.7813,137.314 41.5,136.5C 43.4807,134.856 45.4807,133.19 47.5,131.5C 52.3193,143.21 48.9859,151.71 37.5,157C 23.7508,159.598 15.7508,153.931 13.5,140C 14.5363,130.134 19.8697,124.301 29.5,122.5 Z"/></g>
<g><path style="opacity:1" fill="#a56f5b" d="M 28.5,146.5 C 25.6249,143.659 24.9583,140.325 26.5,136.5C 30.0019,133.88 33.5019,133.88 37,136.5C 38.6581,143.674 35.8247,147.008 28.5,146.5 Z"/></g>
<g><path style="opacity:1" fill="#482914" d="M 25.5,133.5 C 25.5569,134.609 25.8902,135.609 26.5,136.5C 24.9583,140.325 25.6249,143.659 28.5,146.5C 26.6096,146.297 25.1096,146.963 24,148.5C 25.1096,145.592 24.6096,142.925 22.5,140.5C 23.6253,137.505 24.6253,135.172 25.5,133.5 Z"/></g>
<g><path style="opacity:1" fill="#7d2e26" d="M 31.5,136.5 C 33.3841,136.712 34.7174,137.712 35.5,139.5C 33.1184,140.351 31.1184,141.684 29.5,143.5C 26.5431,140.042 27.2098,137.709 31.5,136.5 Z"/></g>
<g><path style="opacity:1" fill="#585551" d="M 27.5,119.5 C 42.4393,118.12 50.7727,124.786 52.5,139.5C 52.3598,153.308 45.3598,160.641 31.5,161.5C 24.2762,161.562 18.9429,158.562 15.5,152.5C 19.9062,157.113 25.4062,159.446 32,159.5C 46.5677,157.583 52.9011,149.25 51,134.5C 48.8861,128.217 44.7194,124.217 38.5,122.5C 35.4928,120.825 32.1595,120.159 28.5,120.5C 27.8333,120.5 27.5,120.167 27.5,119.5 Z"/></g>
</svg>
