<?xml version="1.0" encoding="UTF-8"?>
<!DOCTYPE svg PUBLIC "-//W3C//DTD SVG 1.1//EN" "http://www.w3.org/Graphics/SVG/1.1/DTD/svg11.dtd">
<svg xmlns="http://www.w3.org/2000/svg" version="1.1" width="100px" height="165px" style="shape-rendering:geometricPrecision; text-rendering:geometricPrecision; image-rendering:optimizeQuality; fill-rule:evenodd; clip-rule:evenodd" xmlns:xlink="http://www.w3.org/1999/xlink">
<g><path style="opacity:1" fill="#f9faf9" d="M -0.5,-0.5 C 32.8333,-0.5 66.1667,-0.5 99.5,-0.5C 99.5,26.8333 99.5,54.1667 99.5,81.5C 98.7784,81.9175 98.2784,82.5842 98,83.5C 97.7508,82.376 97.2508,81.376 96.5,80.5C 95.1758,85.5962 95.5092,90.5962 97.5,95.5C 95.7388,101.899 95.0721,108.232 95.5,114.5C 93.5,117.167 91.5,117.167 89.5,114.5C 88.8165,114.863 88.1499,115.196 87.5,115.5C 86.5084,115.328 85.8417,115.662 85.5,116.5C 85.1667,116.5 84.8333,116.5 84.5,116.5C 84.6319,93.4908 84.2986,70.4908 83.5,47.5C 83.8286,34.9887 83.4952,22.6554 82.5,10.5C 81.8736,8.23694 80.5403,6.57027 78.5,5.5C 75.7839,6.88258 73.7839,8.88258 72.5,11.5C 70.8719,7.38145 69.8719,7.54812 69.5,12C 70.4908,15.4346 71.1575,18.9346 71.5,22.5C 70.2304,28.3988 69.5637,34.3988 69.5,40.5C 68.325,40.719 67.325,40.3857 66.5,39.5C 65.9169,37.9984 65.0836,36.6651 64,35.5C 63.6667,35.8333 63.3333,36.1667 63,36.5C 61.908,33.9556 61.2414,31.2889 61,28.5C 60.5291,30.2464 59.8624,31.913 59,33.5C 58.0869,29.75 57.7536,26.0834 58,22.5C 57.6667,22.8333 57.3333,23.1667 57,23.5C 55.9651,21.1089 55.7985,18.7756 56.5,16.5C 56.229,13.9527 55.229,11.9527 53.5,10.5C 53.5,8.5 53.5,6.5 53.5,4.5C 51.8333,4.5 50.1667,4.5 48.5,4.5C 48.0019,9.15224 47.6686,13.8189 47.5,18.5C 45.2506,23.5847 44.584,28.918 45.5,34.5C 38.5321,36.422 35.8654,40.7553 37.5,47.5C 38.5178,48.1925 39.5178,48.8592 40.5,49.5C 41.5676,50.4345 42.901,50.7678 44.5,50.5C 44.9597,85.4985 45.2931,120.499 45.5,155.5C 46.299,158.43 46.6323,161.43 46.5,164.5C 30.8333,164.5 15.1667,164.5 -0.5,164.5C -0.5,109.5 -0.5,54.5 -0.5,-0.5 Z"/></g>
<g><path style="opacity:1" fill="#8e725a" d="M 53.5,10.5 C 54.3686,12.717 54.702,15.0504 54.5,17.5C 53.8826,17.3893 53.3826,17.056 53,16.5C 53.2626,17.9506 53.0959,19.2839 52.5,20.5C 51.1585,18.9951 49.4918,18.3285 47.5,18.5C 47.6686,13.8189 48.0019,9.15224 48.5,4.5C 50.1667,4.5 51.8333,4.5 53.5,4.5C 53.5,6.5 53.5,8.5 53.5,10.5 Z"/></g>
<g><path style="opacity:1" fill="#e3c088" d="M 49.5,11.5 C 51.3464,11.2222 52.6798,11.8888 53.5,13.5C 52.2366,14.1075 50.5699,14.7742 48.5,15.5C 48.4326,14.0413 48.7659,12.7079 49.5,11.5 Z"/></g>
<g><path style="opacity:1" fill="#36677f" d="M 24.5,7.5 C 24.6854,9.19578 25.5187,10.5291 27,11.5C 27.4999,23.4954 27.6665,35.4954 27.5,47.5C 26.71,48.6085 26.21,49.9419 26,51.5C 25.7216,50.5842 25.2216,49.9175 24.5,49.5C 25.7497,37.6538 25.7497,27.3205 24.5,18.5C 26.1255,14.1774 25.1255,10.344 21.5,7C 22.5768,6.53042 23.5768,6.69708 24.5,7.5 Z"/></g>
<g><path style="opacity:1" fill="#6e4939" d="M 54.5,17.5 C 55.6022,23.4476 56.2688,29.4476 56.5,35.5C 55.791,36.404 54.791,36.7373 53.5,36.5C 53.0825,35.7784 52.4158,35.2784 51.5,35C 51.7284,34.6012 52.0618,34.4346 52.5,34.5C 54.2517,34.5824 55.2517,33.7491 55.5,32C 55.4591,27.9481 53.6257,25.1147 50,23.5C 49.8333,23.8333 49.6667,24.1667 49.5,24.5C 50.9814,25.4803 52.3147,26.647 53.5,28C 52.8333,28.3333 52.1667,28.6667 51.5,29C 52.5,30 53.5,31 54.5,32C 53.8333,32.6667 53.1667,32.6667 52.5,32C 50.9571,30.1217 49.1238,28.6217 47,27.5C 46.7003,29.0657 47.2003,30.399 48.5,31.5C 46.5096,31.9931 46.5096,33.1598 48.5,35C 47.552,35.4828 46.552,35.6495 45.5,35.5C 45.5,35.1667 45.5,34.8333 45.5,34.5C 44.584,28.918 45.2506,23.5847 47.5,18.5C 49.4918,18.3285 51.1585,18.9951 52.5,20.5C 53.0959,19.2839 53.2626,17.9506 53,16.5C 53.3826,17.056 53.8826,17.3893 54.5,17.5 Z"/></g>
<g><path style="opacity:1" fill="#cf9f89" d="M 52.5,34.5 C 51.7377,32.7376 50.4044,31.7376 48.5,31.5C 47.2003,30.399 46.7003,29.0657 47,27.5C 49.1238,28.6217 50.9571,30.1217 52.5,32C 53.1667,32.6667 53.8333,32.6667 54.5,32C 53.5,31 52.5,30 51.5,29C 52.1667,28.6667 52.8333,28.3333 53.5,28C 52.3147,26.647 50.9814,25.4803 49.5,24.5C 49.6667,24.1667 49.8333,23.8333 50,23.5C 53.6257,25.1147 55.4591,27.9481 55.5,32C 55.2517,33.7491 54.2517,34.5824 52.5,34.5 Z"/></g>
<g><path style="opacity:1" fill="#406679" d="M 82.5,10.5 C 83.4952,22.6554 83.8286,34.9887 83.5,47.5C 83.1667,47.5 82.8333,47.5 82.5,47.5C 81.2857,35.0125 81.2857,22.6791 82.5,10.5 Z"/></g>
<g><path style="opacity:1" fill="#976644" d="M 48.5,31.5 C 50.4044,31.7376 51.7377,32.7376 52.5,34.5C 52.0618,34.4346 51.7284,34.6012 51.5,35C 52.4158,35.2784 53.0825,35.7784 53.5,36.5C 52.5178,37.1408 51.5178,37.8075 50.5,38.5C 49.1585,36.9951 47.4918,36.3285 45.5,36.5C 45.5,36.1667 45.5,35.8333 45.5,35.5C 46.552,35.6495 47.552,35.4828 48.5,35C 46.5096,33.1598 46.5096,31.9931 48.5,31.5 Z"/></g>
<g><path style="opacity:1" fill="#2e789b" d="M 24.5,18.5 C 25.7497,27.3205 25.7497,37.6538 24.5,49.5C 26.1356,72.1318 26.8023,94.7985 26.5,117.5C 24.7162,117.107 23.0495,116.441 21.5,115.5C 21.3333,80.1651 21.5,44.8318 22,9.5C 21.9296,12.992 22.7629,15.992 24.5,18.5 Z"/></g>
<g><path style="opacity:1" fill="#817361" d="M 45.5,34.5 C 45.5,34.8333 45.5,35.1667 45.5,35.5C 45.5,35.8333 45.5,36.1667 45.5,36.5C 42.3971,37.7672 40.0637,39.9338 38.5,43C 38.7488,46.749 40.7488,48.5823 44.5,48.5C 44.5,48.8333 44.5,49.1667 44.5,49.5C 43.1667,49.5 41.8333,49.5 40.5,49.5C 39.5178,48.8592 38.5178,48.1925 37.5,47.5C 35.8654,40.7553 38.5321,36.422 45.5,34.5 Z"/></g>
<g><path style="opacity:1" fill="#a48862" d="M 56.5,35.5 C 63.7259,37.8035 65.3925,42.3035 61.5,49C 59.8659,49.4935 58.1992,49.6602 56.5,49.5C 55.1995,48.1184 54.3661,46.4517 54,44.5C 52.2458,46.25 50.0792,46.9167 47.5,46.5C 47.6495,45.448 47.4828,44.448 47,43.5C 46.9005,45.6526 46.0672,47.3192 44.5,48.5C 40.7488,48.5823 38.7488,46.749 38.5,43C 40.0637,39.9338 42.3971,37.7672 45.5,36.5C 47.4918,36.3285 49.1585,36.9951 50.5,38.5C 51.5178,37.8075 52.5178,37.1408 53.5,36.5C 54.791,36.7373 55.791,36.404 56.5,35.5 Z"/></g>
<g><path style="opacity:1" fill="#427f9a" d="M 82.5,10.5 C 81.2857,22.6791 81.2857,35.0125 82.5,47.5C 82.5458,54.1908 82.2125,60.8574 81.5,67.5C 80.4103,80.3347 79.9103,93.3347 80,106.5C 80.3333,105.167 80.6667,103.833 81,102.5C 81.3826,103.056 81.8826,103.389 82.5,103.5C 82.5,108.167 82.5,112.833 82.5,117.5C 79.9382,116.629 77.2716,116.629 74.5,117.5C 74.1583,116.662 73.4916,116.328 72.5,116.5C 72.5,81.5 72.5,46.5 72.5,11.5C 73.7839,8.88258 75.7839,6.88258 78.5,5.5C 80.5403,6.57027 81.8736,8.23694 82.5,10.5 Z"/></g>
<g><path style="opacity:1" fill="#3da5d5" d="M 76.5,10.5 C 77.4793,11.7653 78.4793,13.0986 79.5,14.5C 78.1957,23.004 77.529,31.6706 77.5,40.5C 77.6468,52.5056 77.9801,64.5056 78.5,76.5C 78.2536,89.3229 77.4203,101.99 76,114.5C 74.8389,97.4811 74.3389,80.3144 74.5,63C 74.6667,46.1667 74.8333,29.3333 75,12.5C 75.7172,11.9558 76.2172,11.2891 76.5,10.5 Z"/></g>
<g><path style="opacity:1" fill="#682c2c" d="M 56.5,49.5 C 55.5016,83.996 55.1683,118.663 55.5,153.5C 54.6675,119.002 54.1675,84.3357 54,49.5C 53.2208,46.9028 52.7208,46.9028 52.5,49.5C 51.609,48.8902 50.609,48.5569 49.5,48.5C 48.5,48.5 47.5,48.5 46.5,48.5C 46.5,62.5 46.5,76.5 46.5,90.5C 45.8333,76.8333 45.1667,63.1667 44.5,49.5C 44.5,49.1667 44.5,48.8333 44.5,48.5C 46.0672,47.3192 46.9005,45.6526 47,43.5C 47.4828,44.448 47.6495,45.448 47.5,46.5C 50.0792,46.9167 52.2458,46.25 54,44.5C 54.3661,46.4517 55.1995,48.1184 56.5,49.5 Z"/></g>
<g><path style="opacity:1" fill="#274b5c" d="M 27.5,47.5 C 27.5,70.5 27.5,93.5 27.5,116.5C 27.5,117.167 27.1667,117.5 26.5,117.5C 26.8023,94.7985 26.1356,72.1318 24.5,49.5C 25.2216,49.9175 25.7216,50.5842 26,51.5C 26.21,49.9419 26.71,48.6085 27.5,47.5 Z"/></g>
<g><path style="opacity:1" fill="#405b6b" d="M 82.5,47.5 C 82.8333,47.5 83.1667,47.5 83.5,47.5C 84.2986,70.4908 84.6319,93.4908 84.5,116.5C 83.0582,117.82 82.3915,119.486 82.5,121.5C 82.1667,121.5 81.8333,121.5 81.5,121.5C 79.1667,120.167 76.8333,118.833 74.5,117.5C 77.2716,116.629 79.9382,116.629 82.5,117.5C 82.5,112.833 82.5,108.167 82.5,103.5C 82.4087,91.4917 82.0754,79.4917 81.5,67.5C 82.2125,60.8574 82.5458,54.1908 82.5,47.5 Z"/></g>
<g><path style="opacity:1" fill="#d45e62" d="M 49.5,48.5 C 50.4869,84.1235 50.8202,119.79 50.5,155.5C 49.1779,155.67 48.0113,155.337 47,154.5C 46.5,133.169 46.3334,111.836 46.5,90.5C 46.5,76.5 46.5,62.5 46.5,48.5C 47.5,48.5 48.5,48.5 49.5,48.5 Z"/></g>
<g><path style="opacity:1" fill="#5db2d7" d="M 24.5,7.5 C 23.5768,6.69708 22.5768,6.53042 21.5,7C 25.1255,10.344 26.1255,14.1774 24.5,18.5C 22.7629,15.992 21.9296,12.992 22,9.5C 21.5,44.8318 21.3333,80.1651 21.5,115.5C 21.1788,117.048 20.1788,117.715 18.5,117.5C 18.6667,82.1651 18.5,46.8318 18,11.5C 17.8322,38.3365 17.3322,65.0031 16.5,91.5C 16.1669,64.4918 16.5002,37.4918 17.5,10.5C 18.8606,8.47266 20.5273,6.806 22.5,5.5C 23.7133,5.74716 24.38,6.41383 24.5,7.5 Z"/></g>
<g><path style="opacity:1" fill="#427d97" d="M 18.5,117.5 C 17.8333,116.833 17.1667,116.167 16.5,115.5C 16.5,107.5 16.5,99.5 16.5,91.5C 17.3322,65.0031 17.8322,38.3365 18,11.5C 18.5,46.8318 18.6667,82.1651 18.5,117.5 Z"/></g>
<g><path style="opacity:1" fill="#3a819a" d="M 81.5,67.5 C 82.0754,79.4917 82.4087,91.4917 82.5,103.5C 81.8826,103.389 81.3826,103.056 81,102.5C 80.6667,103.833 80.3333,105.167 80,106.5C 79.9103,93.3347 80.4103,80.3347 81.5,67.5 Z"/></g>
<g><path style="opacity:1" fill="#425345" d="M 16.5,115.5 C 17.1667,116.167 17.8333,116.833 18.5,117.5C 20.1788,117.715 21.1788,117.048 21.5,115.5C 23.0495,116.441 24.7162,117.107 26.5,117.5C 27.1667,117.5 27.5,117.167 27.5,116.5C 30.2282,116.171 32.5615,116.837 34.5,118.5C 34.631,119.239 34.4643,119.906 34,120.5C 31.2139,116.786 28.7139,116.786 26.5,120.5C 25.8333,120.5 25.1667,120.5 24.5,120.5C 22.5853,120.216 20.9187,120.549 19.5,121.5C 19.5,122.167 19.1667,122.5 18.5,122.5C 18.2964,120.315 17.6298,118.315 16.5,116.5C 16.5,116.167 16.5,115.833 16.5,115.5 Z"/></g>
<g><path style="opacity:1" fill="#9e4e51" d="M 55.5,153.5 C 55.2503,155.674 54.2503,157.341 52.5,158.5C 52.5,157.5 52.5,156.5 52.5,155.5C 52.1568,120.153 52.1568,84.8199 52.5,49.5C 52.7208,46.9028 53.2208,46.9028 54,49.5C 54.1675,84.3357 54.6675,119.002 55.5,153.5 Z"/></g>
<g><path style="opacity:1" fill="#b18586" d="M 40.5,49.5 C 41.8333,49.5 43.1667,49.5 44.5,49.5C 45.1667,63.1667 45.8333,76.8333 46.5,90.5C 46.3334,111.836 46.5,133.169 47,154.5C 48.0113,155.337 49.1779,155.67 50.5,155.5C 51.1667,155.5 51.8333,155.5 52.5,155.5C 52.5,156.5 52.5,157.5 52.5,158.5C 52.2172,159.289 51.7172,159.956 51,160.5C 49.2962,158.627 47.4628,156.96 45.5,155.5C 45.2931,120.499 44.9597,85.4985 44.5,50.5C 42.901,50.7678 41.5676,50.4345 40.5,49.5 Z"/></g>
<g><path style="opacity:1" fill="#d0bfaa" d="M 19.5,121.5 C 20.9187,120.549 22.5853,120.216 24.5,120.5C 23.3931,122.847 21.7264,123.18 19.5,121.5 Z"/></g>
<g><path style="opacity:1" fill="#a79271" d="M 34.5,118.5 C 36.9513,124.192 35.2846,128.192 29.5,130.5C 27.7768,129.193 25.9435,129.193 24,130.5C 23.3333,129.167 23.3333,127.833 24,126.5C 24.3333,126.833 24.6667,127.167 25,127.5C 25.3176,125.939 26.1509,124.772 27.5,124C 26.6634,122.989 26.33,121.822 26.5,120.5C 28.7139,116.786 31.2139,116.786 34,120.5C 34.4643,119.906 34.631,119.239 34.5,118.5 Z"/></g>
<g><path style="opacity:1" fill="#977f65" d="M 16.5,116.5 C 17.6298,118.315 18.2964,120.315 18.5,122.5C 19.0325,125.449 18.6992,128.449 17.5,131.5C 12.8036,130.482 9.80357,127.648 8.5,123C 9.02898,118.05 11.6957,115.883 16.5,116.5 Z"/></g>
<g><path style="opacity:1" fill="#9a3131" d="M 49.5,48.5 C 50.609,48.5569 51.609,48.8902 52.5,49.5C 52.1568,84.8199 52.1568,120.153 52.5,155.5C 51.8333,155.5 51.1667,155.5 50.5,155.5C 50.8202,119.79 50.4869,84.1235 49.5,48.5 Z"/></g>
<g><path style="opacity:1" fill="#88614c" d="M 24.5,120.5 C 25.1667,120.5 25.8333,120.5 26.5,120.5C 26.33,121.822 26.6634,122.989 27.5,124C 26.1509,124.772 25.3176,125.939 25,127.5C 24.6667,127.167 24.3333,126.833 24,126.5C 23.3333,127.833 23.3333,129.167 24,130.5C 25.9435,129.193 27.7768,129.193 29.5,130.5C 28.8868,134.937 28.2202,139.27 27.5,143.5C 27.7373,142.209 27.404,141.209 26.5,140.5C 26.8916,137.854 26.8916,135.354 26.5,133C 23.6695,132.651 21.6695,133.817 20.5,136.5C 20.5,135.5 20.5,134.5 20.5,133.5C 19.5,133.5 18.5,133.5 17.5,133.5C 17.5,132.833 17.5,132.167 17.5,131.5C 18.6992,128.449 19.0325,125.449 18.5,122.5C 19.1667,122.5 19.5,122.167 19.5,121.5C 21.7264,123.18 23.3931,122.847 24.5,120.5 Z"/></g>
<g><path style="opacity:1" fill="#f7f6f5" d="M 72.5,11.5 C 72.5,46.5 72.5,81.5 72.5,116.5C 67.6694,115.667 65.336,117.667 65.5,122.5C 65.8918,127.375 68.5585,130.042 73.5,130.5C 72.5279,135.329 72.8613,139.996 74.5,144.5C 75.1098,145.391 75.4431,146.391 75.5,147.5C 75.1936,150.385 75.5269,153.052 76.5,155.5C 76.062,159.908 78.062,161.575 82.5,160.5C 82.5,158.833 82.5,157.167 82.5,155.5C 82.4411,151.552 82.7744,147.552 83.5,143.5C 84.2829,140.491 84.9496,137.324 85.5,134C 85.2645,133.127 84.9312,132.293 84.5,131.5C 86.3936,130.055 88.0603,128.388 89.5,126.5C 90.7479,125.666 91.4146,124.333 91.5,122.5C 91.9279,119.008 90.5946,116.675 87.5,115.5C 88.1499,115.196 88.8165,114.863 89.5,114.5C 91.5,117.167 93.5,117.167 95.5,114.5C 95.0721,108.232 95.7388,101.899 97.5,95.5C 95.5092,90.5962 95.1758,85.5962 96.5,80.5C 97.2508,81.376 97.7508,82.376 98,83.5C 98.2784,82.5842 98.7784,81.9175 99.5,81.5C 99.5,109.167 99.5,136.833 99.5,164.5C 81.8333,164.5 64.1667,164.5 46.5,164.5C 46.6323,161.43 46.299,158.43 45.5,155.5C 47.4628,156.96 49.2962,158.627 51,160.5C 51.7172,159.956 52.2172,159.289 52.5,158.5C 54.2503,157.341 55.2503,155.674 55.5,153.5C 55.1683,118.663 55.5016,83.996 56.5,49.5C 58.1992,49.6602 59.8659,49.4935 61.5,49C 65.3925,42.3035 63.7259,37.8035 56.5,35.5C 56.2688,29.4476 55.6022,23.4476 54.5,17.5C 54.702,15.0504 54.3686,12.717 53.5,10.5C 55.229,11.9527 56.229,13.9527 56.5,16.5C 55.7985,18.7756 55.9651,21.1089 57,23.5C 57.3333,23.1667 57.6667,22.8333 58,22.5C 57.7536,26.0834 58.0869,29.75 59,33.5C 59.8624,31.913 60.5291,30.2464 61,28.5C 61.2414,31.2889 61.908,33.9556 63,36.5C 63.3333,36.1667 63.6667,35.8333 64,35.5C 65.0836,36.6651 65.9169,37.9984 66.5,39.5C 67.325,40.3857 68.325,40.719 69.5,40.5C 69.5637,34.3988 70.2304,28.3988 71.5,22.5C 71.1575,18.9346 70.4908,15.4346 69.5,12C 69.8719,7.54812 70.8719,7.38145 72.5,11.5 Z"/></g>
<g><path style="opacity:1" fill="#7e6a4f" d="M 89.5,126.5 C 88.0603,128.388 86.3936,130.055 84.5,131.5C 84.9312,132.293 85.2645,133.127 85.5,134C 84.9496,137.324 84.2829,140.491 83.5,143.5C 82.4168,143.539 81.4168,143.873 80.5,144.5C 79.7025,144.043 79.3691,143.376 79.5,142.5C 81.0622,141.215 82.3955,139.715 83.5,138C 83.2231,136.108 82.2231,134.775 80.5,134C 81.3081,133.692 81.9747,133.192 82.5,132.5C 81.3984,131.824 80.3984,131.158 79.5,130.5C 79.5,129.833 79.8333,129.5 80.5,129.5C 83.8174,129.336 86.8174,128.336 89.5,126.5 Z"/></g>
<g><path style="opacity:1" fill="#7e6c60" d="M 72.5,116.5 C 73.4916,116.328 74.1583,116.662 74.5,117.5C 70.1929,116.649 67.5262,118.316 66.5,122.5C 68.1006,127.17 71.1006,129.17 75.5,128.5C 76.552,128.351 77.552,128.517 78.5,129C 76.75,130.754 76.0833,132.921 76.5,135.5C 75.4937,136.396 75.4937,137.062 76.5,137.5C 74.8516,139.456 74.1849,141.789 74.5,144.5C 72.8613,139.996 72.5279,135.329 73.5,130.5C 68.5585,130.042 65.8918,127.375 65.5,122.5C 65.336,117.667 67.6694,115.667 72.5,116.5 Z"/></g>
<g><path style="opacity:1" fill="#925745" d="M 81.5,121.5 C 81.8333,121.5 82.1667,121.5 82.5,121.5C 82.5,121.833 82.5,122.167 82.5,122.5C 81.1667,123.5 81.1667,124.5 82.5,125.5C 82.2671,127.062 81.6005,128.395 80.5,129.5C 79.8333,129.5 79.5,129.833 79.5,130.5C 78.9348,132.42 77.9348,134.087 76.5,135.5C 76.0833,132.921 76.75,130.754 78.5,129C 77.552,128.517 76.552,128.351 75.5,128.5C 75.0331,125.812 74.8664,123.145 75,120.5C 77.0408,121.423 79.2075,121.756 81.5,121.5 Z"/></g>
<g><path style="opacity:1" fill="#aa8f75" d="M 74.5,117.5 C 76.8333,118.833 79.1667,120.167 81.5,121.5C 79.2075,121.756 77.0408,121.423 75,120.5C 74.8664,123.145 75.0331,125.812 75.5,128.5C 71.1006,129.17 68.1006,127.17 66.5,122.5C 67.5262,118.316 70.1929,116.649 74.5,117.5 Z"/></g>
<g><path style="opacity:1" fill="#bca780" d="M 89.5,126.5 C 86.8174,128.336 83.8174,129.336 80.5,129.5C 81.6005,128.395 82.2671,127.062 82.5,125.5C 82.4346,125.062 82.6012,124.728 83,124.5C 83.3076,125.308 83.8076,125.975 84.5,126.5C 86.1328,122.811 87.7994,122.811 89.5,126.5 Z"/></g>
<g><path style="opacity:1" fill="#7f6b4d" d="M 87.5,115.5 C 90.5946,116.675 91.9279,119.008 91.5,122.5C 91.4146,124.333 90.7479,125.666 89.5,126.5C 87.7994,122.811 86.1328,122.811 84.5,126.5C 83.8076,125.975 83.3076,125.308 83,124.5C 82.6012,124.728 82.4346,125.062 82.5,125.5C 81.1667,124.5 81.1667,123.5 82.5,122.5C 83.1577,121.602 83.8243,120.602 84.5,119.5C 85.8159,122.028 86.9826,122.028 88,119.5C 90.0844,124.723 90.5844,124.723 89.5,119.5C 88.0986,118.479 86.7653,117.479 85.5,116.5C 85.8417,115.662 86.5084,115.328 87.5,115.5 Z"/></g>
<g><path style="opacity:1" fill="#bfb29a" d="M 84.5,116.5 C 84.8333,116.5 85.1667,116.5 85.5,116.5C 86.7653,117.479 88.0986,118.479 89.5,119.5C 90.5844,124.723 90.0844,124.723 88,119.5C 86.9826,122.028 85.8159,122.028 84.5,119.5C 83.8243,120.602 83.1577,121.602 82.5,122.5C 82.5,122.167 82.5,121.833 82.5,121.5C 82.3915,119.486 83.0582,117.82 84.5,116.5 Z"/></g>
<g><path style="opacity:1" fill="#c49d85" d="M 26.5,140.5 C 26.6882,142.103 26.1882,143.437 25,144.5C 25.0758,140.643 23.7425,140.643 21,144.5C 22.9047,141.972 24.4047,138.972 25.5,135.5C 25.3333,135.167 25.1667,134.833 25,134.5C 23.2907,137.116 21.124,138.116 18.5,137.5C 18.9569,136.702 19.6236,136.369 20.5,136.5C 21.6695,133.817 23.6695,132.651 26.5,133C 26.8916,135.354 26.8916,137.854 26.5,140.5 Z"/></g>
<g><path style="opacity:1" fill="#b7836c" d="M 79.5,130.5 C 80.3984,131.158 81.3984,131.824 82.5,132.5C 81.9747,133.192 81.3081,133.692 80.5,134C 82.2231,134.775 83.2231,136.108 83.5,138C 82.3955,139.715 81.0622,141.215 79.5,142.5C 78.5768,143.303 77.5768,143.47 76.5,143C 77.8333,142 77.8333,141 76.5,140C 77.6853,138.647 79.0186,137.48 80.5,136.5C 80.3333,136.167 80.1667,135.833 80,135.5C 78.8873,136.305 77.7206,136.972 76.5,137.5C 75.4937,137.062 75.4937,136.396 76.5,135.5C 77.9348,134.087 78.9348,132.42 79.5,130.5 Z"/></g>
<g><path style="opacity:1" fill="#684939" d="M 79.5,142.5 C 79.3691,143.376 79.7025,144.043 80.5,144.5C 81.4168,143.873 82.4168,143.539 83.5,143.5C 82.7744,147.552 82.4411,151.552 82.5,155.5C 80.8006,158.151 79.134,158.151 77.5,155.5C 78.5832,155.461 79.5832,155.127 80.5,154.5C 80.9804,152.149 81.3138,149.815 81.5,147.5C 79.674,147.08 77.674,147.08 75.5,147.5C 75.4431,146.391 75.1098,145.391 74.5,144.5C 74.1849,141.789 74.8516,139.456 76.5,137.5C 77.7206,136.972 78.8873,136.305 80,135.5C 80.1667,135.833 80.3333,136.167 80.5,136.5C 79.0186,137.48 77.6853,138.647 76.5,140C 77.8333,141 77.8333,142 76.5,143C 77.5768,143.47 78.5768,143.303 79.5,142.5 Z"/></g>
<g><path style="opacity:1" fill="#704a40" d="M 17.5,133.5 C 18.5,133.5 19.5,133.5 20.5,133.5C 20.5,134.5 20.5,135.5 20.5,136.5C 19.6236,136.369 18.9569,136.702 18.5,137.5C 21.124,138.116 23.2907,137.116 25,134.5C 25.1667,134.833 25.3333,135.167 25.5,135.5C 24.4047,138.972 22.9047,141.972 21,144.5C 23.7425,140.643 25.0758,140.643 25,144.5C 26.1882,143.437 26.6882,142.103 26.5,140.5C 27.404,141.209 27.7373,142.209 27.5,143.5C 26.6993,145.042 26.366,146.708 26.5,148.5C 25.8485,147.909 25.1818,147.243 24.5,146.5C 23.1502,147.95 21.4835,148.617 19.5,148.5C 17.4216,143.695 16.755,138.695 17.5,133.5 Z"/></g>
<g><path style="opacity:1" fill="#a99578" d="M 77.5,155.5 C 77.1667,155.5 76.8333,155.5 76.5,155.5C 75.5269,153.052 75.1936,150.385 75.5,147.5C 77.674,147.08 79.674,147.08 81.5,147.5C 81.3138,149.815 80.9804,152.149 80.5,154.5C 79.5832,155.127 78.5832,155.461 77.5,155.5 Z"/></g>
<g><path style="opacity:1" fill="#766352" d="M 26.5,148.5 C 26.7676,153.5 25.7676,158.166 23.5,162.5C 21.6162,161.885 20.6162,160.552 20.5,158.5C 19.7904,155.201 19.4571,151.867 19.5,148.5C 21.4835,148.617 23.1502,147.95 24.5,146.5C 25.1818,147.243 25.8485,147.909 26.5,148.5 Z"/></g>
<g><path style="opacity:1" fill="#d1c196" d="M 21.5,150.5 C 26.1202,151.556 26.4536,153.223 22.5,155.5C 20.2957,154.218 19.9624,152.551 21.5,150.5 Z"/></g>
<g><path style="opacity:1" fill="#8a7279" d="M 76.5,155.5 C 76.8333,155.5 77.1667,155.5 77.5,155.5C 79.134,158.151 80.8006,158.151 82.5,155.5C 82.5,157.167 82.5,158.833 82.5,160.5C 78.062,161.575 76.062,159.908 76.5,155.5 Z"/></g>
</svg>
