<?xml version="1.0" encoding="UTF-8"?>
<!DOCTYPE svg PUBLIC "-//W3C//DTD SVG 1.1//EN" "http://www.w3.org/Graphics/SVG/1.1/DTD/svg11.dtd">
<svg xmlns="http://www.w3.org/2000/svg" version="1.1" width="100px" height="165px" style="shape-rendering:geometricPrecision; text-rendering:geometricPrecision; image-rendering:optimizeQuality; fill-rule:evenodd; clip-rule:evenodd" xmlns:xlink="http://www.w3.org/1999/xlink">
<g><path style="opacity:1" fill="#fafaf9" d="M -0.5,-0.5 C 32.8333,-0.5 66.1667,-0.5 99.5,-0.5C 99.5,54.5 99.5,109.5 99.5,164.5C 66.1667,164.5 32.8333,164.5 -0.5,164.5C -0.5,109.5 -0.5,54.5 -0.5,-0.5 Z"/></g>
<g><path style="opacity:1" fill="#eec061" d="M 75.5,6.5 C 77.9726,6.08824 79.3059,7.08824 79.5,9.5C 79.917,13.0678 80.5836,16.5678 81.5,20C 80.665,23.5039 79.8316,27.0039 79,30.5C 78.6174,31.056 78.1174,31.3893 77.5,31.5C 78.5559,26.219 79.2226,20.8856 79.5,15.5C 78.325,15.281 77.325,15.6143 76.5,16.5C 76.2155,18.7594 75.2155,20.4261 73.5,21.5C 73.8333,18.8333 74.1667,16.1667 74.5,13.5C 77.0479,11.7044 77.0479,10.0378 74.5,8.5C 74.8333,7.83333 75.1667,7.16667 75.5,6.5 Z"/></g>
<g><path style="opacity:1" fill="#1da9dd" d="M 22.5,7.5 C 28.3914,8.13827 31.7248,11.4716 32.5,17.5C 31.8529,18.2739 31.5195,19.2739 31.5,20.5C 32.3855,25.1447 33.0521,29.8114 33.5,34.5C 32.5,34.5 31.5,34.5 30.5,34.5C 30.4927,27.498 28.4927,21.1647 24.5,15.5C 24.1667,16.1667 23.8333,16.8333 23.5,17.5C 25.5541,21.9083 26.2207,26.4083 25.5,31C 26.428,31.3879 27.0946,32.0546 27.5,33C 28.7833,38.1535 29.6167,43.3201 30,48.5C 29.0201,46.9411 28.1867,45.2744 27.5,43.5C 26.8076,44.0253 26.3076,44.6919 26,45.5C 25.7214,41.5726 25.0547,37.5726 24,33.5C 23.6667,33.1667 23.3333,32.8333 23,32.5C 22.4054,33.8989 22.5721,35.2322 23.5,36.5C 23.1543,37.6956 22.6543,37.6956 22,36.5C 21.1665,30.3313 20.3332,24.1646 19.5,18C 19.9821,15.0826 20.6488,12.2493 21.5,9.5C 21.8333,8.83333 22.1667,8.16667 22.5,7.5 Z"/></g>
<g><path style="opacity:1" fill="#3081a1" d="M 22.5,7.5 C 22.1667,8.16667 21.8333,8.83333 21.5,9.5C 17.6766,10.5002 16.01,13.0002 16.5,17C 17.5306,23.9159 18.864,30.7492 20.5,37.5C 19.8333,37.1667 19.1667,36.8333 18.5,36.5C 18.5,36.1667 18.5,35.8333 18.5,35.5C 17.1902,30.5114 15.8569,25.5114 14.5,20.5C 14.9533,17.1108 15.62,13.7775 16.5,10.5C 18.0712,8.58499 20.0712,7.58499 22.5,7.5 Z"/></g>
<g><path style="opacity:1" fill="#df6851" d="M 75.5,6.5 C 75.1667,7.16667 74.8333,7.83333 74.5,8.5C 71.1315,15.3581 68.1315,22.3581 65.5,29.5C 64.6618,29.1583 64.3284,28.4916 64.5,27.5C 63.6711,19.1906 66.3378,12.3572 72.5,7C 73.448,6.51722 74.448,6.35055 75.5,6.5 Z"/></g>
<g><path style="opacity:1" fill="#cf9944" d="M 74.5,13.5 C 74.1667,16.1667 73.8333,18.8333 73.5,21.5C 71.016,29.7674 69.016,38.1008 67.5,46.5C 67.4587,44.5336 67.1253,42.5336 66.5,40.5C 67.1805,36.8809 67.6805,33.2142 68,29.5C 70.2675,24.1194 72.4342,18.786 74.5,13.5 Z"/></g>
<g><path style="opacity:1" fill="#ed9d59" d="M 74.5,8.5 C 77.0479,10.0378 77.0479,11.7044 74.5,13.5C 72.4342,18.786 70.2675,24.1194 68,29.5C 67.6805,33.2142 67.1805,36.8809 66.5,40.5C 66.719,41.675 66.3857,42.675 65.5,43.5C 65.1667,43.1667 64.8333,42.8333 64.5,42.5C 65.4386,38.2351 65.7719,33.9017 65.5,29.5C 68.1315,22.3581 71.1315,15.3581 74.5,8.5 Z"/></g>
<g><path style="opacity:1" fill="#cda366" d="M 79.5,9.5 C 80.7498,9.57735 81.5831,10.244 82,11.5C 83.1624,16.1253 83.4958,20.792 83,25.5C 79.5121,34.1377 76.3455,42.8044 73.5,51.5C 73.1667,51.5 72.8333,51.5 72.5,51.5C 74.2225,44.8064 75.8892,38.1397 77.5,31.5C 78.1174,31.3893 78.6174,31.056 79,30.5C 79.8316,27.0039 80.665,23.5039 81.5,20C 80.5836,16.5678 79.917,13.0678 79.5,9.5 Z"/></g>
<g><path style="opacity:1" fill="#685233" d="M 75.5,6.5 C 75.5,6.16667 75.5,5.83333 75.5,5.5C 78.7845,5.26928 81.2845,6.60261 83,9.5C 86.3372,17.539 86.0039,25.539 82,33.5C 79.8064,39.972 76.973,45.972 73.5,51.5C 76.3455,42.8044 79.5121,34.1377 83,25.5C 83.4958,20.792 83.1624,16.1253 82,11.5C 81.5831,10.244 80.7498,9.57735 79.5,9.5C 79.3059,7.08824 77.9726,6.08824 75.5,6.5 Z"/></g>
<g><path style="opacity:1" fill="#2297c8" d="M 21.5,9.5 C 20.6488,12.2493 19.9821,15.0826 19.5,18C 20.3332,24.1646 21.1665,30.3313 22,36.5C 22.6543,37.6956 23.1543,37.6956 23.5,36.5C 22.5721,35.2322 22.4054,33.8989 23,32.5C 23.3333,32.8333 23.6667,33.1667 24,33.5C 25.0547,37.5726 25.7214,41.5726 26,45.5C 26.3076,44.6919 26.8076,44.0253 27.5,43.5C 28.1867,45.2744 29.0201,46.9411 30,48.5C 29.6167,43.3201 28.7833,38.1535 27.5,33C 27.0946,32.0546 26.428,31.3879 25.5,31C 26.2207,26.4083 25.5541,21.9083 23.5,17.5C 23.8333,16.8333 24.1667,16.1667 24.5,15.5C 28.4927,21.1647 30.4927,27.498 30.5,34.5C 31.5,34.5 32.5,34.5 33.5,34.5C 33.0521,29.8114 32.3855,25.1447 31.5,20.5C 31.5195,19.2739 31.8529,18.2739 32.5,17.5C 33.6056,20.054 34.439,22.7206 35,25.5C 36.1721,37.5435 37.6721,49.5435 39.5,61.5C 37.9185,63.6303 35.9185,65.2969 33.5,66.5C 30.0053,56.5064 25.672,46.8398 20.5,37.5C 18.864,30.7492 17.5306,23.9159 16.5,17C 16.01,13.0002 17.6766,10.5002 21.5,9.5 Z"/></g>
<g><path style="opacity:1" fill="#f1c65f" d="M 77.5,31.5 C 75.8892,38.1397 74.2225,44.8064 72.5,51.5C 70.8378,55.4562 69.1711,59.4562 67.5,63.5C 66.4168,63.5394 65.4168,63.8728 64.5,64.5C 62.4775,58.4996 63.3108,53.8329 67,50.5C 67.49,49.2068 67.6567,47.8734 67.5,46.5C 69.016,38.1008 71.016,29.7674 73.5,21.5C 75.2155,20.4261 76.2155,18.7594 76.5,16.5C 77.325,15.6143 78.325,15.281 79.5,15.5C 79.2226,20.8856 78.5559,26.219 77.5,31.5 Z"/></g>
<g><path style="opacity:1" fill="#35515d" d="M 43.5,68.5 C 37.1769,65.4424 33.1769,67.4424 31.5,74.5C 30.6136,75.7759 29.6136,75.7759 28.5,74.5C 30.264,72.8704 31.264,70.8704 31.5,68.5C 32.1667,67.8333 32.8333,67.1667 33.5,66.5C 35.9185,65.2969 37.9185,63.6303 39.5,61.5C 37.6721,49.5435 36.1721,37.5435 35,25.5C 34.439,22.7206 33.6056,20.054 32.5,17.5C 31.7248,11.4716 28.3914,8.13827 22.5,7.5C 20.0712,7.58499 18.0712,8.58499 16.5,10.5C 15.62,13.7775 14.9533,17.1108 14.5,20.5C 15.8569,25.5114 17.1902,30.5114 18.5,35.5C 15.7379,30.896 13.7379,25.896 12.5,20.5C 13.6177,17.256 14.4511,13.9226 15,10.5C 19.6908,2.91136 25.0241,2.57802 31,9.5C 33,13.5 35,17.5 37,21.5C 38.625,37.3072 40.7916,52.9738 43.5,68.5 Z"/></g>
<g><path style="opacity:1" fill="#34647d" d="M 18.5,36.5 C 19.1667,36.8333 19.8333,37.1667 20.5,37.5C 25.672,46.8398 30.0053,56.5064 33.5,66.5C 32.8333,67.1667 32.1667,67.8333 31.5,68.5C 31.395,64.6811 30.5617,61.0145 29,57.5C 24.9617,50.7568 21.4617,43.7568 18.5,36.5 Z"/></g>
<g><path style="opacity:1" fill="#d99763" d="M 64.5,27.5 C 64.3284,28.4916 64.6618,29.1583 65.5,29.5C 65.7719,33.9017 65.4386,38.2351 64.5,42.5C 64.8333,42.8333 65.1667,43.1667 65.5,43.5C 66.3857,42.675 66.719,41.675 66.5,40.5C 67.1253,42.5336 67.4587,44.5336 67.5,46.5C 67.6567,47.8734 67.49,49.2068 67,50.5C 63.3108,53.8329 62.4775,58.4996 64.5,64.5C 65.4168,63.8728 66.4168,63.5394 67.5,63.5C 67.1667,64.1667 66.8333,64.8333 66.5,65.5C 66.6495,66.552 66.4828,67.552 66,68.5C 62.8073,67.5069 60.6406,65.5069 59.5,62.5C 61.7371,50.7651 63.4038,39.0984 64.5,27.5 Z"/></g>
<g><path style="opacity:1" fill="#867a55" d="M 72.5,51.5 C 72.8333,51.5 73.1667,51.5 73.5,51.5C 72.3796,57.0563 70.713,62.3897 68.5,67.5C 67.8333,66.8333 67.1667,66.1667 66.5,65.5C 66.8333,64.8333 67.1667,64.1667 67.5,63.5C 69.1711,59.4562 70.8378,55.4562 72.5,51.5 Z"/></g>
<g><path style="opacity:1" fill="#917c61" d="M 43.5,68.5 C 41.3835,73.9644 37.3835,75.9644 31.5,74.5C 33.1769,67.4424 37.1769,65.4424 43.5,68.5 Z"/></g>
<g><path style="opacity:1" fill="#724a43" d="M 75.5,5.5 C 75.5,5.83333 75.5,6.16667 75.5,6.5C 74.448,6.35055 73.448,6.51722 72.5,7C 66.3378,12.3572 63.6711,19.1906 64.5,27.5C 63.4038,39.0984 61.7371,50.7651 59.5,62.5C 60.6406,65.5069 62.8073,67.5069 66,68.5C 66.4828,67.552 66.6495,66.552 66.5,65.5C 67.1667,66.1667 67.8333,66.8333 68.5,67.5C 68.278,70.3903 68.9447,73.057 70.5,75.5C 68.9547,76.4519 67.288,76.7852 65.5,76.5C 63.4855,75.0762 61.1522,74.4095 58.5,74.5C 57.3911,73.1213 56.7245,71.4547 56.5,69.5C 59.6558,52.3025 61.8225,34.9691 63,17.5C 63.8894,12.9441 66.0561,9.11078 69.5,6C 71.4727,5.50454 73.4727,5.33788 75.5,5.5 Z"/></g>
<g><path style="opacity:1" fill="#aa9c96" d="M 58.5,74.5 C 61.1522,74.4095 63.4855,75.0762 65.5,76.5C 62.7718,76.8294 60.4385,76.1628 58.5,74.5 Z"/></g>
<g><path style="opacity:1" fill="#dd4b4d" d="M 28.5,94.5 C 29.8333,95.8333 31.1667,97.1667 32.5,98.5C 33.0916,101.127 33.4249,103.794 33.5,106.5C 34.5806,120.634 35.9139,134.634 37.5,148.5C 35.857,148.52 34.5237,147.853 33.5,146.5C 32.6816,143.893 32.1816,141.226 32,138.5C 31.2798,136.944 30.1132,135.944 28.5,135.5C 26.1617,124.635 22.8284,114.135 18.5,104C 18.9773,101.112 19.6439,98.2787 20.5,95.5C 23.0865,94.52 25.7531,94.1866 28.5,94.5 Z"/></g>
<g><path style="opacity:1" fill="#1c9dd1" d="M 82.5,101.5 C 81.6729,105.161 80.1729,108.494 78,111.5C 76.8785,117.277 75.7118,122.944 74.5,128.5C 73.0034,133.491 70.8367,138.158 68,142.5C 67.338,144.813 66.838,147.146 66.5,149.5C 66.2648,150.097 65.7648,150.43 65,150.5C 63.5,150 62,149.5 60.5,149C 59.7476,148.329 59.4142,147.496 59.5,146.5C 62.8338,133.464 64.3338,120.131 64,106.5C 65.3091,101.048 67.8091,96.2151 71.5,92C 73.8333,91.3333 76.1667,91.3333 78.5,92C 80.511,94.8716 81.8443,98.0383 82.5,101.5 Z"/></g>
<g><path style="opacity:1" fill="#734140" d="M 32.5,98.5 C 31.1667,97.1667 29.8333,95.8333 28.5,94.5C 25.001,91.0009 21.501,91.0009 18,94.5C 16.2861,99.4929 16.1194,104.493 17.5,109.5C 18.6009,114.167 19.7675,118.834 21,123.5C 21.4983,125.544 22.665,126.878 24.5,127.5C 25.2703,130.496 26.6036,133.163 28.5,135.5C 30.2975,139.24 31.2975,143.24 31.5,147.5C 26.1293,137.088 20.9627,126.421 16,115.5C 12.0897,106.602 12.923,98.269 18.5,90.5C 25.9399,88.5482 30.6066,91.2148 32.5,98.5 Z"/></g>
<g><path style="opacity:1" fill="#c3464b" d="M 28.5,94.5 C 25.7531,94.1866 23.0865,94.52 20.5,95.5C 19.6439,98.2787 18.9773,101.112 18.5,104C 22.8284,114.135 26.1617,124.635 28.5,135.5C 26.6036,133.163 25.2703,130.496 24.5,127.5C 22.6109,123.751 21.4443,119.751 21,115.5C 20.2612,113.111 19.0946,111.111 17.5,109.5C 16.1194,104.493 16.2861,99.4929 18,94.5C 21.501,91.0009 25.001,91.0009 28.5,94.5 Z"/></g>
<g><path style="opacity:1" fill="#365f77" d="M 68.5,149.5 C 67.8333,149.5 67.1667,149.5 66.5,149.5C 66.838,147.146 67.338,144.813 68,142.5C 70.8367,138.158 73.0034,133.491 74.5,128.5C 77.9923,122.547 80.8257,116.214 83,109.5C 83.8007,106.633 83.6341,103.966 82.5,101.5C 81.8443,98.0383 80.511,94.8716 78.5,92C 76.1667,91.3333 73.8333,91.3333 71.5,92C 67.8091,96.2151 65.3091,101.048 64,106.5C 64.3338,120.131 62.8338,133.464 59.5,146.5C 59.1667,146.5 58.8333,146.5 58.5,146.5C 60.7256,133.274 61.8923,119.94 62,106.5C 62.6493,100.314 65.1493,95.1476 69.5,91C 74.5866,88.3176 78.9199,89.1509 82.5,93.5C 83.6544,97.1168 84.6544,100.783 85.5,104.5C 84.1014,109.862 82.6014,115.196 81,120.5C 76.1505,129.885 71.9838,139.552 68.5,149.5 Z"/></g>
<g><path style="opacity:1" fill="#227da8" d="M 82.5,101.5 C 83.6341,103.966 83.8007,106.633 83,109.5C 80.8257,116.214 77.9923,122.547 74.5,128.5C 75.7118,122.944 76.8785,117.277 78,111.5C 80.1729,108.494 81.6729,105.161 82.5,101.5 Z"/></g>
<g><path style="opacity:1" fill="#9b4447" d="M 17.5,109.5 C 19.0946,111.111 20.2612,113.111 21,115.5C 21.4443,119.751 22.6109,123.751 24.5,127.5C 22.665,126.878 21.4983,125.544 21,123.5C 19.7675,118.834 18.6009,114.167 17.5,109.5 Z"/></g>
<g><path style="opacity:1" fill="#6e4137" d="M 32.5,98.5 C 35.1998,101.903 36.6998,105.903 37,110.5C 38.4571,122.197 39.9571,133.864 41.5,145.5C 41.6602,147.199 41.4935,148.866 41,150.5C 40.2828,149.956 39.7828,149.289 39.5,148.5C 39.6655,144.486 39.4988,140.486 39,136.5C 38.7837,134.616 38.117,132.949 37,131.5C 36.7331,122.893 35.5664,114.56 33.5,106.5C 33.4249,103.794 33.0916,101.127 32.5,98.5 Z"/></g>
<g><path style="opacity:1" fill="#b64f4f" d="M 33.5,106.5 C 35.5664,114.56 36.7331,122.893 37,131.5C 38.117,132.949 38.7837,134.616 39,136.5C 39.4988,140.486 39.6655,144.486 39.5,148.5C 37.6208,149.341 35.6208,149.675 33.5,149.5C 33.1667,148.5 32.5,147.833 31.5,147.5C 31.2975,143.24 30.2975,139.24 28.5,135.5C 30.1132,135.944 31.2798,136.944 32,138.5C 32.1816,141.226 32.6816,143.893 33.5,146.5C 34.5237,147.853 35.857,148.52 37.5,148.5C 35.9139,134.634 34.5806,120.634 33.5,106.5 Z"/></g>
<g><path style="opacity:1" fill="#785d59" d="M 31.5,147.5 C 32.5,147.833 33.1667,148.5 33.5,149.5C 33.9975,152.674 33.9975,156.007 33.5,159.5C 31.9652,160.788 30.2985,160.788 28.5,159.5C 30.7535,155.819 31.7535,151.819 31.5,147.5 Z"/></g>
<g><path style="opacity:1" fill="#9b785b" d="M 41.5,145.5 C 45.5365,154.099 42.8698,158.766 33.5,159.5C 33.9975,156.007 33.9975,152.674 33.5,149.5C 35.6208,149.675 37.6208,149.341 39.5,148.5C 39.7828,149.289 40.2828,149.956 41,150.5C 41.4935,148.866 41.6602,147.199 41.5,145.5 Z"/></g>
<g><path style="opacity:1" fill="#7f675d" d="M 58.5,156.5 C 57.1667,156.5 56.5,155.833 56.5,154.5C 57.5,154.5 58.5,154.5 59.5,154.5C 59.281,153.325 59.6143,152.325 60.5,151.5C 61.7946,152.098 63.1279,152.598 64.5,153C 63.1373,155.129 63.4706,155.629 65.5,154.5C 66.8333,155.833 66.8333,157.167 65.5,158.5C 63.2262,158.03 61.2262,157.03 59.5,155.5C 58.8933,155.624 58.56,155.957 58.5,156.5 Z"/></g>
<g><path style="opacity:1" fill="#53514b" d="M 58.5,146.5 C 58.8333,146.5 59.1667,146.5 59.5,146.5C 59.4142,147.496 59.7476,148.329 60.5,149C 62,149.5 63.5,150 65,150.5C 65.7648,150.43 66.2648,150.097 66.5,149.5C 67.1667,149.5 67.8333,149.5 68.5,149.5C 68.4001,152.667 69.0668,155.667 70.5,158.5C 67.5541,159.655 64.5541,159.821 61.5,159C 59.8807,158.764 58.8807,157.931 58.5,156.5C 58.56,155.957 58.8933,155.624 59.5,155.5C 61.2262,157.03 63.2262,158.03 65.5,158.5C 66.8333,157.167 66.8333,155.833 65.5,154.5C 63.4706,155.629 63.1373,155.129 64.5,153C 63.1279,152.598 61.7946,152.098 60.5,151.5C 59.6143,152.325 59.281,153.325 59.5,154.5C 58.5,154.5 57.5,154.5 56.5,154.5C 56.8023,151.627 57.469,148.961 58.5,146.5 Z"/></g>
</svg>
