<?xml version="1.0" encoding="UTF-8"?>
<!DOCTYPE svg PUBLIC "-//W3C//DTD SVG 1.1//EN" "http://www.w3.org/Graphics/SVG/1.1/DTD/svg11.dtd">
<svg xmlns="http://www.w3.org/2000/svg" version="1.1" width="100px" height="165px" style="shape-rendering:geometricPrecision; text-rendering:geometricPrecision; image-rendering:optimizeQuality; fill-rule:evenodd; clip-rule:evenodd" xmlns:xlink="http://www.w3.org/1999/xlink">
<g><path style="opacity:1" fill="#fcfcfb" d="M 4.5,-0.5 C 36.1667,-0.5 67.8333,-0.5 99.5,-0.5C 99.5,54.5 99.5,109.5 99.5,164.5C 66.8333,164.5 34.1667,164.5 1.5,164.5C 1.91715,161.657 2.91715,158.99 4.5,156.5C 5.49091,152.555 5.82425,148.555 5.5,144.5C 6.5,144.5 7.5,144.5 8.5,144.5C 8.73614,141.774 7.90281,139.441 6,137.5C 5.66667,138.833 5.33333,140.167 5,141.5C 4.10723,142.711 3.2739,142.711 2.5,141.5C 0.938913,134.628 1.43891,127.962 4,121.5C 4.24917,122.624 4.74917,123.624 5.5,124.5C 6.37422,122.295 5.70755,120.462 3.5,119C 5.91537,117.526 5.91537,115.86 3.5,114C 3.59699,105.085 3.59699,96.2514 3.5,87.5C 4.16667,82.1667 4.83333,76.8333 5.5,71.5C 5.58795,67.2914 4.92128,63.2914 3.5,59.5C 4.85542,56.5472 4.52208,53.8805 2.5,51.5C 4.21625,48.9046 5.21625,46.0713 5.5,43C 5.04684,36.9112 4.04684,30.7446 2.5,24.5C 3.5,24.5 4.5,24.5 5.5,24.5C 5.42074,27.2706 5.92074,29.9373 7,32.5C 8.30392,23.8721 7.13725,15.7054 3.5,8C 3.47326,5.35996 4.80659,4.02662 7.5,4C 4.83333,3 4.83333,2 7.5,1C 6.26253,0.76791 5.26253,0.26791 4.5,-0.5 Z"/></g>
<g><path style="opacity:1" fill="#935d58" d="M 17.5,5.5 C 23.5669,4.04141 29.5669,4.70808 35.5,7.5C 36.782,8.95844 36.782,10.2918 35.5,11.5C 34.8333,12.1667 34.1667,12.8333 33.5,13.5C 33.5,12.8333 33.1667,12.5 32.5,12.5C 33.3007,10.9582 33.634,9.29152 33.5,7.5C 31.8333,7.5 30.1667,7.5 28.5,7.5C 24.9787,6.6931 21.312,6.02643 17.5,5.5 Z"/></g>
<g><path style="opacity:1" fill="#c25851" d="M 23.5,8.5 C 24.9187,7.54885 26.5853,7.21552 28.5,7.5C 30.1667,7.5 31.8333,7.5 33.5,7.5C 33.634,9.29152 33.3007,10.9582 32.5,12.5C 32.1667,13.1667 31.8333,13.8333 31.5,14.5C 27.6906,15.1048 24.3573,15.1048 21.5,14.5C 20.4019,13.603 20.4019,12.7697 21.5,12C 18.8819,10.2559 19.2152,9.08921 22.5,8.5C 23.0925,13.2624 25.5925,14.5957 30,12.5C 30.7494,11.365 30.5827,10.365 29.5,9.5C 27.5914,8.65178 25.5914,8.31845 23.5,8.5 Z"/></g>
<g><path style="opacity:1" fill="#712c29" d="M 17.5,5.5 C 21.312,6.02643 24.9787,6.6931 28.5,7.5C 26.5853,7.21552 24.9187,7.54885 23.5,8.5C 23.1667,8.5 22.8333,8.5 22.5,8.5C 19.2152,9.08921 18.8819,10.2559 21.5,12C 20.4019,12.7697 20.4019,13.603 21.5,14.5C 20.8333,14.5 20.1667,14.5 19.5,14.5C 19.297,12.3618 18.297,10.6951 16.5,9.5C 18.1759,8.2724 18.5092,6.93906 17.5,5.5 Z"/></g>
<g><path style="opacity:1" fill="#e75b57" d="M 22.5,8.5 C 22.8333,8.5 23.1667,8.5 23.5,8.5C 25.5914,8.31845 27.5914,8.65178 29.5,9.5C 30.5827,10.365 30.7494,11.365 30,12.5C 25.5925,14.5957 23.0925,13.2624 22.5,8.5 Z"/></g>
<g><path style="opacity:1" fill="#765954" d="M 17.5,5.5 C 18.5092,6.93906 18.1759,8.2724 16.5,9.5C 18.297,10.6951 19.297,12.3618 19.5,14.5C 18.5269,16.9479 18.1936,19.6146 18.5,22.5C 18.1667,22.5 17.8333,22.5 17.5,22.5C 17.4313,17.7937 16.4313,13.2937 14.5,9C 14.2776,6.72533 15.2776,5.55867 17.5,5.5 Z"/></g>
<g><path style="opacity:1" fill="#b78757" d="M 19.5,14.5 C 20.1667,14.5 20.8333,14.5 21.5,14.5C 24.3573,15.1048 27.6906,15.1048 31.5,14.5C 31.5,15.1667 31.1667,15.5 30.5,15.5C 29.5655,16.5676 29.2322,17.901 29.5,19.5C 28.8826,19.6107 28.3826,19.944 28,20.5C 27.6667,18.8333 27.3333,17.1667 27,15.5C 26.3333,16.1667 25.6667,16.8333 25,17.5C 23.5491,17.2642 22.0491,17.2642 20.5,17.5C 20.4431,16.391 20.1098,15.391 19.5,14.5 Z"/></g>
<g><path style="opacity:1" fill="#c9bd8e" d="M 19.5,14.5 C 20.1098,15.391 20.4431,16.391 20.5,17.5C 19.1716,18.9097 19.5049,20.0764 21.5,21C 22.8333,21.1667 24.1667,21.3333 25.5,21.5C 27.3328,21.4146 28.6661,20.7479 29.5,19.5C 29.2322,17.901 29.5655,16.5676 30.5,15.5C 30.5,17.8333 30.5,20.1667 30.5,22.5C 26.5,22.5 22.5,22.5 18.5,22.5C 18.1936,19.6146 18.5269,16.9479 19.5,14.5 Z"/></g>
<g><path style="opacity:1" fill="#e9d276" d="M 29.5,19.5 C 28.6661,20.7479 27.3328,21.4146 25.5,21.5C 24.1667,21.3333 22.8333,21.1667 21.5,21C 19.5049,20.0764 19.1716,18.9097 20.5,17.5C 22.0491,17.2642 23.5491,17.2642 25,17.5C 25.6667,16.8333 26.3333,16.1667 27,15.5C 27.3333,17.1667 27.6667,18.8333 28,20.5C 28.3826,19.944 28.8826,19.6107 29.5,19.5 Z"/></g>
<g><path style="opacity:1" fill="#61523e" d="M 32.5,12.5 C 33.1667,12.5 33.5,12.8333 33.5,13.5C 32.99,16.5394 32.3234,19.5394 31.5,22.5C 31.1667,22.5 30.8333,22.5 30.5,22.5C 30.5,20.1667 30.5,17.8333 30.5,15.5C 31.1667,15.5 31.5,15.1667 31.5,14.5C 31.8333,13.8333 32.1667,13.1667 32.5,12.5 Z"/></g>
<g><path style="opacity:1" fill="#f3f3f0" d="M 84.5,30.5 C 85.0398,26.731 83.7065,24.0643 80.5,22.5C 80.5751,19.7938 80.9084,17.1272 81.5,14.5C 84.7673,10.2368 83.7673,7.57009 78.5,6.5C 72.8992,3.67354 67.3992,4.00687 62,7.5C 61.1231,9.67422 61.6231,11.3409 63.5,12.5C 63.5,12.8333 63.5,13.1667 63.5,13.5C 64.4137,16.728 64.7471,20.0613 64.5,23.5C 61.2463,24.673 60.0796,27.0063 61,30.5C 61.3826,31.056 61.8826,31.3893 62.5,31.5C 62.4142,32.4959 62.7476,33.3292 63.5,34C 65.7274,34.941 67.7274,36.1077 69.5,37.5C 67.3424,39.9929 64.6757,41.6595 61.5,42.5C 61.5,44.8333 61.5,47.1667 61.5,49.5C 60.7784,49.0825 60.2784,48.4158 60,47.5C 59.6667,49.1667 59.3333,50.8333 59,52.5C 58.6667,52.1667 58.3333,51.8333 58,51.5C 57.2938,46.8239 56.9605,42.1572 57,37.5C 57.414,37.0426 57.914,36.7093 58.5,36.5C 60.2601,39.0212 62.5934,39.8545 65.5,39C 58.3486,35.8854 55.0153,30.5521 55.5,23C 59.0643,21.6038 61.3976,19.1038 62.5,15.5C 61.6372,13.1282 60.4705,13.1282 59,15.5C 58.3333,12.8333 57.6667,12.8333 57,15.5C 57.7753,12.2205 58.2753,9.05381 58.5,6C 59.9663,5.36453 61.2997,4.53119 62.5,3.5C 64.1017,4.54997 64.935,3.88331 65,1.5C 65.804,2.80449 66.9707,3.47116 68.5,3.5C 70.6969,2.93438 72.8636,2.26771 75,1.5C 79.0144,4.47056 83.5144,6.47056 88.5,7.5C 88.8333,7.83333 89.1667,8.16667 89.5,8.5C 88.2841,11.3441 86.6174,13.8441 84.5,16C 85.8333,18.3333 85.8333,20.6667 84.5,23C 90.6184,23.4076 91.7851,25.9076 88,30.5C 87.3333,28.5 86.6667,26.5 86,24.5C 85.8091,26.7078 85.3091,28.7078 84.5,30.5 Z"/></g>
<g><path style="opacity:1" fill="#6d634b" d="M 81.5,14.5 C 80.9084,17.1272 80.5751,19.7938 80.5,22.5C 79.8333,22.5 79.1667,22.5 78.5,22.5C 78.5,20.1667 78.5,17.8333 78.5,15.5C 79.4584,15.0472 80.2917,14.3805 81,13.5C 81.3988,13.7284 81.5654,14.0618 81.5,14.5 Z"/></g>
<g><path style="opacity:1" fill="#e2cd7e" d="M 77.5,15.5 C 77.8333,15.5 78.1667,15.5 78.5,15.5C 78.5,17.8333 78.5,20.1667 78.5,22.5C 78.1667,22.5 77.8333,22.5 77.5,22.5C 74.4816,22.6646 71.4816,22.498 68.5,22C 67.5939,20.3005 67.2606,18.4672 67.5,16.5C 68.8333,16.5 70.1667,16.5 71.5,16.5C 71.5959,21.1103 72.5959,21.4436 74.5,17.5C 76.7124,21.1097 77.7124,20.443 77.5,15.5 Z"/></g>
<g><path style="opacity:1" fill="#d0ac5c" d="M 67.5,16.5 C 67.5,16.1667 67.5,15.8333 67.5,15.5C 68.1667,15.5 68.8333,15.5 69.5,15.5C 71.5,15.5 73.5,15.5 75.5,15.5C 76.1667,15.5 76.8333,15.5 77.5,15.5C 77.7124,20.443 76.7124,21.1097 74.5,17.5C 72.5959,21.4436 71.5959,21.1103 71.5,16.5C 70.1667,16.5 68.8333,16.5 67.5,16.5 Z"/></g>
<g><path style="opacity:1" fill="#7d6755" d="M 63.5,13.5 C 65.2915,13.366 66.9582,13.6993 68.5,14.5C 69.1667,14.5 69.5,14.8333 69.5,15.5C 68.8333,15.5 68.1667,15.5 67.5,15.5C 66.5386,17.2646 66.2053,19.2646 66.5,21.5C 65.8333,22.1667 65.1667,22.8333 64.5,23.5C 64.7471,20.0613 64.4137,16.728 63.5,13.5 Z"/></g>
<g><path style="opacity:1" fill="#c7574f" d="M 74.5,7.5 C 77.3795,7.03253 79.7129,7.86586 81.5,10C 81.3613,11.301 80.6946,12.1344 79.5,12.5C 78.4097,13.8571 77.0764,14.8571 75.5,15.5C 73.5,15.5 71.5,15.5 69.5,15.5C 69.5,14.8333 69.1667,14.5 68.5,14.5C 67.6766,9.66057 69.6766,7.32724 74.5,7.5 Z"/></g>
<g><path style="opacity:1" fill="#e6504e" d="M 79.5,12.5 C 76.4824,12.7038 73.4824,13.0371 70.5,13.5C 70.5,12.1667 70.5,10.8333 70.5,9.5C 73.5,9.5 76.5,9.5 79.5,9.5C 79.5,10.5 79.5,11.5 79.5,12.5 Z"/></g>
<g><path style="opacity:1" fill="#7e3636" d="M 74.5,6.5 C 74.5,6.83333 74.5,7.16667 74.5,7.5C 69.6766,7.32724 67.6766,9.66057 68.5,14.5C 66.9582,13.6993 65.2915,13.366 63.5,13.5C 63.5,13.1667 63.5,12.8333 63.5,12.5C 63.5,10.8333 63.5,9.16667 63.5,7.5C 67.1545,7.05775 70.8212,6.72442 74.5,6.5 Z"/></g>
<g><path style="opacity:1" fill="#8d7070" d="M 78.5,6.5 C 77.1667,6.5 75.8333,6.5 74.5,6.5C 70.8212,6.72442 67.1545,7.05775 63.5,7.5C 63.5,9.16667 63.5,10.8333 63.5,12.5C 61.6231,11.3409 61.1231,9.67422 62,7.5C 67.3992,4.00687 72.8992,3.67354 78.5,6.5 Z"/></g>
<g><path style="opacity:1" fill="#9a5b50" d="M 74.5,7.5 C 74.5,7.16667 74.5,6.83333 74.5,6.5C 75.8333,6.5 77.1667,6.5 78.5,6.5C 83.7673,7.57009 84.7673,10.2368 81.5,14.5C 81.5654,14.0618 81.3988,13.7284 81,13.5C 80.2917,14.3805 79.4584,15.0472 78.5,15.5C 78.1667,15.5 77.8333,15.5 77.5,15.5C 76.8333,15.5 76.1667,15.5 75.5,15.5C 77.0764,14.8571 78.4097,13.8571 79.5,12.5C 80.6946,12.1344 81.3613,11.301 81.5,10C 79.7129,7.86586 77.3795,7.03253 74.5,7.5 Z"/></g>
<g><path style="opacity:1" fill="#a39c7a" d="M 67.5,15.5 C 67.5,15.8333 67.5,16.1667 67.5,16.5C 67.2606,18.4672 67.5939,20.3005 68.5,22C 71.4816,22.498 74.4816,22.6646 77.5,22.5C 74.3601,23.6408 71.0267,23.8075 67.5,23C 66.944,22.6174 66.6107,22.1174 66.5,21.5C 66.2053,19.2646 66.5386,17.2646 67.5,15.5 Z"/></g>
<g><path style="opacity:1" fill="#3e6376" d="M 17.5,22.5 C 17.8333,22.5 18.1667,22.5 18.5,22.5C 22.5,22.5 26.5,22.5 30.5,22.5C 30.8333,22.5 31.1667,22.5 31.5,22.5C 36.7427,24.1187 37.9093,27.4521 35,32.5C 34.1841,33.8228 33.0174,34.4894 31.5,34.5C 32.7274,32.6801 33.7274,30.6801 34.5,28.5C 34.523,26.9334 34.023,25.6001 33,24.5C 33.0362,29.4629 30.8696,32.7963 26.5,34.5C 25.8333,34.5 25.1667,34.5 24.5,34.5C 27.0235,30.654 27.0235,26.9873 24.5,23.5C 23.5,23.5 22.5,23.5 21.5,23.5C 19.7074,23.8836 18.7074,25.0503 18.5,27C 19,28.5 19.5,30 20,31.5C 20.6708,32.2524 21.5041,32.5858 22.5,32.5C 22.8333,33.1667 23.1667,33.8333 23.5,34.5C 22.8333,34.8333 22.1667,35.1667 21.5,35.5C 14.8393,34.6723 12.3393,31.0057 14,24.5C 15.3024,23.9152 16.469,23.2485 17.5,22.5 Z"/></g>
<g><path style="opacity:1" fill="#1a4a69" d="M 21.5,23.5 C 22.5,23.5 23.5,23.5 24.5,23.5C 23.4183,24.5938 22.7517,25.9271 22.5,27.5C 23.5064,29.3541 23.5064,31.0208 22.5,32.5C 21.5975,29.6085 21.2641,26.6085 21.5,23.5 Z"/></g>
<g><path style="opacity:1" fill="#fbfdf4" d="M -0.5,-0.5 C 1.16667,-0.5 2.83333,-0.5 4.5,-0.5C 5.26253,0.26791 6.26253,0.76791 7.5,1C 4.83333,2 4.83333,3 7.5,4C 4.80659,4.02662 3.47326,5.35996 3.5,8C 7.13725,15.7054 8.30392,23.8721 7,32.5C 5.92074,29.9373 5.42074,27.2706 5.5,24.5C 4.5,24.5 3.5,24.5 2.5,24.5C 4.04684,30.7446 5.04684,36.9112 5.5,43C 5.21625,46.0713 4.21625,48.9046 2.5,51.5C 4.52208,53.8805 4.85542,56.5472 3.5,59.5C 4.92128,63.2914 5.58795,67.2914 5.5,71.5C 4.83333,76.8333 4.16667,82.1667 3.5,87.5C 3.59699,96.2514 3.59699,105.085 3.5,114C 5.91537,115.86 5.91537,117.526 3.5,119C 5.70755,120.462 6.37422,122.295 5.5,124.5C 4.74917,123.624 4.24917,122.624 4,121.5C 1.43891,127.962 0.938913,134.628 2.5,141.5C 3.2739,142.711 4.10723,142.711 5,141.5C 5.33333,140.167 5.66667,138.833 6,137.5C 7.90281,139.441 8.73614,141.774 8.5,144.5C 7.5,144.5 6.5,144.5 5.5,144.5C 5.82425,148.555 5.49091,152.555 4.5,156.5C 2.91715,158.99 1.91715,161.657 1.5,164.5C 0.833333,164.5 0.166667,164.5 -0.5,164.5C -0.5,109.5 -0.5,54.5 -0.5,-0.5 Z"/></g>
<g><path style="opacity:1" fill="#48a2c6" d="M 27.5,24.5 C 28.5,24.5 29.5,24.5 30.5,24.5C 28.5,34.8523 27.5,34.8523 27.5,24.5 Z"/></g>
<g><path style="opacity:1" fill="#4b9ecb" d="M 21.5,23.5 C 21.2641,26.6085 21.5975,29.6085 22.5,32.5C 21.5041,32.5858 20.6708,32.2524 20,31.5C 19.5,30 19,28.5 18.5,27C 18.7074,25.0503 19.7074,23.8836 21.5,23.5 Z"/></g>
<g><path style="opacity:1" fill="#46a0c6" d="M 24.5,23.5 C 27.0235,26.9873 27.0235,30.654 24.5,34.5C 24.1667,34.5 23.8333,34.5 23.5,34.5C 23.1667,33.8333 22.8333,33.1667 22.5,32.5C 23.5064,31.0208 23.5064,29.3541 22.5,27.5C 22.7517,25.9271 23.4183,24.5938 24.5,23.5 Z"/></g>
<g><path style="opacity:1" fill="#63a1bf" d="M 15.5,25.5 C 16.1679,28.2448 17.5012,30.7448 19.5,33C 16.4243,32.7499 14.7576,30.9165 14.5,27.5C 14.8627,26.8165 15.1961,26.1499 15.5,25.5 Z"/></g>
<g><path style="opacity:1" fill="#4288ae" d="M 64.5,23.5 C 64.2245,29.51 65.0579,29.8433 67,24.5C 70.7273,24.9588 74.5607,24.9588 78.5,24.5C 78.5946,27.6967 77.9279,30.6967 76.5,33.5C 73.1934,33.9368 70.1934,33.2702 67.5,31.5C 67.1667,32.1667 66.8333,32.8333 66.5,33.5C 65.3777,32.3698 64.0443,31.7031 62.5,31.5C 61.8826,31.3893 61.3826,31.056 61,30.5C 60.0796,27.0063 61.2463,24.673 64.5,23.5 Z"/></g>
<g><path style="opacity:1" fill="#3e7493" d="M 78.5,24.5 C 81.3213,24.3159 82.9879,25.6493 83.5,28.5C 82.1963,31.1301 80.5296,33.4634 78.5,35.5C 78.5,36.1667 78.1667,36.5 77.5,36.5C 77.4431,35.391 77.1098,34.391 76.5,33.5C 77.9279,30.6967 78.5946,27.6967 78.5,24.5 Z"/></g>
<g><path style="opacity:1" fill="#5a96ad" d="M 31.5,34.5 C 29.8333,34.5 28.1667,34.5 26.5,34.5C 30.8696,32.7963 33.0362,29.4629 33,24.5C 34.023,25.6001 34.523,26.9334 34.5,28.5C 33.7274,30.6801 32.7274,32.6801 31.5,34.5 Z"/></g>
<g><path style="opacity:1" fill="#3b5869" d="M 66.5,21.5 C 66.6107,22.1174 66.944,22.6174 67.5,23C 71.0267,23.8075 74.3601,23.6408 77.5,22.5C 77.8333,22.5 78.1667,22.5 78.5,22.5C 79.1667,22.5 79.8333,22.5 80.5,22.5C 83.7065,24.0643 85.0398,26.731 84.5,30.5C 83.0892,32.914 81.0892,34.5806 78.5,35.5C 80.5296,33.4634 82.1963,31.1301 83.5,28.5C 82.9879,25.6493 81.3213,24.3159 78.5,24.5C 74.5607,24.9588 70.7273,24.9588 67,24.5C 65.0579,29.8433 64.2245,29.51 64.5,23.5C 65.1667,22.8333 65.8333,22.1667 66.5,21.5 Z"/></g>
<g><path style="opacity:1" fill="#3b5e69" d="M 62.5,31.5 C 64.0443,31.7031 65.3777,32.3698 66.5,33.5C 66.8333,32.8333 67.1667,32.1667 67.5,31.5C 70.1934,33.2702 73.1934,33.9368 76.5,33.5C 77.1098,34.391 77.4431,35.391 77.5,36.5C 77.1667,36.5 76.8333,36.5 76.5,36.5C 75.8485,37.0906 75.1818,37.7573 74.5,38.5C 73.1153,34.6221 71.9486,34.6221 71,38.5C 70.6174,37.944 70.1174,37.6107 69.5,37.5C 67.7274,36.1077 65.7274,34.941 63.5,34C 62.7476,33.3292 62.4142,32.4959 62.5,31.5 Z"/></g>
<g><path style="opacity:1" fill="#36473d" d="M 23.5,34.5 C 23.8333,34.5 24.1667,34.5 24.5,34.5C 25.1667,34.5 25.8333,34.5 26.5,34.5C 28.1667,34.5 29.8333,34.5 31.5,34.5C 31.0269,35.9063 30.0269,36.573 28.5,36.5C 27.8333,37.1667 27.1667,37.8333 26.5,38.5C 25.8333,38.8333 25.1667,39.1667 24.5,39.5C 25.2916,38.0331 25.2916,36.6998 24.5,35.5C 23.6919,35.8076 23.0253,36.3076 22.5,37C 23.5981,37.7697 23.5981,38.603 22.5,39.5C 21.5084,39.6716 20.8417,39.3382 20.5,38.5C 21.404,37.791 21.7373,36.791 21.5,35.5C 22.1667,35.1667 22.8333,34.8333 23.5,34.5 Z"/></g>
<g><path style="opacity:1" fill="#7d9484" d="M 24.5,39.5 C 23.8333,39.5 23.1667,39.5 22.5,39.5C 23.5981,38.603 23.5981,37.7697 22.5,37C 23.0253,36.3076 23.6919,35.8076 24.5,35.5C 25.2916,36.6998 25.2916,38.0331 24.5,39.5 Z"/></g>
<g><path style="opacity:1" fill="#757562" d="M 76.5,36.5 C 76.5569,37.609 76.8902,38.609 77.5,39.5C 76.8333,39.5 76.5,39.8333 76.5,40.5C 75.8826,40.6107 75.3826,40.944 75,41.5C 71.4321,38.6484 68.5988,39.3151 66.5,43.5C 62.8191,44.2222 61.8191,46.2222 63.5,49.5C 62.8333,49.5 62.1667,49.5 61.5,49.5C 61.5,47.1667 61.5,44.8333 61.5,42.5C 64.6757,41.6595 67.3424,39.9929 69.5,37.5C 70.1174,37.6107 70.6174,37.944 71,38.5C 71.9486,34.6221 73.1153,34.6221 74.5,38.5C 75.1818,37.7573 75.8485,37.0906 76.5,36.5 Z"/></g>
<g><path style="opacity:1" fill="#b9ab93" d="M 26.5,38.5 C 26.5,39.1667 26.5,39.8333 26.5,40.5C 26.7373,41.791 26.404,42.791 25.5,43.5C 23.8624,42.2954 23.5291,40.9621 24.5,39.5C 25.1667,39.1667 25.8333,38.8333 26.5,38.5 Z"/></g>
<g><path style="opacity:1" fill="#947a69" d="M 20.5,38.5 C 20.8417,39.3382 21.5084,39.6716 22.5,39.5C 23.1667,39.5 23.8333,39.5 24.5,39.5C 23.5291,40.9621 23.8624,42.2954 25.5,43.5C 22.5,43.5 19.5,43.5 16.5,43.5C 14.6921,44.9179 14.0254,46.9179 14.5,49.5C 13.5318,47.3926 13.1984,45.0593 13.5,42.5C 16.3033,42.0387 18.6366,40.7053 20.5,38.5 Z"/></g>
<g><path style="opacity:1" fill="#e8eae3" d="M 35.5,11.5 C 35.6427,13.2624 35.3094,14.9291 34.5,16.5C 35.6094,18.3853 36.4427,20.3853 37,22.5C 37.8928,21.2888 38.7261,21.2888 39.5,22.5C 38.9747,23.1924 38.3081,23.6924 37.5,24C 37.5115,27.6872 38.0115,30.1872 39,31.5C 37.6769,33.8386 36.1769,36.0053 34.5,38C 35.8905,39.02 37.3905,39.8534 39,40.5C 39.9482,44.0971 39.1148,47.0971 36.5,49.5C 36.5,48.1667 36.5,46.8333 36.5,45.5C 36.5,44.5 36.5,43.5 36.5,42.5C 35.0222,42.762 33.6888,42.4287 32.5,41.5C 30.3886,40.3954 29.0553,38.7288 28.5,36.5C 30.0269,36.573 31.0269,35.9063 31.5,34.5C 33.0174,34.4894 34.1841,33.8228 35,32.5C 37.9093,27.4521 36.7427,24.1187 31.5,22.5C 32.3234,19.5394 32.99,16.5394 33.5,13.5C 34.1667,12.8333 34.8333,12.1667 35.5,11.5 Z"/></g>
<g><path style="opacity:1" fill="#6f5a4a" d="M 76.5,40.5 C 76.5,39.8333 76.8333,39.5 77.5,39.5C 79.4605,41.3122 81.7939,42.3122 84.5,42.5C 84.5,44.8333 84.5,47.1667 84.5,49.5C 82.8333,49.5 81.1667,49.5 79.5,49.5C 79.5,48.8333 79.5,48.1667 79.5,47.5C 80.5,47.5 81.5,47.5 82.5,47.5C 82.6567,46.1266 82.49,44.7932 82,43.5C 81.2303,44.5981 80.397,44.5981 79.5,43.5C 78.5,42.5 77.5,41.5 76.5,40.5 Z"/></g>
<g><path style="opacity:1" fill="#877059" d="M 28.5,36.5 C 29.0553,38.7288 30.3886,40.3954 32.5,41.5C 33.6888,42.4287 35.0222,42.762 36.5,42.5C 36.5,43.5 36.5,44.5 36.5,45.5C 35.7777,44.4489 34.7777,43.7822 33.5,43.5C 31.5,43.5 29.5,43.5 27.5,43.5C 27.7373,42.209 27.404,41.209 26.5,40.5C 26.5,39.8333 26.5,39.1667 26.5,38.5C 27.1667,37.8333 27.8333,37.1667 28.5,36.5 Z"/></g>
<g><path style="opacity:1" fill="#997c65" d="M 76.5,40.5 C 77.5,41.5 78.5,42.5 79.5,43.5C 74.8572,43.6073 70.5238,43.6073 66.5,43.5C 68.5988,39.3151 71.4321,38.6484 75,41.5C 75.3826,40.944 75.8826,40.6107 76.5,40.5 Z"/></g>
<g><path style="opacity:1" fill="#905048" d="M 66.5,43.5 C 70.5238,43.6073 74.8572,43.6073 79.5,43.5C 80.397,44.5981 81.2303,44.5981 82,43.5C 82.49,44.7932 82.6567,46.1266 82.5,47.5C 81.5,47.5 80.5,47.5 79.5,47.5C 79.5,48.1667 79.5,48.8333 79.5,49.5C 74.1667,49.5 68.8333,49.5 63.5,49.5C 61.8191,46.2222 62.8191,44.2222 66.5,43.5 Z"/></g>
<g><path style="opacity:1" fill="#8f4e42" d="M 26.5,40.5 C 27.404,41.209 27.7373,42.209 27.5,43.5C 29.5,43.5 31.5,43.5 33.5,43.5C 34.2341,44.7079 34.5674,46.0413 34.5,47.5C 33.5,47.5 32.5,47.5 31.5,47.5C 31.6107,46.8826 31.944,46.3826 32.5,46C 28.4705,45.6972 24.4705,45.1972 20.5,44.5C 19.5836,44.5427 18.9169,44.8761 18.5,45.5C 17.7784,45.9175 17.2784,46.5842 17,47.5C 16.51,46.2068 16.3433,44.8734 16.5,43.5C 19.5,43.5 22.5,43.5 25.5,43.5C 26.404,42.791 26.7373,41.791 26.5,40.5 Z"/></g>
<g><path style="opacity:1" fill="#ce5e5f" d="M 79.5,47.5 C 74.7863,47.8266 70.1196,47.4933 65.5,46.5C 67.8333,46.1667 70.1667,45.8333 72.5,45.5C 75.2695,45.5286 77.6028,46.1952 79.5,47.5 Z"/></g>
<g><path style="opacity:1" fill="#855755" d="M 16.5,43.5 C 16.3433,44.8734 16.51,46.2068 17,47.5C 17.2784,46.5842 17.7784,45.9175 18.5,45.5C 18.8807,46.9311 19.8807,47.7645 21.5,48C 25.0267,48.8075 28.3601,48.6408 31.5,47.5C 32.5,47.5 33.5,47.5 34.5,47.5C 34.5674,46.0413 34.2341,44.7079 33.5,43.5C 34.7777,43.7822 35.7777,44.4489 36.5,45.5C 36.5,46.8333 36.5,48.1667 36.5,49.5C 29.1667,49.5 21.8333,49.5 14.5,49.5C 14.0254,46.9179 14.6921,44.9179 16.5,43.5 Z"/></g>
<g><path style="opacity:1" fill="#c95c66" d="M 31.5,47.5 C 28.3601,48.6408 25.0267,48.8075 21.5,48C 19.8807,47.7645 18.8807,46.9311 18.5,45.5C 18.9169,44.8761 19.5836,44.5427 20.5,44.5C 24.4705,45.1972 28.4705,45.6972 32.5,46C 31.944,46.3826 31.6107,46.8826 31.5,47.5 Z"/></g>
<g><path style="opacity:1" fill="#8b5e5c" d="M 81.5,117.5 C 84.1426,119.878 84.1426,122.212 81.5,124.5C 81.5,124.167 81.5,123.833 81.5,123.5C 80.9694,120.221 78.9694,118.887 75.5,119.5C 75.5,119.167 75.5,118.833 75.5,118.5C 71.8174,117.08 68.1507,117.414 64.5,119.5C 63.7383,121.781 64.7383,123.114 67.5,123.5C 67.4431,124.609 67.1098,125.609 66.5,126.5C 65.8333,127.167 65.1667,127.833 64.5,128.5C 64.205,126.577 63.3717,124.91 62,123.5C 61.1923,121.421 61.359,119.421 62.5,117.5C 68.8321,114.889 75.1655,114.889 81.5,117.5 Z"/></g>
<g><path style="opacity:1" fill="#7b3438" d="M 75.5,118.5 C 73.5853,118.216 71.9187,118.549 70.5,119.5C 69.596,120.209 69.2627,121.209 69.5,122.5C 68.0755,120.969 67.4088,121.302 67.5,123.5C 64.7383,123.114 63.7383,121.781 64.5,119.5C 68.1507,117.414 71.8174,117.08 75.5,118.5 Z"/></g>
<g><path style="opacity:1" fill="#813c39" d="M 28.5,116.5 C 33.7956,116.443 35.4623,118.777 33.5,123.5C 33.1667,123.5 32.8333,123.5 32.5,123.5C 32.7373,122.209 32.404,121.209 31.5,120.5C 29.7103,119.003 27.5437,118.336 25,118.5C 18.9876,119.176 18.1543,121.509 22.5,125.5C 21.8333,125.5 21.1667,125.5 20.5,125.5C 19.4928,124.172 18.1595,123.172 16.5,122.5C 15.4173,121.635 15.2506,120.635 16,119.5C 20.0032,117.915 24.1698,116.915 28.5,116.5 Z"/></g>
<g><path style="opacity:1" fill="#f4f6e9" d="M 81.5,133.5 C 81.1667,133.5 80.8333,133.5 80.5,133.5C 80.1667,133.5 79.8333,133.5 79.5,133.5C 79.7556,130.402 80.4222,127.402 81.5,124.5C 84.1426,122.212 84.1426,119.878 81.5,117.5C 81.5,116.5 81.5,115.5 81.5,114.5C 84.3556,115.414 86.8556,117.081 89,119.5C 89.9181,122.063 89.4181,124.23 87.5,126C 88.8333,127 90.1667,128 91.5,129C 88.4483,131.173 85.115,132.673 81.5,133.5 Z"/></g>
<g><path style="opacity:1" fill="#eae8eb" d="M 27.5,115.5 C 23.8183,115.335 20.1516,115.501 16.5,116C 15.0692,116.465 13.9025,117.299 13,118.5C 15.2333,123.108 16.4,128.108 16.5,133.5C 12.5093,135.812 11.5093,139.145 13.5,143.5C 12.2022,140.727 10.8689,137.894 9.5,135C 10.7932,134.51 12.1266,134.343 13.5,134.5C 13.6602,132.801 13.4935,131.134 13,129.5C 11.3476,128.783 9.84757,128.45 8.5,128.5C 9.71109,127.28 9.71109,126.113 8.5,125C 10.7154,123.115 10.3821,121.282 7.5,119.5C 9.36146,118.472 10.6948,116.972 11.5,115C 13,114.5 14.5,114 16,113.5C 19.985,114.072 23.8183,114.739 27.5,115.5 Z"/></g>
<g><path style="opacity:1" fill="#ea5a5f" d="M 31.5,120.5 C 32.404,121.209 32.7373,122.209 32.5,123.5C 32.1667,123.5 31.8333,123.5 31.5,123.5C 28.0406,125.24 25.0406,124.74 22.5,122C 22.8621,120.115 24.0287,119.281 26,119.5C 27.825,119.943 29.6583,120.277 31.5,120.5 Z"/></g>
<g><path style="opacity:1" fill="#e8565a" d="M 75.5,118.5 C 75.5,118.833 75.5,119.167 75.5,119.5C 80.9392,121.449 80.7726,122.782 75,123.5C 71.7366,124.068 70.2366,122.734 70.5,119.5C 71.9187,118.549 73.5853,118.216 75.5,118.5 Z"/></g>
<g><path style="opacity:1" fill="#7f625a" d="M 27.5,115.5 C 27.8333,115.5 28.1667,115.5 28.5,115.5C 28.5,115.833 28.5,116.167 28.5,116.5C 24.1698,116.915 20.0032,117.915 16,119.5C 15.2506,120.635 15.4173,121.635 16.5,122.5C 18.1595,123.172 19.4928,124.172 20.5,125.5C 20.5,125.833 20.5,126.167 20.5,126.5C 19.5,126.5 18.5,126.5 17.5,126.5C 17.3862,129.216 18.3862,131.216 20.5,132.5C 20.5,132.833 20.5,133.167 20.5,133.5C 19.1667,133.5 17.8333,133.5 16.5,133.5C 16.4,128.108 15.2333,123.108 13,118.5C 13.9025,117.299 15.0692,116.465 16.5,116C 20.1516,115.501 23.8183,115.335 27.5,115.5 Z"/></g>
<g><path style="opacity:1" fill="#d36258" d="M 70.5,119.5 C 70.2366,122.734 71.7366,124.068 75,123.5C 80.7726,122.782 80.9392,121.449 75.5,119.5C 78.9694,118.887 80.9694,120.221 81.5,123.5C 80.8333,123.833 80.1667,124.167 79.5,124.5C 77.4086,124.318 75.4086,124.652 73.5,125.5C 71.517,125.185 70.1837,124.185 69.5,122.5C 69.2627,121.209 69.596,120.209 70.5,119.5 Z"/></g>
<g><path style="opacity:1" fill="#bc5b4a" d="M 31.5,120.5 C 29.6583,120.277 27.825,119.943 26,119.5C 24.0287,119.281 22.8621,120.115 22.5,122C 25.0406,124.74 28.0406,125.24 31.5,123.5C 30.6935,124.728 29.6935,125.728 28.5,126.5C 27.8333,126.5 27.1667,126.5 26.5,126.5C 26.1667,126.5 25.8333,126.5 25.5,126.5C 24.609,125.89 23.609,125.557 22.5,125.5C 18.1543,121.509 18.9876,119.176 25,118.5C 27.5437,118.336 29.7103,119.003 31.5,120.5 Z"/></g>
<g><path style="opacity:1" fill="#6b523b" d="M 31.5,123.5 C 31.8333,123.5 32.1667,123.5 32.5,123.5C 32.8333,123.5 33.1667,123.5 33.5,123.5C 31.9767,126.635 31.31,129.968 31.5,133.5C 30.8333,133.5 30.1667,133.5 29.5,133.5C 29.8016,130.941 29.4682,128.607 28.5,126.5C 29.6935,125.728 30.6935,124.728 31.5,123.5 Z"/></g>
<g><path style="opacity:1" fill="#955232" d="M 69.5,122.5 C 70.1837,124.185 71.517,125.185 73.5,125.5C 75.4086,124.652 77.4086,124.318 79.5,124.5C 79.5,125.167 79.1667,125.5 78.5,125.5C 77.2223,125.782 76.2223,126.449 75.5,127.5C 72.7131,126.523 69.7131,126.19 66.5,126.5C 67.1098,125.609 67.4431,124.609 67.5,123.5C 67.4088,121.302 68.0755,120.969 69.5,122.5 Z"/></g>
<g><path style="opacity:1" fill="#c79c51" d="M 20.5,126.5 C 20.5,126.167 20.5,125.833 20.5,125.5C 21.1667,125.5 21.8333,125.5 22.5,125.5C 23.609,125.557 24.609,125.89 25.5,126.5C 24.8166,128.176 23.4832,128.843 21.5,128.5C 21.5,129.833 21.5,131.167 21.5,132.5C 21.1667,132.5 20.8333,132.5 20.5,132.5C 20.7583,130.19 20.7583,128.19 20.5,126.5 Z"/></g>
<g><path style="opacity:1" fill="#8e866e" d="M 66.5,126.5 C 66.3939,129.079 67.0605,131.412 68.5,133.5C 68.1667,133.5 67.8333,133.5 67.5,133.5C 66.7784,133.082 66.2784,132.416 66,131.5C 65.7216,132.416 65.2216,133.082 64.5,133.5C 64.5,131.833 64.5,130.167 64.5,128.5C 65.1667,127.833 65.8333,127.167 66.5,126.5 Z"/></g>
<g><path style="opacity:1" fill="#594829" d="M 81.5,123.5 C 81.5,123.833 81.5,124.167 81.5,124.5C 80.4222,127.402 79.7556,130.402 79.5,133.5C 78.8333,133.5 78.1667,133.5 77.5,133.5C 78.388,130.946 78.7214,128.279 78.5,125.5C 79.1667,125.5 79.5,125.167 79.5,124.5C 80.1667,124.167 80.8333,123.833 81.5,123.5 Z"/></g>
<g><path style="opacity:1" fill="#d2bb89" d="M 20.5,126.5 C 20.7583,128.19 20.7583,130.19 20.5,132.5C 18.3862,131.216 17.3862,129.216 17.5,126.5C 18.5,126.5 19.5,126.5 20.5,126.5 Z"/></g>
<g><path style="opacity:1" fill="#ebe6d4" d="M 28.5,116.5 C 28.5,116.167 28.5,115.833 28.5,115.5C 31.1194,115.232 33.6194,115.565 36,116.5C 36.3453,122.695 35.8453,128.695 34.5,134.5C 33.791,133.596 32.791,133.263 31.5,133.5C 31.31,129.968 31.9767,126.635 33.5,123.5C 35.4623,118.777 33.7956,116.443 28.5,116.5 Z"/></g>
<g><path style="opacity:1" fill="#eace70" d="M 25.5,126.5 C 25.8333,126.5 26.1667,126.5 26.5,126.5C 26.5,128.5 26.5,130.5 26.5,132.5C 24.8333,132.5 23.1667,132.5 21.5,132.5C 21.5,131.167 21.5,129.833 21.5,128.5C 23.4832,128.843 24.8166,128.176 25.5,126.5 Z"/></g>
<g><path style="opacity:1" fill="#b8ab79" d="M 26.5,126.5 C 27.1667,126.5 27.8333,126.5 28.5,126.5C 29.4682,128.607 29.8016,130.941 29.5,133.5C 26.5,133.5 23.5,133.5 20.5,133.5C 20.5,133.167 20.5,132.833 20.5,132.5C 20.8333,132.5 21.1667,132.5 21.5,132.5C 23.1667,132.5 24.8333,132.5 26.5,132.5C 26.5,130.5 26.5,128.5 26.5,126.5 Z"/></g>
<g><path style="opacity:1" fill="#c9ba82" d="M 78.5,125.5 C 78.7214,128.279 78.388,130.946 77.5,133.5C 74.5,133.5 71.5,133.5 68.5,133.5C 67.0605,131.412 66.3939,129.079 66.5,126.5C 69.7131,126.19 72.7131,126.523 75.5,127.5C 76.2223,126.449 77.2223,125.782 78.5,125.5 Z"/></g>
<g><path style="opacity:1" fill="#d5ba57" d="M 75.5,127.5 C 75.5394,128.583 75.8728,129.583 76.5,130.5C 74.5352,131.292 72.5352,131.959 70.5,132.5C 69.6433,131.264 68.9766,129.931 68.5,128.5C 70.7427,127.526 73.076,127.192 75.5,127.5 Z"/></g>
<g><path style="opacity:1" fill="#546e5d" d="M 67.5,133.5 C 67.8333,133.5 68.1667,133.5 68.5,133.5C 71.5,133.5 74.5,133.5 77.5,133.5C 77.8333,134.167 78.1667,134.833 78.5,135.5C 77.5,135.5 76.5,135.5 75.5,135.5C 74.0387,134.314 72.7054,134.314 71.5,135.5C 70.1667,135.5 68.8333,135.5 67.5,135.5C 67.5,134.833 67.5,134.167 67.5,133.5 Z"/></g>
<g><path style="opacity:1" fill="#355e75" d="M 16.5,133.5 C 17.8333,133.5 19.1667,133.5 20.5,133.5C 23.5,133.5 26.5,133.5 29.5,133.5C 30.1667,133.5 30.8333,133.5 31.5,133.5C 31.4332,135.401 31.7665,137.234 32.5,139C 31.6604,140.171 30.8271,141.338 30,142.5C 30.1554,140.189 30.1554,137.856 30,135.5C 28.9505,134.483 27.7839,134.316 26.5,135C 27.7946,137.801 27.7946,140.634 26.5,143.5C 27.6283,144.262 28.7949,144.929 30,145.5C 32.1801,143.137 33.8468,140.47 35,137.5C 35.49,138.793 35.6567,140.127 35.5,141.5C 32.9958,144.84 29.9958,147.507 26.5,149.5C 25.6236,149.631 24.9569,149.298 24.5,148.5C 25.3629,147.274 25.3629,145.94 24.5,144.5C 25.299,141.57 25.6323,138.57 25.5,135.5C 24.5,135.5 23.5,135.5 22.5,135.5C 22.6633,137.857 22.4966,140.19 22,142.5C 20.3695,140.045 20.2028,137.545 21.5,135C 20.552,134.517 19.552,134.351 18.5,134.5C 18.5079,137.545 18.8413,140.545 19.5,143.5C 21.099,143.232 22.4324,143.566 23.5,144.5C 22.2905,144.932 21.2905,145.599 20.5,146.5C 19.8333,146.5 19.1667,146.5 18.5,146.5C 16.6675,145.752 15.0009,144.752 13.5,143.5C 11.5093,139.145 12.5093,135.812 16.5,133.5 Z"/></g>
<g><path style="opacity:1" fill="#4e9dbc" d="M 24.5,144.5 C 24.1667,144.5 23.8333,144.5 23.5,144.5C 22.4324,143.566 21.099,143.232 19.5,143.5C 18.8413,140.545 18.5079,137.545 18.5,134.5C 19.552,134.351 20.552,134.517 21.5,135C 20.2028,137.545 20.3695,140.045 22,142.5C 22.4966,140.19 22.6633,137.857 22.5,135.5C 23.5,135.5 24.5,135.5 25.5,135.5C 25.6323,138.57 25.299,141.57 24.5,144.5 Z"/></g>
<g><path style="opacity:1" fill="#649ab6" d="M 80.5,133.5 C 80.8333,133.5 81.1667,133.5 81.5,133.5C 82.8333,133.5 83.5,134.167 83.5,135.5C 82.6365,134.537 81.9698,134.537 81.5,135.5C 82.8177,137.912 82.651,140.246 81,142.5C 80.1627,144.007 78.9961,144.507 77.5,144C 80.1001,141.016 81.1001,137.516 80.5,133.5 Z"/></g>
<g><path style="opacity:1" fill="#5089a2" d="M 31.5,133.5 C 32.791,133.263 33.791,133.596 34.5,134.5C 36.5446,136.696 36.8779,139.03 35.5,141.5C 35.6567,140.127 35.49,138.793 35,137.5C 33.8468,140.47 32.1801,143.137 30,145.5C 28.7949,144.929 27.6283,144.262 26.5,143.5C 27.7946,140.634 27.7946,137.801 26.5,135C 27.7839,134.316 28.9505,134.483 30,135.5C 30.1554,137.856 30.1554,140.189 30,142.5C 30.8271,141.338 31.6604,140.171 32.5,139C 31.7665,137.234 31.4332,135.401 31.5,133.5 Z"/></g>
<g><path style="opacity:1" fill="#448cb0" d="M 67.5,135.5 C 68.8333,135.5 70.1667,135.5 71.5,135.5C 72.4959,135.414 73.3292,135.748 74,136.5C 74.4298,139.192 74.2631,141.859 73.5,144.5C 67.6901,146.03 64.0235,144.03 62.5,138.5C 62.8076,137.692 63.3076,137.025 64,136.5C 64.2494,139.177 65.2494,141.51 67,143.5C 66.3881,140.806 66.5548,138.14 67.5,135.5 Z"/></g>
<g><path style="opacity:1" fill="#355d72" d="M 77.5,133.5 C 78.1667,133.5 78.8333,133.5 79.5,133.5C 79.8333,133.5 80.1667,133.5 80.5,133.5C 81.1001,137.516 80.1001,141.016 77.5,144C 78.9961,144.507 80.1627,144.007 81,142.5C 82.651,140.246 82.8177,137.912 81.5,135.5C 81.9698,134.537 82.6365,134.537 83.5,135.5C 84.7597,141.308 82.4264,145.308 76.5,147.5C 76.1898,145.856 75.1898,144.856 73.5,144.5C 74.2631,141.859 74.4298,139.192 74,136.5C 73.3292,135.748 72.4959,135.414 71.5,135.5C 72.7054,134.314 74.0387,134.314 75.5,135.5C 76.2345,138.272 76.4012,140.939 76,143.5C 78.0229,141.231 78.8563,138.564 78.5,135.5C 78.1667,134.833 77.8333,134.167 77.5,133.5 Z"/></g>
<g><path style="opacity:1" fill="#4e9bbb" d="M 75.5,135.5 C 76.5,135.5 77.5,135.5 78.5,135.5C 78.8563,138.564 78.0229,141.231 76,143.5C 76.4012,140.939 76.2345,138.272 75.5,135.5 Z"/></g>
<g><path style="opacity:1" fill="#496a7f" d="M 67.5,133.5 C 67.5,134.167 67.5,134.833 67.5,135.5C 66.5548,138.14 66.3881,140.806 67,143.5C 65.2494,141.51 64.2494,139.177 64,136.5C 63.3076,137.025 62.8076,137.692 62.5,138.5C 64.0235,144.03 67.6901,146.03 73.5,144.5C 71.7078,145.309 69.7078,145.809 67.5,146C 68.056,146.383 68.3893,146.883 68.5,147.5C 62.9879,145.792 60.4879,142.125 61,136.5C 62.1451,135.364 63.3117,134.364 64.5,133.5C 65.2216,133.082 65.7216,132.416 66,131.5C 66.2784,132.416 66.7784,133.082 67.5,133.5 Z"/></g>
<g><path style="opacity:1" fill="#2a4540" d="M 73.5,144.5 C 75.1898,144.856 76.1898,145.856 76.5,147.5C 75.6618,147.842 75.3284,148.508 75.5,149.5C 75.1667,149.5 74.8333,149.5 74.5,149.5C 73.7611,149.631 73.0944,149.464 72.5,149C 73.4506,148.282 73.6172,147.449 73,146.5C 72.1667,147.5 71.3333,148.5 70.5,149.5C 69.8182,148.757 69.1515,148.091 68.5,147.5C 68.3893,146.883 68.056,146.383 67.5,146C 69.7078,145.809 71.7078,145.309 73.5,144.5 Z"/></g>
<g><path style="opacity:1" fill="#adac98" d="M 18.5,146.5 C 19.1667,146.5 19.8333,146.5 20.5,146.5C 21.1712,147.847 21.1712,149.014 20.5,150C 21.4158,150.278 22.0825,150.778 22.5,151.5C 21.7354,151.923 20.9021,152.257 20,152.5C 19.0346,152.07 18.5346,151.404 18.5,150.5C 19.8333,149.167 19.8333,147.833 18.5,146.5 Z"/></g>
<g><path style="opacity:1" fill="#55604b" d="M 23.5,144.5 C 23.8333,144.5 24.1667,144.5 24.5,144.5C 25.3629,145.94 25.3629,147.274 24.5,148.5C 24.9569,149.298 25.6236,149.631 26.5,149.5C 26.631,150.239 26.4643,150.906 26,151.5C 24.8826,151.736 23.716,151.736 22.5,151.5C 22.0825,150.778 21.4158,150.278 20.5,150C 21.1712,149.014 21.1712,147.847 20.5,146.5C 21.2905,145.599 22.2905,144.932 23.5,144.5 Z"/></g>
<g><path style="opacity:1" fill="#89846f" d="M 74.5,149.5 C 74.1995,152.317 72.8661,152.984 70.5,151.5C 68.8045,152.174 67.1379,152.841 65.5,153.5C 64.1667,153.5 62.8333,153.5 61.5,153.5C 64.4439,152.223 66.7773,150.223 68.5,147.5C 69.1515,148.091 69.8182,148.757 70.5,149.5C 71.3333,148.5 72.1667,147.5 73,146.5C 73.6172,147.449 73.4506,148.282 72.5,149C 73.0944,149.464 73.7611,149.631 74.5,149.5 Z"/></g>
<g><path style="opacity:1" fill="#8e6a5a" d="M 26.5,149.5 C 30.3259,150.337 33.3259,152.337 35.5,155.5C 34.2921,154.766 32.9587,154.433 31.5,154.5C 26.2559,155.077 21.5893,155.077 17.5,154.5C 16.1667,154.167 14.8333,153.833 13.5,153.5C 13.5,153.167 13.5,152.833 13.5,152.5C 15.5138,152.608 17.1805,151.942 18.5,150.5C 18.5346,151.404 19.0346,152.07 20,152.5C 20.9021,152.257 21.7354,151.923 22.5,151.5C 23.716,151.736 24.8826,151.736 26,151.5C 26.4643,150.906 26.631,150.239 26.5,149.5 Z"/></g>
<g><path style="opacity:1" fill="#8c6d55" d="M 74.5,149.5 C 74.8333,149.5 75.1667,149.5 75.5,149.5C 77.0269,149.427 78.0269,150.094 78.5,151.5C 79.8357,155.103 79.0023,155.436 76,152.5C 72.5452,153.287 69.0452,153.954 65.5,154.5C 65.5,154.167 65.5,153.833 65.5,153.5C 67.1379,152.841 68.8045,152.174 70.5,151.5C 72.8661,152.984 74.1995,152.317 74.5,149.5 Z"/></g>
<g><path style="opacity:1" fill="#834944" d="M 78.5,151.5 C 80.3146,152.63 82.3146,153.296 84.5,153.5C 84.5,154.833 84.5,156.167 84.5,157.5C 83.5326,158.806 82.1993,159.473 80.5,159.5C 81.2341,158.292 81.5674,156.959 81.5,155.5C 80.5,155.5 79.5,155.5 78.5,155.5C 74.7884,154.582 71.1218,154.582 67.5,155.5C 66.6236,155.369 65.9569,155.702 65.5,156.5C 66.1925,157.518 66.8592,158.518 67.5,159.5C 66.1667,159.5 64.8333,159.5 63.5,159.5C 63.1201,157.302 63.7868,155.635 65.5,154.5C 69.0452,153.954 72.5452,153.287 76,152.5C 79.0023,155.436 79.8357,155.103 78.5,151.5 Z"/></g>
<g><path style="opacity:1" fill="#8c2b27" d="M 78.5,155.5 C 74.8333,156.833 71.1667,156.833 67.5,155.5C 71.1218,154.582 74.7884,154.582 78.5,155.5 Z"/></g>
<g><path style="opacity:1" fill="#c05e5f" d="M 67.5,155.5 C 71.1667,156.833 74.8333,156.833 78.5,155.5C 79.5,155.5 80.5,155.5 81.5,155.5C 81.5674,156.959 81.2341,158.292 80.5,159.5C 76.1667,159.5 71.8333,159.5 67.5,159.5C 66.8592,158.518 66.1925,157.518 65.5,156.5C 65.9569,155.702 66.6236,155.369 67.5,155.5 Z"/></g>
<g><path style="opacity:1" fill="#b55655" d="M 31.5,154.5 C 32.0906,155.151 32.7573,155.818 33.5,156.5C 33.2907,157.086 32.9574,157.586 32.5,158C 27.8333,158.667 23.1667,158.667 18.5,158C 16.6269,157.047 16.2935,155.88 17.5,154.5C 21.5893,155.077 26.2559,155.077 31.5,154.5 Z"/></g>
<g><path style="opacity:1" fill="#794542" d="M 13.5,153.5 C 14.8333,153.833 16.1667,154.167 17.5,154.5C 16.2935,155.88 16.6269,157.047 18.5,158C 23.1667,158.667 27.8333,158.667 32.5,158C 32.9574,157.586 33.2907,157.086 33.5,156.5C 32.7573,155.818 32.0906,155.151 31.5,154.5C 32.9587,154.433 34.2921,154.766 35.5,155.5C 35.5,156.833 35.5,158.167 35.5,159.5C 28.1667,159.5 20.8333,159.5 13.5,159.5C 13.5,157.5 13.5,155.5 13.5,153.5 Z"/></g>
<g><path style="opacity:1" fill="#5e484e" d="M 61.5,153.5 C 62.8333,153.5 64.1667,153.5 65.5,153.5C 65.5,153.833 65.5,154.167 65.5,154.5C 63.7868,155.635 63.1201,157.302 63.5,159.5C 62.8333,159.5 62.1667,159.5 61.5,159.5C 61.5,157.5 61.5,155.5 61.5,153.5 Z"/></g>
<g><path style="opacity:1" fill="#c2afac" d="M 13.5,152.5 C 13.5,152.833 13.5,153.167 13.5,153.5C 13.5,155.5 13.5,157.5 13.5,159.5C 20.8333,159.5 28.1667,159.5 35.5,159.5C 28.0182,160.492 20.3516,160.825 12.5,160.5C 12.1936,157.615 12.5269,154.948 13.5,152.5 Z"/></g>
<g><path style="opacity:1" fill="#b59692" d="M 84.5,157.5 C 84.5,158.5 84.5,159.5 84.5,160.5C 76.6484,160.825 68.9818,160.492 61.5,159.5C 62.1667,159.5 62.8333,159.5 63.5,159.5C 64.8333,159.5 66.1667,159.5 67.5,159.5C 71.8333,159.5 76.1667,159.5 80.5,159.5C 82.1993,159.473 83.5326,158.806 84.5,157.5 Z"/></g>
</svg>
