<?xml version="1.0" encoding="UTF-8"?>
<!DOCTYPE svg PUBLIC "-//W3C//DTD SVG 1.1//EN" "http://www.w3.org/Graphics/SVG/1.1/DTD/svg11.dtd">
<svg xmlns="http://www.w3.org/2000/svg" version="1.1" width="100px" height="165px" style="shape-rendering:geometricPrecision; text-rendering:geometricPrecision; image-rendering:optimizeQuality; fill-rule:evenodd; clip-rule:evenodd" xmlns:xlink="http://www.w3.org/1999/xlink">
<g><path style="opacity:1" fill="#fcfcfb" d="M -0.5,-0.5 C 32.8333,-0.5 66.1667,-0.5 99.5,-0.5C 99.5,54.5 99.5,109.5 99.5,164.5C 66.1667,164.5 32.8333,164.5 -0.5,164.5C -0.5,109.5 -0.5,54.5 -0.5,-0.5 Z"/></g>
<g><path style="opacity:1" fill="#91857b" d="M 82.5,11.5 C 81.9045,14.1125 81.0712,14.1125 80,11.5C 79.0301,11.6243 78.1968,11.6243 77.5,11.5C 76.2921,10.7659 74.9587,10.4326 73.5,10.5C 73.3893,9.88258 73.056,9.38258 72.5,9C 74.0187,9.33077 75.352,9.1641 76.5,8.5C 77.4232,9.30292 78.4232,9.46958 79.5,9C 74.9768,5.82742 69.9768,4.82742 64.5,6C 63.0577,6.37675 62.0577,7.21009 61.5,8.5C 56.1111,13.0513 54.6111,18.718 57,25.5C 57.4828,24.552 57.6495,23.552 57.5,22.5C 58.1667,23.1667 58.8333,23.8333 59.5,24.5C 59.0183,25.4163 58.685,26.4163 58.5,27.5C 59.2858,29.0411 60.2858,30.3744 61.5,31.5C 60.4937,31.9377 60.4937,32.6043 61.5,33.5C 57.1157,31.6065 54.2824,28.2731 53,23.5C 52.4855,11.503 58.3188,4.83631 70.5,3.5C 73.7507,3.89117 76.7507,5.05784 79.5,7C 81.1412,8.12901 82.1412,9.62901 82.5,11.5 Z"/></g>
<g><path style="opacity:1" fill="#d1beac" d="M 76.5,8.5 C 71.4868,5.94031 66.4868,5.94031 61.5,8.5C 62.0577,7.21009 63.0577,6.37675 64.5,6C 69.9768,4.82742 74.9768,5.82742 79.5,9C 78.4232,9.46958 77.4232,9.30292 76.5,8.5 Z"/></g>
<g><path style="opacity:1" fill="#8b827e" d="M 21.5,4.5 C 36.624,2.13843 44.124,8.47176 44,23.5C 40.7717,33.3718 33.9384,37.5385 23.5,36C 18.0525,34.2047 14.2192,30.7047 12,25.5C 11.1735,21.4589 11.3401,17.4589 12.5,13.5C 15.2936,10.0394 18.2936,7.0394 21.5,4.5 Z"/></g>
<g><path style="opacity:1" fill="#dacbb6" d="M 35.5,8.5 C 30.9881,6.28534 26.3214,5.952 21.5,7.5C 26.4457,4.79829 31.4457,4.96496 36.5,8C 36.2716,8.39877 35.9382,8.56544 35.5,8.5 Z"/></g>
<g><path style="opacity:1" fill="#cca784" d="M 65.5,25.5 C 66.5063,25.9377 66.5063,26.6043 65.5,27.5C 63.9582,28.3007 62.2915,28.634 60.5,28.5C 60.5191,26.9397 60.8524,25.4397 61.5,24C 60.5126,22.1284 59.8459,22.2951 59.5,24.5C 58.8333,23.8333 58.1667,23.1667 57.5,22.5C 56.9585,18.7053 58.6252,16.7053 62.5,16.5C 59.7416,10.2611 61.0749,9.26114 66.5,13.5C 65.7261,14.7112 64.8928,14.7112 64,13.5C 63.9071,16.0075 63.0738,18.1741 61.5,20C 63.6015,21.7328 63.9348,23.7328 62.5,26C 63.5768,26.4696 64.5768,26.3029 65.5,25.5 Z"/></g>
<g><path style="opacity:1" fill="#cda97d" d="M 73.5,10.5 C 74.9587,10.4326 76.2921,10.7659 77.5,11.5C 75.7071,15.4778 77.0405,17.4778 81.5,17.5C 81.226,19.9806 79.8927,21.6473 77.5,22.5C 77.1667,21.8333 76.8333,21.1667 76.5,20.5C 75.7402,16.8461 73.7402,14.1794 70.5,12.5C 71.7808,12.9839 72.7808,12.3173 73.5,10.5 Z"/></g>
<g><path style="opacity:1" fill="#7d5738" d="M 76.5,8.5 C 75.352,9.1641 74.0187,9.33077 72.5,9C 73.056,9.38258 73.3893,9.88258 73.5,10.5C 72.7808,12.3173 71.7808,12.9839 70.5,12.5C 73.7402,14.1794 75.7402,16.8461 76.5,20.5C 75.8826,20.6107 75.3826,20.944 75,21.5C 74.7679,20.2625 74.2679,19.2625 73.5,18.5C 72.1816,14.8412 69.8483,14.0079 66.5,16C 65.1955,16.804 64.5288,17.9707 64.5,19.5C 65.1556,21.4534 65.4889,23.4534 65.5,25.5C 64.5768,26.3029 63.5768,26.4696 62.5,26C 63.9348,23.7328 63.6015,21.7328 61.5,20C 63.0738,18.1741 63.9071,16.0075 64,13.5C 64.8928,14.7112 65.7261,14.7112 66.5,13.5C 61.0749,9.26114 59.7416,10.2611 62.5,16.5C 58.6252,16.7053 56.9585,18.7053 57.5,22.5C 57.6495,23.552 57.4828,24.552 57,25.5C 54.6111,18.718 56.1111,13.0513 61.5,8.5C 66.4868,5.94031 71.4868,5.94031 76.5,8.5 Z"/></g>
<g><path style="opacity:1" fill="#e5b79a" d="M 67.5,8.5 C 69.1033,8.31181 70.4366,8.81181 71.5,10C 69.9391,10.3176 68.7724,11.1509 68,12.5C 67.51,11.2068 67.3433,9.87344 67.5,8.5 Z"/></g>
<g><path style="opacity:1" fill="#b6a698" d="M 84.5,14.5 C 85.3382,14.8417 85.6716,15.5084 85.5,16.5C 84.816,19.5917 83.816,22.5917 82.5,25.5C 82.3347,21.8183 82.5014,18.1516 83,14.5C 83.69,15.7383 84.19,15.7383 84.5,14.5 Z"/></g>
<g><path style="opacity:1" fill="#a27558" d="M 73.5,18.5 C 74.2679,19.2625 74.7679,20.2625 75,21.5C 75.3826,20.944 75.8826,20.6107 76.5,20.5C 76.8333,21.1667 77.1667,21.8333 77.5,22.5C 76.6618,22.8417 76.3284,23.5084 76.5,24.5C 75.7784,24.9175 75.2784,25.5842 75,26.5C 74.4387,25.9781 73.772,25.6448 73,25.5C 71.1182,27.0723 69.2849,27.739 67.5,27.5C 66.8333,27.5 66.1667,27.5 65.5,27.5C 66.5063,26.6043 66.5063,25.9377 65.5,25.5C 65.4889,23.4534 65.1556,21.4534 64.5,19.5C 64.5288,17.9707 65.1955,16.804 66.5,16C 69.8483,14.0079 72.1816,14.8412 73.5,18.5 Z"/></g>
<g><path style="opacity:1" fill="#b35247" d="M 73.5,18.5 C 73.6206,21.5409 72.1206,23.2076 69,23.5C 66.9655,22.0558 66.1322,20.0558 66.5,17.5C 67.9305,17.5792 69.2638,17.2458 70.5,16.5C 71.5178,17.1925 72.5178,17.8592 73.5,18.5 Z"/></g>
<g><path style="opacity:1" fill="#705840" d="M 35.5,8.5 C 35.5774,9.74975 36.244,10.5831 37.5,11C 36.552,11.4828 35.552,11.6495 34.5,11.5C 34.2172,10.7109 33.7172,10.0442 33,9.5C 31.2287,10.3041 29.7287,11.4708 28.5,13C 30.1193,13.2355 31.1193,14.0689 31.5,15.5C 24.2988,13.8663 21.7988,16.533 24,23.5C 25.8761,24.6087 27.7095,25.6087 29.5,26.5C 29.631,27.2389 29.4643,27.9056 29,28.5C 27.5993,26.8078 25.7659,26.1412 23.5,26.5C 23.259,29.999 24.0924,30.3323 26,27.5C 27.353,28.6853 28.5197,30.0186 29.5,31.5C 30.354,30.4783 31.354,29.6449 32.5,29C 31.2888,28.1072 31.2888,27.2739 32.5,26.5C 37.5947,28.1273 38.5947,26.794 35.5,22.5C 36.4839,20.5201 37.8173,18.8534 39.5,17.5C 37.9775,15.7175 35.9775,15.0508 33.5,15.5C 33.2627,14.209 33.596,13.209 34.5,12.5C 36.3786,12.3932 36.7119,12.8932 35.5,14C 37.1341,14.4935 38.8008,14.6602 40.5,14.5C 42.4847,28.3494 36.4847,34.5161 22.5,33C 14.8098,28.433 12.6431,21.933 16,13.5C 17.3597,10.9774 19.193,8.97739 21.5,7.5C 26.3214,5.952 30.9881,6.28534 35.5,8.5 Z"/></g>
<g><path style="opacity:1" fill="#956755" d="M 31.5,15.5 C 35.1695,17.9675 35.5029,20.9675 32.5,24.5C 31.4822,25.1925 30.4822,25.8592 29.5,26.5C 27.7095,25.6087 25.8761,24.6087 24,23.5C 21.7988,16.533 24.2988,13.8663 31.5,15.5 Z"/></g>
<g><path style="opacity:1" fill="#a94e41" d="M 25.5,16.5 C 30.5228,15.9127 32.1894,17.9127 30.5,22.5C 28.9291,23.3094 27.2624,23.6427 25.5,23.5C 25.5,21.1667 25.5,18.8333 25.5,16.5 Z"/></g>
<g><path style="opacity:1" fill="#d6ba97" d="M 23.5,9.5 C 24.5676,8.56552 25.901,8.23219 27.5,8.5C 26.8333,10.5 26.1667,12.5 25.5,14.5C 23.8008,14.3398 22.1341,14.5065 20.5,15C 21.7797,17.1317 21.7797,19.2984 20.5,21.5C 22.6073,24.2752 22.9406,27.2752 21.5,30.5C 20.2941,28.5159 20.2941,26.5159 21.5,24.5C 19.9547,23.5481 18.288,23.2148 16.5,23.5C 16.3505,22.448 16.5172,21.448 17,20.5C 21.0834,18.987 21.5834,16.6537 18.5,13.5C 20.4012,12.7691 22.4012,12.7691 24.5,13.5C 24.7678,11.901 24.4345,10.5676 23.5,9.5 Z"/></g>
<g><path style="opacity:1" fill="#c4a682" d="M 34.5,11.5 C 34.5,11.8333 34.5,12.1667 34.5,12.5C 33.596,13.209 33.2627,14.209 33.5,15.5C 35.9775,15.0508 37.9775,15.7175 39.5,17.5C 37.8173,18.8534 36.4839,20.5201 35.5,22.5C 38.5947,26.794 37.5947,28.1273 32.5,26.5C 31.2888,27.2739 31.2888,28.1072 32.5,29C 31.354,29.6449 30.354,30.4783 29.5,31.5C 28.5197,30.0186 27.353,28.6853 26,27.5C 24.0924,30.3323 23.259,29.999 23.5,26.5C 25.7659,26.1412 27.5993,26.8078 29,28.5C 29.4643,27.9056 29.631,27.2389 29.5,26.5C 30.4822,25.8592 31.4822,25.1925 32.5,24.5C 35.5029,20.9675 35.1695,17.9675 31.5,15.5C 31.1193,14.0689 30.1193,13.2355 28.5,13C 29.7287,11.4708 31.2287,10.3041 33,9.5C 33.7172,10.0442 34.2172,10.7109 34.5,11.5 Z"/></g>
<g><path style="opacity:1" fill="#c2a384" d="M 76.5,24.5 C 77.1408,25.4822 77.8075,26.4822 78.5,27.5C 76.5159,28.7059 74.5159,28.7059 72.5,27.5C 71.5713,28.6888 71.238,30.0222 71.5,31.5C 71.1667,31.5 70.8333,31.5 70.5,31.5C 68.0882,31.3059 67.0882,29.9726 67.5,27.5C 69.2849,27.739 71.1182,27.0723 73,25.5C 73.772,25.6448 74.4387,25.9781 75,26.5C 75.2784,25.5842 75.7784,24.9175 76.5,24.5 Z"/></g>
<g><path style="opacity:1" fill="#7e6349" d="M 82.5,11.5 C 83.4013,12.2905 84.0679,13.2905 84.5,14.5C 84.19,15.7383 83.69,15.7383 83,14.5C 82.5014,18.1516 82.3347,21.8183 82.5,25.5C 81.9613,28.0416 80.628,30.2082 78.5,32C 75.9664,31.6419 73.6331,31.4752 71.5,31.5C 71.238,30.0222 71.5713,28.6888 72.5,27.5C 74.5159,28.7059 76.5159,28.7059 78.5,27.5C 77.8075,26.4822 77.1408,25.4822 76.5,24.5C 76.3284,23.5084 76.6618,22.8417 77.5,22.5C 79.8927,21.6473 81.226,19.9806 81.5,17.5C 77.0405,17.4778 75.7071,15.4778 77.5,11.5C 78.1968,11.6243 79.0301,11.6243 80,11.5C 81.0712,14.1125 81.9045,14.1125 82.5,11.5 Z"/></g>
<g><path style="opacity:1" fill="#756d65" d="M 85.5,16.5 C 85.394,32.1083 77.7273,38.275 62.5,35C 61.944,34.6174 61.6107,34.1174 61.5,33.5C 71.0142,34.7164 73.3475,34.7164 68.5,33.5C 69.1667,32.8333 69.8333,32.1667 70.5,31.5C 70.8333,31.5 71.1667,31.5 71.5,31.5C 73.6331,31.4752 75.9664,31.6419 78.5,32C 80.628,30.2082 81.9613,28.0416 82.5,25.5C 83.816,22.5917 84.816,19.5917 85.5,16.5 Z"/></g>
<g><path style="opacity:1" fill="#746249" d="M 65.5,27.5 C 66.1667,27.5 66.8333,27.5 67.5,27.5C 67.0882,29.9726 68.0882,31.3059 70.5,31.5C 69.8333,32.1667 69.1667,32.8333 68.5,33.5C 65.9214,33.6061 63.588,32.9395 61.5,31.5C 60.2858,30.3744 59.2858,29.0411 58.5,27.5C 58.685,26.4163 59.0183,25.4163 59.5,24.5C 59.8459,22.2951 60.5126,22.1284 61.5,24C 60.8524,25.4397 60.5191,26.9397 60.5,28.5C 62.2915,28.634 63.9582,28.3007 65.5,27.5 Z"/></g>
<g><path style="opacity:1" fill="#cfc4bc" d="M 61.5,31.5 C 63.588,32.9395 65.9214,33.6061 68.5,33.5C 73.3475,34.7164 71.0142,34.7164 61.5,33.5C 60.4937,32.6043 60.4937,31.9377 61.5,31.5 Z"/></g>
<g><path style="opacity:1" fill="#9a8974" d="M 57.5,77.5 C 56.596,78.209 56.2627,79.209 56.5,80.5C 55.5,80.5 54.5,80.5 53.5,80.5C 53.67,81.8221 53.3366,82.9887 52.5,84C 50.2462,85.1505 47.9129,85.4838 45.5,85C 44.8922,82.498 43.5589,80.498 41.5,79C 40.8524,77.5603 40.5191,76.0603 40.5,74.5C 41.7564,74.0962 42.9231,73.4295 44,72.5C 44.9503,73.0223 45.7836,73.689 46.5,74.5C 47.4519,72.9547 47.7852,71.288 47.5,69.5C 48.5,69.5 49.5,69.5 50.5,69.5C 50.1052,72.5225 51.1052,73.5225 53.5,72.5C 55.4514,73.7737 56.7848,75.4404 57.5,77.5 Z"/></g>
<g><path style="opacity:1" fill="#a8aaad" d="M 37.5,83.5 C 39.6607,83.8258 41.4941,84.8258 43,86.5C 43.765,88.0657 43.5983,89.3991 42.5,90.5C 38.5016,89.4514 36.8349,87.118 37.5,83.5 Z"/></g>
<g><path style="opacity:1" fill="#a2a2a4" d="M 60.5,85.5 C 60.5,86.1667 60.5,86.8333 60.5,87.5C 59.5041,87.5858 58.6708,87.2524 58,86.5C 57.5172,87.448 57.3505,88.448 57.5,89.5C 53.2898,88.7119 50.6232,90.3786 49.5,94.5C 48.8679,92.2632 47.5346,90.5965 45.5,89.5C 50.1258,88.9042 54.2925,87.2376 58,84.5C 58.9021,84.7432 59.7354,85.0766 60.5,85.5 Z"/></g>
<g><path style="opacity:1" fill="#e7e6e5" d="M 40.5,74.5 C 40.5191,76.0603 40.8524,77.5603 41.5,79C 43.5589,80.498 44.8922,82.498 45.5,85C 47.9129,85.4838 50.2462,85.1505 52.5,84C 53.3366,82.9887 53.67,81.8221 53.5,80.5C 54.5,80.5 55.5,80.5 56.5,80.5C 56.2627,79.209 56.596,78.209 57.5,77.5C 57.6715,79.4918 57.0049,81.1585 55.5,82.5C 56.7757,83.6446 58.109,83.6446 59.5,82.5C 60.3857,83.325 60.719,84.325 60.5,85.5C 59.7354,85.0766 58.9021,84.7432 58,84.5C 54.2925,87.2376 50.1258,88.9042 45.5,89.5C 47.5346,90.5965 48.8679,92.2632 49.5,94.5C 50.6232,90.3786 53.2898,88.7119 57.5,89.5C 57.3505,88.448 57.5172,87.448 58,86.5C 58.6708,87.2524 59.5041,87.5858 60.5,87.5C 63.0416,89.4133 62.7083,89.7466 59.5,88.5C 58.4096,89.727 57.0762,90.5604 55.5,91C 56.7375,91.2321 57.7375,91.7321 58.5,92.5C 56.076,92.1924 53.7427,92.5258 51.5,93.5C 51.8627,94.1835 52.1961,94.8501 52.5,95.5C 52.6309,96.3764 52.2975,97.0431 51.5,97.5C 50.4763,96.1468 49.143,95.4802 47.5,95.5C 47.5,94.5 47.5,93.5 47.5,92.5C 45.2646,92.7947 43.2646,92.4614 41.5,91.5C 42.1667,91.5 42.5,91.1667 42.5,90.5C 43.5983,89.3991 43.765,88.0657 43,86.5C 41.4941,84.8258 39.6607,83.8258 37.5,83.5C 38.3726,80.5743 39.3726,77.5743 40.5,74.5 Z"/></g>
<g><path style="opacity:1" fill="#a1a2a0" d="M 58.5,92.5 C 58.5858,93.4959 58.2524,94.3292 57.5,95C 55.82,94.2288 54.1533,94.3955 52.5,95.5C 52.1961,94.8501 51.8627,94.1835 51.5,93.5C 53.7427,92.5258 56.076,92.1924 58.5,92.5 Z"/></g>
<g><path style="opacity:1" fill="#a8a8a8" d="M 41.5,91.5 C 43.2646,92.4614 45.2646,92.7947 47.5,92.5C 47.5,93.5 47.5,94.5 47.5,95.5C 46.2502,95.4226 45.4169,94.756 45,93.5C 43.5993,95.1922 41.7659,95.8588 39.5,95.5C 39.1568,93.5168 39.8235,92.1834 41.5,91.5 Z"/></g>
<g><path style="opacity:1" fill="#aa9d95" d="M 64.5,129.5 C 68.6404,129.979 72.6404,130.979 76.5,132.5C 68.07,129.638 61.57,131.971 57,139.5C 56.235,141.066 56.4017,142.399 57.5,143.5C 57.5,143.833 57.5,144.167 57.5,144.5C 56.5386,146.265 56.2053,148.265 56.5,150.5C 53.1261,142.783 55.1261,136.616 62.5,132C 61.9056,131.536 61.2389,131.369 60.5,131.5C 61.287,129.896 62.6203,129.229 64.5,129.5 Z"/></g>
<g><path style="opacity:1" fill="#745f47" d="M 76.5,132.5 C 79.458,134.954 80.1247,137.954 78.5,141.5C 77.8333,142.833 77.1667,142.833 76.5,141.5C 77.3094,139.929 77.6427,138.262 77.5,136.5C 76.0695,136.421 74.7362,136.754 73.5,137.5C 72.9955,134.658 71.3289,133.325 68.5,133.5C 68.5,134.833 68.5,136.167 68.5,137.5C 66.5165,137.617 64.8498,136.95 63.5,135.5C 62.6922,137.423 62.1922,139.423 62,141.5C 60.3775,142.099 58.8775,142.766 57.5,143.5C 56.4017,142.399 56.235,141.066 57,139.5C 61.57,131.971 68.07,129.638 76.5,132.5 Z"/></g>
<g><path style="opacity:1" fill="#655a53" d="M 64.5,129.5 C 71.9559,127.943 78.1226,129.943 83,135.5C 84.0086,137.025 84.5086,138.692 84.5,140.5C 83.1964,139.013 82.0298,137.346 81,135.5C 79.871,133.859 78.371,132.859 76.5,132.5C 72.6404,130.979 68.6404,129.979 64.5,129.5 Z"/></g>
<g><path style="opacity:1" fill="#635c5a" d="M 60.5,131.5 C 61.2389,131.369 61.9056,131.536 62.5,132C 55.1261,136.616 53.1261,142.783 56.5,150.5C 56.5912,152.698 55.9245,153.031 54.5,151.5C 51.8892,143.34 53.8892,136.673 60.5,131.5 Z"/></g>
<g><path style="opacity:1" fill="#715a47" d="M 29.5,129.5 C 35.2398,129.694 39.2398,132.361 41.5,137.5C 39.1348,135.14 36.4681,133.14 33.5,131.5C 32.537,131.97 32.537,132.637 33.5,133.5C 32.0568,134.335 31.0568,135.668 30.5,137.5C 29.5713,136.311 29.238,134.978 29.5,133.5C 26.5,133.167 25.1667,134.5 25.5,137.5C 23.3146,137.296 21.3146,136.63 19.5,135.5C 19.5774,134.25 20.244,133.417 21.5,133C 24.7527,131.964 28.086,131.297 31.5,131C 30.5842,130.722 29.9175,130.222 29.5,129.5 Z"/></g>
<g><path style="opacity:1" fill="#8e8580" d="M 29.5,129.5 C 29.9175,130.222 30.5842,130.722 31.5,131C 28.086,131.297 24.7527,131.964 21.5,133C 20.244,133.417 19.5774,134.25 19.5,135.5C 16.6097,136.899 15.1097,139.232 15,142.5C 14.3249,154.157 19.8249,159.324 31.5,158C 37.6847,156.004 41.018,151.671 41.5,145C 41.1461,139.43 38.4795,135.597 33.5,133.5C 32.537,132.637 32.537,131.97 33.5,131.5C 36.4681,133.14 39.1348,135.14 41.5,137.5C 42.4434,142.673 42.7767,147.673 42.5,152.5C 37.1872,160.504 29.8539,163.004 20.5,160C 13.1326,155.093 10.2993,148.26 12,139.5C 15.7134,132.395 21.5467,129.062 29.5,129.5 Z"/></g>
<g><path style="opacity:1" fill="#bca17b" d="M 68.5,137.5 C 68.2249,139.758 67.2249,140.092 65.5,138.5C 63.5175,140.81 62.5175,143.477 62.5,146.5C 60.857,146.48 59.5237,147.147 58.5,148.5C 57.5713,147.311 57.238,145.978 57.5,144.5C 57.5,144.167 57.5,143.833 57.5,143.5C 58.8775,142.766 60.3775,142.099 62,141.5C 62.1922,139.423 62.6922,137.423 63.5,135.5C 64.8498,136.95 66.5165,137.617 68.5,137.5 Z"/></g>
<g><path style="opacity:1" fill="#b27f6b" d="M 74.5,147.5 C 74.5,147.833 74.5,148.167 74.5,148.5C 72.9064,148.92 71.4064,149.586 70,150.5C 68.605,150.22 67.4383,149.553 66.5,148.5C 66.6236,147.893 66.9569,147.56 67.5,147.5C 69.885,148.668 71.885,148.001 73.5,145.5C 72.1385,141.981 69.8052,140.981 66.5,142.5C 71.9447,138.909 74.6114,140.575 74.5,147.5 Z"/></g>
<g><path style="opacity:1" fill="#8b4032" d="M 67.5,147.5 C 66.962,145.883 66.6287,144.216 66.5,142.5C 69.8052,140.981 72.1385,141.981 73.5,145.5C 71.885,148.001 69.885,148.668 67.5,147.5 Z"/></g>
<g><path style="opacity:1" fill="#5f5754" d="M 41.5,137.5 C 43.0334,139.634 43.7001,142.134 43.5,145C 43.3751,147.551 43.0418,150.051 42.5,152.5C 42.7767,147.673 42.4434,142.673 41.5,137.5 Z"/></g>
<g><path style="opacity:1" fill="#625143" d="M 85.5,141.5 C 86.908,152.563 82.2413,158.729 71.5,160C 73.4913,159.626 75.158,158.793 76.5,157.5C 80.8494,155.996 83.016,152.996 83,148.5C 81.1284,155.273 77.295,156.939 71.5,153.5C 71.8333,153.167 72.1667,152.833 72.5,152.5C 73.8498,153.95 75.5165,154.617 77.5,154.5C 77.4809,152.94 77.1476,151.44 76.5,150C 77.9023,148.12 79.5689,146.453 81.5,145C 80.9599,142.73 80.7932,140.563 81,138.5C 82.4532,141.298 83.4532,144.298 84,147.5C 84.1909,145.292 84.6909,143.292 85.5,141.5 Z"/></g>
<g><path style="opacity:1" fill="#68503b" d="M 33.5,133.5 C 38.4795,135.597 41.1461,139.43 41.5,145C 41.018,151.671 37.6847,156.004 31.5,158C 19.8249,159.324 14.3249,154.157 15,142.5C 15.1097,139.232 16.6097,136.899 19.5,135.5C 20.2186,137.764 20.552,140.097 20.5,142.5C 18.8561,142.286 17.3561,142.62 16,143.5C 16.379,145.075 16.2123,146.575 15.5,148C 17.0127,150.023 18.3461,149.856 19.5,147.5C 20.1916,149.335 19.8583,151.168 18.5,153C 20.8473,153.334 23.1806,153.167 25.5,152.5C 25.2222,154.346 25.8888,155.68 27.5,156.5C 29.1349,155.67 30.8016,155.503 32.5,156C 31.5,155.167 30.5,154.333 29.5,153.5C 29.8333,153.167 30.1667,152.833 30.5,152.5C 36.1804,155.619 37.3471,154.619 34,149.5C 31.4687,151.771 28.6354,152.438 25.5,151.5C 30.9119,150.914 33.0785,147.914 32,142.5C 27.8001,139.407 24.6335,140.24 22.5,145C 23.0769,146.9 23.7435,148.733 24.5,150.5C 20.5389,152.213 19.8723,151.546 22.5,148.5C 21.9598,147.252 21.2931,146.085 20.5,145C 21.8613,143.416 22.528,141.582 22.5,139.5C 24.5824,139.528 26.4157,138.861 28,137.5C 29.3068,138.772 30.8068,139.772 32.5,140.5C 33.1279,142.258 34.1279,143.758 35.5,145C 33.7397,145.965 33.4063,147.132 34.5,148.5C 39.1504,147.726 40.6504,145.06 39,140.5C 38.586,140.043 38.086,139.709 37.5,139.5C 36.2888,140.274 36.2888,141.107 37.5,142C 36.365,142.749 35.365,142.583 34.5,141.5C 35.8114,138.618 35.478,135.951 33.5,133.5 Z"/></g>
<g><path style="opacity:1" fill="#9b705f" d="M 25.5,151.5 C 24.8333,151.5 24.5,151.167 24.5,150.5C 23.7435,148.733 23.0769,146.9 22.5,145C 24.6335,140.24 27.8001,139.407 32,142.5C 33.0785,147.914 30.9119,150.914 25.5,151.5 Z"/></g>
<g><path style="opacity:1" fill="#71573b" d="M 68.5,137.5 C 70.5582,138.933 72.8915,139.6 75.5,139.5C 75.3184,141.591 75.6518,143.591 76.5,145.5C 76.1445,146.522 75.4778,147.189 74.5,147.5C 74.6114,140.575 71.9447,138.909 66.5,142.5C 66.6287,144.216 66.962,145.883 67.5,147.5C 66.9569,147.56 66.6236,147.893 66.5,148.5C 67.4383,149.553 68.605,150.22 70,150.5C 71.4064,149.586 72.9064,148.92 74.5,148.5C 74.5,149.5 74.5,150.5 74.5,151.5C 72.4086,151.318 70.4086,151.652 68.5,152.5C 66.7801,151.045 64.7801,150.212 62.5,150C 63.6956,149.346 63.6956,148.846 62.5,148.5C 58.5398,152.471 59.5398,153.471 65.5,151.5C 66.684,153.046 67.684,154.713 68.5,156.5C 69.1667,156.167 69.8333,155.833 70.5,155.5C 70.8333,156.167 71.1667,156.833 71.5,157.5C 72.9948,156.295 74.3281,156.295 75.5,157.5C 72.5701,158.299 69.5701,158.632 66.5,158.5C 62.3298,157.009 58.9965,154.342 56.5,150.5C 56.2053,148.265 56.5386,146.265 57.5,144.5C 57.238,145.978 57.5713,147.311 58.5,148.5C 59.5237,147.147 60.857,146.48 62.5,146.5C 62.5175,143.477 63.5175,140.81 65.5,138.5C 67.2249,140.092 68.2249,139.758 68.5,137.5 Z"/></g>
<g><path style="opacity:1" fill="#b39e80" d="M 76.5,132.5 C 78.371,132.859 79.871,133.859 81,135.5C 82.0298,137.346 83.1964,139.013 84.5,140.5C 85.1667,140.5 85.5,140.833 85.5,141.5C 84.6909,143.292 84.1909,145.292 84,147.5C 83.4532,144.298 82.4532,141.298 81,138.5C 80.7932,140.563 80.9599,142.73 81.5,145C 79.5689,146.453 77.9023,148.12 76.5,150C 77.1476,151.44 77.4809,152.94 77.5,154.5C 75.5165,154.617 73.8498,153.95 72.5,152.5C 72.1667,152.833 71.8333,153.167 71.5,153.5C 77.295,156.939 81.1284,155.273 83,148.5C 83.016,152.996 80.8494,155.996 76.5,157.5C 76.1667,157.5 75.8333,157.5 75.5,157.5C 74.3281,156.295 72.9948,156.295 71.5,157.5C 71.1667,156.833 70.8333,156.167 70.5,155.5C 69.8333,155.833 69.1667,156.167 68.5,156.5C 67.684,154.713 66.684,153.046 65.5,151.5C 59.5398,153.471 58.5398,152.471 62.5,148.5C 63.6956,148.846 63.6956,149.346 62.5,150C 64.7801,150.212 66.7801,151.045 68.5,152.5C 70.4086,151.652 72.4086,151.318 74.5,151.5C 74.5,150.5 74.5,149.5 74.5,148.5C 74.5,148.167 74.5,147.833 74.5,147.5C 75.4778,147.189 76.1445,146.522 76.5,145.5C 75.6518,143.591 75.3184,141.591 75.5,139.5C 72.8915,139.6 70.5582,138.933 68.5,137.5C 68.5,136.167 68.5,134.833 68.5,133.5C 71.3289,133.325 72.9955,134.658 73.5,137.5C 74.7362,136.754 76.0695,136.421 77.5,136.5C 77.6427,138.262 77.3094,139.929 76.5,141.5C 77.1667,142.833 77.8333,142.833 78.5,141.5C 80.1247,137.954 79.458,134.954 76.5,132.5 Z"/></g>
<g><path style="opacity:1" fill="#bca581" d="M 33.5,133.5 C 35.478,135.951 35.8114,138.618 34.5,141.5C 35.365,142.583 36.365,142.749 37.5,142C 36.2888,141.107 36.2888,140.274 37.5,139.5C 38.086,139.709 38.586,140.043 39,140.5C 40.6504,145.06 39.1504,147.726 34.5,148.5C 33.4063,147.132 33.7397,145.965 35.5,145C 34.1279,143.758 33.1279,142.258 32.5,140.5C 30.8068,139.772 29.3068,138.772 28,137.5C 26.4157,138.861 24.5824,139.528 22.5,139.5C 22.528,141.582 21.8613,143.416 20.5,145C 21.2931,146.085 21.9598,147.252 22.5,148.5C 19.8723,151.546 20.5389,152.213 24.5,150.5C 24.5,151.167 24.8333,151.5 25.5,151.5C 28.6354,152.438 31.4687,151.771 34,149.5C 37.3471,154.619 36.1804,155.619 30.5,152.5C 30.1667,152.833 29.8333,153.167 29.5,153.5C 30.5,154.333 31.5,155.167 32.5,156C 30.8016,155.503 29.1349,155.67 27.5,156.5C 25.8888,155.68 25.2222,154.346 25.5,152.5C 23.1806,153.167 20.8473,153.334 18.5,153C 19.8583,151.168 20.1916,149.335 19.5,147.5C 18.3461,149.856 17.0127,150.023 15.5,148C 16.2123,146.575 16.379,145.075 16,143.5C 17.3561,142.62 18.8561,142.286 20.5,142.5C 20.552,140.097 20.2186,137.764 19.5,135.5C 21.3146,136.63 23.3146,137.296 25.5,137.5C 25.1667,134.5 26.5,133.167 29.5,133.5C 29.238,134.978 29.5713,136.311 30.5,137.5C 31.0568,135.668 32.0568,134.335 33.5,133.5 Z"/></g>
<g><path style="opacity:1" fill="#af5548" d="M 28.5,142.5 C 31.4919,143.132 32.1586,144.799 30.5,147.5C 27.7872,148.948 25.7872,148.281 24.5,145.5C 25.6243,144.141 26.9577,143.141 28.5,142.5 Z"/></g>
<g><path style="opacity:1" fill="#8b8783" d="M 56.5,150.5 C 58.9965,154.342 62.3298,157.009 66.5,158.5C 66.9303,159.421 68.2636,159.921 70.5,160C 67.5,160.667 64.5,160.667 61.5,160C 58.5532,157.564 56.2199,154.731 54.5,151.5C 55.9245,153.031 56.5912,152.698 56.5,150.5 Z"/></g>
</svg>
