<?xml version="1.0" encoding="UTF-8"?>
<!DOCTYPE svg PUBLIC "-//W3C//DTD SVG 1.1//EN" "http://www.w3.org/Graphics/SVG/1.1/DTD/svg11.dtd">
<svg xmlns="http://www.w3.org/2000/svg" version="1.1" width="100px" height="165px" style="shape-rendering:geometricPrecision; text-rendering:geometricPrecision; image-rendering:optimizeQuality; fill-rule:evenodd; clip-rule:evenodd" xmlns:xlink="http://www.w3.org/1999/xlink">
<g><path style="opacity:1" fill="#fafafa" d="M -0.5,-0.5 C 32.8333,-0.5 66.1667,-0.5 99.5,-0.5C 99.5,10.1667 99.5,20.8333 99.5,31.5C 97.4336,30.7519 95.6002,31.4186 94,33.5C 91.8248,30.6899 92.4915,28.6899 96,27.5C 96.8253,23.7887 96.6586,20.122 95.5,16.5C 92.6176,15.1886 89.9509,15.522 87.5,17.5C 87.9038,14.321 88.9038,11.321 90.5,8.5C 89.9037,5.75357 88.2371,4.92023 85.5,6C 84.6242,8.14584 83.2909,9.97918 81.5,11.5C 80.5481,13.0453 80.2148,14.712 80.5,16.5C 76.4033,18.6956 73.7366,22.0289 72.5,26.5C 69.1024,26.9072 65.9357,27.9072 63,29.5C 62.0276,32.2942 62.8609,34.2942 65.5,35.5C 65.8333,35.5 66.1667,35.5 66.5,35.5C 61.924,46.658 56.7573,57.658 51,68.5C 50.3333,70.5 50.3333,72.5 51,74.5C 51.2355,76.1193 52.0689,77.1193 53.5,77.5C 54.087,78.7666 54.087,79.7666 53.5,80.5C 52.1585,78.9951 50.4918,78.3285 48.5,78.5C 48.1667,81.5 49.5,82.8333 52.5,82.5C 52.3505,83.552 52.5172,84.552 53,85.5C 53.7175,84.5494 54.5509,84.3828 55.5,85C 57.2395,86.517 58.9062,88.017 60.5,89.5C 57.3816,88.7699 54.3816,87.7699 51.5,86.5C 51.5567,88.8845 51.2234,91.2178 50.5,93.5C 51.752,97.7258 53.4187,101.726 55.5,105.5C 54.1851,104.524 52.8518,103.524 51.5,102.5C 51.0428,100.402 50.0428,98.7358 48.5,97.5C 49.4602,94.235 49.4602,90.9017 48.5,87.5C 45.2255,87.6353 42.2255,88.6353 39.5,90.5C 38.1207,93.2585 36.7874,95.9252 35.5,98.5C 34.072,95.498 34.4054,92.6647 36.5,90C 35.1373,87.8707 35.4706,87.3707 37.5,88.5C 40.7187,85.4784 44.3854,84.645 48.5,86C 48.4803,84.285 47.8136,82.4516 46.5,80.5C 46.8333,79.8333 47.1667,79.1667 47.5,78.5C 45.5868,77.9488 43.5868,77.7821 41.5,78C 41.8333,77.6667 42.1667,77.3333 42.5,77C 40.8807,76.7645 39.8807,75.9311 39.5,74.5C 45.0935,78.2817 48.4268,76.9484 49.5,70.5C 44.1625,58.8146 38.8292,47.148 33.5,35.5C 36.9549,34.8716 38.1215,32.8716 37,29.5C 34.2816,27.2055 31.115,26.2055 27.5,26.5C 25.8606,23.2241 23.8606,20.2241 21.5,17.5C 20.2317,13.3632 18.2317,9.69656 15.5,6.5C 13.594,4.00616 11.594,4.00616 9.5,6.5C 8.84761,7.4486 8.51428,8.61527 8.5,10C 8.92962,11.8809 9.59628,13.3809 10.5,14.5C 9.32496,14.719 8.32496,14.3857 7.5,13.5C 5.69729,11.7953 5.03062,9.96201 5.5,8C 3.48174,7.49543 1.48174,6.99543 -0.5,6.5C -0.5,4.16667 -0.5,1.83333 -0.5,-0.5 Z"/></g>
<g><path style="opacity:1" fill="#8a7c70" d="M 15.5,6.5 C 15.5,6.83333 15.5,7.16667 15.5,7.5C 14.2597,8.65882 12.9264,9.65882 11.5,10.5C 9.82351,9.81658 9.15684,8.48324 9.5,6.5C 11.594,4.00616 13.594,4.00616 15.5,6.5 Z"/></g>
<g><path style="opacity:1" fill="#fbfbfb" d="M -0.5,6.5 C 1.48174,6.99543 3.48174,7.49543 5.5,8C 5.03062,9.96201 5.69729,11.7953 7.5,13.5C 8.32496,14.3857 9.32496,14.719 10.5,14.5C 10.5,15.8333 10.5,17.1667 10.5,18.5C 11.5,18.5 12.5,18.5 13.5,18.5C 13.2053,20.7354 13.5386,22.7354 14.5,24.5C 15.1667,24.5 15.5,24.8333 15.5,25.5C 15.8333,26.1667 16.1667,26.8333 16.5,27.5C 17.1408,28.4822 17.8075,29.4822 18.5,30.5C 17.2371,32.0287 16.2371,33.6954 15.5,35.5C 13.5443,39.5445 14.8777,42.2112 19.5,43.5C 20.7387,43.0576 21.7387,42.3909 22.5,41.5C 28.9136,51.9908 34.5802,62.9908 39.5,74.5C 39.8807,75.9311 40.8807,76.7645 42.5,77C 42.1667,77.3333 41.8333,77.6667 41.5,78C 43.5868,77.7821 45.5868,77.9488 47.5,78.5C 47.1667,79.1667 46.8333,79.8333 46.5,80.5C 47.8136,82.4516 48.4803,84.285 48.5,86C 44.3854,84.645 40.7187,85.4784 37.5,88.5C 35.4706,87.3707 35.1373,87.8707 36.5,90C 34.4054,92.6647 34.072,95.498 35.5,98.5C 34.8902,99.391 34.5569,100.391 34.5,101.5C 31.0309,108.55 27.3642,115.55 23.5,122.5C 16.3843,119.781 13.8843,122.114 16,129.5C 16.3768,130.942 17.2101,131.942 18.5,132.5C 18.5,133.167 18.5,133.833 18.5,134.5C 17.0213,136.678 15.688,139.012 14.5,141.5C 14.5,142.833 14.5,144.167 14.5,145.5C 14.1667,145.5 13.8333,145.5 13.5,145.5C 11.8621,146.159 10.1955,146.826 8.5,147.5C 8.16667,146.833 7.83333,146.167 7.5,145.5C 6.14699,146.685 4.98032,148.019 4,149.5C 5.38505,142.289 5.71838,133.622 5,123.5C 4.33333,128.833 3.66667,128.833 3,123.5C 2.58278,119.16 2.74945,114.827 3.5,110.5C 3.21047,108.048 2.5438,105.715 1.5,103.5C 1.73703,100.937 2.23703,100.937 3,103.5C 4.51767,95.869 4.51767,88.2023 3,80.5C 2.04707,78.6269 0.880401,78.2935 -0.5,79.5C -0.5,55.1667 -0.5,30.8333 -0.5,6.5 Z"/></g>
<g><path style="opacity:1" fill="#645047" d="M 87.5,17.5 C 86.5084,17.3284 85.8417,17.6618 85.5,18.5C 84.8333,18.5 84.1667,18.5 83.5,18.5C 83.1583,17.6618 82.4916,17.3284 81.5,17.5C 80.8333,17.5 80.5,17.1667 80.5,16.5C 80.2148,14.712 80.5481,13.0453 81.5,11.5C 83.2909,9.97918 84.6242,8.14584 85.5,6C 88.2371,4.92023 89.9037,5.75357 90.5,8.5C 88.9038,11.321 87.9038,14.321 87.5,17.5 Z"/></g>
<g><path style="opacity:1" fill="#614431" d="M 15.5,7.5 C 15.5228,9.59959 14.8561,11.4329 13.5,13C 13.7432,13.9021 14.0766,14.7354 14.5,15.5C 15.0061,18.1973 16.3394,20.364 18.5,22C 16.1088,23.3086 16.1088,24.3086 18.5,25C 17.552,25.4828 16.552,25.6495 15.5,25.5C 15.5,24.8333 15.1667,24.5 14.5,24.5C 14.4562,19.5291 13.4562,14.8624 11.5,10.5C 12.9264,9.65882 14.2597,8.65882 15.5,7.5 Z"/></g>
<g><path style="opacity:1" fill="#d0c09c" d="M 84.5,10.5 C 88.1269,12.1176 88.2936,14.1176 85,16.5C 83.2002,14.6349 83.0336,12.6349 84.5,10.5 Z"/></g>
<g><path style="opacity:1" fill="#a69274" d="M 15.5,6.5 C 18.2317,9.69656 20.2317,13.3632 21.5,17.5C 20.609,16.8902 19.609,16.5569 18.5,16.5C 18.6309,15.6236 18.2975,14.9569 17.5,14.5C 16.5832,15.1272 15.5832,15.4606 14.5,15.5C 14.0766,14.7354 13.7432,13.9021 13.5,13C 14.8561,11.4329 15.5228,9.59959 15.5,7.5C 15.5,7.16667 15.5,6.83333 15.5,6.5 Z"/></g>
<g><path style="opacity:1" fill="#fcfcfb" d="M 99.5,31.5 C 99.5,63.5 99.5,95.5 99.5,127.5C 98.8826,127.611 98.3826,127.944 98,128.5C 97.6667,133.167 97.3333,137.833 97,142.5C 95.5701,142.306 94.0701,142.306 92.5,142.5C 93.3094,144.071 93.6427,145.738 93.5,147.5C 91.857,147.48 90.5237,148.147 89.5,149.5C 88.6424,147.099 87.309,145.099 85.5,143.5C 84.8333,142.167 84.1667,140.833 83.5,139.5C 83.7678,137.901 83.4345,136.568 82.5,135.5C 81.9033,135.265 81.5699,134.765 81.5,134C 84.1771,130.455 84.8438,126.622 83.5,122.5C 83.1583,121.662 82.4916,121.328 81.5,121.5C 79.7839,121.629 78.1172,121.962 76.5,122.5C 71.1667,111.5 65.8333,100.5 60.5,89.5C 58.9062,88.017 57.2395,86.517 55.5,85C 54.5509,84.3828 53.7175,84.5494 53,85.5C 52.5172,84.552 52.3505,83.552 52.5,82.5C 49.5,82.8333 48.1667,81.5 48.5,78.5C 50.4918,78.3285 52.1585,78.9951 53.5,80.5C 54.087,79.7666 54.087,78.7666 53.5,77.5C 59.6244,74.8748 63.2911,70.2081 64.5,63.5C 68.9771,57.2284 72.9771,50.5617 76.5,43.5C 78.3435,43.2448 80.3435,43.0781 82.5,43C 84.6458,40.6431 84.9791,38.1431 83.5,35.5C 83.6085,33.4862 82.9418,31.8195 81.5,30.5C 84.2969,27.019 85.6303,23.019 85.5,18.5C 85.8417,17.6618 86.5084,17.3284 87.5,17.5C 89.9509,15.522 92.6176,15.1886 95.5,16.5C 96.6586,20.122 96.8253,23.7887 96,27.5C 92.4915,28.6899 91.8248,30.6899 94,33.5C 95.6002,31.4186 97.4336,30.7519 99.5,31.5 Z"/></g>
<g><path style="opacity:1" fill="#d7cfce" d="M 9.5,6.5 C 9.15684,8.48324 9.82351,9.81658 11.5,10.5C 13.4562,14.8624 14.4562,19.5291 14.5,24.5C 13.5386,22.7354 13.2053,20.7354 13.5,18.5C 12.5,18.5 11.5,18.5 10.5,18.5C 10.5,17.1667 10.5,15.8333 10.5,14.5C 9.59628,13.3809 8.92962,11.8809 8.5,10C 8.51428,8.61527 8.84761,7.4486 9.5,6.5 Z"/></g>
<g><path style="opacity:1" fill="#704b3d" d="M 18.5,16.5 C 19.609,16.5569 20.609,16.8902 21.5,17.5C 23.8606,20.2241 25.8606,23.2241 27.5,26.5C 27.1667,27.1667 26.8333,27.8333 26.5,28.5C 20.7789,30.0543 17.2789,33.721 16,39.5C 15.51,38.2068 15.3433,36.8734 15.5,35.5C 16.2371,33.6954 17.2371,32.0287 18.5,30.5C 17.8075,29.4822 17.1408,28.4822 16.5,27.5C 18.922,26.9148 20.5887,25.4148 21.5,23C 21.0183,21.9916 20.8516,20.825 21,19.5C 19.984,18.3659 19.3173,18.6992 19,20.5C 18.51,19.2068 18.3433,17.8734 18.5,16.5 Z"/></g>
<g><path style="opacity:1" fill="#a67763" d="M 18.5,16.5 C 18.3433,17.8734 18.51,19.2068 19,20.5C 19.3173,18.6992 19.984,18.3659 21,19.5C 20.8516,20.825 21.0183,21.9916 21.5,23C 20.5887,25.4148 18.922,26.9148 16.5,27.5C 16.1667,26.8333 15.8333,26.1667 15.5,25.5C 16.552,25.6495 17.552,25.4828 18.5,25C 16.1088,24.3086 16.1088,23.3086 18.5,22C 16.3394,20.364 15.0061,18.1973 14.5,15.5C 15.5832,15.4606 16.5832,15.1272 17.5,14.5C 18.2975,14.9569 18.6309,15.6236 18.5,16.5 Z"/></g>
<g><path style="opacity:1" fill="#3a6985" d="M 81.5,17.5 C 82.4916,17.3284 83.1583,17.6618 83.5,18.5C 83.4536,22.816 81.9536,26.4827 79,29.5C 77.8288,28.6604 76.6621,27.8271 75.5,27C 77.1372,23.5486 79.1372,20.3819 81.5,17.5 Z"/></g>
<g><path style="opacity:1" fill="#766f5f" d="M 27.5,26.5 C 31.115,26.2055 34.2816,27.2055 37,29.5C 38.1215,32.8716 36.9549,34.8716 33.5,35.5C 33.1667,35.5 32.8333,35.5 32.5,35.5C 32.5,35.1667 32.5,34.8333 32.5,34.5C 36.4755,31.3812 35.8088,29.0478 30.5,27.5C 29.2638,28.2458 27.9305,28.5792 26.5,28.5C 26.8333,27.8333 27.1667,27.1667 27.5,26.5 Z"/></g>
<g><path style="opacity:1" fill="#2f3842" d="M 80.5,16.5 C 80.5,17.1667 80.8333,17.5 81.5,17.5C 79.1372,20.3819 77.1372,23.5486 75.5,27C 76.6621,27.8271 77.8288,28.6604 79,29.5C 81.9536,26.4827 83.4536,22.816 83.5,18.5C 84.1667,18.5 84.8333,18.5 85.5,18.5C 85.6303,23.019 84.2969,27.019 81.5,30.5C 80.8333,30.8333 80.1667,31.1667 79.5,31.5C 77.0554,30.6876 74.7221,29.6876 72.5,28.5C 72.5,27.8333 72.5,27.1667 72.5,26.5C 73.7366,22.0289 76.4033,18.6956 80.5,16.5 Z"/></g>
<g><path style="opacity:1" fill="#b69d7c" d="M 32.5,34.5 C 31.8485,33.9094 31.1818,33.2427 30.5,32.5C 28.6147,33.6094 26.6147,34.4427 24.5,35C 22.8258,36.5059 21.8258,38.3393 21.5,40.5C 21.5,41.1667 21.8333,41.5 22.5,41.5C 21.7387,42.3909 20.7387,43.0576 19.5,43.5C 14.8777,42.2112 13.5443,39.5445 15.5,35.5C 15.3433,36.8734 15.51,38.2068 16,39.5C 17.2789,33.721 20.7789,30.0543 26.5,28.5C 27.9305,28.5792 29.2638,28.2458 30.5,27.5C 35.8088,29.0478 36.4755,31.3812 32.5,34.5 Z"/></g>
<g><path style="opacity:1" fill="#8a7e6f" d="M 72.5,26.5 C 72.5,27.1667 72.5,27.8333 72.5,28.5C 69.3354,27.9635 66.6688,28.7969 64.5,31C 65.305,32.1127 65.9717,33.2794 66.5,34.5C 65.8333,34.5 65.5,34.8333 65.5,35.5C 62.8609,34.2942 62.0276,32.2942 63,29.5C 65.9357,27.9072 69.1024,26.9072 72.5,26.5 Z"/></g>
<g><path style="opacity:1" fill="#737253" d="M 81.5,30.5 C 82.9418,31.8195 83.6085,33.4862 83.5,35.5C 82.1667,34.5 80.8333,33.5 79.5,32.5C 79.5,32.1667 79.5,31.8333 79.5,31.5C 80.1667,31.1667 80.8333,30.8333 81.5,30.5 Z"/></g>
<g><path style="opacity:1" fill="#caaf74" d="M 72.5,28.5 C 74.7221,29.6876 77.0554,30.6876 79.5,31.5C 79.5,31.8333 79.5,32.1667 79.5,32.5C 79.5,33.1667 79.5,33.8333 79.5,34.5C 79.1436,36.1898 78.1436,37.1898 76.5,37.5C 74.8073,35.3984 72.6406,33.7317 70,32.5C 69.5439,31.2559 70.0439,30.4226 71.5,30C 69.7111,29.4795 68.0444,29.8129 66.5,31C 69.1247,32.3757 69.1247,33.5423 66.5,34.5C 65.9717,33.2794 65.305,32.1127 64.5,31C 66.6688,28.7969 69.3354,27.9635 72.5,28.5 Z"/></g>
<g><path style="opacity:1" fill="#49514b" d="M 32.5,34.5 C 32.5,34.8333 32.5,35.1667 32.5,35.5C 32.5,36.1667 32.1667,36.5 31.5,36.5C 30.4324,35.5655 29.099,35.2322 27.5,35.5C 26.5,35.8333 25.8333,36.5 25.5,37.5C 24.3634,38.7888 23.0301,39.7888 21.5,40.5C 21.8258,38.3393 22.8258,36.5059 24.5,35C 26.6147,34.4427 28.6147,33.6094 30.5,32.5C 31.1818,33.2427 31.8485,33.9094 32.5,34.5 Z"/></g>
<g><path style="opacity:1" fill="#98774e" d="M 76.5,37.5 C 74.8007,37.5271 73.4674,38.1938 72.5,39.5C 70.4862,39.3915 68.8195,40.0582 67.5,41.5C 67.7947,39.2646 67.4614,37.2646 66.5,35.5C 66.1667,35.5 65.8333,35.5 65.5,35.5C 65.5,34.8333 65.8333,34.5 66.5,34.5C 69.1247,33.5423 69.1247,32.3757 66.5,31C 68.0444,29.8129 69.7111,29.4795 71.5,30C 70.0439,30.4226 69.5439,31.2559 70,32.5C 72.6406,33.7317 74.8073,35.3984 76.5,37.5 Z"/></g>
<g><path style="opacity:1" fill="#beb797" d="M 79.5,32.5 C 80.8333,33.5 82.1667,34.5 83.5,35.5C 84.1518,39.5601 82.4851,41.5601 78.5,41.5C 78.3118,39.8967 78.8118,38.5634 80,37.5C 80.5556,39.5951 81.0556,39.7618 81.5,38C 81.1918,36.5405 80.5251,35.3739 79.5,34.5C 79.5,33.8333 79.5,33.1667 79.5,32.5 Z"/></g>
<g><path style="opacity:1" fill="#e2cc85" d="M 76.5,37.5 C 72.894,46.4115 68.894,55.0781 64.5,63.5C 62.1889,66.7669 59.8556,70.1002 57.5,73.5C 55.9222,74.0724 54.4222,74.4057 53,74.5C 52.2128,69.0298 53.7128,64.3632 57.5,60.5C 57.4506,63.0991 56.4506,65.2658 54.5,67C 55.3081,67.3076 55.9747,67.8076 56.5,68.5C 55.6744,69.451 55.5078,70.451 56,71.5C 56.3333,71.1667 56.6667,70.8333 57,70.5C 62.4523,60.2415 67.619,49.9082 72.5,39.5C 73.4674,38.1938 74.8007,37.5271 76.5,37.5 Z"/></g>
<g><path style="opacity:1" fill="#2b769f" d="M 27.5,35.5 C 33.5348,47.853 39.5348,60.1863 45.5,72.5C 44.1196,73.7065 42.9529,73.3731 42,71.5C 40.0622,65.7554 37.3956,60.422 34,55.5C 33.6667,53.8333 33.3333,52.1667 33,50.5C 28.2552,48.0681 25.7552,43.7348 25.5,37.5C 25.8333,36.5 26.5,35.8333 27.5,35.5 Z"/></g>
<g><path style="opacity:1" fill="#88815c" d="M 79.5,34.5 C 80.5251,35.3739 81.1918,36.5405 81.5,38C 81.0556,39.7618 80.5556,39.5951 80,37.5C 78.8118,38.5634 78.3118,39.8967 78.5,41.5C 82.4851,41.5601 84.1518,39.5601 83.5,35.5C 84.9791,38.1431 84.6458,40.6431 82.5,43C 80.3435,43.0781 78.3435,43.2448 76.5,43.5C 72.9771,50.5617 68.9771,57.2284 64.5,63.5C 68.894,55.0781 72.894,46.4115 76.5,37.5C 78.1436,37.1898 79.1436,36.1898 79.5,34.5 Z"/></g>
<g><path style="opacity:1" fill="#948169" d="M 66.5,35.5 C 67.4614,37.2646 67.7947,39.2646 67.5,41.5C 65.9069,42.3479 64.7403,43.6813 64,45.5C 61.9121,50.6181 59.7455,55.6181 57.5,60.5C 53.7128,64.3632 52.2128,69.0298 53,74.5C 54.4222,74.4057 55.9222,74.0724 57.5,73.5C 59.8556,70.1002 62.1889,66.7669 64.5,63.5C 63.2911,70.2081 59.6244,74.8748 53.5,77.5C 52.0689,77.1193 51.2355,76.1193 51,74.5C 50.3333,72.5 50.3333,70.5 51,68.5C 56.7573,57.658 61.924,46.658 66.5,35.5 Z"/></g>
<g><path style="opacity:1" fill="#b58c54" d="M 72.5,39.5 C 67.619,49.9082 62.4523,60.2415 57,70.5C 56.6667,70.8333 56.3333,71.1667 56,71.5C 55.5078,70.451 55.6744,69.451 56.5,68.5C 55.9747,67.8076 55.3081,67.3076 54.5,67C 56.4506,65.2658 57.4506,63.0991 57.5,60.5C 59.7455,55.6181 61.9121,50.6181 64,45.5C 64.7403,43.6813 65.9069,42.3479 67.5,41.5C 68.8195,40.0582 70.4862,39.3915 72.5,39.5 Z"/></g>
<g><path style="opacity:1" fill="#45a5cf" d="M 27.5,35.5 C 29.099,35.2322 30.4324,35.5655 31.5,36.5C 36.9725,47.9445 42.3059,59.4445 47.5,71C 47.1667,71.8333 46.8333,72.6667 46.5,73.5C 45.8933,73.3764 45.56,73.0431 45.5,72.5C 39.5348,60.1863 33.5348,47.853 27.5,35.5 Z"/></g>
<g><path style="opacity:1" fill="#4c8098" d="M 32.5,35.5 C 32.8333,35.5 33.1667,35.5 33.5,35.5C 38.8292,47.148 44.1625,58.8146 49.5,70.5C 48.4268,76.9484 45.0935,78.2817 39.5,74.5C 34.5802,62.9908 28.9136,51.9908 22.5,41.5C 21.8333,41.5 21.5,41.1667 21.5,40.5C 23.0301,39.7888 24.3634,38.7888 25.5,37.5C 25.7552,43.7348 28.2552,48.0681 33,50.5C 33.3333,52.1667 33.6667,53.8333 34,55.5C 37.3956,60.422 40.0622,65.7554 42,71.5C 42.9529,73.3731 44.1196,73.7065 45.5,72.5C 45.56,73.0431 45.8933,73.3764 46.5,73.5C 46.8333,72.6667 47.1667,71.8333 47.5,71C 42.3059,59.4445 36.9725,47.9445 31.5,36.5C 32.1667,36.5 32.5,36.1667 32.5,35.5 Z"/></g>
<g><path style="opacity:1" fill="#9e5e5d" d="M 48.5,97.5 C 45.2444,104.943 41.2444,111.943 36.5,118.5C 38.7007,109.795 42.3674,101.795 47.5,94.5C 47.5466,92.9623 46.8799,91.9623 45.5,91.5C 40.2863,92.7206 37.6197,96.0539 37.5,101.5C 36.5,102.167 35.5,102.833 34.5,103.5C 34.5,102.833 34.5,102.167 34.5,101.5C 34.5569,100.391 34.8902,99.391 35.5,98.5C 36.7874,95.9252 38.1207,93.2585 39.5,90.5C 42.2255,88.6353 45.2255,87.6353 48.5,87.5C 49.4602,90.9017 49.4602,94.235 48.5,97.5 Z"/></g>
<g><path style="opacity:1" fill="#ae393b" d="M 45.5,91.5 C 42.9597,97.9023 40.1264,104.236 37,110.5C 34.2411,114.407 31.7411,118.407 29.5,122.5C 28.7886,118.719 29.9553,115.719 33,113.5C 34.2292,109.379 35.7292,105.379 37.5,101.5C 37.6197,96.0539 40.2863,92.7206 45.5,91.5 Z"/></g>
<g><path style="opacity:1" fill="#fafaf9" d="M 13.5,145.5 C 10.5188,149.192 9.35209,153.526 10,158.5C 13.5007,159.862 15.334,158.529 15.5,154.5C 16.8333,153.833 17.8333,152.833 18.5,151.5C 20.8188,148.177 23.1521,144.844 25.5,141.5C 26.4345,140.432 26.7678,139.099 26.5,137.5C 26.8333,137.5 27.1667,137.5 27.5,137.5C 33.8309,138.971 36.9976,136.638 37,130.5C 35.3732,129.468 34.2066,128.134 33.5,126.5C 35.0435,124.072 36.0435,121.406 36.5,118.5C 41.2444,111.943 45.2444,104.943 48.5,97.5C 50.0428,98.7358 51.0428,100.402 51.5,102.5C 52.8518,103.524 54.1851,104.524 55.5,105.5C 59.5432,112.619 63.2099,119.953 66.5,127.5C 61.1899,130.768 61.1899,134.102 66.5,137.5C 68.5273,137.338 70.5273,137.505 72.5,138C 73.3366,139.011 73.67,140.178 73.5,141.5C 75.177,143.54 76.8437,145.54 78.5,147.5C 79.879,150.307 81.5457,152.974 83.5,155.5C 83.4077,159.071 85.0743,160.238 88.5,159C 91.1239,157.031 91.1239,155.198 88.5,153.5C 87.8333,151.833 87.1667,150.167 86.5,148.5C 85.6993,146.958 85.366,145.292 85.5,143.5C 87.309,145.099 88.6424,147.099 89.5,149.5C 90.5237,148.147 91.857,147.48 93.5,147.5C 93.6427,145.738 93.3094,144.071 92.5,142.5C 94.0701,142.306 95.5701,142.306 97,142.5C 97.3333,137.833 97.6667,133.167 98,128.5C 98.3826,127.944 98.8826,127.611 99.5,127.5C 99.5,139.833 99.5,152.167 99.5,164.5C 66.1667,164.5 32.8333,164.5 -0.5,164.5C -0.5,136.167 -0.5,107.833 -0.5,79.5C 0.880401,78.2935 2.04707,78.6269 3,80.5C 4.51767,88.2023 4.51767,95.869 3,103.5C 2.23703,100.937 1.73703,100.937 1.5,103.5C 2.5438,105.715 3.21047,108.048 3.5,110.5C 2.74945,114.827 2.58278,119.16 3,123.5C 3.66667,128.833 4.33333,128.833 5,123.5C 5.71838,133.622 5.38505,142.289 4,149.5C 4.98032,148.019 6.14699,146.685 7.5,145.5C 7.83333,146.167 8.16667,146.833 8.5,147.5C 10.1955,146.826 11.8621,146.159 13.5,145.5 Z"/></g>
<g><path style="opacity:1" fill="#964044" d="M 37.5,101.5 C 35.7292,105.379 34.2292,109.379 33,113.5C 29.9553,115.719 28.7886,118.719 29.5,122.5C 28.8333,124.833 28.1667,127.167 27.5,129.5C 26.8333,129.5 26.1667,129.5 25.5,129.5C 25.5,129.167 25.5,128.833 25.5,128.5C 26.719,124.266 27.8856,119.933 29,115.5C 31.8722,112.083 33.7055,108.083 34.5,103.5C 35.5,102.833 36.5,102.167 37.5,101.5 Z"/></g>
<g><path style="opacity:1" fill="#d55f60" d="M 45.5,91.5 C 46.8799,91.9623 47.5466,92.9623 47.5,94.5C 42.3674,101.795 38.7007,109.795 36.5,118.5C 33.0582,121.299 31.3915,124.966 31.5,129.5C 30.1667,129.5 28.8333,129.5 27.5,129.5C 28.1667,127.167 28.8333,124.833 29.5,122.5C 31.7411,118.407 34.2411,114.407 37,110.5C 40.1264,104.236 42.9597,97.9023 45.5,91.5 Z"/></g>
<g><path style="opacity:1" fill="#7b504f" d="M 34.5,101.5 C 34.5,102.167 34.5,102.833 34.5,103.5C 33.7055,108.083 31.8722,112.083 29,115.5C 27.8856,119.933 26.719,124.266 25.5,128.5C 22.7026,128.033 21.3692,126.367 21.5,123.5C 22.4916,123.672 23.1583,123.338 23.5,122.5C 27.3642,115.55 31.0309,108.55 34.5,101.5 Z"/></g>
<g><path style="opacity:1" fill="#457991" d="M 60.5,89.5 C 65.8333,100.5 71.1667,111.5 76.5,122.5C 76.5,124.167 76.5,125.833 76.5,127.5C 73.5448,128.159 70.5448,128.492 67.5,128.5C 67.5,127.833 67.1667,127.5 66.5,127.5C 63.2099,119.953 59.5432,112.619 55.5,105.5C 53.4187,101.726 51.752,97.7258 50.5,93.5C 51.2234,91.2178 51.5567,88.8845 51.5,86.5C 54.3816,87.7699 57.3816,88.7699 60.5,89.5 Z"/></g>
<g><path style="opacity:1" fill="#42a6d0" d="M 54.5,89.5 C 57.0193,89.8477 58.8526,91.1811 60,93.5C 65,103.167 70,112.833 75,122.5C 75.7109,126.498 74.7109,127.165 72,124.5C 70.3655,120.079 68.1988,116.079 65.5,112.5C 62.3304,104.582 58.6637,96.9153 54.5,89.5 Z"/></g>
<g><path style="opacity:1" fill="#2a7caf" d="M 54.5,89.5 C 58.6637,96.9153 62.3304,104.582 65.5,112.5C 64.8826,112.611 64.3826,112.944 64,113.5C 63.0676,111.234 61.7342,109.234 60,107.5C 59.8078,105.423 59.3078,103.423 58.5,101.5C 56.3981,98.1381 54.3981,94.6381 52.5,91C 52.8361,89.9701 53.5028,89.4701 54.5,89.5 Z"/></g>
<g><path style="opacity:1" fill="#8e8872" d="M 23.5,122.5 C 23.1583,123.338 22.4916,123.672 21.5,123.5C 20.5028,123.47 19.8361,123.97 19.5,125C 19.0612,126.994 19.0612,129.16 19.5,131.5C 18.8333,131.5 18.5,131.833 18.5,132.5C 17.2101,131.942 16.3768,130.942 16,129.5C 13.8843,122.114 16.3843,119.781 23.5,122.5 Z"/></g>
<g><path style="opacity:1" fill="#696d59" d="M 81.5,121.5 C 79.5619,123.332 77.8952,125.332 76.5,127.5C 76.5,125.833 76.5,124.167 76.5,122.5C 78.1172,121.962 79.7839,121.629 81.5,121.5 Z"/></g>
<g><path style="opacity:1" fill="#94533c" d="M 36.5,118.5 C 36.0435,121.406 35.0435,124.072 33.5,126.5C 32.9348,128.42 31.9348,130.087 30.5,131.5C 28.4471,131.598 26.7804,130.931 25.5,129.5C 26.1667,129.5 26.8333,129.5 27.5,129.5C 28.8333,129.5 30.1667,129.5 31.5,129.5C 31.3915,124.966 33.0582,121.299 36.5,118.5 Z"/></g>
<g><path style="opacity:1" fill="#394436" d="M 76.5,127.5 C 76.1667,128.5 75.5,129.167 74.5,129.5C 73.0328,129.894 71.5328,130.227 70,130.5C 68.6244,130.316 67.7911,129.649 67.5,128.5C 70.5448,128.492 73.5448,128.159 76.5,127.5 Z"/></g>
<g><path style="opacity:1" fill="#c0a371" d="M 21.5,123.5 C 21.3692,126.367 22.7026,128.033 25.5,128.5C 25.5,128.833 25.5,129.167 25.5,129.5C 26.7804,130.931 28.4471,131.598 30.5,131.5C 31.2604,134.96 32.7604,135.293 35,132.5C 35.6667,133.167 35.6667,133.833 35,134.5C 32.7724,136.113 30.2724,136.78 27.5,136.5C 24.8333,134.833 22.1667,133.167 19.5,131.5C 19.0612,129.16 19.0612,126.994 19.5,125C 19.8361,123.97 20.5028,123.47 21.5,123.5 Z"/></g>
<g><path style="opacity:1" fill="#322921" d="M 19.5,131.5 C 22.1667,133.167 24.8333,134.833 27.5,136.5C 27.5,136.833 27.5,137.167 27.5,137.5C 27.1667,137.5 26.8333,137.5 26.5,137.5C 23.7455,136.656 21.0788,135.656 18.5,134.5C 18.5,133.833 18.5,133.167 18.5,132.5C 18.5,131.833 18.8333,131.5 19.5,131.5 Z"/></g>
<g><path style="opacity:1" fill="#bd9c71" d="M 81.5,121.5 C 82.4916,121.328 83.1583,121.662 83.5,122.5C 83.0707,123.953 82.904,125.619 83,127.5C 81.2555,132.457 77.7555,135.124 72.5,135.5C 71.5,135.5 70.5,135.5 69.5,135.5C 69.5,134.167 69.5,132.833 69.5,131.5C 71.698,131.88 73.3646,131.213 74.5,129.5C 75.5,129.167 76.1667,128.5 76.5,127.5C 77.8952,125.332 79.5619,123.332 81.5,121.5 Z"/></g>
<g><path style="opacity:1" fill="#9f927a" d="M 66.5,127.5 C 67.1667,127.5 67.5,127.833 67.5,128.5C 67.7911,129.649 68.6244,130.316 70,130.5C 71.5328,130.227 73.0328,129.894 74.5,129.5C 73.3646,131.213 71.698,131.88 69.5,131.5C 69.5,132.833 69.5,134.167 69.5,135.5C 70.5,135.5 71.5,135.5 72.5,135.5C 70.5,136.167 68.5,136.833 66.5,137.5C 61.1899,134.102 61.1899,130.768 66.5,127.5 Z"/></g>
<g><path style="opacity:1" fill="#90806a" d="M 33.5,126.5 C 34.2066,128.134 35.3732,129.468 37,130.5C 36.9976,136.638 33.8309,138.971 27.5,137.5C 27.5,137.167 27.5,136.833 27.5,136.5C 30.2724,136.78 32.7724,136.113 35,134.5C 35.6667,133.833 35.6667,133.167 35,132.5C 32.7604,135.293 31.2604,134.96 30.5,131.5C 31.9348,130.087 32.9348,128.42 33.5,126.5 Z"/></g>
<g><path style="opacity:1" fill="#745945" d="M 83.5,122.5 C 84.8438,126.622 84.1771,130.455 81.5,134C 81.5699,134.765 81.9033,135.265 82.5,135.5C 80.2829,137.08 77.6163,138.08 74.5,138.5C 76.0916,140.225 75.7583,141.225 73.5,141.5C 73.67,140.178 73.3366,139.011 72.5,138C 70.5273,137.505 68.5273,137.338 66.5,137.5C 68.5,136.833 70.5,136.167 72.5,135.5C 77.7555,135.124 81.2555,132.457 83,127.5C 82.904,125.619 83.0707,123.953 83.5,122.5 Z"/></g>
<g><path style="opacity:1" fill="#3f4f6e" d="M 18.5,134.5 C 21.0788,135.656 23.7455,136.656 26.5,137.5C 26.7678,139.099 26.4345,140.432 25.5,141.5C 25.6495,140.448 25.4828,139.448 25,138.5C 24.6232,139.942 23.7899,140.942 22.5,141.5C 21.5416,141.047 20.7083,140.381 20,139.5C 17.5537,140.445 16.0537,142.111 15.5,144.5C 15.7373,143.209 15.404,142.209 14.5,141.5C 15.688,139.012 17.0213,136.678 18.5,134.5 Z"/></g>
<g><path style="opacity:1" fill="#57748b" d="M 22.5,141.5 C 21.8743,142.529 21.041,143.529 20,144.5C 19.6667,143.833 19.3333,143.167 19,142.5C 18.7978,144.256 18.2978,145.922 17.5,147.5C 16.0815,146.995 15.4148,145.995 15.5,144.5C 16.0537,142.111 17.5537,140.445 20,139.5C 20.7083,140.381 21.5416,141.047 22.5,141.5 Z"/></g>
<g><path style="opacity:1" fill="#9e7a65" d="M 82.5,135.5 C 83.4345,136.568 83.7678,137.901 83.5,139.5C 78.9593,139.331 78.626,139.998 82.5,141.5C 83.3482,143.409 83.6816,145.409 83.5,147.5C 81.6096,147.703 80.1096,147.037 79,145.5C 78.5357,146.094 78.369,146.761 78.5,147.5C 76.8437,145.54 75.177,143.54 73.5,141.5C 75.7583,141.225 76.0916,140.225 74.5,138.5C 77.6163,138.08 80.2829,137.08 82.5,135.5 Z"/></g>
<g><path style="opacity:1" fill="#323e44" d="M 25.5,141.5 C 23.1521,144.844 20.8188,148.177 18.5,151.5C 18.1667,151.5 17.8333,151.5 17.5,151.5C 17.5,150.833 17.5,150.167 17.5,149.5C 15.7706,148.764 14.7706,147.43 14.5,145.5C 14.5,144.167 14.5,142.833 14.5,141.5C 15.404,142.209 15.7373,143.209 15.5,144.5C 15.4148,145.995 16.0815,146.995 17.5,147.5C 18.2978,145.922 18.7978,144.256 19,142.5C 19.3333,143.167 19.6667,143.833 20,144.5C 21.041,143.529 21.8743,142.529 22.5,141.5C 23.7899,140.942 24.6232,139.942 25,138.5C 25.4828,139.448 25.6495,140.448 25.5,141.5 Z"/></g>
<g><path style="opacity:1" fill="#5a462f" d="M 83.5,139.5 C 84.1667,140.833 84.8333,142.167 85.5,143.5C 85.366,145.292 85.6993,146.958 86.5,148.5C 87.1667,150.167 87.8333,151.833 88.5,153.5C 86.8564,154.316 85.6897,155.65 85,157.5C 84.7216,156.584 84.2216,155.918 83.5,155.5C 81.5457,152.974 79.879,150.307 78.5,147.5C 78.369,146.761 78.5357,146.094 79,145.5C 80.1096,147.037 81.6096,147.703 83.5,147.5C 83.6816,145.409 83.3482,143.409 82.5,141.5C 78.626,139.998 78.9593,139.331 83.5,139.5 Z"/></g>
<g><path style="opacity:1" fill="#d3bf9f" d="M 86.5,148.5 C 86.6567,149.873 86.49,151.207 86,152.5C 83.1712,153.674 82.1712,152.674 83,149.5C 84.0113,148.663 85.1779,148.33 86.5,148.5 Z"/></g>
<g><path style="opacity:1" fill="#dac4ab" d="M 17.5,149.5 C 17.5,150.167 17.5,150.833 17.5,151.5C 15.544,153.175 14.2107,152.842 13.5,150.5C 14.5676,149.566 15.901,149.232 17.5,149.5 Z"/></g>
<g><path style="opacity:1" fill="#8e7b6a" d="M 13.5,150.5 C 14.2107,152.842 15.544,153.175 17.5,151.5C 17.8333,151.5 18.1667,151.5 18.5,151.5C 17.8333,152.833 16.8333,153.833 15.5,154.5C 14.791,153.596 13.791,153.263 12.5,153.5C 12.2627,152.209 12.596,151.209 13.5,150.5 Z"/></g>
<g><path style="opacity:1" fill="#6d5451" d="M 13.5,145.5 C 13.8333,145.5 14.1667,145.5 14.5,145.5C 14.7706,147.43 15.7706,148.764 17.5,149.5C 15.901,149.232 14.5676,149.566 13.5,150.5C 12.596,151.209 12.2627,152.209 12.5,153.5C 13.791,153.263 14.791,153.596 15.5,154.5C 15.334,158.529 13.5007,159.862 10,158.5C 9.35209,153.526 10.5188,149.192 13.5,145.5 Z"/></g>
<g><path style="opacity:1" fill="#918171" d="M 88.5,153.5 C 91.1239,155.198 91.1239,157.031 88.5,159C 85.0743,160.238 83.4077,159.071 83.5,155.5C 84.2216,155.918 84.7216,156.584 85,157.5C 85.6897,155.65 86.8564,154.316 88.5,153.5 Z"/></g>
</svg>
