<?xml version="1.0" encoding="UTF-8"?>
<!DOCTYPE svg PUBLIC "-//W3C//DTD SVG 1.1//EN" "http://www.w3.org/Graphics/SVG/1.1/DTD/svg11.dtd">
<svg xmlns="http://www.w3.org/2000/svg" version="1.1" width="100px" height="165px" style="shape-rendering:geometricPrecision; text-rendering:geometricPrecision; image-rendering:optimizeQuality; fill-rule:evenodd; clip-rule:evenodd" xmlns:xlink="http://www.w3.org/1999/xlink">
<g><path style="opacity:1" fill="#fafaf9" d="M -0.5,-0.5 C 32.8333,-0.5 66.1667,-0.5 99.5,-0.5C 99.5,54.5 99.5,109.5 99.5,164.5C 66.1667,164.5 32.8333,164.5 -0.5,164.5C -0.5,109.5 -0.5,54.5 -0.5,-0.5 Z"/></g>
<g><path style="opacity:1" fill="#9c9f9d" d="M 27.5,3.5 C 26.448,3.35055 25.448,3.51722 24.5,4C 25.2524,4.67076 25.5858,5.5041 25.5,6.5C 23.8958,5.71304 23.2291,4.3797 23.5,2.5C 25.099,2.23219 26.4324,2.56552 27.5,3.5 Z"/></g>
<g><path style="opacity:1" fill="#415353" d="M 27.5,3.5 C 29.663,4.46906 31.9963,5.30239 34.5,6C 35.3805,6.7083 36.0472,7.54163 36.5,8.5C 36.3893,9.11742 36.056,9.61742 35.5,10C 32.9715,9.89506 30.6382,10.0617 28.5,10.5C 27.8333,10.8333 27.1667,11.1667 26.5,11.5C 26.634,9.70848 26.3007,8.04181 25.5,6.5C 25.5858,5.5041 25.2524,4.67076 24.5,4C 25.448,3.51722 26.448,3.35055 27.5,3.5 Z"/></g>
<g><path style="opacity:1" fill="#69463c" d="M 73.5,16.5 C 73.1667,16.5 72.8333,16.5 72.5,16.5C 72.9492,14.0225 72.2825,12.0225 70.5,10.5C 69.4777,10.8555 68.811,11.5222 68.5,12.5C 67.5,12.5 66.5,12.5 65.5,12.5C 63.0666,27.9369 62.2333,43.6036 63,59.5C 63.7083,60.3805 64.5416,61.0472 65.5,61.5C 66.287,63.1042 67.6203,63.7709 69.5,63.5C 70.5,64.1667 71.5,64.8333 72.5,65.5C 64.6183,65.9135 60.6183,62.2469 60.5,54.5C 60.3089,44.7424 60.9756,35.0758 62.5,25.5C 62.1712,19.7945 62.5046,14.1278 63.5,8.5C 66.2115,3.64533 70.2115,2.312 75.5,4.5C 73.7442,8.28792 73.0775,12.2879 73.5,16.5 Z"/></g>
<g><path style="opacity:1" fill="#8b4645" d="M 28.5,10.5 C 30.7457,11.4552 33.079,12.1218 35.5,12.5C 35.5,15.5 35.5,18.5 35.5,21.5C 34.8333,18.8333 34.1667,16.1667 33.5,13.5C 31.3209,11.8362 29.4875,12.1695 28,14.5C 27.502,17.4816 27.3354,20.4816 27.5,23.5C 26.0818,26.0204 25.0818,28.6871 24.5,31.5C 24.7373,30.209 24.404,29.209 23.5,28.5C 24.9725,22.9375 25.9725,17.2709 26.5,11.5C 27.1667,11.1667 27.8333,10.8333 28.5,10.5 Z"/></g>
<g><path style="opacity:1" fill="#eacb85" d="M 72.5,16.5 C 72.5,18.8333 72.5,21.1667 72.5,23.5C 70.461,22.3282 69.1276,20.6616 68.5,18.5C 68.5,16.5 68.5,14.5 68.5,12.5C 68.811,11.5222 69.4777,10.8555 70.5,10.5C 72.2825,12.0225 72.9492,14.0225 72.5,16.5 Z"/></g>
<g><path style="opacity:1" fill="#b7894c" d="M 65.5,13.5 C 65.5,13.1667 65.5,12.8333 65.5,12.5C 66.5,12.5 67.5,12.5 68.5,12.5C 68.5,14.5 68.5,16.5 68.5,18.5C 68.5,19.1667 68.5,19.8333 68.5,20.5C 67.8333,25.1667 67.1667,29.8333 66.5,34.5C 66.8245,27.3134 66.4912,20.3134 65.5,13.5 Z"/></g>
<g><path style="opacity:1" fill="#64542c" d="M 72.5,16.5 C 72.8333,16.5 73.1667,16.5 73.5,16.5C 75.5309,21.2688 76.5309,26.2688 76.5,31.5C 75.1314,29.3085 74.1314,26.9752 73.5,24.5C 73.5,23.8333 73.1667,23.5 72.5,23.5C 72.5,21.1667 72.5,18.8333 72.5,16.5 Z"/></g>
<g><path style="opacity:1" fill="#d7a175" d="M 65.5,13.5 C 66.4912,20.3134 66.8245,27.3134 66.5,34.5C 66.7148,36.1788 66.0481,37.1788 64.5,37.5C 65.1655,29.5173 65.4988,21.5173 65.5,13.5 Z"/></g>
<g><path style="opacity:1" fill="#a67050" d="M 65.5,12.5 C 65.5,12.8333 65.5,13.1667 65.5,13.5C 65.4988,21.5173 65.1655,29.5173 64.5,37.5C 64.1771,43.69 64.5104,49.69 65.5,55.5C 65.5,57.5 65.5,59.5 65.5,61.5C 64.5416,61.0472 63.7083,60.3805 63,59.5C 62.2333,43.6036 63.0666,27.9369 65.5,12.5 Z"/></g>
<g><path style="opacity:1" fill="#c95f60" d="M 27.5,23.5 C 27.5,24.8333 27.5,26.1667 27.5,27.5C 26.1787,32.0109 25.1787,36.6776 24.5,41.5C 23.0337,42.347 22.2004,43.6803 22,45.5C 21.5017,48.8168 21.335,52.1501 21.5,55.5C 22.5,55.5 23.5,55.5 24.5,55.5C 24.8212,59.788 27.1545,62.1214 31.5,62.5C 29.6365,63.7928 27.6365,63.7928 25.5,62.5C 20.6928,57.0954 19.1928,50.7621 21,43.5C 22.7348,39.6546 23.9015,35.6546 24.5,31.5C 25.0818,28.6871 26.0818,26.0204 27.5,23.5 Z"/></g>
<g><path style="opacity:1" fill="#c85355" d="M 33.5,13.5 C 34.1667,16.1667 34.8333,18.8333 35.5,21.5C 35.1832,25.7016 35.5166,29.7016 36.5,33.5C 36.8283,42.5999 36.1616,51.5999 34.5,60.5C 33.5,61.1667 32.5,61.8333 31.5,62.5C 34.1681,56.7292 35.5014,50.5625 35.5,44C 35.6397,40.8502 34.973,38.0169 33.5,35.5C 33.5,28.1667 33.5,20.8333 33.5,13.5 Z"/></g>
<g><path style="opacity:1" fill="#d4a64d" d="M 68.5,20.5 C 68.8312,28.8599 68.4979,37.1932 67.5,45.5C 67.1667,44.1667 66.8333,42.8333 66.5,41.5C 65.5067,46.1196 65.1734,50.7863 65.5,55.5C 64.5104,49.69 64.1771,43.69 64.5,37.5C 66.0481,37.1788 66.7148,36.1788 66.5,34.5C 67.1667,29.8333 67.8333,25.1667 68.5,20.5 Z"/></g>
<g><path style="opacity:1" fill="#a02e32" d="M 27.5,27.5 C 27.6664,35.84 27.4997,44.1733 27,52.5C 26,52.8333 25,53.1667 24,53.5C 23.8297,49.5066 23.9963,45.5066 24.5,41.5C 25.1787,36.6776 26.1787,32.0109 27.5,27.5 Z"/></g>
<g><path style="opacity:1" fill="#f3d164" d="M 68.5,18.5 C 69.1276,20.6616 70.461,22.3282 72.5,23.5C 73.1667,23.5 73.5,23.8333 73.5,24.5C 71.5415,34.3703 71.0415,44.3703 72,54.5C 73.0674,55.1905 74.2341,55.6905 75.5,56C 74.782,57.9874 73.782,59.8208 72.5,61.5C 70.1247,61.584 67.7913,61.584 65.5,61.5C 65.5,59.5 65.5,57.5 65.5,55.5C 65.1734,50.7863 65.5067,46.1196 66.5,41.5C 66.8333,42.8333 67.1667,44.1667 67.5,45.5C 68.4979,37.1932 68.8312,28.8599 68.5,20.5C 68.5,19.8333 68.5,19.1667 68.5,18.5 Z"/></g>
<g><path style="opacity:1" fill="#7b6a63" d="M 62.5,25.5 C 60.9756,35.0758 60.3089,44.7424 60.5,54.5C 58.9152,44.697 59.5819,35.0303 62.5,25.5 Z"/></g>
<g><path style="opacity:1" fill="#826f67" d="M 39.5,35.5 C 40.654,41.987 40.8206,48.6536 40,55.5C 39.7679,56.7375 39.2679,57.7375 38.5,58.5C 39.3577,50.8678 39.6911,43.2011 39.5,35.5 Z"/></g>
<g><path style="opacity:1" fill="#59502c" d="M 76.5,31.5 C 78.6847,35.8427 80.1847,40.5094 81,45.5C 83.8511,54.7807 81.0177,61.4473 72.5,65.5C 71.5,64.8333 70.5,64.1667 69.5,63.5C 74.4736,63.701 77.6403,61.3677 79,56.5C 79.6667,52.5 79.6667,48.5 79,44.5C 77.1064,40.4316 76.2731,36.0982 76.5,31.5 Z"/></g>
<g><path style="opacity:1" fill="#6a3f39" d="M 36.5,8.5 C 37.329,15.989 37.829,23.6557 38,31.5C 38.7914,32.745 39.2914,34.0783 39.5,35.5C 39.6911,43.2011 39.3577,50.8678 38.5,58.5C 36.8501,63.4199 33.3501,65.7532 28,65.5C 25.8255,65.1661 23.9921,64.1661 22.5,62.5C 19.8601,58.7276 18.5267,54.5609 18.5,50C 19.864,42.7461 21.5307,35.5794 23.5,28.5C 24.404,29.209 24.7373,30.209 24.5,31.5C 23.9015,35.6546 22.7348,39.6546 21,43.5C 19.1928,50.7621 20.6928,57.0954 25.5,62.5C 27.6365,63.7928 29.6365,63.7928 31.5,62.5C 32.5,61.8333 33.5,61.1667 34.5,60.5C 35.9663,59.653 36.7996,58.3197 37,56.5C 37.8223,48.6554 37.6557,40.9887 36.5,33.5C 35.5166,29.7016 35.1832,25.7016 35.5,21.5C 35.5,18.5 35.5,15.5 35.5,12.5C 33.079,12.1218 30.7457,11.4552 28.5,10.5C 30.6382,10.0617 32.9715,9.89506 35.5,10C 36.056,9.61742 36.3893,9.11742 36.5,8.5 Z"/></g>
<g><path style="opacity:1" fill="#913e3c" d="M 36.5,33.5 C 37.6557,40.9887 37.8223,48.6554 37,56.5C 36.7996,58.3197 35.9663,59.653 34.5,60.5C 36.1616,51.5999 36.8283,42.5999 36.5,33.5 Z"/></g>
<g><path style="opacity:1" fill="#e0c875" d="M 73.5,24.5 C 74.1314,26.9752 75.1314,29.3085 76.5,31.5C 76.2731,36.0982 77.1064,40.4316 79,44.5C 79.6667,48.5 79.6667,52.5 79,56.5C 77.6403,61.3677 74.4736,63.701 69.5,63.5C 67.6203,63.7709 66.287,63.1042 65.5,61.5C 67.7913,61.584 70.1247,61.584 72.5,61.5C 73.782,59.8208 74.782,57.9874 75.5,56C 74.2341,55.6905 73.0674,55.1905 72,54.5C 71.0415,44.3703 71.5415,34.3703 73.5,24.5 Z"/></g>
<g><path style="opacity:1" fill="#866424" d="M 72.5,33.5 C 74.3917,39.2455 74.8917,45.2455 74,51.5C 73.4994,45.4932 72.9994,39.4932 72.5,33.5 Z"/></g>
<g><path style="opacity:1" fill="#e24f52" d="M 33.5,13.5 C 33.5,20.8333 33.5,28.1667 33.5,35.5C 34.973,38.0169 35.6397,40.8502 35.5,44C 35.5014,50.5625 34.1681,56.7292 31.5,62.5C 27.1545,62.1214 24.8212,59.788 24.5,55.5C 23.5,55.5 22.5,55.5 21.5,55.5C 21.335,52.1501 21.5017,48.8168 22,45.5C 22.2004,43.6803 23.0337,42.347 24.5,41.5C 23.9963,45.5066 23.8297,49.5066 24,53.5C 25,53.1667 26,52.8333 27,52.5C 27.4997,44.1733 27.6664,35.84 27.5,27.5C 27.5,26.1667 27.5,24.8333 27.5,23.5C 27.3354,20.4816 27.502,17.4816 28,14.5C 29.4875,12.1695 31.3209,11.8362 33.5,13.5 Z"/></g>
<g><path style="opacity:1" fill="#ea4b43" d="M 33.5,35.5 C 33.1998,40.8175 33.1998,45.9841 33.5,51C 33.2114,53.1045 32.3781,54.9379 31,56.5C 29.3681,48.3311 29.0348,39.9977 30,31.5C 31.5501,32.5908 32.7168,33.9242 33.5,35.5 Z"/></g>
<g><path style="opacity:1" fill="#304f60" d="M 79.5,74.5 C 80.0431,74.56 80.3764,74.8933 80.5,75.5C 78.8726,77.7654 77.5392,80.0987 76.5,82.5C 76.5,80.8333 76.5,79.1667 76.5,77.5C 69.1735,76.7733 61.8401,76.1067 54.5,75.5C 44.7126,72.7003 34.7126,72.2003 24.5,74C 18.4237,76.2092 16.0903,80.3758 17.5,86.5C 17.5,87.1667 17.5,87.8333 17.5,88.5C 16.0337,87.653 15.2004,86.3197 15,84.5C 14.4732,78.314 17.3065,74.1473 23.5,72C 31.8333,71.3333 40.1667,71.3333 48.5,72C 56.6975,73.0954 64.8642,74.262 73,75.5C 75.3608,75.4961 77.5274,75.1627 79.5,74.5 Z"/></g>
<g><path style="opacity:1" fill="#2f95bd" d="M 54.5,75.5 C 44.8027,75.4907 35.136,75.324 25.5,75C 24.1667,75.6667 24.1667,76.3333 25.5,77C 22.818,77.1627 21.1513,78.496 20.5,81C 21.1595,83.4621 21.4928,85.9621 21.5,88.5C 19.9382,88.2671 18.6049,87.6005 17.5,86.5C 16.0903,80.3758 18.4237,76.2092 24.5,74C 34.7126,72.2003 44.7126,72.7003 54.5,75.5 Z"/></g>
<g><path style="opacity:1" fill="#23a0d2" d="M 54.5,75.5 C 61.8401,76.1067 69.1735,76.7733 76.5,77.5C 76.5,79.1667 76.5,80.8333 76.5,82.5C 75.6906,83.4687 74.6906,84.3021 73.5,85C 61.9245,85.7553 50.5912,87.2553 39.5,89.5C 33.4406,89.7461 27.4406,89.4128 21.5,88.5C 21.4928,85.9621 21.1595,83.4621 20.5,81C 21.1513,78.496 22.818,77.1627 25.5,77C 24.1667,76.3333 24.1667,75.6667 25.5,75C 35.136,75.324 44.8027,75.4907 54.5,75.5 Z"/></g>
<g><path style="opacity:1" fill="#0e7199" d="M 27.5,78.5 C 40.868,78.1946 54.2014,78.6946 67.5,80C 52.8387,81.4524 38.172,81.6191 23.5,80.5C 24.9492,79.8281 26.2825,79.1614 27.5,78.5 Z"/></g>
<g><path style="opacity:1" fill="#7a725e" d="M 71.5,87.5 C 72.9187,86.5489 74.5853,86.2155 76.5,86.5C 76.5,85.1667 76.5,83.8333 76.5,82.5C 77.5392,80.0987 78.8726,77.7654 80.5,75.5C 80.3764,74.8933 80.0431,74.56 79.5,74.5C 80.6883,73.6364 81.8549,72.6364 83,71.5C 84.8842,76.0764 84.8842,80.7431 83,85.5C 82.5,86 82,86.5 81.5,87C 78.1832,87.4983 74.8499,87.665 71.5,87.5 Z"/></g>
<g><path style="opacity:1" fill="#365869" d="M 76.5,82.5 C 76.5,83.8333 76.5,85.1667 76.5,86.5C 74.5853,86.2155 72.9187,86.5489 71.5,87.5C 60.7629,88.3709 50.0962,89.8709 39.5,92C 33.3188,92.8192 27.3188,92.6525 21.5,91.5C 20.537,90.6365 20.537,89.9698 21.5,89.5C 27.6292,90.8093 33.6292,90.8093 39.5,89.5C 50.5912,87.2553 61.9245,85.7553 73.5,85C 74.6906,84.3021 75.6906,83.4687 76.5,82.5 Z"/></g>
<g><path style="opacity:1" fill="#2f6f8e" d="M 17.5,86.5 C 18.6049,87.6005 19.9382,88.2671 21.5,88.5C 27.4406,89.4128 33.4406,89.7461 39.5,89.5C 33.6292,90.8093 27.6292,90.8093 21.5,89.5C 20.537,89.9698 20.537,90.6365 21.5,91.5C 19.368,91.4456 18.0347,90.4456 17.5,88.5C 17.5,87.8333 17.5,87.1667 17.5,86.5 Z"/></g>
<g><path style="opacity:1" fill="#673834" d="M 76.5,151.5 C 73.7529,153.025 70.7529,154.025 67.5,154.5C 66.8182,153.757 66.1515,153.091 65.5,152.5C 64.8459,146.19 64.3459,139.857 64,133.5C 59.7326,122.995 59.0659,112.329 62,101.5C 69.3638,95.474 75.5304,96.474 80.5,104.5C 80.8333,107.167 81.1667,109.833 81.5,112.5C 79.4443,125.446 77.7777,138.446 76.5,151.5 Z"/></g>
<g><path style="opacity:1" fill="#f2cd60" d="M 31.5,141.5 C 29.0267,131.076 27.3601,120.409 26.5,109.5C 27.697,106.942 27.0304,104.942 24.5,103.5C 25.3121,102.007 26.6455,101.34 28.5,101.5C 30.8351,102.171 33.0018,103.171 35,104.5C 35.6667,110.833 35.6667,117.167 35,123.5C 34.7547,125.663 33.7547,127.33 32,128.5C 31.501,132.821 31.3343,137.154 31.5,141.5 Z"/></g>
<g><path style="opacity:1" fill="#c85b5c" d="M 73.5,99.5 C 75.7957,101.401 77.629,103.734 79,106.5C 80.2591,115.833 79.2591,124.833 76,133.5C 75.4065,139.175 74.7398,144.842 74,150.5C 71.9592,151.423 69.7925,151.756 67.5,151.5C 67.2275,144.775 66.5608,138.108 65.5,131.5C 66.5,131.5 67.5,131.5 68.5,131.5C 67.88,137.926 68.5467,143.926 70.5,149.5C 71.5,149.5 72.5,149.5 73.5,149.5C 73.9068,143.839 74.2401,138.172 74.5,132.5C 75.1992,124.884 75.8659,117.217 76.5,109.5C 76.4573,108.584 76.1239,107.917 75.5,107.5C 75.9465,104.99 75.2798,102.99 73.5,101.5C 73.5,100.833 73.5,100.167 73.5,99.5 Z"/></g>
<g><path style="opacity:1" fill="#d1b070" d="M 34.5,150.5 C 33.7321,149.737 33.2321,148.737 33,147.5C 32.6667,147.833 32.3333,148.167 32,148.5C 31.5034,146.19 31.3367,143.857 31.5,141.5C 31.3343,137.154 31.501,132.821 32,128.5C 33.7547,127.33 34.7547,125.663 35,123.5C 35.6667,117.167 35.6667,110.833 35,104.5C 33.0018,103.171 30.8351,102.171 28.5,101.5C 26.6455,101.34 25.3121,102.007 24.5,103.5C 23.4543,107.261 22.1209,110.927 20.5,114.5C 19.7659,113.292 19.4326,111.959 19.5,110.5C 20.3568,106.446 22.3568,102.946 25.5,100C 33.8694,99.2017 37.8694,103.035 37.5,111.5C 36.4022,124.649 35.4022,137.649 34.5,150.5 Z"/></g>
<g><path style="opacity:1" fill="#9c3c3e" d="M 69.5,99.5 C 68.2426,100.818 66.9093,102.151 65.5,103.5C 64.502,112.141 64.1686,120.808 64.5,129.5C 63.3427,120.676 63.176,111.676 64,102.5C 65.4877,100.84 67.321,99.84 69.5,99.5 Z"/></g>
<g><path style="opacity:1" fill="#d7975b" d="M 24.5,103.5 C 27.0304,104.942 27.697,106.942 26.5,109.5C 27.3601,120.409 29.0267,131.076 31.5,141.5C 31.3367,143.857 31.5034,146.19 32,148.5C 32.3333,148.167 32.6667,147.833 33,147.5C 33.2321,148.737 33.7321,149.737 34.5,150.5C 34.5,150.833 34.5,151.167 34.5,151.5C 32.5648,152.15 30.5648,152.483 28.5,152.5C 28.5,151.5 28.5,150.5 28.5,149.5C 27.1153,139.604 26.2819,129.604 26,119.5C 25.6667,120.833 25.3333,122.167 25,123.5C 23.9681,121.973 22.8014,120.64 21.5,119.5C 20.5489,118.081 20.2155,116.415 20.5,114.5C 22.1209,110.927 23.4543,107.261 24.5,103.5 Z"/></g>
<g><path style="opacity:1" fill="#932823" d="M 75.5,107.5 C 76.1239,107.917 76.4573,108.584 76.5,109.5C 75.8659,117.217 75.1992,124.884 74.5,132.5C 73.8343,128.514 73.501,124.347 73.5,120C 73.5085,115.443 74.1752,111.276 75.5,107.5 Z"/></g>
<g><path style="opacity:1" fill="#d14c50" d="M 69.5,99.5 C 70.8333,99.5 72.1667,99.5 73.5,99.5C 73.5,100.167 73.5,100.833 73.5,101.5C 70.7374,101.744 68.5707,103.077 67,105.5C 65.3382,113.558 65.6715,121.558 68,129.5C 68.3333,127.833 68.6667,126.167 69,124.5C 69.9744,132.807 70.4744,141.141 70.5,149.5C 68.5467,143.926 67.88,137.926 68.5,131.5C 67.5,131.5 66.5,131.5 65.5,131.5C 65.6716,130.508 65.3382,129.842 64.5,129.5C 64.1686,120.808 64.502,112.141 65.5,103.5C 66.9093,102.151 68.2426,100.818 69.5,99.5 Z"/></g>
<g><path style="opacity:1" fill="#e54e4f" d="M 73.5,101.5 C 75.2798,102.99 75.9465,104.99 75.5,107.5C 74.1752,111.276 73.5085,115.443 73.5,120C 73.501,124.347 73.8343,128.514 74.5,132.5C 74.2401,138.172 73.9068,143.839 73.5,149.5C 72.5,149.5 71.5,149.5 70.5,149.5C 70.4744,141.141 69.9744,132.807 69,124.5C 68.6667,126.167 68.3333,127.833 68,129.5C 65.6715,121.558 65.3382,113.558 67,105.5C 68.5707,103.077 70.7374,101.744 73.5,101.5 Z"/></g>
<g><path style="opacity:1" fill="#69483f" d="M 18.5,109.5 C 19.1667,109.5 19.5,109.833 19.5,110.5C 19.4326,111.959 19.7659,113.292 20.5,114.5C 20.2155,116.415 20.5489,118.081 21.5,119.5C 24.107,129.553 26.4403,139.553 28.5,149.5C 28.5,150.5 28.5,151.5 28.5,152.5C 30.5648,152.483 32.5648,152.15 34.5,151.5C 34.2786,152.735 33.6119,153.735 32.5,154.5C 33.2427,155.182 33.9094,155.849 34.5,156.5C 34.0472,157.458 33.3805,158.292 32.5,159C 30.3018,159.373 28.1351,159.873 26,160.5C 25.5,160.167 25,159.833 24.5,159.5C 26.5248,155.069 27.0248,150.402 26,145.5C 22.758,133.62 20.258,121.62 18.5,109.5 Z"/></g>
<g><path style="opacity:1" fill="#b98161" d="M 21.5,119.5 C 22.8014,120.64 23.9681,121.973 25,123.5C 25.3333,122.167 25.6667,120.833 26,119.5C 26.2819,129.604 27.1153,139.604 28.5,149.5C 26.4403,139.553 24.107,129.553 21.5,119.5 Z"/></g>
<g><path style="opacity:1" fill="#67553a" d="M 38.5,138.5 C 37.6951,144.016 37.0284,149.682 36.5,155.5C 36.1583,156.338 35.4916,156.672 34.5,156.5C 33.9094,155.849 33.2427,155.182 32.5,154.5C 33.6119,153.735 34.2786,152.735 34.5,151.5C 34.5,151.167 34.5,150.833 34.5,150.5C 35.4022,137.649 36.4022,124.649 37.5,111.5C 37.8694,103.035 33.8694,99.2017 25.5,100C 22.3568,102.946 20.3568,106.446 19.5,110.5C 19.5,109.833 19.1667,109.5 18.5,109.5C 21.2906,96.5153 27.7906,94.182 38,102.5C 39.1161,107.558 39.6161,112.725 39.5,118C 39.3267,124.847 38.9934,131.681 38.5,138.5 Z"/></g>
<g><path style="opacity:1" fill="#c3bdae" d="M 38.5,138.5 C 38.6659,143.511 38.4993,148.511 38,153.5C 37.7216,154.416 37.2216,155.082 36.5,155.5C 37.0284,149.682 37.6951,144.016 38.5,138.5 Z"/></g>
<g><path style="opacity:1" fill="#4c524e" d="M 76.5,151.5 C 76.9856,154.711 77.9856,157.711 79.5,160.5C 72.2861,161.902 67.6194,159.236 65.5,152.5C 66.1515,153.091 66.8182,153.757 67.5,154.5C 70.7529,154.025 73.7529,153.025 76.5,151.5 Z"/></g>
</svg>
