<?xml version="1.0" encoding="UTF-8"?>
<!DOCTYPE svg PUBLIC "-//W3C//DTD SVG 1.1//EN" "http://www.w3.org/Graphics/SVG/1.1/DTD/svg11.dtd">
<svg xmlns="http://www.w3.org/2000/svg" version="1.1" width="100px" height="165px" style="shape-rendering:geometricPrecision; text-rendering:geometricPrecision; image-rendering:optimizeQuality; fill-rule:evenodd; clip-rule:evenodd" xmlns:xlink="http://www.w3.org/1999/xlink">
<g><path style="opacity:1" fill="#fafaf9" d="M -0.5,-0.5 C 32.8333,-0.5 66.1667,-0.5 99.5,-0.5C 99.5,54.5 99.5,109.5 99.5,164.5C 66.1667,164.5 32.8333,164.5 -0.5,164.5C -0.5,109.5 -0.5,54.5 -0.5,-0.5 Z"/></g>
<g><path style="opacity:1" fill="#865d60" d="M 31.5,5.5 C 31.5,5.83333 31.5,6.16667 31.5,6.5C 27.6603,5.66485 23.9937,5.66485 20.5,6.5C 18.8008,6.33982 17.1341,6.50649 15.5,7C 15.3265,8.90945 14.9932,10.7428 14.5,12.5C 11.3582,8.76026 12.0249,5.92692 16.5,4C 21.6679,3.18344 26.6679,3.68344 31.5,5.5 Z"/></g>
<g><path style="opacity:1" fill="#8a584f" d="M 80.5,21.5 C 79.8333,21.1667 79.1667,20.8333 78.5,20.5C 78.8858,12.9371 77.8858,12.6038 75.5,19.5C 75.7852,17.712 75.4519,16.0453 74.5,14.5C 73.8933,14.6236 73.56,14.9569 73.5,15.5C 71.9902,14.2721 70.4902,14.2721 69,15.5C 68.3333,14.8333 67.6667,14.1667 67,13.5C 66.2782,16.2605 66.4448,18.9272 67.5,21.5C 66.8333,21.5 66.1667,21.5 65.5,21.5C 65.7845,19.5853 65.4511,17.9187 64.5,16.5C 63.7976,13.4222 62.7976,10.4222 61.5,7.5C 62.4228,5.36431 64.0895,4.19764 66.5,4C 72.0642,2.99 77.3975,3.65666 82.5,6C 83.323,8.92493 82.823,11.7583 81,14.5C 80.5034,16.8098 80.3367,19.1432 80.5,21.5 Z"/></g>
<g><path style="opacity:1" fill="#d05759" d="M 69.5,5.5 C 72.7281,5.29945 75.8948,5.63278 79,6.5C 80.3012,7.09809 81.1345,8.09809 81.5,9.5C 78.1374,12.6724 74.1374,13.8391 69.5,13C 66.9142,10.506 66.9142,8.00603 69.5,5.5 Z"/></g>
<g><path style="opacity:1" fill="#9c483a" d="M 31.5,6.5 C 34.0531,8.70452 34.0531,11.0379 31.5,13.5C 31.1667,13.5 30.8333,13.5 30.5,13.5C 26.8333,13.5 23.1667,13.5 19.5,13.5C 17.8749,10.7844 18.2082,8.45107 20.5,6.5C 23.9937,5.66485 27.6603,5.66485 31.5,6.5 Z"/></g>
<g><path style="opacity:1" fill="#db594e" d="M 21.5,7.5 C 24.5184,7.33537 27.5184,7.50204 30.5,8C 31.8333,9.33333 31.8333,10.6667 30.5,12C 27.5,12.6667 24.5,12.6667 21.5,12C 20.2721,10.5098 20.2721,9.00978 21.5,7.5 Z"/></g>
<g><path style="opacity:1" fill="#713e31" d="M 20.5,6.5 C 18.2082,8.45107 17.8749,10.7844 19.5,13.5C 18.791,14.404 17.791,14.7373 16.5,14.5C 16.7373,15.791 16.404,16.791 15.5,17.5C 15.3713,15.7839 15.038,14.1172 14.5,12.5C 14.9932,10.7428 15.3265,8.90945 15.5,7C 17.1341,6.50649 18.8008,6.33982 20.5,6.5 Z"/></g>
<g><path style="opacity:1" fill="#e7e4d5" d="M 31.5,6.5 C 31.5,6.16667 31.5,5.83333 31.5,5.5C 36.7324,5.10119 39.3991,7.43452 39.5,12.5C 38.448,12.3505 37.448,12.5172 36.5,13C 35.7511,14.7337 35.2511,16.567 35,18.5C 33.9326,19.1905 32.7659,19.6905 31.5,20C 32.756,20.4169 33.4226,21.2502 33.5,22.5C 32.209,22.7373 31.209,22.404 30.5,21.5C 30.8333,18.8333 31.1667,16.1667 31.5,13.5C 34.0531,11.0379 34.0531,8.70452 31.5,6.5 Z"/></g>
<g><path style="opacity:1" fill="#a88258" d="M 19.5,13.5 C 23.1667,13.5 26.8333,13.5 30.5,13.5C 30.357,16.3852 29.357,18.7185 27.5,20.5C 27.1667,18.5 26.8333,16.5 26.5,14.5C 25.5,14.5 24.5,14.5 23.5,14.5C 23.6882,16.1033 23.1882,17.4366 22,18.5C 21,17.5 20,16.5 19,15.5C 18.51,16.7932 18.3433,18.1266 18.5,19.5C 17.8333,19.1667 17.1667,18.8333 16.5,18.5C 15.8333,18.5 15.5,18.1667 15.5,17.5C 16.404,16.791 16.7373,15.791 16.5,14.5C 17.791,14.7373 18.791,14.404 19.5,13.5 Z"/></g>
<g><path style="opacity:1" fill="#d8c179" d="M 27.5,20.5 C 24.2222,22.0061 21.2222,21.6727 18.5,19.5C 18.3433,18.1266 18.51,16.7932 19,15.5C 20,16.5 21,17.5 22,18.5C 23.1882,17.4366 23.6882,16.1033 23.5,14.5C 24.5,14.5 25.5,14.5 26.5,14.5C 26.8333,16.5 27.1667,18.5 27.5,20.5 Z"/></g>
<g><path style="opacity:1" fill="#c8b587" d="M 73.5,15.5 C 72.0813,16.4511 70.4147,16.7845 68.5,16.5C 68.5,17.5 68.5,18.5 68.5,19.5C 71.0048,20.4171 73.3382,20.4171 75.5,19.5C 77.8858,12.6038 78.8858,12.9371 78.5,20.5C 75.0381,21.4816 71.3714,21.815 67.5,21.5C 66.4448,18.9272 66.2782,16.2605 67,13.5C 67.6667,14.1667 68.3333,14.8333 69,15.5C 70.4902,14.2721 71.9902,14.2721 73.5,15.5 Z"/></g>
<g><path style="opacity:1" fill="#e4c56a" d="M 75.5,19.5 C 73.3382,20.4171 71.0048,20.4171 68.5,19.5C 68.5,18.5 68.5,17.5 68.5,16.5C 70.4147,16.7845 72.0813,16.4511 73.5,15.5C 73.56,14.9569 73.8933,14.6236 74.5,14.5C 75.4519,16.0453 75.7852,17.712 75.5,19.5 Z"/></g>
<g><path style="opacity:1" fill="#74715d" d="M 30.5,13.5 C 30.8333,13.5 31.1667,13.5 31.5,13.5C 31.1667,16.1667 30.8333,18.8333 30.5,21.5C 25.5141,22.7694 20.5141,22.7694 15.5,21.5C 16.1098,20.609 16.4431,19.609 16.5,18.5C 17.1667,18.8333 17.8333,19.1667 18.5,19.5C 21.2222,21.6727 24.2222,22.0061 27.5,20.5C 29.357,18.7185 30.357,16.3852 30.5,13.5 Z"/></g>
<g><path style="opacity:1" fill="#608692" d="M 64.5,16.5 C 65.4511,17.9187 65.7845,19.5853 65.5,21.5C 64.1463,24.784 64.4796,27.784 66.5,30.5C 65.7261,31.7112 64.8928,31.7112 64,30.5C 63.5291,28.7536 62.8624,27.087 62,25.5C 61.5172,26.448 61.3505,27.448 61.5,28.5C 60.8761,28.0831 60.5427,27.4164 60.5,26.5C 62.6062,23.4585 63.9395,20.1252 64.5,16.5 Z"/></g>
<g><path style="opacity:1" fill="#385c6f" d="M 78.5,20.5 C 79.1667,20.8333 79.8333,21.1667 80.5,21.5C 80.9975,25.2194 80.1642,28.5527 78,31.5C 78.2839,28.591 78.1172,25.7577 77.5,23C 74.1667,23.6667 70.8333,23.6667 67.5,23C 66.9415,23.7247 66.6082,24.5581 66.5,25.5C 67.4669,27.7617 68.1336,30.095 68.5,32.5C 72.439,33.3276 76.439,32.9943 80.5,31.5C 83.864,28.9151 84.1973,26.0818 81.5,23C 82.0944,22.5357 82.7611,22.369 83.5,22.5C 84.5366,24.7375 84.7033,27.0709 84,29.5C 81.9002,32.431 79.4002,34.7644 76.5,36.5C 73.8561,38.0342 71.5228,37.7009 69.5,35.5C 65.6563,34.665 62.9897,32.3317 61.5,28.5C 61.3505,27.448 61.5172,26.448 62,25.5C 62.8624,27.087 63.5291,28.7536 64,30.5C 64.8928,31.7112 65.7261,31.7112 66.5,30.5C 64.4796,27.784 64.1463,24.784 65.5,21.5C 66.1667,21.5 66.8333,21.5 67.5,21.5C 71.3714,21.815 75.0381,21.4816 78.5,20.5 Z"/></g>
<g><path style="opacity:1" fill="#2e586d" d="M 15.5,21.5 C 20.5141,22.7694 25.5141,22.7694 30.5,21.5C 31.209,22.404 32.209,22.7373 33.5,22.5C 36.4439,26.7833 35.7772,30.45 31.5,33.5C 30.9569,33.44 30.6236,33.1067 30.5,32.5C 33.6854,29.6767 34.0187,26.6767 31.5,23.5C 31.1203,25.0207 30.9536,26.6874 31,28.5C 30.2825,29.4506 29.4491,29.6172 28.5,29C 29.4061,27.3005 29.7394,25.4672 29.5,23.5C 26.8333,23.5 24.1667,23.5 21.5,23.5C 21.0833,26.0792 21.75,28.2458 23.5,30C 22.3325,31.7844 21.3325,31.7844 20.5,30C 20.0216,27.7744 19.355,25.6077 18.5,23.5C 17.7284,26.1347 17.5618,28.8014 18,31.5C 15.9539,29.2998 14.9539,26.6331 15,23.5C 13.018,27.5772 14.018,30.9106 18,33.5C 21.1171,32.7172 24.6171,32.8838 28.5,34C 27.944,34.3826 27.6107,34.8826 27.5,35.5C 26.8333,35.5 26.5,35.8333 26.5,36.5C 24.7973,37.6602 24.1307,36.9935 24.5,34.5C 23.5,34.5 22.5,34.5 21.5,34.5C 21.6332,37.925 20.9665,38.2583 19.5,35.5C 14.3215,33.5139 11.8215,29.8473 12,24.5C 13.1451,23.3636 14.3117,22.3636 15.5,21.5 Z"/></g>
<g><path style="opacity:1" fill="#4889a6" d="M 31.5,33.5 C 30.4863,34.6737 29.153,35.3404 27.5,35.5C 27.6107,34.8826 27.944,34.3826 28.5,34C 24.6171,32.8838 21.1171,32.7172 18,33.5C 14.018,30.9106 13.018,27.5772 15,23.5C 14.9539,26.6331 15.9539,29.2998 18,31.5C 17.5618,28.8014 17.7284,26.1347 18.5,23.5C 19.355,25.6077 20.0216,27.7744 20.5,30C 21.3325,31.7844 22.3325,31.7844 23.5,30C 21.75,28.2458 21.0833,26.0792 21.5,23.5C 24.1667,23.5 26.8333,23.5 29.5,23.5C 29.7394,25.4672 29.4061,27.3005 28.5,29C 29.4491,29.6172 30.2825,29.4506 31,28.5C 30.9536,26.6874 31.1203,25.0207 31.5,23.5C 34.0187,26.6767 33.6854,29.6767 30.5,32.5C 30.6236,33.1067 30.9569,33.44 31.5,33.5 Z"/></g>
<g><path style="opacity:1" fill="#3c87ab" d="M 80.5,21.5 C 81.791,21.2627 82.791,21.596 83.5,22.5C 82.7611,22.369 82.0944,22.5357 81.5,23C 84.1973,26.0818 83.864,28.9151 80.5,31.5C 76.439,32.9943 72.439,33.3276 68.5,32.5C 68.1336,30.095 67.4669,27.7617 66.5,25.5C 66.6082,24.5581 66.9415,23.7247 67.5,23C 70.8333,23.6667 74.1667,23.6667 77.5,23C 78.1172,25.7577 78.2839,28.591 78,31.5C 80.1642,28.5527 80.9975,25.2194 80.5,21.5 Z"/></g>
<g><path style="opacity:1" fill="#8f766b" d="M 69.5,35.5 C 71.5228,37.7009 73.8561,38.0342 76.5,36.5C 78.4818,39.1367 81.1485,40.47 84.5,40.5C 84.5,43.1667 84.5,45.8333 84.5,48.5C 76.9809,48.825 69.6476,48.4916 62.5,47.5C 61.5386,45.7354 61.2053,43.7354 61.5,41.5C 64.5406,39.9817 67.2072,37.9817 69.5,35.5 Z"/></g>
<g><path style="opacity:1" fill="#914637" d="M 79.5,44.5 C 77.2655,44.3801 75.0989,44.7135 73,45.5C 70.9534,44.3906 68.7867,43.7239 66.5,43.5C 66.5,43.1667 66.5,42.8333 66.5,42.5C 68.6623,41.1428 70.829,40.8095 73,41.5C 73.9454,41.0946 74.6121,40.428 75,39.5C 76.7448,40.9557 78.5781,42.289 80.5,43.5C 80.3764,44.1067 80.0431,44.44 79.5,44.5 Z"/></g>
<g><path style="opacity:1" fill="#bf6069" d="M 66.5,43.5 C 68.7867,43.7239 70.9534,44.3906 73,45.5C 75.0989,44.7135 77.2655,44.3801 79.5,44.5C 80.9526,45.8249 80.6192,46.6582 78.5,47C 74.8484,47.4986 71.1817,47.6653 67.5,47.5C 65.8624,46.2954 65.5291,44.9621 66.5,43.5 Z"/></g>
<g><path style="opacity:1" fill="#6a3f43" d="M 66.5,42.5 C 66.5,42.8333 66.5,43.1667 66.5,43.5C 65.5291,44.9621 65.8624,46.2954 67.5,47.5C 65.8333,47.5 64.1667,47.5 62.5,47.5C 62.5,45.8333 62.5,44.1667 62.5,42.5C 63.8333,42.5 65.1667,42.5 66.5,42.5 Z"/></g>
<g><path style="opacity:1" fill="#7c655b" d="M 26.5,36.5 C 29.0837,38.4748 31.7503,40.4748 34.5,42.5C 35.767,44.3707 35.767,46.2041 34.5,48C 27.1742,48.4997 19.8409,48.6663 12.5,48.5C 12.5,46.1667 12.5,43.8333 12.5,41.5C 14.433,41.2714 16.0997,40.4381 17.5,39C 18.8228,38.1841 19.4894,37.0174 19.5,35.5C 20.9665,38.2583 21.6332,37.925 21.5,34.5C 22.5,34.5 23.5,34.5 24.5,34.5C 24.1307,36.9935 24.7973,37.6602 26.5,36.5 Z"/></g>
<g><path style="opacity:1" fill="#bd5b5b" d="M 18.5,42.5 C 17.4476,44.6551 18.1143,44.9884 20.5,43.5C 23.8304,44.0938 27.1637,44.7604 30.5,45.5C 25.544,46.4941 20.544,46.8275 15.5,46.5C 15.5544,44.368 16.5544,43.0347 18.5,42.5 Z"/></g>
<g><path style="opacity:1" fill="#8c443e" d="M 15.5,46.5 C 20.544,46.8275 25.544,46.4941 30.5,45.5C 27.1637,44.7604 23.8304,44.0938 20.5,43.5C 18.1143,44.9884 17.4476,44.6551 18.5,42.5C 21.7281,42.7006 24.8948,42.3672 28,41.5C 29.5589,42.0294 31.0589,42.696 32.5,43.5C 33.8333,44.5 33.8333,45.5 32.5,46.5C 26.7039,47.8078 21.0373,47.8078 15.5,46.5 Z"/></g>
<g><path style="opacity:1" fill="#966666" d="M 55.5,68.5 C 55.5,68.1667 55.5,67.8333 55.5,67.5C 55.8432,65.5168 55.1765,64.1834 53.5,63.5C 51.8825,62.0277 49.8825,61.361 47.5,61.5C 44.1833,62.0531 40.85,62.3865 37.5,62.5C 37.3653,64.5542 38.032,66.2209 39.5,67.5C 38.6618,67.8417 38.3284,68.5084 38.5,69.5C 36.0184,67.8983 35.185,65.5649 36,62.5C 38.8677,60.8165 42.0344,59.8165 45.5,59.5C 48.4748,60.1393 51.4748,60.6393 54.5,61C 58.1211,63.1797 58.4544,65.6797 55.5,68.5 Z"/></g>
<g><path style="opacity:1" fill="#823235" d="M 53.5,63.5 C 50.1667,63.5 46.8333,63.5 43.5,63.5C 42.0256,64.4363 41.0256,65.7697 40.5,67.5C 40.1667,67.5 39.8333,67.5 39.5,67.5C 38.032,66.2209 37.3653,64.5542 37.5,62.5C 40.85,62.3865 44.1833,62.0531 47.5,61.5C 49.8825,61.361 51.8825,62.0277 53.5,63.5 Z"/></g>
<g><path style="opacity:1" fill="#a74c39" d="M 43.5,63.5 C 43.5,64.8333 43.5,66.1667 43.5,67.5C 47.8513,69.4342 51.518,68.6009 54.5,65C 53.944,64.6174 53.6107,64.1174 53.5,63.5C 55.1765,64.1834 55.8432,65.5168 55.5,67.5C 54.5,68.1667 53.5,68.8333 52.5,69.5C 52.1667,69.5 51.8333,69.5 51.5,69.5C 47.4975,69.9643 43.8309,69.2976 40.5,67.5C 41.0256,65.7697 42.0256,64.4363 43.5,63.5 Z"/></g>
<g><path style="opacity:1" fill="#e7595a" d="M 43.5,63.5 C 46.8333,63.5 50.1667,63.5 53.5,63.5C 53.6107,64.1174 53.944,64.6174 54.5,65C 51.518,68.6009 47.8513,69.4342 43.5,67.5C 43.5,66.1667 43.5,64.8333 43.5,63.5 Z"/></g>
<g><path style="opacity:1" fill="#c19f6d" d="M 49.5,71.5 C 45.2094,70.8197 42.5427,72.4864 41.5,76.5C 40.5386,74.7354 40.2053,72.7354 40.5,70.5C 43.7131,70.19 46.7131,70.5233 49.5,71.5 Z"/></g>
<g><path style="opacity:1" fill="#77573b" d="M 39.5,67.5 C 39.8333,67.5 40.1667,67.5 40.5,67.5C 43.8309,69.2976 47.4975,69.9643 51.5,69.5C 51.1249,71.6976 50.4582,73.6976 49.5,75.5C 49.5,74.1667 49.5,72.8333 49.5,71.5C 46.7131,70.5233 43.7131,70.19 40.5,70.5C 40.2053,72.7354 40.5386,74.7354 41.5,76.5C 41.5,76.8333 41.5,77.1667 41.5,77.5C 40.8333,77.5 40.1667,77.5 39.5,77.5C 39.4249,74.7938 39.0916,72.1272 38.5,69.5C 38.3284,68.5084 38.6618,67.8417 39.5,67.5 Z"/></g>
<g><path style="opacity:1" fill="#655c44" d="M 55.5,67.5 C 55.5,67.8333 55.5,68.1667 55.5,68.5C 54.8413,71.4552 54.5079,74.4552 54.5,77.5C 53.8333,77.1667 53.1667,76.8333 52.5,76.5C 52.5,74.1667 52.5,71.8333 52.5,69.5C 53.5,68.8333 54.5,68.1667 55.5,67.5 Z"/></g>
<g><path style="opacity:1" fill="#e9cc79" d="M 49.5,71.5 C 49.5,72.8333 49.5,74.1667 49.5,75.5C 47.0521,76.4731 44.3854,76.8064 41.5,76.5C 42.5427,72.4864 45.2094,70.8197 49.5,71.5 Z"/></g>
<g><path style="opacity:1" fill="#bdb386" d="M 51.5,69.5 C 51.8333,69.5 52.1667,69.5 52.5,69.5C 52.5,71.8333 52.5,74.1667 52.5,76.5C 52.5,76.8333 52.5,77.1667 52.5,77.5C 48.8333,77.5 45.1667,77.5 41.5,77.5C 41.5,77.1667 41.5,76.8333 41.5,76.5C 44.3854,76.8064 47.0521,76.4731 49.5,75.5C 50.4582,73.6976 51.1249,71.6976 51.5,69.5 Z"/></g>
<g><path style="opacity:1" fill="#4e5d52" d="M 41.5,78.5 C 41.5,78.1667 41.5,77.8333 41.5,77.5C 45.1667,77.5 48.8333,77.5 52.5,77.5C 52.5,77.8333 52.5,78.1667 52.5,78.5C 51.209,78.2627 50.209,78.596 49.5,79.5C 48.8333,79.5 48.1667,79.5 47.5,79.5C 45.4352,79.4828 43.4352,79.1495 41.5,78.5 Z"/></g>
<g><path style="opacity:1" fill="#60adc9" d="M 52.5,78.5 C 52.8364,82.1669 52.003,85.5002 50,88.5C 49.502,85.5184 49.3354,82.5184 49.5,79.5C 50.209,78.596 51.209,78.2627 52.5,78.5 Z"/></g>
<g><path style="opacity:1" fill="#3b87ad" d="M 41.5,78.5 C 43.4352,79.1495 45.4352,79.4828 47.5,79.5C 48.9015,82.877 48.7348,86.2103 47,89.5C 45.9887,88.6634 44.8221,88.33 43.5,88.5C 42.4892,86.4939 41.4892,84.4939 40.5,82.5C 40.8457,81.1508 41.179,79.8175 41.5,78.5 Z"/></g>
<g><path style="opacity:1" fill="#476986" d="M 39.5,77.5 C 40.1667,77.5 40.8333,77.5 41.5,77.5C 41.5,77.8333 41.5,78.1667 41.5,78.5C 41.179,79.8175 40.8457,81.1508 40.5,82.5C 41.4892,84.4939 42.4892,86.4939 43.5,88.5C 43.1667,89.1667 42.8333,89.8333 42.5,90.5C 36.5491,89.1944 34.3824,85.5277 36,79.5C 36.8159,78.1772 37.9826,77.5106 39.5,77.5 Z"/></g>
<g><path style="opacity:1" fill="#395963" d="M 52.5,76.5 C 53.1667,76.8333 53.8333,77.1667 54.5,77.5C 59.1159,80.1666 59.7826,83.8333 56.5,88.5C 54.8208,89.782 52.9874,90.782 51,91.5C 50.3083,92.4368 50.475,93.1034 51.5,93.5C 49.7921,93.6227 47.9588,93.9561 46,94.5C 45.1482,93.4293 44.3149,92.4293 43.5,91.5C 43.5,90.8333 43.1667,90.5 42.5,90.5C 42.8333,89.8333 43.1667,89.1667 43.5,88.5C 44.8221,88.33 45.9887,88.6634 47,89.5C 48.7348,86.2103 48.9015,82.877 47.5,79.5C 48.1667,79.5 48.8333,79.5 49.5,79.5C 49.3354,82.5184 49.502,85.5184 50,88.5C 52.003,85.5002 52.8364,82.1669 52.5,78.5C 52.5,78.1667 52.5,77.8333 52.5,77.5C 52.5,77.1667 52.5,76.8333 52.5,76.5 Z"/></g>
<g><path style="opacity:1" fill="#699daf" d="M 55.5,80.5 C 57.1448,84.2031 56.1448,87.2031 52.5,89.5C 52.1667,89.3333 51.8333,89.1667 51.5,89C 53.7823,86.6026 55.1156,83.7693 55.5,80.5 Z"/></g>
<g><path style="opacity:1" fill="#8f7263" d="M 43.5,91.5 C 44.3149,92.4293 45.1482,93.4293 46,94.5C 47.9588,93.9561 49.7921,93.6227 51.5,93.5C 53.2825,94.1135 54.6159,95.2802 55.5,97C 56.448,97.4828 57.448,97.6495 58.5,97.5C 58.5,98.5 58.5,99.5 58.5,100.5C 55.5917,99.3083 52.5917,98.3083 49.5,97.5C 46.91,99.3803 45.41,98.7136 45,95.5C 43.6284,98.1257 41.795,98.7924 39.5,97.5C 40.8333,95.5 42.1667,93.5 43.5,91.5 Z"/></g>
<g><path style="opacity:1" fill="#8b4943" d="M 58.5,100.5 C 58.5,101.5 58.5,102.5 58.5,103.5C 56.5,103.5 54.5,103.5 52.5,103.5C 52.5,102.5 52.5,101.5 52.5,100.5C 48.1161,100.174 43.7828,100.508 39.5,101.5C 39.8627,102.183 40.1961,102.85 40.5,103.5C 39.1667,103.5 37.8333,103.5 36.5,103.5C 36.5,101.5 36.5,99.5 36.5,97.5C 37.5,97.5 38.5,97.5 39.5,97.5C 41.795,98.7924 43.6284,98.1257 45,95.5C 45.41,98.7136 46.91,99.3803 49.5,97.5C 52.5917,98.3083 55.5917,99.3083 58.5,100.5 Z"/></g>
<g><path style="opacity:1" fill="#ad8885" d="M 36.5,97.5 C 36.5,99.5 36.5,101.5 36.5,103.5C 37.8333,103.5 39.1667,103.5 40.5,103.5C 44.5,103.5 48.5,103.5 52.5,103.5C 54.5,103.5 56.5,103.5 58.5,103.5C 58.5,102.5 58.5,101.5 58.5,100.5C 59.4345,101.568 59.7678,102.901 59.5,104.5C 51.5,104.5 43.5,104.5 35.5,104.5C 35.1984,101.941 35.5318,99.6074 36.5,97.5 Z"/></g>
<g><path style="opacity:1" fill="#c15a5e" d="M 52.5,103.5 C 48.5,103.5 44.5,103.5 40.5,103.5C 40.1961,102.85 39.8627,102.183 39.5,101.5C 43.7828,100.508 48.1161,100.174 52.5,100.5C 52.5,101.5 52.5,102.5 52.5,103.5 Z"/></g>
<g><path style="opacity:1" fill="#8b6769" d="M 76.5,115.5 C 73.1501,115.335 69.8168,115.502 66.5,116C 68.1667,116.333 69.8333,116.667 71.5,117C 68.854,117.497 66.1873,117.664 63.5,117.5C 63.3433,118.873 63.51,120.207 64,121.5C 65.417,122.078 66.2504,123.078 66.5,124.5C 65.1667,124.5 64.5,125.167 64.5,126.5C 59.3106,121.928 59.6439,118.094 65.5,115C 69.3575,114.19 73.0242,114.357 76.5,115.5 Z"/></g>
<g><path style="opacity:1" fill="#813b38" d="M 76.5,115.5 C 82.874,116.292 84.2073,119.292 80.5,124.5C 80.5,123.833 80.1667,123.5 79.5,123.5C 81.0952,119.09 79.4286,117.423 74.5,118.5C 69.2882,117.708 67.2882,119.708 68.5,124.5C 67.8333,124.5 67.1667,124.5 66.5,124.5C 66.2504,123.078 65.417,122.078 64,121.5C 63.51,120.207 63.3433,118.873 63.5,117.5C 66.1873,117.664 68.854,117.497 71.5,117C 69.8333,116.667 68.1667,116.333 66.5,116C 69.8168,115.502 73.1501,115.335 76.5,115.5 Z"/></g>
<g><path style="opacity:1" fill="#d7584f" d="M 79.5,123.5 C 76.0381,124.482 72.3714,124.815 68.5,124.5C 67.2882,119.708 69.2882,117.708 74.5,118.5C 79.4286,117.423 81.0952,119.09 79.5,123.5 Z"/></g>
<g><path style="opacity:1" fill="#9c4435" d="M 31.5,124.5 C 29.2188,124.077 27.5521,124.744 26.5,126.5C 25.8897,128.85 25.5563,128.517 25.5,125.5C 24.1667,125.5 22.8333,125.5 21.5,125.5C 21.6567,126.873 21.49,128.207 21,129.5C 20.8019,127.618 20.3019,125.952 19.5,124.5C 17.4833,122.783 17.15,120.783 18.5,118.5C 22.8182,117.46 27.1515,117.46 31.5,118.5C 31.5,120.5 31.5,122.5 31.5,124.5 Z"/></g>
<g><path style="opacity:1" fill="#864f4b" d="M 31.5,124.5 C 31.5,122.5 31.5,120.5 31.5,118.5C 27.1515,117.46 22.8182,117.46 18.5,118.5C 17.15,120.783 17.4833,122.783 19.5,124.5C 18.4324,125.434 17.099,125.768 15.5,125.5C 15.1667,122.833 14.8333,122.833 14.5,125.5C 12.2445,123.312 11.4112,120.646 12,117.5C 18.4218,115.196 24.9218,115.029 31.5,117C 34.0673,119.539 34.0673,122.039 31.5,124.5 Z"/></g>
<g><path style="opacity:1" fill="#e75957" d="M 21.5,118.5 C 24.5176,118.704 27.5176,119.037 30.5,119.5C 30.5,120.833 30.5,122.167 30.5,123.5C 27.1016,123.82 23.7683,123.487 20.5,122.5C 19.2113,120.781 19.5446,119.447 21.5,118.5 Z"/></g>
<g><path style="opacity:1" fill="#d4b87e" d="M 19.5,124.5 C 20.3019,125.952 20.8019,127.618 21,129.5C 21.49,128.207 21.6567,126.873 21.5,125.5C 22.8333,125.5 24.1667,125.5 25.5,125.5C 25.5563,128.517 25.8897,128.85 26.5,126.5C 28.3079,127.918 28.9746,129.918 28.5,132.5C 25.5,132.5 22.5,132.5 19.5,132.5C 18.5,132.5 17.5,132.5 16.5,132.5C 16.552,130.097 16.2186,127.764 15.5,125.5C 17.099,125.768 18.4324,125.434 19.5,124.5 Z"/></g>
<g><path style="opacity:1" fill="#6f6455" d="M 31.5,124.5 C 30.7347,127.096 30.4013,129.763 30.5,132.5C 29.5,133.167 28.5,133.833 27.5,134.5C 26.8333,134.5 26.1667,134.5 25.5,134.5C 23.5,133.833 21.5,133.167 19.5,132.5C 22.5,132.5 25.5,132.5 28.5,132.5C 28.9746,129.918 28.3079,127.918 26.5,126.5C 27.5521,124.744 29.2188,124.077 31.5,124.5 Z"/></g>
<g><path style="opacity:1" fill="#72664e" d="M 79.5,123.5 C 80.1667,123.5 80.5,123.833 80.5,124.5C 80.4249,127.206 80.0916,129.873 79.5,132.5C 74.5947,133.445 69.5947,133.779 64.5,133.5C 64.5,133.167 64.5,132.833 64.5,132.5C 64.5,130.5 64.5,128.5 64.5,126.5C 64.5,125.167 65.1667,124.5 66.5,124.5C 67.1667,124.5 67.8333,124.5 68.5,124.5C 72.3714,124.815 76.0381,124.482 79.5,123.5 Z"/></g>
<g><path style="opacity:1" fill="#d8c797" d="M 70.5,127.5 C 68.0882,127.694 67.0882,129.027 67.5,131.5C 70.1873,131.664 72.854,131.497 75.5,131C 76.2524,130.329 76.5858,129.496 76.5,128.5C 77.6735,126.154 77.6735,127.321 76.5,132C 73.1832,132.498 69.8499,132.665 66.5,132.5C 66.6816,130.409 66.3482,128.409 65.5,126.5C 67.5819,125.106 69.2486,125.439 70.5,127.5 Z"/></g>
<g><path style="opacity:1" fill="#dab867" d="M 76.5,128.5 C 76.5858,129.496 76.2524,130.329 75.5,131C 72.854,131.497 70.1873,131.664 67.5,131.5C 67.0882,129.027 68.0882,127.694 70.5,127.5C 71.397,126.402 72.2303,126.402 73,127.5C 73.3076,126.692 73.8076,126.025 74.5,125.5C 75.1757,126.602 75.8423,127.602 76.5,128.5 Z"/></g>
<g><path style="opacity:1" fill="#364444" d="M 15.5,125.5 C 16.2186,127.764 16.552,130.097 16.5,132.5C 17.5,132.5 18.5,132.5 19.5,132.5C 21.5,133.167 23.5,133.833 25.5,134.5C 24.6868,135.653 23.6868,135.653 22.5,134.5C 21.8182,135.243 21.1515,135.909 20.5,136.5C 18.3536,133.238 16.8536,133.238 16,136.5C 15.51,135.207 15.3433,133.873 15.5,132.5C 15.3259,130.139 14.9926,127.806 14.5,125.5C 14.8333,122.833 15.1667,122.833 15.5,125.5 Z"/></g>
<g><path style="opacity:1" fill="#31586a" d="M 79.5,132.5 C 82.5248,133.033 83.8581,134.867 83.5,138C 83.6801,140.802 82.6801,142.969 80.5,144.5C 79.7611,144.631 79.0944,144.464 78.5,144C 81.2868,141.833 82.1201,138.999 81,135.5C 78.1116,143.519 76.9449,143.352 77.5,135C 73.4126,134.238 69.4126,134.404 65.5,135.5C 65.1667,134.833 64.8333,134.167 64.5,133.5C 69.5947,133.779 74.5947,133.445 79.5,132.5 Z"/></g>
<g><path style="opacity:1" fill="#438bb1" d="M 80.5,144.5 C 79.2196,145.931 77.5529,146.598 75.5,146.5C 74.9101,145.234 74.4101,143.901 74,142.5C 73.5831,143.756 72.7498,144.423 71.5,144.5C 67.9954,142.577 65.9954,139.577 65.5,135.5C 69.4126,134.404 73.4126,134.238 77.5,135C 76.9449,143.352 78.1116,143.519 81,135.5C 82.1201,138.999 81.2868,141.833 78.5,144C 79.0944,144.464 79.7611,144.631 80.5,144.5 Z"/></g>
<g><path style="opacity:1" fill="#48728b" d="M 64.5,132.5 C 64.5,132.833 64.5,133.167 64.5,133.5C 64.8333,134.167 65.1667,134.833 65.5,135.5C 65.9954,139.577 67.9954,142.577 71.5,144.5C 70.1429,145.59 69.1429,146.924 68.5,148.5C 65.5427,146.373 63.0427,143.706 61,140.5C 59.5791,136.532 60.7458,133.865 64.5,132.5 Z"/></g>
<g><path style="opacity:1" fill="#417086" d="M 15.5,132.5 C 15.3433,133.873 15.51,135.207 16,136.5C 16.8536,133.238 18.3536,133.238 20.5,136.5C 19.9724,141.811 22.3057,144.145 27.5,143.5C 28.3683,140.327 28.3683,137.327 27.5,134.5C 28.5,133.833 29.5,133.167 30.5,132.5C 34.1692,134.438 35.3359,137.438 34,141.5C 32.2228,143.79 30.0562,145.457 27.5,146.5C 26.469,145.751 25.3024,145.085 24,144.5C 24.1639,148.15 22.9972,148.983 20.5,147C 22.9288,146.549 23.0955,145.715 21,144.5C 20.3292,145.252 19.4959,145.586 18.5,145.5C 15.1922,146.026 13.0255,144.693 12,141.5C 10.5018,137.234 11.6685,134.234 15.5,132.5 Z"/></g>
<g><path style="opacity:1" fill="#3b88ac" d="M 25.5,134.5 C 26.1667,134.5 26.8333,134.5 27.5,134.5C 28.3683,137.327 28.3683,140.327 27.5,143.5C 22.3057,144.145 19.9724,141.811 20.5,136.5C 21.1515,135.909 21.8182,135.243 22.5,134.5C 23.6868,135.653 24.6868,135.653 25.5,134.5 Z"/></g>
<g><path style="opacity:1" fill="#333e2f" d="M 27.5,146.5 C 27.1667,146.5 26.8333,146.5 26.5,146.5C 25.5655,147.568 25.2322,148.901 25.5,150.5C 25.1667,150.5 24.8333,150.5 24.5,150.5C 23.0206,149.852 21.5206,149.519 20,149.5C 18.7292,150.883 17.2292,151.883 15.5,152.5C 15.7822,151.222 16.4489,150.222 17.5,149.5C 19.6204,148.597 19.9538,147.263 18.5,145.5C 19.4959,145.586 20.3292,145.252 21,144.5C 23.0955,145.715 22.9288,146.549 20.5,147C 22.9972,148.983 24.1639,148.15 24,144.5C 25.3024,145.085 26.469,145.751 27.5,146.5 Z"/></g>
<g><path style="opacity:1" fill="#484f46" d="M 75.5,146.5 C 76.2112,148.03 77.2112,149.363 78.5,150.5C 77.5,150.5 76.5,150.5 75.5,150.5C 75.1667,150.5 74.8333,150.5 74.5,150.5C 71.7892,149.757 69.1225,149.423 66.5,149.5C 67.1667,149.167 67.8333,148.833 68.5,148.5C 69.1429,146.924 70.1429,145.59 71.5,144.5C 72.7498,144.423 73.5831,143.756 74,142.5C 74.4101,143.901 74.9101,145.234 75.5,146.5 Z"/></g>
<g><path style="opacity:1" fill="#a48878" d="M 66.5,149.5 C 69.1225,149.423 71.7892,149.757 74.5,150.5C 74.573,152.027 73.9063,153.027 72.5,153.5C 70.7542,152.782 70.0875,151.782 70.5,150.5C 68.8465,153.027 66.8465,153.693 64.5,152.5C 64.9321,151.29 65.5987,150.29 66.5,149.5 Z"/></g>
<g><path style="opacity:1" fill="#926654" d="M 24.5,150.5 C 24.67,151.822 24.3366,152.989 23.5,154C 20.4798,153.188 17.8131,153.355 15.5,154.5C 15.5,153.833 15.5,153.167 15.5,152.5C 17.2292,151.883 18.7292,150.883 20,149.5C 21.5206,149.519 23.0206,149.852 24.5,150.5 Z"/></g>
<g><path style="opacity:1" fill="#773222" d="M 24.5,150.5 C 24.8333,150.5 25.1667,150.5 25.5,150.5C 27.2216,152 28.8883,153.667 30.5,155.5C 25.5,155.5 20.5,155.5 15.5,155.5C 15.5,155.167 15.5,154.833 15.5,154.5C 17.8131,153.355 20.4798,153.188 23.5,154C 24.3366,152.989 24.67,151.822 24.5,150.5 Z"/></g>
<g><path style="opacity:1" fill="#714842" d="M 72.5,153.5 C 70.0733,153.523 67.74,154.023 65.5,155C 64.2617,155.69 64.2617,156.19 65.5,156.5C 70.3958,158.446 75.7291,159.113 81.5,158.5C 81.8432,156.517 81.1765,155.183 79.5,154.5C 78.4324,153.566 77.099,153.232 75.5,153.5C 75.5,152.5 75.5,151.5 75.5,150.5C 76.5,150.5 77.5,150.5 78.5,150.5C 79.8195,151.942 81.4862,152.608 83.5,152.5C 84.3331,154.752 84.3331,156.919 83.5,159C 76.1742,159.5 68.8409,159.666 61.5,159.5C 61.5,157.167 61.5,154.833 61.5,152.5C 62.5,152.5 63.5,152.5 64.5,152.5C 66.8465,153.693 68.8465,153.027 70.5,150.5C 70.0875,151.782 70.7542,152.782 72.5,153.5 Z"/></g>
<g><path style="opacity:1" fill="#863e30" d="M 74.5,150.5 C 74.8333,150.5 75.1667,150.5 75.5,150.5C 75.5,151.5 75.5,152.5 75.5,153.5C 77.099,153.232 78.4324,153.566 79.5,154.5C 74.9362,155.216 70.2695,155.883 65.5,156.5C 64.2617,156.19 64.2617,155.69 65.5,155C 67.74,154.023 70.0733,153.523 72.5,153.5C 73.9063,153.027 74.573,152.027 74.5,150.5 Z"/></g>
<g><path style="opacity:1" fill="#b3575d" d="M 79.5,154.5 C 81.1765,155.183 81.8432,156.517 81.5,158.5C 75.7291,159.113 70.3958,158.446 65.5,156.5C 70.2695,155.883 74.9362,155.216 79.5,154.5 Z"/></g>
<g><path style="opacity:1" fill="#805252" d="M 26.5,146.5 C 27.7438,150.412 30.4105,152.412 34.5,152.5C 34.8016,155.059 34.4682,157.393 33.5,159.5C 26.5,159.5 19.5,159.5 12.5,159.5C 12.5,157.167 12.5,154.833 12.5,152.5C 13.5,152.5 14.5,152.5 15.5,152.5C 15.5,153.167 15.5,153.833 15.5,154.5C 15.5,154.833 15.5,155.167 15.5,155.5C 15.5,156.5 15.5,157.5 15.5,158.5C 20.8333,158.5 26.1667,158.5 31.5,158.5C 31.7373,157.209 31.404,156.209 30.5,155.5C 28.8883,153.667 27.2216,152 25.5,150.5C 25.2322,148.901 25.5655,147.568 26.5,146.5 Z"/></g>
<g><path style="opacity:1" fill="#bf5960" d="M 15.5,155.5 C 20.5,155.5 25.5,155.5 30.5,155.5C 31.404,156.209 31.7373,157.209 31.5,158.5C 26.1667,158.5 20.8333,158.5 15.5,158.5C 15.5,157.5 15.5,156.5 15.5,155.5 Z"/></g>
<g><path style="opacity:1" fill="#d2c0bf" d="M 17.5,149.5 C 16.4489,150.222 15.7822,151.222 15.5,152.5C 14.5,152.5 13.5,152.5 12.5,152.5C 12.5,154.833 12.5,157.167 12.5,159.5C 19.5,159.5 26.5,159.5 33.5,159.5C 26.3451,160.655 19.0118,160.822 11.5,160C 9.21013,154.082 11.2101,150.582 17.5,149.5 Z"/></g>
</svg>
