<?xml version="1.0" encoding="UTF-8"?>
<!DOCTYPE svg PUBLIC "-//W3C//DTD SVG 1.1//EN" "http://www.w3.org/Graphics/SVG/1.1/DTD/svg11.dtd">
<svg xmlns="http://www.w3.org/2000/svg" version="1.1" width="100px" height="165px" style="shape-rendering:geometricPrecision; text-rendering:geometricPrecision; image-rendering:optimizeQuality; fill-rule:evenodd; clip-rule:evenodd" xmlns:xlink="http://www.w3.org/1999/xlink">
<g><path style="opacity:1" fill="#fafafa" d="M -0.5,-0.5 C 32.8333,-0.5 66.1667,-0.5 99.5,-0.5C 99.5,54.5 99.5,109.5 99.5,164.5C 66.1667,164.5 32.8333,164.5 -0.5,164.5C -0.5,109.5 -0.5,54.5 -0.5,-0.5 Z"/></g>
<g><path style="opacity:1" fill="#615356" d="M 76.5,5.5 C 78.0269,5.42702 79.0269,6.09368 79.5,7.5C 77.9731,7.57298 76.9731,6.90632 76.5,5.5 Z"/></g>
<g><path style="opacity:1" fill="#a49588" d="M 34.5,5.5 C 36.8835,6.88507 38.5501,8.88507 39.5,11.5C 30.3084,2.96047 21.9751,3.62714 14.5,13.5C 14.9613,10.6967 16.2947,8.3634 18.5,6.5C 18.5774,5.25025 19.244,4.41691 20.5,4C 22.5,3.83333 24.5,3.66667 26.5,3.5C 29.5267,3.28653 32.1934,3.9532 34.5,5.5 Z"/></g>
<g><path style="opacity:1" fill="#635854" d="M 18.5,6.5 C 16.2947,8.3634 14.9613,10.6967 14.5,13.5C 13.1127,15.8766 12.2794,18.5432 12,21.5C 11.5034,19.1902 11.3367,16.8568 11.5,14.5C 12.437,10.6345 14.7704,7.96784 18.5,6.5 Z"/></g>
<g><path style="opacity:1" fill="#715a45" d="M 81.5,8.5 C 82.7515,10.0009 83.7515,11.6675 84.5,13.5C 84.19,14.7383 83.69,14.7383 83,13.5C 82.8019,15.3817 82.3019,17.0484 81.5,18.5C 81.7361,15.7743 80.9028,13.441 79,11.5C 78.6667,12.5 78.3333,13.5 78,14.5C 77.31,15.7383 76.81,15.7383 76.5,14.5C 77.3007,12.9582 77.634,11.2915 77.5,9.5C 76.0695,9.57918 74.7362,9.24585 73.5,8.5C 73.3309,9.39656 72.9976,10.3966 72.5,11.5C 71.9955,8.65823 70.3289,7.32489 67.5,7.5C 67.5,8.83333 67.5,10.1667 67.5,11.5C 65.5,11.1667 63.5,10.8333 61.5,10.5C 61.3573,12.2624 61.6906,13.9291 62.5,15.5C 55.8333,17.8333 55.8333,20.1667 62.5,22.5C 60.9137,24.1727 60.2471,26.1727 60.5,28.5C 61.5,28.5 62.5,28.5 63.5,28.5C 63.5,29.5 63.5,30.5 63.5,31.5C 55.2162,26.7907 53.3829,20.1241 58,11.5C 59.9197,8.562 62.4197,7.89534 65.5,9.5C 66.4287,8.31116 66.762,6.97782 66.5,5.5C 71.6698,5.33396 76.1698,7.00063 80,10.5C 80.2784,9.5842 80.7784,8.91753 81.5,8.5 Z"/></g>
<g><path style="opacity:1" fill="#685c58" d="M 34.5,5.5 C 38.7192,6.54842 41.5525,9.21509 43,13.5C 43.8075,17.0267 43.6408,20.3601 42.5,23.5C 42.6646,20.4816 42.498,17.4816 42,14.5C 41.6232,13.0577 40.7899,12.0577 39.5,11.5C 38.5501,8.88507 36.8835,6.88507 34.5,5.5 Z"/></g>
<g><path style="opacity:1" fill="#b08a70" d="M 81.5,18.5 C 81.5,18.8333 81.5,19.1667 81.5,19.5C 81.1583,20.3382 80.4916,20.6716 79.5,20.5C 78.2652,20.7214 77.2652,21.3881 76.5,22.5C 75.8933,22.3764 75.56,22.0431 75.5,21.5C 76.6772,19.8974 76.5106,18.564 75,17.5C 74.6667,18.5 74.3333,19.5 74,20.5C 73.7679,19.2625 73.2679,18.2625 72.5,17.5C 71.609,16.8902 70.609,16.5569 69.5,16.5C 67.9731,16.427 66.9731,17.0937 66.5,18.5C 65.2089,17.4583 65.2089,16.2917 66.5,15C 69.3471,14.0561 71.8471,14.5561 74,16.5C 74.7401,15.2506 74.5735,14.2506 73.5,13.5C 73.56,12.9569 73.8933,12.6236 74.5,12.5C 75.1818,13.2427 75.8485,13.9094 76.5,14.5C 76.81,15.7383 77.31,15.7383 78,14.5C 78.3333,13.5 78.6667,12.5 79,11.5C 80.9028,13.441 81.7361,15.7743 81.5,18.5 Z"/></g>
<g><path style="opacity:1" fill="#c19f7e" d="M 33.5,16.5 C 33.1583,15.6618 32.4916,15.3284 31.5,15.5C 31.5,14.5 31.5,13.5 31.5,12.5C 29.5328,12.7394 27.6995,12.4061 26,11.5C 24.764,13.5384 22.9306,14.7051 20.5,15C 20.9174,17.1926 21.2507,19.3592 21.5,21.5C 21.5,22.1667 21.8333,22.5 22.5,22.5C 22.5,23.5 22.5,24.5 22.5,25.5C 25.0444,25.1043 27.2111,25.771 29,27.5C 29.763,24.9365 30.263,24.9365 30.5,27.5C 30.2811,28.938 29.7811,30.2713 29,31.5C 27.8333,29.8333 26.6667,28.1667 25.5,26.5C 24.6527,28.061 24.9861,29.561 26.5,31C 25.0406,30.6446 23.7072,30.8112 22.5,31.5C 22.1788,29.9519 21.1788,29.2852 19.5,29.5C 20.2309,27.4012 20.2309,25.4012 19.5,23.5C 18.7189,24.7287 18.2189,26.062 18,27.5C 17.7645,25.8807 16.9311,24.8807 15.5,24.5C 14.8232,20.6909 16.1565,17.8576 19.5,16C 16.6527,12.0581 17.6527,10.8914 22.5,12.5C 23.4519,10.9547 23.7852,9.28801 23.5,7.5C 26.8333,7.83333 30.1667,8.16667 33.5,8.5C 32.1397,13.7503 34.1397,16.417 39.5,16.5C 36.5107,21.1432 34.5107,21.1432 33.5,16.5 Z"/></g>
<g><path style="opacity:1" fill="#775841" d="M 39.5,11.5 C 43.4375,20.9196 40.7709,27.7529 31.5,32C 28.3035,32.8045 25.3035,32.6378 22.5,31.5C 23.7072,30.8112 25.0406,30.6446 26.5,31C 24.9861,29.561 24.6527,28.061 25.5,26.5C 26.6667,28.1667 27.8333,29.8333 29,31.5C 29.7811,30.2713 30.2811,28.938 30.5,27.5C 30.263,24.9365 29.763,24.9365 29,27.5C 27.2111,25.771 25.0444,25.1043 22.5,25.5C 22.5,24.5 22.5,23.5 22.5,22.5C 24.0174,22.5106 25.1841,23.1772 26,24.5C 26.3988,24.2716 26.5654,23.9382 26.5,23.5C 27.1667,23.5 27.8333,23.5 28.5,23.5C 29.5,23.5 30.5,23.5 31.5,23.5C 31.4095,20.8478 32.0762,18.5145 33.5,16.5C 34.5107,21.1432 36.5107,21.1432 39.5,16.5C 34.1397,16.417 32.1397,13.7503 33.5,8.5C 30.1667,8.16667 26.8333,7.83333 23.5,7.5C 23.7852,9.28801 23.4519,10.9547 22.5,12.5C 17.6527,10.8914 16.6527,12.0581 19.5,16C 16.1565,17.8576 14.8232,20.6909 15.5,24.5C 14.6204,22.8632 13.9537,21.0299 13.5,19C 14.2335,17.2341 14.5668,15.4008 14.5,13.5C 21.9751,3.62714 30.3084,2.96047 39.5,11.5 Z"/></g>
<g><path style="opacity:1" fill="#b4705f" d="M 31.5,15.5 C 32.4916,15.3284 33.1583,15.6618 33.5,16.5C 32.0762,18.5145 31.4095,20.8478 31.5,23.5C 30.5,23.5 29.5,23.5 28.5,23.5C 28.5198,21.857 27.8532,20.5237 26.5,19.5C 26.9767,18.5224 27.6433,17.6891 28.5,17C 26.0752,16.0141 24.4085,16.6807 23.5,19C 24.3146,20.6434 25.3146,22.1434 26.5,23.5C 26.5654,23.9382 26.3988,24.2716 26,24.5C 25.1841,23.1772 24.0174,22.5106 22.5,22.5C 21.8333,22.5 21.5,22.1667 21.5,21.5C 22.2536,14.7978 25.587,12.7978 31.5,15.5 Z"/></g>
<g><path style="opacity:1" fill="#8a3a2a" d="M 28.5,23.5 C 27.8333,23.5 27.1667,23.5 26.5,23.5C 25.3146,22.1434 24.3146,20.6434 23.5,19C 24.4085,16.6807 26.0752,16.0141 28.5,17C 27.6433,17.6891 26.9767,18.5224 26.5,19.5C 27.8532,20.5237 28.5198,21.857 28.5,23.5 Z"/></g>
<g><path style="opacity:1" fill="#6f432c" d="M 31.5,15.5 C 25.587,12.7978 22.2536,14.7978 21.5,21.5C 21.2507,19.3592 20.9174,17.1926 20.5,15C 22.9306,14.7051 24.764,13.5384 26,11.5C 27.6995,12.4061 29.5328,12.7394 31.5,12.5C 31.5,13.5 31.5,14.5 31.5,15.5 Z"/></g>
<g><path style="opacity:1" fill="#61442b" d="M 22.5,31.5 C 20.2546,30.9044 18.2546,29.9044 16.5,28.5C 16.1667,27.1667 15.8333,25.8333 15.5,24.5C 16.9311,24.8807 17.7645,25.8807 18,27.5C 18.2189,26.062 18.7189,24.7287 19.5,23.5C 20.2309,25.4012 20.2309,27.4012 19.5,29.5C 21.1788,29.2852 22.1788,29.9519 22.5,31.5 Z"/></g>
<g><path style="opacity:1" fill="#ba9a76" d="M 31.5,23.5 C 33.9279,22.7878 36.2612,21.7878 38.5,20.5C 38.8333,20.8333 39.1667,21.1667 39.5,21.5C 38.0499,22.8498 37.3832,24.5165 37.5,26.5C 35.8008,26.6602 34.1341,26.4935 32.5,26C 31.7476,25.3292 31.4142,24.4959 31.5,23.5 Z"/></g>
<g><path style="opacity:1" fill="#8b6d50" d="M 73.5,13.5 C 74.5735,14.2506 74.7401,15.2506 74,16.5C 71.8471,14.5561 69.3471,14.0561 66.5,15C 65.2089,16.2917 65.2089,17.4583 66.5,18.5C 66.33,19.8221 66.6634,20.9887 67.5,22C 69.5,22.3333 71.5,22.6667 73.5,23C 72.3044,23.6543 72.3044,24.1543 73.5,24.5C 74.1757,23.3984 74.8423,22.3984 75.5,21.5C 75.56,22.0431 75.8933,22.3764 76.5,22.5C 77.2652,21.3881 78.2652,20.7214 79.5,20.5C 78.4715,21.7874 78.8048,22.9541 80.5,24C 79.6802,27.0372 78.6802,27.2039 77.5,24.5C 76.8826,24.3893 76.3826,24.056 76,23.5C 74.2028,25.1556 72.0361,26.1556 69.5,26.5C 67.5914,25.6518 65.5914,25.3184 63.5,25.5C 64.1446,22.4532 63.1446,20.2865 60.5,19C 63.0352,18.0718 64.0352,16.2385 63.5,13.5C 65.7224,13.822 67.5557,13.1554 69,11.5C 70.3297,12.5822 71.8297,13.2488 73.5,13.5 Z"/></g>
<g><path style="opacity:1" fill="#c6bab5" d="M 14.5,13.5 C 14.5668,15.4008 14.2335,17.2341 13.5,19C 13.9537,21.0299 14.6204,22.8632 15.5,24.5C 15.8333,25.8333 16.1667,27.1667 16.5,28.5C 14.8639,27.2511 13.6972,25.5844 13,23.5C 12.4209,24.9285 12.5876,26.2618 13.5,27.5C 12.2502,27.4226 11.4169,26.756 11,25.5C 10.1901,21.6425 10.3567,17.9758 11.5,14.5C 11.3367,16.8568 11.5034,19.1902 12,21.5C 12.2794,18.5432 13.1127,15.8766 14.5,13.5 Z"/></g>
<g><path style="opacity:1" fill="#c1a586" d="M 76.5,14.5 C 75.8485,13.9094 75.1818,13.2427 74.5,12.5C 73.8933,12.6236 73.56,12.9569 73.5,13.5C 71.8297,13.2488 70.3297,12.5822 69,11.5C 67.5557,13.1554 65.7224,13.822 63.5,13.5C 64.0352,16.2385 63.0352,18.0718 60.5,19C 63.1446,20.2865 64.1446,22.4532 63.5,25.5C 65.5914,25.3184 67.5914,25.6518 69.5,26.5C 72.0361,26.1556 74.2028,25.1556 76,23.5C 76.3826,24.056 76.8826,24.3893 77.5,24.5C 77.6427,29.1173 75.976,29.784 72.5,26.5C 72.1667,26.8333 71.8333,27.1667 71.5,27.5C 73.3596,28.3249 75.0262,29.3249 76.5,30.5C 76.5,31.1667 76.1667,31.5 75.5,31.5C 73.1579,31.66 70.8246,31.4933 68.5,31C 67.9103,29.4905 67.2436,27.9905 66.5,26.5C 64.3546,27.6825 64.3546,29.1825 66.5,31C 65.944,31.3826 65.6107,31.8826 65.5,32.5C 64.5084,32.6716 63.8417,32.3382 63.5,31.5C 63.5,30.5 63.5,29.5 63.5,28.5C 62.5,28.5 61.5,28.5 60.5,28.5C 60.2471,26.1727 60.9137,24.1727 62.5,22.5C 55.8333,20.1667 55.8333,17.8333 62.5,15.5C 61.6906,13.9291 61.3573,12.2624 61.5,10.5C 63.5,10.8333 65.5,11.1667 67.5,11.5C 67.5,10.1667 67.5,8.83333 67.5,7.5C 70.3289,7.32489 71.9955,8.65823 72.5,11.5C 72.9976,10.3966 73.3309,9.39656 73.5,8.5C 74.7362,9.24585 76.0695,9.57918 77.5,9.5C 77.634,11.2915 77.3007,12.9582 76.5,14.5 Z"/></g>
<g><path style="opacity:1" fill="#948981" d="M 76.5,5.5 C 76.9731,6.90632 77.9731,7.57298 79.5,7.5C 80.4916,7.32842 81.1583,7.66175 81.5,8.5C 80.7784,8.91753 80.2784,9.5842 80,10.5C 76.1698,7.00063 71.6698,5.33396 66.5,5.5C 66.762,6.97782 66.4287,8.31116 65.5,9.5C 62.4197,7.89534 59.9197,8.562 58,11.5C 53.3829,20.1241 55.2162,26.7907 63.5,31.5C 63.8417,32.3382 64.5084,32.6716 65.5,32.5C 68.9387,32.7471 72.272,32.4137 75.5,31.5C 76.1667,31.5 76.5,31.1667 76.5,30.5C 81.2429,28.0279 82.9096,24.3612 81.5,19.5C 81.5,19.1667 81.5,18.8333 81.5,18.5C 82.3019,17.0484 82.8019,15.3817 83,13.5C 83.69,14.7383 84.19,14.7383 84.5,13.5C 87.3966,26.6252 82.0633,33.9585 68.5,35.5C 61.3464,35.5082 56.5131,32.1749 54,25.5C 51.6917,9.47674 58.525,2.31007 74.5,4C 75.4158,4.27842 76.0825,4.77842 76.5,5.5 Z"/></g>
<g><path style="opacity:1" fill="#614532" d="M 81.5,19.5 C 82.9096,24.3612 81.2429,28.0279 76.5,30.5C 75.0262,29.3249 73.3596,28.3249 71.5,27.5C 71.8333,27.1667 72.1667,26.8333 72.5,26.5C 75.976,29.784 77.6427,29.1173 77.5,24.5C 78.6802,27.2039 79.6802,27.0372 80.5,24C 78.8048,22.9541 78.4715,21.7874 79.5,20.5C 80.4916,20.6716 81.1583,20.3382 81.5,19.5 Z"/></g>
<g><path style="opacity:1" fill="#7f3d31" d="M 69.5,16.5 C 67.9624,18.5514 68.2957,20.218 70.5,21.5C 72.1112,20.6798 72.7778,19.3464 72.5,17.5C 73.2679,18.2625 73.7679,19.2625 74,20.5C 74.3333,19.5 74.6667,18.5 75,17.5C 76.5106,18.564 76.6772,19.8974 75.5,21.5C 74.8423,22.3984 74.1757,23.3984 73.5,24.5C 72.3044,24.1543 72.3044,23.6543 73.5,23C 71.5,22.6667 69.5,22.3333 67.5,22C 66.6634,20.9887 66.33,19.8221 66.5,18.5C 66.9731,17.0937 67.9731,16.427 69.5,16.5 Z"/></g>
<g><path style="opacity:1" fill="#c45c5b" d="M 69.5,16.5 C 70.609,16.5569 71.609,16.8902 72.5,17.5C 72.7778,19.3464 72.1112,20.6798 70.5,21.5C 68.2957,20.218 67.9624,18.5514 69.5,16.5 Z"/></g>
<g><path style="opacity:1" fill="#968a82" d="M 39.5,11.5 C 40.7899,12.0577 41.6232,13.0577 42,14.5C 42.498,17.4816 42.6646,20.4816 42.5,23.5C 39.386,33.2305 32.7194,37.0638 22.5,35C 19.7261,34.3764 17.7261,32.8764 16.5,30.5C 16.5,29.8333 16.5,29.1667 16.5,28.5C 18.2546,29.9044 20.2546,30.9044 22.5,31.5C 25.3035,32.6378 28.3035,32.8045 31.5,32C 40.7709,27.7529 43.4375,20.9196 39.5,11.5 Z"/></g>
<g><path style="opacity:1" fill="#5d5553" d="M 16.5,28.5 C 16.5,29.1667 16.5,29.8333 16.5,30.5C 15.1667,29.8333 14.1667,28.8333 13.5,27.5C 12.5876,26.2618 12.4209,24.9285 13,23.5C 13.6972,25.5844 14.8639,27.2511 16.5,28.5 Z"/></g>
<g><path style="opacity:1" fill="#5e4432" d="M 75.5,31.5 C 72.272,32.4137 68.9387,32.7471 65.5,32.5C 65.6107,31.8826 65.944,31.3826 66.5,31C 64.3546,29.1825 64.3546,27.6825 66.5,26.5C 67.2436,27.9905 67.9103,29.4905 68.5,31C 70.8246,31.4933 73.1579,31.66 75.5,31.5 Z"/></g>
<g><path style="opacity:1" fill="#a8a59f" d="M 53.5,52.5 C 48.1301,52.3921 42.7968,52.7255 37.5,53.5C 40.356,51.9942 43.5226,51.3275 47,51.5C 49.3608,51.5039 51.5274,51.8373 53.5,52.5 Z"/></g>
<g><path style="opacity:1" fill="#47403d" d="M 53.5,52.5 C 74.6296,59.6733 81.7963,74.0066 75,95.5C 70.4808,104.347 63.3142,109.681 53.5,111.5C 52.1266,111.657 50.7932,111.49 49.5,111C 53.042,110.879 56.042,109.713 58.5,107.5C 67.2167,104.611 72.7167,98.6106 75,89.5C 77.8624,68.2103 68.6958,56.5437 47.5,54.5C 38.947,53.7836 32.2803,56.7836 27.5,63.5C 20.8991,69.6292 18.2324,77.2959 19.5,86.5C 19.8333,87.1667 20.1667,87.8333 20.5,88.5C 22.6071,98.1219 28.2737,104.955 37.5,109C 36.552,109.483 35.552,109.649 34.5,109.5C 19.8205,100.564 14.6538,87.5643 19,70.5C 23.2278,62.6504 29.3945,56.9838 37.5,53.5C 42.7968,52.7255 48.1301,52.3921 53.5,52.5 Z"/></g>
<g><path style="opacity:1" fill="#724f2e" d="M 29.5,62.5 C 29.5,62.8333 29.5,63.1667 29.5,63.5C 29.2408,67.2396 29.5741,70.9062 30.5,74.5C 27.9088,76.2812 25.5755,78.2812 23.5,80.5C 23.5481,77.6872 24.2147,75.0205 25.5,72.5C 26.325,71.6143 27.325,71.281 28.5,71.5C 28.8016,68.9407 28.4682,66.6074 27.5,64.5C 27.5,64.1667 27.5,63.8333 27.5,63.5C 28.1667,63.1667 28.8333,62.8333 29.5,62.5 Z"/></g>
<g><path style="opacity:1" fill="#543b32" d="M 27.5,64.5 C 28.4682,66.6074 28.8016,68.9407 28.5,71.5C 27.325,71.281 26.325,71.6143 25.5,72.5C 24.2147,75.0205 23.5481,77.6872 23.5,80.5C 23.5,81.8333 23.5,83.1667 23.5,84.5C 22.7564,87.9496 24.0897,89.6162 27.5,89.5C 27.7214,92.2788 27.388,94.9455 26.5,97.5C 24.2519,94.672 22.2519,91.672 20.5,88.5C 20.1667,87.8333 19.8333,87.1667 19.5,86.5C 19.5666,78.3064 22.2333,70.9731 27.5,64.5 Z"/></g>
<g><path style="opacity:1" fill="#a59893" d="M 58.5,107.5 C 74.1174,97.5899 77.9507,84.2566 70,67.5C 58.075,53.5207 44.575,51.854 29.5,62.5C 28.8333,62.8333 28.1667,63.1667 27.5,63.5C 32.2803,56.7836 38.947,53.7836 47.5,54.5C 68.6958,56.5437 77.8624,68.2103 75,89.5C 72.7167,98.6106 67.2167,104.611 58.5,107.5 Z"/></g>
<g><path style="opacity:1" fill="#b4a1a1" d="M 27.5,63.5 C 27.5,63.8333 27.5,64.1667 27.5,64.5C 22.2333,70.9731 19.5666,78.3064 19.5,86.5C 18.2324,77.2959 20.8991,69.6292 27.5,63.5 Z"/></g>
<g><path style="opacity:1" fill="#dbc182" d="M 23.5,84.5 C 23.5,83.1667 23.5,81.8333 23.5,80.5C 25.5755,78.2812 27.9088,76.2812 30.5,74.5C 29.5741,70.9062 29.2408,67.2396 29.5,63.5C 33.375,62.1859 37.0417,62.5192 40.5,64.5C 45.9001,55.0518 50.7334,55.3852 55,65.5C 56.4382,64.2815 58.1049,63.6148 60,63.5C 62.137,64.0767 64.3037,64.41 66.5,64.5C 66.4955,68.5341 66.1621,72.5341 65.5,76.5C 72.2571,78.3308 73.5904,81.9975 69.5,87.5C 67.7749,88.0149 66.1083,88.6816 64.5,89.5C 65.4259,93.0938 65.7592,96.7604 65.5,100.5C 61.2795,101.192 57.6128,100.192 54.5,97.5C 54.5271,102.298 52.3604,105.632 48,107.5C 44.6732,105.339 41.8399,102.673 39.5,99.5C 36.2423,100.417 32.909,100.751 29.5,100.5C 29.5,96.5 29.5,92.5 29.5,88.5C 27.1274,87.797 25.1274,86.4637 23.5,84.5 Z"/></g>
<g><path style="opacity:1" fill="#bd595a" d="M 57.5,89.5 C 57.1667,90.1667 56.8333,90.8333 56.5,91.5C 56.1667,91.5 55.8333,91.5 55.5,91.5C 53.9087,90.7811 52.4087,89.7811 51,88.5C 50.4944,93.1251 48.3278,94.2917 44.5,92C 45.4506,91.2825 45.6172,90.4491 45,89.5C 43.3005,90.4061 41.4672,90.7394 39.5,90.5C 39.5,90.1667 39.5,89.8333 39.5,89.5C 39.4208,88.0695 39.7542,86.7362 40.5,85.5C 36.2178,84.1348 35.7178,82.1348 39,79.5C 39.3333,77.8333 39.6667,76.1667 40,74.5C 41.9376,73.1398 43.6043,73.4732 45,75.5C 45.1183,73.4267 46.1183,72.0933 48,71.5C 50.5146,72.1147 52.848,73.1147 55,74.5C 55.6514,76.235 55.4847,77.9017 54.5,79.5C 56.0534,80.439 57.3867,81.6057 58.5,83C 57.6057,84.3957 56.9391,85.8957 56.5,87.5C 56.5427,88.4164 56.8761,89.0831 57.5,89.5 Z"/></g>
<g><path style="opacity:1" fill="#987e6e" d="M 56.5,91.5 C 56.8333,90.8333 57.1667,90.1667 57.5,89.5C 62.188,78.5428 58.688,71.8761 47,69.5C 38.167,71.3265 34.5003,76.6598 36,85.5C 36.4983,87.5444 37.665,88.8777 39.5,89.5C 39.5,89.8333 39.5,90.1667 39.5,90.5C 41.1898,92.3417 43.1898,93.675 45.5,94.5C 44.5084,94.3284 43.8417,94.6618 43.5,95.5C 36.3639,92.5637 32.6973,87.2303 32.5,79.5C 33.2186,77.2362 33.552,74.9029 33.5,72.5C 34.2679,73.2625 34.7679,74.2625 35,75.5C 40.8136,68.0272 47.9803,66.5272 56.5,71C 61.2296,76.0899 62.3963,81.9233 60,88.5C 59.5776,90.4257 58.4109,91.4257 56.5,91.5 Z"/></g>
<g><path style="opacity:1" fill="#7b322d" d="M 46.5,76.5 C 48.3146,77.6298 50.3146,78.2964 52.5,78.5C 53.5411,81.4578 53.5411,84.4578 52.5,87.5C 51.1667,87.5 49.8333,87.5 48.5,87.5C 48.6495,88.552 48.4828,89.552 48,90.5C 46.8502,88.3591 45.3502,86.5257 43.5,85C 42.8727,82.589 42.8727,80.089 43.5,77.5C 44.791,77.7373 45.791,77.404 46.5,76.5 Z"/></g>
<g><path style="opacity:1" fill="#602a24" d="M 57.5,89.5 C 56.8761,89.0831 56.5427,88.4164 56.5,87.5C 56.9391,85.8957 57.6057,84.3957 58.5,83C 57.3867,81.6057 56.0534,80.439 54.5,79.5C 55.4847,77.9017 55.6514,76.235 55,74.5C 52.848,73.1147 50.5146,72.1147 48,71.5C 46.1183,72.0933 45.1183,73.4267 45,75.5C 43.6043,73.4732 41.9376,73.1398 40,74.5C 39.6667,76.1667 39.3333,77.8333 39,79.5C 35.7178,82.1348 36.2178,84.1348 40.5,85.5C 39.7542,86.7362 39.4208,88.0695 39.5,89.5C 37.665,88.8777 36.4983,87.5444 36,85.5C 34.5003,76.6598 38.167,71.3265 47,69.5C 58.688,71.8761 62.188,78.5428 57.5,89.5 Z"/></g>
<g><path style="opacity:1" fill="#563d24" d="M 32.5,79.5 C 32.6973,87.2303 36.3639,92.5637 43.5,95.5C 46.5184,95.6646 49.5184,95.498 52.5,95C 54.5444,94.5017 55.8777,93.335 56.5,91.5C 58.4109,91.4257 59.5776,90.4257 60,88.5C 62.3963,81.9233 61.2296,76.0899 56.5,71C 47.9803,66.5272 40.8136,68.0272 35,75.5C 34.7679,74.2625 34.2679,73.2625 33.5,72.5C 33.7135,70.8561 33.3802,69.3561 32.5,68C 35.9992,68.6582 39.4992,68.4915 43,67.5C 44.9022,65.3732 46.5688,63.0398 48,60.5C 50.4396,68.4732 55.2729,70.4732 62.5,66.5C 63.6559,67.5761 63.4892,68.5761 62,69.5C 60.3464,75.8846 62.5131,80.3846 68.5,83C 61.2872,85.4921 59.6205,90.1587 63.5,97C 56.1612,93.8267 50.8278,95.9934 47.5,103.5C 46.6601,100.633 44.9935,98.4667 42.5,97C 38.9984,96.718 35.6651,96.5513 32.5,96.5C 35.2834,89.7148 33.2834,85.2148 26.5,83C 28.3875,81.6063 30.3875,80.4396 32.5,79.5 Z"/></g>
<g><path style="opacity:1" fill="#8c837f" d="M 20.5,88.5 C 22.2519,91.672 24.2519,94.672 26.5,97.5C 27.8333,100.833 30.1667,103.167 33.5,104.5C 35.6036,105.912 37.9369,106.912 40.5,107.5C 46.4729,108.656 52.4729,108.656 58.5,107.5C 56.042,109.713 53.042,110.879 49.5,111C 50.7932,111.49 52.1266,111.657 53.5,111.5C 46.9423,113.174 40.609,112.508 34.5,109.5C 35.552,109.649 36.552,109.483 37.5,109C 28.2737,104.955 22.6071,98.1219 20.5,88.5 Z"/></g>
<g><path style="opacity:1" fill="#634a46" d="M 40.5,107.5 C 37.9369,106.912 35.6036,105.912 33.5,104.5C 35.6451,103.011 37.9785,102.011 40.5,101.5C 41.2751,103.612 41.2751,105.612 40.5,107.5 Z"/></g>
<g><path style="opacity:1" fill="#543e2a" d="M 58.5,107.5 C 52.4729,108.656 46.4729,108.656 40.5,107.5C 41.2751,105.612 41.2751,103.612 40.5,101.5C 37.9785,102.011 35.6451,103.011 33.5,104.5C 30.1667,103.167 27.8333,100.833 26.5,97.5C 27.388,94.9455 27.7214,92.2788 27.5,89.5C 24.0897,89.6162 22.7564,87.9496 23.5,84.5C 25.1274,86.4637 27.1274,87.797 29.5,88.5C 29.5,92.5 29.5,96.5 29.5,100.5C 32.909,100.751 36.2423,100.417 39.5,99.5C 41.8399,102.673 44.6732,105.339 48,107.5C 52.3604,105.632 54.5271,102.298 54.5,97.5C 57.6128,100.192 61.2795,101.192 65.5,100.5C 65.7592,96.7604 65.4259,93.0938 64.5,89.5C 66.1083,88.6816 67.7749,88.0149 69.5,87.5C 73.5904,81.9975 72.2571,78.3308 65.5,76.5C 66.1621,72.5341 66.4955,68.5341 66.5,64.5C 64.3037,64.41 62.137,64.0767 60,63.5C 58.1049,63.6148 56.4382,64.2815 55,65.5C 50.7334,55.3852 45.9001,55.0518 40.5,64.5C 37.0417,62.5192 33.375,62.1859 29.5,63.5C 29.5,63.1667 29.5,62.8333 29.5,62.5C 44.575,51.854 58.075,53.5207 70,67.5C 77.9507,84.2566 74.1174,97.5899 58.5,107.5 Z"/></g>
<g><path style="opacity:1" fill="#d9c0b2" d="M 55.5,91.5 C 55.8333,91.5 56.1667,91.5 56.5,91.5C 55.8777,93.335 54.5444,94.5017 52.5,95C 49.5184,95.498 46.5184,95.6646 43.5,95.5C 43.8417,94.6618 44.5084,94.3284 45.5,94.5C 49.3375,94.9784 52.6709,93.9784 55.5,91.5 Z"/></g>
<g><path style="opacity:1" fill="#501e17" d="M 55.5,91.5 C 52.6709,93.9784 49.3375,94.9784 45.5,94.5C 43.1898,93.675 41.1898,92.3417 39.5,90.5C 41.4672,90.7394 43.3005,90.4061 45,89.5C 45.6172,90.4491 45.4506,91.2825 44.5,92C 48.3278,94.2917 50.4944,93.1251 51,88.5C 52.4087,89.7811 53.9087,90.7811 55.5,91.5 Z"/></g>
<g><path style="opacity:1" fill="#716d69" d="M 25.5,128.5 C 36.3312,128.746 42.3312,134.246 43.5,145C 42.9275,148.384 41.7608,151.551 40,154.5C 38.871,156.141 37.371,157.141 35.5,157.5C 41.6159,152.033 42.9492,145.7 39.5,138.5C 37.7376,137.738 36.7376,136.404 36.5,134.5C 36.0472,133.542 35.3805,132.708 34.5,132C 31.3379,130.973 28.3379,129.806 25.5,128.5 Z"/></g>
<g><path style="opacity:1" fill="#88807a" d="M 80.5,133.5 C 79.9569,133.56 79.6236,133.893 79.5,134.5C 80.6302,135.622 81.2969,136.956 81.5,138.5C 79.3443,136.845 77.3443,135.011 75.5,133C 72.8056,131.81 70.1389,131.644 67.5,132.5C 67.6236,133.107 67.9569,133.44 68.5,133.5C 68.3404,135.153 67.6737,136.486 66.5,137.5C 65.615,133.736 63.4484,132.736 60,134.5C 55.9314,138.915 54.5981,143.915 56,149.5C 59.9226,157.475 66.0893,159.975 74.5,157C 73.1667,156.667 71.8333,156.333 70.5,156C 72.1962,154.734 74.0295,154.9 76,156.5C 76.8373,154.993 78.0039,154.493 79.5,155C 77.8442,156.829 75.8442,158.163 73.5,159C 74.0944,159.464 74.7611,159.631 75.5,159.5C 65.1463,163.25 57.6463,159.917 53,149.5C 51.7497,134.75 58.583,127.917 73.5,129C 76.2565,129.938 78.5899,131.438 80.5,133.5 Z"/></g>
<g><path style="opacity:1" fill="#584537" d="M 24.5,133.5 C 24.4488,137.984 22.6154,138.65 19,135.5C 18.6667,136.5 18.3333,137.5 18,138.5C 17.6667,138.167 17.3333,137.833 17,137.5C 14.7323,141.656 15.399,142.322 19,139.5C 19.4828,140.448 19.6495,141.448 19.5,142.5C 18.1266,142.343 16.7932,142.51 15.5,143C 14.2264,143.977 14.2264,144.811 15.5,145.5C 14.0556,149.423 13.389,149.09 13.5,144.5C 13.8457,138.081 16.679,134.081 22,132.5C 22.3333,133.5 22.6667,134.5 23,135.5C 23.1587,133.657 23.6587,132.991 24.5,133.5 Z"/></g>
<g><path style="opacity:1" fill="#64513b" d="M 81.5,138.5 C 80.9473,142.456 80.1139,142.456 79,138.5C 78.9736,141.105 77.807,142.271 75.5,142C 76.8613,140.416 77.528,138.582 77.5,136.5C 75.2841,136.275 73.6174,137.108 72.5,139C 75.591,142.029 75.9244,145.196 73.5,148.5C 75.2062,141.051 72.3728,138.717 65,141.5C 64.5357,140.906 64.369,140.239 64.5,139.5C 66.4835,139.617 68.1502,138.95 69.5,137.5C 70.086,137.709 70.586,138.043 71,138.5C 71.6667,136.833 71.6667,135.167 71,133.5C 70.0228,132.226 69.1894,132.226 68.5,133.5C 67.9569,133.44 67.6236,133.107 67.5,132.5C 70.1389,131.644 72.8056,131.81 75.5,133C 77.3443,135.011 79.3443,136.845 81.5,138.5 Z"/></g>
<g><path style="opacity:1" fill="#baa686" d="M 27.5,133.5 C 28.7942,137.223 29.9609,137.223 31,133.5C 31.7096,134.973 32.8762,135.64 34.5,135.5C 34.6427,137.262 34.3094,138.929 33.5,140.5C 33.8333,140.833 34.1667,141.167 34.5,141.5C 35.668,138.531 37.0013,138.198 38.5,140.5C 37.9747,141.192 37.3081,141.692 36.5,142C 37.428,142.388 38.0946,143.055 38.5,144C 36.8253,145.502 35.1587,147.002 33.5,148.5C 34.1667,149.833 34.8333,151.167 35.5,152.5C 33.2287,153.363 30.8954,153.363 28.5,152.5C 28.7778,154.346 28.1112,155.68 26.5,156.5C 24.8888,155.68 24.2222,154.346 24.5,152.5C 22.901,152.232 21.5676,152.566 20.5,153.5C 19.5,153.5 18.5,153.5 17.5,153.5C 17.2525,151.142 17.9192,149.142 19.5,147.5C 18.3285,146.655 16.9952,145.989 15.5,145.5C 14.2264,144.811 14.2264,143.977 15.5,143C 16.7932,142.51 18.1266,142.343 19.5,142.5C 19.6495,141.448 19.4828,140.448 19,139.5C 15.399,142.322 14.7323,141.656 17,137.5C 17.3333,137.833 17.6667,138.167 18,138.5C 18.3333,137.5 18.6667,136.5 19,135.5C 22.6154,138.65 24.4488,137.984 24.5,133.5C 25.5,132.167 26.5,132.167 27.5,133.5 Z"/></g>
<g><path style="opacity:1" fill="#6d563c" d="M 29.5,150.5 C 33.5787,143.274 31.5787,140.108 23.5,141C 21.0728,142.554 21.0728,143.721 23.5,144.5C 23.5,145.167 23.5,145.833 23.5,146.5C 22.2264,147.189 22.2264,148.023 23.5,149C 25.3817,149.198 27.0484,149.698 28.5,150.5C 28.2648,151.097 27.7648,151.43 27,151.5C 24.7744,151.022 22.6077,150.355 20.5,149.5C 19.2491,146.09 19.2491,142.423 20.5,138.5C 22.5914,138.682 24.5914,138.348 26.5,137.5C 30.027,138.851 32.6937,141.185 34.5,144.5C 32.8955,146.179 32.2289,148.179 32.5,150.5C 31.5,150.5 30.5,150.5 29.5,150.5 Z"/></g>
<g><path style="opacity:1" fill="#bf5652" d="M 29.5,143.5 C 30.404,144.209 30.7373,145.209 30.5,146.5C 29.5,146.5 28.5,146.5 27.5,146.5C 25.9519,146.179 25.2852,145.179 25.5,143.5C 26.8333,143.5 28.1667,143.5 29.5,143.5 Z"/></g>
<g><path style="opacity:1" fill="#773528" d="M 29.5,143.5 C 28.1667,143.5 26.8333,143.5 25.5,143.5C 25.2852,145.179 25.9519,146.179 27.5,146.5C 27.6309,147.376 27.2975,148.043 26.5,148.5C 25.2613,148.058 24.2613,147.391 23.5,146.5C 23.5,145.833 23.5,145.167 23.5,144.5C 25.0973,141.016 27.0973,140.683 29.5,143.5 Z"/></g>
<g><path style="opacity:1" fill="#a6775d" d="M 29.5,150.5 C 29.1667,150.5 28.8333,150.5 28.5,150.5C 27.0484,149.698 25.3817,149.198 23.5,149C 22.2264,148.023 22.2264,147.189 23.5,146.5C 24.2613,147.391 25.2613,148.058 26.5,148.5C 27.2975,148.043 27.6309,147.376 27.5,146.5C 28.5,146.5 29.5,146.5 30.5,146.5C 30.7373,145.209 30.404,144.209 29.5,143.5C 27.0973,140.683 25.0973,141.016 23.5,144.5C 21.0728,143.721 21.0728,142.554 23.5,141C 31.5787,140.108 33.5787,143.274 29.5,150.5 Z"/></g>
<g><path style="opacity:1" fill="#b7a386" d="M 64.5,139.5 C 63.6963,141.189 62.6963,142.855 61.5,144.5C 62.3482,146.409 62.6816,148.409 62.5,150.5C 64.7345,150.38 66.9011,150.713 69,151.5C 71.1845,151.302 72.6845,150.302 73.5,148.5C 75.9244,145.196 75.591,142.029 72.5,139C 73.6174,137.108 75.2841,136.275 77.5,136.5C 77.528,138.582 76.8613,140.416 75.5,142C 77.807,142.271 78.9736,141.105 79,138.5C 80.1139,142.456 80.9473,142.456 81.5,138.5C 83.8858,142.646 84.0524,146.98 82,151.5C 81.8333,150.833 81.6667,150.167 81.5,149.5C 82.5826,147.125 82.5826,144.792 81.5,142.5C 80.7189,143.729 80.2189,145.062 80,146.5C 78.1554,147.05 76.6554,148.05 75.5,149.5C 76.6161,149.402 77.6161,149.902 78.5,151C 78.3893,152.722 77.8893,152.888 77,151.5C 76.5172,152.448 76.3505,153.448 76.5,154.5C 74.5165,154.617 72.8498,153.95 71.5,152.5C 70.6399,154.931 68.9732,156.264 66.5,156.5C 66.157,152.562 64.157,151.562 60.5,153.5C 59.775,150.942 59.775,148.608 60.5,146.5C 59.4164,147.665 58.5831,148.998 58,150.5C 56.5486,147.628 56.3819,144.628 57.5,141.5C 58.8333,141.5 60.1667,141.5 61.5,141.5C 60.676,135.956 62.3426,134.623 66.5,137.5C 67.6737,136.486 68.3404,135.153 68.5,133.5C 69.1894,132.226 70.0228,132.226 71,133.5C 71.6667,135.167 71.6667,136.833 71,138.5C 70.586,138.043 70.086,137.709 69.5,137.5C 68.1502,138.95 66.4835,139.617 64.5,139.5 Z"/></g>
<g><path style="opacity:1" fill="#3f2e18" d="M 19.5,147.5 C 17.9192,149.142 17.2525,151.142 17.5,153.5C 18.5,153.5 19.5,153.5 20.5,153.5C 20.1667,154.167 19.8333,154.833 19.5,155.5C 18.609,154.89 17.609,154.557 16.5,154.5C 15.0391,151.09 16.0391,148.757 19.5,147.5 Z"/></g>
<g><path style="opacity:1" fill="#65533d" d="M 27.5,133.5 C 28.2739,132.853 29.2739,132.52 30.5,132.5C 32.6931,132.719 34.6931,133.385 36.5,134.5C 36.7376,136.404 37.7376,137.738 39.5,138.5C 42.2088,149.75 37.8755,156.416 26.5,158.5C 23.7082,158.239 21.3749,157.239 19.5,155.5C 19.8333,154.833 20.1667,154.167 20.5,153.5C 21.5676,152.566 22.901,152.232 24.5,152.5C 24.2222,154.346 24.8888,155.68 26.5,156.5C 28.1112,155.68 28.7778,154.346 28.5,152.5C 30.8954,153.363 33.2287,153.363 35.5,152.5C 34.8333,151.167 34.1667,149.833 33.5,148.5C 35.1587,147.002 36.8253,145.502 38.5,144C 38.0946,143.055 37.428,142.388 36.5,142C 37.3081,141.692 37.9747,141.192 38.5,140.5C 37.0013,138.198 35.668,138.531 34.5,141.5C 34.1667,141.167 33.8333,140.833 33.5,140.5C 34.3094,138.929 34.6427,137.262 34.5,135.5C 32.8762,135.64 31.7096,134.973 31,133.5C 29.9609,137.223 28.7942,137.223 27.5,133.5 Z"/></g>
<g><path style="opacity:1" fill="#a29992" d="M 39.5,138.5 C 42.9492,145.7 41.6159,152.033 35.5,157.5C 34.3303,159.279 32.6636,160.279 30.5,160.5C 26.9464,159.751 23.2797,158.918 19.5,158C 17.9371,157.241 16.9371,156.074 16.5,154.5C 17.609,154.557 18.609,154.89 19.5,155.5C 21.3749,157.239 23.7082,158.239 26.5,158.5C 37.8755,156.416 42.2088,149.75 39.5,138.5 Z"/></g>
<g><path style="opacity:1" fill="#665646" d="M 66.5,137.5 C 62.3426,134.623 60.676,135.956 61.5,141.5C 60.1667,141.5 58.8333,141.5 57.5,141.5C 56.3819,144.628 56.5486,147.628 58,150.5C 58.5831,148.998 59.4164,147.665 60.5,146.5C 59.775,148.608 59.775,150.942 60.5,153.5C 64.157,151.562 66.157,152.562 66.5,156.5C 68.9732,156.264 70.6399,154.931 71.5,152.5C 72.8498,153.95 74.5165,154.617 76.5,154.5C 76.3505,153.448 76.5172,152.448 77,151.5C 77.8893,152.888 78.3893,152.722 78.5,151C 77.6161,149.902 76.6161,149.402 75.5,149.5C 76.6554,148.05 78.1554,147.05 80,146.5C 80.2189,145.062 80.7189,143.729 81.5,142.5C 82.5826,144.792 82.5826,147.125 81.5,149.5C 81.6667,150.167 81.8333,150.833 82,151.5C 84.0524,146.98 83.8858,142.646 81.5,138.5C 81.2969,136.956 80.6302,135.622 79.5,134.5C 79.6236,133.893 79.9569,133.56 80.5,133.5C 84.3744,138.808 85.5411,144.808 84,151.5C 81.953,155.048 79.1197,157.715 75.5,159.5C 74.7611,159.631 74.0944,159.464 73.5,159C 75.8442,158.163 77.8442,156.829 79.5,155C 78.0039,154.493 76.8373,154.993 76,156.5C 74.0295,154.9 72.1962,154.734 70.5,156C 71.8333,156.333 73.1667,156.667 74.5,157C 66.0893,159.975 59.9226,157.475 56,149.5C 54.5981,143.915 55.9314,138.915 60,134.5C 63.4484,132.736 65.615,133.736 66.5,137.5 Z"/></g>
<g><path style="opacity:1" fill="#815e4f" d="M 64.5,139.5 C 64.369,140.239 64.5357,140.906 65,141.5C 72.3728,138.717 75.2062,141.051 73.5,148.5C 72.6845,150.302 71.1845,151.302 69,151.5C 66.9011,150.713 64.7345,150.38 62.5,150.5C 62.6816,148.409 62.3482,146.409 61.5,144.5C 62.6963,142.855 63.6963,141.189 64.5,139.5 Z"/></g>
<g><path style="opacity:1" fill="#763324" d="M 71.5,143.5 C 70.1667,143.5 68.8333,143.5 67.5,143.5C 67.3915,145.514 68.0582,147.18 69.5,148.5C 65.9286,148.592 64.7619,146.926 66,143.5C 67.9688,140.876 69.8022,140.876 71.5,143.5 Z"/></g>
<g><path style="opacity:1" fill="#bc5c4f" d="M 71.5,143.5 C 71.9227,145.781 71.256,147.448 69.5,148.5C 68.0582,147.18 67.3915,145.514 67.5,143.5C 68.8333,143.5 70.1667,143.5 71.5,143.5 Z"/></g>
<g><path style="opacity:1" fill="#887e79" d="M 25.5,128.5 C 28.3379,129.806 31.3379,130.973 34.5,132C 35.3805,132.708 36.0472,133.542 36.5,134.5C 34.6931,133.385 32.6931,132.719 30.5,132.5C 29.2739,132.52 28.2739,132.853 27.5,133.5C 26.5,132.167 25.5,132.167 24.5,133.5C 23.6587,132.991 23.1587,133.657 23,135.5C 22.6667,134.5 22.3333,133.5 22,132.5C 16.679,134.081 13.8457,138.081 13.5,144.5C 13.389,149.09 14.0556,149.423 15.5,145.5C 16.9952,145.989 18.3285,146.655 19.5,147.5C 16.0391,148.757 15.0391,151.09 16.5,154.5C 16.9371,156.074 17.9371,157.241 19.5,158C 23.2797,158.918 26.9464,159.751 30.5,160.5C 20.139,161.974 13.639,157.641 11,147.5C 9.75463,136.874 14.588,130.541 25.5,128.5 Z"/></g>
</svg>
