<?xml version="1.0" encoding="UTF-8"?>
<!DOCTYPE svg PUBLIC "-//W3C//DTD SVG 1.1//EN" "http://www.w3.org/Graphics/SVG/1.1/DTD/svg11.dtd">
<svg xmlns="http://www.w3.org/2000/svg" version="1.1" width="100px" height="165px" style="shape-rendering:geometricPrecision; text-rendering:geometricPrecision; image-rendering:optimizeQuality; fill-rule:evenodd; clip-rule:evenodd" xmlns:xlink="http://www.w3.org/1999/xlink">
<g><path style="opacity:1" fill="#fafaf9" d="M -0.5,-0.5 C 6.83333,-0.5 14.1667,-0.5 21.5,-0.5C 21.108,2.67575 21.108,5.67575 21.5,8.5C 20.5269,10.9479 20.1936,13.6146 20.5,16.5C 20.5,16.8333 20.5,17.1667 20.5,17.5C 19.325,17.281 18.325,17.6143 17.5,18.5C 13.8092,26.1003 15.1425,32.4337 21.5,37.5C 21.5,39.8333 21.5,42.1667 21.5,44.5C 15.1152,43.2136 13.1152,45.5469 15.5,51.5C 16.7258,53.2779 18.3925,54.2779 20.5,54.5C 21.3382,54.8417 21.6716,55.5084 21.5,56.5C 20.8333,56.5 20.5,56.8333 20.5,57.5C 21.3234,60.4606 21.99,63.4606 22.5,66.5C 22.5,68.1667 22.5,69.8333 22.5,71.5C 22.4142,72.4959 22.7476,73.3292 23.5,74C 21.6063,76.7302 19.273,78.8969 16.5,80.5C 15.8333,80.5 15.5,80.8333 15.5,81.5C 14.0337,82.347 13.2004,83.6803 13,85.5C 12.2588,84.3595 11.4255,84.3595 10.5,85.5C 9.41728,86.365 9.25061,87.365 10,88.5C 13.2427,89.5885 16.5761,89.5885 20,88.5C 22.2875,90.2368 22.7875,92.5701 21.5,95.5C 21.9234,96.2646 22.2568,97.0979 22.5,98C 20.8501,102.346 20.1835,106.846 20.5,111.5C 14.7991,112.476 13.1324,115.643 15.5,121C 17.1341,121.494 18.8008,121.66 20.5,121.5C 20.5,124.167 20.5,126.833 20.5,129.5C 14.92,133.084 13.42,138.084 16,144.5C 16.7083,145.381 17.5416,146.047 18.5,146.5C 18.8417,147.338 19.5084,147.672 20.5,147.5C 21.4025,150.391 21.7359,153.391 21.5,156.5C 22.3195,158.812 23.1529,161.146 24,163.5C 24.3333,162.833 24.6667,162.167 25,161.5C 25.985,162.814 27.1516,163.814 28.5,164.5C 18.8333,164.5 9.16667,164.5 -0.5,164.5C -0.5,109.5 -0.5,54.5 -0.5,-0.5 Z"/></g>
<g><path style="opacity:1" fill="#f8f8f7" d="M 21.5,-0.5 C 47.5,-0.5 73.5,-0.5 99.5,-0.5C 99.5,54.5 99.5,109.5 99.5,164.5C 75.8333,164.5 52.1667,164.5 28.5,164.5C 27.1516,163.814 25.985,162.814 25,161.5C 24.6667,162.167 24.3333,162.833 24,163.5C 23.1529,161.146 22.3195,158.812 21.5,156.5C 22.8846,157.574 24.0513,158.907 25,160.5C 28.6276,157.705 30.1276,154.038 29.5,149.5C 32.9214,148.947 36.0881,147.614 39,145.5C 38.9813,147.107 38.8146,148.774 38.5,150.5C 38.5,150.833 38.5,151.167 38.5,151.5C 37.0427,153.242 35.876,155.242 35,157.5C 34.2506,158.635 34.4173,159.635 35.5,160.5C 38.9563,158.861 42.1229,156.861 45,154.5C 47.1619,160.323 50.3286,161.323 54.5,157.5C 55.4674,156.194 56.8007,155.527 58.5,155.5C 60.5286,157.084 62.8619,158.417 65.5,159.5C 66.4688,156.736 65.8022,154.402 63.5,152.5C 63.5,151.833 63.5,151.167 63.5,150.5C 62.8333,148.833 62.1667,147.167 61.5,145.5C 64.6871,147.178 68.0204,148.512 71.5,149.5C 71.8333,149.5 72.1667,149.5 72.5,149.5C 72.4759,152.987 73.9759,155.653 77,157.5C 78.0299,157.164 78.5299,156.497 78.5,155.5C 79.8402,152.57 81.1736,149.57 82.5,146.5C 87.998,141.097 87.8314,135.764 82,130.5C 81.8195,127.305 81.3195,124.305 80.5,121.5C 80.5,121.167 80.5,120.833 80.5,120.5C 82.8863,120.741 84.8863,120.075 86.5,118.5C 87.162,116.696 87.4954,114.696 87.5,112.5C 87.4101,110.036 86.7435,107.87 85.5,106C 86.1667,105.667 86.8333,105.333 87.5,105C 87.3062,102.903 87.3062,100.737 87.5,98.5C 86.0701,98.6938 84.5701,98.6938 83,98.5C 82.342,100.108 82.842,101.275 84.5,102C 82.892,102.658 81.7253,102.158 81,100.5C 80.5065,98.8659 80.3398,97.1992 80.5,95.5C 84.4089,96.2634 85.7422,94.9301 84.5,91.5C 85.5,90.6667 86.5,89.8333 87.5,89C 83.5168,89.2753 83.5168,88.2753 87.5,86C 84.8333,85.3333 84.8333,84.6667 87.5,84C 86.3066,82.9054 84.9733,82.072 83.5,81.5C 82.391,81.4431 81.391,81.1098 80.5,80.5C 79.9717,79.2794 79.305,78.1127 78.5,77C 75.5184,76.502 72.5184,76.3354 69.5,76.5C 62.4921,76.6663 55.4921,76.4996 48.5,76C 47.4019,75.2303 47.4019,74.397 48.5,73.5C 52.0906,73.6883 55.4239,72.855 58.5,71C 60.4641,69.549 61.7974,67.7157 62.5,65.5C 63.9923,64.3926 64.9923,62.8926 65.5,61C 65.6134,59.3009 64.9468,58.1342 63.5,57.5C 61.136,53.2397 59.4694,48.7397 58.5,44C 58.8272,38.8544 60.1606,34.0211 62.5,29.5C 63.8853,28.3862 65.3853,27.3862 67,26.5C 67.2321,27.7375 67.7321,28.7375 68.5,29.5C 68.7903,32.1273 70.1236,33.7939 72.5,34.5C 72.5,37.8333 72.5,41.1667 72.5,44.5C 66.5579,43.9072 65.0579,46.2406 68,51.5C 69.8121,52.9771 71.6455,54.3104 73.5,55.5C 74.0508,58.8067 74.3841,62.1401 74.5,65.5C 74.5,65.8333 74.5,66.1667 74.5,66.5C 74.5,68.1667 74.5,69.8333 74.5,71.5C 78.5,72.1667 80.1667,70.5 79.5,66.5C 79.2627,65.209 79.596,64.209 80.5,63.5C 81.4767,60.7131 81.81,57.7131 81.5,54.5C 86.3888,52.7225 88.0555,49.3892 86.5,44.5C 85.0052,43.2947 83.6719,43.2947 82.5,44.5C 81.5233,41.7131 81.19,38.7131 81.5,35.5C 82.7888,34.3634 83.7888,33.0301 84.5,31.5C 85.9063,31.0269 86.573,30.0269 86.5,28.5C 87.9171,25.6596 87.5838,22.993 85.5,20.5C 84.5,18.8333 83.1667,17.5 81.5,16.5C 78.9796,3.89275 75.9796,3.55942 72.5,15.5C 71.0413,15.4326 69.7079,15.7659 68.5,16.5C 66.321,16.84 64.4877,17.84 63,19.5C 62.5357,18.9056 62.369,18.2389 62.5,17.5C 63.919,13.5739 65.5857,9.74057 67.5,6C 67.1667,5.5 66.8333,5 66.5,4.5C 63.5914,6.35608 60.5914,8.02274 57.5,9.5C 54.9652,7.83024 52.7986,5.83024 51,3.5C 49.2653,5.61123 47.432,7.61123 45.5,9.5C 42.0255,8.84299 38.8588,7.50965 36,5.5C 35.5,5.83333 35,6.16667 34.5,6.5C 36.5649,10.2055 38.5649,13.8722 40.5,17.5C 40.5,18.5 40.5,19.5 40.5,20.5C 38.6854,19.3702 36.6854,18.7036 34.5,18.5C 33.713,16.8958 32.3797,16.2291 30.5,16.5C 30.1667,16.5 29.8333,16.5 29.5,16.5C 30.609,11.5109 28.9424,7.84428 24.5,5.5C 23.7124,6.77013 22.7124,7.77013 21.5,8.5C 21.108,5.67575 21.108,2.67575 21.5,-0.5 Z"/></g>
<g><path style="opacity:1" fill="#47778f" d="M 29.5,16.5 C 28.8333,20.8333 28.1667,25.1667 27.5,29.5C 27.9579,22.6548 27.4579,15.9881 26,9.5C 24.9334,16.2916 24.7668,22.9583 25.5,29.5C 24.1667,29.5 22.8333,29.5 21.5,29.5C 22.3316,24.5192 22.4983,19.5192 22,14.5C 21.7216,15.4158 21.2216,16.0825 20.5,16.5C 20.1936,13.6146 20.5269,10.9479 21.5,8.5C 22.7124,7.77013 23.7124,6.77013 24.5,5.5C 28.9424,7.84428 30.609,11.5109 29.5,16.5 Z"/></g>
<g><path style="opacity:1" fill="#3e7089" d="M 81.5,16.5 C 80.174,19.8028 80.174,23.1361 81.5,26.5C 81.0431,27.2975 80.3764,27.6309 79.5,27.5C 79.9101,21.3792 79.4101,15.3792 78,9.5C 77.2075,16.2474 77.3742,22.9141 78.5,29.5C 76.4862,29.6085 74.8195,28.9418 73.5,27.5C 73.8168,23.2984 73.4834,19.2984 72.5,15.5C 75.9796,3.55942 78.9796,3.89275 81.5,16.5 Z"/></g>
<g><path style="opacity:1" fill="#9d8665" d="M 68.5,16.5 C 69.209,17.404 70.209,17.7373 71.5,17.5C 71.7845,19.4147 71.4511,21.0813 70.5,22.5C 70.5,21.1667 70.5,19.8333 70.5,18.5C 65.6639,18.724 62.6639,21.0573 61.5,25.5C 60.1667,25.5 58.8333,25.5 57.5,25.5C 57.5,25.1667 57.5,24.8333 57.5,24.5C 58.4959,24.5858 59.3292,24.2524 60,23.5C 60.8447,21.3885 61.678,19.3885 62.5,17.5C 62.369,18.2389 62.5357,18.9056 63,19.5C 64.4877,17.84 66.321,16.84 68.5,16.5 Z"/></g>
<g><path style="opacity:1" fill="#54a4d0" d="M 27.5,29.5 C 26.8333,29.5 26.1667,29.5 25.5,29.5C 24.7668,22.9583 24.9334,16.2916 26,9.5C 27.4579,15.9881 27.9579,22.6548 27.5,29.5 Z"/></g>
<g><path style="opacity:1" fill="#d5bd74" d="M 70.5,22.5 C 67.328,24.2519 64.328,26.2519 61.5,28.5C 61.5,27.5 61.5,26.5 61.5,25.5C 62.6639,21.0573 65.6639,18.724 70.5,18.5C 70.5,19.8333 70.5,21.1667 70.5,22.5 Z"/></g>
<g><path style="opacity:1" fill="#58b7d8" d="M 79.5,27.5 C 79.6716,28.4916 79.3382,29.1583 78.5,29.5C 77.3742,22.9141 77.2075,16.2474 78,9.5C 79.4101,15.3792 79.9101,21.3792 79.5,27.5 Z"/></g>
<g><path style="opacity:1" fill="#46443a" d="M 81.5,16.5 C 83.1667,17.5 84.5,18.8333 85.5,20.5C 85.316,22.9248 84.6493,22.9248 83.5,20.5C 81.5764,21.9653 81.2431,23.632 82.5,25.5C 82.5792,26.9305 82.2458,28.2638 81.5,29.5C 79.2573,30.4742 76.924,30.8076 74.5,30.5C 73.8902,29.609 73.5569,28.609 73.5,27.5C 74.8195,28.9418 76.4862,29.6085 78.5,29.5C 79.3382,29.1583 79.6716,28.4916 79.5,27.5C 80.3764,27.6309 81.0431,27.2975 81.5,26.5C 80.174,23.1361 80.174,19.8028 81.5,16.5 Z"/></g>
<g><path style="opacity:1" fill="#2f444b" d="M 21.5,29.5 C 21.1667,29.5 20.8333,29.5 20.5,29.5C 20.2436,27.2075 20.5769,25.0408 21.5,23C 20.6872,21.6861 19.6872,20.5195 18.5,19.5C 19.2427,18.8182 19.9094,18.1515 20.5,17.5C 20.5,17.1667 20.5,16.8333 20.5,16.5C 21.2216,16.0825 21.7216,15.4158 22,14.5C 22.4983,19.5192 22.3316,24.5192 21.5,29.5 Z"/></g>
<g><path style="opacity:1" fill="#8d494e" d="M 62.5,17.5 C 61.678,19.3885 60.8447,21.3885 60,23.5C 59.3292,24.2524 58.4959,24.5858 57.5,24.5C 52.3446,26.1685 47.5112,25.5019 43,22.5C 41.9914,20.9751 41.4914,19.3084 41.5,17.5C 41.1667,17.5 40.8333,17.5 40.5,17.5C 38.5649,13.8722 36.5649,10.2055 34.5,6.5C 35,6.16667 35.5,5.83333 36,5.5C 38.8588,7.50965 42.0255,8.84299 45.5,9.5C 47.432,7.61123 49.2653,5.61123 51,3.5C 52.7986,5.83024 54.9652,7.83024 57.5,9.5C 60.5914,8.02274 63.5914,6.35608 66.5,4.5C 66.8333,5 67.1667,5.5 67.5,6C 65.5857,9.74057 63.919,13.5739 62.5,17.5 Z"/></g>
<g><path style="opacity:1" fill="#ec4e4d" d="M 55.5,12.5 C 56.1667,12.5 56.8333,12.5 57.5,12.5C 58.5,12.5 59.5,12.5 60.5,12.5C 60.5,13.5 60.5,14.5 60.5,15.5C 60.1667,15.5 59.8333,15.5 59.5,15.5C 58.7326,16.172 58.0659,17.0053 57.5,18C 53.1667,18.6667 48.8333,18.6667 44.5,18C 42.6063,16.9207 42.273,15.5874 43.5,14C 45.9759,13.5764 48.3093,12.7431 50.5,11.5C 52.2665,12.2042 53.9331,12.5375 55.5,12.5 Z"/></g>
<g><path style="opacity:1" fill="#ce5056" d="M 55.5,12.5 C 53.9331,12.5375 52.2665,12.2042 50.5,11.5C 48.3093,12.7431 45.9759,13.5764 43.5,14C 42.273,15.5874 42.6063,16.9207 44.5,18C 48.8333,18.6667 53.1667,18.6667 57.5,18C 58.0659,17.0053 58.7326,16.172 59.5,15.5C 59.0981,19.7569 56.9314,21.4236 53,20.5C 52.2545,21.9904 51.0879,22.9904 49.5,23.5C 46.3284,22.0569 43.6617,20.0569 41.5,17.5C 40.6428,14.7077 39.8095,12.0411 39,9.5C 41.2119,10.6502 43.3786,11.6502 45.5,12.5C 47.1937,10.8063 48.8604,9.13962 50.5,7.5C 53.2123,8.21199 54.8789,9.87866 55.5,12.5 Z"/></g>
<g><path style="opacity:1" fill="#d0575d" d="M 60.5,15.5 C 60.5,14.5 60.5,13.5 60.5,12.5C 59.5,12.5 58.5,12.5 57.5,12.5C 59.0666,10.2181 61.0666,9.5514 63.5,10.5C 63.0428,12.5976 62.0428,14.2642 60.5,15.5 Z"/></g>
<g><path style="opacity:1" fill="#bb9971" d="M 30.5,16.5 C 32.3797,16.2291 33.713,16.8958 34.5,18.5C 34.5,18.8333 34.5,19.1667 34.5,19.5C 33.6236,19.3691 32.9569,19.7025 32.5,20.5C 33.1799,21.8599 33.8466,23.1932 34.5,24.5C 33.391,24.4431 32.391,24.1098 31.5,23.5C 30.5318,21.3926 30.1984,19.0593 30.5,16.5 Z"/></g>
<g><path style="opacity:1" fill="#f2d479" d="M 34.5,19.5 C 35.7495,20.7775 37.2495,21.7775 39,22.5C 39.7252,24.1575 39.2252,25.1575 37.5,25.5C 36.391,25.4431 35.391,25.1098 34.5,24.5C 33.8466,23.1932 33.1799,21.8599 32.5,20.5C 32.9569,19.7025 33.6236,19.3691 34.5,19.5 Z"/></g>
<g><path style="opacity:1" fill="#624b3a" d="M 72.5,15.5 C 73.4834,19.2984 73.8168,23.2984 73.5,27.5C 73.5569,28.609 73.8902,29.609 74.5,30.5C 73.5084,30.6716 72.8417,30.3382 72.5,29.5C 71.137,22.913 69.8037,22.913 68.5,29.5C 67.7321,28.7375 67.2321,27.7375 67,26.5C 65.3853,27.3862 63.8853,28.3862 62.5,29.5C 62.1667,29.5 61.8333,29.5 61.5,29.5C 61.5,29.1667 61.5,28.8333 61.5,28.5C 64.328,26.2519 67.328,24.2519 70.5,22.5C 71.4511,21.0813 71.7845,19.4147 71.5,17.5C 70.209,17.7373 69.209,17.404 68.5,16.5C 69.7079,15.7659 71.0413,15.4326 72.5,15.5 Z"/></g>
<g><path style="opacity:1" fill="#ab8d7c" d="M 85.5,20.5 C 87.5838,22.993 87.9171,25.6596 86.5,28.5C 85.71,27.3915 85.21,26.0581 85,24.5C 84.3292,25.2524 83.4959,25.5858 82.5,25.5C 81.2431,23.632 81.5764,21.9653 83.5,20.5C 84.6493,22.9248 85.316,22.9248 85.5,20.5 Z"/></g>
<g><path style="opacity:1" fill="#b8bd76" d="M 34.5,19.5 C 34.5,19.1667 34.5,18.8333 34.5,18.5C 36.6854,18.7036 38.6854,19.3702 40.5,20.5C 41.075,22.4113 42.075,24.078 43.5,25.5C 42.1667,26.5 40.8333,27.5 39.5,28.5C 38.0937,28.0269 37.427,27.0269 37.5,25.5C 39.2252,25.1575 39.7252,24.1575 39,22.5C 37.2495,21.7775 35.7495,20.7775 34.5,19.5 Z"/></g>
<g><path style="opacity:1" fill="#39323b" d="M 40.5,17.5 C 40.8333,17.5 41.1667,17.5 41.5,17.5C 41.4914,19.3084 41.9914,20.9751 43,22.5C 47.5112,25.5019 52.3446,26.1685 57.5,24.5C 57.5,24.8333 57.5,25.1667 57.5,25.5C 53.7031,27.7966 49.7031,28.1299 45.5,26.5C 45.1583,25.6618 44.4916,25.3284 43.5,25.5C 42.075,24.078 41.075,22.4113 40.5,20.5C 40.5,19.5 40.5,18.5 40.5,17.5 Z"/></g>
<g><path style="opacity:1" fill="#3b403d" d="M 29.5,16.5 C 29.8333,16.5 30.1667,16.5 30.5,16.5C 30.1984,19.0593 30.5318,21.3926 31.5,23.5C 30.0582,24.8195 29.3915,26.4862 29.5,28.5C 28.8515,30.5864 27.3515,31.5864 25,31.5C 23.3009,31.6134 22.1342,30.9468 21.5,29.5C 22.8333,29.5 24.1667,29.5 25.5,29.5C 26.1667,29.5 26.8333,29.5 27.5,29.5C 28.1667,25.1667 28.8333,20.8333 29.5,16.5 Z"/></g>
<g><path style="opacity:1" fill="#58abac" d="M 43.5,25.5 C 44.4916,25.3284 45.1583,25.6618 45.5,26.5C 44.1667,28.1667 42.8333,29.8333 41.5,31.5C 41.1667,31.5 40.8333,31.5 40.5,31.5C 40.4431,30.391 40.1098,29.391 39.5,28.5C 40.8333,27.5 42.1667,26.5 43.5,25.5 Z"/></g>
<g><path style="opacity:1" fill="#39a3c3" d="M 57.5,25.5 C 58.8333,25.5 60.1667,25.5 61.5,25.5C 61.5,26.5 61.5,27.5 61.5,28.5C 61.5,28.8333 61.5,29.1667 61.5,29.5C 60.8333,29.8333 60.1667,30.1667 59.5,30.5C 54.1429,29.3629 48.9762,29.3629 44,30.5C 44.3779,35.0798 44.5446,39.7464 44.5,44.5C 44.1667,44.5 43.8333,44.5 43.5,44.5C 43.7306,40.007 43.064,35.6737 41.5,31.5C 42.8333,29.8333 44.1667,28.1667 45.5,26.5C 49.7031,28.1299 53.7031,27.7966 57.5,25.5 Z"/></g>
<g><path style="opacity:1" fill="#7f7658" d="M 20.5,17.5 C 19.9094,18.1515 19.2427,18.8182 18.5,19.5C 19.6872,20.5195 20.6872,21.6861 21.5,23C 20.5769,25.0408 20.2436,27.2075 20.5,29.5C 19.5318,27.3926 19.1984,25.0593 19.5,22.5C 18.5,22.5 17.5,22.5 16.5,22.5C 15.9115,32.4302 20.2449,36.2636 29.5,34C 31.3959,32.1917 31.8959,30.025 31,27.5C 30.6174,28.056 30.1174,28.3893 29.5,28.5C 29.3915,26.4862 30.0582,24.8195 31.5,23.5C 32.391,24.1098 33.391,24.4431 34.5,24.5C 35.391,25.1098 36.391,25.4431 37.5,25.5C 37.427,27.0269 38.0937,28.0269 39.5,28.5C 40.1098,29.391 40.4431,30.391 40.5,31.5C 38.5193,29.8564 36.5193,28.1897 34.5,26.5C 33.6922,28.4233 33.1922,30.4233 33,32.5C 31.2927,34.0375 29.7927,35.7041 28.5,37.5C 26.1667,37.5 23.8333,37.5 21.5,37.5C 15.1425,32.4337 13.8092,26.1003 17.5,18.5C 18.325,17.6143 19.325,17.281 20.5,17.5 Z"/></g>
<g><path style="opacity:1" fill="#dacf8f" d="M 20.5,29.5 C 20.8333,29.5 21.1667,29.5 21.5,29.5C 22.1342,30.9468 23.3009,31.6134 25,31.5C 27.3515,31.5864 28.8515,30.5864 29.5,28.5C 30.1174,28.3893 30.6174,28.056 31,27.5C 31.8959,30.025 31.3959,32.1917 29.5,34C 20.2449,36.2636 15.9115,32.4302 16.5,22.5C 17.5,22.5 18.5,22.5 19.5,22.5C 19.1984,25.0593 19.5318,27.3926 20.5,29.5 Z"/></g>
<g><path style="opacity:1" fill="#aa8f77" d="M 72.5,29.5 C 71.3501,28.1498 70.6834,28.3164 70.5,30C 71.3146,31.6434 72.3146,33.1434 73.5,34.5C 73.1667,34.5 72.8333,34.5 72.5,34.5C 70.1236,33.7939 68.7903,32.1273 68.5,29.5C 69.8037,22.913 71.137,22.913 72.5,29.5 Z"/></g>
<g><path style="opacity:1" fill="#d6cd9a" d="M 86.5,28.5 C 86.573,30.0269 85.9063,31.0269 84.5,31.5C 82.5767,31.795 80.9101,32.6283 79.5,34C 77.5273,34.4955 75.5273,34.6621 73.5,34.5C 72.3146,33.1434 71.3146,31.6434 70.5,30C 70.6834,28.3164 71.3501,28.1498 72.5,29.5C 72.8417,30.3382 73.5084,30.6716 74.5,30.5C 76.924,30.8076 79.2573,30.4742 81.5,29.5C 82.2458,28.2638 82.5792,26.9305 82.5,25.5C 83.4959,25.5858 84.3292,25.2524 85,24.5C 85.21,26.0581 85.71,27.3915 86.5,28.5 Z"/></g>
<g><path style="opacity:1" fill="#646a4e" d="M 84.5,31.5 C 83.7888,33.0301 82.7888,34.3634 81.5,35.5C 80.1667,35.5 78.8333,35.5 77.5,35.5C 75.901,35.7678 74.5676,35.4345 73.5,34.5C 75.5273,34.6621 77.5273,34.4955 79.5,34C 80.9101,32.6283 82.5767,31.795 84.5,31.5 Z"/></g>
<g><path style="opacity:1" fill="#486264" d="M 72.5,34.5 C 72.8333,34.5 73.1667,34.5 73.5,34.5C 74.5676,35.4345 75.901,35.7678 77.5,35.5C 77.5,35.8333 77.5,36.1667 77.5,36.5C 76.5,36.5 75.5,36.5 74.5,36.5C 72.9234,40.9776 73.9234,44.6442 77.5,47.5C 77.8417,48.3382 78.5084,48.6716 79.5,48.5C 78.0813,49.4511 76.4147,49.7845 74.5,49.5C 73.032,48.2209 72.3653,46.5542 72.5,44.5C 72.5,41.1667 72.5,37.8333 72.5,34.5 Z"/></g>
<g><path style="opacity:1" fill="#1eabe2" d="M 59.5,30.5 C 58.2073,34.3837 57.5407,38.3837 57.5,42.5C 54.2422,44.8277 50.9089,47.161 47.5,49.5C 46.7255,47.6036 45.7255,45.937 44.5,44.5C 44.5446,39.7464 44.3779,35.0798 44,30.5C 48.9762,29.3629 54.1429,29.3629 59.5,30.5 Z"/></g>
<g><path style="opacity:1" fill="#2e6e86" d="M 77.5,36.5 C 77.5,36.8333 77.5,37.1667 77.5,37.5C 77.5,40.5 77.5,43.5 77.5,46.5C 77.5,46.8333 77.5,47.1667 77.5,47.5C 73.9234,44.6442 72.9234,40.9776 74.5,36.5C 75.5,36.5 76.5,36.5 77.5,36.5 Z"/></g>
<g><path style="opacity:1" fill="#65838e" d="M 77.5,35.5 C 78.8333,35.5 80.1667,35.5 81.5,35.5C 81.19,38.7131 81.5233,41.7131 82.5,44.5C 83.2389,44.369 83.9056,44.5357 84.5,45C 82.0643,45.2065 80.3976,46.3731 79.5,48.5C 78.5084,48.6716 77.8417,48.3382 77.5,47.5C 77.5,47.1667 77.5,46.8333 77.5,46.5C 78.1174,46.3893 78.6174,46.056 79,45.5C 79.6667,42.5 79.6667,39.5 79,36.5C 78.6174,37.056 78.1174,37.3893 77.5,37.5C 77.5,37.1667 77.5,36.8333 77.5,36.5C 77.5,36.1667 77.5,35.8333 77.5,35.5 Z"/></g>
<g><path style="opacity:1" fill="#6fadd1" d="M 77.5,46.5 C 77.5,43.5 77.5,40.5 77.5,37.5C 78.1174,37.3893 78.6174,37.056 79,36.5C 79.6667,39.5 79.6667,42.5 79,45.5C 78.6174,46.056 78.1174,46.3893 77.5,46.5 Z"/></g>
<g><path style="opacity:1" fill="#3b6a7d" d="M 21.5,37.5 C 23.8333,37.5 26.1667,37.5 28.5,37.5C 29.2186,39.7638 29.552,42.0971 29.5,44.5C 29.5,44.8333 29.5,45.1667 29.5,45.5C 28.8333,46.1667 28.1667,46.8333 27.5,47.5C 26.8333,35.5 26.1667,35.5 25.5,47.5C 23.5168,47.8432 22.1834,47.1765 21.5,45.5C 21.5,45.1667 21.5,44.8333 21.5,44.5C 21.5,42.1667 21.5,39.8333 21.5,37.5 Z"/></g>
<g><path style="opacity:1" fill="#5ba5c1" d="M 27.5,47.5 C 26.8333,48.8333 26.1667,48.8333 25.5,47.5C 26.1667,35.5 26.8333,35.5 27.5,47.5 Z"/></g>
<g><path style="opacity:1" fill="#8f8871" d="M 72.5,44.5 C 72.3653,46.5542 73.032,48.2209 74.5,49.5C 72.8333,49.5 71.1667,49.5 69.5,49.5C 69.6495,48.448 69.4828,47.448 69,46.5C 68.9574,50.1179 70.7907,52.4512 74.5,53.5C 74.6716,54.4916 74.3382,55.1583 73.5,55.5C 71.6455,54.3104 69.8121,52.9771 68,51.5C 65.0579,46.2406 66.5579,43.9072 72.5,44.5 Z"/></g>
<g><path style="opacity:1" fill="#99907b" d="M 82.5,44.5 C 83.6719,43.2947 85.0052,43.2947 86.5,44.5C 88.0555,49.3892 86.3888,52.7225 81.5,54.5C 81.5,53.8333 81.1667,53.5 80.5,53.5C 79.6016,52.8423 78.6016,52.1757 77.5,51.5C 79.1128,50.5726 80.7795,49.7393 82.5,49C 81.552,48.5172 80.552,48.3505 79.5,48.5C 80.3976,46.3731 82.0643,45.2065 84.5,45C 83.9056,44.5357 83.2389,44.369 82.5,44.5 Z"/></g>
<g><path style="opacity:1" fill="#a29b87" d="M 21.5,44.5 C 21.5,44.8333 21.5,45.1667 21.5,45.5C 20.596,46.209 20.2627,47.209 20.5,48.5C 19.2334,47.913 18.2334,47.913 17.5,48.5C 18.0654,50.5092 19.0654,52.1759 20.5,53.5C 20.5,53.8333 20.5,54.1667 20.5,54.5C 18.3925,54.2779 16.7258,53.2779 15.5,51.5C 13.1152,45.5469 15.1152,43.2136 21.5,44.5 Z"/></g>
<g><path style="opacity:1" fill="#3d4136" d="M 21.5,45.5 C 22.1834,47.1765 23.5168,47.8432 25.5,47.5C 26.1667,48.8333 26.8333,48.8333 27.5,47.5C 28.1667,46.8333 28.8333,46.1667 29.5,45.5C 29.5,46.8333 29.5,48.1667 29.5,49.5C 26.4299,49.6323 23.4299,49.299 20.5,48.5C 20.2627,47.209 20.596,46.209 21.5,45.5 Z"/></g>
<g><path style="opacity:1" fill="#b39b6f" d="M 29.5,53.5 C 26.5,53.5 23.5,53.5 20.5,53.5C 19.0654,52.1759 18.0654,50.5092 17.5,48.5C 18.2334,47.913 19.2334,47.913 20.5,48.5C 23.4299,49.299 26.4299,49.6323 29.5,49.5C 30.8671,50.8526 31.8671,50.5193 32.5,48.5C 29.8694,46.9954 30.2027,46.3287 33.5,46.5C 33.6567,47.8734 33.49,49.2068 33,50.5C 31.4815,51.1634 30.3149,52.1634 29.5,53.5 Z"/></g>
<g><path style="opacity:1" fill="#8a8270" d="M 29.5,44.5 C 34.0001,44.1638 35.8334,46.1638 35,50.5C 33.549,52.4641 31.7157,53.7974 29.5,54.5C 29.5,54.1667 29.5,53.8333 29.5,53.5C 30.3149,52.1634 31.4815,51.1634 33,50.5C 33.49,49.2068 33.6567,47.8734 33.5,46.5C 30.2027,46.3287 29.8694,46.9954 32.5,48.5C 31.8671,50.5193 30.8671,50.8526 29.5,49.5C 29.5,48.1667 29.5,46.8333 29.5,45.5C 29.5,45.1667 29.5,44.8333 29.5,44.5 Z"/></g>
<g><path style="opacity:1" fill="#d3b687" d="M 74.5,49.5 C 76.4147,49.7845 78.0813,49.4511 79.5,48.5C 80.552,48.3505 81.552,48.5172 82.5,49C 80.7795,49.7393 79.1128,50.5726 77.5,51.5C 78.6016,52.1757 79.6016,52.8423 80.5,53.5C 78.5,53.5 76.5,53.5 74.5,53.5C 70.7907,52.4512 68.9574,50.1179 69,46.5C 69.4828,47.448 69.6495,48.448 69.5,49.5C 71.1667,49.5 72.8333,49.5 74.5,49.5 Z"/></g>
<g><path style="opacity:1" fill="#6d4c43" d="M 20.5,54.5 C 20.5,54.1667 20.5,53.8333 20.5,53.5C 23.5,53.5 26.5,53.5 29.5,53.5C 29.5,53.8333 29.5,54.1667 29.5,54.5C 28.642,60.0166 27.8086,65.6832 27,71.5C 25.5098,72.7279 24.0098,72.7279 22.5,71.5C 22.5,69.8333 22.5,68.1667 22.5,66.5C 23.1174,66.6107 23.6174,66.944 24,67.5C 24.49,66.2068 24.6567,64.8734 24.5,63.5C 25.5,63.5 26.5,63.5 27.5,63.5C 27.6633,61.1432 27.4966,58.8098 27,56.5C 24.9579,56.1072 23.1246,56.1072 21.5,56.5C 21.6716,55.5084 21.3382,54.8417 20.5,54.5 Z"/></g>
<g><path style="opacity:1" fill="#3c6174" d="M 61.5,29.5 C 61.8333,29.5 62.1667,29.5 62.5,29.5C 60.1606,34.0211 58.8272,38.8544 58.5,44C 59.4694,48.7397 61.136,53.2397 63.5,57.5C 55.2299,58.5998 47.2299,58.5998 39.5,57.5C 43.0739,48.985 43.4072,40.3183 40.5,31.5C 40.8333,31.5 41.1667,31.5 41.5,31.5C 43.064,35.6737 43.7306,40.007 43.5,44.5C 43.8572,48.263 44.6905,51.9296 46,55.5C 49.1352,56.1373 52.1352,55.4706 55,53.5C 55.3333,54.5 55.6667,55.5 56,56.5C 56.4017,55.1279 56.9017,53.7946 57.5,52.5C 54.5709,51.3514 54.0709,49.6847 56,47.5C 56.3333,47.8333 56.6667,48.1667 57,48.5C 57.4955,46.5273 57.6621,44.5273 57.5,42.5C 57.5407,38.3837 58.2073,34.3837 59.5,30.5C 60.1667,30.1667 60.8333,29.8333 61.5,29.5 Z"/></g>
<g><path style="opacity:1" fill="#267298" d="M 57.5,42.5 C 57.6621,44.5273 57.4955,46.5273 57,48.5C 56.6667,48.1667 56.3333,47.8333 56,47.5C 54.0709,49.6847 54.5709,51.3514 57.5,52.5C 56.9017,53.7946 56.4017,55.1279 56,56.5C 55.6667,55.5 55.3333,54.5 55,53.5C 52.1352,55.4706 49.1352,56.1373 46,55.5C 44.6905,51.9296 43.8572,48.263 43.5,44.5C 43.8333,44.5 44.1667,44.5 44.5,44.5C 45.7255,45.937 46.7255,47.6036 47.5,49.5C 50.9089,47.161 54.2422,44.8277 57.5,42.5 Z"/></g>
<g><path style="opacity:1" fill="#975255" d="M 24.5,63.5 C 24.0233,60.9748 22.6899,58.9748 20.5,57.5C 20.5,56.8333 20.8333,56.5 21.5,56.5C 23.1246,56.1072 24.9579,56.1072 27,56.5C 27.4966,58.8098 27.6633,61.1432 27.5,63.5C 26.5,63.5 25.5,63.5 24.5,63.5 Z"/></g>
<g><path style="opacity:1" fill="#3c1a25" d="M 38.5,57.5 C 38.8333,57.5 39.1667,57.5 39.5,57.5C 47.2299,58.5998 55.2299,58.5998 63.5,57.5C 63.5,57.8333 63.5,58.1667 63.5,58.5C 56.5293,59.2897 49.5293,59.6231 42.5,59.5C 41.1667,58.8333 39.8333,58.1667 38.5,57.5 Z"/></g>
<g><path style="opacity:1" fill="#b36064" d="M 63.5,58.5 C 63.6567,59.8734 63.49,61.2068 63,62.5C 61.1222,63.0527 59.6222,64.0527 58.5,65.5C 58.1667,65.5 57.8333,65.5 57.5,65.5C 53.8333,64.8333 50.1667,64.1667 46.5,63.5C 52.1009,63.9105 57.4343,63.0772 62.5,61C 54.8484,61.7886 47.1817,61.6219 39.5,60.5C 40.209,59.596 41.209,59.2627 42.5,59.5C 49.5293,59.6231 56.5293,59.2897 63.5,58.5 Z"/></g>
<g><path style="opacity:1" fill="#8a2e2b" d="M 39.5,60.5 C 47.1817,61.6219 54.8484,61.7886 62.5,61C 57.4343,63.0772 52.1009,63.9105 46.5,63.5C 44.6481,62.9111 42.8148,62.2444 41,61.5C 39.8932,62.7119 39.3932,62.3786 39.5,60.5 Z"/></g>
<g><path style="opacity:1" fill="#5e3838" d="M 20.5,57.5 C 22.6899,58.9748 24.0233,60.9748 24.5,63.5C 24.6567,64.8734 24.49,66.2068 24,67.5C 23.6174,66.944 23.1174,66.6107 22.5,66.5C 21.99,63.4606 21.3234,60.4606 20.5,57.5 Z"/></g>
<g><path style="opacity:1" fill="#925552" d="M 80.5,63.5 C 79.596,64.209 79.2627,65.209 79.5,66.5C 77.8333,66.5 76.1667,66.5 74.5,66.5C 74.5,66.1667 74.5,65.8333 74.5,65.5C 75.2389,65.631 75.9056,65.4643 76.5,65C 76.0712,61.9531 76.0712,58.7864 76.5,55.5C 77.5,55.5 78.5,55.5 79.5,55.5C 79.2786,58.2788 79.612,60.9455 80.5,63.5 Z"/></g>
<g><path style="opacity:1" fill="#67433e" d="M 74.5,53.5 C 76.5,53.5 78.5,53.5 80.5,53.5C 81.1667,53.5 81.5,53.8333 81.5,54.5C 81.81,57.7131 81.4767,60.7131 80.5,63.5C 79.612,60.9455 79.2786,58.2788 79.5,55.5C 78.5,55.5 77.5,55.5 76.5,55.5C 76.0712,58.7864 76.0712,61.9531 76.5,65C 75.9056,65.4643 75.2389,65.631 74.5,65.5C 74.3841,62.1401 74.0508,58.8067 73.5,55.5C 74.3382,55.1583 74.6716,54.4916 74.5,53.5 Z"/></g>
<g><path style="opacity:1" fill="#8e5a4d" d="M 38.5,57.5 C 39.8333,58.1667 41.1667,58.8333 42.5,59.5C 41.209,59.2627 40.209,59.596 39.5,60.5C 39.3932,62.3786 39.8932,62.7119 41,61.5C 42.8148,62.2444 44.6481,62.9111 46.5,63.5C 50.1667,64.1667 53.8333,64.8333 57.5,65.5C 55.55,65.923 53.55,66.2563 51.5,66.5C 51.8677,68.5065 51.3677,70.5065 50,72.5C 49,70.5 48,68.5 47,66.5C 46.6667,67.1667 46.3333,67.8333 46,68.5C 44.322,66.3341 42.1553,65.0007 39.5,64.5C 36.0709,62.4815 35.7376,60.1482 38.5,57.5 Z"/></g>
<g><path style="opacity:1" fill="#794845" d="M 63.5,57.5 C 64.9468,58.1342 65.6134,59.3009 65.5,61C 64.9923,62.8926 63.9923,64.3926 62.5,65.5C 60.8612,65.9258 59.5279,65.9258 58.5,65.5C 59.6222,64.0527 61.1222,63.0527 63,62.5C 63.49,61.2068 63.6567,59.8734 63.5,58.5C 63.5,58.1667 63.5,57.8333 63.5,57.5 Z"/></g>
<g><path style="opacity:1" fill="#9b8572" d="M 39.5,64.5 C 42.1553,65.0007 44.322,66.3341 46,68.5C 46.3333,67.8333 46.6667,67.1667 47,66.5C 48,68.5 49,70.5 50,72.5C 51.3677,70.5065 51.8677,68.5065 51.5,66.5C 53.55,66.2563 55.55,65.923 57.5,65.5C 57.8333,65.5 58.1667,65.5 58.5,65.5C 59.5279,65.9258 60.8612,65.9258 62.5,65.5C 61.7974,67.7157 60.4641,69.549 58.5,71C 55.4239,72.855 52.0906,73.6883 48.5,73.5C 44.4784,71.4784 41.4784,68.4784 39.5,64.5 Z"/></g>
<g><path style="opacity:1" fill="#918378" d="M 74.5,66.5 C 76.1667,66.5 77.8333,66.5 79.5,66.5C 80.1667,70.5 78.5,72.1667 74.5,71.5C 74.5,69.8333 74.5,68.1667 74.5,66.5 Z"/></g>
<g><path style="opacity:1" fill="#a19483" d="M 41.5,74.5 C 40.7515,75.531 40.0848,76.6976 39.5,78C 39.1667,78.1667 38.8333,78.3333 38.5,78.5C 37.4373,74.5699 36.4373,74.5699 35.5,78.5C 34.8826,78.3893 34.3826,78.056 34,77.5C 33.7216,78.4158 33.2216,79.0825 32.5,79.5C 30.5,79.5 28.5,79.5 26.5,79.5C 27.9516,78.6981 29.6183,78.1981 31.5,78C 32.5843,72.9766 35.5843,71.31 40.5,73C 41.056,73.3826 41.3893,73.8826 41.5,74.5 Z"/></g>
<g><path style="opacity:1" fill="#f0f0ed" d="M 40.5,31.5 C 43.4072,40.3183 43.0739,48.985 39.5,57.5C 39.1667,57.5 38.8333,57.5 38.5,57.5C 35.7376,60.1482 36.0709,62.4815 39.5,64.5C 41.4784,68.4784 44.4784,71.4784 48.5,73.5C 47.4019,74.397 47.4019,75.2303 48.5,76C 55.4921,76.4996 62.4921,76.6663 69.5,76.5C 67.7078,77.3091 65.7078,77.8091 63.5,78C 56.1742,78.4997 48.8409,78.6663 41.5,78.5C 41.5,77.1667 41.5,75.8333 41.5,74.5C 41.3893,73.8826 41.056,73.3826 40.5,73C 35.5843,71.31 32.5843,72.9766 31.5,78C 29.6183,78.1981 27.9516,78.6981 26.5,79.5C 25.0813,80.4511 23.4147,80.7845 21.5,80.5C 19.8333,80.5 18.1667,80.5 16.5,80.5C 19.273,78.8969 21.6063,76.7302 23.5,74C 22.7476,73.3292 22.4142,72.4959 22.5,71.5C 24.0098,72.7279 25.5098,72.7279 27,71.5C 27.8086,65.6832 28.642,60.0166 29.5,54.5C 31.7157,53.7974 33.549,52.4641 35,50.5C 35.8334,46.1638 34.0001,44.1638 29.5,44.5C 29.552,42.0971 29.2186,39.7638 28.5,37.5C 29.7927,35.7041 31.2927,34.0375 33,32.5C 33.1922,30.4233 33.6922,28.4233 34.5,26.5C 36.5193,28.1897 38.5193,29.8564 40.5,31.5 Z"/></g>
<g><path style="opacity:1" fill="#378bb0" d="M 69.5,76.5 C 72.5184,76.3354 75.5184,76.502 78.5,77C 79.305,78.1127 79.9717,79.2794 80.5,80.5C 79.3951,81.6005 78.0618,82.2671 76.5,82.5C 63.8438,83.1529 51.1771,83.4862 38.5,83.5C 38.31,81.0411 39.31,79.3745 41.5,78.5C 48.8409,78.6663 56.1742,78.4997 63.5,78C 65.7078,77.8091 67.7078,77.3091 69.5,76.5 Z"/></g>
<g><path style="opacity:1" fill="#746a62" d="M 16.5,80.5 C 18.1667,80.5 19.8333,80.5 21.5,80.5C 20.791,81.404 19.791,81.7373 18.5,81.5C 18.5271,83.1993 19.1938,84.5326 20.5,85.5C 18.8333,85.5 17.1667,85.5 15.5,85.5C 15.5,84.1667 15.5,82.8333 15.5,81.5C 15.5,80.8333 15.8333,80.5 16.5,80.5 Z"/></g>
<g><path style="opacity:1" fill="#764744" d="M 26.5,79.5 C 28.5,79.5 30.5,79.5 32.5,79.5C 32.5,82.1667 32.5,84.8333 32.5,87.5C 32.1667,87.5 31.8333,87.5 31.5,87.5C 27.6125,87.3541 23.9458,86.6874 20.5,85.5C 19.1938,84.5326 18.5271,83.1993 18.5,81.5C 19.791,81.7373 20.791,81.404 21.5,80.5C 23.4147,80.7845 25.0813,80.4511 26.5,79.5 Z"/></g>
<g><path style="opacity:1" fill="#4c5c4f" d="M 41.5,74.5 C 41.5,75.8333 41.5,77.1667 41.5,78.5C 39.31,79.3745 38.31,81.0411 38.5,83.5C 38.5,84.5 38.5,85.5 38.5,86.5C 39.5,86.5 40.5,86.5 41.5,86.5C 41.5,87.1667 41.5,87.8333 41.5,88.5C 41.7709,90.3797 41.1042,91.713 39.5,92.5C 38.201,88.6295 37.5343,84.6295 37.5,80.5C 37.1667,79.5 36.5,78.8333 35.5,78.5C 36.4373,74.5699 37.4373,74.5699 38.5,78.5C 38.8333,78.3333 39.1667,78.1667 39.5,78C 40.0848,76.6976 40.7515,75.531 41.5,74.5 Z"/></g>
<g><path style="opacity:1" fill="#d4b580" d="M 35.5,78.5 C 36.5,78.8333 37.1667,79.5 37.5,80.5C 36.7463,83.0227 36.0796,85.6894 35.5,88.5C 36.09,89.7989 37.09,90.6322 38.5,91C 35.6695,91.3494 33.6695,90.1827 32.5,87.5C 32.5,84.8333 32.5,82.1667 32.5,79.5C 33.2216,79.0825 33.7216,78.4158 34,77.5C 34.3826,78.056 34.8826,78.3893 35.5,78.5 Z"/></g>
<g><path style="opacity:1" fill="#427c8e" d="M 80.5,80.5 C 81.391,81.1098 82.391,81.4431 83.5,81.5C 81.7372,84.1063 79.7372,86.6063 77.5,89C 76.6667,89.1667 75.8333,89.3333 75,89.5C 63.8199,87.4982 52.6532,87.1649 41.5,88.5C 41.5,87.8333 41.5,87.1667 41.5,86.5C 53.5046,86.6665 65.5046,86.4999 77.5,86C 79.958,84.2669 79.6247,83.1002 76.5,82.5C 78.0618,82.2671 79.3951,81.6005 80.5,80.5 Z"/></g>
<g><path style="opacity:1" fill="#968d74" d="M 37.5,80.5 C 37.5343,84.6295 38.201,88.6295 39.5,92.5C 35.4961,93.5696 32.8295,91.903 31.5,87.5C 31.8333,87.5 32.1667,87.5 32.5,87.5C 33.6695,90.1827 35.6695,91.3494 38.5,91C 37.09,90.6322 36.09,89.7989 35.5,88.5C 36.0796,85.6894 36.7463,83.0227 37.5,80.5 Z"/></g>
<g><path style="opacity:1" fill="#99887f" d="M 22.5,94.5 C 23.9187,93.5489 25.5853,93.2155 27.5,93.5C 27.5,95.8333 27.5,98.1667 27.5,100.5C 26.596,99.791 26.2627,98.791 26.5,97.5C 25.5,97.5 24.5,97.5 23.5,97.5C 23.7373,96.209 23.404,95.209 22.5,94.5 Z"/></g>
<g><path style="opacity:1" fill="#f2f3f1" d="M 15.5,81.5 C 15.5,82.8333 15.5,84.1667 15.5,85.5C 17.1667,85.5 18.8333,85.5 20.5,85.5C 23.9458,86.6874 27.6125,87.3541 31.5,87.5C 32.8295,91.903 35.4961,93.5696 39.5,92.5C 41.1042,91.713 41.7709,90.3797 41.5,88.5C 52.6532,87.1649 63.8199,87.4982 75,89.5C 75.8333,89.3333 76.6667,89.1667 77.5,89C 79.7372,86.6063 81.7372,84.1063 83.5,81.5C 84.9733,82.072 86.3066,82.9054 87.5,84C 84.8333,84.6667 84.8333,85.3333 87.5,86C 83.5168,88.2753 83.5168,89.2753 87.5,89C 86.5,89.8333 85.5,90.6667 84.5,91.5C 85.7422,94.9301 84.4089,96.2634 80.5,95.5C 80.3398,97.1992 80.5065,98.8659 81,100.5C 81.7253,102.158 82.892,102.658 84.5,102C 82.842,101.275 82.342,100.108 83,98.5C 84.5701,98.6938 86.0701,98.6938 87.5,98.5C 87.3062,100.737 87.3062,102.903 87.5,105C 86.8333,105.333 86.1667,105.667 85.5,106C 86.7435,107.87 87.4101,110.036 87.5,112.5C 87.4954,114.696 87.162,116.696 86.5,118.5C 86.6567,117.127 86.49,115.793 86,114.5C 83.9052,112.911 82.4052,110.911 81.5,108.5C 80.99,105.461 80.3234,102.461 79.5,99.5C 80.5,94.5 78.5,92.5 73.5,93.5C 73.5,97.1667 73.5,100.833 73.5,104.5C 73.7947,106.735 73.4614,108.735 72.5,110.5C 69.7081,110.452 67.8747,111.785 67,114.5C 65.608,118.22 66.7747,120.22 70.5,120.5C 72.3435,122.279 73.0102,124.612 72.5,127.5C 72.5,128.167 72.5,128.833 72.5,129.5C 69.2009,132.076 67.2009,135.409 66.5,139.5C 65.8333,138.167 64.8333,137.167 63.5,136.5C 57.2519,127.504 56.9186,118.17 62.5,108.5C 66.6824,105.036 66.349,102.036 61.5,99.5C 56.9659,90.9568 50.6326,89.4568 42.5,95C 40.84,96.4877 39.84,98.321 39.5,100.5C 37.2776,100.559 36.2776,101.725 36.5,104C 36.8996,106.215 37.8996,108.048 39.5,109.5C 40.5664,111.701 41.233,114.035 41.5,116.5C 42.5115,124.121 40.8448,131.121 36.5,137.5C 35.8485,138.091 35.1818,138.757 34.5,139.5C 33.6858,137.234 33.1858,134.9 33,132.5C 31.9609,131.29 30.7942,130.29 29.5,129.5C 29.5,126.5 29.5,123.5 29.5,120.5C 31.1667,120.5 32.8333,120.5 34.5,120.5C 34.8076,118.076 34.4742,115.743 33.5,113.5C 31.4138,112.511 29.7471,111.178 28.5,109.5C 28.81,106.287 28.4767,103.287 27.5,100.5C 27.5,98.1667 27.5,95.8333 27.5,93.5C 25.5853,93.2155 23.9187,93.5489 22.5,94.5C 22.5,95.1667 22.1667,95.5 21.5,95.5C 22.7875,92.5701 22.2875,90.2368 20,88.5C 16.5761,89.5885 13.2427,89.5885 10,88.5C 9.25061,87.365 9.41728,86.365 10.5,85.5C 11.4255,84.3595 12.2588,84.3595 13,85.5C 13.2004,83.6803 14.0337,82.347 15.5,81.5 Z"/></g>
<g><path style="opacity:1" fill="#37afe1" d="M 76.5,82.5 C 79.6247,83.1002 79.958,84.2669 77.5,86C 65.5046,86.4999 53.5046,86.6665 41.5,86.5C 40.5,86.5 39.5,86.5 38.5,86.5C 38.5,85.5 38.5,84.5 38.5,83.5C 51.1771,83.4862 63.8438,83.1529 76.5,82.5 Z"/></g>
<g><path style="opacity:1" fill="#98847c" d="M 79.5,99.5 C 77.5915,99.1166 76.0915,98.1166 75,96.5C 74.8171,99.3647 74.3171,102.031 73.5,104.5C 73.5,100.833 73.5,97.1667 73.5,93.5C 78.5,92.5 80.5,94.5 79.5,99.5 Z"/></g>
<g><path style="opacity:1" fill="#98725e" d="M 61.5,99.5 C 57.2508,99.3167 53.2508,99.3167 49.5,99.5C 48.8333,99.5 48.1667,99.5 47.5,99.5C 46.0689,99.1193 45.2355,98.1193 45,96.5C 43.9127,98.8142 42.0794,100.148 39.5,100.5C 39.84,98.321 40.84,96.4877 42.5,95C 50.6326,89.4568 56.9659,90.9568 61.5,99.5 Z"/></g>
<g><path style="opacity:1" fill="#7e4142" d="M 79.5,99.5 C 80.3234,102.461 80.99,105.461 81.5,108.5C 80.596,109.209 80.2627,110.209 80.5,111.5C 77.6146,111.806 74.9479,111.473 72.5,110.5C 73.4614,108.735 73.7947,106.735 73.5,104.5C 74.3171,102.031 74.8171,99.3647 75,96.5C 76.0915,98.1166 77.5915,99.1166 79.5,99.5 Z"/></g>
<g><path style="opacity:1" fill="#68403f" d="M 47.5,99.5 C 47.2249,101.758 46.2249,102.092 44.5,100.5C 38.7077,101.688 38.2077,103.688 43,106.5C 49.7265,105.851 56.3931,105.517 63,105.5C 63.658,103.892 63.158,102.725 61.5,102C 57.0442,102.102 53.0442,101.268 49.5,99.5C 53.2508,99.3167 57.2508,99.3167 61.5,99.5C 66.349,102.036 66.6824,105.036 62.5,108.5C 58.3656,107.515 54.0323,107.182 49.5,107.5C 45.861,108.259 42.5277,108.925 39.5,109.5C 37.8996,108.048 36.8996,106.215 36.5,104C 36.2776,101.725 37.2776,100.559 39.5,100.5C 42.0794,100.148 43.9127,98.8142 45,96.5C 45.2355,98.1193 46.0689,99.1193 47.5,99.5 Z"/></g>
<g><path style="opacity:1" fill="#a54d51" d="M 47.5,99.5 C 48.1667,99.5 48.8333,99.5 49.5,99.5C 53.0442,101.268 57.0442,102.102 61.5,102C 63.158,102.725 63.658,103.892 63,105.5C 56.3931,105.517 49.7265,105.851 43,106.5C 38.2077,103.688 38.7077,101.688 44.5,100.5C 46.2249,102.092 47.2249,101.758 47.5,99.5 Z"/></g>
<g><path style="opacity:1" fill="#6b4644" d="M 22.5,94.5 C 23.404,95.209 23.7373,96.209 23.5,97.5C 24.5,97.5 25.5,97.5 26.5,97.5C 26.2627,98.791 26.596,99.791 27.5,100.5C 28.4767,103.287 28.81,106.287 28.5,109.5C 27.7777,110.551 26.7777,111.218 25.5,111.5C 25.1667,111.5 24.8333,111.5 24.5,111.5C 28.2811,107.488 28.2811,103.488 24.5,99.5C 22.1428,103.277 21.4762,107.277 22.5,111.5C 22.1667,111.5 21.8333,111.5 21.5,111.5C 21.1667,111.5 20.8333,111.5 20.5,111.5C 20.1835,106.846 20.8501,102.346 22.5,98C 22.2568,97.0979 21.9234,96.2646 21.5,95.5C 22.1667,95.5 22.5,95.1667 22.5,94.5 Z"/></g>
<g><path style="opacity:1" fill="#92474a" d="M 24.5,111.5 C 23.8333,111.5 23.1667,111.5 22.5,111.5C 21.4762,107.277 22.1428,103.277 24.5,99.5C 28.2811,103.488 28.2811,107.488 24.5,111.5 Z"/></g>
<g><path style="opacity:1" fill="#bda07e" d="M 21.5,111.5 C 21.8333,111.5 22.1667,111.5 22.5,111.5C 23.1667,111.5 23.8333,111.5 24.5,111.5C 24.8333,111.5 25.1667,111.5 25.5,111.5C 28.1416,112.102 30.4749,113.436 32.5,115.5C 31.2114,115.832 29.5447,116.166 27.5,116.5C 25.3057,115.234 22.9724,115.234 20.5,116.5C 19.8076,115.975 19.3076,115.308 19,114.5C 17.7295,117.173 17.0628,117.173 17,114.5C 18.8778,113.947 20.3778,112.947 21.5,111.5 Z"/></g>
<g><path style="opacity:1" fill="#306e92" d="M 49.5,107.5 C 50.7255,108.937 51.7255,110.604 52.5,112.5C 53.5063,112.062 53.5063,111.396 52.5,110.5C 54.3066,109.201 55.9732,109.368 57.5,111C 56.5562,113.719 56.2229,116.552 56.5,119.5C 53.2589,119.122 50.2589,118.122 47.5,116.5C 46.8165,116.863 46.1499,117.196 45.5,117.5C 45.313,115.436 44.813,113.436 44,111.5C 43.2432,113.315 42.4098,114.981 41.5,116.5C 41.233,114.035 40.5664,111.701 39.5,109.5C 42.5277,108.925 45.861,108.259 49.5,107.5 Z"/></g>
<g><path style="opacity:1" fill="#807967" d="M 28.5,109.5 C 29.7471,111.178 31.4138,112.511 33.5,113.5C 34.4742,115.743 34.8076,118.076 34.5,120.5C 32.8333,120.5 31.1667,120.5 29.5,120.5C 28.8333,119.833 28.1667,119.167 27.5,118.5C 27.5,118.167 27.5,117.833 27.5,117.5C 27.5,117.167 27.5,116.833 27.5,116.5C 29.5447,116.166 31.2114,115.832 32.5,115.5C 30.4749,113.436 28.1416,112.102 25.5,111.5C 26.7777,111.218 27.7777,110.551 28.5,109.5 Z"/></g>
<g><path style="opacity:1" fill="#ab9b81" d="M 81.5,108.5 C 82.4052,110.911 83.9052,112.911 86,114.5C 86.49,115.793 86.6567,117.127 86.5,118.5C 84.8863,120.075 82.8863,120.741 80.5,120.5C 81.6857,119.039 81.6857,117.705 80.5,116.5C 77.0729,114.823 74.0729,115.156 71.5,117.5C 71.4431,118.609 71.1098,119.609 70.5,120.5C 66.7747,120.22 65.608,118.22 67,114.5C 67.8747,111.785 69.7081,110.452 72.5,110.5C 74.9479,111.473 77.6146,111.806 80.5,111.5C 80.2627,110.209 80.596,109.209 81.5,108.5 Z"/></g>
<g><path style="opacity:1" fill="#6b6f54" d="M 80.5,116.5 C 80.5,117.167 80.1667,117.5 79.5,117.5C 78.8333,117.5 78.1667,117.5 77.5,117.5C 75.5,117.5 73.5,117.5 71.5,117.5C 74.0729,115.156 77.0729,114.823 80.5,116.5 Z"/></g>
<g><path style="opacity:1" fill="#908574" d="M 20.5,111.5 C 20.8333,111.5 21.1667,111.5 21.5,111.5C 20.3778,112.947 18.8778,113.947 17,114.5C 17.0628,117.173 17.7295,117.173 19,114.5C 19.3076,115.308 19.8076,115.975 20.5,116.5C 22.9724,115.234 25.3057,115.234 27.5,116.5C 25.5853,116.216 23.9187,116.549 22.5,117.5C 21.6554,118.671 20.9887,120.005 20.5,121.5C 18.8008,121.66 17.1341,121.494 15.5,121C 13.1324,115.643 14.7991,112.476 20.5,111.5 Z"/></g>
<g><path style="opacity:1" fill="#48769c" d="M 71.5,117.5 C 73.5,117.5 75.5,117.5 77.5,117.5C 77.5,121.167 77.5,124.833 77.5,128.5C 75.7085,128.634 74.0418,128.301 72.5,127.5C 73.0102,124.612 72.3435,122.279 70.5,120.5C 71.1098,119.609 71.4431,118.609 71.5,117.5 Z"/></g>
<g><path style="opacity:1" fill="#64b2d1" d="M 77.5,117.5 C 78.1667,117.5 78.8333,117.5 79.5,117.5C 80.0803,121.649 79.4136,125.316 77.5,128.5C 77.5,124.833 77.5,121.167 77.5,117.5 Z"/></g>
<g><path style="opacity:1" fill="#569ebd" d="M 27.5,117.5 C 27.5,117.833 27.5,118.167 27.5,118.5C 28.069,122.329 27.4023,125.663 25.5,128.5C 24.6561,124.901 24.3227,121.234 24.5,117.5C 25.5,117.5 26.5,117.5 27.5,117.5 Z"/></g>
<g><path style="opacity:1" fill="#26adde" d="M 56.5,119.5 C 56.3616,125.746 58.0282,131.413 61.5,136.5C 60.6554,137.671 59.9887,139.005 59.5,140.5C 58.8333,140.5 58.5,140.167 58.5,139.5C 57.7703,137.955 56.437,137.122 54.5,137C 51.1308,136.337 47.7975,136.504 44.5,137.5C 42.6701,137.42 41.3367,136.587 40.5,135C 42.0107,129.064 43.6774,123.23 45.5,117.5C 46.1499,117.196 46.8165,116.863 47.5,116.5C 50.2589,118.122 53.2589,119.122 56.5,119.5 Z"/></g>
<g><path style="opacity:1" fill="#34474f" d="M 80.5,116.5 C 81.6857,117.705 81.6857,119.039 80.5,120.5C 80.5,120.833 80.5,121.167 80.5,121.5C 80.5,124.167 80.5,126.833 80.5,129.5C 78.5853,129.216 76.9187,129.549 75.5,130.5C 74.391,130.557 73.391,130.89 72.5,131.5C 72.5,130.833 72.5,130.167 72.5,129.5C 72.5,128.833 72.5,128.167 72.5,127.5C 74.0418,128.301 75.7085,128.634 77.5,128.5C 79.4136,125.316 80.0803,121.649 79.5,117.5C 80.1667,117.5 80.5,117.167 80.5,116.5 Z"/></g>
<g><path style="opacity:1" fill="#315564" d="M 27.5,116.5 C 27.5,116.833 27.5,117.167 27.5,117.5C 26.5,117.5 25.5,117.5 24.5,117.5C 24.3227,121.234 24.6561,124.901 25.5,128.5C 24.1667,128.5 22.8333,128.5 21.5,128.5C 21.5524,124.802 21.8857,121.135 22.5,117.5C 23.9187,116.549 25.5853,116.216 27.5,116.5 Z"/></g>
<g><path style="opacity:1" fill="#456b80" d="M 49.5,107.5 C 54.0323,107.182 58.3656,107.515 62.5,108.5C 56.9186,118.17 57.2519,127.504 63.5,136.5C 63.0623,137.506 62.3957,137.506 61.5,136.5C 58.0282,131.413 56.3616,125.746 56.5,119.5C 56.2229,116.552 56.5562,113.719 57.5,111C 55.9732,109.368 54.3066,109.201 52.5,110.5C 53.5063,111.396 53.5063,112.062 52.5,112.5C 51.7255,110.604 50.7255,108.937 49.5,107.5 Z"/></g>
<g><path style="opacity:1" fill="#606e74" d="M 22.5,117.5 C 21.8857,121.135 21.5524,124.802 21.5,128.5C 22.8333,128.5 24.1667,128.5 25.5,128.5C 27.4023,125.663 28.069,122.329 27.5,118.5C 28.1667,119.167 28.8333,119.833 29.5,120.5C 29.5,123.5 29.5,126.5 29.5,129.5C 29.5,130.167 29.1667,130.5 28.5,130.5C 28.1667,130.5 27.8333,130.5 27.5,130.5C 25.3926,129.532 23.0593,129.198 20.5,129.5C 20.5,126.833 20.5,124.167 20.5,121.5C 20.9887,120.005 21.6554,118.671 22.5,117.5 Z"/></g>
<g><path style="opacity:1" fill="#438199" d="M 45.5,117.5 C 43.6774,123.23 42.0107,129.064 40.5,135C 41.3367,136.587 42.6701,137.42 44.5,137.5C 47.7975,136.504 51.1308,136.337 54.5,137C 56.437,137.122 57.7703,137.955 58.5,139.5C 55.7965,139.045 53.1298,138.378 50.5,137.5C 48.149,138.173 45.8157,138.84 43.5,139.5C 42.1805,138.058 40.5138,137.392 38.5,137.5C 37.8333,137.5 37.1667,137.5 36.5,137.5C 40.8448,131.121 42.5115,124.121 41.5,116.5C 42.4098,114.981 43.2432,113.315 44,111.5C 44.813,113.436 45.313,115.436 45.5,117.5 Z"/></g>
<g><path style="opacity:1" fill="#d3c68d" d="M 27.5,130.5 C 27.8333,130.5 28.1667,130.5 28.5,130.5C 29.4728,132.149 30.4728,133.816 31.5,135.5C 31.3333,136.167 31.1667,136.833 31,137.5C 30.5776,135.574 29.4109,134.574 27.5,134.5C 22.9168,133.343 20.2501,135.01 19.5,139.5C 20.2185,141.736 20.5518,143.902 20.5,146C 19.9056,146.464 19.2389,146.631 18.5,146.5C 15.7464,141.479 15.9131,136.479 19,131.5C 21.7191,130.556 24.5525,130.223 27.5,130.5 Z"/></g>
<g><path style="opacity:1" fill="#998c6f" d="M 29.5,129.5 C 30.7942,130.29 31.9609,131.29 33,132.5C 33.1858,134.9 33.6858,137.234 34.5,139.5C 35.1818,138.757 35.8485,138.091 36.5,137.5C 37.1667,137.5 37.8333,137.5 38.5,137.5C 39.4363,138.974 40.7697,139.974 42.5,140.5C 42.1667,141.167 41.8333,141.833 41.5,142.5C 40.8333,142.5 40.1667,142.5 39.5,142.5C 39.1344,141.305 38.301,140.639 37,140.5C 35.2341,141.233 33.4008,141.567 31.5,141.5C 31.5,143.167 31.5,144.833 31.5,146.5C 34.3798,146.06 37.0465,145.06 39.5,143.5C 40.9239,146.125 40.5906,148.458 38.5,150.5C 38.8146,148.774 38.9813,147.107 39,145.5C 36.0881,147.614 32.9214,148.947 29.5,149.5C 29.5,149.167 29.5,148.833 29.5,148.5C 30.552,148.649 31.552,148.483 32.5,148C 30.8193,145.462 29.8193,142.629 29.5,139.5C 29.7148,137.821 29.0481,136.821 27.5,136.5C 27.5,136.167 27.5,135.833 27.5,135.5C 27.5,135.167 27.5,134.833 27.5,134.5C 29.4109,134.574 30.5776,135.574 31,137.5C 31.1667,136.833 31.3333,136.167 31.5,135.5C 30.4728,133.816 29.4728,132.149 28.5,130.5C 29.1667,130.5 29.5,130.167 29.5,129.5 Z"/></g>
<g><path style="opacity:1" fill="#ded29a" d="M 75.5,130.5 C 80.0058,130.252 83.0058,132.252 84.5,136.5C 83.4231,138.169 83.2564,139.835 84,141.5C 82.9614,140.756 82.4614,139.756 82.5,138.5C 82.5,136.5 81.5,135.5 79.5,135.5C 77.3926,134.532 75.0593,134.198 72.5,134.5C 72.5,135.5 72.5,136.5 72.5,137.5C 71.4138,137.38 70.7472,136.713 70.5,135.5C 70.7517,133.927 71.4183,132.594 72.5,131.5C 73.391,130.89 74.391,130.557 75.5,130.5 Z"/></g>
<g><path style="opacity:1" fill="#7a6d56" d="M 20.5,129.5 C 23.0593,129.198 25.3926,129.532 27.5,130.5C 24.5525,130.223 21.7191,130.556 19,131.5C 15.9131,136.479 15.7464,141.479 18.5,146.5C 17.5416,146.047 16.7083,145.381 16,144.5C 13.42,138.084 14.92,133.084 20.5,129.5 Z"/></g>
<g><path style="opacity:1" fill="#7fb3a4" d="M 38.5,137.5 C 40.5138,137.392 42.1805,138.058 43.5,139.5C 43.5,140.167 43.1667,140.5 42.5,140.5C 40.7697,139.974 39.4363,138.974 38.5,137.5 Z"/></g>
<g><path style="opacity:1" fill="#31303a" d="M 58.5,139.5 C 58.5,140.167 58.8333,140.5 59.5,140.5C 59.5,140.833 59.5,141.167 59.5,141.5C 59.2648,142.097 58.7648,142.43 58,142.5C 54.4615,139.499 50.6282,138.833 46.5,140.5C 44.7708,141.117 43.2708,142.117 42,143.5C 41.6012,143.272 41.4346,142.938 41.5,142.5C 41.8333,141.833 42.1667,141.167 42.5,140.5C 43.1667,140.5 43.5,140.167 43.5,139.5C 45.8157,138.84 48.149,138.173 50.5,137.5C 53.1298,138.378 55.7965,139.045 58.5,139.5 Z"/></g>
<g><path style="opacity:1" fill="#3a493a" d="M 27.5,134.5 C 27.5,134.833 27.5,135.167 27.5,135.5C 26.8333,135.5 26.1667,135.5 25.5,135.5C 24.1779,135.33 23.0113,135.663 22,136.5C 21.8227,140.356 21.3227,144.023 20.5,147.5C 19.5084,147.672 18.8417,147.338 18.5,146.5C 19.2389,146.631 19.9056,146.464 20.5,146C 20.5518,143.902 20.2185,141.736 19.5,139.5C 20.2501,135.01 22.9168,133.343 27.5,134.5 Z"/></g>
<g><path style="opacity:1" fill="#9da98e" d="M 61.5,136.5 C 62.3957,137.506 63.0623,137.506 63.5,136.5C 64.8333,137.167 65.8333,138.167 66.5,139.5C 66.5,139.833 66.5,140.167 66.5,140.5C 63.9066,137.551 61.9066,137.884 60.5,141.5C 60.1667,141.5 59.8333,141.5 59.5,141.5C 59.5,141.167 59.5,140.833 59.5,140.5C 59.9887,139.005 60.6554,137.671 61.5,136.5 Z"/></g>
<g><path style="opacity:1" fill="#73bada" d="M 77.5,135.5 C 78.1667,135.5 78.8333,135.5 79.5,135.5C 79.8039,136.15 80.1373,136.817 80.5,137.5C 79.8763,142.965 79.2096,148.298 78.5,153.5C 77.5104,147.69 77.1771,141.69 77.5,135.5 Z"/></g>
<g><path style="opacity:1" fill="#ead07c" d="M 39.5,142.5 C 39.5,142.833 39.5,143.167 39.5,143.5C 37.0465,145.06 34.3798,146.06 31.5,146.5C 31.5,144.833 31.5,143.167 31.5,141.5C 33.4008,141.567 35.2341,141.233 37,140.5C 38.301,140.639 39.1344,141.305 39.5,142.5 Z"/></g>
<g><path style="opacity:1" fill="#744544" d="M 46.5,140.5 C 50.6282,138.833 54.4615,139.499 58,142.5C 58.7648,142.43 59.2648,142.097 59.5,141.5C 59.8333,141.5 60.1667,141.5 60.5,141.5C 60.8333,142.5 61.5,143.167 62.5,143.5C 62.1667,144.167 61.8333,144.833 61.5,145.5C 62.1667,147.167 62.8333,148.833 63.5,150.5C 62.8333,150.167 62.1667,149.833 61.5,149.5C 61.5,148.833 61.1667,148.5 60.5,148.5C 60.1412,146.629 59.1412,145.129 57.5,144C 55.0261,143.887 53.0261,142.887 51.5,141C 49.8659,140.506 48.1992,140.34 46.5,140.5 Z"/></g>
<g><path style="opacity:1" fill="#e5cd81" d="M 66.5,140.5 C 67.209,141.404 68.209,141.737 69.5,141.5C 69.5,143.167 69.5,144.833 69.5,146.5C 66.7939,146.312 64.4605,145.312 62.5,143.5C 61.5,143.167 60.8333,142.5 60.5,141.5C 61.9066,137.884 63.9066,137.551 66.5,140.5 Z"/></g>
<g><path style="opacity:1" fill="#3f5960" d="M 79.5,135.5 C 81.5,135.5 82.5,136.5 82.5,138.5C 81.1667,141.167 81.1667,143.833 82.5,146.5C 81.1736,149.57 79.8402,152.57 78.5,155.5C 78.5,154.833 78.5,154.167 78.5,153.5C 79.2096,148.298 79.8763,142.965 80.5,137.5C 80.1373,136.817 79.8039,136.15 79.5,135.5 Z"/></g>
<g><path style="opacity:1" fill="#8a8170" d="M 80.5,121.5 C 81.3195,124.305 81.8195,127.305 82,130.5C 87.8314,135.764 87.998,141.097 82.5,146.5C 81.1667,143.833 81.1667,141.167 82.5,138.5C 82.4614,139.756 82.9614,140.756 84,141.5C 83.2564,139.835 83.4231,138.169 84.5,136.5C 83.0058,132.252 80.0058,130.252 75.5,130.5C 76.9187,129.549 78.5853,129.216 80.5,129.5C 80.5,126.833 80.5,124.167 80.5,121.5 Z"/></g>
<g><path style="opacity:1" fill="#51504e" d="M 29.5,139.5 C 29.8193,142.629 30.8193,145.462 32.5,148C 31.552,148.483 30.552,148.649 29.5,148.5C 28.1667,145.5 28.1667,142.5 29.5,139.5 Z"/></g>
<g><path style="opacity:1" fill="#9c4244" d="M 46.5,140.5 C 48.1992,140.34 49.8659,140.506 51.5,141C 53.0261,142.887 55.0261,143.887 57.5,144C 59.1412,145.129 60.1412,146.629 60.5,148.5C 57.6571,147.229 54.6571,146.396 51.5,146C 49.7183,145.186 48.2183,144.019 47,142.5C 46.2411,144.635 44.7411,145.968 42.5,146.5C 41.5251,149.152 40.1918,151.486 38.5,153.5C 38.5,152.833 38.5,152.167 38.5,151.5C 38.5,151.167 38.5,150.833 38.5,150.5C 40.5906,148.458 40.9239,146.125 39.5,143.5C 39.5,143.167 39.5,142.833 39.5,142.5C 40.1667,142.5 40.8333,142.5 41.5,142.5C 41.4346,142.938 41.6012,143.272 42,143.5C 43.2708,142.117 44.7708,141.117 46.5,140.5 Z"/></g>
<g><path style="opacity:1" fill="#85765e" d="M 72.5,129.5 C 72.5,130.167 72.5,130.833 72.5,131.5C 71.4183,132.594 70.7517,133.927 70.5,135.5C 70.7472,136.713 71.4138,137.38 72.5,137.5C 72.5,140.833 72.5,144.167 72.5,147.5C 71.1266,147.343 69.7932,147.51 68.5,148C 69.7375,148.232 70.7375,148.732 71.5,149.5C 68.0204,148.512 64.6871,147.178 61.5,145.5C 61.8333,144.833 62.1667,144.167 62.5,143.5C 64.4605,145.312 66.7939,146.312 69.5,146.5C 69.5,144.833 69.5,143.167 69.5,141.5C 68.209,141.737 67.209,141.404 66.5,140.5C 66.5,140.167 66.5,139.833 66.5,139.5C 67.2009,135.409 69.2009,132.076 72.5,129.5 Z"/></g>
<g><path style="opacity:1" fill="#367284" d="M 77.5,135.5 C 77.1771,141.69 77.5104,147.69 78.5,153.5C 78.5,154.167 78.5,154.833 78.5,155.5C 78.5299,156.497 78.0299,157.164 77,157.5C 73.9759,155.653 72.4759,152.987 72.5,149.5C 73.2668,145.585 73.7668,141.585 74,137.5C 74.8159,136.177 75.9826,135.511 77.5,135.5 Z"/></g>
<g><path style="opacity:1" fill="#485243" d="M 79.5,135.5 C 78.8333,135.5 78.1667,135.5 77.5,135.5C 75.9826,135.511 74.8159,136.177 74,137.5C 73.7668,141.585 73.2668,145.585 72.5,149.5C 72.1667,149.5 71.8333,149.5 71.5,149.5C 70.7375,148.732 69.7375,148.232 68.5,148C 69.7932,147.51 71.1266,147.343 72.5,147.5C 72.5,144.167 72.5,140.833 72.5,137.5C 72.5,136.5 72.5,135.5 72.5,134.5C 75.0593,134.198 77.3926,134.532 79.5,135.5 Z"/></g>
<g><path style="opacity:1" fill="#d8545d" d="M 60.5,148.5 C 61.1667,148.5 61.5,148.833 61.5,149.5C 61.5394,150.583 61.8728,151.583 62.5,152.5C 60.1889,153.575 57.8555,153.575 55.5,152.5C 56.3984,151.842 57.3984,151.176 58.5,150.5C 58.2907,149.914 57.9574,149.414 57.5,149C 54.1498,148.75 50.9831,147.917 48,146.5C 45.2853,146.954 43.452,148.454 42.5,151C 42.8361,152.03 43.5028,152.53 44.5,152.5C 42.8133,153.918 40.98,155.251 39,156.5C 38.5172,155.552 38.3505,154.552 38.5,153.5C 40.1918,151.486 41.5251,149.152 42.5,146.5C 44.7411,145.968 46.2411,144.635 47,142.5C 48.2183,144.019 49.7183,145.186 51.5,146C 54.6571,146.396 57.6571,147.229 60.5,148.5 Z"/></g>
<g><path style="opacity:1" fill="#ed5157" d="M 55.5,152.5 C 54.2642,155.621 51.9308,156.955 48.5,156.5C 47.1667,155.167 45.8333,153.833 44.5,152.5C 43.5028,152.53 42.8361,152.03 42.5,151C 43.452,148.454 45.2853,146.954 48,146.5C 50.9831,147.917 54.1498,148.75 57.5,149C 57.9574,149.414 58.2907,149.914 58.5,150.5C 57.3984,151.176 56.3984,151.842 55.5,152.5 Z"/></g>
<g><path style="opacity:1" fill="#4ea8ca" d="M 25.5,135.5 C 26.1667,135.5 26.8333,135.5 27.5,135.5C 27.5,135.833 27.5,136.167 27.5,136.5C 27.8297,142.868 27.4963,149.202 26.5,155.5C 25.5033,148.866 25.17,142.2 25.5,135.5 Z"/></g>
<g><path style="opacity:1" fill="#aa5a5a" d="M 61.5,149.5 C 62.1667,149.833 62.8333,150.167 63.5,150.5C 63.5,151.167 63.5,151.833 63.5,152.5C 63.5,153.5 63.5,154.5 63.5,155.5C 61.602,154.904 59.9354,154.904 58.5,155.5C 56.8007,155.527 55.4674,156.194 54.5,157.5C 53.0695,157.421 51.7362,157.754 50.5,158.5C 49.4777,158.145 48.811,157.478 48.5,156.5C 51.9308,156.955 54.2642,155.621 55.5,152.5C 57.8555,153.575 60.1889,153.575 62.5,152.5C 61.8728,151.583 61.5394,150.583 61.5,149.5 Z"/></g>
<g><path style="opacity:1" fill="#42728b" d="M 25.5,135.5 C 25.17,142.2 25.5033,148.866 26.5,155.5C 27.4963,149.202 27.8297,142.868 27.5,136.5C 29.0481,136.821 29.7148,137.821 29.5,139.5C 28.1667,142.5 28.1667,145.5 29.5,148.5C 29.5,148.833 29.5,149.167 29.5,149.5C 30.1276,154.038 28.6276,157.705 25,160.5C 24.0513,158.907 22.8846,157.574 21.5,156.5C 21.7359,153.391 21.4025,150.391 20.5,147.5C 21.3227,144.023 21.8227,140.356 22,136.5C 23.0113,135.663 24.1779,135.33 25.5,135.5 Z"/></g>
<g><path style="opacity:1" fill="#876568" d="M 63.5,152.5 C 65.8022,154.402 66.4688,156.736 65.5,159.5C 62.8619,158.417 60.5286,157.084 58.5,155.5C 59.9354,154.904 61.602,154.904 63.5,155.5C 63.5,154.5 63.5,153.5 63.5,152.5 Z"/></g>
<g><path style="opacity:1" fill="#8f5a5f" d="M 38.5,151.5 C 38.5,152.167 38.5,152.833 38.5,153.5C 38.3505,154.552 38.5172,155.552 39,156.5C 40.98,155.251 42.8133,153.918 44.5,152.5C 45.8333,153.833 47.1667,155.167 48.5,156.5C 48.811,157.478 49.4777,158.145 50.5,158.5C 51.7362,157.754 53.0695,157.421 54.5,157.5C 50.3286,161.323 47.1619,160.323 45,154.5C 42.1229,156.861 38.9563,158.861 35.5,160.5C 34.4173,159.635 34.2506,158.635 35,157.5C 35.876,155.242 37.0427,153.242 38.5,151.5 Z"/></g>
</svg>
