<?xml version="1.0" encoding="UTF-8"?>
<!DOCTYPE svg PUBLIC "-//W3C//DTD SVG 1.1//EN" "http://www.w3.org/Graphics/SVG/1.1/DTD/svg11.dtd">
<svg xmlns="http://www.w3.org/2000/svg" version="1.1" width="100px" height="165px" style="shape-rendering:geometricPrecision; text-rendering:geometricPrecision; image-rendering:optimizeQuality; fill-rule:evenodd; clip-rule:evenodd" xmlns:xlink="http://www.w3.org/1999/xlink">
<g><path style="opacity:1" fill="#f9f9f8" d="M -0.5,-0.5 C 21.1667,-0.5 42.8333,-0.5 64.5,-0.5C 64.5858,0.495904 64.2524,1.32924 63.5,2C 64.646,2.64494 65.646,3.47827 66.5,4.5C 67.7678,3.57211 69.1011,3.40544 70.5,4C 68.8839,4.61524 67.5505,5.61524 66.5,7C 67.7691,9.13853 67.7691,11.3052 66.5,13.5C 65.4593,11.0087 64.6259,11.0087 64,13.5C 63.6827,11.6992 63.016,11.3659 62,12.5C 60.3459,9.87922 58.5125,7.37922 56.5,5C 52.6425,4.19007 48.9758,4.35673 45.5,5.5C 43.9826,5.51056 42.8159,6.17723 42,7.5C 41.2515,9.33246 40.2515,10.9991 39,12.5C 38.8333,14.5 38.6667,16.5 38.5,18.5C 40.7624,34.8089 42.7624,51.1422 44.5,67.5C 44.5172,69.5648 44.8505,71.5648 45.5,73.5C 47.6998,75.3458 50.0331,77.0125 52.5,78.5C 55.5886,79.9696 58.0886,79.303 60,76.5C 60.6122,79.0317 62.1122,79.8651 64.5,79C 61.9218,76.8433 61.9218,75.6767 64.5,75.5C 63.2713,74.7189 61.938,74.2189 60.5,74C 62.5165,73.3257 64.1832,72.1591 65.5,70.5C 66.1189,73.0318 67.1189,75.3651 68.5,77.5C 67.9747,78.1924 67.3081,78.6924 66.5,79C 69.2821,79.2011 71.7821,78.3678 74,76.5C 75.2259,76.6448 76.3926,76.9781 77.5,77.5C 80.6716,74.4733 83.8383,71.4733 87,68.5C 86.6667,67.1667 86.3333,65.8333 86,64.5C 87.0113,63.6634 88.1779,63.33 89.5,63.5C 89.2314,57.8885 89.2314,52.3885 89.5,47C 87.4393,44.3757 85.7727,41.5424 84.5,38.5C 85.0468,35.2976 86.0468,32.2976 87.5,29.5C 87.1667,28.8333 86.8333,28.1667 86.5,27.5C 85.8333,28.8333 85.1667,30.1667 84.5,31.5C 84.2514,30.4179 84.0848,29.0846 84,27.5C 83.3292,26.7476 82.4959,26.4142 81.5,26.5C 81.3433,25.1266 81.51,23.7932 82,22.5C 82.3333,23.1667 82.6667,23.8333 83,24.5C 83.4986,20.8484 83.6653,17.1817 83.5,13.5C 84.8734,13.6567 86.2068,13.49 87.5,13C 86.6919,12.6924 86.0253,12.1924 85.5,11.5C 88.1635,8.64254 87.8302,6.14254 84.5,4C 85.5,3.66667 86.5,3.33333 87.5,3C 84.8782,1.52524 82.2116,0.358571 79.5,-0.5C 86.1667,-0.5 92.8333,-0.5 99.5,-0.5C 99.5,54.5 99.5,109.5 99.5,164.5C 66.1667,164.5 32.8333,164.5 -0.5,164.5C -0.5,109.5 -0.5,54.5 -0.5,-0.5 Z"/></g>
<g><path style="opacity:1" fill="#6f3a38" d="M 45.5,5.5 C 51.4391,5.05291 55.9391,7.38625 59,12.5C 60.4068,27.5339 59.2401,42.2006 55.5,56.5C 55.5324,50.8114 55.8658,45.1448 56.5,39.5C 57.6566,31.3437 57.8232,23.0104 57,14.5C 53.5234,6.98252 48.5234,5.64919 42,10.5C 40.4137,17.0573 40.0804,23.724 41,30.5C 42.3248,36.782 43.3248,43.1153 44,49.5C 44.2784,50.4158 44.7784,51.0825 45.5,51.5C 46.1995,55.7978 46.5328,60.1311 46.5,64.5C 46.4431,65.609 46.1098,66.609 45.5,67.5C 45.1667,67.5 44.8333,67.5 44.5,67.5C 42.7624,51.1422 40.7624,34.8089 38.5,18.5C 38.6667,16.5 38.8333,14.5 39,12.5C 40.2515,10.9991 41.2515,9.33246 42,7.5C 42.8159,6.17723 43.9826,5.51056 45.5,5.5 Z"/></g>
<g><path style="opacity:1" fill="#93856f" d="M 30.5,19.5 C 29.8347,17.3021 29.1681,14.9688 28.5,12.5C 24.9997,13.1575 21.833,12.1575 19,9.5C 18.6012,9.72845 18.4346,10.0618 18.5,10.5C 16.1073,9.64728 14.774,7.98062 14.5,5.5C 19.2675,5.19076 23.9342,5.69076 28.5,7C 29,7.5 29.5,8 30,8.5C 30.4986,12.1516 30.6653,15.8183 30.5,19.5 Z"/></g>
<g><path style="opacity:1" fill="#d15358" d="M 56.5,39.5 C 55.8658,45.1448 55.5324,50.8114 55.5,56.5C 54.7148,58.3736 54.0482,60.3736 53.5,62.5C 51.7167,65.2066 49.3834,65.8733 46.5,64.5C 46.5328,60.1311 46.1995,55.7978 45.5,51.5C 44.7784,51.0825 44.2784,50.4158 44,49.5C 43.3248,43.1153 42.3248,36.782 41,30.5C 40.0804,23.724 40.4137,17.0573 42,10.5C 48.5234,5.64919 53.5234,6.98252 57,14.5C 57.8232,23.0104 57.6566,31.3437 56.5,39.5 Z"/></g>
<g><path style="opacity:1" fill="#2b495a" d="M 30.5,19.5 C 31.1732,28.799 32.5065,38.1323 34.5,47.5C 35.3197,53.7974 35.653,60.1308 35.5,66.5C 32.7579,73.7788 27.7579,76.2788 20.5,74C 17.5624,71.1022 15.729,67.6022 15,63.5C 14.3333,55.8333 14.3333,48.1667 15,40.5C 16.7571,30.554 17.9238,20.554 18.5,10.5C 18.4346,10.0618 18.6012,9.72845 19,9.5C 21.833,12.1575 24.9997,13.1575 28.5,12.5C 29.1681,14.9688 29.8347,17.3021 30.5,19.5 Z"/></g>
<g><path style="opacity:1" fill="#f1efeb" d="M 64.5,-0.5 C 69.5,-0.5 74.5,-0.5 79.5,-0.5C 82.2116,0.358571 84.8782,1.52524 87.5,3C 86.5,3.33333 85.5,3.66667 84.5,4C 87.8302,6.14254 88.1635,8.64254 85.5,11.5C 86.0253,12.1924 86.6919,12.6924 87.5,13C 86.2068,13.49 84.8734,13.6567 83.5,13.5C 83.6653,17.1817 83.4986,20.8484 83,24.5C 82.6667,23.8333 82.3333,23.1667 82,22.5C 81.51,23.7932 81.3433,25.1266 81.5,26.5C 82.4959,26.4142 83.3292,26.7476 84,27.5C 84.0848,29.0846 84.2514,30.4179 84.5,31.5C 85.1667,30.1667 85.8333,28.8333 86.5,27.5C 86.8333,28.1667 87.1667,28.8333 87.5,29.5C 86.0468,32.2976 85.0468,35.2976 84.5,38.5C 85.7727,41.5424 87.4393,44.3757 89.5,47C 89.2314,52.3885 89.2314,57.8885 89.5,63.5C 88.1779,63.33 87.0113,63.6634 86,64.5C 86.3333,65.8333 86.6667,67.1667 87,68.5C 83.8383,71.4733 80.6716,74.4733 77.5,77.5C 76.3926,76.9781 75.2259,76.6448 74,76.5C 71.7821,78.3678 69.2821,79.2011 66.5,79C 67.3081,78.6924 67.9747,78.1924 68.5,77.5C 67.1189,75.3651 66.1189,73.0318 65.5,70.5C 64.1832,72.1591 62.5165,73.3257 60.5,74C 61.938,74.2189 63.2713,74.7189 64.5,75.5C 61.9218,75.6767 61.9218,76.8433 64.5,79C 62.1122,79.8651 60.6122,79.0317 60,76.5C 58.0886,79.303 55.5886,79.9696 52.5,78.5C 50.0331,77.0125 47.6998,75.3458 45.5,73.5C 50.3265,76.2431 54.9932,76.0764 59.5,73C 58.6719,71.0077 57.3386,69.5077 55.5,68.5C 54.994,64.6044 54.994,60.6044 55.5,56.5C 59.2401,42.2006 60.4068,27.5339 59,12.5C 55.9391,7.38625 51.4391,5.05291 45.5,5.5C 48.9758,4.35673 52.6425,4.19007 56.5,5C 58.5125,7.37922 60.3459,9.87922 62,12.5C 63.016,11.3659 63.6827,11.6992 64,13.5C 64.6259,11.0087 65.4593,11.0087 66.5,13.5C 67.7691,11.3052 67.7691,9.13853 66.5,7C 67.5505,5.61524 68.8839,4.61524 70.5,4C 69.1011,3.40544 67.7678,3.57211 66.5,4.5C 65.646,3.47827 64.646,2.64494 63.5,2C 64.2524,1.32924 64.5858,0.495904 64.5,-0.5 Z"/></g>
<g><path style="opacity:1" fill="#774d4c" d="M 79.5,13.5 C 79.1667,13.5 78.8333,13.5 78.5,13.5C 76.1047,12.1857 73.6047,12.1857 71,13.5C 70.5357,12.9056 70.369,12.2389 70.5,11.5C 69.9648,8.76152 70.9648,6.92818 73.5,6C 77.2113,5.17473 80.878,5.3414 84.5,6.5C 82.7678,8.88096 81.1012,11.2143 79.5,13.5 Z"/></g>
<g><path style="opacity:1" fill="#bd8268" d="M 70.5,11.5 C 70.369,12.2389 70.5357,12.9056 71,13.5C 73.6047,12.1857 76.1047,12.1857 78.5,13.5C 77.1667,13.5 75.8333,13.5 74.5,13.5C 73.7784,13.9175 73.2784,14.5842 73,15.5C 72.0565,20.827 71.2232,26.1603 70.5,31.5C 69.8333,34.5 69.1667,37.5 68.5,40.5C 68.5721,32.7797 69.2387,25.113 70.5,17.5C 70.4573,16.5836 70.1239,15.9169 69.5,15.5C 69.2322,13.901 69.5655,12.5676 70.5,11.5 Z"/></g>
<g><path style="opacity:1" fill="#4c3f29" d="M 78.5,13.5 C 78.8333,13.5 79.1667,13.5 79.5,13.5C 79.335,16.8499 79.5017,20.1832 80,23.5C 80.2321,24.7375 80.7321,25.7375 81.5,26.5C 81.5,28.1667 81.5,29.8333 81.5,31.5C 80.3034,30.739 79.4701,29.0723 79,26.5C 78.501,22.1794 78.3343,17.8461 78.5,13.5 Z"/></g>
<g><path style="opacity:1" fill="#25a6d8" d="M 27.5,18.5 C 28.2436,22.1185 28.577,25.7852 28.5,29.5C 28.6336,33.3016 27.967,36.9682 26.5,40.5C 28.0345,50.3888 29.3678,60.3888 30.5,70.5C 29.8333,70.8333 29.1667,71.1667 28.5,71.5C 27.1667,71.5 25.8333,71.5 24.5,71.5C 24.8261,62.9832 24.4927,54.6499 23.5,46.5C 23.5,41.5 23.5,36.5 23.5,31.5C 23.1718,26.1254 23.5052,20.7921 24.5,15.5C 25.735,16.3398 26.735,17.3398 27.5,18.5 Z"/></g>
<g><path style="opacity:1" fill="#9b8332" d="M 77.5,42.5 C 77.0578,38.8455 76.7244,35.1788 76.5,31.5C 76.3379,29.4727 76.5045,27.4727 77,25.5C 77.3501,30.1843 77.8501,34.851 78.5,39.5C 78.4805,40.7261 78.1471,41.7261 77.5,42.5 Z"/></g>
<g><path style="opacity:1" fill="#d6a760" d="M 74.5,13.5 C 75.3387,18.0098 75.0053,22.5098 73.5,27C 73.6107,28.7215 74.1107,28.8882 75,27.5C 75.49,28.7932 75.6567,30.1266 75.5,31.5C 74.3329,41.9981 72.9996,52.4981 71.5,63C 71.7027,65.811 72.3694,68.4777 73.5,71C 73.8333,71.1667 74.1667,71.3333 74.5,71.5C 75.5207,70.0986 76.5207,68.7653 77.5,67.5C 77.6334,70.5869 76.3001,72.5869 73.5,73.5C 69.063,70.9286 67.063,66.9286 67.5,61.5C 67.369,60.7611 67.5357,60.0944 68,59.5C 69.0437,60.6226 69.7104,61.9559 70,63.5C 70.9263,58.6826 71.7596,53.8493 72.5,49C 71.8333,47.3333 71.1667,45.6667 70.5,44C 70.8983,39.9267 70.8983,35.76 70.5,31.5C 71.2232,26.1603 72.0565,20.827 73,15.5C 73.2784,14.5842 73.7784,13.9175 74.5,13.5 Z"/></g>
<g><path style="opacity:1" fill="#2e9ec7" d="M 27.5,18.5 C 26.735,17.3398 25.735,16.3398 24.5,15.5C 23.5052,20.7921 23.1718,26.1254 23.5,31.5C 22.176,35.107 21.5093,39.107 21.5,43.5C 21.557,50.2017 22.057,56.8684 23,63.5C 23.4994,57.8431 23.6661,52.1764 23.5,46.5C 24.4927,54.6499 24.8261,62.9832 24.5,71.5C 25.8333,71.5 27.1667,71.5 28.5,71.5C 26.3312,74.068 23.9979,74.068 21.5,71.5C 18.6223,67.6618 17.1223,63.3285 17,58.5C 16.3333,52.5 16.3333,46.5 17,40.5C 19.0679,31.6239 20.2345,22.6239 20.5,13.5C 22.8056,13.9926 25.139,14.3259 27.5,14.5C 27.5,15.8333 27.5,17.1667 27.5,18.5 Z"/></g>
<g><path style="opacity:1" fill="#e75056" d="M 56.5,39.5 C 55.8485,40.0906 55.1818,40.7573 54.5,41.5C 53.1667,32.8333 53.1667,24.1667 54.5,15.5C 55.086,15.7093 55.586,16.0426 56,16.5C 56.4997,24.1594 56.6664,31.8261 56.5,39.5 Z"/></g>
<g><path style="opacity:1" fill="#605639" d="M 82.5,33.5 C 85.2935,42.6013 86.4602,51.9347 86,61.5C 84.7627,64.4481 83.2627,67.1148 81.5,69.5C 82.6535,65.3631 83.6535,61.1964 84.5,57C 83.7863,49.7902 82.7863,42.6235 81.5,35.5C 81.5427,34.5836 81.8761,33.9169 82.5,33.5 Z"/></g>
<g><path style="opacity:1" fill="#e3454a" d="M 50.5,13.5 C 50.1667,12.1667 49.8333,12.1667 49.5,13.5C 48.6236,13.3691 47.9569,13.7025 47.5,14.5C 48.8953,31.1157 49.3953,47.7824 49,64.5C 49.017,59.7063 47.8503,55.3729 45.5,51.5C 44.004,38.8709 43.504,26.2042 44,13.5C 45.2498,9.86735 47.5831,8.86735 51,10.5C 51.7401,11.7494 51.5735,12.7494 50.5,13.5 Z"/></g>
<g><path style="opacity:1" fill="#892122" d="M 50.5,13.5 C 52.7606,22.8901 52.9273,32.2234 51,41.5C 50.0015,32.1913 49.5015,22.8579 49.5,13.5C 49.8333,12.1667 50.1667,12.1667 50.5,13.5 Z"/></g>
<g><path style="opacity:1" fill="#19698d" d="M 23.5,31.5 C 23.5,36.5 23.5,41.5 23.5,46.5C 23.6661,52.1764 23.4994,57.8431 23,63.5C 22.057,56.8684 21.557,50.2017 21.5,43.5C 21.5093,39.107 22.176,35.107 23.5,31.5 Z"/></g>
<g><path style="opacity:1" fill="#65483c" d="M 69.5,15.5 C 70.1239,15.9169 70.4573,16.5836 70.5,17.5C 69.2387,25.113 68.5721,32.7797 68.5,40.5C 66.9926,44.3911 66.3259,48.5578 66.5,53C 66.5022,56.0208 66.8356,58.8541 67.5,61.5C 67.063,66.9286 69.063,70.9286 73.5,73.5C 77.0559,73.7224 79.7226,72.3891 81.5,69.5C 80.9294,73.6738 78.4294,75.6738 74,75.5C 72.3732,75.3749 70.8732,74.8749 69.5,74C 64.9032,66.4467 63.0698,58.28 64,49.5C 66.3457,38.2465 68.179,26.9132 69.5,15.5 Z"/></g>
<g><path style="opacity:1" fill="#cc8a54" d="M 70.5,31.5 C 70.8983,35.76 70.8983,39.9267 70.5,44C 71.1667,45.6667 71.8333,47.3333 72.5,49C 71.7596,53.8493 70.9263,58.6826 70,63.5C 69.7104,61.9559 69.0437,60.6226 68,59.5C 67.5357,60.0944 67.369,60.7611 67.5,61.5C 66.8356,58.8541 66.5022,56.0208 66.5,53C 66.3259,48.5578 66.9926,44.3911 68.5,40.5C 69.1667,37.5 69.8333,34.5 70.5,31.5 Z"/></g>
<g><path style="opacity:1" fill="#aa9248" d="M 78.5,44.5 C 81.7652,50.5043 82.2652,56.8376 80,63.5C 79.7996,65.3197 78.9663,66.653 77.5,67.5C 78.3918,63.6545 79.3918,59.8212 80.5,56C 78.9521,52.3346 78.2855,48.5012 78.5,44.5 Z"/></g>
<g><path style="opacity:1" fill="#2891bc" d="M 28.5,29.5 C 30.6841,39.4251 32.3508,49.5918 33.5,60C 33.4869,63.9018 32.4869,67.4018 30.5,70.5C 29.3678,60.3888 28.0345,50.3888 26.5,40.5C 27.967,36.9682 28.6336,33.3016 28.5,29.5 Z"/></g>
<g><path style="opacity:1" fill="#9fa4ac" d="M 34.5,47.5 C 36.0392,50.8646 36.7058,54.5313 36.5,58.5C 36.4975,61.3555 36.1641,64.0221 35.5,66.5C 35.653,60.1308 35.3197,53.7974 34.5,47.5 Z"/></g>
<g><path style="opacity:1" fill="#dcc881" d="M 74.5,13.5 C 75.8333,13.5 77.1667,13.5 78.5,13.5C 78.3343,17.8461 78.501,22.1794 79,26.5C 79.4701,29.0723 80.3034,30.739 81.5,31.5C 82.3382,31.8417 82.6716,32.5084 82.5,33.5C 81.8761,33.9169 81.5427,34.5836 81.5,35.5C 82.7863,42.6235 83.7863,49.7902 84.5,57C 83.6535,61.1964 82.6535,65.3631 81.5,69.5C 79.7226,72.3891 77.0559,73.7224 73.5,73.5C 76.3001,72.5869 77.6334,70.5869 77.5,67.5C 78.9663,66.653 79.7996,65.3197 80,63.5C 82.2652,56.8376 81.7652,50.5043 78.5,44.5C 78.1667,43.8333 77.8333,43.1667 77.5,42.5C 78.1471,41.7261 78.4805,40.7261 78.5,39.5C 77.8501,34.851 77.3501,30.1843 77,25.5C 76.5045,27.4727 76.3379,29.4727 76.5,31.5C 76.1667,31.5 75.8333,31.5 75.5,31.5C 75.6567,30.1266 75.49,28.7932 75,27.5C 74.1107,28.8882 73.6107,28.7215 73.5,27C 75.0053,22.5098 75.3387,18.0098 74.5,13.5 Z"/></g>
<g><path style="opacity:1" fill="#f5d868" d="M 75.5,31.5 C 75.8333,31.5 76.1667,31.5 76.5,31.5C 76.7244,35.1788 77.0578,38.8455 77.5,42.5C 77.8333,43.1667 78.1667,43.8333 78.5,44.5C 78.2855,48.5012 78.9521,52.3346 80.5,56C 79.3918,59.8212 78.3918,63.6545 77.5,67.5C 76.5207,68.7653 75.5207,70.0986 74.5,71.5C 74.1667,71.3333 73.8333,71.1667 73.5,71C 72.3694,68.4777 71.7027,65.811 71.5,63C 72.9996,52.4981 74.3329,41.9981 75.5,31.5 Z"/></g>
<g><path style="opacity:1" fill="#5a3826" d="M 55.5,56.5 C 54.994,60.6044 54.994,64.6044 55.5,68.5C 55.5,69.1667 55.5,69.8333 55.5,70.5C 54.3172,69.4955 52.9839,68.6622 51.5,68C 53.1554,66.5557 53.822,64.7224 53.5,62.5C 54.0482,60.3736 54.7148,58.3736 55.5,56.5 Z"/></g>
<g><path style="opacity:1" fill="#946b4d" d="M 53.5,62.5 C 53.822,64.7224 53.1554,66.5557 51.5,68C 52.9839,68.6622 54.3172,69.4955 55.5,70.5C 54.0821,72.3079 52.0821,72.9746 49.5,72.5C 49.8174,69.4535 48.4841,67.7868 45.5,67.5C 46.1098,66.609 46.4431,65.609 46.5,64.5C 49.3834,65.8733 51.7167,65.2066 53.5,62.5 Z"/></g>
<g><path style="opacity:1" fill="#94876f" d="M 44.5,67.5 C 44.8333,67.5 45.1667,67.5 45.5,67.5C 48.4841,67.7868 49.8174,69.4535 49.5,72.5C 52.0821,72.9746 54.0821,72.3079 55.5,70.5C 55.5,69.8333 55.5,69.1667 55.5,68.5C 57.3386,69.5077 58.6719,71.0077 59.5,73C 54.9932,76.0764 50.3265,76.2431 45.5,73.5C 44.8505,71.5648 44.5172,69.5648 44.5,67.5 Z"/></g>
<g><path style="opacity:1" fill="#aa9b89" d="M 54.5,89.5 C 52.1806,88.833 49.8473,88.6664 47.5,89C 48.1667,89.6667 48.8333,90.3333 49.5,91C 48.0028,92.2284 46.6694,92.7284 45.5,92.5C 43.2407,91.656 42.2407,89.9893 42.5,87.5C 45.8499,87.335 49.1832,87.5017 52.5,88C 53.4158,88.2784 54.0825,88.7784 54.5,89.5 Z"/></g>
<g><path style="opacity:1" fill="#936f54" d="M 54.5,89.5 C 55.1667,90.5 55.8333,91.5 56.5,92.5C 55.596,93.209 55.2627,94.209 55.5,95.5C 53.8333,95.5 52.1667,95.5 50.5,95.5C 48.9382,95.2671 47.6049,94.6005 46.5,93.5C 45.8333,93.5 45.5,93.1667 45.5,92.5C 46.6694,92.7284 48.0028,92.2284 49.5,91C 48.8333,90.3333 48.1667,89.6667 47.5,89C 49.8473,88.6664 52.1806,88.833 54.5,89.5 Z"/></g>
<g><path style="opacity:1" fill="#5c4331" d="M 18.5,90.5 C 19.4916,90.3284 20.1583,90.6618 20.5,91.5C 15.7169,98.4452 14.3836,106.112 16.5,114.5C 17.4865,120.294 18.9865,125.961 21,131.5C 21.699,137.489 22.199,143.489 22.5,149.5C 21.8826,149.389 21.3826,149.056 21,148.5C 20.7679,149.737 20.2679,150.737 19.5,151.5C 20.3973,146.86 20.5639,142.194 20,137.5C 16.8674,127.04 14.7007,116.373 13.5,105.5C 14.3194,100.2 15.9861,95.1997 18.5,90.5 Z"/></g>
<g><path style="opacity:1" fill="#d6bd7f" d="M 31.5,123.5 C 31.3396,120.116 31.673,116.783 32.5,113.5C 32.0234,111.403 31.3567,109.403 30.5,107.5C 30.6646,104.482 30.498,101.482 30,98.5C 29.7645,96.8807 28.9311,95.8807 27.5,95.5C 28.4908,93.8773 27.8241,92.8773 25.5,92.5C 25.4827,90.9719 24.816,90.4719 23.5,91C 19.5549,97.9479 17.7215,105.448 18,113.5C 17.6174,114.056 17.1174,114.389 16.5,114.5C 14.3836,106.112 15.7169,98.4452 20.5,91.5C 26.0575,88.5172 29.8909,90.1838 32,96.5C 33.0581,100.58 33.5581,104.747 33.5,109C 33.6563,114.09 32.9897,118.923 31.5,123.5 Z"/></g>
<g><path style="opacity:1" fill="#f4db5c" d="M 24.5,92.5 C 24.8333,92.5 25.1667,92.5 25.5,92.5C 27.8241,92.8773 28.4908,93.8773 27.5,95.5C 27.5,96.1667 27.5,96.8333 27.5,97.5C 26.7679,103.988 25.6012,110.322 24,116.5C 23.1764,113.215 22.6764,109.882 22.5,106.5C 23.7695,101.944 24.4362,97.2773 24.5,92.5 Z"/></g>
<g><path style="opacity:1" fill="#6b3837" d="M 46.5,93.5 C 47.6049,94.6005 48.9382,95.2671 50.5,95.5C 49.5313,96.3094 48.6979,97.3094 48,98.5C 47.8195,101.695 47.3195,104.695 46.5,107.5C 45.4362,112.053 43.7695,116.386 41.5,120.5C 43.8115,111.61 45.4782,102.61 46.5,93.5 Z"/></g>
<g><path style="opacity:1" fill="#ae9144" d="M 27.5,95.5 C 28.9311,95.8807 29.7645,96.8807 30,98.5C 30.498,101.482 30.6646,104.482 30.5,107.5C 28.6001,115.267 27.2667,123.267 26.5,131.5C 25.5655,130.432 25.2322,129.099 25.5,127.5C 26.0186,119.763 27.0186,112.096 28.5,104.5C 28.4966,101.975 28.1633,99.6413 27.5,97.5C 27.5,96.8333 27.5,96.1667 27.5,95.5 Z"/></g>
<g><path style="opacity:1" fill="#9e8580" d="M 56.5,92.5 C 57.9095,101.631 58.5762,110.965 58.5,120.5C 57.1806,111.363 56.514,102.029 56.5,92.5 Z"/></g>
<g><path style="opacity:1" fill="#e3c86b" d="M 30.5,107.5 C 31.3567,109.403 32.0234,111.403 32.5,113.5C 31.673,116.783 31.3396,120.116 31.5,123.5C 31.6469,128.214 31.3136,132.881 30.5,137.5C 29.2276,140.967 28.2276,144.634 27.5,148.5C 26.1552,147.653 25.1552,146.487 24.5,145C 25.2555,140.538 25.9222,136.038 26.5,131.5C 27.2667,123.267 28.6001,115.267 30.5,107.5 Z"/></g>
<g><path style="opacity:1" fill="#eed26e" d="M 24.5,92.5 C 24.4362,97.2773 23.7695,101.944 22.5,106.5C 22.6764,109.882 23.1764,113.215 24,116.5C 25.6012,110.322 26.7679,103.988 27.5,97.5C 28.1633,99.6413 28.4966,101.975 28.5,104.5C 27.0186,112.096 26.0186,119.763 25.5,127.5C 24.5041,127.586 23.6708,127.252 23,126.5C 22.1587,119.765 20.992,113.098 19.5,106.5C 20.6719,101.604 22.3386,96.9369 24.5,92.5 Z"/></g>
<g><path style="opacity:1" fill="#832b34" d="M 46.5,107.5 C 45.6552,116.12 43.9885,124.453 41.5,132.5C 41.5,130.167 41.5,127.833 41.5,125.5C 41.5,123.833 41.5,122.167 41.5,120.5C 43.7695,116.386 45.4362,112.053 46.5,107.5 Z"/></g>
<g><path style="opacity:1" fill="#2e4e5f" d="M 80.5,147.5 C 79.8354,149.369 79.1687,151.369 78.5,153.5C 75.7239,151.87 72.7239,151.203 69.5,151.5C 68.5606,136.047 66.894,120.713 64.5,105.5C 64.2076,98.8749 66.5409,93.3749 71.5,89C 79.2057,88.3604 83.8723,91.8604 85.5,99.5C 86.6628,104.802 86.8295,110.136 86,115.5C 84.0987,126.171 82.2653,136.838 80.5,147.5 Z"/></g>
<g><path style="opacity:1" fill="#2b93bb" d="M 72.5,90.5 C 75.0444,90.1043 77.2111,90.771 79,92.5C 83.0842,99.3181 84.7508,106.651 84,114.5C 81.8503,126.45 80.0169,138.45 78.5,150.5C 75.7276,150.78 73.2276,150.113 71,148.5C 69.467,130.841 68.467,113.175 68,95.5C 69.7073,93.9625 71.2073,92.2959 72.5,90.5 Z"/></g>
<g><path style="opacity:1" fill="#21a5db" d="M 72.5,92.5 C 77.5751,92.1803 79.4085,94.5137 78,99.5C 77.6667,98.1667 77.3333,96.8333 77,95.5C 75.642,98.5262 74.8087,101.693 74.5,105C 75.166,112.488 75.666,119.988 76,127.5C 76.3333,127.833 76.6667,128.167 77,128.5C 77.9206,119.845 78.7539,111.178 79.5,102.5C 80.1924,103.025 80.6924,103.692 81,104.5C 81.9095,113.244 81.5762,121.911 80,130.5C 79.6667,130.167 79.3333,129.833 79,129.5C 78.8236,132.882 78.3236,136.215 77.5,139.5C 76.8076,138.975 76.3076,138.308 76,137.5C 75.6667,139.5 75.3333,141.5 75,143.5C 74.1475,141.875 73.1475,141.542 72,142.5C 71.2791,135.477 71.4458,128.477 72.5,121.5C 71.8333,113.833 71.1667,106.167 70.5,98.5C 70.6113,96.2857 71.278,94.2857 72.5,92.5 Z"/></g>
<g><path style="opacity:1" fill="#d74e55" d="M 50.5,95.5 C 52.1667,95.5 53.8333,95.5 55.5,95.5C 55.5,95.8333 55.5,96.1667 55.5,96.5C 54.7611,96.369 54.0944,96.5357 53.5,97C 54.4777,103.41 54.811,109.91 54.5,116.5C 53.7696,113.422 52.6029,110.422 51,107.5C 49.5634,111.972 49.0634,116.639 49.5,121.5C 49.5,121.833 49.5,122.167 49.5,122.5C 48.8826,122.389 48.3826,122.056 48,121.5C 47.5045,123.473 47.3379,125.473 47.5,127.5C 46.671,134.989 46.171,142.656 46,150.5C 45.3292,149.748 44.4959,149.414 43.5,149.5C 42.7784,149.082 42.2784,148.416 42,147.5C 41.5007,142.511 41.3341,137.511 41.5,132.5C 43.9885,124.453 45.6552,116.12 46.5,107.5C 47.3195,104.695 47.8195,101.695 48,98.5C 48.6979,97.3094 49.5313,96.3094 50.5,95.5 Z"/></g>
<g><path style="opacity:1" fill="#842424" d="M 49.5,122.5 C 49.291,132.845 48.791,143.178 48,153.5C 47.5002,144.84 47.3336,136.173 47.5,127.5C 47.3379,125.473 47.5045,123.473 48,121.5C 48.3826,122.056 48.8826,122.389 49.5,122.5 Z"/></g>
<g><path style="opacity:1" fill="#6a3533" d="M 56.5,92.5 C 56.514,102.029 57.1806,111.363 58.5,120.5C 59.4731,122.948 59.8064,125.615 59.5,128.5C 60.2597,134.804 60.593,141.137 60.5,147.5C 59.3631,155.812 54.6964,159.312 46.5,158C 41.2675,152.431 38.9342,145.764 39.5,138C 39.3938,133.573 40.0605,129.406 41.5,125.5C 41.5,127.833 41.5,130.167 41.5,132.5C 41.3341,137.511 41.5007,142.511 42,147.5C 42.2784,148.416 42.7784,149.082 43.5,149.5C 45.2265,156.754 49.2265,158.254 55.5,154C 57.4296,150.102 58.4296,145.935 58.5,141.5C 56.8359,126.561 55.8359,111.561 55.5,96.5C 55.5,96.1667 55.5,95.8333 55.5,95.5C 55.2627,94.209 55.596,93.209 56.5,92.5 Z"/></g>
<g><path style="opacity:1" fill="#776647" d="M 27.5,156.5 C 27.5,154.5 27.5,152.5 27.5,150.5C 28.6491,150.209 29.3158,149.376 29.5,148C 30.2865,144.542 30.6198,141.042 30.5,137.5C 31.3136,132.881 31.6469,128.214 31.5,123.5C 32.9897,118.923 33.6563,114.09 33.5,109C 33.5581,104.747 33.0581,100.58 32,96.5C 29.8909,90.1838 26.0575,88.5172 20.5,91.5C 20.1583,90.6618 19.4916,90.3284 18.5,90.5C 20.8579,87.7636 23.8579,86.9302 27.5,88C 35.0162,94.8935 37.5162,103.393 35,113.5C 33.6122,127.546 31.9456,141.546 30,155.5C 29.3292,156.252 28.4959,156.586 27.5,156.5 Z"/></g>
<g><path style="opacity:1" fill="#ab9a93" d="M 59.5,128.5 C 60.9844,132.054 61.6511,135.888 61.5,140C 61.4971,142.69 61.1638,145.19 60.5,147.5C 60.593,141.137 60.2597,134.804 59.5,128.5 Z"/></g>
<g><path style="opacity:1" fill="#c3995e" d="M 25.5,92.5 C 25.1667,92.5 24.8333,92.5 24.5,92.5C 22.3386,96.9369 20.6719,101.604 19.5,106.5C 20.992,113.098 22.1587,119.765 23,126.5C 23.6708,127.252 24.5041,127.586 25.5,127.5C 25.2322,129.099 25.5655,130.432 26.5,131.5C 25.9222,136.038 25.2555,140.538 24.5,145C 25.1552,146.487 26.1552,147.653 27.5,148.5C 28.2276,144.634 29.2276,140.967 30.5,137.5C 30.6198,141.042 30.2865,144.542 29.5,148C 29.3158,149.376 28.6491,150.209 27.5,150.5C 25.5853,150.784 23.9187,150.451 22.5,149.5C 22.199,143.489 21.699,137.489 21,131.5C 18.9865,125.961 17.4865,120.294 16.5,114.5C 17.1174,114.389 17.6174,114.056 18,113.5C 17.7215,105.448 19.5549,97.9479 23.5,91C 24.816,90.4719 25.4827,90.9719 25.5,92.5 Z"/></g>
<g><path style="opacity:1" fill="#e54851" d="M 54.5,116.5 C 56.035,126.737 56.535,137.07 56,147.5C 55.1177,150.552 53.2844,152.886 50.5,154.5C 50.2984,143.351 49.9651,132.351 49.5,121.5C 49.0634,116.639 49.5634,111.972 51,107.5C 52.6029,110.422 53.7696,113.422 54.5,116.5 Z"/></g>
<g><path style="opacity:1" fill="#cb565c" d="M 55.5,96.5 C 55.8359,111.561 56.8359,126.561 58.5,141.5C 58.4296,145.935 57.4296,150.102 55.5,154C 49.2265,158.254 45.2265,156.754 43.5,149.5C 44.4959,149.414 45.3292,149.748 46,150.5C 46.171,142.656 46.671,134.989 47.5,127.5C 47.3336,136.173 47.5002,144.84 48,153.5C 48.791,143.178 49.291,132.845 49.5,122.5C 49.5,122.167 49.5,121.833 49.5,121.5C 49.9651,132.351 50.2984,143.351 50.5,154.5C 53.2844,152.886 55.1177,150.552 56,147.5C 56.535,137.07 56.035,126.737 54.5,116.5C 54.811,109.91 54.4777,103.41 53.5,97C 54.0944,96.5357 54.7611,96.369 55.5,96.5 Z"/></g>
<g><path style="opacity:1" fill="#874a4c" d="M 22.5,149.5 C 23.9187,150.451 25.5853,150.784 27.5,150.5C 27.5,152.5 27.5,154.5 27.5,156.5C 24.0481,157.85 20.3814,158.35 16.5,158C 16.0426,157.586 15.7093,157.086 15.5,156.5C 17.5522,155.389 18.8855,153.723 19.5,151.5C 20.2679,150.737 20.7679,149.737 21,148.5C 21.3826,149.056 21.8826,149.389 22.5,149.5 Z"/></g>
<g><path style="opacity:1" fill="#7f7064" d="M 80.5,147.5 C 79.5769,151.849 80.9102,155.183 84.5,157.5C 79.0353,160.714 74.202,160.047 70,155.5C 69.51,154.207 69.3433,152.873 69.5,151.5C 72.7239,151.203 75.7239,151.87 78.5,153.5C 79.1687,151.369 79.8354,149.369 80.5,147.5 Z"/></g>
</svg>
