<?xml version="1.0" encoding="UTF-8"?>
<!DOCTYPE svg PUBLIC "-//W3C//DTD SVG 1.1//EN" "http://www.w3.org/Graphics/SVG/1.1/DTD/svg11.dtd">
<svg xmlns="http://www.w3.org/2000/svg" version="1.1" width="100px" height="165px" style="shape-rendering:geometricPrecision; text-rendering:geometricPrecision; image-rendering:optimizeQuality; fill-rule:evenodd; clip-rule:evenodd" xmlns:xlink="http://www.w3.org/1999/xlink">
<g><path style="opacity:1" fill="#f9faf9" d="M 3.5,-0.5 C 35.5,-0.5 67.5,-0.5 99.5,-0.5C 99.5,54.5 99.5,109.5 99.5,164.5C 67.5,164.5 35.5,164.5 3.5,164.5C 3.32191,161.678 2.65524,159.011 1.5,156.5C 3.47634,149.037 3.47634,141.537 1.5,134C 2.9413,117.59 3.60797,101.09 3.5,84.5C 7.03994,84.6235 9.03994,82.9568 9.5,79.5C 6.94417,79.8678 4.94417,79.0345 3.5,77C 3.90536,76.0546 4.57203,75.3879 5.5,75C 5.18339,65.6127 5.01672,56.1127 5,46.5C 5.62595,44.0087 6.45928,44.0087 7.5,46.5C 8.30806,46.1924 8.97473,45.6924 9.5,45C 7.8208,41.972 6.15414,38.972 4.5,36C 5.02186,35.4387 5.3552,34.772 5.5,34C 4.80806,25.2609 3.80806,16.5942 2.5,8C 3.44379,5.28086 3.77712,2.44753 3.5,-0.5 Z"/></g>
<g><path style="opacity:1" fill="#7a5e5a" d="M 31.5,5.5 C 26.5,5.5 21.5,5.5 16.5,5.5C 16.2627,6.79105 16.596,7.79105 17.5,8.5C 17.7947,10.7354 17.4614,12.7354 16.5,14.5C 16.0847,12.2532 15.4181,10.0865 14.5,8C 14.5852,6.8926 14.9186,5.8926 15.5,5C 21.0411,2.86232 26.3744,3.02898 31.5,5.5 Z"/></g>
<g><path style="opacity:1" fill="#88655b" d="M 80.5,16.5 C 80.1667,16.5 79.8333,16.5 79.5,16.5C 78.8333,16.5 78.5,16.8333 78.5,17.5C 78.1667,17.5 77.8333,17.5 77.5,17.5C 77.8925,15.7162 78.5592,14.0495 79.5,12.5C 79.5,11.8333 79.5,11.1667 79.5,10.5C 79.5,9.16667 79.5,7.83333 79.5,6.5C 74.6594,5.46821 69.6594,5.46821 64.5,6.5C 64.4701,5.50278 64.9701,4.83611 66,4.5C 71.2003,3.16907 76.367,3.33574 81.5,5C 82.0219,5.5613 82.3552,6.22797 82.5,7C 81.1282,10.0261 80.4615,13.1927 80.5,16.5 Z"/></g>
<g><path style="opacity:1" fill="#8f4040" d="M 31.5,5.5 C 31.7678,7.09903 31.4345,8.43236 30.5,9.5C 30.5,8.5 30.5,7.5 30.5,6.5C 27.8127,6.33591 25.146,6.50258 22.5,7C 21.244,7.41691 20.5774,8.25025 20.5,9.5C 20.44,10.0431 20.1067,10.3764 19.5,10.5C 18.8182,9.75731 18.1515,9.09065 17.5,8.5C 16.596,7.79105 16.2627,6.79105 16.5,5.5C 21.5,5.5 26.5,5.5 31.5,5.5 Z"/></g>
<g><path style="opacity:1" fill="#e16761" d="M 30.5,9.5 C 27.1148,10.628 23.7814,10.628 20.5,9.5C 20.5774,8.25025 21.244,7.41691 22.5,7C 25.146,6.50258 27.8127,6.33591 30.5,6.5C 30.5,7.5 30.5,8.5 30.5,9.5 Z"/></g>
<g><path style="opacity:1" fill="#873d3b" d="M 79.5,6.5 C 76.8127,6.33591 74.146,6.50258 71.5,7C 70.0267,7.70956 69.3601,8.87623 69.5,10.5C 69.5,11.1667 69.1667,11.5 68.5,11.5C 67.8645,9.20537 66.5311,7.5387 64.5,6.5C 69.6594,5.46821 74.6594,5.46821 79.5,6.5 Z"/></g>
<g><path style="opacity:1" fill="#d67062" d="M 79.5,6.5 C 79.5,7.83333 79.5,9.16667 79.5,10.5C 76.1667,10.5 72.8333,10.5 69.5,10.5C 69.3601,8.87623 70.0267,7.70956 71.5,7C 74.146,6.50258 76.8127,6.33591 79.5,6.5 Z"/></g>
<g><path style="opacity:1" fill="#a77a43" d="M 69.5,10.5 C 72.8333,10.5 76.1667,10.5 79.5,10.5C 79.5,11.1667 79.5,11.8333 79.5,12.5C 76.216,11.2621 74.716,12.5955 75,16.5C 73.5512,10.8913 71.8845,10.558 70,15.5C 69.5899,14.0993 69.0899,12.766 68.5,11.5C 69.1667,11.5 69.5,11.1667 69.5,10.5 Z"/></g>
<g><path style="opacity:1" fill="#9d7b56" d="M 31.5,5.5 C 32.4972,5.47008 33.1639,5.97008 33.5,7C 31.5835,10.2482 30.5835,13.7482 30.5,17.5C 29.1667,17.5 27.8333,17.5 26.5,17.5C 23.3023,18.7 19.969,18.7 16.5,17.5C 16.5,16.5 16.5,15.5 16.5,14.5C 17.4614,12.7354 17.7947,10.7354 17.5,8.5C 18.1515,9.09065 18.8182,9.75731 19.5,10.5C 20.1067,10.3764 20.44,10.0431 20.5,9.5C 23.7814,10.628 27.1148,10.628 30.5,9.5C 31.4345,8.43236 31.7678,7.09903 31.5,5.5 Z"/></g>
<g><path style="opacity:1" fill="#6f5d4b" d="M 64.5,6.5 C 66.5311,7.5387 67.8645,9.20537 68.5,11.5C 67.2584,13.3888 67.2584,15.3888 68.5,17.5C 67.8333,17.5 67.1667,17.5 66.5,17.5C 66.7678,15.901 66.4345,14.5676 65.5,13.5C 65.4139,11.323 64.7472,9.32298 63.5,7.5C 63.6236,6.89333 63.9569,6.55999 64.5,6.5 Z"/></g>
<g><path style="opacity:1" fill="#e0c889" d="M 68.5,11.5 C 69.0899,12.766 69.5899,14.0993 70,15.5C 71.8845,10.558 73.5512,10.8913 75,16.5C 74.716,12.5955 76.216,11.2621 79.5,12.5C 78.5592,14.0495 77.8925,15.7162 77.5,17.5C 74.4648,18.7335 71.4648,18.7335 68.5,17.5C 67.2584,15.3888 67.2584,13.3888 68.5,11.5 Z"/></g>
<g><path style="opacity:1" fill="#dfc27a" d="M 26.5,17.5 C 24.1432,17.6633 21.8098,17.4966 19.5,17C 18.5939,15.3005 18.2606,13.4672 18.5,11.5C 21.5,11.5 24.5,11.5 27.5,11.5C 27.6747,13.6208 27.3414,15.6208 26.5,17.5 Z"/></g>
<g><path style="opacity:1" fill="#60776c" d="M 68.5,17.5 C 71.4648,18.7335 74.4648,18.7335 77.5,17.5C 77.8333,17.5 78.1667,17.5 78.5,17.5C 78.6716,18.4916 78.3382,19.1583 77.5,19.5C 76.8333,19.5 76.1667,19.5 75.5,19.5C 74.5084,19.3284 73.8417,19.6618 73.5,20.5C 72.5,20.5 71.5,20.5 70.5,20.5C 69.4489,19.7777 68.7822,18.7777 68.5,17.5 Z"/></g>
<g><path style="opacity:1" fill="#9aa0a3" d="M 65.5,13.5 C 66.4345,14.5676 66.7678,15.901 66.5,17.5C 63.1074,19.0263 61.7741,21.693 62.5,25.5C 60.8122,22.3165 61.4789,19.6498 64.5,17.5C 65.4287,16.3112 65.762,14.9778 65.5,13.5 Z"/></g>
<g><path style="opacity:1" fill="#809bad" d="M 16.5,17.5 C 15.5474,20.7898 15.3807,24.1231 16,27.5C 15.0572,24.7493 14.2239,22.0826 13.5,19.5C 13.9731,18.0937 14.9731,17.427 16.5,17.5 Z"/></g>
<g><path style="opacity:1" fill="#469ebe" d="M 70.5,20.5 C 71.5,20.5 72.5,20.5 73.5,20.5C 74.4682,22.6074 74.8016,24.9407 74.5,27.5C 74.5,28.1667 74.5,28.8333 74.5,29.5C 73.791,30.404 72.791,30.7373 71.5,30.5C 71.1667,27.1667 70.8333,23.8333 70.5,20.5 Z"/></g>
<g><path style="opacity:1" fill="#385865" d="M 16.5,17.5 C 19.969,18.7 23.3023,18.7 26.5,17.5C 27.8333,17.5 29.1667,17.5 30.5,17.5C 34.3315,19.2342 35.4982,22.2342 34,26.5C 32.6288,28.0414 31.1288,29.3747 29.5,30.5C 28.0011,29.506 26.3344,29.506 24.5,30.5C 24.281,29.325 24.6143,28.325 25.5,27.5C 31.1835,28.8992 33.3502,26.5658 32,20.5C 29.606,19.049 27.4393,19.3824 25.5,21.5C 23.2079,20.6906 21.0412,20.3573 19,20.5C 17.1065,25.31 18.6065,28.6434 23.5,30.5C 24.0906,31.1515 24.7573,31.8182 25.5,32.5C 23.9547,33.4519 22.288,33.7852 20.5,33.5C 20.2435,31.2239 18.9102,30.0572 16.5,30C 12.7805,27.0962 11.7805,23.5962 13.5,19.5C 14.2239,22.0826 15.0572,24.7493 16,27.5C 15.3807,24.1231 15.5474,20.7898 16.5,17.5 Z"/></g>
<g><path style="opacity:1" fill="#3d85ac" d="M 24.5,30.5 C 24.1667,30.5 23.8333,30.5 23.5,30.5C 18.6065,28.6434 17.1065,25.31 19,20.5C 21.0412,20.3573 23.2079,20.6906 25.5,21.5C 27.4393,19.3824 29.606,19.049 32,20.5C 33.3502,26.5658 31.1835,28.8992 25.5,27.5C 24.6143,28.325 24.281,29.325 24.5,30.5 Z"/></g>
<g><path style="opacity:1" fill="#2b5f76" d="M 66.5,17.5 C 67.1667,17.5 67.8333,17.5 68.5,17.5C 68.7822,18.7777 69.4489,19.7777 70.5,20.5C 70.8333,23.8333 71.1667,27.1667 71.5,30.5C 70.8333,30.5 70.5,30.8333 70.5,31.5C 70.1667,31.5 69.8333,31.5 69.5,31.5C 69.6291,27.9884 69.2957,24.3217 68.5,20.5C 67.6106,29.7384 66.4439,29.7384 65,20.5C 63.8177,22.5087 63.3177,24.5087 63.5,26.5C 62.8333,26.5 62.5,26.1667 62.5,25.5C 61.7741,21.693 63.1074,19.0263 66.5,17.5 Z"/></g>
<g><path style="opacity:1" fill="#205e82" d="M 79.5,16.5 C 80.8333,20.5 80.8333,24.5 79.5,28.5C 77.7085,28.634 76.0418,28.3007 74.5,27.5C 74.8016,24.9407 74.4682,22.6074 73.5,20.5C 73.8417,19.6618 74.5084,19.3284 75.5,19.5C 76.1049,22.1267 76.6049,24.7934 77,27.5C 77.9704,25.7262 78.8037,23.8928 79.5,22C 78.9444,20.9889 78.2778,20.1556 77.5,19.5C 78.3382,19.1583 78.6716,18.4916 78.5,17.5C 78.5,16.8333 78.8333,16.5 79.5,16.5 Z"/></g>
<g><path style="opacity:1" fill="#59a1c1" d="M 75.5,19.5 C 76.1667,19.5 76.8333,19.5 77.5,19.5C 78.2778,20.1556 78.9444,20.9889 79.5,22C 78.8037,23.8928 77.9704,25.7262 77,27.5C 76.6049,24.7934 76.1049,22.1267 75.5,19.5 Z"/></g>
<g><path style="opacity:1" fill="#50839b" d="M 69.5,31.5 C 66.2678,31.2283 64.2678,29.5616 63.5,26.5C 63.3177,24.5087 63.8177,22.5087 65,20.5C 66.4439,29.7384 67.6106,29.7384 68.5,20.5C 69.2957,24.3217 69.6291,27.9884 69.5,31.5 Z"/></g>
<g><path style="opacity:1" fill="#4c7180" d="M 79.5,16.5 C 79.8333,16.5 80.1667,16.5 80.5,16.5C 86.221,22.8305 85.221,28.1638 77.5,32.5C 76.8999,31.0998 75.8999,30.0998 74.5,29.5C 74.5,28.8333 74.5,28.1667 74.5,27.5C 76.0418,28.3007 77.7085,28.634 79.5,28.5C 80.8333,24.5 80.8333,20.5 79.5,16.5 Z"/></g>
<g><path style="opacity:1" fill="#263329" d="M 29.5,30.5 C 28.5084,30.3284 27.8417,30.6618 27.5,31.5C 27.5,32.5 27.5,33.5 27.5,34.5C 24.586,34.8051 21.9193,34.8051 19.5,34.5C 20.1667,34.5 20.5,34.1667 20.5,33.5C 22.288,33.7852 23.9547,33.4519 25.5,32.5C 24.7573,31.8182 24.0906,31.1515 23.5,30.5C 23.8333,30.5 24.1667,30.5 24.5,30.5C 26.3344,29.506 28.0011,29.506 29.5,30.5 Z"/></g>
<g><path style="opacity:1" fill="#243628" d="M 74.5,29.5 C 75.8999,30.0998 76.8999,31.0998 77.5,32.5C 77.5,33.1667 77.5,33.8333 77.5,34.5C 76.5,34.5 75.5,34.5 74.5,34.5C 74.719,33.325 74.3857,32.325 73.5,31.5C 71.6503,32.2418 70.9836,33.2418 71.5,34.5C 70.6143,33.675 70.281,32.675 70.5,31.5C 70.5,30.8333 70.8333,30.5 71.5,30.5C 72.791,30.7373 73.791,30.404 74.5,29.5 Z"/></g>
<g><path style="opacity:1" fill="#93876e" d="M 27.5,31.5 C 29.8346,34.1718 32.1679,36.8385 34.5,39.5C 33.5,39.5 32.5,39.5 31.5,39.5C 28.3883,38.3115 25.2216,37.3115 22,36.5C 20.5993,38.1922 18.7659,38.8588 16.5,38.5C 16.5,38.1667 16.5,37.8333 16.5,37.5C 17.1667,36.1667 18.1667,35.1667 19.5,34.5C 21.9193,34.8051 24.586,34.8051 27.5,34.5C 27.5,33.5 27.5,32.5 27.5,31.5 Z"/></g>
<g><path style="opacity:1" fill="#ceb993" d="M 79.5,37.5 C 79.1583,38.3382 78.4916,38.6716 77.5,38.5C 77.189,37.5222 76.5223,36.8555 75.5,36.5C 73.5,36.8333 71.5,37.1667 69.5,37.5C 68.3044,37.1543 68.3044,36.6543 69.5,36C 73.1487,35.037 76.482,35.537 79.5,37.5 Z"/></g>
<g><path style="opacity:1" fill="#857456" d="M 69.5,31.5 C 69.8333,31.5 70.1667,31.5 70.5,31.5C 70.281,32.675 70.6143,33.675 71.5,34.5C 70.9836,33.2418 71.6503,32.2418 73.5,31.5C 74.3857,32.325 74.719,33.325 74.5,34.5C 75.5,34.5 76.5,34.5 77.5,34.5C 79.5,34.5 80.5,35.5 80.5,37.5C 80.1667,37.5 79.8333,37.5 79.5,37.5C 76.482,35.537 73.1487,35.037 69.5,36C 68.3044,36.6543 68.3044,37.1543 69.5,37.5C 71.5,37.1667 73.5,36.8333 75.5,36.5C 76.5223,36.8555 77.189,37.5222 77.5,38.5C 72.8075,38.5401 68.1408,38.8734 63.5,39.5C 64.962,37.7306 66.6286,36.0639 68.5,34.5C 69.3857,33.675 69.719,32.675 69.5,31.5 Z"/></g>
<g><path style="opacity:1" fill="#8f4e3a" d="M 31.5,39.5 C 31.5,39.8333 31.5,40.1667 31.5,40.5C 26.1667,40.5 20.8333,40.5 15.5,40.5C 15.8333,39.8333 16.1667,39.1667 16.5,38.5C 18.7659,38.8588 20.5993,38.1922 22,36.5C 25.2216,37.3115 28.3883,38.3115 31.5,39.5 Z"/></g>
<g><path style="opacity:1" fill="#7c4c48" d="M 16.5,37.5 C 16.5,37.8333 16.5,38.1667 16.5,38.5C 16.1667,39.1667 15.8333,39.8333 15.5,40.5C 17.7432,41.8117 20.4098,42.4783 23.5,42.5C 26.5902,42.4783 29.2568,41.8117 31.5,40.5C 31.5,40.1667 31.5,39.8333 31.5,39.5C 32.5,39.5 33.5,39.5 34.5,39.5C 34.5,40.8333 34.5,42.1667 34.5,43.5C 27.5,43.5 20.5,43.5 13.5,43.5C 13.0311,40.6067 14.0311,38.6067 16.5,37.5 Z"/></g>
<g><path style="opacity:1" fill="#d07771" d="M 15.5,40.5 C 20.8333,40.5 26.1667,40.5 31.5,40.5C 29.2568,41.8117 26.5902,42.4783 23.5,42.5C 20.4098,42.4783 17.7432,41.8117 15.5,40.5 Z"/></g>
<g><path style="opacity:1" fill="#8b5b4e" d="M 79.5,37.5 C 79.8333,37.5 80.1667,37.5 80.5,37.5C 81.675,37.281 82.675,37.6143 83.5,38.5C 84.3482,40.4086 84.6816,42.4086 84.5,44.5C 77.1667,44.5 69.8333,44.5 62.5,44.5C 62.2155,42.5853 62.5489,40.9187 63.5,39.5C 68.1408,38.8734 72.8075,38.5401 77.5,38.5C 78.4916,38.6716 79.1583,38.3382 79.5,37.5 Z"/></g>
<g><path style="opacity:1" fill="#d0776c" d="M 65.5,40.5 C 70.6912,40.0585 75.6912,40.5585 80.5,42C 78,42.1667 75.5,42.3333 73,42.5C 70.0706,42.4752 67.5706,41.8086 65.5,40.5 Z"/></g>
<g><path style="opacity:1" fill="#b3908b" d="M 34.5,39.5 C 35.4511,40.9187 35.7845,42.5853 35.5,44.5C 27.9809,44.825 20.6476,44.4916 13.5,43.5C 20.5,43.5 27.5,43.5 34.5,43.5C 34.5,42.1667 34.5,40.8333 34.5,39.5 Z"/></g>
<g><path style="opacity:1" fill="#7e5c4f" d="M 30.5,74.5 C 29.8333,74.1667 29.1667,73.8333 28.5,73.5C 28.3253,71.3792 28.6586,69.3792 29.5,67.5C 29.9528,66.5416 30.6195,65.7083 31.5,65C 31.1667,64.6667 30.8333,64.3333 30.5,64C 26.7973,63.4213 23.1306,63.588 19.5,64.5C 19.4326,65.9587 19.7659,67.2921 20.5,68.5C 20.5,68.8333 20.5,69.1667 20.5,69.5C 18.6824,67.9219 17.6824,68.4219 17.5,71C 17.6483,72.2559 17.9816,73.4226 18.5,74.5C 17.8333,74.8333 17.1667,75.1667 16.5,75.5C 16.5302,71.7211 15.5302,68.2211 13.5,65C 13.8198,63.3468 14.8198,62.3468 16.5,62C 21.5544,61.219 26.5544,61.3857 31.5,62.5C 31.8333,63.3333 32.1667,64.1667 32.5,65C 31.1308,68.0121 30.4642,71.1788 30.5,74.5 Z"/></g>
<g><path style="opacity:1" fill="#967a75" d="M 81.5,67.5 C 81.5,66.8333 81.1667,66.5 80.5,66.5C 80.7148,64.8212 80.0481,63.8212 78.5,63.5C 74.0019,62.6246 69.3353,62.6246 64.5,63.5C 64.5,64.5 64.5,65.5 64.5,66.5C 63.218,65.2918 63.218,63.9584 64.5,62.5C 70.5613,61.0491 76.5613,61.2158 82.5,63C 83.9156,64.9151 83.5822,66.4151 81.5,67.5 Z"/></g>
<g><path style="opacity:1" fill="#6f493c" d="M 78.5,63.5 C 76.1432,63.3367 73.8098,63.5034 71.5,64C 70.0267,64.7096 69.3601,65.8762 69.5,67.5C 67.6161,68.3387 66.2828,69.672 65.5,71.5C 65.3713,69.7839 65.038,68.1172 64.5,66.5C 64.5,65.5 64.5,64.5 64.5,63.5C 69.3353,62.6246 74.0019,62.6246 78.5,63.5 Z"/></g>
<g><path style="opacity:1" fill="#cd7a63" d="M 29.5,67.5 C 26.5448,68.1587 23.5448,68.4921 20.5,68.5C 19.7659,67.2921 19.4326,65.9587 19.5,64.5C 23.1306,63.588 26.7973,63.4213 30.5,64C 30.8333,64.3333 31.1667,64.6667 31.5,65C 30.6195,65.7083 29.9528,66.5416 29.5,67.5 Z"/></g>
<g><path style="opacity:1" fill="#d18c71" d="M 78.5,63.5 C 80.0481,63.8212 80.7148,64.8212 80.5,66.5C 76.9009,67.3439 73.2343,67.6773 69.5,67.5C 69.3601,65.8762 70.0267,64.7096 71.5,64C 73.8098,63.5034 76.1432,63.3367 78.5,63.5 Z"/></g>
<g><path style="opacity:1" fill="#95724c" d="M 80.5,66.5 C 81.1667,66.5 81.5,66.8333 81.5,67.5C 80.8333,69.5 80.1667,71.5 79.5,73.5C 78.5326,74.8062 77.1993,75.4729 75.5,75.5C 76.8695,73.9323 77.8695,72.099 78.5,70C 74.8484,69.5014 71.1817,69.3347 67.5,69.5C 67.5,70.8333 67.5,72.1667 67.5,73.5C 66.8333,74.1667 66.1667,74.8333 65.5,75.5C 65.5,74.1667 65.5,72.8333 65.5,71.5C 66.2828,69.672 67.6161,68.3387 69.5,67.5C 73.2343,67.6773 76.9009,67.3439 80.5,66.5 Z"/></g>
<g><path style="opacity:1" fill="#b9965e" d="M 29.5,67.5 C 28.6586,69.3792 28.3253,71.3792 28.5,73.5C 28.5,74.1667 28.1667,74.5 27.5,74.5C 27.5,72.8333 27.5,71.1667 27.5,69.5C 25.1667,69.5 22.8333,69.5 20.5,69.5C 20.5,69.1667 20.5,68.8333 20.5,68.5C 23.5448,68.4921 26.5448,68.1587 29.5,67.5 Z"/></g>
<g><path style="opacity:1" fill="#d3c778" d="M 20.5,69.5 C 22.8333,69.5 25.1667,69.5 27.5,69.5C 27.5,71.1667 27.5,72.8333 27.5,74.5C 24.4648,75.7335 21.4648,75.7335 18.5,74.5C 17.9816,73.4226 17.6483,72.2559 17.5,71C 17.6824,68.4219 18.6824,67.9219 20.5,69.5 Z"/></g>
<g><path style="opacity:1" fill="#e4d75c" d="M 21.5,70.5 C 24.1662,70.0658 25.3329,71.0658 25,73.5C 21.2736,75.0747 20.107,74.0747 21.5,70.5 Z"/></g>
<g><path style="opacity:1" fill="#ddd281" d="M 75.5,75.5 C 72.4669,75.8685 69.8002,75.2018 67.5,73.5C 67.5,72.1667 67.5,70.8333 67.5,69.5C 71.1817,69.3347 74.8484,69.5014 78.5,70C 77.8695,72.099 76.8695,73.9323 75.5,75.5 Z"/></g>
<g><path style="opacity:1" fill="#476473" d="M 28.5,73.5 C 29.1667,73.8333 29.8333,74.1667 30.5,74.5C 31.287,76.1042 32.6203,76.7709 34.5,76.5C 35.7175,82.7485 33.3842,86.7485 27.5,88.5C 27.5,88.1667 27.5,87.8333 27.5,87.5C 31.4465,85.7209 32.9465,82.7209 32,78.5C 27.2633,77.5308 22.43,77.1975 17.5,77.5C 17.9629,80.4824 18.2962,83.4824 18.5,86.5C 19.791,86.2627 20.791,86.596 21.5,87.5C 21.1667,88.1667 20.8333,88.8333 20.5,89.5C 14.2297,87.2931 11.8964,82.9598 13.5,76.5C 14.4168,75.8728 15.4168,75.5394 16.5,75.5C 17.1667,75.1667 17.8333,74.8333 18.5,74.5C 21.4648,75.7335 24.4648,75.7335 27.5,74.5C 28.1667,74.5 28.5,74.1667 28.5,73.5 Z"/></g>
<g><path style="opacity:1" fill="#3c7d9a" d="M 27.5,87.5 C 25.5,87.5 23.5,87.5 21.5,87.5C 20.791,86.596 19.791,86.2627 18.5,86.5C 18.2962,83.4824 17.9629,80.4824 17.5,77.5C 22.43,77.1975 27.2633,77.5308 32,78.5C 32.9465,82.7209 31.4465,85.7209 27.5,87.5 Z"/></g>
<g><path style="opacity:1" fill="#39647a" d="M 67.5,73.5 C 69.8002,75.2018 72.4669,75.8685 75.5,75.5C 77.1993,75.4729 78.5326,74.8062 79.5,73.5C 80.6413,75.0876 82.1413,76.4209 84,77.5C 84.6612,83.0113 82.4945,87.0113 77.5,89.5C 74.8333,89.5 72.1667,89.5 69.5,89.5C 63.2009,87.2215 60.8675,82.8881 62.5,76.5C 63.4168,75.8728 64.4168,75.5394 65.5,75.5C 66.1667,74.8333 66.8333,74.1667 67.5,73.5 Z"/></g>
<g><path style="opacity:1" fill="#459cbf" d="M 66.5,77.5 C 69.1667,77.5 71.8333,77.5 74.5,77.5C 74.5,80.8333 74.5,84.1667 74.5,87.5C 73.5,87.5 72.5,87.5 71.5,87.5C 71.5793,84.7294 71.0793,82.0627 70,79.5C 69.6667,81.5 69.3333,83.5 69,85.5C 67.6591,82.978 66.8257,80.3113 66.5,77.5 Z"/></g>
<g><path style="opacity:1" fill="#313d38" d="M 21.5,87.5 C 23.5,87.5 25.5,87.5 27.5,87.5C 27.5,87.8333 27.5,88.1667 27.5,88.5C 27.5,89.1667 27.5,89.8333 27.5,90.5C 27.2648,91.0967 26.7648,91.4301 26,91.5C 25.3333,90.8333 24.6667,90.1667 24,89.5C 22.6898,90.1301 21.8565,91.1301 21.5,92.5C 20.1667,93.1667 19.1667,94.1667 18.5,95.5C 17.5084,95.6716 16.8417,95.3382 16.5,94.5C 18.5869,93.4154 19.9202,91.7488 20.5,89.5C 20.8333,88.8333 21.1667,88.1667 21.5,87.5 Z"/></g>
<g><path style="opacity:1" fill="#595846" d="M 69.5,89.5 C 72.1667,89.5 74.8333,89.5 77.5,89.5C 78.1667,90.8333 78.8333,92.1667 79.5,93.5C 79.1667,93.5 78.8333,93.5 78.5,93.5C 75.5547,92.5325 72.5547,92.3658 69.5,93C 68.6195,93.7083 67.9528,94.5416 67.5,95.5C 66.1667,95.5 64.8333,95.5 63.5,95.5C 66.4676,94.5325 68.4676,92.5325 69.5,89.5 Z"/></g>
<g><path style="opacity:1" fill="#b2a37b" d="M 21.5,92.5 C 24.4822,92.1044 27.1489,92.7711 29.5,94.5C 26.0972,95.0692 22.4305,95.4025 18.5,95.5C 19.1667,94.1667 20.1667,93.1667 21.5,92.5 Z"/></g>
<g><path style="opacity:1" fill="#b6a37f" d="M 78.5,93.5 C 78.6309,94.3764 78.2975,95.0431 77.5,95.5C 74.1986,95.1826 70.8652,95.1826 67.5,95.5C 67.9528,94.5416 68.6195,93.7083 69.5,93C 72.5547,92.3658 75.5547,92.5325 78.5,93.5 Z"/></g>
<g><path style="opacity:1" fill="#82614e" d="M 78.5,93.5 C 78.8333,93.5 79.1667,93.5 79.5,93.5C 83.4725,95.1035 85.1392,98.1035 84.5,102.5C 77.1667,102.5 69.8333,102.5 62.5,102.5C 62.298,100.05 62.6314,97.717 63.5,95.5C 64.8333,95.5 66.1667,95.5 67.5,95.5C 70.8652,95.1826 74.1986,95.1826 77.5,95.5C 78.2975,95.0431 78.6309,94.3764 78.5,93.5 Z"/></g>
<g><path style="opacity:1" fill="#cd866e" d="M 64.5,97.5 C 69.5111,97.3341 74.5111,97.5007 79.5,98C 79.9574,98.414 80.2907,98.914 80.5,99.5C 75.2079,100.495 69.8746,100.828 64.5,100.5C 64.5,99.5 64.5,98.5 64.5,97.5 Z"/></g>
<g><path style="opacity:1" fill="#6f4f3a" d="M 27.5,90.5 C 29.2825,92.3596 31.2825,94.0263 33.5,95.5C 34.3482,97.4086 34.6816,99.4086 34.5,101.5C 27.5,101.5 20.5,101.5 13.5,101.5C 13.3398,99.8008 13.5065,98.1341 14,96.5C 14.4169,95.244 15.2502,94.5774 16.5,94.5C 16.8417,95.3382 17.5084,95.6716 18.5,95.5C 22.4305,95.4025 26.0972,95.0692 29.5,94.5C 27.1489,92.7711 24.4822,92.1044 21.5,92.5C 21.8565,91.1301 22.6898,90.1301 24,89.5C 24.6667,90.1667 25.3333,90.8333 26,91.5C 26.7648,91.4301 27.2648,91.0967 27.5,90.5 Z"/></g>
<g><path style="opacity:1" fill="#d6806d" d="M 15.5,97.5 C 20.8333,97.5 26.1667,97.5 31.5,97.5C 31.5,98.5 31.5,99.5 31.5,100.5C 26.1667,100.5 20.8333,100.5 15.5,100.5C 15.5,99.5 15.5,98.5 15.5,97.5 Z"/></g>
<g><path style="opacity:1" fill="#755654" d="M 28.5,119.5 C 24.4809,119.646 20.4809,119.979 16.5,120.5C 16.6287,122.216 16.962,123.883 17.5,125.5C 16.8333,126.5 16.1667,127.5 15.5,128.5C 14.9408,126.321 14.2741,124.154 13.5,122C 13.7591,120.739 14.4258,119.739 15.5,119C 20.0204,118.186 24.3537,118.353 28.5,119.5 Z"/></g>
<g><path style="opacity:1" fill="#d66d64" d="M 30.5,121.5 C 30.5,123.5 29.5,124.5 27.5,124.5C 24.2784,124.892 21.2784,124.392 18.5,123C 22.2509,120.563 26.2509,120.063 30.5,121.5 Z"/></g>
<g><path style="opacity:1" fill="#83432e" d="M 28.5,119.5 C 29.1667,119.5 29.8333,119.5 30.5,119.5C 30.5,120.167 30.5,120.833 30.5,121.5C 26.2509,120.063 22.2509,120.563 18.5,123C 21.2784,124.392 24.2784,124.892 27.5,124.5C 26.8333,125.167 26.1667,125.833 25.5,126.5C 22.9592,126.85 20.6258,126.85 18.5,126.5C 18.5,125.833 18.1667,125.5 17.5,125.5C 16.962,123.883 16.6287,122.216 16.5,120.5C 20.4809,119.979 24.4809,119.646 28.5,119.5 Z"/></g>
<g><path style="opacity:1" fill="#7a6459" d="M 79.5,132.5 C 78.2921,133.234 76.9587,133.567 75.5,133.5C 73.1432,133.663 70.8098,133.497 68.5,133C 67.944,132.617 67.6107,132.117 67.5,131.5C 70.4453,132.468 73.4453,132.634 76.5,132C 78.0779,129.661 77.7446,127.828 75.5,126.5C 76.7175,125.839 78.0508,125.172 79.5,124.5C 80.6527,123.313 80.6527,122.313 79.5,121.5C 74.7974,119.143 70.1307,119.476 65.5,122.5C 66.9095,123.569 67.9095,124.903 68.5,126.5C 67.5655,127.568 67.2322,128.901 67.5,130.5C 66.596,131.209 66.2627,132.209 66.5,133.5C 65.5,133.5 64.5,133.5 63.5,133.5C 64.3909,132.739 65.0576,131.739 65.5,130.5C 64.787,127.297 63.9537,124.297 63,121.5C 65.2187,119.005 68.052,118.005 71.5,118.5C 74.8701,118.374 78.0368,119.04 81,120.5C 80.632,124.467 80.132,128.467 79.5,132.5 Z"/></g>
<g><path style="opacity:1" fill="#c95f58" d="M 79.5,121.5 C 80.6527,122.313 80.6527,123.313 79.5,124.5C 78.0508,125.172 76.7175,125.839 75.5,126.5C 73.8333,126.5 72.1667,126.5 70.5,126.5C 68.752,125.211 68.4186,123.711 69.5,122C 72.8168,121.502 76.1501,121.335 79.5,121.5 Z"/></g>
<g><path style="opacity:1" fill="#743230" d="M 79.5,121.5 C 76.1501,121.335 72.8168,121.502 69.5,122C 68.4186,123.711 68.752,125.211 70.5,126.5C 69.8333,126.5 69.1667,126.5 68.5,126.5C 67.9095,124.903 66.9095,123.569 65.5,122.5C 70.1307,119.476 74.7974,119.143 79.5,121.5 Z"/></g>
<g><path style="opacity:1" fill="#f9fbf0" d="M -0.5,-0.5 C 0.833333,-0.5 2.16667,-0.5 3.5,-0.5C 3.77712,2.44753 3.44379,5.28086 2.5,8C 3.80806,16.5942 4.80806,25.2609 5.5,34C 5.3552,34.772 5.02186,35.4387 4.5,36C 6.15414,38.972 7.8208,41.972 9.5,45C 8.97473,45.6924 8.30806,46.1924 7.5,46.5C 6.45928,44.0087 5.62595,44.0087 5,46.5C 5.01672,56.1127 5.18339,65.6127 5.5,75C 4.57203,75.3879 3.90536,76.0546 3.5,77C 4.94417,79.0345 6.94417,79.8678 9.5,79.5C 9.03994,82.9568 7.03994,84.6235 3.5,84.5C 3.60797,101.09 2.9413,117.59 1.5,134C 3.47634,141.537 3.47634,149.037 1.5,156.5C 2.65524,159.011 3.32191,161.678 3.5,164.5C 2.16667,164.5 0.833333,164.5 -0.5,164.5C -0.5,109.5 -0.5,54.5 -0.5,-0.5 Z"/></g>
<g><path style="opacity:1" fill="#9e8161" d="M 30.5,119.5 C 31.8799,119.962 32.5466,120.962 32.5,122.5C 30.9741,125.654 30.3075,128.987 30.5,132.5C 30.1667,132.5 29.8333,132.5 29.5,132.5C 29.6602,130.801 29.4935,129.134 29,127.5C 28.79,129.058 28.29,130.391 27.5,131.5C 27.9227,129.219 27.256,127.552 25.5,126.5C 26.1667,125.833 26.8333,125.167 27.5,124.5C 29.5,124.5 30.5,123.5 30.5,121.5C 30.5,120.833 30.5,120.167 30.5,119.5 Z"/></g>
<g><path style="opacity:1" fill="#d4c079" d="M 18.5,126.5 C 20.6258,126.85 22.9592,126.85 25.5,126.5C 27.256,127.552 27.9227,129.219 27.5,131.5C 24.6346,132.783 21.6346,132.783 18.5,131.5C 17.2121,129.701 17.2121,128.035 18.5,126.5 Z"/></g>
<g><path style="opacity:1" fill="#d4bb7a" d="M 68.5,126.5 C 69.1667,126.5 69.8333,126.5 70.5,126.5C 72.1667,126.5 73.8333,126.5 75.5,126.5C 77.7446,127.828 78.0779,129.661 76.5,132C 73.4453,132.634 70.4453,132.468 67.5,131.5C 67.5,131.167 67.5,130.833 67.5,130.5C 67.2322,128.901 67.5655,127.568 68.5,126.5 Z"/></g>
<g><path style="opacity:1" fill="#5d5f45" d="M 17.5,125.5 C 18.1667,125.5 18.5,125.833 18.5,126.5C 17.2121,128.035 17.2121,129.701 18.5,131.5C 21.6346,132.783 24.6346,132.783 27.5,131.5C 28.29,130.391 28.79,129.058 29,127.5C 29.4935,129.134 29.6602,130.801 29.5,132.5C 25.2988,133.736 20.9655,133.736 16.5,132.5C 16.1667,131.167 15.8333,129.833 15.5,128.5C 16.1667,127.5 16.8333,126.5 17.5,125.5 Z"/></g>
<g><path style="opacity:1" fill="#49606a" d="M 67.5,130.5 C 67.5,130.833 67.5,131.167 67.5,131.5C 67.6107,132.117 67.944,132.617 68.5,133C 70.8098,133.497 73.1432,133.663 75.5,133.5C 75.6309,134.376 75.2975,135.043 74.5,135.5C 73.2798,134.289 72.1131,134.289 71,135.5C 70.6667,137.5 70.3333,139.5 70,141.5C 69.5034,139.19 69.3367,136.857 69.5,134.5C 68.1667,134.5 66.8333,134.5 65.5,134.5C 65.5,137.5 65.5,140.5 65.5,143.5C 66.8333,143.5 68.1667,143.5 69.5,143.5C 69.5,144.167 69.5,144.833 69.5,145.5C 66.1922,146.026 64.0255,144.693 63,141.5C 60.8658,138.508 61.0325,135.842 63.5,133.5C 64.5,133.5 65.5,133.5 66.5,133.5C 66.2627,132.209 66.596,131.209 67.5,130.5 Z"/></g>
<g><path style="opacity:1" fill="#3d7d9e" d="M 79.5,132.5 C 84.1514,133.174 85.6514,135.841 84,140.5C 82.2419,142.765 80.0752,144.432 77.5,145.5C 77.631,144.761 77.4643,144.094 77,143.5C 75.4345,142.939 74.1011,143.606 73,145.5C 72.0853,144.672 71.4186,143.672 71,142.5C 70.6174,143.056 70.1174,143.389 69.5,143.5C 68.1667,143.5 66.8333,143.5 65.5,143.5C 65.5,140.5 65.5,137.5 65.5,134.5C 66.8333,134.5 68.1667,134.5 69.5,134.5C 69.3367,136.857 69.5034,139.19 70,141.5C 70.3333,139.5 70.6667,137.5 71,135.5C 72.1131,134.289 73.2798,134.289 74.5,135.5C 75.2975,135.043 75.6309,134.376 75.5,133.5C 76.9587,133.567 78.2921,133.234 79.5,132.5 Z"/></g>
<g><path style="opacity:1" fill="#39667e" d="M 16.5,132.5 C 20.9655,133.736 25.2988,133.736 29.5,132.5C 29.8333,132.5 30.1667,132.5 30.5,132.5C 34.254,133.828 35.4207,136.494 34,140.5C 31.5341,142.758 29.3674,145.091 27.5,147.5C 26.8999,146.1 25.8999,145.1 24.5,144.5C 24.6646,141.482 24.498,138.482 24,135.5C 23.586,135.043 23.086,134.709 22.5,134.5C 21.5159,137.428 21.1826,140.428 21.5,143.5C 21.1667,143.5 20.8333,143.5 20.5,143.5C 20.0192,140.478 19.3525,137.478 18.5,134.5C 17.5,134.833 16.8333,135.5 16.5,136.5C 19.134,139.246 19.134,141.912 16.5,144.5C 12.9906,141.761 11.6572,138.094 12.5,133.5C 14.099,133.768 15.4324,133.434 16.5,132.5 Z"/></g>
<g><path style="opacity:1" fill="#479bbc" d="M 24.5,144.5 C 23.209,144.737 22.209,144.404 21.5,143.5C 21.1826,140.428 21.5159,137.428 22.5,134.5C 23.086,134.709 23.586,135.043 24,135.5C 24.498,138.482 24.6646,141.482 24.5,144.5 Z"/></g>
<g><path style="opacity:1" fill="#518a9a" d="M 20.5,143.5 C 20.5,144.5 20.5,145.5 20.5,146.5C 18.847,146.34 17.5137,145.674 16.5,144.5C 19.134,141.912 19.134,139.246 16.5,136.5C 16.8333,135.5 17.5,134.833 18.5,134.5C 19.3525,137.478 20.0192,140.478 20.5,143.5 Z"/></g>
<g><path style="opacity:1" fill="#2d4044" d="M 77.5,145.5 C 76.7924,147.378 75.6257,149.045 74,150.5C 72.1722,149.248 70.3388,149.248 68.5,150.5C 68.5,150.167 68.5,149.833 68.5,149.5C 69.2341,148.292 69.5674,146.959 69.5,145.5C 69.5,144.833 69.5,144.167 69.5,143.5C 70.1174,143.389 70.6174,143.056 71,142.5C 71.4186,143.672 72.0853,144.672 73,145.5C 74.1011,143.606 75.4345,142.939 77,143.5C 77.4643,144.094 77.631,144.761 77.5,145.5 Z"/></g>
<g><path style="opacity:1" fill="#2e403a" d="M 20.5,143.5 C 20.8333,143.5 21.1667,143.5 21.5,143.5C 22.209,144.404 23.209,144.737 24.5,144.5C 25.8999,145.1 26.8999,146.1 27.5,147.5C 26.3285,148.345 24.9952,149.011 23.5,149.5C 21.901,149.232 20.5676,149.566 19.5,150.5C 19.1667,150.5 18.8333,150.5 18.5,150.5C 19.1667,149.167 19.8333,147.833 20.5,146.5C 20.5,145.5 20.5,144.5 20.5,143.5 Z"/></g>
<g><path style="opacity:1" fill="#b6a386" d="M 23.5,149.5 C 24.3132,150.653 25.3132,150.653 26.5,149.5C 27.646,150.145 28.646,150.978 29.5,152C 27.9813,151.669 26.648,151.836 25.5,152.5C 23.602,151.904 21.9354,151.904 20.5,152.5C 19.6618,152.158 19.3284,151.492 19.5,150.5C 20.5676,149.566 21.901,149.232 23.5,149.5 Z"/></g>
<g><path style="opacity:1" fill="#a79886" d="M 77.5,145.5 C 77.5271,147.199 78.1938,148.533 79.5,149.5C 76.8875,150.095 76.8875,150.929 79.5,152C 77.3977,151.744 75.3977,151.911 73.5,152.5C 72.5041,152.586 71.6708,152.252 71,151.5C 69.6703,152.582 68.1703,153.249 66.5,153.5C 67.1667,152.5 67.8333,151.5 68.5,150.5C 70.3388,149.248 72.1722,149.248 74,150.5C 75.6257,149.045 76.7924,147.378 77.5,145.5 Z"/></g>
<g><path style="opacity:1" fill="#614944" d="M 68.5,149.5 C 68.5,149.833 68.5,150.167 68.5,150.5C 67.8333,151.5 67.1667,152.5 66.5,153.5C 65.5084,153.328 64.8417,153.662 64.5,154.5C 64.5,155.5 64.5,156.5 64.5,157.5C 64.5,157.833 64.5,158.167 64.5,158.5C 63.8333,158.5 63.1667,158.5 62.5,158.5C 62.3398,156.801 62.5065,155.134 63,153.5C 64.9917,152.335 66.825,151.002 68.5,149.5 Z"/></g>
<g><path style="opacity:1" fill="#86695b" d="M 79.5,149.5 C 80.6222,150.947 82.1222,151.947 84,152.5C 84.7581,154.769 84.5914,156.936 83.5,159C 76.3209,159.821 69.3209,159.655 62.5,158.5C 63.1667,158.5 63.8333,158.5 64.5,158.5C 69.8746,158.828 75.2079,158.495 80.5,157.5C 81.7111,156.28 81.7111,155.113 80.5,154C 77.9644,153.814 75.631,153.314 73.5,152.5C 75.3977,151.911 77.3977,151.744 79.5,152C 76.8875,150.929 76.8875,150.095 79.5,149.5 Z"/></g>
<g><path style="opacity:1" fill="#c25f5e" d="M 64.5,154.5 C 69.5,154.5 74.5,154.5 79.5,154.5C 79.5,155.5 79.5,156.5 79.5,157.5C 74.5,157.5 69.5,157.5 64.5,157.5C 64.5,156.5 64.5,155.5 64.5,154.5 Z"/></g>
<g><path style="opacity:1" fill="#755349" d="M 27.5,147.5 C 29.4807,149.144 31.4807,150.81 33.5,152.5C 34.3482,154.409 34.6816,156.409 34.5,158.5C 27.4921,158.666 20.4921,158.5 13.5,158C 12.944,157.617 12.6107,157.117 12.5,156.5C 12.5823,152.658 14.5823,150.658 18.5,150.5C 18.8333,150.5 19.1667,150.5 19.5,150.5C 19.3284,151.492 19.6618,152.158 20.5,152.5C 18.4687,152.972 16.8021,153.972 15.5,155.5C 17.5706,156.809 20.0706,157.475 23,157.5C 25.5,157.333 28,157.167 30.5,157C 31.2524,156.329 31.5858,155.496 31.5,154.5C 29.5,153.833 27.5,153.167 25.5,152.5C 26.648,151.836 27.9813,151.669 29.5,152C 28.646,150.978 27.646,150.145 26.5,149.5C 25.3132,150.653 24.3132,150.653 23.5,149.5C 24.9952,149.011 26.3285,148.345 27.5,147.5 Z"/></g>
<g><path style="opacity:1" fill="#c36062" d="M 31.5,154.5 C 31.5858,155.496 31.2524,156.329 30.5,157C 28,157.167 25.5,157.333 23,157.5C 20.0706,157.475 17.5706,156.809 15.5,155.5C 20.7401,154.551 26.0735,154.218 31.5,154.5 Z"/></g>
<g><path style="opacity:1" fill="#7d3523" d="M 25.5,152.5 C 27.5,153.167 29.5,153.833 31.5,154.5C 26.0735,154.218 20.7401,154.551 15.5,155.5C 16.8021,153.972 18.4687,152.972 20.5,152.5C 21.9354,151.904 23.602,151.904 25.5,152.5 Z"/></g>
<g><path style="opacity:1" fill="#86463c" d="M 73.5,152.5 C 75.631,153.314 77.9644,153.814 80.5,154C 81.7111,155.113 81.7111,156.28 80.5,157.5C 75.2079,158.495 69.8746,158.828 64.5,158.5C 64.5,158.167 64.5,157.833 64.5,157.5C 69.5,157.5 74.5,157.5 79.5,157.5C 79.5,156.5 79.5,155.5 79.5,154.5C 74.5,154.5 69.5,154.5 64.5,154.5C 64.8417,153.662 65.5084,153.328 66.5,153.5C 68.1703,153.249 69.6703,152.582 71,151.5C 71.6708,152.252 72.5041,152.586 73.5,152.5 Z"/></g>
<g><path style="opacity:1" fill="#d3b4b2" d="M 12.5,156.5 C 12.6107,157.117 12.944,157.617 13.5,158C 20.4921,158.5 27.4921,158.666 34.5,158.5C 27.3451,159.655 20.0118,159.822 12.5,159C 11.2264,158.023 11.2264,157.189 12.5,156.5 Z"/></g>
</svg>
