<?xml version="1.0" encoding="UTF-8"?>
<!DOCTYPE svg PUBLIC "-//W3C//DTD SVG 1.1//EN" "http://www.w3.org/Graphics/SVG/1.1/DTD/svg11.dtd">
<svg xmlns="http://www.w3.org/2000/svg" version="1.1" width="100px" height="165px" style="shape-rendering:geometricPrecision; text-rendering:geometricPrecision; image-rendering:optimizeQuality; fill-rule:evenodd; clip-rule:evenodd" xmlns:xlink="http://www.w3.org/1999/xlink">
<g><path style="opacity:1" fill="#fbfbfb" d="M -0.5,-0.5 C 32.8333,-0.5 66.1667,-0.5 99.5,-0.5C 99.5,54.5 99.5,109.5 99.5,164.5C 66.1667,164.5 32.8333,164.5 -0.5,164.5C -0.5,109.5 -0.5,54.5 -0.5,-0.5 Z"/></g>
<g><path style="opacity:1" fill="#bcada2" d="M 23.5,4.5 C 26.5,3.16667 29.5,3.16667 32.5,4.5C 31.7611,4.36899 31.0944,4.53566 30.5,5C 32.9494,5.72457 35.2827,6.72457 37.5,8C 40.0847,11.8374 39.7514,12.1708 36.5,9C 34.3496,7.58859 32.0163,6.75526 29.5,6.5C 29.5,7.5 29.5,8.5 29.5,9.5C 28.0937,9.97306 27.427,10.9731 27.5,12.5C 27.1667,12.5 26.8333,12.5 26.5,12.5C 26.3573,10.7376 26.6906,9.07092 27.5,7.5C 21.3322,6.68334 17.1655,9.35 15,15.5C 14.5026,18.146 14.3359,20.8127 14.5,23.5C 14.5,24.1667 14.1667,24.5 13.5,24.5C 13.1176,19.6383 13.7843,14.9716 15.5,10.5C 18.3557,7.90327 21.6891,6.06994 25.5,5C 24.9056,4.53566 24.2389,4.36899 23.5,4.5 Z"/></g>
<g><path style="opacity:1" fill="#706766" d="M 23.5,4.5 C 24.2389,4.36899 24.9056,4.53566 25.5,5C 21.6891,6.06994 18.3557,7.90327 15.5,10.5C 15.1667,10.5 14.8333,10.5 14.5,10.5C 16.6304,7.26332 19.6304,5.26332 23.5,4.5 Z"/></g>
<g><path style="opacity:1" fill="#6c5243" d="M 26.5,12.5 C 24.6854,11.3702 22.6854,10.7036 20.5,10.5C 20.3573,12.2624 20.6906,13.9291 21.5,15.5C 21.1667,15.8333 20.8333,16.1667 20.5,16.5C 19.7189,15.2713 19.2189,13.938 19,12.5C 17.3117,13.3247 17.1451,14.3247 18.5,15.5C 16.2623,17.2585 15.2623,19.5918 15.5,22.5C 15.5,23.1667 15.1667,23.5 14.5,23.5C 14.3359,20.8127 14.5026,18.146 15,15.5C 17.1655,9.35 21.3322,6.68334 27.5,7.5C 26.6906,9.07092 26.3573,10.7376 26.5,12.5 Z"/></g>
<g><path style="opacity:1" fill="#bca17b" d="M 29.5,9.5 C 30.1556,10.2778 30.9889,10.9444 32,11.5C 33.4162,10.4267 34.7496,10.4267 36,11.5C 35.8047,13.1261 35.8047,14.7928 36,16.5C 37,15.8333 38,15.1667 39,14.5C 41.9051,20.0548 40.4051,22.3882 34.5,21.5C 35.7914,20.4728 35.7914,19.4728 34.5,18.5C 34.5,17.8333 34.1667,17.5 33.5,17.5C 32.3615,14.9138 30.3615,13.2471 27.5,12.5C 27.427,10.9731 28.0937,9.97306 29.5,9.5 Z"/></g>
<g><path style="opacity:1" fill="#343132" d="M 14.5,10.5 C 14.8333,10.5 15.1667,10.5 15.5,10.5C 13.7843,14.9716 13.1176,19.6383 13.5,24.5C 13.5,24.8333 13.5,25.1667 13.5,25.5C 10.9842,20.4642 11.3175,15.4642 14.5,10.5 Z"/></g>
<g><path style="opacity:1" fill="#3a3232" d="M 42.5,14.5 C 42.8333,14.5 43.1667,14.5 43.5,14.5C 44.8333,17.8333 44.8333,21.1667 43.5,24.5C 42.5206,21.3752 42.1872,18.0419 42.5,14.5 Z"/></g>
<g><path style="opacity:1" fill="#7c6149" d="M 32.5,4.5 C 38.0366,5.70024 41.7033,9.03357 43.5,14.5C 43.1667,14.5 42.8333,14.5 42.5,14.5C 41.7784,14.0825 41.2784,13.4158 41,12.5C 40.9091,14.7963 41.0757,17.1296 41.5,19.5C 41.5612,22.4813 40.7278,25.148 39,27.5C 38.7508,26.376 38.2508,25.376 37.5,24.5C 34.0896,24.528 30.7563,25.528 27.5,27.5C 25.8211,25.8955 23.8211,25.2289 21.5,25.5C 21.7564,23.2075 21.4231,21.0408 20.5,19C 22.1554,17.5557 22.822,15.7224 22.5,13.5C 24.099,13.7678 25.4324,13.4345 26.5,12.5C 26.8333,12.5 27.1667,12.5 27.5,12.5C 30.3615,13.2471 32.3615,14.9138 33.5,17.5C 32.8333,17.5 32.1667,17.5 31.5,17.5C 29.6731,13.9149 27.1731,13.5816 24,16.5C 22.2655,22.6523 24.4321,25.1523 30.5,24C 31.9771,22.1879 33.3104,20.3545 34.5,18.5C 35.7914,19.4728 35.7914,20.4728 34.5,21.5C 40.4051,22.3882 41.9051,20.0548 39,14.5C 38,15.1667 37,15.8333 36,16.5C 35.8047,14.7928 35.8047,13.1261 36,11.5C 34.7496,10.4267 33.4162,10.4267 32,11.5C 30.9889,10.9444 30.1556,10.2778 29.5,9.5C 29.5,8.5 29.5,7.5 29.5,6.5C 32.0163,6.75526 34.3496,7.58859 36.5,9C 39.7514,12.1708 40.0847,11.8374 37.5,8C 35.2827,6.72457 32.9494,5.72457 30.5,5C 31.0944,4.53566 31.7611,4.36899 32.5,4.5 Z"/></g>
<g><path style="opacity:1" fill="#b59f87" d="M 26.5,12.5 C 25.4324,13.4345 24.099,13.7678 22.5,13.5C 22.822,15.7224 22.1554,17.5557 20.5,19C 21.4231,21.0408 21.7564,23.2075 21.5,25.5C 23.8211,25.2289 25.8211,25.8955 27.5,27.5C 30.7563,25.528 34.0896,24.528 37.5,24.5C 38.2508,25.376 38.7508,26.376 39,27.5C 40.7278,25.148 41.5612,22.4813 41.5,19.5C 41.0757,17.1296 40.9091,14.7963 41,12.5C 41.2784,13.4158 41.7784,14.0825 42.5,14.5C 42.1872,18.0419 42.5206,21.3752 43.5,24.5C 42.6992,26.9995 41.3658,28.9995 39.5,30.5C 37.8333,31.1667 36.1667,31.8333 34.5,32.5C 35.1217,31.3734 35.955,30.3734 37,29.5C 37.6667,28.5 37.6667,27.5 37,26.5C 35.507,30.0578 33.3403,30.3912 30.5,27.5C 30.5,28.8333 30.5,30.1667 30.5,31.5C 28.102,31.1012 25.602,31.1012 23,31.5C 22.5,31 22,30.5 21.5,30C 22.8333,29.3333 24.1667,28.6667 25.5,28C 25,27.5 24.5,27 24,26.5C 22.4157,27.8613 20.5824,28.528 18.5,28.5C 18.6567,27.1266 18.49,25.7932 18,24.5C 17.7216,25.4158 17.2216,26.0825 16.5,26.5C 16.7678,24.901 16.4345,23.5676 15.5,22.5C 15.2623,19.5918 16.2623,17.2585 18.5,15.5C 17.1451,14.3247 17.3117,13.3247 19,12.5C 19.2189,13.938 19.7189,15.2713 20.5,16.5C 20.8333,16.1667 21.1667,15.8333 21.5,15.5C 20.6906,13.9291 20.3573,12.2624 20.5,10.5C 22.6854,10.7036 24.6854,11.3702 26.5,12.5 Z"/></g>
<g><path style="opacity:1" fill="#af7c65" d="M 31.5,17.5 C 32.1667,17.5 32.8333,17.5 33.5,17.5C 34.1667,17.5 34.5,17.8333 34.5,18.5C 33.3104,20.3545 31.9771,22.1879 30.5,24C 24.4321,25.1523 22.2655,22.6523 24,16.5C 27.1731,13.5816 29.6731,13.9149 31.5,17.5 Z"/></g>
<g><path style="opacity:1" fill="#9d4a3f" d="M 31.5,17.5 C 31.5266,23.0159 29.36,24.3492 25,21.5C 25.2885,17.268 27.4552,15.9347 31.5,17.5 Z"/></g>
<g><path style="opacity:1" fill="#6d5745" d="M 34.5,32.5 C 28.6854,34.4412 23.352,33.6078 18.5,30C 17.1772,29.1841 16.5106,28.0174 16.5,26.5C 17.2216,26.0825 17.7216,25.4158 18,24.5C 18.49,25.7932 18.6567,27.1266 18.5,28.5C 20.5824,28.528 22.4157,27.8613 24,26.5C 24.5,27 25,27.5 25.5,28C 24.1667,28.6667 22.8333,29.3333 21.5,30C 22,30.5 22.5,31 23,31.5C 25.602,31.1012 28.102,31.1012 30.5,31.5C 30.5,30.1667 30.5,28.8333 30.5,27.5C 33.3403,30.3912 35.507,30.0578 37,26.5C 37.6667,27.5 37.6667,28.5 37,29.5C 35.955,30.3734 35.1217,31.3734 34.5,32.5 Z"/></g>
<g><path style="opacity:1" fill="#92867f" d="M 64.5,4.5 C 73.2053,2.7837 80.0386,5.45037 85,12.5C 88.8587,22.1924 86.3587,29.6924 77.5,35C 68.9268,38.3732 61.7601,36.5398 56,29.5C 51.3282,18.4916 54.1615,10.1583 64.5,4.5 Z"/></g>
<g><path style="opacity:1" fill="#755c47" d="M 58.5,15.5 C 59.9527,15.9293 61.6194,16.096 63.5,16C 59.2026,17.7583 57.7026,20.925 59,25.5C 61.8178,21.4925 62.6511,21.8258 61.5,26.5C 60.7321,27.2625 60.2321,28.2625 60,29.5C 56.3148,24.9298 55.8148,20.2631 58.5,15.5 Z"/></g>
<g><path style="opacity:1" fill="#ceb58e" d="M 77.5,26.5 C 77.5,27.1667 77.8333,27.5 78.5,27.5C 77.1725,29.8963 75.5058,29.8963 73.5,27.5C 74.8078,24.7049 76.4745,22.2049 78.5,20C 76.4815,18.1427 74.8149,15.976 73.5,13.5C 74.4209,11.244 76.0876,10.244 78.5,10.5C 78.5668,12.4008 78.2335,14.2341 77.5,16C 79.1747,17.5019 80.8413,19.0019 82.5,20.5C 80.3761,21.458 78.3761,22.6246 76.5,24C 77.2524,24.6708 77.5858,25.5041 77.5,26.5 Z"/></g>
<g><path style="opacity:1" fill="#bfa787" d="M 65.5,27.5 C 63.544,29.1751 62.2107,28.8418 61.5,26.5C 62.6511,21.8258 61.8178,21.4925 59,25.5C 57.7026,20.925 59.2026,17.7583 63.5,16C 61.6194,16.096 59.9527,15.9293 58.5,15.5C 58.5,15.1667 58.5,14.8333 58.5,14.5C 61.4174,10.9401 64.4174,10.7735 67.5,14C 66.5509,14.6172 65.7175,14.4506 65,13.5C 64.6271,15.6982 64.1271,17.8649 63.5,20C 64.2335,21.7659 64.5668,23.5992 64.5,25.5C 67.4797,25.2411 69.313,26.5744 70,29.5C 70.3333,28.8333 70.6667,28.1667 71,27.5C 71.7737,29.403 71.4404,31.0696 70,32.5C 68.9331,30.3083 67.4331,28.6417 65.5,27.5 Z"/></g>
<g><path style="opacity:1" fill="#7d6248" d="M 77.5,26.5 C 77.5858,25.5041 77.2524,24.6708 76.5,24C 78.3761,22.6246 80.3761,21.458 82.5,20.5C 80.8413,19.0019 79.1747,17.5019 77.5,16C 78.2335,14.2341 78.5668,12.4008 78.5,10.5C 76.0876,10.244 74.4209,11.244 73.5,13.5C 74.8149,15.976 76.4815,18.1427 78.5,20C 76.4745,22.2049 74.8078,24.7049 73.5,27.5C 75.5058,29.8963 77.1725,29.8963 78.5,27.5C 80.5492,27.7058 80.8825,28.5391 79.5,30C 77.5975,30.1992 76.0975,31.0325 75,32.5C 74.6667,32.1667 74.3333,31.8333 74,31.5C 73.3005,33.032 72.1338,34.032 70.5,34.5C 67.0198,34.146 64.0198,32.8127 61.5,30.5C 61.8333,30.1667 62.1667,29.8333 62.5,29.5C 63.914,30.624 65.414,31.624 67,32.5C 66.5134,30.9562 66.0134,29.2895 65.5,27.5C 67.4331,28.6417 68.9331,30.3083 70,32.5C 71.4404,31.0696 71.7737,29.403 71,27.5C 70.6667,28.1667 70.3333,28.8333 70,29.5C 69.313,26.5744 67.4797,25.2411 64.5,25.5C 64.5668,23.5992 64.2335,21.7659 63.5,20C 64.1271,17.8649 64.6271,15.6982 65,13.5C 65.7175,14.4506 66.5509,14.6172 67.5,14C 64.4174,10.7735 61.4174,10.9401 58.5,14.5C 60.0916,10.4158 63.0916,7.91576 67.5,7C 77.5336,5.88358 82.8669,10.3836 83.5,20.5C 83.423,22.299 82.923,23.9656 82,25.5C 81.6667,24.8333 81.3333,24.1667 81,23.5C 79.6412,24.365 78.4745,25.365 77.5,26.5 Z"/></g>
<g><path style="opacity:1" fill="#a1503f" d="M 67.5,17.5 C 72.3855,16.4048 74.0522,18.0715 72.5,22.5C 68.0711,24.0426 66.4044,22.3759 67.5,17.5 Z"/></g>
<g><path style="opacity:1" fill="#d2b39b" d="M 68.5,8.5 C 71.8384,8.84933 72.8384,10.516 71.5,13.5C 70.7492,12.624 70.2492,11.624 70,10.5C 69.6667,11.1667 69.3333,11.8333 69,12.5C 68.51,11.2068 68.3433,9.87344 68.5,8.5 Z"/></g>
<g><path style="opacity:1" fill="#898079" d="M 15.5,22.5 C 16.4345,23.5676 16.7678,24.901 16.5,26.5C 16.5106,28.0174 17.1772,29.1841 18.5,30C 23.352,33.6078 28.6854,34.4412 34.5,32.5C 36.1667,31.8333 37.8333,31.1667 39.5,30.5C 38.1767,32.6864 36.1767,34.1864 33.5,35C 27.0762,36.3933 21.2429,35.2266 16,31.5C 14.4412,29.7834 13.6079,27.7834 13.5,25.5C 13.5,25.1667 13.5,24.8333 13.5,24.5C 14.1667,24.5 14.5,24.1667 14.5,23.5C 15.1667,23.5 15.5,23.1667 15.5,22.5 Z"/></g>
<g><path style="opacity:1" fill="#695846" d="M 21.5,68.5 C 28.7018,67.1387 34.7018,69.1387 39.5,74.5C 41.0608,79.4173 40.7275,84.084 38.5,88.5C 38.5198,86.857 37.8532,85.5237 36.5,84.5C 39.6945,83.1713 40.0278,81.5046 37.5,79.5C 38.9387,77.6568 38.772,75.9901 37,74.5C 36.7811,75.938 36.2811,77.2713 35.5,78.5C 34.8333,76.5 34.1667,74.5 33.5,72.5C 32.2519,73.0402 31.0852,73.7069 30,74.5C 29.8455,71.4754 28.3455,69.8087 25.5,69.5C 25.5,71.1667 25.5,72.8333 25.5,74.5C 23.6854,73.3702 21.6854,72.7036 19.5,72.5C 19.6984,74.5753 19.8651,76.5753 20,78.5C 18.6439,79.3802 17.1439,79.7135 15.5,79.5C 15.5,82.1667 15.5,84.8333 15.5,87.5C 13.3605,83.7509 13.0272,79.7509 14.5,75.5C 16.5,72.8333 18.8333,70.5 21.5,68.5 Z"/></g>
<g><path style="opacity:1" fill="#443f39" d="M 14.5,71.5 C 15.3543,72.6316 15.3543,73.965 14.5,75.5C 13.7784,75.9175 13.2784,76.5842 13,77.5C 12.5026,80.146 12.3359,82.8127 12.5,85.5C 10.8961,80.6293 11.5628,75.9626 14.5,71.5 Z"/></g>
<g><path style="opacity:1" fill="#676360" d="M 79.5,70.5 C 83.5743,72.9868 85.2409,76.6534 84.5,81.5C 84.9969,87.5148 82.6636,91.8481 77.5,94.5C 84.6546,87.0739 85.3213,79.0739 79.5,70.5 Z"/></g>
<g><path style="opacity:1" fill="#6a4c33" d="M 25.5,74.5 C 27.8056,74.9926 30.139,75.3259 32.5,75.5C 32.719,76.675 32.3857,77.675 31.5,78.5C 24.8587,75.2328 22.0253,77.2328 23,84.5C 25.7067,87.0589 28.2067,87.0589 30.5,84.5C 31.3382,84.1583 31.6716,83.4916 31.5,82.5C 32.2679,81.7375 32.7679,80.7375 33,79.5C 33.6924,80.0253 34.1924,80.6919 34.5,81.5C 33.6708,85.9991 31.0041,88.3324 26.5,88.5C 24.3374,87.6377 22.3374,87.3043 20.5,87.5C 21.7758,85.1385 21.4425,82.9719 19.5,81C 21.1922,79.5993 21.8588,77.7659 21.5,75.5C 23.099,75.7678 24.4324,75.4345 25.5,74.5 Z"/></g>
<g><path style="opacity:1" fill="#7f7775" d="M 79.5,70.5 C 78.8333,70.5 78.1667,70.5 77.5,70.5C 68.3091,66.2669 60.9758,68.2669 55.5,76.5C 54.0818,79.0204 53.0818,81.6871 52.5,84.5C 52.7667,70.7349 59.7667,64.5683 73.5,66C 76.1064,66.7918 78.1064,68.2918 79.5,70.5 Z"/></g>
<g><path style="opacity:1" fill="#715c49" d="M 77.5,70.5 C 80.0894,73.8537 81.7561,77.687 82.5,82C 82.2349,86.0033 80.5682,89.17 77.5,91.5C 76.8333,91.5 76.1667,91.5 75.5,91.5C 76.7784,89.4558 76.6117,87.4558 75,85.5C 74.8413,87.3427 74.3413,88.0093 73.5,87.5C 73.5,86.5 73.5,85.5 73.5,84.5C 73.5,82.8333 73.5,81.1667 73.5,79.5C 71.8333,79.5 70.1667,79.5 68.5,79.5C 67.5,79.5 66.5,79.5 65.5,79.5C 65.3573,81.2624 65.6906,82.9291 66.5,84.5C 65.5754,85.5624 64.5754,85.5624 63.5,84.5C 62.8592,83.5178 62.1925,82.5178 61.5,81.5C 62.9501,80.1502 63.6168,78.4835 63.5,76.5C 66.5045,76.7499 68.3378,75.4166 69,72.5C 69.3333,73.5 69.6667,74.5 70,75.5C 72.1331,76.2551 73.7998,77.5884 75,79.5C 76.3454,77.1703 76.5121,74.8369 75.5,72.5C 74.1667,73.1667 72.8333,73.8333 71.5,74.5C 69.6067,67.8948 67.6067,67.8948 65.5,74.5C 64.2638,73.7542 62.9305,73.4208 61.5,73.5C 61.5,75.5 61.5,77.5 61.5,79.5C 56.8937,79.0508 55.8937,80.3841 58.5,83.5C 57.603,84.5981 56.7697,84.5981 56,83.5C 55.5034,81.1902 55.3367,78.8568 55.5,76.5C 60.9758,68.2669 68.3091,66.2669 77.5,70.5 Z"/></g>
<g><path style="opacity:1" fill="#ae9378" d="M 38.5,88.5 C 36.665,87.8777 35.4983,86.5444 35,84.5C 34.8195,86.4884 34.9862,88.4884 35.5,90.5C 33.5165,90.6168 31.8498,89.9501 30.5,88.5C 29.6143,89.325 29.281,90.325 29.5,91.5C 30.675,91.281 31.675,91.6143 32.5,92.5C 31.1916,93.6256 29.8583,93.6256 28.5,92.5C 28.4621,90.3639 27.7954,89.0306 26.5,88.5C 31.0041,88.3324 33.6708,85.9991 34.5,81.5C 34.1924,80.6919 33.6924,80.0253 33,79.5C 32.7679,80.7375 32.2679,81.7375 31.5,82.5C 30.615,78.7365 28.4484,77.7365 25,79.5C 23.9424,84.5399 25.7758,86.2066 30.5,84.5C 28.2067,87.0589 25.7067,87.0589 23,84.5C 22.0253,77.2328 24.8587,75.2328 31.5,78.5C 32.3857,77.675 32.719,76.675 32.5,75.5C 30.139,75.3259 27.8056,74.9926 25.5,74.5C 25.5,72.8333 25.5,71.1667 25.5,69.5C 28.3455,69.8087 29.8455,71.4754 30,74.5C 31.0852,73.7069 32.2519,73.0402 33.5,72.5C 34.1667,74.5 34.8333,76.5 35.5,78.5C 36.2811,77.2713 36.7811,75.938 37,74.5C 38.772,75.9901 38.9387,77.6568 37.5,79.5C 40.0278,81.5046 39.6945,83.1713 36.5,84.5C 37.8532,85.5237 38.5198,86.857 38.5,88.5 Z"/></g>
<g><path style="opacity:1" fill="#bcb2ad" d="M 14.5,75.5 C 13.0272,79.7509 13.3605,83.7509 15.5,87.5C 16.9258,91.2596 19.5925,93.593 23.5,94.5C 22.0011,95.494 20.3344,95.494 18.5,94.5C 15.7301,91.945 13.7301,88.945 12.5,85.5C 12.3359,82.8127 12.5026,80.146 13,77.5C 13.2784,76.5842 13.7784,75.9175 14.5,75.5 Z"/></g>
<g><path style="opacity:1" fill="#9f514a" d="M 31.5,82.5 C 31.6716,83.4916 31.3382,84.1583 30.5,84.5C 25.7758,86.2066 23.9424,84.5399 25,79.5C 28.4484,77.7365 30.615,78.7365 31.5,82.5 Z"/></g>
<g><path style="opacity:1" fill="#bba98e" d="M 63.5,84.5 C 62.9717,85.8474 62.805,87.1807 63,88.5C 64.2917,87.2089 65.4583,87.2089 66.5,88.5C 63.4761,88.9467 63.1428,89.78 65.5,91C 64.1667,91.6667 64.1667,92.3333 65.5,93C 64.1807,93.195 62.8474,93.0283 61.5,92.5C 62.6602,90.7973 61.9935,90.1307 59.5,90.5C 59.7036,88.3146 60.3702,86.3146 61.5,84.5C 60.791,83.596 59.791,83.2627 58.5,83.5C 55.8937,80.3841 56.8937,79.0508 61.5,79.5C 61.5,77.5 61.5,75.5 61.5,73.5C 62.9305,73.4208 64.2638,73.7542 65.5,74.5C 67.6067,67.8948 69.6067,67.8948 71.5,74.5C 72.8333,73.8333 74.1667,73.1667 75.5,72.5C 76.5121,74.8369 76.3454,77.1703 75,79.5C 73.7998,77.5884 72.1331,76.2551 70,75.5C 69.6667,74.5 69.3333,73.5 69,72.5C 68.3378,75.4166 66.5045,76.7499 63.5,76.5C 63.6168,78.4835 62.9501,80.1502 61.5,81.5C 62.1925,82.5178 62.8592,83.5178 63.5,84.5 Z"/></g>
<g><path style="opacity:1" fill="#c8b296" d="M 25.5,74.5 C 24.4324,75.4345 23.099,75.7678 21.5,75.5C 21.8588,77.7659 21.1922,79.5993 19.5,81C 21.4425,82.9719 21.7758,85.1385 20.5,87.5C 22.3374,87.3043 24.3374,87.6377 26.5,88.5C 27.7954,89.0306 28.4621,90.3639 28.5,92.5C 27.8501,92.8039 27.1835,93.1373 26.5,93.5C 25.9347,91.4904 24.9347,89.8237 23.5,88.5C 17.4344,91.2721 16.4344,90.1055 20.5,85C 20,84.5 19.5,84 19,83.5C 17.5952,84.7305 16.4286,86.0639 15.5,87.5C 15.5,84.8333 15.5,82.1667 15.5,79.5C 17.1439,79.7135 18.6439,79.3802 20,78.5C 19.8651,76.5753 19.6984,74.5753 19.5,72.5C 21.6854,72.7036 23.6854,73.3702 25.5,74.5 Z"/></g>
<g><path style="opacity:1" fill="#544f4f" d="M 12.5,85.5 C 13.7301,88.945 15.7301,91.945 18.5,94.5C 14.2766,93.0692 12.2766,90.0692 12.5,85.5 Z"/></g>
<g><path style="opacity:1" fill="#827b7a" d="M 18.5,94.5 C 20.3344,95.494 22.0011,95.494 23.5,94.5C 28.6545,95.6983 33.3212,94.5317 37.5,91C 38.2524,90.3292 38.5858,89.4959 38.5,88.5C 40.7275,84.084 41.0608,79.4173 39.5,74.5C 38.3418,71.1783 36.0084,69.0117 32.5,68C 28.6083,65.8936 24.9416,66.0603 21.5,68.5C 18.8333,70.5 16.5,72.8333 14.5,75.5C 15.3543,73.965 15.3543,72.6316 14.5,71.5C 20.8608,65.1175 28.1941,63.9508 36.5,68C 46.5705,78.8362 45.5705,88.5028 33.5,97C 29.5,97.6667 25.5,97.6667 21.5,97C 20.0577,96.6232 19.0577,95.7899 18.5,94.5 Z"/></g>
<g><path style="opacity:1" fill="#b3a69c" d="M 39.5,74.5 C 34.7018,69.1387 28.7018,67.1387 21.5,68.5C 24.9416,66.0603 28.6083,65.8936 32.5,68C 36.0084,69.0117 38.3418,71.1783 39.5,74.5 Z"/></g>
<g><path style="opacity:1" fill="#5e4d3a" d="M 28.5,92.5 C 29.8583,93.6256 31.1916,93.6256 32.5,92.5C 31.675,91.6143 30.675,91.281 29.5,91.5C 29.281,90.325 29.6143,89.325 30.5,88.5C 31.8498,89.9501 33.5165,90.6168 35.5,90.5C 34.9862,88.4884 34.8195,86.4884 35,84.5C 35.4983,86.5444 36.665,87.8777 38.5,88.5C 38.5858,89.4959 38.2524,90.3292 37.5,91C 33.3212,94.5317 28.6545,95.6983 23.5,94.5C 19.5925,93.593 16.9258,91.2596 15.5,87.5C 16.4286,86.0639 17.5952,84.7305 19,83.5C 19.5,84 20,84.5 20.5,85C 16.4344,90.1055 17.4344,91.2721 23.5,88.5C 24.9347,89.8237 25.9347,91.4904 26.5,93.5C 27.1835,93.1373 27.8501,92.8039 28.5,92.5 Z"/></g>
<g><path style="opacity:1" fill="#9b9591" d="M 77.5,70.5 C 78.1667,70.5 78.8333,70.5 79.5,70.5C 85.3213,79.0739 84.6546,87.0739 77.5,94.5C 70.5059,100.01 63.6725,99.6763 57,93.5C 54.9404,90.7143 53.4404,87.7143 52.5,84.5C 53.0818,81.6871 54.0818,79.0204 55.5,76.5C 55.3367,78.8568 55.5034,81.1902 56,83.5C 56.7697,84.5981 57.603,84.5981 58.5,83.5C 59.791,83.2627 60.791,83.596 61.5,84.5C 59.1555,84.979 57.8222,86.479 57.5,89C 58.0717,91.0736 59.405,92.2402 61.5,92.5C 63.1661,94.8284 65.4995,95.8284 68.5,95.5C 72.1739,95.493 75.1739,94.1597 77.5,91.5C 80.5682,89.17 82.2349,86.0033 82.5,82C 81.7561,77.687 80.0894,73.8537 77.5,70.5 Z"/></g>
<g><path style="opacity:1" fill="#cdbf9a" d="M 75.5,91.5 C 74.0384,90.5423 72.7051,89.3756 71.5,88C 72.0944,87.5357 72.7611,87.369 73.5,87.5C 74.3413,88.0093 74.8413,87.3427 75,85.5C 76.6117,87.4558 76.7784,89.4558 75.5,91.5 Z"/></g>
<g><path style="opacity:1" fill="#5a4f3f" d="M 61.5,84.5 C 60.3702,86.3146 59.7036,88.3146 59.5,90.5C 61.9935,90.1307 62.6602,90.7973 61.5,92.5C 59.405,92.2402 58.0717,91.0736 57.5,89C 57.8222,86.479 59.1555,84.979 61.5,84.5 Z"/></g>
<g><path style="opacity:1" fill="#654a37" d="M 68.5,79.5 C 68.6816,81.5914 68.3482,83.5914 67.5,85.5C 69.7568,86.7698 71.7568,86.4364 73.5,84.5C 73.5,85.5 73.5,86.5 73.5,87.5C 72.7611,87.369 72.0944,87.5357 71.5,88C 72.7051,89.3756 74.0384,90.5423 75.5,91.5C 76.1667,91.5 76.8333,91.5 77.5,91.5C 75.1739,94.1597 72.1739,95.493 68.5,95.5C 65.4995,95.8284 63.1661,94.8284 61.5,92.5C 62.8474,93.0283 64.1807,93.195 65.5,93C 64.1667,92.3333 64.1667,91.6667 65.5,91C 63.1428,89.78 63.4761,88.9467 66.5,88.5C 65.4583,87.2089 64.2917,87.2089 63,88.5C 62.805,87.1807 62.9717,85.8474 63.5,84.5C 64.5754,85.5624 65.5754,85.5624 66.5,84.5C 65.6906,82.9291 65.3573,81.2624 65.5,79.5C 66.5,79.5 67.5,79.5 68.5,79.5 Z"/></g>
<g><path style="opacity:1" fill="#d1baa8" d="M 66.5,88.5 C 67.8471,89.1712 69.0138,89.1712 70,88.5C 70.7203,90.1124 70.5536,91.6124 69.5,93C 68.5509,93.6172 67.7175,93.4506 67,92.5C 66.51,91.2068 66.3433,89.8734 66.5,88.5 Z"/></g>
<g><path style="opacity:1" fill="#b56762" d="M 68.5,79.5 C 70.1667,79.5 71.8333,79.5 73.5,79.5C 73.5,81.1667 73.5,82.8333 73.5,84.5C 71.7568,86.4364 69.7568,86.7698 67.5,85.5C 68.3482,83.5914 68.6816,81.5914 68.5,79.5 Z"/></g>
<g><path style="opacity:1" fill="#d1be8e" d="M 76.5,79.5 C 78.3464,79.2222 79.6798,79.8888 80.5,81.5C 79.3446,82.9505 77.8446,83.9505 76,84.5C 75.5439,83.2559 76.0439,82.4226 77.5,82C 76.7476,81.3292 76.4142,80.4959 76.5,79.5 Z"/></g>
<g><path style="opacity:1" fill="#88807a" d="M 63.5,127.5 C 78.3246,126.162 85.4913,132.829 85,147.5C 78.9349,160.411 69.7683,163.244 57.5,156C 49.2846,144.259 51.2846,134.759 63.5,127.5 Z"/></g>
<g><path style="opacity:1" fill="#6b573f" d="M 77.5,134.5 C 75.742,134.877 74.0754,135.544 72.5,136.5C 71.9347,134.49 70.9347,132.824 69.5,131.5C 68.3333,133.167 67.1667,134.833 66,136.5C 64.8904,134.963 63.3904,134.297 61.5,134.5C 61.2308,136.429 61.7308,138.095 63,139.5C 63.2213,136.057 64.2213,135.724 66,138.5C 67.9643,136.312 69.4643,136.312 70.5,138.5C 68.4176,138.472 66.5843,139.139 65,140.5C 64.7582,143.697 64.5915,146.697 64.5,149.5C 63.7611,149.631 63.0944,149.464 62.5,149C 62.8988,146.398 62.8988,143.898 62.5,141.5C 60.7015,140.212 59.0348,140.212 57.5,141.5C 56.7611,141.631 56.0944,141.464 55.5,141C 57.5106,133.753 62.3439,130.253 70,130.5C 72.2605,130.865 74.4272,131.531 76.5,132.5C 77.2975,132.957 77.6309,133.624 77.5,134.5 Z"/></g>
<g><path style="opacity:1" fill="#b4a8a4" d="M 31.5,128.5 C 32.791,128.263 33.791,128.596 34.5,129.5C 33.7611,129.369 33.0944,129.536 32.5,130C 33.7383,130.69 33.7383,131.19 32.5,131.5C 21.4597,128.679 15.1263,132.846 13.5,144C 13.336,146.544 14.0027,148.71 15.5,150.5C 15.5,151.167 15.5,151.833 15.5,152.5C 14.2101,151.942 13.3768,150.942 13,149.5C 10.9001,135.104 17.0668,128.104 31.5,128.5 Z"/></g>
<g><path style="opacity:1" fill="#bcaa8e" d="M 77.5,134.5 C 77.8176,137.481 76.8176,139.815 74.5,141.5C 74.5,140.5 74.5,139.5 74.5,138.5C 73.1667,138.5 71.8333,138.5 70.5,138.5C 69.4643,136.312 67.9643,136.312 66,138.5C 64.2213,135.724 63.2213,136.057 63,139.5C 61.7308,138.095 61.2308,136.429 61.5,134.5C 63.3904,134.297 64.8904,134.963 66,136.5C 67.1667,134.833 68.3333,133.167 69.5,131.5C 70.9347,132.824 71.9347,134.49 72.5,136.5C 74.0754,135.544 75.742,134.877 77.5,134.5 Z"/></g>
<g><path style="opacity:1" fill="#6c5b46" d="M 32.5,131.5 C 36.8541,133.859 39.1875,137.526 39.5,142.5C 37.4176,142.528 35.5843,141.861 34,140.5C 34.4978,138.473 34.3311,136.473 33.5,134.5C 31.9017,135.485 30.235,135.651 28.5,135C 25.908,130.241 24.2413,130.741 23.5,136.5C 18.6755,133.165 17.3422,134.332 19.5,140C 18.6443,141.595 17.3109,142.428 15.5,142.5C 14.5033,145.005 14.5033,147.672 15.5,150.5C 14.0027,148.71 13.336,146.544 13.5,144C 15.1263,132.846 21.4597,128.679 32.5,131.5 Z"/></g>
<g><path style="opacity:1" fill="#6c5c44" d="M 77.5,134.5 C 78.7942,135.29 79.9609,136.29 81,137.5C 84.1685,145.552 81.8352,151.885 74,156.5C 73.6667,155.5 73.3333,154.5 73,153.5C 72.0494,153.116 71.2161,152.783 70.5,152.5C 72.2637,151.288 73.9303,151.621 75.5,153.5C 76.606,151.716 76.606,149.882 75.5,148C 77.2322,146.305 79.2322,144.972 81.5,144C 79.9194,143.293 78.4194,142.46 77,141.5C 76.3828,142.449 76.5494,143.282 77.5,144C 76.9056,144.464 76.2389,144.631 75.5,144.5C 75.4431,143.391 75.1098,142.391 74.5,141.5C 76.8176,139.815 77.8176,137.481 77.5,134.5 Z"/></g>
<g><path style="opacity:1" fill="#ab7e69" d="M 31.5,140.5 C 31.9452,143.365 31.2785,145.865 29.5,148C 26.3663,148.115 23.3663,148.282 20.5,148.5C 20.5,147.833 20.1667,147.5 19.5,147.5C 19.5,147.167 19.5,146.833 19.5,146.5C 20.1667,146.5 20.5,146.167 20.5,145.5C 21.1667,144.5 21.8333,143.5 22.5,142.5C 22.4142,141.504 22.7476,140.671 23.5,140C 26.2205,139.398 28.8872,139.565 31.5,140.5 Z"/></g>
<g><path style="opacity:1" fill="#69625f" d="M 31.5,128.5 C 17.0668,128.104 10.9001,135.104 13,149.5C 13.3768,150.942 14.2101,151.942 15.5,152.5C 15.5569,153.609 15.8902,154.609 16.5,155.5C 15.5041,155.586 14.6708,155.252 14,154.5C 7.22305,140.757 11.0564,131.757 25.5,127.5C 27.5122,127.84 29.5122,128.173 31.5,128.5 Z"/></g>
<g><path style="opacity:1" fill="#8a3f38" d="M 22.5,142.5 C 25.8645,139.509 28.5312,140.009 30.5,144C 28.9045,147.92 26.5712,148.42 23.5,145.5C 22.8728,144.583 22.5394,143.583 22.5,142.5 Z"/></g>
<g><path style="opacity:1" fill="#b9a586" d="M 64.5,149.5 C 65.4916,149.328 66.1583,149.662 66.5,150.5C 64.1445,151.575 61.8111,151.575 59.5,150.5C 60.1667,149.167 60.8333,147.833 61.5,146.5C 59.6745,145.429 58.5079,146.096 58,148.5C 57.5,148 57,147.5 56.5,147C 56.6191,145.855 56.9524,144.688 57.5,143.5C 57.5,142.833 57.5,142.167 57.5,141.5C 59.0348,140.212 60.7015,140.212 62.5,141.5C 62.8988,143.898 62.8988,146.398 62.5,149C 63.0944,149.464 63.7611,149.631 64.5,149.5 Z"/></g>
<g><path style="opacity:1" fill="#aa7c6c" d="M 70.5,138.5 C 73.5123,140.571 74.179,143.238 72.5,146.5C 70.6732,147.691 69.0066,149.025 67.5,150.5C 67.1667,150.5 66.8333,150.5 66.5,150.5C 66.1583,149.662 65.4916,149.328 64.5,149.5C 64.5915,146.697 64.7582,143.697 65,140.5C 66.5843,139.139 68.4176,138.472 70.5,138.5 Z"/></g>
<g><path style="opacity:1" fill="#9d4a3f" d="M 72.5,146.5 C 67.3533,148.346 65.3533,146.679 66.5,141.5C 71.0873,139.811 73.0873,141.477 72.5,146.5 Z"/></g>
<g><path style="opacity:1" fill="#55371d" d="M 70.5,138.5 C 71.8333,138.5 73.1667,138.5 74.5,138.5C 74.5,139.5 74.5,140.5 74.5,141.5C 75.1098,142.391 75.4431,143.391 75.5,144.5C 74.421,148.555 71.7544,150.555 67.5,150.5C 69.0066,149.025 70.6732,147.691 72.5,146.5C 74.179,143.238 73.5123,140.571 70.5,138.5 Z"/></g>
<g><path style="opacity:1" fill="#6b5d44" d="M 57.5,143.5 C 56.9524,144.688 56.6191,145.855 56.5,147C 57,147.5 57.5,148 58,148.5C 58.5079,146.096 59.6745,145.429 61.5,146.5C 60.8333,147.833 60.1667,149.167 59.5,150.5C 61.8111,151.575 64.1445,151.575 66.5,150.5C 66.5,152.167 66.5,153.833 66.5,155.5C 67.791,155.737 68.791,155.404 69.5,154.5C 73.1472,156.057 72.6472,157.057 68,157.5C 61.2732,156.254 57.1065,152.421 55.5,146C 55.6842,144.624 56.3509,143.791 57.5,143.5 Z"/></g>
<g><path style="opacity:1" fill="#6c5c3a" d="M 31.5,140.5 C 32.64,141.801 33.9733,142.968 35.5,144C 32.9648,144.928 31.9648,146.762 32.5,149.5C 30.0072,149.329 28.1739,150.329 27,152.5C 25.5402,149.79 23.5402,149.124 21,150.5C 20.5357,149.906 20.369,149.239 20.5,148.5C 23.3663,148.282 26.3663,148.115 29.5,148C 31.2785,145.865 31.9452,143.365 31.5,140.5 Z"/></g>
<g><path style="opacity:1" fill="#c0af8d" d="M 39.5,142.5 C 38.0125,144.605 36.0125,146.272 33.5,147.5C 36.784,150.976 36.1173,152.643 31.5,152.5C 30.791,151.596 29.791,151.263 28.5,151.5C 28.5,152.5 28.5,153.5 28.5,154.5C 28.2648,155.097 27.7648,155.43 27,155.5C 25.6667,154.167 24.3333,152.833 23,151.5C 17.6665,153.284 16.4998,151.951 19.5,147.5C 20.1667,147.5 20.5,147.833 20.5,148.5C 20.369,149.239 20.5357,149.906 21,150.5C 23.5402,149.124 25.5402,149.79 27,152.5C 28.1739,150.329 30.0072,149.329 32.5,149.5C 31.9648,146.762 32.9648,144.928 35.5,144C 33.9733,142.968 32.64,141.801 31.5,140.5C 29.3117,136.777 26.4784,136.111 23,138.5C 22.228,138.355 21.5613,138.022 21,137.5C 20.9071,140.007 20.0738,142.174 18.5,144C 19.4158,144.278 20.0825,144.778 20.5,145.5C 20.5,146.167 20.1667,146.5 19.5,146.5C 18.8333,146.167 18.1667,145.833 17.5,145.5C 16.0937,145.027 15.427,144.027 15.5,142.5C 17.3109,142.428 18.6443,141.595 19.5,140C 17.3422,134.332 18.6755,133.165 23.5,136.5C 24.2413,130.741 25.908,130.241 28.5,135C 30.235,135.651 31.9017,135.485 33.5,134.5C 34.3311,136.473 34.4978,138.473 34,140.5C 35.5843,141.861 37.4176,142.528 39.5,142.5 Z"/></g>
<g><path style="opacity:1" fill="#664f34" d="M 31.5,140.5 C 28.8872,139.565 26.2205,139.398 23.5,140C 22.7476,140.671 22.4142,141.504 22.5,142.5C 21.8333,143.5 21.1667,144.5 20.5,145.5C 20.0825,144.778 19.4158,144.278 18.5,144C 20.0738,142.174 20.9071,140.007 21,137.5C 21.5613,138.022 22.228,138.355 23,138.5C 26.4784,136.111 29.3117,136.777 31.5,140.5 Z"/></g>
<g><path style="opacity:1" fill="#c6b28d" d="M 70.5,152.5 C 69.6618,152.842 69.3284,153.508 69.5,154.5C 68.791,155.404 67.791,155.737 66.5,155.5C 66.5,153.833 66.5,152.167 66.5,150.5C 66.8333,150.5 67.1667,150.5 67.5,150.5C 71.7544,150.555 74.421,148.555 75.5,144.5C 76.2389,144.631 76.9056,144.464 77.5,144C 76.5494,143.282 76.3828,142.449 77,141.5C 78.4194,142.46 79.9194,143.293 81.5,144C 79.2322,144.972 77.2322,146.305 75.5,148C 76.606,149.882 76.606,151.716 75.5,153.5C 73.9303,151.621 72.2637,151.288 70.5,152.5 Z"/></g>
<g><path style="opacity:1" fill="#5b5758" d="M 41.5,138.5 C 44.517,147.45 41.8503,154.117 33.5,158.5C 33.0618,158.565 32.7284,158.399 32.5,158C 39.8139,153.582 42.8139,147.082 41.5,138.5 Z"/></g>
<g><path style="opacity:1" fill="#8e867c" d="M 34.5,129.5 C 37.9018,131.58 40.2351,134.58 41.5,138.5C 42.8139,147.082 39.8139,153.582 32.5,158C 32.7284,158.399 33.0618,158.565 33.5,158.5C 27.0401,161.702 21.3734,160.702 16.5,155.5C 15.8902,154.609 15.5569,153.609 15.5,152.5C 15.5,151.833 15.5,151.167 15.5,150.5C 14.5033,147.672 14.5033,145.005 15.5,142.5C 15.427,144.027 16.0937,145.027 17.5,145.5C 15.1727,150.63 16.506,154.297 21.5,156.5C 22.293,155.645 21.9597,154.811 20.5,154C 21,153.833 21.5,153.667 22,153.5C 24.6581,157.604 28.1581,158.438 32.5,156C 31.0993,155.59 29.766,155.09 28.5,154.5C 28.5,153.5 28.5,152.5 28.5,151.5C 29.791,151.263 30.791,151.596 31.5,152.5C 33.7766,155.205 35.7766,154.872 37.5,151.5C 34.5367,147.769 35.5367,146.102 40.5,146.5C 40.7678,144.901 40.4345,143.568 39.5,142.5C 39.1875,137.526 36.8541,133.859 32.5,131.5C 33.7383,131.19 33.7383,130.69 32.5,130C 33.0944,129.536 33.7611,129.369 34.5,129.5 Z"/></g>
<g><path style="opacity:1" fill="#5b4f34" d="M 17.5,145.5 C 18.1667,145.833 18.8333,146.167 19.5,146.5C 19.5,146.833 19.5,147.167 19.5,147.5C 16.4998,151.951 17.6665,153.284 23,151.5C 24.3333,152.833 25.6667,154.167 27,155.5C 27.7648,155.43 28.2648,155.097 28.5,154.5C 29.766,155.09 31.0993,155.59 32.5,156C 28.1581,158.438 24.6581,157.604 22,153.5C 21.5,153.667 21,153.833 20.5,154C 21.9597,154.811 22.293,155.645 21.5,156.5C 16.506,154.297 15.1727,150.63 17.5,145.5 Z"/></g>
<g><path style="opacity:1" fill="#5a4a2f" d="M 39.5,142.5 C 40.4345,143.568 40.7678,144.901 40.5,146.5C 35.5367,146.102 34.5367,147.769 37.5,151.5C 35.7766,154.872 33.7766,155.205 31.5,152.5C 36.1173,152.643 36.784,150.976 33.5,147.5C 36.0125,146.272 38.0125,144.605 39.5,142.5 Z"/></g>
</svg>
