<?xml version="1.0" encoding="UTF-8"?>
<!DOCTYPE svg PUBLIC "-//W3C//DTD SVG 1.1//EN" "http://www.w3.org/Graphics/SVG/1.1/DTD/svg11.dtd">
<svg xmlns="http://www.w3.org/2000/svg" version="1.1" width="100px" height="165px" style="shape-rendering:geometricPrecision; text-rendering:geometricPrecision; image-rendering:optimizeQuality; fill-rule:evenodd; clip-rule:evenodd" xmlns:xlink="http://www.w3.org/1999/xlink">
<g><path style="opacity:1" fill="#f9f9f8" d="M -0.5,-0.5 C 24.1667,-0.5 48.8333,-0.5 73.5,-0.5C 72.9094,0.151487 72.2427,0.818153 71.5,1.5C 72.6243,2.85923 73.9577,3.85923 75.5,4.5C 74.1779,4.33003 73.0113,4.66337 72,5.5C 71.7668,9.58451 71.2668,13.5845 70.5,17.5C 70.5,19.8333 70.5,22.1667 70.5,24.5C 65.038,25.5837 63.3714,28.7504 65.5,34C 67.1341,34.4935 68.8008,34.6602 70.5,34.5C 70.5,37.1667 70.5,39.8333 70.5,42.5C 69.5064,51.6517 69.1731,60.985 69.5,70.5C 68.6697,60.3415 68.1697,50.0081 68,39.5C 67.6667,42.1667 67.3333,44.8333 67,47.5C 66.4646,45.7295 65.6313,45.3961 64.5,46.5C 65.6055,50.777 65.7722,55.1103 65,59.5C 63.9148,60.2931 62.7481,60.9598 61.5,61.5C 60.3044,61.1543 60.3044,60.6543 61.5,60C 59.4132,60.2179 57.4132,60.0512 55.5,59.5C 56.5,58.8333 57.5,58.1667 58.5,57.5C 58.1667,57.1667 57.8333,56.8333 57.5,56.5C 56.2638,57.2458 54.9305,57.5792 53.5,57.5C 53.3928,63.8798 53.8928,70.2131 55,76.5C 58.0693,78.5497 57.5693,80.0497 53.5,81C 53.8333,81.3333 54.1667,81.6667 54.5,82C 52.1873,82.662 49.854,83.162 47.5,83.5C 47.8308,85.3224 48.4975,86.9891 49.5,88.5C 48.5,88.5 47.5,88.5 46.5,88.5C 46.0371,91.4824 45.7038,94.4824 45.5,97.5C 44.2763,100.505 44.2763,103.505 45.5,106.5C 42.8775,107.459 40.8775,109.125 39.5,111.5C 38.0073,114.113 38.6739,116.113 41.5,117.5C 42.5,117.5 43.5,117.5 44.5,117.5C 44.1714,130.011 44.5048,142.345 45.5,154.5C 46.0312,156.544 47.1978,158.211 49,159.5C 50.7073,157.963 52.2073,156.296 53.5,154.5C 54.4951,142.678 54.8284,130.678 54.5,118.5C 55.791,118.737 56.791,118.404 57.5,117.5C 60.5481,112.143 58.8814,108.81 52.5,107.5C 52.7947,105.265 52.4614,103.265 51.5,101.5C 51.4135,97.1434 51.0802,92.81 50.5,88.5C 51.9819,88.8764 53.3152,88.8764 54.5,88.5C 53.1667,89.8333 53.1667,91.1667 54.5,92.5C 51.9422,94.1201 51.9422,95.6201 54.5,97C 53.6919,97.3076 53.0253,97.8076 52.5,98.5C 53.0601,100.854 53.7267,103.187 54.5,105.5C 57.4212,104.593 60.4212,104.26 63.5,104.5C 63.3354,101.482 63.502,98.4816 64,95.5C 64.3333,95.8333 64.6667,96.1667 65,96.5C 66.8517,93.6526 66.3517,91.1526 63.5,89C 65.3914,88.6913 66.7248,89.5247 67.5,91.5C 69.1667,90.5 70.5,89.1667 71.5,87.5C 73.0255,87.9943 74.3588,88.661 75.5,89.5C 73.0968,89.393 71.2635,90.393 70,92.5C 69.5001,105.162 69.3334,117.829 69.5,130.5C 64.7871,130.468 63.2871,132.801 65,137.5C 66.2635,139.607 68.0968,140.607 70.5,140.5C 70.1984,143.059 70.5318,145.393 71.5,147.5C 72.038,149.117 72.3713,150.784 72.5,152.5C 71.1667,153.5 71.1667,154.5 72.5,155.5C 71.766,159.44 73.0993,160.773 76.5,159.5C 75.962,161.117 75.6287,162.784 75.5,164.5C 50.1667,164.5 24.8333,164.5 -0.5,164.5C -0.5,109.5 -0.5,54.5 -0.5,-0.5 Z"/></g>
<g><path style="opacity:1" fill="#fbfcfc" d="M 73.5,-0.5 C 82.1667,-0.5 90.8333,-0.5 99.5,-0.5C 99.5,54.5 99.5,109.5 99.5,164.5C 91.5,164.5 83.5,164.5 75.5,164.5C 75.6287,162.784 75.962,161.117 76.5,159.5C 77.4511,158.081 77.7845,156.415 77.5,154.5C 76.6521,146.829 78.9854,140.496 84.5,135.5C 83.7542,134.264 83.4208,132.93 83.5,131.5C 82.4324,130.566 81.099,130.232 79.5,130.5C 78.6691,118.007 78.1691,105.34 78,92.5C 76.955,91.6266 76.1217,90.6266 75.5,89.5C 74.3588,88.661 73.0255,87.9943 71.5,87.5C 70.5,89.1667 69.1667,90.5 67.5,91.5C 66.7248,89.5247 65.3914,88.6913 63.5,89C 66.3517,91.1526 66.8517,93.6526 65,96.5C 64.6667,96.1667 64.3333,95.8333 64,95.5C 63.502,98.4816 63.3354,101.482 63.5,104.5C 60.4212,104.26 57.4212,104.593 54.5,105.5C 53.7267,103.187 53.0601,100.854 52.5,98.5C 53.0253,97.8076 53.6919,97.3076 54.5,97C 51.9422,95.6201 51.9422,94.1201 54.5,92.5C 53.1667,91.1667 53.1667,89.8333 54.5,88.5C 53.3152,88.8764 51.9819,88.8764 50.5,88.5C 50.1667,88.5 49.8333,88.5 49.5,88.5C 48.4975,86.9891 47.8308,85.3224 47.5,83.5C 49.854,83.162 52.1873,82.662 54.5,82C 54.1667,81.6667 53.8333,81.3333 53.5,81C 57.5693,80.0497 58.0693,78.5497 55,76.5C 53.8928,70.2131 53.3928,63.8798 53.5,57.5C 54.9305,57.5792 56.2638,57.2458 57.5,56.5C 57.8333,56.8333 58.1667,57.1667 58.5,57.5C 57.5,58.1667 56.5,58.8333 55.5,59.5C 57.4132,60.0512 59.4132,60.2179 61.5,60C 60.3044,60.6543 60.3044,61.1543 61.5,61.5C 62.7481,60.9598 63.9148,60.2931 65,59.5C 65.7722,55.1103 65.6055,50.777 64.5,46.5C 65.6313,45.3961 66.4646,45.7295 67,47.5C 67.3333,44.8333 67.6667,42.1667 68,39.5C 68.1697,50.0081 68.6697,60.3415 69.5,70.5C 69.3284,71.4916 69.6618,72.1583 70.5,72.5C 73.0193,76.3516 75.686,76.3516 78.5,72.5C 79.1174,72.3893 79.6174,72.056 80,71.5C 80.3333,60.5 80.6667,49.5 81,38.5C 81.3333,38.8333 81.6667,39.1667 82,39.5C 83.9249,35.8315 85.5915,35.8315 87,39.5C 87.1667,39.1667 87.3333,38.8333 87.5,38.5C 85.7308,33.8714 84.8975,29.2047 85,24.5C 83.5104,22.442 81.5104,21.1087 79,20.5C 78.6892,18.444 78.1892,16.444 77.5,14.5C 78.2474,12.7106 77.914,11.0439 76.5,9.5C 76.634,7.70848 76.3007,6.04181 75.5,4.5C 73.9577,3.85923 72.6243,2.85923 71.5,1.5C 72.2427,0.818153 72.9094,0.151487 73.5,-0.5 Z"/></g>
<g><path style="opacity:1" fill="#9a8882" d="M 25.5,13.5 C 23.7659,14.562 22.0992,14.562 20.5,13.5C 19.8917,10.9379 20.0584,8.27119 21,5.5C 22.3333,4.16667 23.6667,4.16667 25,5.5C 25.4974,8.14603 25.6641,10.8127 25.5,13.5 Z"/></g>
<g><path style="opacity:1" fill="#886c58" d="M 75.5,4.5 C 76.3007,6.04181 76.634,7.70848 76.5,9.5C 76.3677,12.5701 76.701,15.5701 77.5,18.5C 76.678,20.3885 75.8447,22.3885 75,24.5C 74.4719,21.4208 72.9719,19.0874 70.5,17.5C 71.2668,13.5845 71.7668,9.58451 72,5.5C 73.0113,4.66337 74.1779,4.33003 75.5,4.5 Z"/></g>
<g><path style="opacity:1" fill="#c1a37a" d="M 47.5,6.5 C 48.0434,7.74213 48.3767,9.07546 48.5,10.5C 47.5431,13.262 46.8765,16.0953 46.5,19C 47.4042,25.4877 47.5708,31.9877 47,38.5C 45.9733,28.7061 45.1399,19.0395 44.5,9.5C 45.1667,8.16667 46.1667,7.16667 47.5,6.5 Z"/></g>
<g><path style="opacity:1" fill="#e9cdb0" d="M 74.5,9.5 C 75.7965,10.8488 75.6298,12.1821 74,13.5C 72.07,11.9229 72.2367,10.5896 74.5,9.5 Z"/></g>
<g><path style="opacity:1" fill="#857a57" d="M 47.5,6.5 C 47.7352,5.90326 48.2352,5.56993 49,5.5C 50.221,6.27181 51.221,7.27181 52,8.5C 52.4999,21.4957 52.6666,34.4957 52.5,47.5C 53.8333,47.5 55.1667,47.5 56.5,47.5C 55.6016,48.1577 54.6016,48.8243 53.5,49.5C 54.6085,51.2141 53.9418,51.8808 51.5,51.5C 51.5,50.1667 51.5,48.8333 51.5,47.5C 51.6665,35.1622 51.4999,22.8288 51,10.5C 50.7216,9.5842 50.2216,8.91753 49.5,8.5C 49.5,7.16667 48.8333,6.5 47.5,6.5 Z"/></g>
<g><path style="opacity:1" fill="#3b4450" d="M 20.5,13.5 C 22.0992,14.562 23.7659,14.562 25.5,13.5C 25.2322,15.099 25.5655,16.4324 26.5,17.5C 27.0356,20.6981 26.369,23.3647 24.5,25.5C 23.1667,25.5 21.8333,25.5 20.5,25.5C 20.1667,25.5 19.8333,25.5 19.5,25.5C 19.3946,21.4517 19.7279,17.4517 20.5,13.5 Z"/></g>
<g><path style="opacity:1" fill="#63412b" d="M 70.5,17.5 C 72.9719,19.0874 74.4719,21.4208 75,24.5C 75.8447,22.3885 76.678,20.3885 77.5,18.5C 77.2053,20.7354 77.5386,22.7354 78.5,24.5C 78.5,24.8333 78.5,25.1667 78.5,25.5C 75.8333,25.5 73.1667,25.5 70.5,25.5C 70.5,25.1667 70.5,24.8333 70.5,24.5C 70.5,22.1667 70.5,19.8333 70.5,17.5 Z"/></g>
<g><path style="opacity:1" fill="#c8b384" d="M 70.5,25.5 C 73.1667,25.5 75.8333,25.5 78.5,25.5C 80.3271,26.9319 81.9937,28.5986 83.5,30.5C 82.3698,31.6223 81.7031,32.9557 81.5,34.5C 81.1667,34.5 80.8333,34.5 80.5,34.5C 79.8337,32.6597 79.8337,30.993 80.5,29.5C 76.4049,29.7727 72.7383,30.7727 69.5,32.5C 68.5,32.5 67.5,32.5 66.5,32.5C 66.1868,29.1626 67.5201,26.8293 70.5,25.5 Z"/></g>
<g><path style="opacity:1" fill="#908779" d="M 70.5,24.5 C 70.5,24.8333 70.5,25.1667 70.5,25.5C 67.5201,26.8293 66.1868,29.1626 66.5,32.5C 67.5,32.5 68.5,32.5 69.5,32.5C 69.8333,33.1667 70.1667,33.8333 70.5,34.5C 68.8008,34.6602 67.1341,34.4935 65.5,34C 63.3714,28.7504 65.038,25.5837 70.5,24.5 Z"/></g>
<g><path style="opacity:1" fill="#827968" d="M 78.5,24.5 C 83.039,25.868 84.8723,28.868 84,33.5C 83.3292,34.2524 82.4959,34.5858 81.5,34.5C 81.7031,32.9557 82.3698,31.6223 83.5,30.5C 81.9937,28.5986 80.3271,26.9319 78.5,25.5C 78.5,25.1667 78.5,24.8333 78.5,24.5 Z"/></g>
<g><path style="opacity:1" fill="#7a8283" d="M 26.5,17.5 C 26.3094,22.1285 28.3094,25.4619 32.5,27.5C 34.7113,32.1318 33.378,34.4651 28.5,34.5C 28.8287,47.3443 28.4954,60.011 27.5,72.5C 27.6666,59.4957 27.4999,46.4957 27,33.5C 25.8932,32.2881 25.3932,32.6214 25.5,34.5C 24.609,33.8902 23.609,33.5569 22.5,33.5C 21.8106,32.2264 20.9772,32.2264 20,33.5C 19.8091,35.7078 19.3091,37.7078 18.5,39.5C 18.5,37.8333 18.5,36.1667 18.5,34.5C 12.773,33.092 12.1064,30.2586 16.5,26C 17.448,25.5172 18.448,25.3505 19.5,25.5C 19.8333,25.5 20.1667,25.5 20.5,25.5C 15.796,26.6868 14.6293,29.3534 17,33.5C 21.2053,29.8112 25.372,29.8112 29.5,33.5C 31.3837,32.3073 31.8837,30.6406 31,28.5C 28.9546,27.0735 26.7879,26.0735 24.5,25.5C 26.369,23.3647 27.0356,20.6981 26.5,17.5 Z"/></g>
<g><path style="opacity:1" fill="#b6a983" d="M 20.5,25.5 C 21.8333,25.5 23.1667,25.5 24.5,25.5C 26.7879,26.0735 28.9546,27.0735 31,28.5C 31.8837,30.6406 31.3837,32.3073 29.5,33.5C 25.372,29.8112 21.2053,29.8112 17,33.5C 14.6293,29.3534 15.796,26.6868 20.5,25.5 Z"/></g>
<g><path style="opacity:1" fill="#785f3f" d="M 47.5,6.5 C 48.8333,6.5 49.5,7.16667 49.5,8.5C 49.5,11.5 49.5,14.5 49.5,17.5C 48.8333,28.8333 48.1667,40.1667 47.5,51.5C 45.8174,47.795 44.984,43.795 45,39.5C 44.6667,43.1667 44.3333,46.8333 44,50.5C 43.2747,48.842 42.108,48.342 40.5,49C 39.9011,50.6225 39.2344,52.1225 38.5,53.5C 37.4251,49.062 39.0917,47.062 43.5,47.5C 43.3451,34.8152 43.6784,22.1486 44.5,9.5C 45.1399,19.0395 45.9733,28.7061 47,38.5C 47.5708,31.9877 47.4042,25.4877 46.5,19C 46.8765,16.0953 47.5431,13.262 48.5,10.5C 48.3767,9.07546 48.0434,7.74213 47.5,6.5 Z"/></g>
<g><path style="opacity:1" fill="#ede09e" d="M 49.5,8.5 C 50.2216,8.91753 50.7216,9.5842 51,10.5C 51.4999,22.8288 51.6665,35.1622 51.5,47.5C 49.5257,37.8893 48.859,27.8893 49.5,17.5C 49.5,14.5 49.5,11.5 49.5,8.5 Z"/></g>
<g><path style="opacity:1" fill="#d4787e" d="M 73.5,31.5 C 73.5,45.1667 73.5,58.8333 73.5,72.5C 72.5,72.5 71.5,72.5 70.5,72.5C 69.6618,72.1583 69.3284,71.4916 69.5,70.5C 69.1731,60.985 69.5064,51.6517 70.5,42.5C 70.3335,52.1724 70.5002,61.8391 71,71.5C 70.8479,57.7957 71.6812,44.4623 73.5,31.5 Z"/></g>
<g><path style="opacity:1" fill="#ab9577" d="M 47.5,51.5 C 46.1667,51.5 44.8333,51.5 43.5,51.5C 43.3653,53.5542 44.032,55.2209 45.5,56.5C 45.5,58.8333 45.5,61.1667 45.5,63.5C 44.5318,61.3926 44.1984,59.0593 44.5,56.5C 41.911,56.539 39.911,55.539 38.5,53.5C 39.2344,52.1225 39.9011,50.6225 40.5,49C 42.108,48.342 43.2747,48.842 44,50.5C 44.3333,46.8333 44.6667,43.1667 45,39.5C 44.984,43.795 45.8174,47.795 47.5,51.5 Z"/></g>
<g><path style="opacity:1" fill="#983a3f" d="M 73.5,31.5 C 75.1171,32.5893 75.9504,34.256 76,36.5C 76.4986,40.1516 76.6653,43.8183 76.5,47.5C 76.6663,54.175 76.4996,60.8417 76,67.5C 75.6667,66.1667 75.3333,64.8333 75,63.5C 74.8746,67.28 74.3746,70.28 73.5,72.5C 73.5,58.8333 73.5,45.1667 73.5,31.5 Z"/></g>
<g><path style="opacity:1" fill="#c5ac76" d="M 49.5,17.5 C 48.859,27.8893 49.5257,37.8893 51.5,47.5C 51.5,48.8333 51.5,50.1667 51.5,51.5C 53.9418,51.8808 54.6085,51.2141 53.5,49.5C 54.6016,48.8243 55.6016,48.1577 56.5,47.5C 57.9468,48.1342 58.6134,49.3009 58.5,51C 58.472,52.0698 58.1386,52.9032 57.5,53.5C 57.4351,48.304 56.7684,48.304 55.5,53.5C 54.0986,54.5207 52.7653,55.5207 51.5,56.5C 49.5,56.5 47.5,56.5 45.5,56.5C 44.032,55.2209 43.3653,53.5542 43.5,51.5C 44.8333,51.5 46.1667,51.5 47.5,51.5C 48.1667,40.1667 48.8333,28.8333 49.5,17.5 Z"/></g>
<g><path style="opacity:1" fill="#6aa9c5" d="M 22.5,33.5 C 22.8324,46.1842 22.4991,58.8508 21.5,71.5C 20.6684,63.5207 20.1684,55.5207 20,47.5C 19.5003,55.8267 19.3336,64.16 19.5,72.5C 18.5054,61.6794 18.1721,50.6794 18.5,39.5C 19.3091,37.7078 19.8091,35.7078 20,33.5C 20.9772,32.2264 21.8106,32.2264 22.5,33.5 Z"/></g>
<g><path style="opacity:1" fill="#b16670" d="M 76.5,47.5 C 77.1667,55.5 77.8333,63.5 78.5,71.5C 78.5,71.8333 78.5,72.1667 78.5,72.5C 75.686,76.3516 73.0193,76.3516 70.5,72.5C 71.5,72.5 72.5,72.5 73.5,72.5C 74.3746,70.28 74.8746,67.28 75,63.5C 75.3333,64.8333 75.6667,66.1667 76,67.5C 76.4996,60.8417 76.6663,54.175 76.5,47.5 Z"/></g>
<g><path style="opacity:1" fill="#eee5e0" d="M 76.5,9.5 C 77.914,11.0439 78.2474,12.7106 77.5,14.5C 78.1892,16.444 78.6892,18.444 79,20.5C 81.5104,21.1087 83.5104,22.442 85,24.5C 84.8975,29.2047 85.7308,33.8714 87.5,38.5C 87.3333,38.8333 87.1667,39.1667 87,39.5C 85.5915,35.8315 83.9249,35.8315 82,39.5C 81.6667,39.1667 81.3333,38.8333 81,38.5C 80.6667,49.5 80.3333,60.5 80,71.5C 79.6174,72.056 79.1174,72.3893 78.5,72.5C 78.5,72.1667 78.5,71.8333 78.5,71.5C 77.8536,58.788 78.5203,46.4547 80.5,34.5C 80.8333,34.5 81.1667,34.5 81.5,34.5C 82.4959,34.5858 83.3292,34.2524 84,33.5C 84.8723,28.868 83.039,25.868 78.5,24.5C 77.5386,22.7354 77.2053,20.7354 77.5,18.5C 76.701,15.5701 76.3677,12.5701 76.5,9.5 Z"/></g>
<g><path style="opacity:1" fill="#2c5b75" d="M 27.5,72.5 C 26.078,73.925 24.4113,74.925 22.5,75.5C 24.1757,73.8067 25.509,71.8067 26.5,69.5C 25.5959,61.9445 24.5959,54.4445 23.5,47C 23.375,43.6448 23.875,40.4781 25,37.5C 25.6965,41.5351 25.5299,45.5351 24.5,49.5C 25,51.5 25.5,53.5 26,55.5C 26.7945,48.4197 26.6278,41.4197 25.5,34.5C 25.3932,32.6214 25.8932,32.2881 27,33.5C 27.4999,46.4957 27.6666,59.4957 27.5,72.5 Z"/></g>
<g><path style="opacity:1" fill="#81755f" d="M 57.5,53.5 C 56.5994,55.7271 54.9328,56.7271 52.5,56.5C 52.5,57.5 52.5,58.5 52.5,59.5C 51.596,58.791 51.2627,57.791 51.5,56.5C 52.7653,55.5207 54.0986,54.5207 55.5,53.5C 56.7684,48.304 57.4351,48.304 57.5,53.5 Z"/></g>
<g><path style="opacity:1" fill="#723e3c" d="M 80.5,34.5 C 78.5203,46.4547 77.8536,58.788 78.5,71.5C 77.8333,63.5 77.1667,55.5 76.5,47.5C 76.6653,43.8183 76.4986,40.1516 76,36.5C 75.9504,34.256 75.1171,32.5893 73.5,31.5C 71.6812,44.4623 70.8479,57.7957 71,71.5C 70.5002,61.8391 70.3335,52.1724 70.5,42.5C 70.5,39.8333 70.5,37.1667 70.5,34.5C 70.1667,33.8333 69.8333,33.1667 69.5,32.5C 72.7383,30.7727 76.4049,29.7727 80.5,29.5C 79.8337,30.993 79.8337,32.6597 80.5,34.5 Z"/></g>
<g><path style="opacity:1" fill="#69453f" d="M 45.5,56.5 C 47.5,56.5 49.5,56.5 51.5,56.5C 51.2627,57.791 51.596,58.791 52.5,59.5C 52.5987,62.2372 52.2653,64.9039 51.5,67.5C 50.4168,67.4606 49.4168,67.1272 48.5,66.5C 47.3044,66.8457 47.3044,67.3457 48.5,68C 47.9056,68.4643 47.2389,68.631 46.5,68.5C 46.3713,66.7839 46.038,65.1172 45.5,63.5C 45.5,61.1667 45.5,58.8333 45.5,56.5 Z"/></g>
<g><path style="opacity:1" fill="#367896" d="M 22.5,33.5 C 23.609,33.5569 24.609,33.8902 25.5,34.5C 26.6278,41.4197 26.7945,48.4197 26,55.5C 25.5,53.5 25,51.5 24.5,49.5C 25.5299,45.5351 25.6965,41.5351 25,37.5C 23.875,40.4781 23.375,43.6448 23.5,47C 24.5959,54.4445 25.5959,61.9445 26.5,69.5C 25.509,71.8067 24.1757,73.8067 22.5,75.5C 21.1667,74.8333 20.1667,73.8333 19.5,72.5C 19.3336,64.16 19.5003,55.8267 20,47.5C 20.1684,55.5207 20.6684,63.5207 21.5,71.5C 22.4991,58.8508 22.8324,46.1842 22.5,33.5 Z"/></g>
<g><path style="opacity:1" fill="#8a7564" d="M 51.5,67.5 C 51.2962,70.5176 50.9629,73.5176 50.5,76.5C 49.1667,76.5 47.8333,76.5 46.5,76.5C 46.0139,73.6183 46.0139,70.9517 46.5,68.5C 47.2389,68.631 47.9056,68.4643 48.5,68C 47.3044,67.3457 47.3044,66.8457 48.5,66.5C 49.4168,67.1272 50.4168,67.4606 51.5,67.5 Z"/></g>
<g><path style="opacity:1" fill="#777875" d="M 49.5,88.5 C 49.8333,88.5 50.1667,88.5 50.5,88.5C 51.0802,92.81 51.4135,97.1434 51.5,101.5C 50.661,102.641 49.9943,103.974 49.5,105.5C 48.9984,106.521 48.3317,106.688 47.5,106C 47.4192,103.24 47.7525,100.407 48.5,97.5C 47.5754,96.4376 46.5754,96.4376 45.5,97.5C 45.7038,94.4824 46.0371,91.4824 46.5,88.5C 47.5,88.5 48.5,88.5 49.5,88.5 Z"/></g>
<g><path style="opacity:1" fill="#57a8cf" d="M 77.5,131.5 C 77.5,131.833 77.5,132.167 77.5,132.5C 76.5,132.5 75.5,132.5 74.5,132.5C 74.5,119.833 74.5,107.167 74.5,94.5C 74.3691,93.6236 74.7025,92.9569 75.5,92.5C 76.2508,93.376 76.7508,94.376 77,95.5C 77.4999,107.495 77.6665,119.495 77.5,131.5 Z"/></g>
<g><path style="opacity:1" fill="#524f4a" d="M 51.5,101.5 C 52.4614,103.265 52.7947,105.265 52.5,107.5C 52.5,108.167 52.1667,108.5 51.5,108.5C 47.8691,108.16 44.5358,108.994 41.5,111C 40.7734,112.399 40.2734,113.899 40,115.5C 39.51,114.207 39.3433,112.873 39.5,111.5C 40.8775,109.125 42.8775,107.459 45.5,106.5C 44.2763,103.505 44.2763,100.505 45.5,97.5C 46.5754,96.4376 47.5754,96.4376 48.5,97.5C 47.7525,100.407 47.4192,103.24 47.5,106C 48.3317,106.688 48.9984,106.521 49.5,105.5C 49.9943,103.974 50.661,102.641 51.5,101.5 Z"/></g>
<g><path style="opacity:1" fill="#8b4b4a" d="M 25.5,93.5 C 24.8333,93.5 24.1667,93.5 23.5,93.5C 22.8826,93.6107 22.3826,93.944 22,94.5C 21.3333,105.833 21.3333,117.167 22,128.5C 22.3826,129.056 22.8826,129.389 23.5,129.5C 23.5,131.167 23.5,132.833 23.5,134.5C 22.8333,134.5 22.1667,134.5 21.5,134.5C 21.9118,132.027 20.9118,130.694 18.5,130.5C 18.5,125.833 18.5,121.167 18.5,116.5C 19.3288,109.345 19.8288,102.011 20,94.5C 21.6779,92.4468 23.5112,92.1134 25.5,93.5 Z"/></g>
<g><path style="opacity:1" fill="#bfb084" d="M 51.5,108.5 C 52.9738,109.675 54.6404,110.675 56.5,111.5C 57.2458,112.736 57.5792,114.07 57.5,115.5C 56.1667,115.5 54.8333,115.5 53.5,115.5C 54.0906,114.849 54.7573,114.182 55.5,113.5C 55.1667,113.167 54.8333,112.833 54.5,112.5C 51.2423,113.417 47.909,113.751 44.5,113.5C 43.5029,112.287 42.5029,112.454 41.5,114C 43.9312,115.092 43.9312,116.259 41.5,117.5C 38.6739,116.113 38.0073,114.113 39.5,111.5C 39.3433,112.873 39.51,114.207 40,115.5C 40.2734,113.899 40.7734,112.399 41.5,111C 44.5358,108.994 47.8691,108.16 51.5,108.5 Z"/></g>
<g><path style="opacity:1" fill="#936a69" d="M 27.5,130.5 C 27.5,130.833 27.5,131.167 27.5,131.5C 26.8333,118.833 26.1667,106.167 25.5,93.5C 23.5112,92.1134 21.6779,92.4468 20,94.5C 19.8288,102.011 19.3288,109.345 18.5,116.5C 18.1688,108.14 18.5021,99.8068 19.5,91.5C 20.7193,90.7366 21.7193,89.7366 22.5,88.5C 24.1487,89.6477 25.6487,90.981 27,92.5C 27.4999,105.162 27.6666,117.829 27.5,130.5 Z"/></g>
<g><path style="opacity:1" fill="#944641" d="M 25.5,93.5 C 26.1667,106.167 26.8333,118.833 27.5,131.5C 27.7148,133.179 27.0481,134.179 25.5,134.5C 25.5,120.833 25.5,107.167 25.5,93.5 Z"/></g>
<g><path style="opacity:1" fill="#9c3534" d="M 23.5,93.5 C 23.5,105.5 23.5,117.5 23.5,129.5C 22.8826,129.389 22.3826,129.056 22,128.5C 21.3333,117.167 21.3333,105.833 22,94.5C 22.3826,93.944 22.8826,93.6107 23.5,93.5 Z"/></g>
<g><path style="opacity:1" fill="#6e644e" d="M 44.5,113.5 C 44.5,114.167 44.8333,114.5 45.5,114.5C 45.5,127.833 45.5,141.167 45.5,154.5C 44.5048,142.345 44.1714,130.011 44.5,117.5C 43.5,117.5 42.5,117.5 41.5,117.5C 43.9312,116.259 43.9312,115.092 41.5,114C 42.5029,112.454 43.5029,112.287 44.5,113.5 Z"/></g>
<g><path style="opacity:1" fill="#d26366" d="M 23.5,93.5 C 24.1667,93.5 24.8333,93.5 25.5,93.5C 25.5,107.167 25.5,120.833 25.5,134.5C 24.8333,134.5 24.1667,134.5 23.5,134.5C 23.5,132.833 23.5,131.167 23.5,129.5C 23.5,117.5 23.5,105.5 23.5,93.5 Z"/></g>
<g><path style="opacity:1" fill="#807158" d="M 52.5,107.5 C 58.8814,108.81 60.5481,112.143 57.5,117.5C 56.1667,117.5 54.8333,117.5 53.5,117.5C 53.5,129.5 53.5,141.5 53.5,153.5C 52.7537,149.148 52.087,144.648 51.5,140C 51.4659,132.184 51.7992,124.35 52.5,116.5C 53.1667,116.5 53.5,116.167 53.5,115.5C 54.8333,115.5 56.1667,115.5 57.5,115.5C 57.5792,114.07 57.2458,112.736 56.5,111.5C 54.6404,110.675 52.9738,109.675 51.5,108.5C 52.1667,108.5 52.5,108.167 52.5,107.5 Z"/></g>
<g><path style="opacity:1" fill="#476b7b" d="M 75.5,89.5 C 76.1217,90.6266 76.955,91.6266 78,92.5C 78.1691,105.34 78.6691,118.007 79.5,130.5C 79.5,130.833 79.5,131.167 79.5,131.5C 78.8333,131.5 78.1667,131.5 77.5,131.5C 77.6665,119.495 77.4999,107.495 77,95.5C 76.7508,94.376 76.2508,93.376 75.5,92.5C 74.7025,92.9569 74.3691,93.6236 74.5,94.5C 73.0277,96.1175 72.361,98.1175 72.5,100.5C 74.1267,109.521 73.7934,117.688 71.5,125C 71.1058,128.168 72.1058,130.668 74.5,132.5C 75.5,132.5 76.5,132.5 77.5,132.5C 74.3818,134.007 71.7151,133.34 69.5,130.5C 69.3334,117.829 69.5001,105.162 70,92.5C 71.2635,90.393 73.0968,89.393 75.5,89.5 Z"/></g>
<g><path style="opacity:1" fill="#225d8d" d="M 74.5,94.5 C 74.5,107.167 74.5,119.833 74.5,132.5C 72.1058,130.668 71.1058,128.168 71.5,125C 73.7934,117.688 74.1267,109.521 72.5,100.5C 72.361,98.1175 73.0277,96.1175 74.5,94.5 Z"/></g>
<g><path style="opacity:1" fill="#6e6045" d="M 18.5,130.5 C 20.9118,130.694 21.9118,132.027 21.5,134.5C 19.4595,135.519 17.4595,135.519 15.5,134.5C 18.1306,132.995 17.7973,132.329 14.5,132.5C 14.178,134.722 14.8446,136.556 16.5,138C 20.0257,139.337 23.6924,139.837 27.5,139.5C 27.5,139.833 27.5,140.167 27.5,140.5C 26.8333,140.5 26.5,140.833 26.5,141.5C 24.0015,140.668 21.6681,140.335 19.5,140.5C 13.7991,139.524 12.1324,136.357 14.5,131C 15.7932,130.51 17.1266,130.343 18.5,130.5 Z"/></g>
<g><path style="opacity:1" fill="#bbb799" d="M 79.5,130.5 C 81.099,130.232 82.4324,130.566 83.5,131.5C 82.448,131.351 81.448,131.517 80.5,132C 83.1638,134.532 82.8304,136.698 79.5,138.5C 80.2751,136.388 80.2751,134.388 79.5,132.5C 79.5,132.167 79.5,131.833 79.5,131.5C 79.5,131.167 79.5,130.833 79.5,130.5 Z"/></g>
<g><path style="opacity:1" fill="#433e2e" d="M 69.5,130.5 C 71.7151,133.34 74.3818,134.007 77.5,132.5C 77.5,132.167 77.5,131.833 77.5,131.5C 78.1667,131.5 78.8333,131.5 79.5,131.5C 79.5,131.833 79.5,132.167 79.5,132.5C 77.9539,133.636 76.1206,134.302 74,134.5C 72.0145,134.431 70.5145,133.765 69.5,132.5C 69.5,131.833 69.5,131.167 69.5,130.5 Z"/></g>
<g><path style="opacity:1" fill="#d8cbbe" d="M 57.5,117.5 C 56.791,118.404 55.791,118.737 54.5,118.5C 54.8284,130.678 54.4951,142.678 53.5,154.5C 53.5,154.167 53.5,153.833 53.5,153.5C 53.5,141.5 53.5,129.5 53.5,117.5C 54.8333,117.5 56.1667,117.5 57.5,117.5 Z"/></g>
<g><path style="opacity:1" fill="#c2b07c" d="M 27.5,131.5 C 31.2342,133.99 31.2342,136.657 27.5,139.5C 23.6924,139.837 20.0257,139.337 16.5,138C 14.8446,136.556 14.178,134.722 14.5,132.5C 17.7973,132.329 18.1306,132.995 15.5,134.5C 17.4595,135.519 19.4595,135.519 21.5,134.5C 22.1667,134.5 22.8333,134.5 23.5,134.5C 24.1667,134.5 24.8333,134.5 25.5,134.5C 27.0481,134.179 27.7148,133.179 27.5,131.5 Z"/></g>
<g><path style="opacity:1" fill="#b79f72" d="M 69.5,132.5 C 70.5145,133.765 72.0145,134.431 74,134.5C 76.1206,134.302 77.9539,133.636 79.5,132.5C 80.2751,134.388 80.2751,136.388 79.5,138.5C 77.283,139.369 74.9496,139.702 72.5,139.5C 72.1667,139.5 71.8333,139.5 71.5,139.5C 67.4117,139.004 65.4117,136.671 65.5,132.5C 66.8333,132.5 68.1667,132.5 69.5,132.5 Z"/></g>
<g><path style="opacity:1" fill="#8d8774" d="M 27.5,131.5 C 27.5,131.167 27.5,130.833 27.5,130.5C 32.7086,130.369 34.3753,132.703 32.5,137.5C 30.9713,138.763 29.3046,139.763 27.5,140.5C 27.5,140.167 27.5,139.833 27.5,139.5C 31.2342,136.657 31.2342,133.99 27.5,131.5 Z"/></g>
<g><path style="opacity:1" fill="#8a8475" d="M 69.5,130.5 C 69.5,131.167 69.5,131.833 69.5,132.5C 68.1667,132.5 66.8333,132.5 65.5,132.5C 65.4117,136.671 67.4117,139.004 71.5,139.5C 71.5,142.167 71.5,144.833 71.5,147.5C 70.5318,145.393 70.1984,143.059 70.5,140.5C 68.0968,140.607 66.2635,139.607 65,137.5C 63.2871,132.801 64.7871,130.468 69.5,130.5 Z"/></g>
<g><path style="opacity:1" fill="#ded095" d="M 45.5,114.5 C 46.5,114.5 47.5,114.5 48.5,114.5C 48.5,127.833 48.5,141.167 48.5,154.5C 47.6522,155.625 46.6522,155.625 45.5,154.5C 45.5,141.167 45.5,127.833 45.5,114.5 Z"/></g>
<g><path style="opacity:1" fill="#826932" d="M 53.5,115.5 C 53.5,116.167 53.1667,116.5 52.5,116.5C 51.791,115.596 50.791,115.263 49.5,115.5C 49.6461,124.671 49.9794,133.838 50.5,143C 50.4898,147.229 49.8232,151.062 48.5,154.5C 48.5,141.167 48.5,127.833 48.5,114.5C 47.5,114.5 46.5,114.5 45.5,114.5C 44.8333,114.5 44.5,114.167 44.5,113.5C 47.909,113.751 51.2423,113.417 54.5,112.5C 54.8333,112.833 55.1667,113.167 55.5,113.5C 54.7573,114.182 54.0906,114.849 53.5,115.5 Z"/></g>
<g><path style="opacity:1" fill="#435563" d="M 19.5,140.5 C 21.6681,140.335 24.0015,140.668 26.5,141.5C 27.8333,144.167 27.8333,146.833 26.5,149.5C 25.5326,150.806 24.1993,151.473 22.5,151.5C 21.8333,150.833 21.1667,150.167 20.5,149.5C 19.5975,146.609 19.2641,143.609 19.5,140.5 Z"/></g>
<g><path style="opacity:1" fill="#a29065" d="M 52.5,116.5 C 51.7992,124.35 51.4659,132.184 51.5,140C 52.087,144.648 52.7537,149.148 53.5,153.5C 53.5,153.833 53.5,154.167 53.5,154.5C 52.2073,156.296 50.7073,157.963 49,159.5C 47.1978,158.211 46.0312,156.544 45.5,154.5C 46.6522,155.625 47.6522,155.625 48.5,154.5C 49.8232,151.062 50.4898,147.229 50.5,143C 49.9794,133.838 49.6461,124.671 49.5,115.5C 50.791,115.263 51.791,115.596 52.5,116.5 Z"/></g>
<g><path style="opacity:1" fill="#67574a" d="M 83.5,131.5 C 83.4208,132.93 83.7542,134.264 84.5,135.5C 78.9854,140.496 76.6521,146.829 77.5,154.5C 76.596,153.791 76.2627,152.791 76.5,151.5C 76.9422,147.846 77.2756,144.179 77.5,140.5C 76.1779,140.33 75.0113,140.663 74,141.5C 73.2828,140.956 72.7828,140.289 72.5,139.5C 74.9496,139.702 77.283,139.369 79.5,138.5C 82.8304,136.698 83.1638,134.532 80.5,132C 81.448,131.517 82.448,131.351 83.5,131.5 Z"/></g>
<g><path style="opacity:1" fill="#6d3c37" d="M 71.5,139.5 C 71.8333,139.5 72.1667,139.5 72.5,139.5C 72.7828,140.289 73.2828,140.956 74,141.5C 75.0113,140.663 76.1779,140.33 77.5,140.5C 77.2756,144.179 76.9422,147.846 76.5,151.5C 75.0413,151.433 73.7079,151.766 72.5,152.5C 72.3713,150.784 72.038,149.117 71.5,147.5C 71.5,144.833 71.5,142.167 71.5,139.5 Z"/></g>
<g><path style="opacity:1" fill="#b0a697" d="M 26.5,149.5 C 26.8128,153.042 26.4794,156.375 25.5,159.5C 25.5,157.833 25.5,156.167 25.5,154.5C 22.4331,154.879 21.4331,153.879 22.5,151.5C 24.1993,151.473 25.5326,150.806 26.5,149.5 Z"/></g>
<g><path style="opacity:1" fill="#bfa591" d="M 76.5,151.5 C 76.2627,152.791 76.596,153.791 77.5,154.5C 77.7845,156.415 77.4511,158.081 76.5,159.5C 76.762,158.022 76.4287,156.689 75.5,155.5C 74.3132,154.347 73.3132,154.347 72.5,155.5C 71.1667,154.5 71.1667,153.5 72.5,152.5C 73.7079,151.766 75.0413,151.433 76.5,151.5 Z"/></g>
<g><path style="opacity:1" fill="#78635d" d="M 20.5,149.5 C 21.1667,150.167 21.8333,150.833 22.5,151.5C 21.4331,153.879 22.4331,154.879 25.5,154.5C 25.5,156.167 25.5,157.833 25.5,159.5C 24.1667,159.5 22.8333,159.5 21.5,159.5C 20.9492,156.193 20.6159,152.86 20.5,149.5 Z"/></g>
<g><path style="opacity:1" fill="#775f55" d="M 76.5,159.5 C 73.0993,160.773 71.766,159.44 72.5,155.5C 73.3132,154.347 74.3132,154.347 75.5,155.5C 76.4287,156.689 76.762,158.022 76.5,159.5 Z"/></g>
</svg>
