<?xml version="1.0" encoding="UTF-8"?>
<!DOCTYPE svg PUBLIC "-//W3C//DTD SVG 1.1//EN" "http://www.w3.org/Graphics/SVG/1.1/DTD/svg11.dtd">
<svg xmlns="http://www.w3.org/2000/svg" version="1.1" width="100px" height="165px" style="shape-rendering:geometricPrecision; text-rendering:geometricPrecision; image-rendering:optimizeQuality; fill-rule:evenodd; clip-rule:evenodd" xmlns:xlink="http://www.w3.org/1999/xlink">
<g><path style="opacity:1" fill="#f8f8f7" d="M -0.5,-0.5 C 23.1667,-0.5 46.8333,-0.5 70.5,-0.5C 71.739,1.79671 73.5724,2.13005 76,0.5C 79.7887,1.64507 83.2887,2.9784 86.5,4.5C 81.551,3.95886 76.8844,4.79219 72.5,7C 70.8207,9.56453 70.154,12.3979 70.5,15.5C 70.5,16.8333 70.5,18.1667 70.5,19.5C 69.2053,23.2671 68.5387,27.2671 68.5,31.5C 64.0782,40.759 63.4115,50.4257 66.5,60.5C 67.9059,62.1777 69.2392,63.8443 70.5,65.5C 65.9332,64.6352 61.2665,64.6352 56.5,65.5C 56.8747,68.9067 55.8747,69.4067 53.5,67C 56.1208,66.0944 55.9541,65.5944 53,65.5C 50.1764,66.0539 47.343,66.5539 44.5,67C 44.727,68.1353 45.0604,69.302 45.5,70.5C 47.7466,71.3742 50.0799,71.7076 52.5,71.5C 50.3432,72.4067 48.0098,73.0733 45.5,73.5C 44.5084,73.3284 43.8417,73.6618 43.5,74.5C 35.8439,76.4242 28.1773,76.7575 20.5,75.5C 18.8798,73.5868 16.8798,72.2534 14.5,71.5C 14.1326,75.9671 14.6326,80.3004 16,84.5C 17.8484,87.0414 20.3484,88.0414 23.5,87.5C 28.4714,87.6562 33.138,88.6562 37.5,90.5C 35.9537,90.7239 34.287,91.0573 32.5,91.5C 34.0777,92.2978 35.7444,92.7978 37.5,93C 34.7644,93.4217 32.0977,93.4217 29.5,93C 31.2446,94.692 31.5779,96.5253 30.5,98.5C 29.7506,96.9884 28.584,95.9884 27,95.5C 25.9701,95.8361 25.4701,96.5028 25.5,97.5C 19.2191,97.9482 15.7191,101.282 15,107.5C 14.3333,114.5 14.3333,121.5 15,128.5C 16.8195,136.36 17.6529,144.36 17.5,152.5C 15.5212,153.812 13.8545,155.479 12.5,157.5C 16.5115,158.698 20.5115,158.698 24.5,157.5C 26.0443,157.297 27.3777,156.63 28.5,155.5C 29.3214,152.553 29.8214,149.553 30,146.5C 31.0113,147.337 32.1779,147.67 33.5,147.5C 33.238,146.022 33.5713,144.689 34.5,143.5C 38.0765,146.666 39.4098,150.666 38.5,155.5C 39.9587,155.433 41.2921,155.766 42.5,156.5C 43.391,157.11 44.391,157.443 45.5,157.5C 45.9528,158.458 46.6195,159.292 47.5,160C 49.8098,160.497 52.1432,160.663 54.5,160.5C 54.3893,161.117 54.056,161.617 53.5,162C 55.6115,162.845 57.6115,163.678 59.5,164.5C 39.5,164.5 19.5,164.5 -0.5,164.5C -0.5,109.5 -0.5,54.5 -0.5,-0.5 Z"/></g>
<g><path style="opacity:1" fill="#fafaf9" d="M 70.5,-0.5 C 80.1667,-0.5 89.8333,-0.5 99.5,-0.5C 99.5,54.5 99.5,109.5 99.5,164.5C 86.1667,164.5 72.8333,164.5 59.5,164.5C 57.6115,163.678 55.6115,162.845 53.5,162C 54.056,161.617 54.3893,161.117 54.5,160.5C 57.2564,157.982 59.2564,154.982 60.5,151.5C 61.1378,147.573 61.9711,143.573 63,139.5C 64.1628,141.285 64.8295,143.285 65,145.5C 66.1153,142.617 67.2819,139.617 68.5,136.5C 68.6761,139.727 69.3428,142.727 70.5,145.5C 70.4958,155.833 75.4958,159.833 85.5,157.5C 83.9617,155.757 82.9617,153.757 82.5,151.5C 82.0797,139.587 82.7463,127.754 84.5,116C 85.8358,107.483 82.5024,101.983 74.5,99.5C 74.5,99.1667 74.5,98.8333 74.5,98.5C 76.5914,98.3184 78.5914,98.6518 80.5,99.5C 82.1112,98.6798 82.7778,97.3464 82.5,95.5C 81.5,95.5 80.5,95.5 79.5,95.5C 79.5172,93.4352 79.8505,91.4352 80.5,89.5C 87.4251,80.3279 85.0918,74.6613 73.5,72.5C 73.1583,71.6618 72.4916,71.3284 71.5,71.5C 65.2234,70.3631 58.8901,70.3631 52.5,71.5C 50.0799,71.7076 47.7466,71.3742 45.5,70.5C 45.0604,69.302 44.727,68.1353 44.5,67C 47.343,66.5539 50.1764,66.0539 53,65.5C 55.9541,65.5944 56.1208,66.0944 53.5,67C 55.8747,69.4067 56.8747,68.9067 56.5,65.5C 61.2665,64.6352 65.9332,64.6352 70.5,65.5C 76.3429,67.2453 80.3429,65.2453 82.5,59.5C 84.23,55.4673 85.23,51.134 85.5,46.5C 84.5785,38.0114 83.5785,29.678 82.5,21.5C 82.1744,17.1161 82.5078,12.7828 83.5,8.5C 84.9344,7.41159 85.9344,6.07826 86.5,4.5C 83.2887,2.9784 79.7887,1.64507 76,0.5C 73.5724,2.13005 71.739,1.79671 70.5,-0.5 Z"/></g>
<g><path style="opacity:1" fill="#693a38" d="M 27.5,10.5 C 27.5,11.1667 27.1667,11.5 26.5,11.5C 26.1667,11.5 25.8333,11.5 25.5,11.5C 22.8333,11.5 20.1667,11.5 17.5,11.5C 17.415,9.07122 16.415,7.07122 14.5,5.5C 20.2664,3.55305 24.5998,5.21972 27.5,10.5 Z"/></g>
<g><path style="opacity:1" fill="#2d94be" d="M 51.5,6.5 C 58.176,10.1584 60.3427,15.825 58,23.5C 57.2088,27.8873 56.3754,32.2206 55.5,36.5C 53.8868,36.0557 52.7202,35.0557 52,33.5C 51.6252,25.2137 51.4585,17.0471 51.5,9C 45.2895,8.04786 43.2895,10.5479 45.5,16.5C 43.0934,20.4039 43.0934,24.4039 45.5,28.5C 44.1823,30.9122 44.349,33.2456 46,35.5C 46.7769,30.778 46.6103,26.1113 45.5,21.5C 46.325,20.6143 47.325,20.281 48.5,20.5C 48.1266,31.5869 48.7932,42.5869 50.5,53.5C 51.5,53.5 52.5,53.5 53.5,53.5C 53.6495,54.552 53.4828,55.552 53,56.5C 50.9592,55.5769 48.7925,55.2436 46.5,55.5C 44.3122,40.5849 42.6455,25.7516 41.5,11C 43.1814,5.99448 46.5147,4.49448 51.5,6.5 Z"/></g>
<g><path style="opacity:1" fill="#9e846b" d="M 86.5,4.5 C 85.9344,6.07826 84.9344,7.41159 83.5,8.5C 82.5078,12.7828 82.1744,17.1161 82.5,21.5C 81.6762,17.6877 81.1762,13.6877 81,9.5C 80.6174,10.056 80.1174,10.3893 79.5,10.5C 77.5,11.1667 75.5,11.8333 73.5,12.5C 73.2172,11.7109 72.7172,11.0442 72,10.5C 71.8019,12.3817 71.3019,14.0484 70.5,15.5C 70.154,12.3979 70.8207,9.56453 72.5,7C 76.8844,4.79219 81.551,3.95886 86.5,4.5 Z"/></g>
<g><path style="opacity:1" fill="#4c1a1a" d="M 73.5,12.5 C 72.5392,15.4261 71.8726,18.4261 71.5,21.5C 70.6618,21.1583 70.3284,20.4916 70.5,19.5C 70.5,18.1667 70.5,16.8333 70.5,15.5C 71.3019,14.0484 71.8019,12.3817 72,10.5C 72.7172,11.0442 73.2172,11.7109 73.5,12.5 Z"/></g>
<g><path style="opacity:1" fill="#c2745e" d="M 17.5,12.5 C 17.5,12.1667 17.5,11.8333 17.5,11.5C 20.1667,11.5 22.8333,11.5 25.5,11.5C 24.8902,12.391 24.5569,13.391 24.5,14.5C 23.6618,14.8417 23.3284,15.5084 23.5,16.5C 22.3655,21.0379 21.1989,25.7046 20,30.5C 19.6174,31.056 19.1174,31.3893 18.5,31.5C 18.6262,26.9887 18.9595,22.4887 19.5,18C 19.4535,15.7047 18.7868,13.8714 17.5,12.5 Z"/></g>
<g><path style="opacity:1" fill="#6f6143" d="M 27.5,10.5 C 30.0084,22.1865 32.8417,33.8532 36,45.5C 36.6667,50.1667 36.6667,54.8333 36,59.5C 31.5432,65.3506 26.3766,66.0173 20.5,61.5C 21.4916,61.6716 22.1583,61.3382 22.5,60.5C 22.8333,60.5 23.1667,60.5 23.5,60.5C 26.7743,64.402 29.7743,64.0686 32.5,59.5C 33.339,58.3588 34.0057,57.0255 34.5,55.5C 33.4843,47.987 32.1509,40.6537 30.5,33.5C 28.6798,26.285 27.3465,18.9517 26.5,11.5C 27.1667,11.5 27.5,11.1667 27.5,10.5 Z"/></g>
<g><path style="opacity:1" fill="#d9be84" d="M 25.5,11.5 C 25.8333,11.5 26.1667,11.5 26.5,11.5C 27.3465,18.9517 28.6798,26.285 30.5,33.5C 29.453,31.8494 28.2863,30.1828 27,28.5C 26.0979,23.7057 25.2645,19.039 24.5,14.5C 24.5569,13.391 24.8902,12.391 25.5,11.5 Z"/></g>
<g><path style="opacity:1" fill="#21404e" d="M 52.5,5.5 C 52.5,6.16667 52.1667,6.5 51.5,6.5C 46.5147,4.49448 43.1814,5.99448 41.5,11C 42.6455,25.7516 44.3122,40.5849 46.5,55.5C 47.1667,56.1667 47.8333,56.8333 48.5,57.5C 47.609,58.1098 46.609,58.4431 45.5,58.5C 44.5463,46.9855 42.7129,35.6521 40,24.5C 39.3333,18.8333 39.3333,13.1667 40,7.5C 43.72,3.10057 47.8867,2.43391 52.5,5.5 Z"/></g>
<g><path style="opacity:1" fill="#1da6d4" d="M 55.5,36.5 C 54.5075,42.0839 53.8408,47.7506 53.5,53.5C 52.5,53.5 51.5,53.5 50.5,53.5C 48.7932,42.5869 48.1266,31.5869 48.5,20.5C 47.325,20.281 46.325,20.6143 45.5,21.5C 46.6103,26.1113 46.7769,30.778 46,35.5C 44.349,33.2456 44.1823,30.9122 45.5,28.5C 43.0934,24.4039 43.0934,20.4039 45.5,16.5C 43.2895,10.5479 45.2895,8.04786 51.5,9C 51.4585,17.0471 51.6252,25.2137 52,33.5C 52.7202,35.0557 53.8868,36.0557 55.5,36.5 Z"/></g>
<g><path style="opacity:1" fill="#81353c" d="M 70.5,19.5 C 70.3284,20.4916 70.6618,21.1583 71.5,21.5C 72.1783,28.4301 70.8449,34.7634 67.5,40.5C 67.7038,37.4824 68.0371,34.4824 68.5,31.5C 68.5387,27.2671 69.2053,23.2671 70.5,19.5 Z"/></g>
<g><path style="opacity:1" fill="#b2773c" d="M 22.5,33.5 C 22.1246,39.792 22.7913,45.9587 24.5,52C 23.7665,53.7659 23.4332,55.5992 23.5,57.5C 22.8826,57.3893 22.3826,57.056 22,56.5C 21.1901,48.5018 20.8567,40.5018 21,32.5C 21.3826,33.056 21.8826,33.3893 22.5,33.5 Z"/></g>
<g><path style="opacity:1" fill="#d5c179" d="M 30.5,33.5 C 32.1509,40.6537 33.4843,47.987 34.5,55.5C 34.0057,57.0255 33.339,58.3588 32.5,59.5C 32.0522,50.8142 31.3855,42.1475 30.5,33.5 Z"/></g>
<g><path style="opacity:1" fill="#3b6076" d="M 52.5,5.5 C 58.6519,7.12911 61.3185,11.1291 60.5,17.5C 57.8528,30.678 56.1861,44.0113 55.5,57.5C 53.1667,57.5 50.8333,57.5 48.5,57.5C 47.8333,56.8333 47.1667,56.1667 46.5,55.5C 48.7925,55.2436 50.9592,55.5769 53,56.5C 53.4828,55.552 53.6495,54.552 53.5,53.5C 53.8408,47.7506 54.5075,42.0839 55.5,36.5C 56.3754,32.2206 57.2088,27.8873 58,23.5C 60.3427,15.825 58.176,10.1584 51.5,6.5C 52.1667,6.5 52.5,6.16667 52.5,5.5 Z"/></g>
<g><path style="opacity:1" fill="#dfba6e" d="M 23.5,31.5 C 24.9545,41.1038 25.6211,50.7705 25.5,60.5C 27.861,60.3259 30.1944,59.9926 32.5,59.5C 29.7743,64.0686 26.7743,64.402 23.5,60.5C 23.5,59.5 23.5,58.5 23.5,57.5C 23.4332,55.5992 23.7665,53.7659 24.5,52C 22.7913,45.9587 22.1246,39.792 22.5,33.5C 22.3284,32.5084 22.6618,31.8417 23.5,31.5 Z"/></g>
<g><path style="opacity:1" fill="#6d4b3d" d="M 17.5,12.5 C 18.7868,13.8714 19.4535,15.7047 19.5,18C 18.9595,22.4887 18.6262,26.9887 18.5,31.5C 18.3546,36.5625 17.688,41.5625 16.5,46.5C 16.9738,51.0413 17.9738,55.3746 19.5,59.5C 20.791,59.2627 21.791,59.596 22.5,60.5C 22.1583,61.3382 21.4916,61.6716 20.5,61.5C 18.2918,60.1064 16.7918,58.1064 16,55.5C 15.9772,41.1547 16.4772,26.8214 17.5,12.5 Z"/></g>
<g><path style="opacity:1" fill="#ecc75f" d="M 24.5,14.5 C 25.2645,19.039 26.0979,23.7057 27,28.5C 28.2863,30.1828 29.453,31.8494 30.5,33.5C 31.3855,42.1475 32.0522,50.8142 32.5,59.5C 30.1944,59.9926 27.861,60.3259 25.5,60.5C 25.6211,50.7705 24.9545,41.1038 23.5,31.5C 23.5,26.5 23.5,21.5 23.5,16.5C 23.3284,15.5084 23.6618,14.8417 24.5,14.5 Z"/></g>
<g><path style="opacity:1" fill="#da9b6d" d="M 23.5,16.5 C 23.5,21.5 23.5,26.5 23.5,31.5C 22.6618,31.8417 22.3284,32.5084 22.5,33.5C 21.8826,33.3893 21.3826,33.056 21,32.5C 20.8567,40.5018 21.1901,48.5018 22,56.5C 22.3826,57.056 22.8826,57.3893 23.5,57.5C 23.5,58.5 23.5,59.5 23.5,60.5C 23.1667,60.5 22.8333,60.5 22.5,60.5C 21.791,59.596 20.791,59.2627 19.5,59.5C 17.9738,55.3746 16.9738,51.0413 16.5,46.5C 17.688,41.5625 18.3546,36.5625 18.5,31.5C 19.1174,31.3893 19.6174,31.056 20,30.5C 21.1989,25.7046 22.3655,21.0379 23.5,16.5 Z"/></g>
<g><path style="opacity:1" fill="#d34d53" d="M 79.5,10.5 C 80.8752,23.2928 81.8752,36.1261 82.5,49C 82.3279,52.6816 81.6613,56.1816 80.5,59.5C 80.2178,60.7777 79.5511,61.7777 78.5,62.5C 76.2646,62.7947 74.2646,62.4614 72.5,61.5C 74.861,61.3259 77.1944,60.9926 79.5,60.5C 79.5,59.5 79.5,58.5 79.5,57.5C 77.901,57.7678 76.5676,57.4345 75.5,56.5C 76.8222,53.2319 77.4888,49.5652 77.5,45.5C 77.5147,35.403 76.848,28.7363 75.5,25.5C 73.9743,26.1047 72.9743,27.2714 72.5,29C 73.3081,29.3076 73.9747,29.8076 74.5,30.5C 72.2828,33.0684 71.1161,36.0684 71,39.5C 70.096,45.1354 69.596,50.802 69.5,56.5C 67.5698,52.6273 66.9031,48.294 67.5,43.5C 67.5,42.5 67.5,41.5 67.5,40.5C 70.8449,34.7634 72.1783,28.4301 71.5,21.5C 71.8726,18.4261 72.5392,15.4261 73.5,12.5C 75.5,11.8333 77.5,11.1667 79.5,10.5 Z"/></g>
<g><path style="opacity:1" fill="#9a2323" d="M 75.5,56.5 C 75.5,46.1667 75.5,35.8333 75.5,25.5C 76.848,28.7363 77.5147,35.403 77.5,45.5C 77.4888,49.5652 76.8222,53.2319 75.5,56.5 Z"/></g>
<g><path style="opacity:1" fill="#eb4d58" d="M 75.5,25.5 C 75.5,35.8333 75.5,46.1667 75.5,56.5C 76.5676,57.4345 77.901,57.7678 79.5,57.5C 79.5,58.5 79.5,59.5 79.5,60.5C 77.1944,60.9926 74.861,61.3259 72.5,61.5C 71.2632,60.0351 70.2632,58.3684 69.5,56.5C 69.596,50.802 70.096,45.1354 71,39.5C 71.1161,36.0684 72.2828,33.0684 74.5,30.5C 73.9747,29.8076 73.3081,29.3076 72.5,29C 72.9743,27.2714 73.9743,26.1047 75.5,25.5 Z"/></g>
<g><path style="opacity:1" fill="#753835" d="M 82.5,21.5 C 83.5785,29.678 84.5785,38.0114 85.5,46.5C 85.23,51.134 84.23,55.4673 82.5,59.5C 81.8333,59.5 81.1667,59.5 80.5,59.5C 81.6613,56.1816 82.3279,52.6816 82.5,49C 81.8752,36.1261 80.8752,23.2928 79.5,10.5C 80.1174,10.3893 80.6174,10.056 81,9.5C 81.1762,13.6877 81.6762,17.6877 82.5,21.5 Z"/></g>
<g><path style="opacity:1" fill="#613734" d="M 68.5,31.5 C 68.0371,34.4824 67.7038,37.4824 67.5,40.5C 67.5,41.5 67.5,42.5 67.5,43.5C 66.1958,48.37 66.1958,53.37 67.5,58.5C 70.0656,63.2751 73.7322,64.6085 78.5,62.5C 79.5511,61.7777 80.2178,60.7777 80.5,59.5C 81.1667,59.5 81.8333,59.5 82.5,59.5C 80.3429,65.2453 76.3429,67.2453 70.5,65.5C 69.2392,63.8443 67.9059,62.1777 66.5,60.5C 63.4115,50.4257 64.0782,40.759 68.5,31.5 Z"/></g>
<g><path style="opacity:1" fill="#a3494b" d="M 67.5,43.5 C 66.9031,48.294 67.5698,52.6273 69.5,56.5C 70.2632,58.3684 71.2632,60.0351 72.5,61.5C 74.2646,62.4614 76.2646,62.7947 78.5,62.5C 73.7322,64.6085 70.0656,63.2751 67.5,58.5C 66.1958,53.37 66.1958,48.37 67.5,43.5 Z"/></g>
<g><path style="opacity:1" fill="#847863" d="M 48.5,57.5 C 50.8333,57.5 53.1667,57.5 55.5,57.5C 56.1993,59.556 57.1993,61.556 58.5,63.5C 52.5252,65.8909 48.1919,64.2243 45.5,58.5C 46.609,58.4431 47.609,58.1098 48.5,57.5 Z"/></g>
<g><path style="opacity:1" fill="#36566a" d="M 71.5,71.5 C 67.241,71.1508 62.9077,71.8175 58.5,73.5C 53.9589,73.8426 49.6256,73.8426 45.5,73.5C 48.0098,73.0733 50.3432,72.4067 52.5,71.5C 58.8901,70.3631 65.2234,70.3631 71.5,71.5 Z"/></g>
<g><path style="opacity:1" fill="#968873" d="M 20.5,75.5 C 21.6287,78.4261 21.6287,81.7594 20.5,85.5C 21.6016,86.1757 22.6016,86.8423 23.5,87.5C 20.3484,88.0414 17.8484,87.0414 16,84.5C 14.6326,80.3004 14.1326,75.9671 14.5,71.5C 16.8798,72.2534 18.8798,73.5868 20.5,75.5 Z"/></g>
<g><path style="opacity:1" fill="#395d70" d="M 73.5,72.5 C 85.0918,74.6613 87.4251,80.3279 80.5,89.5C 75.4861,91.3363 70.3195,92.6697 65,93.5C 56.0235,91.0668 46.8568,90.0668 37.5,90.5C 33.138,88.6562 28.4714,87.6562 23.5,87.5C 22.6016,86.8423 21.6016,86.1757 20.5,85.5C 21.6287,81.7594 21.6287,78.4261 20.5,75.5C 28.1773,76.7575 35.8439,76.4242 43.5,74.5C 43.9382,74.4346 44.2716,74.6012 44.5,75C 37.8737,77.9746 30.8737,79.1412 23.5,78.5C 23.2436,80.7925 23.5769,82.9592 24.5,85C 35.6423,87.7262 46.9757,89.2262 58.5,89.5C 64.1042,90.2735 69.7709,90.1068 75.5,89C 80.0438,87.4009 82.2105,84.2342 82,79.5C 79.3311,76.7785 76.4978,74.4452 73.5,72.5 Z"/></g>
<g><path style="opacity:1" fill="#1f89b4" d="M 43.5,74.5 C 43.8417,73.6618 44.5084,73.3284 45.5,73.5C 49.6256,73.8426 53.9589,73.8426 58.5,73.5C 56.337,74.4691 54.0037,75.3024 51.5,76C 55.8897,76.7722 60.223,76.6055 64.5,75.5C 67.3988,77.3159 70.3988,77.6493 73.5,76.5C 75.1667,77.3333 76.8333,78.1667 78.5,79C 79.8333,79.6667 79.8333,80.3333 78.5,81C 61.88,80.3945 45.38,80.5612 29,81.5C 27.951,79.8934 26.451,79.2267 24.5,79.5C 24.3761,83.7485 26.2094,85.0818 30,83.5C 31.8928,84.1963 33.7262,85.0296 35.5,86C 43.4278,86.3586 51.0945,87.5253 58.5,89.5C 46.9757,89.2262 35.6423,87.7262 24.5,85C 23.5769,82.9592 23.2436,80.7925 23.5,78.5C 30.8737,79.1412 37.8737,77.9746 44.5,75C 44.2716,74.6012 43.9382,74.4346 43.5,74.5 Z"/></g>
<g><path style="opacity:1" fill="#1fa5d8" d="M 71.5,71.5 C 72.4916,71.3284 73.1583,71.6618 73.5,72.5C 76.4978,74.4452 79.3311,76.7785 82,79.5C 82.2105,84.2342 80.0438,87.4009 75.5,89C 69.7709,90.1068 64.1042,90.2735 58.5,89.5C 51.0945,87.5253 43.4278,86.3586 35.5,86C 33.7262,85.0296 31.8928,84.1963 30,83.5C 26.2094,85.0818 24.3761,83.7485 24.5,79.5C 26.451,79.2267 27.951,79.8934 29,81.5C 45.38,80.5612 61.88,80.3945 78.5,81C 79.8333,80.3333 79.8333,79.6667 78.5,79C 76.8333,78.1667 75.1667,77.3333 73.5,76.5C 70.3988,77.6493 67.3988,77.3159 64.5,75.5C 60.223,76.6055 55.8897,76.7722 51.5,76C 54.0037,75.3024 56.337,74.4691 58.5,73.5C 62.9077,71.8175 67.241,71.1508 71.5,71.5 Z"/></g>
<g><path style="opacity:1" fill="#6d3a37" d="M 25.5,97.5 C 32.6726,100.609 35.6726,106.109 34.5,114C 33.1954,124.967 31.1954,135.8 28.5,146.5C 27.8365,148.042 27.1698,149.709 26.5,151.5C 25.7025,151.043 25.3691,150.376 25.5,149.5C 27.0221,140.124 28.6888,130.791 30.5,121.5C 31.2216,121.082 31.7216,120.416 32,119.5C 33.7189,112.304 32.2189,105.971 27.5,100.5C 25.6837,99.2651 24.017,99.2651 22.5,100.5C 18.8098,101.255 16.9764,103.588 17,107.5C 16.2365,121.932 17.0698,136.266 19.5,150.5C 19.719,151.675 19.3857,152.675 18.5,153.5C 17.8933,153.376 17.56,153.043 17.5,152.5C 17.6529,144.36 16.8195,136.36 15,128.5C 14.3333,121.5 14.3333,114.5 15,107.5C 15.7191,101.282 19.2191,97.9482 25.5,97.5 Z"/></g>
<g><path style="opacity:1" fill="#543b2b" d="M 74.5,98.5 C 74.5,98.8333 74.5,99.1667 74.5,99.5C 74.5,99.8333 74.5,100.167 74.5,100.5C 73.1667,100.5 71.8333,100.5 70.5,100.5C 69.8333,100.5 69.1667,100.5 68.5,100.5C 67.1986,101.64 66.0319,102.973 65,104.5C 64.6411,109.859 64.6411,115.193 65,120.5C 64.7679,119.263 64.2679,118.263 63.5,117.5C 62.2852,112.485 62.2852,107.485 63.5,102.5C 66.3166,98.9925 69.9832,97.6591 74.5,98.5 Z"/></g>
<g><path style="opacity:1" fill="#9b3d42" d="M 22.5,100.5 C 24.017,99.2651 25.6837,99.2651 27.5,100.5C 32.2189,105.971 33.7189,112.304 32,119.5C 31.7216,120.416 31.2216,121.082 30.5,121.5C 30.6659,116.489 30.4993,111.489 30,106.5C 29.7679,105.263 29.2679,104.263 28.5,103.5C 27.5,102.833 26.5,102.167 25.5,101.5C 24.791,100.596 23.791,100.263 22.5,100.5 Z"/></g>
<g><path style="opacity:1" fill="#f4f4f3" d="M 80.5,89.5 C 79.8505,91.4352 79.5172,93.4352 79.5,95.5C 80.5,95.5 81.5,95.5 82.5,95.5C 82.7778,97.3464 82.1112,98.6798 80.5,99.5C 78.5914,98.6518 76.5914,98.3184 74.5,98.5C 69.9832,97.6591 66.3166,98.9925 63.5,102.5C 62.2852,107.485 62.2852,112.485 63.5,117.5C 64.7043,123.985 66.371,130.319 68.5,136.5C 67.2819,139.617 66.1153,142.617 65,145.5C 64.8295,143.285 64.1628,141.285 63,139.5C 61.9711,143.573 61.1378,147.573 60.5,151.5C 60.8489,142.429 59.3489,133.762 56,125.5C 55.1697,120.192 54.6697,114.859 54.5,109.5C 54.7678,107.901 54.4345,106.568 53.5,105.5C 53.2132,102.516 51.5465,101.183 48.5,101.5C 46.1617,99.9605 43.4951,99.2938 40.5,99.5C 41.7593,102.366 42.7593,105.366 43.5,108.5C 42.8296,118.204 41.8296,127.87 40.5,137.5C 39.5655,138.568 39.2322,139.901 39.5,141.5C 38.8668,146.933 39.8668,151.933 42.5,156.5C 41.2921,155.766 39.9587,155.433 38.5,155.5C 39.4098,150.666 38.0765,146.666 34.5,143.5C 33.5713,144.689 33.238,146.022 33.5,147.5C 32.1779,147.67 31.0113,147.337 30,146.5C 29.8214,149.553 29.3214,152.553 28.5,155.5C 27.3777,156.63 26.0443,157.297 24.5,157.5C 27.5472,154.514 28.8805,150.848 28.5,146.5C 31.1954,135.8 33.1954,124.967 34.5,114C 35.6726,106.109 32.6726,100.609 25.5,97.5C 25.4701,96.5028 25.9701,95.8361 27,95.5C 28.584,95.9884 29.7506,96.9884 30.5,98.5C 31.5779,96.5253 31.2446,94.692 29.5,93C 32.0977,93.4217 34.7644,93.4217 37.5,93C 35.7444,92.7978 34.0777,92.2978 32.5,91.5C 34.287,91.0573 35.9537,90.7239 37.5,90.5C 46.8568,90.0668 56.0235,91.0668 65,93.5C 70.3195,92.6697 75.4861,91.3363 80.5,89.5 Z"/></g>
<g><path style="opacity:1" fill="#8f795c" d="M 48.5,101.5 C 51.5465,101.183 53.2132,102.516 53.5,105.5C 50.1362,107.213 47.1362,106.713 44.5,104C 45.6934,102.905 47.0267,102.072 48.5,101.5 Z"/></g>
<g><path style="opacity:1" fill="#695e52" d="M 48.5,101.5 C 47.0267,102.072 45.6934,102.905 44.5,104C 47.1362,106.713 50.1362,107.213 53.5,105.5C 54.4345,106.568 54.7678,107.901 54.5,109.5C 53.8423,108.602 53.1757,107.602 52.5,106.5C 49.4701,107.169 46.4701,107.835 43.5,108.5C 42.7593,105.366 41.7593,102.366 40.5,99.5C 43.4951,99.2938 46.1617,99.9605 48.5,101.5 Z"/></g>
<g><path style="opacity:1" fill="#e9c05f" d="M 68.5,100.5 C 69.1667,100.5 69.8333,100.5 70.5,100.5C 73.9709,101.934 76.8043,104.267 79,107.5C 79.5281,108.816 79.0281,109.483 77.5,109.5C 77.6309,108.624 77.2975,107.957 76.5,107.5C 75.5713,108.689 75.238,110.022 75.5,111.5C 73.1425,113.321 72.8092,115.655 74.5,118.5C 74.0302,119.463 73.3635,119.463 72.5,118.5C 71.9085,115.917 71.2418,115.917 70.5,118.5C 71.0463,120.135 71.3796,121.801 71.5,123.5C 70.1301,123.144 69.1301,122.31 68.5,121C 68.0463,118.97 67.3796,117.137 66.5,115.5C 66.0935,110.26 66.7602,105.26 68.5,100.5 Z"/></g>
<g><path style="opacity:1" fill="#ad9034" d="M 77.5,109.5 C 77.9284,115.176 78.0951,120.843 78,126.5C 76.6448,121.667 75.8115,116.667 75.5,111.5C 75.238,110.022 75.5713,108.689 76.5,107.5C 77.2975,107.957 77.6309,108.624 77.5,109.5 Z"/></g>
<g><path style="opacity:1" fill="#3297bf" d="M 45.5,157.5 C 44.5774,155.241 43.2441,153.241 41.5,151.5C 40.9889,147.998 40.3222,144.665 39.5,141.5C 39.2322,139.901 39.5655,138.568 40.5,137.5C 40.369,138.239 40.5357,138.906 41,139.5C 43.4789,129.314 44.9789,118.981 45.5,108.5C 47.8333,108.5 50.1667,108.5 52.5,108.5C 52.8126,116.627 53.9793,124.627 56,132.5C 56.8889,139.826 57.2223,147.159 57,154.5C 53.9076,158.405 50.0742,159.405 45.5,157.5 Z"/></g>
<g><path style="opacity:1" fill="#e94753" d="M 25.5,101.5 C 26.5,102.167 27.5,102.833 28.5,103.5C 30.077,114.527 28.7437,125.194 24.5,135.5C 23.6679,125.851 23.1679,116.184 23,106.5C 20.9588,103.623 21.7921,101.957 25.5,101.5 Z"/></g>
<g><path style="opacity:1" fill="#88654f" d="M 68.5,100.5 C 66.7602,105.26 66.0935,110.26 66.5,115.5C 67.5324,123.995 69.1991,132.329 71.5,140.5C 70.5489,141.919 70.2155,143.585 70.5,145.5C 69.3428,142.727 68.6761,139.727 68.5,136.5C 66.371,130.319 64.7043,123.985 63.5,117.5C 64.2679,118.263 64.7679,119.263 65,120.5C 64.6411,115.193 64.6411,109.859 65,104.5C 66.0319,102.973 67.1986,101.64 68.5,100.5 Z"/></g>
<g><path style="opacity:1" fill="#cc454b" d="M 22.5,100.5 C 23.791,100.263 24.791,100.596 25.5,101.5C 21.7921,101.957 20.9588,103.623 23,106.5C 23.1679,116.184 23.6679,125.851 24.5,135.5C 28.7437,125.194 30.077,114.527 28.5,103.5C 29.2679,104.263 29.7679,105.263 30,106.5C 30.4993,111.489 30.6659,116.489 30.5,121.5C 28.6888,130.791 27.0221,140.124 25.5,149.5C 23.7508,151.531 21.7508,151.865 19.5,150.5C 17.0698,136.266 16.2365,121.932 17,107.5C 16.9764,103.588 18.8098,101.255 22.5,100.5 Z"/></g>
<g><path style="opacity:1" fill="#9e752b" d="M 72.5,118.5 C 73.0468,125.515 73.7135,132.515 74.5,139.5C 73.8826,139.389 73.3826,139.056 73,138.5C 72.3893,133.504 71.8893,128.504 71.5,123.5C 71.3796,121.801 71.0463,120.135 70.5,118.5C 71.2418,115.917 71.9085,115.917 72.5,118.5 Z"/></g>
<g><path style="opacity:1" fill="#2a5168" d="M 54.5,109.5 C 54.6697,114.859 55.1697,120.192 56,125.5C 59.3489,133.762 60.8489,142.429 60.5,151.5C 59.2564,154.982 57.2564,157.982 54.5,160.5C 52.1432,160.663 49.8098,160.497 47.5,160C 46.6195,159.292 45.9528,158.458 45.5,157.5C 50.0742,159.405 53.9076,158.405 57,154.5C 57.2223,147.159 56.8889,139.826 56,132.5C 53.9793,124.627 52.8126,116.627 52.5,108.5C 50.1667,108.5 47.8333,108.5 45.5,108.5C 44.9789,118.981 43.4789,129.314 41,139.5C 40.5357,138.906 40.369,138.239 40.5,137.5C 41.8296,127.87 42.8296,118.204 43.5,108.5C 46.4701,107.835 49.4701,107.169 52.5,106.5C 53.1757,107.602 53.8423,108.602 54.5,109.5 Z"/></g>
<g><path style="opacity:1" fill="#726747" d="M 74.5,99.5 C 82.5024,101.983 85.8358,107.483 84.5,116C 82.7463,127.754 82.0797,139.587 82.5,151.5C 81.8333,151.5 81.1667,151.5 80.5,151.5C 80.5,144.833 80.5,138.167 80.5,131.5C 81.6923,124.551 82.1923,117.551 82,110.5C 81.6401,108.392 80.9734,106.392 80,104.5C 77.9847,103.303 76.1513,101.97 74.5,100.5C 74.5,100.167 74.5,99.8333 74.5,99.5 Z"/></g>
<g><path style="opacity:1" fill="#20a5da" d="M 47.5,147.5 C 47.5874,142.463 47.254,137.463 46.5,132.5C 46.5,124.833 46.5,117.167 46.5,109.5C 48.1667,109.5 49.8333,109.5 51.5,109.5C 51.5578,116.86 52.0578,124.194 53,131.5C 53.6667,132.167 54.3333,132.833 55,133.5C 55.2405,138.705 55.7405,143.872 56.5,149C 55.3114,150.895 54.3114,152.895 53.5,155C 51.567,155.251 49.7337,155.751 48,156.5C 48.1141,153.314 47.9474,150.314 47.5,147.5 Z"/></g>
<g><path style="opacity:1" fill="#eed77c" d="M 70.5,100.5 C 71.8333,100.5 73.1667,100.5 74.5,100.5C 76.1513,101.97 77.9847,103.303 80,104.5C 80.9734,106.392 81.6401,108.392 82,110.5C 82.1923,117.551 81.6923,124.551 80.5,131.5C 79.5098,137.645 79.1765,143.978 79.5,150.5C 78.5,150.5 77.5,150.5 76.5,150.5C 76.1916,146.64 75.5249,142.974 74.5,139.5C 73.7135,132.515 73.0468,125.515 72.5,118.5C 73.3635,119.463 74.0302,119.463 74.5,118.5C 72.8092,115.655 73.1425,113.321 75.5,111.5C 75.8115,116.667 76.6448,121.667 78,126.5C 78.0951,120.843 77.9284,115.176 77.5,109.5C 79.0281,109.483 79.5281,108.816 79,107.5C 76.8043,104.267 73.9709,101.934 70.5,100.5 Z"/></g>
<g><path style="opacity:1" fill="#196791" d="M 46.5,132.5 C 47.254,137.463 47.5874,142.463 47.5,147.5C 47.719,148.675 47.3857,149.675 46.5,150.5C 45.1834,144.346 45.1834,138.346 46.5,132.5 Z"/></g>
<g><path style="opacity:1" fill="#cfaa7b" d="M 66.5,115.5 C 67.3796,117.137 68.0463,118.97 68.5,121C 69.1301,122.31 70.1301,123.144 71.5,123.5C 71.8893,128.504 72.3893,133.504 73,138.5C 73.3826,139.056 73.8826,139.389 74.5,139.5C 75.5249,142.974 76.1916,146.64 76.5,150.5C 77.5,150.5 78.5,150.5 79.5,150.5C 79.1765,143.978 79.5098,137.645 80.5,131.5C 80.5,138.167 80.5,144.833 80.5,151.5C 77.8333,151.5 75.1667,151.5 72.5,151.5C 72.756,147.731 72.4227,144.064 71.5,140.5C 69.1991,132.329 67.5324,123.995 66.5,115.5 Z"/></g>
<g><path style="opacity:1" fill="#1d4350" d="M 39.5,141.5 C 40.3222,144.665 40.9889,147.998 41.5,151.5C 43.2441,153.241 44.5774,155.241 45.5,157.5C 44.391,157.443 43.391,157.11 42.5,156.5C 39.8668,151.933 38.8668,146.933 39.5,141.5 Z"/></g>
<g><path style="opacity:1" fill="#58413a" d="M 71.5,140.5 C 72.4227,144.064 72.756,147.731 72.5,151.5C 75.1667,151.5 77.8333,151.5 80.5,151.5C 81.1667,151.5 81.8333,151.5 82.5,151.5C 82.9617,153.757 83.9617,155.757 85.5,157.5C 75.4958,159.833 70.4958,155.833 70.5,145.5C 70.2155,143.585 70.5489,141.919 71.5,140.5 Z"/></g>
<g><path style="opacity:1" fill="#89705c" d="M 28.5,146.5 C 28.8805,150.848 27.5472,154.514 24.5,157.5C 20.5115,158.698 16.5115,158.698 12.5,157.5C 13.8545,155.479 15.5212,153.812 17.5,152.5C 17.56,153.043 17.8933,153.376 18.5,153.5C 19.3857,152.675 19.719,151.675 19.5,150.5C 21.7508,151.865 23.7508,151.531 25.5,149.5C 25.3691,150.376 25.7025,151.043 26.5,151.5C 27.1698,149.709 27.8365,148.042 28.5,146.5 Z"/></g>
</svg>
