<?xml version="1.0" encoding="UTF-8"?>
<!DOCTYPE svg PUBLIC "-//W3C//DTD SVG 1.1//EN" "http://www.w3.org/Graphics/SVG/1.1/DTD/svg11.dtd">
<svg xmlns="http://www.w3.org/2000/svg" version="1.1" width="100px" height="165px" style="shape-rendering:geometricPrecision; text-rendering:geometricPrecision; image-rendering:optimizeQuality; fill-rule:evenodd; clip-rule:evenodd" xmlns:xlink="http://www.w3.org/1999/xlink">
<g><path style="opacity:1" fill="#fafaf9" d="M -0.5,-0.5 C 32.8333,-0.5 66.1667,-0.5 99.5,-0.5C 99.5,54.5 99.5,109.5 99.5,164.5C 66.1667,164.5 32.8333,164.5 -0.5,164.5C -0.5,109.5 -0.5,54.5 -0.5,-0.5 Z"/></g>
<g><path style="opacity:1" fill="#7d595d" d="M 78.5,5.5 C 75.1501,5.33499 71.8168,5.50166 68.5,6C 65.894,7.65013 65.894,9.15013 68.5,10.5C 68.5,10.8333 68.5,11.1667 68.5,11.5C 68.1667,11.5 67.8333,11.5 67.5,11.5C 66.8333,10.1667 66.1667,10.1667 65.5,11.5C 62.5456,8.85604 62.879,6.68938 66.5,5C 70.6888,4.18806 74.6888,4.35472 78.5,5.5 Z"/></g>
<g><path style="opacity:1" fill="#966666" d="M 16.5,5.5 C 21.8135,4.05108 27.1469,4.38442 32.5,6.5C 33.1272,7.41683 33.4606,8.41683 33.5,9.5C 32.8333,10.1667 32.1667,10.8333 31.5,11.5C 31.5,9.83333 31.5,8.16667 31.5,6.5C 26.8333,6.5 22.1667,6.5 17.5,6.5C 17.5,5.83333 17.1667,5.5 16.5,5.5 Z"/></g>
<g><path style="opacity:1" fill="#84323d" d="M 78.5,5.5 C 78.8333,5.5 79.1667,5.5 79.5,5.5C 79.5,6.16667 79.5,6.83333 79.5,7.5C 76.4816,7.33537 73.4816,7.50204 70.5,8C 69.7476,8.67076 69.4142,9.5041 69.5,10.5C 69.1667,10.5 68.8333,10.5 68.5,10.5C 65.894,9.15013 65.894,7.65013 68.5,6C 71.8168,5.50166 75.1501,5.33499 78.5,5.5 Z"/></g>
<g><path style="opacity:1" fill="#d85b63" d="M 79.5,7.5 C 79.5,8.16667 79.5,8.83333 79.5,9.5C 76.272,10.4137 72.9387,10.7471 69.5,10.5C 69.4142,9.5041 69.7476,8.67076 70.5,8C 73.4816,7.50204 76.4816,7.33537 79.5,7.5 Z"/></g>
<g><path style="opacity:1" fill="#8a6356" d="M 79.5,5.5 C 80.5,5.5 81.5,5.5 82.5,5.5C 82.8551,9.0774 81.8551,12.0774 79.5,14.5C 78.8333,15.1667 78.1667,15.8333 77.5,16.5C 77.5,15.1667 77.5,13.8333 77.5,12.5C 79.0481,12.1788 79.7148,11.1788 79.5,9.5C 79.5,8.83333 79.5,8.16667 79.5,7.5C 79.5,6.83333 79.5,6.16667 79.5,5.5 Z"/></g>
<g><path style="opacity:1" fill="#943f3b" d="M 17.5,6.5 C 22.1667,6.5 26.8333,6.5 31.5,6.5C 31.5,8.16667 31.5,9.83333 31.5,11.5C 31.1667,11.5 30.8333,11.5 30.5,11.5C 27.1043,11.3671 26.7709,10.3671 29.5,8.5C 26.2913,7.21263 23.1247,7.21263 20,8.5C 19.805,9.8193 19.9717,11.1526 20.5,12.5C 19.8333,12.5 19.1667,12.5 18.5,12.5C 18.4906,10.3392 17.8239,9.00591 16.5,8.5C 16.5427,7.58362 16.8761,6.91695 17.5,6.5 Z"/></g>
<g><path style="opacity:1" fill="#c5644d" d="M 30.5,11.5 C 27.3752,12.4794 24.0419,12.8128 20.5,12.5C 19.9717,11.1526 19.805,9.8193 20,8.5C 23.1247,7.21263 26.2913,7.21263 29.5,8.5C 26.7709,10.3671 27.1043,11.3671 30.5,11.5 Z"/></g>
<g><path style="opacity:1" fill="#9e5136" d="M 79.5,9.5 C 79.7148,11.1788 79.0481,12.1788 77.5,12.5C 75.139,12.3259 72.8056,11.9926 70.5,11.5C 70.4165,16.6397 69.7498,16.6397 68.5,11.5C 68.5,11.1667 68.5,10.8333 68.5,10.5C 68.8333,10.5 69.1667,10.5 69.5,10.5C 72.9387,10.7471 76.272,10.4137 79.5,9.5 Z"/></g>
<g><path style="opacity:1" fill="#6b5449" d="M 16.5,5.5 C 17.1667,5.5 17.5,5.83333 17.5,6.5C 16.8761,6.91695 16.5427,7.58362 16.5,8.5C 17.8239,9.00591 18.4906,10.3392 18.5,12.5C 17.2584,14.3888 17.2584,16.3888 18.5,18.5C 17.8333,18.5 17.1667,18.5 16.5,18.5C 16.0037,15.0207 15.0037,11.6873 13.5,8.5C 14.1882,7.14507 15.1882,6.14507 16.5,5.5 Z"/></g>
<g><path style="opacity:1" fill="#b39e6c" d="M 30.5,11.5 C 30.8333,11.5 31.1667,11.5 31.5,11.5C 31.4828,13.5648 31.1495,15.5648 30.5,17.5C 29.213,16.2317 28.213,16.565 27.5,18.5C 24.4692,19.825 21.4692,19.825 18.5,18.5C 17.2584,16.3888 17.2584,14.3888 18.5,12.5C 19.1667,12.5 19.8333,12.5 20.5,12.5C 24.0419,12.8128 27.3752,12.4794 30.5,11.5 Z"/></g>
<g><path style="opacity:1" fill="#e8c969" d="M 21.5,13.5 C 23.5,13.5 25.5,13.5 27.5,13.5C 27.5,14.8333 27.5,16.1667 27.5,17.5C 24.7531,17.8134 22.0865,17.48 19.5,16.5C 20.1925,15.4822 20.8592,14.4822 21.5,13.5 Z"/></g>
<g><path style="opacity:1" fill="#d4bb7d" d="M 67.5,11.5 C 67.8333,11.5 68.1667,11.5 68.5,11.5C 69.7498,16.6397 70.4165,16.6397 70.5,11.5C 72.8056,11.9926 75.139,12.3259 77.5,12.5C 77.5,13.8333 77.5,15.1667 77.5,16.5C 71.079,21.7993 67.7457,20.1326 67.5,11.5 Z"/></g>
<g><path style="opacity:1" fill="#4b5247" d="M 67.5,11.5 C 67.7457,20.1326 71.079,21.7993 77.5,16.5C 78.1667,15.8333 78.8333,15.1667 79.5,14.5C 79.5,15.8333 79.5,17.1667 79.5,18.5C 77.9522,19.7943 75.9522,20.4609 73.5,20.5C 71.5,20.3333 69.5,20.1667 67.5,20C 66.9011,18.3775 66.2344,16.8775 65.5,15.5C 65.5,14.1667 65.5,12.8333 65.5,11.5C 66.1667,10.1667 66.8333,10.1667 67.5,11.5 Z"/></g>
<g><path style="opacity:1" fill="#3b5866" d="M 30.5,17.5 C 31.1047,19.0257 32.2714,20.0257 34,20.5C 35.2451,24.7647 34.0785,28.098 30.5,30.5C 30.0618,30.5654 29.7284,30.3988 29.5,30C 35.7598,24.0618 34.7598,20.8952 26.5,20.5C 26.5,23.8333 26.5,27.1667 26.5,30.5C 25.8333,30.8333 25.1667,31.1667 24.5,31.5C 24.5,27.8333 24.5,24.1667 24.5,20.5C 22.1667,20.5 19.8333,20.5 17.5,20.5C 17.67,21.8221 17.3366,22.9887 16.5,24C 17.9517,26.666 19.6183,29.166 21.5,31.5C 20.8333,31.5 20.5,31.8333 20.5,32.5C 14.2006,30.9049 11.7006,26.9049 13,20.5C 14.3024,19.9152 15.469,19.2485 16.5,18.5C 17.1667,18.5 17.8333,18.5 18.5,18.5C 21.4692,19.825 24.4692,19.825 27.5,18.5C 28.213,16.565 29.213,16.2317 30.5,17.5 Z"/></g>
<g><path style="opacity:1" fill="#427b90" d="M 30.5,30.5 C 29.791,31.404 28.791,31.7373 27.5,31.5C 27.5,30.8333 27.1667,30.5 26.5,30.5C 26.5,27.1667 26.5,23.8333 26.5,20.5C 34.7598,20.8952 35.7598,24.0618 29.5,30C 29.7284,30.3988 30.0618,30.5654 30.5,30.5 Z"/></g>
<g><path style="opacity:1" fill="#40839b" d="M 24.5,31.5 C 23.5,31.5 22.5,31.5 21.5,31.5C 19.6183,29.166 17.9517,26.666 16.5,24C 17.3366,22.9887 17.67,21.8221 17.5,20.5C 19.8333,20.5 22.1667,20.5 24.5,20.5C 24.5,24.1667 24.5,27.8333 24.5,31.5 Z"/></g>
<g><path style="opacity:1" fill="#456d82" d="M 65.5,15.5 C 66.2344,16.8775 66.9011,18.3775 67.5,20C 69.5,20.1667 71.5,20.3333 73.5,20.5C 75.9522,20.4609 77.9522,19.7943 79.5,18.5C 82.5849,18.418 84.2515,19.918 84.5,23C 84.2179,27.7695 81.8846,30.9362 77.5,32.5C 76.7784,32.0825 76.2784,31.4158 76,30.5C 75.3292,31.2524 74.4959,31.5858 73.5,31.5C 74.4137,28.272 74.7471,24.9387 74.5,21.5C 73.5,21.5 72.5,21.5 71.5,21.5C 71.3677,24.5701 71.701,27.5701 72.5,30.5C 71.0221,31.4475 70.0221,32.7809 69.5,34.5C 66.9165,32.0441 64.5832,29.3775 62.5,26.5C 62.3367,24.1432 62.5034,21.8098 63,19.5C 64.7058,18.6921 65.5391,17.3588 65.5,15.5 Z"/></g>
<g><path style="opacity:1" fill="#53a6c3" d="M 73.5,31.5 C 72.8333,31.5 72.5,31.1667 72.5,30.5C 71.701,27.5701 71.3677,24.5701 71.5,21.5C 72.5,21.5 73.5,21.5 74.5,21.5C 74.7471,24.9387 74.4137,28.272 73.5,31.5 Z"/></g>
<g><path style="opacity:1" fill="#efefec" d="M 33.5,9.5 C 34.5855,14.6959 35.4188,14.6959 36,9.5C 35.4982,15.3418 37.3315,20.1751 41.5,24C 40.0039,24.5074 38.8373,24.0074 38,22.5C 36.6373,25.3243 36.1373,28.1576 36.5,31C 39.361,30.946 42.361,31.446 45.5,32.5C 48.7816,31.5123 52.1149,30.8457 55.5,30.5C 55.3287,33.7973 55.9954,34.1306 57.5,31.5C 58.086,31.7093 58.586,32.0426 59,32.5C 58.9646,28.7548 59.9646,28.0881 62,30.5C 62.49,29.2068 62.6567,27.8734 62.5,26.5C 64.5832,29.3775 66.9165,32.0441 69.5,34.5C 69.5,34.8333 69.5,35.1667 69.5,35.5C 67.0337,36.2977 65.0337,37.631 63.5,39.5C 62.5655,40.5676 62.2322,41.901 62.5,43.5C 63.1834,45.1765 64.5168,45.8432 66.5,45.5C 66.6068,47.3786 66.1068,47.7119 65,46.5C 63.7949,47.0712 62.6283,47.7379 61.5,48.5C 61.9937,51.5502 61.3271,54.5502 59.5,57.5C 60.0253,58.1924 60.6919,58.6924 61.5,59C 60.2068,59.49 58.8734,59.6567 57.5,59.5C 57.3832,61.4835 58.0499,63.1502 59.5,64.5C 56.8694,66.0046 57.2027,66.6713 60.5,66.5C 60.6818,72.9105 61.3485,72.7439 62.5,66C 62.4148,64.8926 62.0814,63.8926 61.5,63C 63.1341,62.5065 64.8008,62.3398 66.5,62.5C 64.7867,63.2233 63.7867,64.5567 63.5,66.5C 65.0259,69.6538 65.6925,72.9872 65.5,76.5C 65.1667,76.5 64.8333,76.5 64.5,76.5C 64.506,73.4524 63.506,72.9524 61.5,75C 54.1742,75.4997 46.8409,75.6663 39.5,75.5C 39.5445,80.9466 38.5445,81.4466 36.5,77C 35.184,76.4719 34.5173,76.9719 34.5,78.5C 33.3951,77.3995 32.0618,76.7329 30.5,76.5C 30.3379,74.4727 30.5045,72.4727 31,70.5C 33.3028,68.4528 33.8028,66.1194 32.5,63.5C 33.742,64.6976 35.742,65.6976 38.5,66.5C 37.9084,69.1272 37.5751,71.7938 37.5,74.5C 44.8333,74.5 52.1667,74.5 59.5,74.5C 60.0102,71.6122 59.3435,69.2789 57.5,67.5C 55.5,66.1667 53.8333,64.5 52.5,62.5C 54.7896,60.3736 56.9562,58.0403 59,55.5C 60.4204,51.4387 59.2538,48.772 55.5,47.5C 55.4013,44.7628 55.7347,42.0961 56.5,39.5C 57.1239,39.0831 57.4573,38.4164 57.5,37.5C 57.2528,36.2867 56.5862,35.62 55.5,35.5C 53.9582,34.6993 52.2915,34.366 50.5,34.5C 47.6965,33.3622 44.6965,33.1955 41.5,34C 38.8743,35.3716 38.2076,37.205 39.5,39.5C 41.035,42.5453 41.3683,45.5453 40.5,48.5C 38.8212,48.2852 37.8212,48.9519 37.5,50.5C 36.8283,53.9419 37.8283,56.6086 40.5,58.5C 41.4363,59.9744 42.7697,60.9744 44.5,61.5C 45.404,62.209 45.7373,63.209 45.5,64.5C 43.6776,64.8308 42.0109,65.4975 40.5,66.5C 39.7375,65.7321 38.7375,65.2321 37.5,65C 38.5,64.6667 39.5,64.3333 40.5,64C 38.913,63.1376 37.2464,62.4709 35.5,62C 39.2991,60.8862 39.2991,59.5529 35.5,58C 37.5594,52.3097 35.8928,49.1431 30.5,48.5C 31.1272,47.5832 31.4606,46.5832 31.5,45.5C 32.8333,45.5 34.1667,45.5 35.5,45.5C 35.7845,43.5853 35.4511,41.9187 34.5,40.5C 32.9811,38.3863 30.9811,36.7197 28.5,35.5C 27.7659,34.2921 27.4326,32.9587 27.5,31.5C 28.791,31.7373 29.791,31.404 30.5,30.5C 34.0785,28.098 35.2451,24.7647 34,20.5C 32.2714,20.0257 31.1047,19.0257 30.5,17.5C 31.1495,15.5648 31.4828,13.5648 31.5,11.5C 32.1667,10.8333 32.8333,10.1667 33.5,9.5 Z"/></g>
<g><path style="opacity:1" fill="#283e3a" d="M 26.5,30.5 C 27.1667,30.5 27.5,30.8333 27.5,31.5C 27.4326,32.9587 27.7659,34.2921 28.5,35.5C 28.1667,35.5 27.8333,35.5 27.5,35.5C 25.1667,35.5 22.8333,35.5 20.5,35.5C 20.5,35.1667 20.5,34.8333 20.5,34.5C 20.5,33.8333 20.5,33.1667 20.5,32.5C 20.5,31.8333 20.8333,31.5 21.5,31.5C 22.5,31.5 23.5,31.5 24.5,31.5C 25.1667,31.1667 25.8333,30.8333 26.5,30.5 Z"/></g>
<g><path style="opacity:1" fill="#363c32" d="M 72.5,30.5 C 72.5,31.1667 72.8333,31.5 73.5,31.5C 74.4959,31.5858 75.3292,31.2524 76,30.5C 76.2784,31.4158 76.7784,32.0825 77.5,32.5C 77.7329,34.0618 78.3995,35.3951 79.5,36.5C 79.5,37.1667 79.1667,37.5 78.5,37.5C 78.3893,36.8826 78.056,36.3826 77.5,36C 75.1902,35.5034 72.8568,35.3367 70.5,35.5C 70.1667,35.5 69.8333,35.5 69.5,35.5C 69.5,35.1667 69.5,34.8333 69.5,34.5C 70.0221,32.7809 71.0221,31.4475 72.5,30.5 Z"/></g>
<g><path style="opacity:1" fill="#836061" d="M 50.5,34.5 C 47.2781,34.9745 44.2781,35.9745 41.5,37.5C 41.44,36.9569 41.1067,36.6236 40.5,36.5C 39.6143,37.325 39.281,38.325 39.5,39.5C 38.2076,37.205 38.8743,35.3716 41.5,34C 44.6965,33.1955 47.6965,33.3622 50.5,34.5 Z"/></g>
<g><path style="opacity:1" fill="#823138" d="M 50.5,34.5 C 52.2915,34.366 53.9582,34.6993 55.5,35.5C 55.1583,36.3382 54.4916,36.6716 53.5,36.5C 51.1432,36.3367 48.8098,36.5034 46.5,37C 45.244,37.4169 44.5774,38.2502 44.5,39.5C 43.8826,39.6107 43.3826,39.944 43,40.5C 42.7216,39.5842 42.2216,38.9175 41.5,38.5C 41.5,38.1667 41.5,37.8333 41.5,37.5C 44.2781,35.9745 47.2781,34.9745 50.5,34.5 Z"/></g>
<g><path style="opacity:1" fill="#3c3336" d="M 41.5,37.5 C 41.5,37.8333 41.5,38.1667 41.5,38.5C 41.0618,38.4346 40.7284,38.6012 40.5,39C 41.0848,40.3024 41.7515,41.469 42.5,42.5C 42.5172,44.5648 42.8505,46.5648 43.5,48.5C 42.8333,48.5 42.5,48.8333 42.5,49.5C 41.8153,51.4144 41.3153,53.4144 41,55.5C 40.5034,53.1902 40.3367,50.8568 40.5,48.5C 41.3683,45.5453 41.035,42.5453 39.5,39.5C 39.281,38.325 39.6143,37.325 40.5,36.5C 41.1067,36.6236 41.44,36.9569 41.5,37.5 Z"/></g>
<g><path style="opacity:1" fill="#bda991" d="M 70.5,35.5 C 72.8568,35.3367 75.1902,35.5034 77.5,36C 78.056,36.3826 78.3893,36.8826 78.5,37.5C 75.7841,38.3573 72.7841,38.6906 69.5,38.5C 69.1667,38.3333 68.8333,38.1667 68.5,38C 69.3805,37.2917 70.0472,36.4584 70.5,35.5 Z"/></g>
<g><path style="opacity:1" fill="#816653" d="M 69.5,35.5 C 69.8333,35.5 70.1667,35.5 70.5,35.5C 70.0472,36.4584 69.3805,37.2917 68.5,38C 68.8333,38.1667 69.1667,38.3333 69.5,38.5C 72.7841,38.6906 75.7841,38.3573 78.5,37.5C 79.1667,37.5 79.5,37.1667 79.5,36.5C 83.5404,37.57 85.2071,40.2366 84.5,44.5C 84.1667,44.5 83.8333,44.5 83.5,44.5C 83.5,42.8333 83.5,41.1667 83.5,39.5C 82.1667,39.5 80.8333,39.5 79.5,39.5C 75.5,39.5 71.5,39.5 67.5,39.5C 66.1667,39.5 64.8333,39.5 63.5,39.5C 65.0337,37.631 67.0337,36.2977 69.5,35.5 Z"/></g>
<g><path style="opacity:1" fill="#dd6369" d="M 53.5,36.5 C 53.7148,38.1788 53.0481,39.1788 51.5,39.5C 48.9592,39.8499 46.6258,39.8499 44.5,39.5C 44.5774,38.2502 45.244,37.4169 46.5,37C 48.8098,36.5034 51.1432,36.3367 53.5,36.5 Z"/></g>
<g><path style="opacity:1" fill="#b76f6b" d="M 55.5,35.5 C 56.5862,35.62 57.2528,36.2867 57.5,37.5C 57.4573,38.4164 57.1239,39.0831 56.5,39.5C 56.44,38.9569 56.1067,38.6236 55.5,38.5C 54.8182,39.2427 54.1515,39.9094 53.5,40.5C 52.8333,40.5 52.1667,40.5 51.5,40.5C 51.5,40.1667 51.5,39.8333 51.5,39.5C 53.0481,39.1788 53.7148,38.1788 53.5,36.5C 54.4916,36.6716 55.1583,36.3382 55.5,35.5 Z"/></g>
<g><path style="opacity:1" fill="#905130" d="M 41.5,38.5 C 42.2216,38.9175 42.7216,39.5842 43,40.5C 43.3826,39.944 43.8826,39.6107 44.5,39.5C 46.6258,39.8499 48.9592,39.8499 51.5,39.5C 51.5,39.8333 51.5,40.1667 51.5,40.5C 48.5,41.1667 45.5,41.8333 42.5,42.5C 41.7515,41.469 41.0848,40.3024 40.5,39C 40.7284,38.6012 41.0618,38.4346 41.5,38.5 Z"/></g>
<g><path style="opacity:1" fill="#6f4e4a" d="M 20.5,34.5 C 20.5,34.8333 20.5,35.1667 20.5,35.5C 19.375,36.6522 19.375,37.6522 20.5,38.5C 18.8333,39.1667 17.1667,39.8333 15.5,40.5C 15.5,41.5 15.5,42.5 15.5,43.5C 20.8333,43.5 26.1667,43.5 31.5,43.5C 31.5,42.5 31.5,41.5 31.5,40.5C 31.5,40.1667 31.5,39.8333 31.5,39.5C 29.8608,38.5275 28.5274,37.1942 27.5,35.5C 27.8333,35.5 28.1667,35.5 28.5,35.5C 30.9811,36.7197 32.9811,38.3863 34.5,40.5C 34.5,41.8333 34.5,43.1667 34.5,44.5C 27.5,44.5 20.5,44.5 13.5,44.5C 12.2463,42.6431 12.2463,40.6431 13.5,38.5C 16.0237,37.4077 18.357,36.0743 20.5,34.5 Z"/></g>
<g><path style="opacity:1" fill="#ca5f66" d="M 15.5,40.5 C 20.8333,40.5 26.1667,40.5 31.5,40.5C 31.5,41.5 31.5,42.5 31.5,43.5C 26.1667,43.5 20.8333,43.5 15.5,43.5C 15.5,42.5 15.5,41.5 15.5,40.5 Z"/></g>
<g><path style="opacity:1" fill="#833e2a" d="M 31.5,39.5 C 31.5,39.8333 31.5,40.1667 31.5,40.5C 26.1667,40.5 20.8333,40.5 15.5,40.5C 17.1667,39.8333 18.8333,39.1667 20.5,38.5C 20.56,37.9569 20.8933,37.6236 21.5,37.5C 24.757,38.5514 28.0903,39.2181 31.5,39.5 Z"/></g>
<g><path style="opacity:1" fill="#b2a489" d="M 20.5,35.5 C 22.8333,35.5 25.1667,35.5 27.5,35.5C 28.5274,37.1942 29.8608,38.5275 31.5,39.5C 28.0903,39.2181 24.757,38.5514 21.5,37.5C 20.8933,37.6236 20.56,37.9569 20.5,38.5C 19.375,37.6522 19.375,36.6522 20.5,35.5 Z"/></g>
<g><path style="opacity:1" fill="#7f4648" d="M 63.5,39.5 C 64.8333,39.5 66.1667,39.5 67.5,39.5C 66.791,40.404 65.791,40.7373 64.5,40.5C 64.5,41.5 64.5,42.5 64.5,43.5C 69.5,43.5 74.5,43.5 79.5,43.5C 79.5,42.1667 79.5,40.8333 79.5,39.5C 80.8333,39.5 82.1667,39.5 83.5,39.5C 83.5,41.1667 83.5,42.8333 83.5,44.5C 76.4122,44.7955 69.4122,44.4621 62.5,43.5C 62.2322,41.901 62.5655,40.5676 63.5,39.5 Z"/></g>
<g><path style="opacity:1" fill="#be535c" d="M 67.5,39.5 C 71.5,39.5 75.5,39.5 79.5,39.5C 79.5,40.8333 79.5,42.1667 79.5,43.5C 74.5,43.5 69.5,43.5 64.5,43.5C 64.5,42.5 64.5,41.5 64.5,40.5C 65.791,40.7373 66.791,40.404 67.5,39.5 Z"/></g>
<g><path style="opacity:1" fill="#b89f9d" d="M 34.5,40.5 C 35.4511,41.9187 35.7845,43.5853 35.5,45.5C 34.1667,45.5 32.8333,45.5 31.5,45.5C 25.31,45.8229 19.31,45.4896 13.5,44.5C 20.5,44.5 27.5,44.5 34.5,44.5C 34.5,43.1667 34.5,41.8333 34.5,40.5 Z"/></g>
<g><path style="opacity:1" fill="#cfb171" d="M 51.5,40.5 C 52.1667,40.5 52.8333,40.5 53.5,40.5C 53.7569,47.393 50.4236,50.0596 43.5,48.5C 42.8505,46.5648 42.5172,44.5648 42.5,42.5C 45.5,41.8333 48.5,41.1667 51.5,40.5 Z"/></g>
<g><path style="opacity:1" fill="#c4a7a9" d="M 62.5,43.5 C 69.4122,44.4621 76.4122,44.7955 83.5,44.5C 83.8333,44.5 84.1667,44.5 84.5,44.5C 78.69,45.4896 72.69,45.8229 66.5,45.5C 64.5168,45.8432 63.1834,45.1765 62.5,43.5 Z"/></g>
<g><path style="opacity:1" fill="#646251" d="M 56.5,39.5 C 55.7347,42.0961 55.4013,44.7628 55.5,47.5C 51.4731,49.3584 47.1398,50.0251 42.5,49.5C 42.5,48.8333 42.8333,48.5 43.5,48.5C 50.4236,50.0596 53.7569,47.393 53.5,40.5C 54.1515,39.9094 54.8182,39.2427 55.5,38.5C 56.1067,38.6236 56.44,38.9569 56.5,39.5 Z"/></g>
<g><path style="opacity:1" fill="#43788f" d="M 55.5,47.5 C 59.2538,48.772 60.4204,51.4387 59,55.5C 56.9562,58.0403 54.7896,60.3736 52.5,62.5C 51.596,61.791 51.2627,60.791 51.5,59.5C 48.6122,58.9898 46.2789,59.6565 44.5,61.5C 42.7697,60.9744 41.4363,59.9744 40.5,58.5C 39.871,55.6027 38.871,52.936 37.5,50.5C 37.8212,48.9519 38.8212,48.2852 40.5,48.5C 40.3367,50.8568 40.5034,53.1902 41,55.5C 41.3153,53.4144 41.8153,51.4144 42.5,49.5C 47.1398,50.0251 51.4731,49.3584 55.5,47.5 Z"/></g>
<g><path style="opacity:1" fill="#2c3b46" d="M 37.5,50.5 C 38.871,52.936 39.871,55.6027 40.5,58.5C 37.8283,56.6086 36.8283,53.9419 37.5,50.5 Z"/></g>
<g><path style="opacity:1" fill="#353d35" d="M 52.5,62.5 C 53.8333,64.5 55.5,66.1667 57.5,67.5C 57.1583,68.3382 56.4916,68.6716 55.5,68.5C 53.2176,64.9088 49.8843,63.5755 45.5,64.5C 45.7373,63.209 45.404,62.209 44.5,61.5C 46.2789,59.6565 48.6122,58.9898 51.5,59.5C 51.2627,60.791 51.596,61.791 52.5,62.5 Z"/></g>
<g><path style="opacity:1" fill="#984243" d="M 26.5,62.5 C 28.2161,62.6287 29.8828,62.962 31.5,63.5C 31.5,64.1667 31.5,64.8333 31.5,65.5C 28.4816,65.3354 25.4816,65.502 22.5,66C 22.0426,66.414 21.7093,66.914 21.5,67.5C 23.396,68.4656 25.396,68.7989 27.5,68.5C 26.8333,69.1667 26.1667,69.8333 25.5,70.5C 23.2646,70.7947 21.2646,70.4614 19.5,69.5C 19.3398,67.8008 19.5065,66.1341 20,64.5C 22.277,63.8828 24.4437,63.2161 26.5,62.5 Z"/></g>
<g><path style="opacity:1" fill="#a8a18a" d="M 45.5,64.5 C 49.8843,63.5755 53.2176,64.9088 55.5,68.5C 53.6096,68.7035 52.1096,68.0368 51,66.5C 49.6667,69.1667 48.3333,69.1667 47,66.5C 44.5728,67.567 44.0728,66.9003 45.5,64.5 Z"/></g>
<g><path style="opacity:1" fill="#644846" d="M 66.5,62.5 C 70.7016,62.1832 74.7016,62.5166 78.5,63.5C 73.8781,63.1561 69.5448,63.8227 65.5,65.5C 64.9569,65.56 64.6236,65.8933 64.5,66.5C 65.7535,69.1939 66.7535,71.8606 67.5,74.5C 67.5,74.8333 67.5,75.1667 67.5,75.5C 67.5912,77.6977 66.9245,78.0311 65.5,76.5C 65.6925,72.9872 65.0259,69.6538 63.5,66.5C 63.7867,64.5567 64.7867,63.2233 66.5,62.5 Z"/></g>
<g><path style="opacity:1" fill="#7d3438" d="M 78.5,63.5 C 79.1667,63.5 79.8333,63.5 80.5,63.5C 80.1667,64.1667 79.8333,64.8333 79.5,65.5C 76.1016,65.1796 72.7683,65.513 69.5,66.5C 69.1373,67.1835 68.8039,67.8501 68.5,68.5C 68.5654,68.9382 68.3988,69.2716 68,69.5C 67.3378,68.0161 66.5045,66.6828 65.5,65.5C 69.5448,63.8227 73.8781,63.1561 78.5,63.5 Z"/></g>
<g><path style="opacity:1" fill="#7e5953" d="M 45.5,64.5 C 44.0728,66.9003 44.5728,67.567 47,66.5C 48.3333,69.1667 49.6667,69.1667 51,66.5C 52.1096,68.0368 53.6096,68.7035 55.5,68.5C 56.4916,68.6716 57.1583,68.3382 57.5,67.5C 59.3435,69.2789 60.0102,71.6122 59.5,74.5C 52.1667,74.5 44.8333,74.5 37.5,74.5C 37.5751,71.7938 37.9084,69.1272 38.5,66.5C 39.1667,66.5 39.8333,66.5 40.5,66.5C 42.0109,65.4975 43.6776,64.8308 45.5,64.5 Z"/></g>
<g><path style="opacity:1" fill="#826756" d="M 80.5,63.5 C 82.959,65.7585 82.7923,68.0918 80,70.5C 79.5045,72.4727 79.3379,74.4727 79.5,76.5C 78.8333,76.1667 78.1667,75.8333 77.5,75.5C 77.5,73.8333 77.5,72.1667 77.5,70.5C 78.4793,69.2347 79.4793,67.9014 80.5,66.5C 80.3764,65.8933 80.0431,65.56 79.5,65.5C 79.8333,64.8333 80.1667,64.1667 80.5,63.5 Z"/></g>
<g><path style="opacity:1" fill="#e06564" d="M 31.5,65.5 C 30.9653,67.4456 29.632,68.4456 27.5,68.5C 25.396,68.7989 23.396,68.4656 21.5,67.5C 21.7093,66.914 22.0426,66.414 22.5,66C 25.4816,65.502 28.4816,65.3354 31.5,65.5 Z"/></g>
<g><path style="opacity:1" fill="#6f4e47" d="M 26.5,62.5 C 24.4437,63.2161 22.277,63.8828 20,64.5C 19.5065,66.1341 19.3398,67.8008 19.5,69.5C 17.744,70.5521 17.0773,72.2188 17.5,74.5C 16.8333,75.1667 16.1667,75.8333 15.5,76.5C 15.4995,72.3412 14.9995,68.3412 14,64.5C 17.922,62.6876 22.0887,62.021 26.5,62.5 Z"/></g>
<g><path style="opacity:1" fill="#ba584b" d="M 79.5,65.5 C 80.0431,65.56 80.3764,65.8933 80.5,66.5C 79.4793,67.9014 78.4793,69.2347 77.5,70.5C 76.8333,70.5 76.1667,70.5 75.5,70.5C 73.1055,69.9853 70.7722,69.3186 68.5,68.5C 68.8039,67.8501 69.1373,67.1835 69.5,66.5C 72.7683,65.513 76.1016,65.1796 79.5,65.5 Z"/></g>
<g><path style="opacity:1" fill="#a0774d" d="M 65.5,65.5 C 66.5045,66.6828 67.3378,68.0161 68,69.5C 68.3988,69.2716 68.5654,68.9382 68.5,68.5C 70.7722,69.3186 73.1055,69.9853 75.5,70.5C 75.3491,73.7181 74.5158,74.0515 73,71.5C 72.4309,75.3605 71.5976,75.3605 70.5,71.5C 69.1575,72.9023 68.3242,72.5689 68,70.5C 67.51,71.7932 67.3433,73.1266 67.5,74.5C 66.7535,71.8606 65.7535,69.1939 64.5,66.5C 64.6236,65.8933 64.9569,65.56 65.5,65.5 Z"/></g>
<g><path style="opacity:1" fill="#c8a97b" d="M 19.5,69.5 C 21.2646,70.4614 23.2646,70.7947 25.5,70.5C 26.5,70.5 27.5,70.5 28.5,70.5C 28.539,73.089 27.539,75.089 25.5,76.5C 26.038,74.8828 26.3713,73.2161 26.5,71.5C 22.1672,70.6853 19.8338,72.352 19.5,76.5C 18.8333,75.8333 18.1667,75.1667 17.5,74.5C 17.0773,72.2188 17.744,70.5521 19.5,69.5 Z"/></g>
<g><path style="opacity:1" fill="#b9555b" d="M 39.5,69.5 C 44.7216,69.578 50.055,69.7446 55.5,70C 56.8146,71.3946 56.4812,72.3946 54.5,73C 49.8333,73.6667 45.1667,73.6667 40.5,73C 39.6634,71.9887 39.33,70.8221 39.5,69.5 Z"/></g>
<g><path style="opacity:1" fill="#dac577" d="M 25.5,76.5 C 23.5,76.5 21.5,76.5 19.5,76.5C 19.8338,72.352 22.1672,70.6853 26.5,71.5C 26.3713,73.2161 26.038,74.8828 25.5,76.5 Z"/></g>
<g><path style="opacity:1" fill="#ddc390" d="M 75.5,70.5 C 76.1667,70.5 76.8333,70.5 77.5,70.5C 77.5,72.1667 77.5,73.8333 77.5,75.5C 74.1667,76.8333 70.8333,76.8333 67.5,75.5C 67.5,75.1667 67.5,74.8333 67.5,74.5C 67.3433,73.1266 67.51,71.7932 68,70.5C 68.3242,72.5689 69.1575,72.9023 70.5,71.5C 71.5976,75.3605 72.4309,75.3605 73,71.5C 74.5158,74.0515 75.3491,73.7181 75.5,70.5 Z"/></g>
<g><path style="opacity:1" fill="#7b6c56" d="M 31.5,63.5 C 31.8333,63.5 32.1667,63.5 32.5,63.5C 33.8028,66.1194 33.3028,68.4528 31,70.5C 30.5045,72.4727 30.3379,74.4727 30.5,76.5C 29.1054,75.1854 28.1054,75.5188 27.5,77.5C 26.8333,77.5 26.1667,77.5 25.5,77.5C 23.2646,77.7947 21.2646,77.4614 19.5,76.5C 21.5,76.5 23.5,76.5 25.5,76.5C 27.539,75.089 28.539,73.089 28.5,70.5C 27.5,70.5 26.5,70.5 25.5,70.5C 26.1667,69.8333 26.8333,69.1667 27.5,68.5C 29.632,68.4456 30.9653,67.4456 31.5,65.5C 31.5,64.8333 31.5,64.1667 31.5,63.5 Z"/></g>
<g><path style="opacity:1" fill="#466a79" d="M 67.5,75.5 C 70.8333,76.8333 74.1667,76.8333 77.5,75.5C 78.1667,75.8333 78.8333,76.1667 79.5,76.5C 80.8221,76.33 81.9887,76.6634 83,77.5C 84.7165,83.7404 82.5499,87.7404 76.5,89.5C 76.5,89.1667 76.5,88.8333 76.5,88.5C 78.017,85.4127 78.6837,82.0794 78.5,78.5C 75.7686,78.9408 73.2686,79.2741 71,79.5C 70.5702,82.1922 70.7369,84.8589 71.5,87.5C 70.5,87.8333 69.8333,88.5 69.5,89.5C 63.1142,87.9446 60.6142,83.9446 62,77.5C 62.6708,76.7476 63.5041,76.4142 64.5,76.5C 64.8333,76.5 65.1667,76.5 65.5,76.5C 66.9245,78.0311 67.5912,77.6977 67.5,75.5 Z"/></g>
<g><path style="opacity:1" fill="#314c52" d="M 17.5,74.5 C 18.1667,75.1667 18.8333,75.8333 19.5,76.5C 21.2646,77.4614 23.2646,77.7947 25.5,77.5C 25.1583,78.3382 24.4916,78.6716 23.5,78.5C 22.8333,78.5 22.1667,78.5 21.5,78.5C 20.8333,78.5 20.1667,78.5 19.5,78.5C 17.8793,78.7869 16.8793,79.7869 16.5,81.5C 17.2458,82.7362 17.5792,84.0695 17.5,85.5C 16.8826,85.3893 16.3826,85.056 16,84.5C 15.7638,82.236 15.2638,80.0693 14.5,78C 15.056,77.6174 15.3893,77.1174 15.5,76.5C 16.1667,75.8333 16.8333,75.1667 17.5,74.5 Z"/></g>
<g><path style="opacity:1" fill="#1b2229" d="M 12.5,78.5 C 13.2829,80.3432 13.9495,82.3432 14.5,84.5C 14.3764,85.1067 14.0431,85.44 13.5,85.5C 12.6314,83.283 12.298,80.9496 12.5,78.5 Z"/></g>
<g><path style="opacity:1" fill="#38515c" d="M 30.5,76.5 C 32.0618,76.7329 33.3951,77.3995 34.5,78.5C 35.1717,81.9419 34.1717,84.6086 31.5,86.5C 32.3897,84.2181 32.5564,81.8848 32,79.5C 30.3775,78.9011 28.8775,78.2344 27.5,77.5C 28.1054,75.5188 29.1054,75.1854 30.5,76.5 Z"/></g>
<g><path style="opacity:1" fill="#5099b9" d="M 76.5,88.5 C 75.6829,86.0314 75.1829,83.3647 75,80.5C 74.7296,83.3617 73.8962,86.0284 72.5,88.5C 71.8933,88.3764 71.56,88.0431 71.5,87.5C 70.7369,84.8589 70.5702,82.1922 71,79.5C 73.2686,79.2741 75.7686,78.9408 78.5,78.5C 78.6837,82.0794 78.017,85.4127 76.5,88.5 Z"/></g>
<g><path style="opacity:1" fill="#466d81" d="M 15.5,76.5 C 15.3893,77.1174 15.056,77.6174 14.5,78C 15.2638,80.0693 15.7638,82.236 16,84.5C 16.3826,85.056 16.8826,85.3893 17.5,85.5C 18.1174,85.6107 18.6174,85.944 19,86.5C 19.4974,83.854 19.6641,81.1873 19.5,78.5C 20.1667,78.5 20.8333,78.5 21.5,78.5C 21.244,82.2693 21.5773,85.9359 22.5,89.5C 21.1001,90.0998 20.1001,91.0998 19.5,92.5C 19.5,91.5 19.5,90.5 19.5,89.5C 16.7079,89.3775 14.7079,88.0442 13.5,85.5C 14.0431,85.44 14.3764,85.1067 14.5,84.5C 13.9495,82.3432 13.2829,80.3432 12.5,78.5C 12.9731,77.0937 13.9731,76.427 15.5,76.5 Z"/></g>
<g><path style="opacity:1" fill="#5f99bd" d="M 19.5,78.5 C 19.6641,81.1873 19.4974,83.854 19,86.5C 18.6174,85.944 18.1174,85.6107 17.5,85.5C 17.5792,84.0695 17.2458,82.7362 16.5,81.5C 16.8793,79.7869 17.8793,78.7869 19.5,78.5 Z"/></g>
<g><path style="opacity:1" fill="#4398c0" d="M 21.5,78.5 C 22.1667,78.5 22.8333,78.5 23.5,78.5C 24.4137,81.728 24.7471,85.0613 24.5,88.5C 23.8333,88.8333 23.1667,89.1667 22.5,89.5C 21.5773,85.9359 21.244,82.2693 21.5,78.5 Z"/></g>
<g><path style="opacity:1" fill="#48758d" d="M 25.5,77.5 C 26.1667,77.5 26.8333,77.5 27.5,77.5C 28.8775,78.2344 30.3775,78.9011 32,79.5C 32.5564,81.8848 32.3897,84.2181 31.5,86.5C 30.7886,88.2014 29.4553,89.2014 27.5,89.5C 26.791,88.596 25.791,88.2627 24.5,88.5C 24.7471,85.0613 24.4137,81.728 23.5,78.5C 24.4916,78.6716 25.1583,78.3382 25.5,77.5 Z"/></g>
<g><path style="opacity:1" fill="#26393a" d="M 76.5,88.5 C 76.5,88.8333 76.5,89.1667 76.5,89.5C 76.4326,90.9587 76.7659,92.2921 77.5,93.5C 76.5,93.5 75.5,93.5 74.5,93.5C 74.5,92.5 74.5,91.5 74.5,90.5C 71.2819,90.6509 70.9485,91.4842 73.5,93C 71.9343,93.765 70.6009,93.5983 69.5,92.5C 69.5,91.5 69.5,90.5 69.5,89.5C 69.8333,88.5 70.5,87.8333 71.5,87.5C 71.56,88.0431 71.8933,88.3764 72.5,88.5C 73.8962,86.0284 74.7296,83.3617 75,80.5C 75.1829,83.3647 75.6829,86.0314 76.5,88.5 Z"/></g>
<g><path style="opacity:1" fill="#837362" d="M 77.5,93.5 C 80.3615,94.2471 82.3615,95.9138 83.5,98.5C 82.1751,97.0474 81.3418,97.3808 81,99.5C 80.7216,98.5842 80.2216,97.9175 79.5,97.5C 73.9738,97.1786 68.6405,97.5119 63.5,98.5C 63.1667,98.5 62.8333,98.5 62.5,98.5C 62.5,97.5 62.5,96.5 62.5,95.5C 65.1951,95.3185 67.5284,94.3185 69.5,92.5C 70.6009,93.5983 71.9343,93.765 73.5,93C 70.9485,91.4842 71.2819,90.6509 74.5,90.5C 74.5,91.5 74.5,92.5 74.5,93.5C 75.5,93.5 76.5,93.5 77.5,93.5 Z"/></g>
<g><path style="opacity:1" fill="#9c8176" d="M 30.5,95.5 C 34.8297,96.3232 36.163,98.8232 34.5,103C 27.3209,103.821 20.3209,103.655 13.5,102.5C 14.1667,102.5 14.8333,102.5 15.5,102.5C 20.1785,102.666 24.8452,102.499 29.5,102C 31.1066,100.951 31.7733,99.451 31.5,97.5C 26.1825,96.3294 20.8491,96.3294 15.5,97.5C 17.4467,96.8496 19.1134,95.683 20.5,94C 24.1029,93.157 27.4363,93.657 30.5,95.5 Z"/></g>
<g><path style="opacity:1" fill="#554943" d="M 24.5,88.5 C 25.791,88.2627 26.791,88.596 27.5,89.5C 27.615,91.9468 28.615,93.9468 30.5,95.5C 27.4363,93.657 24.1029,93.157 20.5,94C 19.1134,95.683 17.4467,96.8496 15.5,97.5C 15.5,99.1667 15.5,100.833 15.5,102.5C 14.8333,102.5 14.1667,102.5 13.5,102.5C 12.2463,100.643 12.2463,98.6431 13.5,96.5C 15.8072,95.5082 17.8072,94.1749 19.5,92.5C 20.1001,91.0998 21.1001,90.0998 22.5,89.5C 23.1667,89.1667 23.8333,88.8333 24.5,88.5 Z"/></g>
<g><path style="opacity:1" fill="#ae554e" d="M 15.5,102.5 C 15.5,100.833 15.5,99.1667 15.5,97.5C 20.8491,96.3294 26.1825,96.3294 31.5,97.5C 31.7733,99.451 31.1066,100.951 29.5,102C 24.8452,102.499 20.1785,102.666 15.5,102.5 Z"/></g>
<g><path style="opacity:1" fill="#ba5257" d="M 79.5,97.5 C 79.5,98.8333 79.5,100.167 79.5,101.5C 74.1667,101.5 68.8333,101.5 63.5,101.5C 63.5,100.5 63.5,99.5 63.5,98.5C 68.6405,97.5119 73.9738,97.1786 79.5,97.5 Z"/></g>
<g><path style="opacity:1" fill="#7c5752" d="M 79.5,97.5 C 80.2216,97.9175 80.7216,98.5842 81,99.5C 81.3418,97.3808 82.1751,97.0474 83.5,98.5C 84.8009,99.8845 84.8009,101.384 83.5,103C 76.5079,103.5 69.5079,103.666 62.5,103.5C 62.5,101.833 62.5,100.167 62.5,98.5C 62.8333,98.5 63.1667,98.5 63.5,98.5C 63.5,99.5 63.5,100.5 63.5,101.5C 68.8333,101.5 74.1667,101.5 79.5,101.5C 79.5,100.167 79.5,98.8333 79.5,97.5 Z"/></g>
<g><path style="opacity:1" fill="#5f413f" d="M 30.5,120.5 C 26.38,120.585 22.0466,120.751 17.5,121C 16.2475,122.828 16.2475,124.661 17.5,126.5C 16.596,127.209 16.2627,128.209 16.5,129.5C 16.1667,129.5 15.8333,129.5 15.5,129.5C 14.8443,127.516 14.1776,125.516 13.5,123.5C 13.5288,121.971 14.1955,120.804 15.5,120C 20.5842,119.222 25.5842,119.389 30.5,120.5 Z"/></g>
<g><path style="opacity:1" fill="#d8585f" d="M 30.5,124.5 C 29.609,125.11 28.609,125.443 27.5,125.5C 24.7531,125.813 22.0865,125.48 19.5,124.5C 23.2867,120.565 26.9534,120.565 30.5,124.5 Z"/></g>
<g><path style="opacity:1" fill="#873a37" d="M 30.5,120.5 C 32.6204,121.403 32.9538,122.737 31.5,124.5C 31.1667,124.5 30.8333,124.5 30.5,124.5C 26.9534,120.565 23.2867,120.565 19.5,124.5C 22.0865,125.48 24.7531,125.813 27.5,125.5C 27.5,125.833 27.5,126.167 27.5,126.5C 24.4299,126.368 21.4299,126.701 18.5,127.5C 17.8333,127.5 17.5,127.167 17.5,126.5C 16.2475,124.661 16.2475,122.828 17.5,121C 22.0466,120.751 26.38,120.585 30.5,120.5 Z"/></g>
<g><path style="opacity:1" fill="#6f5148" d="M 78.5,120.5 C 74.7267,120.263 71.0601,120.763 67.5,122C 66.6198,123.356 66.2865,124.856 66.5,126.5C 67.9587,126.433 69.2921,126.766 70.5,127.5C 69.5159,131.465 68.5159,131.465 67.5,127.5C 66.5307,129.617 66.864,131.617 68.5,133.5C 67.5,133.5 66.5,133.5 65.5,133.5C 64.9539,129.117 64.4539,124.783 64,120.5C 68.9329,119.176 73.7663,119.176 78.5,120.5 Z"/></g>
<g><path style="opacity:1" fill="#88453d" d="M 78.5,120.5 C 80.6348,120.147 81.9681,120.98 82.5,123C 81.0944,124.978 80.0944,127.145 79.5,129.5C 78.8333,130.167 78.1667,130.833 77.5,131.5C 77.2865,129.856 77.6198,128.356 78.5,127C 75.5733,127.282 72.9066,127.448 70.5,127.5C 69.2921,126.766 67.9587,126.433 66.5,126.5C 66.2865,124.856 66.6198,123.356 67.5,122C 71.0601,120.763 74.7267,120.263 78.5,120.5 Z"/></g>
<g><path style="opacity:1" fill="#d65360" d="M 71.5,121.5 C 74.3214,121.539 76.9881,122.205 79.5,123.5C 79.2907,124.086 78.9574,124.586 78.5,125C 75.5184,125.498 72.5184,125.665 69.5,125.5C 69.5271,123.801 70.1938,122.467 71.5,121.5 Z"/></g>
<g><path style="opacity:1" fill="#ba8560" d="M 27.5,126.5 C 27.5,128.5 27.5,130.5 27.5,132.5C 27.1667,132.5 26.8333,132.5 26.5,132.5C 26.6602,130.801 26.4935,129.134 26,127.5C 23.6332,128.047 21.4666,129.047 19.5,130.5C 18.6143,129.675 18.281,128.675 18.5,127.5C 21.4299,126.701 24.4299,126.368 27.5,126.5 Z"/></g>
<g><path style="opacity:1" fill="#7a5e48" d="M 30.5,124.5 C 30.8333,124.5 31.1667,124.5 31.5,124.5C 31.0372,127.221 30.3705,129.888 29.5,132.5C 28.8333,132.5 28.1667,132.5 27.5,132.5C 27.5,130.5 27.5,128.5 27.5,126.5C 27.5,126.167 27.5,125.833 27.5,125.5C 28.609,125.443 29.609,125.11 30.5,124.5 Z"/></g>
<g><path style="opacity:1" fill="#636862" d="M 15.5,129.5 C 15.8333,129.5 16.1667,129.5 16.5,129.5C 19.0054,133.293 22.3387,134.293 26.5,132.5C 26.8333,132.5 27.1667,132.5 27.5,132.5C 25.1433,134.098 22.4766,135.098 19.5,135.5C 18.8333,135.5 18.1667,135.5 17.5,135.5C 17.631,134.761 17.4643,134.094 17,133.5C 15.6703,134.582 14.1703,135.249 12.5,135.5C 12.8212,133.952 13.8212,133.285 15.5,133.5C 15.5,132.167 15.5,130.833 15.5,129.5 Z"/></g>
<g><path style="opacity:1" fill="#d9bf7a" d="M 77.5,131.5 C 74.8555,133.242 71.8555,133.909 68.5,133.5C 66.864,131.617 66.5307,129.617 67.5,127.5C 68.5159,131.465 69.5159,131.465 70.5,127.5C 72.9066,127.448 75.5733,127.282 78.5,127C 77.6198,128.356 77.2865,129.856 77.5,131.5 Z"/></g>
<g><path style="opacity:1" fill="#cfbc84" d="M 17.5,126.5 C 17.5,127.167 17.8333,127.5 18.5,127.5C 18.281,128.675 18.6143,129.675 19.5,130.5C 21.4666,129.047 23.6332,128.047 26,127.5C 26.4935,129.134 26.6602,130.801 26.5,132.5C 22.3387,134.293 19.0054,133.293 16.5,129.5C 16.2627,128.209 16.596,127.209 17.5,126.5 Z"/></g>
<g><path style="opacity:1" fill="#46606f" d="M 79.5,129.5 C 78.7564,132.95 80.0897,134.616 83.5,134.5C 84.6464,140.208 82.6464,144.208 77.5,146.5C 76.8333,145.833 76.1667,145.167 75.5,144.5C 78.1438,142.484 78.9772,139.817 78,136.5C 75,135.833 72,135.167 69,134.5C 67.6026,135.226 66.7692,136.393 66.5,138C 66.9505,139.55 67.1171,141.05 67,142.5C 64.0165,140.293 63.8498,140.793 66.5,144C 65.9056,144.464 65.2389,144.631 64.5,144.5C 61.9507,141.525 61.2841,138.192 62.5,134.5C 63.325,133.614 64.325,133.281 65.5,133.5C 66.5,133.5 67.5,133.5 68.5,133.5C 71.8555,133.909 74.8555,133.242 77.5,131.5C 78.1667,130.833 78.8333,130.167 79.5,129.5 Z"/></g>
<g><path style="opacity:1" fill="#3e6174" d="M 27.5,132.5 C 28.1667,132.5 28.8333,132.5 29.5,132.5C 34.5714,134.279 35.738,137.612 33,142.5C 31.4167,143.971 29.5834,144.971 27.5,145.5C 26.4324,144.566 25.099,144.232 23.5,144.5C 22.1667,145.167 20.8333,145.833 19.5,146.5C 13.3458,145.05 11.0125,141.384 12.5,135.5C 14.1703,135.249 15.6703,134.582 17,133.5C 17.4643,134.094 17.631,134.761 17.5,135.5C 16.2272,138.196 16.5605,140.862 18.5,143.5C 18.5256,140.852 18.8589,138.185 19.5,135.5C 22.4766,135.098 25.1433,134.098 27.5,132.5 Z"/></g>
<g><path style="opacity:1" fill="#33799a" d="M 23.5,144.5 C 22.5028,144.53 21.8361,144.03 21.5,143C 20.6777,140.566 20.3444,138.066 20.5,135.5C 23.7766,135.784 26.9433,135.451 30,134.5C 30.8937,137.189 31.3937,139.689 31.5,142C 29.6447,142.422 27.8114,142.922 26,143.5C 24.1082,140.61 23.2749,140.944 23.5,144.5 Z"/></g>
<g><path style="opacity:1" fill="#5f9ab0" d="M 17.5,135.5 C 18.1667,135.5 18.8333,135.5 19.5,135.5C 18.8589,138.185 18.5256,140.852 18.5,143.5C 16.5605,140.862 16.2272,138.196 17.5,135.5 Z"/></g>
<g><path style="opacity:1" fill="#407997" d="M 75.5,144.5 C 73.3298,145.768 71.1632,145.768 69,144.5C 68.5357,145.094 68.369,145.761 68.5,146.5C 66.847,146.34 65.5137,145.674 64.5,144.5C 65.2389,144.631 65.9056,144.464 66.5,144C 63.8498,140.793 64.0165,140.293 67,142.5C 67.1171,141.05 66.9505,139.55 66.5,138C 66.7692,136.393 67.6026,135.226 69,134.5C 72,135.167 75,135.833 78,136.5C 78.9772,139.817 78.1438,142.484 75.5,144.5 Z"/></g>
<g><path style="opacity:1" fill="#33473f" d="M 23.5,144.5 C 25.099,144.232 26.4324,144.566 27.5,145.5C 27.366,147.292 27.6993,148.958 28.5,150.5C 25.2234,150.216 22.0567,150.549 19,151.5C 18.5357,150.906 18.369,150.239 18.5,149.5C 19.404,148.791 19.7373,147.791 19.5,146.5C 20.8333,145.833 22.1667,145.167 23.5,144.5 Z"/></g>
<g><path style="opacity:1" fill="#2b3838" d="M 75.5,144.5 C 76.1667,145.167 76.8333,145.833 77.5,146.5C 76.596,147.209 76.2627,148.209 76.5,149.5C 74.2362,150.219 71.9029,150.552 69.5,150.5C 69.5,150.167 69.5,149.833 69.5,149.5C 69.7373,148.209 69.404,147.209 68.5,146.5C 68.369,145.761 68.5357,145.094 69,144.5C 71.1632,145.768 73.3298,145.768 75.5,144.5 Z"/></g>
<g><path style="opacity:1" fill="#9b776e" d="M 18.5,149.5 C 18.369,150.239 18.5357,150.906 19,151.5C 22.0567,150.549 25.2234,150.216 28.5,150.5C 30.3684,151.263 32.0351,152.263 33.5,153.5C 32.5084,153.328 31.8417,153.662 31.5,154.5C 26.1805,153.225 20.8471,153.225 15.5,154.5C 15.9175,153.778 16.5842,153.278 17.5,153C 16.9056,152.536 16.2389,152.369 15.5,152.5C 16.5,151.5 17.5,150.5 18.5,149.5 Z"/></g>
<g><path style="opacity:1" fill="#967868" d="M 76.5,149.5 C 79.117,150.786 81.4504,152.453 83.5,154.5C 80.9885,154.162 78.6552,154.162 76.5,154.5C 75.7492,153.624 75.2492,152.624 75,151.5C 73.6667,155.5 72.3333,155.5 71,151.5C 70.1739,153.405 69.0072,153.739 67.5,152.5C 68.2427,151.818 68.9094,151.151 69.5,150.5C 71.9029,150.552 74.2362,150.219 76.5,149.5 Z"/></g>
<g><path style="opacity:1" fill="#7a4647" d="M 15.5,152.5 C 16.2389,152.369 16.9056,152.536 17.5,153C 16.5842,153.278 15.9175,153.778 15.5,154.5C 15.5,154.833 15.5,155.167 15.5,155.5C 15.5,156.5 15.5,157.5 15.5,158.5C 20.1667,158.5 24.8333,158.5 29.5,158.5C 31.1765,157.817 31.8432,156.483 31.5,154.5C 31.8417,153.662 32.5084,153.328 33.5,153.5C 34.3414,155.379 34.6747,157.379 34.5,159.5C 27.1667,159.5 19.8333,159.5 12.5,159.5C 12.3398,157.801 12.5065,156.134 13,154.5C 13.4169,153.244 14.2502,152.577 15.5,152.5 Z"/></g>
<g><path style="opacity:1" fill="#c2565d" d="M 15.5,155.5 C 20.544,155.173 25.544,155.506 30.5,156.5C 30.1373,157.183 29.8039,157.85 29.5,158.5C 24.8333,158.5 20.1667,158.5 15.5,158.5C 15.5,157.5 15.5,156.5 15.5,155.5 Z"/></g>
<g><path style="opacity:1" fill="#83372e" d="M 31.5,154.5 C 31.8432,156.483 31.1765,157.817 29.5,158.5C 29.8039,157.85 30.1373,157.183 30.5,156.5C 25.544,155.506 20.544,155.173 15.5,155.5C 15.5,155.167 15.5,154.833 15.5,154.5C 20.8471,153.225 26.1805,153.225 31.5,154.5 Z"/></g>
<g><path style="opacity:1" fill="#6f3734" d="M 69.5,149.5 C 69.5,149.833 69.5,150.167 69.5,150.5C 68.9094,151.151 68.2427,151.818 67.5,152.5C 69.0072,153.739 70.1739,153.405 71,151.5C 72.3333,155.5 73.6667,155.5 75,151.5C 75.2492,152.624 75.7492,153.624 76.5,154.5C 78.6552,154.162 80.9885,154.162 83.5,154.5C 83.5,156.167 83.5,157.833 83.5,159.5C 76.5,159.5 69.5,159.5 62.5,159.5C 62.1079,154.23 64.4412,150.896 69.5,149.5 Z"/></g>
<g><path style="opacity:1" fill="#bf5d62" d="M 64.5,155.5 C 70.2055,155.171 75.8722,155.505 81.5,156.5C 81.2907,157.086 80.9574,157.586 80.5,158C 75.5,158.667 70.5,158.667 65.5,158C 64.7476,157.329 64.4142,156.496 64.5,155.5 Z"/></g>
<g><path style="opacity:1" fill="#cebdb8" d="M 83.5,154.5 C 84.6006,155.848 85.6006,157.348 86.5,159C 86.1667,159.333 85.8333,159.667 85.5,160C 77.6554,160.822 69.9887,160.656 62.5,159.5C 69.5,159.5 76.5,159.5 83.5,159.5C 83.5,157.833 83.5,156.167 83.5,154.5 Z"/></g>
</svg>
