<?xml version="1.0" encoding="UTF-8"?>
<!DOCTYPE svg PUBLIC "-//W3C//DTD SVG 1.1//EN" "http://www.w3.org/Graphics/SVG/1.1/DTD/svg11.dtd">
<svg xmlns="http://www.w3.org/2000/svg" version="1.1" width="100px" height="165px" style="shape-rendering:geometricPrecision; text-rendering:geometricPrecision; image-rendering:optimizeQuality; fill-rule:evenodd; clip-rule:evenodd" xmlns:xlink="http://www.w3.org/1999/xlink">
<g><path style="opacity:1" fill="#fafafa" d="M -0.5,-0.5 C 32.8333,-0.5 66.1667,-0.5 99.5,-0.5C 99.5,54.5 99.5,109.5 99.5,164.5C 66.1667,164.5 32.8333,164.5 -0.5,164.5C -0.5,109.5 -0.5,54.5 -0.5,-0.5 Z"/></g>
<g><path style="opacity:1" fill="#bbb09e" d="M 61.5,10.5 C 60.9569,10.56 60.6236,10.8933 60.5,11.5C 62.124,12.8689 62.624,14.5355 62,16.5C 60.9702,14.6536 59.8036,12.9869 58.5,11.5C 53.3365,7.14655 47.6699,6.47989 41.5,9.5C 41.5569,8.39105 41.8902,7.39105 42.5,6.5C 49.6251,3.52751 55.9584,4.86084 61.5,10.5 Z"/></g>
<g><path style="opacity:1" fill="#caae87" d="M 59.5,18.5 C 60.1098,19.391 60.4431,20.391 60.5,21.5C 58.5876,22.2105 56.921,23.3771 55.5,25C 57.6578,30.6681 56.3245,31.8348 51.5,28.5C 50.0653,29.8237 49.0653,31.4904 48.5,33.5C 47.8182,32.7573 47.1515,32.0906 46.5,31.5C 46.1854,29.7741 46.0187,28.1075 46,26.5C 46.6891,27.3567 47.5224,28.0233 48.5,28.5C 49.8498,27.0499 51.5165,26.3832 53.5,26.5C 53.585,24.0712 54.585,22.0712 56.5,20.5C 54.9137,18.8273 54.2471,16.8273 54.5,14.5C 50.6989,13.3711 47.1989,13.3711 44,14.5C 43.7674,16.7801 42.934,18.7801 41.5,20.5C 42.7797,22.7016 42.7797,24.8683 41.5,27C 42.7376,26.9227 43.7376,27.0894 44.5,27.5C 44.1373,28.1835 43.8039,28.8501 43.5,29.5C 42.1667,29.5 40.8333,29.5 39.5,29.5C 40.1667,27.1667 40.8333,24.8333 41.5,22.5C 40.448,22.3505 39.448,22.5172 38.5,23C 39.6537,23.9138 39.487,24.7471 38,25.5C 36.6485,23.4062 36.1485,21.0728 36.5,18.5C 37.8734,18.6567 39.2068,18.49 40.5,18C 41.1125,15.8526 41.7792,13.686 42.5,11.5C 43.5,12.1667 44.5,12.8333 45.5,13.5C 46.6667,11.8333 47.8333,10.1667 49,8.5C 49.9799,10.0589 50.8133,11.7256 51.5,13.5C 52.8333,12.8333 54.1667,12.1667 55.5,11.5C 56.3311,13.4731 56.4978,15.4731 56,17.5C 57.0113,18.3366 58.1779,18.67 59.5,18.5 Z"/></g>
<g><path style="opacity:1" fill="#775d3c" d="M 58.5,11.5 C 58.6427,13.2624 58.3094,14.9291 57.5,16.5C 58.2427,17.1818 58.9094,17.8485 59.5,18.5C 58.1779,18.67 57.0113,18.3366 56,17.5C 56.4978,15.4731 56.3311,13.4731 55.5,11.5C 54.1667,12.1667 52.8333,12.8333 51.5,13.5C 50.8133,11.7256 49.9799,10.0589 49,8.5C 47.8333,10.1667 46.6667,11.8333 45.5,13.5C 44.5,12.8333 43.5,12.1667 42.5,11.5C 41.7792,13.686 41.1125,15.8526 40.5,18C 39.2068,18.49 37.8734,18.6567 36.5,18.5C 36.1485,21.0728 36.6485,23.4062 38,25.5C 39.487,24.7471 39.6537,23.9138 38.5,23C 39.448,22.5172 40.448,22.3505 41.5,22.5C 40.8333,24.8333 40.1667,27.1667 39.5,29.5C 40.8333,29.5 42.1667,29.5 43.5,29.5C 42.2935,30.8804 42.6269,32.0471 44.5,33C 40.2224,32.4034 37.3891,29.9034 36,25.5C 35.1504,20.9787 35.6504,16.6454 37.5,12.5C 38.8333,11.5 40.1667,10.5 41.5,9.5C 47.6699,6.47989 53.3365,7.14655 58.5,11.5 Z"/></g>
<g><path style="opacity:1" fill="#90664a" d="M 46.5,31.5 C 46.1667,31.5 45.8333,31.5 45.5,31.5C 45.1667,30.5 44.5,29.8333 43.5,29.5C 43.8039,28.8501 44.1373,28.1835 44.5,27.5C 43.7376,27.0894 42.7376,26.9227 41.5,27C 42.7797,24.8683 42.7797,22.7016 41.5,20.5C 42.934,18.7801 43.7674,16.7801 44,14.5C 47.1989,13.3711 50.6989,13.3711 54.5,14.5C 54.2471,16.8273 54.9137,18.8273 56.5,20.5C 54.585,22.0712 53.585,24.0712 53.5,26.5C 51.5165,26.3832 49.8498,27.0499 48.5,28.5C 47.5224,28.0233 46.6891,27.3567 46,26.5C 46.0187,28.1075 46.1854,29.7741 46.5,31.5 Z"/></g>
<g><path style="opacity:1" fill="#7c7270" d="M 42.5,6.5 C 41.8902,7.39105 41.5569,8.39105 41.5,9.5C 40.1667,10.5 38.8333,11.5 37.5,12.5C 36.2101,13.0577 35.3768,14.0577 35,15.5C 34.092,20.6835 34.592,25.6835 36.5,30.5C 30.8576,23.1246 31.1909,15.9579 37.5,9C 39.0779,7.9055 40.7446,7.07217 42.5,6.5 Z"/></g>
<g><path style="opacity:1" fill="#a8483d" d="M 46.5,17.5 C 52.0159,17.4734 53.3492,19.64 50.5,24C 45.5705,24.427 44.2372,22.2604 46.5,17.5 Z"/></g>
<g><path style="opacity:1" fill="#cdbdb2" d="M 37.5,12.5 C 35.6504,16.6454 35.1504,20.9787 36,25.5C 37.3891,29.9034 40.2224,32.4034 44.5,33C 42.6269,32.0471 42.2935,30.8804 43.5,29.5C 44.5,29.8333 45.1667,30.5 45.5,31.5C 45.5,32.5 45.5,33.5 45.5,34.5C 48.1667,34.5 50.8333,34.5 53.5,34.5C 47.1138,36.6182 41.4472,35.2848 36.5,30.5C 34.592,25.6835 34.092,20.6835 35,15.5C 35.3768,14.0577 36.2101,13.0577 37.5,12.5 Z"/></g>
<g><path style="opacity:1" fill="#735f47" d="M 53.5,34.5 C 50.8333,34.5 48.1667,34.5 45.5,34.5C 45.5,33.5 45.5,32.5 45.5,31.5C 45.8333,31.5 46.1667,31.5 46.5,31.5C 47.1515,32.0906 47.8182,32.7573 48.5,33.5C 49.0653,31.4904 50.0653,29.8237 51.5,28.5C 56.3245,31.8348 57.6578,30.6681 55.5,25C 56.921,23.3771 58.5876,22.2105 60.5,21.5C 61.2216,21.0825 61.7216,20.4158 62,19.5C 62.2953,26.24 59.462,31.24 53.5,34.5 Z"/></g>
<g><path style="opacity:1" fill="#817670" d="M 61.5,10.5 C 66.1643,19.0128 65.1643,26.8461 58.5,34C 52.5035,37.461 46.5035,37.7943 40.5,35C 38.3645,34.1237 37.0312,32.6237 36.5,30.5C 41.4472,35.2848 47.1138,36.6182 53.5,34.5C 59.462,31.24 62.2953,26.24 62,19.5C 61.7216,20.4158 61.2216,21.0825 60.5,21.5C 60.4431,20.391 60.1098,19.391 59.5,18.5C 58.9094,17.8485 58.2427,17.1818 57.5,16.5C 58.3094,14.9291 58.6427,13.2624 58.5,11.5C 59.8036,12.9869 60.9702,14.6536 62,16.5C 62.624,14.5355 62.124,12.8689 60.5,11.5C 60.6236,10.8933 60.9569,10.56 61.5,10.5 Z"/></g>
<g><path style="opacity:1" fill="#8b847f" d="M 63.5,44.5 C 78.3817,43.2216 85.5484,49.8883 85,64.5C 80.1167,75.862 71.95,79.362 60.5,75C 49.2274,63.4983 50.2274,53.3316 63.5,44.5 Z"/></g>
<g><path style="opacity:1" fill="#8f8784" d="M 39.5,49.5 C 38.6618,49.8417 38.3284,50.5084 38.5,51.5C 36.3911,50.6091 34.3911,49.4424 32.5,48C 28.4065,47.2327 24.4065,47.566 20.5,49C 19.6195,49.7083 18.9528,50.5416 18.5,51.5C 17.8333,51.5 17.1667,51.5 16.5,51.5C 17.625,50.3478 17.625,49.3478 16.5,48.5C 19.2271,45.3952 22.7271,44.0618 27,44.5C 31.9527,44.3991 36.1194,46.0658 39.5,49.5 Z"/></g>
<g><path style="opacity:1" fill="#80694f" d="M 16.5,51.5 C 17.1667,51.5 17.8333,51.5 18.5,51.5C 19.791,51.2627 20.791,51.596 21.5,52.5C 20.4138,52.62 19.7472,53.2867 19.5,54.5C 19.8333,55.1667 20.1667,55.8333 20.5,56.5C 22.8352,56.218 25.0019,54.8847 27,52.5C 28.4007,54.1922 30.2341,54.8588 32.5,54.5C 32.393,56.9032 33.393,58.7365 35.5,60C 34.7476,60.6708 34.4142,61.5041 34.5,62.5C 34.5,63.1667 34.5,63.8333 34.5,64.5C 33.8826,64.3893 33.3826,64.056 33,63.5C 31.8978,64.949 30.7311,66.2823 29.5,67.5C 28.8826,67.6107 28.3826,67.944 28,68.5C 26.1741,66.9262 24.0075,66.0929 21.5,66C 22.8882,65.1107 22.7215,64.6107 21,64.5C 18.4979,65.5007 17.9979,67.1674 19.5,69.5C 23.2314,66.3701 25.5648,67.0368 26.5,71.5C 27.9516,72.3019 29.6183,72.8019 31.5,73C 28.1667,73.6667 24.8333,73.6667 21.5,73C 18.921,71.9243 17.2543,70.091 16.5,67.5C 16.2488,65.8297 15.5822,64.3297 14.5,63C 15.3709,60.2618 16.0375,57.4285 16.5,54.5C 16.0302,53.537 15.3635,53.537 14.5,54.5C 14.427,52.9731 15.0937,51.9731 16.5,51.5 Z"/></g>
<g><path style="opacity:1" fill="#63523b" d="M 38.5,51.5 C 38.5,52.1667 38.5,52.8333 38.5,53.5C 39.2216,53.9175 39.7216,54.5842 40,55.5C 40.4983,58.8168 40.665,62.1501 40.5,65.5C 39.7683,67.9646 38.435,69.9646 36.5,71.5C 35.4168,71.5394 34.4168,71.8728 33.5,72.5C 34.0164,71.2418 33.3497,70.2418 31.5,69.5C 30.3044,69.8457 30.3044,70.3457 31.5,71C 30.9056,71.4643 30.2389,71.631 29.5,71.5C 29.5,70.1667 29.5,68.8333 29.5,67.5C 31.8954,68.3635 34.2287,68.3635 36.5,67.5C 35.8075,66.4822 35.1408,65.4822 34.5,64.5C 34.5,63.8333 34.5,63.1667 34.5,62.5C 36.6449,62.2623 38.3115,61.2623 39.5,59.5C 37.5466,58.2393 35.5466,57.0726 33.5,56C 35.5017,51.0808 34.5017,49.9141 30.5,52.5C 27.6265,47.1567 25.2932,47.4901 23.5,53.5C 22.8165,53.1373 22.1499,52.8039 21.5,52.5C 20.791,51.596 19.791,51.2627 18.5,51.5C 18.9528,50.5416 19.6195,49.7083 20.5,49C 24.4065,47.566 28.4065,47.2327 32.5,48C 34.3911,49.4424 36.3911,50.6091 38.5,51.5 Z"/></g>
<g><path style="opacity:1" fill="#a89883" d="M 38.5,53.5 C 38.5,54.5 38.5,55.5 38.5,56.5C 35.316,56.6678 34.816,55.3345 37,52.5C 37.3826,53.056 37.8826,53.3893 38.5,53.5 Z"/></g>
<g><path style="opacity:1" fill="#5f4d38" d="M 67.5,48.5 C 67.2287,50.3117 66.562,51.9783 65.5,53.5C 60.9946,50.4152 58.9946,51.4152 59.5,56.5C 60.5,53.8333 61.5,53.8333 62.5,56.5C 61.1502,57.9501 59.4835,58.6168 57.5,58.5C 57.5,59.5 57.5,60.5 57.5,61.5C 56.528,62.7514 55.8614,62.418 55.5,60.5C 56.1428,52.5184 60.1428,48.5184 67.5,48.5 Z"/></g>
<g><path style="opacity:1" fill="#64533f" d="M 64.5,68.5 C 64.8966,67.475 65.5632,67.3083 66.5,68C 67.1552,69.4866 68.1552,70.6533 69.5,71.5C 70.7345,67.051 73.0678,66.3843 76.5,69.5C 76.8333,69 77.1667,68.5 77.5,68C 76.1439,66.4329 75.4772,64.5996 75.5,62.5C 74.71,63.6085 74.21,64.9419 74,66.5C 73.3292,65.7476 72.4959,65.4142 71.5,65.5C 71.189,66.4778 70.5223,67.1445 69.5,67.5C 67.5979,65.8489 65.5979,65.5155 63.5,66.5C 63.9353,64.4583 63.2686,62.4583 61.5,60.5C 62.934,58.7801 63.7674,56.7801 64,54.5C 66.9294,55.2761 68.596,53.9427 69,50.5C 69.3333,51.8333 69.6667,53.1667 70,54.5C 70.6776,52.4024 70.5109,50.4024 69.5,48.5C 75.8506,47.2186 80.0173,50.2186 82,57.5C 82.8085,68.8603 77.6418,73.8603 66.5,72.5C 65.8201,71.1401 65.1534,69.8068 64.5,68.5 Z"/></g>
<g><path style="opacity:1" fill="#c5b694" d="M 75.5,62.5 C 75.4142,61.5041 75.7476,60.6708 76.5,60C 75.0611,57.7754 73.3945,55.7754 71.5,54C 72.3636,52.3035 73.6969,51.1368 75.5,50.5C 76.3635,52.7713 76.3635,55.1046 75.5,57.5C 83.5,59.1667 83.5,60.8333 75.5,62.5 Z"/></g>
<g><path style="opacity:1" fill="#c8b690" d="M 34.5,62.5 C 34.4142,61.5041 34.7476,60.6708 35.5,60C 33.393,58.7365 32.393,56.9032 32.5,54.5C 30.2341,54.8588 28.4007,54.1922 27,52.5C 25.0019,54.8847 22.8352,56.218 20.5,56.5C 20.1667,55.8333 19.8333,55.1667 19.5,54.5C 19.7472,53.2867 20.4138,52.62 21.5,52.5C 22.1499,52.8039 22.8165,53.1373 23.5,53.5C 25.2932,47.4901 27.6265,47.1567 30.5,52.5C 34.5017,49.9141 35.5017,51.0808 33.5,56C 35.5466,57.0726 37.5466,58.2393 39.5,59.5C 38.3115,61.2623 36.6449,62.2623 34.5,62.5 Z"/></g>
<g><path style="opacity:1" fill="#4f4a48" d="M 16.5,48.5 C 17.625,49.3478 17.625,50.3478 16.5,51.5C 15.0937,51.9731 14.427,52.9731 14.5,54.5C 13.7784,54.9175 13.2784,55.5842 13,56.5C 12.502,59.4816 12.3354,62.4816 12.5,65.5C 10.273,58.9904 11.6063,53.3237 16.5,48.5 Z"/></g>
<g><path style="opacity:1" fill="#dad5d2" d="M 14.5,54.5 C 13.3517,58.186 13.3517,61.8527 14.5,65.5C 14.0302,66.463 13.3635,66.463 12.5,65.5C 12.3354,62.4816 12.502,59.4816 13,56.5C 13.2784,55.5842 13.7784,54.9175 14.5,54.5 Z"/></g>
<g><path style="opacity:1" fill="#4d443f" d="M 16.5,67.5 C 15.1667,67.5 14.5,68.1667 14.5,69.5C 13.3263,68.4863 12.6596,67.153 12.5,65.5C 13.3635,66.463 14.0302,66.463 14.5,65.5C 13.3517,61.8527 13.3517,58.186 14.5,54.5C 15.3635,53.537 16.0302,53.537 16.5,54.5C 16.0375,57.4285 15.3709,60.2618 14.5,63C 15.5822,64.3297 16.2488,65.8297 16.5,67.5 Z"/></g>
<g><path style="opacity:1" fill="#8f4738" d="M 26.5,56.5 C 33.3492,58.8932 33.6825,61.5598 27.5,64.5C 23.8606,62.3077 23.5273,59.6411 26.5,56.5 Z"/></g>
<g><path style="opacity:1" fill="#cabebb" d="M 38.5,51.5 C 42.4119,55.7857 43.0786,60.4524 40.5,65.5C 40.665,62.1501 40.4983,58.8168 40,55.5C 39.7216,54.5842 39.2216,53.9175 38.5,53.5C 38.5,52.8333 38.5,52.1667 38.5,51.5 Z"/></g>
<g><path style="opacity:1" fill="#5e5a5a" d="M 39.5,49.5 C 45.0213,57.5259 44.6879,65.3592 38.5,73C 34.6202,75.8634 30.2868,77.0301 25.5,76.5C 27.9542,75.3794 30.6209,74.546 33.5,74C 34.9423,73.6232 35.9423,72.7899 36.5,71.5C 38.435,69.9646 39.7683,67.9646 40.5,65.5C 43.0786,60.4524 42.4119,55.7857 38.5,51.5C 38.3284,50.5084 38.6618,49.8417 39.5,49.5 Z"/></g>
<g><path style="opacity:1" fill="#823b33" d="M 67.5,56.5 C 70.3523,56.3524 72.019,57.6857 72.5,60.5C 71.447,64.7089 69.447,65.3756 66.5,62.5C 66.3253,60.3792 66.6586,58.3792 67.5,56.5 Z"/></g>
<g><path style="opacity:1" fill="#bd9789" d="M 67.5,56.5 C 72.8393,55.368 74.6726,57.7013 73,63.5C 72.2828,64.0442 71.7828,64.7109 71.5,65.5C 66.6452,66.036 64.4786,64.036 65,59.5C 65.2321,60.7375 65.7321,61.7375 66.5,62.5C 69.447,65.3756 71.447,64.7089 72.5,60.5C 72.019,57.6857 70.3523,56.3524 67.5,56.5 Z"/></g>
<g><path style="opacity:1" fill="#c6b38f" d="M 34.5,64.5 C 35.1408,65.4822 35.8075,66.4822 36.5,67.5C 34.2287,68.3635 31.8954,68.3635 29.5,67.5C 30.7311,66.2823 31.8978,64.949 33,63.5C 33.3826,64.056 33.8826,64.3893 34.5,64.5 Z"/></g>
<g><path style="opacity:1" fill="#c7b499" d="M 67.5,48.5 C 68.1667,48.5 68.8333,48.5 69.5,48.5C 70.5109,50.4024 70.6776,52.4024 70,54.5C 69.6667,53.1667 69.3333,51.8333 69,50.5C 68.596,53.9427 66.9294,55.2761 64,54.5C 63.7674,56.7801 62.934,58.7801 61.5,60.5C 63.2686,62.4583 63.9353,64.4583 63.5,66.5C 65.5979,65.5155 67.5979,65.8489 69.5,67.5C 70.5223,67.1445 71.189,66.4778 71.5,65.5C 72.4959,65.4142 73.3292,65.7476 74,66.5C 74.21,64.9419 74.71,63.6085 75.5,62.5C 75.4772,64.5996 76.1439,66.4329 77.5,68C 77.1667,68.5 76.8333,69 76.5,69.5C 73.0678,66.3843 70.7345,67.051 69.5,71.5C 68.1552,70.6533 67.1552,69.4866 66.5,68C 65.5632,67.3083 64.8966,67.475 64.5,68.5C 63.5084,68.3284 62.8417,68.6618 62.5,69.5C 60.2033,68.261 59.87,66.4276 61.5,64C 61.1639,62.9701 60.4972,62.4701 59.5,62.5C 59.1583,61.6618 58.4916,61.3284 57.5,61.5C 57.5,60.5 57.5,59.5 57.5,58.5C 59.4835,58.6168 61.1502,57.9501 62.5,56.5C 61.5,53.8333 60.5,53.8333 59.5,56.5C 58.9946,51.4152 60.9946,50.4152 65.5,53.5C 66.562,51.9783 67.2287,50.3117 67.5,48.5 Z"/></g>
<g><path style="opacity:1" fill="#c4b290" d="M 29.5,67.5 C 29.5,68.8333 29.5,70.1667 29.5,71.5C 28.5,71.5 27.5,71.5 26.5,71.5C 25.5648,67.0368 23.2314,66.3701 19.5,69.5C 17.9979,67.1674 18.4979,65.5007 21,64.5C 22.7215,64.6107 22.8882,65.1107 21.5,66C 24.0075,66.0929 26.1741,66.9262 28,68.5C 28.3826,67.944 28.8826,67.6107 29.5,67.5 Z"/></g>
<g><path style="opacity:1" fill="#615141" d="M 59.5,62.5 C 60.4972,62.4701 61.1639,62.9701 61.5,64C 59.87,66.4276 60.2033,68.261 62.5,69.5C 63.0967,69.7352 63.4301,70.2352 63.5,71C 63.1501,72.2575 62.4835,72.5908 61.5,72C 58.7514,69.6639 57.2514,66.8306 57,63.5C 58.5158,66.0515 59.3491,65.7181 59.5,62.5 Z"/></g>
<g><path style="opacity:1" fill="#98918a" d="M 16.5,67.5 C 17.2543,70.091 18.921,71.9243 21.5,73C 24.8333,73.6667 28.1667,73.6667 31.5,73C 29.6183,72.8019 27.9516,72.3019 26.5,71.5C 27.5,71.5 28.5,71.5 29.5,71.5C 30.2389,71.631 30.9056,71.4643 31.5,71C 30.3044,70.3457 30.3044,69.8457 31.5,69.5C 33.3497,70.2418 34.0164,71.2418 33.5,72.5C 34.4168,71.8728 35.4168,71.5394 36.5,71.5C 35.9423,72.7899 34.9423,73.6232 33.5,74C 30.6209,74.546 27.9542,75.3794 25.5,76.5C 19.989,76.9027 16.3223,74.5694 14.5,69.5C 14.5,68.1667 15.1667,67.5 16.5,67.5 Z"/></g>
<g><path style="opacity:1" fill="#37332c" d="M 36.5,90.5 C 35.8333,90.5 35.1667,90.5 34.5,90.5C 34.0825,89.7784 33.4158,89.2784 32.5,89C 34.3524,88.2274 35.6857,88.7274 36.5,90.5 Z"/></g>
<g><path style="opacity:1" fill="#5c5854" d="M 73.5,87.5 C 63.1891,86.2323 56.6891,90.5656 54,100.5C 53.5357,99.9056 53.369,99.2389 53.5,98.5C 54.469,92.6924 57.8024,88.8591 63.5,87C 67.0267,86.1925 70.3601,86.3592 73.5,87.5 Z"/></g>
<g><path style="opacity:1" fill="#5a4b3b" d="M 34.5,90.5 C 35.1667,91.5 35.8333,92.5 36.5,93.5C 34.1727,93.2471 32.1727,93.9137 30.5,95.5C 29.5668,90.036 26.9001,89.036 22.5,92.5C 23.2739,93.7112 24.1072,93.7112 25,92.5C 25.7494,93.635 25.5827,94.635 24.5,95.5C 23.1667,94.8333 21.8333,94.1667 20.5,93.5C 19.8933,93.6236 19.56,93.9569 19.5,94.5C 17.8947,95.9687 17.3947,95.6354 18,93.5C 19.5185,92.8366 20.6851,91.8366 21.5,90.5C 25.8445,89.2741 30.1779,89.2741 34.5,90.5 Z"/></g>
<g><path style="opacity:1" fill="#cac4bc" d="M 34.5,90.5 C 35.1667,90.5 35.8333,90.5 36.5,90.5C 37.8098,92.1477 39.1431,93.8144 40.5,95.5C 40.3333,95.8333 40.1667,96.1667 40,96.5C 38.9609,95.2899 37.7942,94.2899 36.5,93.5C 35.8333,92.5 35.1667,91.5 34.5,90.5 Z"/></g>
<g><path style="opacity:1" fill="#5f554e" d="M 36.5,90.5 C 39.8486,91.6836 42.0153,94.017 43,97.5C 43.6667,101.167 43.6667,104.833 43,108.5C 42.7996,110.32 41.9663,111.653 40.5,112.5C 42.621,107.519 42.7877,102.519 41,97.5C 40.7083,99.3261 40.875,101.159 41.5,103C 41.0788,105.185 40.5788,107.351 40,109.5C 39.6174,110.056 39.1174,110.389 38.5,110.5C 39.1495,108.565 39.4828,106.565 39.5,104.5C 39.5,102.5 39.5,100.5 39.5,98.5C 36.4017,98.4125 36.0684,98.9125 38.5,100C 36.9262,100.699 35.5929,100.365 34.5,99C 35.464,97.2745 36.1307,95.4412 36.5,93.5C 37.7942,94.2899 38.9609,95.2899 40,96.5C 40.1667,96.1667 40.3333,95.8333 40.5,95.5C 39.1431,93.8144 37.8098,92.1477 36.5,90.5 Z"/></g>
<g><path style="opacity:1" fill="#674132" d="M 32.5,99.5 C 29.8229,98.3855 27.1562,98.3855 24.5,99.5C 25.325,100.386 26.325,100.719 27.5,100.5C 27.2606,102.467 27.5939,104.301 28.5,106C 26.9343,106.3 25.601,105.8 24.5,104.5C 24.3059,100.995 23.3059,100.662 21.5,103.5C 20.7611,103.631 20.0944,103.464 19.5,103C 21.607,101.736 22.607,99.9032 22.5,97.5C 25.5258,96.4233 28.5258,96.4233 31.5,97.5C 32.2975,97.9569 32.6309,98.6236 32.5,99.5 Z"/></g>
<g><path style="opacity:1" fill="#746a61" d="M 21.5,90.5 C 20.6851,91.8366 19.5185,92.8366 18,93.5C 17.3947,95.6354 17.8947,95.9687 19.5,94.5C 20.1495,96.4352 20.4828,98.4352 20.5,100.5C 18.5165,100.383 16.8498,101.05 15.5,102.5C 15.4877,104.412 15.821,106.412 16.5,108.5C 16.0302,109.463 15.3635,109.463 14.5,108.5C 14.477,106.073 13.977,103.74 13,101.5C 12.9605,103.724 12.7938,105.724 12.5,107.5C 10.0357,98.5718 13.0357,92.0718 21.5,88C 24.8333,87.3333 28.1667,87.3333 31.5,88C 27.8211,88.0265 24.4878,88.8598 21.5,90.5 Z"/></g>
<g><path style="opacity:1" fill="#96918a" d="M 73.5,87.5 C 81.1767,89.6361 85.1767,94.8028 85.5,103C 82.5033,115.964 74.5033,120.631 61.5,117C 54.8081,112.387 52.1415,106.22 53.5,98.5C 53.369,99.2389 53.5357,99.9056 54,100.5C 56.6891,90.5656 63.1891,86.2323 73.5,87.5 Z"/></g>
<g><path style="opacity:1" fill="#b3a388" d="M 36.5,93.5 C 36.1307,95.4412 35.464,97.2745 34.5,99C 35.5929,100.365 36.9262,100.699 38.5,100C 36.0684,98.9125 36.4017,98.4125 39.5,98.5C 39.5,100.5 39.5,102.5 39.5,104.5C 38.0695,104.421 36.7362,104.754 35.5,105.5C 34.2888,104.726 34.2888,103.893 35.5,103C 34.8366,101.482 33.8366,100.315 32.5,99.5C 32.6309,98.6236 32.2975,97.9569 31.5,97.5C 28.5258,96.4233 25.5258,96.4233 22.5,97.5C 22.607,99.9032 21.607,101.736 19.5,103C 20.0944,103.464 20.7611,103.631 21.5,103.5C 22.038,105.117 22.3713,106.784 22.5,108.5C 24.4835,108.383 26.1502,109.05 27.5,110.5C 29.2857,108.979 31.119,108.646 33,109.5C 33.3333,108.5 33.6667,107.5 34,106.5C 35.5588,108.217 36.3921,110.217 36.5,112.5C 34.5165,112.617 32.8498,111.95 31.5,110.5C 29.8888,111.32 29.2222,112.654 29.5,114.5C 27.0835,114.039 25.2502,112.706 24,110.5C 18.7145,112.304 17.5479,110.971 20.5,106.5C 20.1667,106.167 19.8333,105.833 19.5,105.5C 16.9563,108.6 16.9563,111.6 19.5,114.5C 16.4384,113.732 14.7717,111.732 14.5,108.5C 15.3635,109.463 16.0302,109.463 16.5,108.5C 15.821,106.412 15.4877,104.412 15.5,102.5C 16.8498,101.05 18.5165,100.383 20.5,100.5C 20.4828,98.4352 20.1495,96.4352 19.5,94.5C 19.56,93.9569 19.8933,93.6236 20.5,93.5C 21.8333,94.1667 23.1667,94.8333 24.5,95.5C 25.5827,94.635 25.7494,93.635 25,92.5C 24.1072,93.7112 23.2739,93.7112 22.5,92.5C 26.9001,89.036 29.5668,90.036 30.5,95.5C 32.1727,93.9137 34.1727,93.2471 36.5,93.5 Z"/></g>
<g><path style="opacity:1" fill="#ab7163" d="M 32.5,99.5 C 34.0171,107.151 31.1838,109.484 24,106.5C 23.3083,105.563 23.475,104.897 24.5,104.5C 25.601,105.8 26.9343,106.3 28.5,106C 27.5939,104.301 27.2606,102.467 27.5,100.5C 26.325,100.719 25.325,100.386 24.5,99.5C 27.1562,98.3855 29.8229,98.3855 32.5,99.5 Z"/></g>
<g><path style="opacity:1" fill="#655640" d="M 65.5,88.5 C 76.9677,87.8103 82.4677,93.1436 82,104.5C 79.0124,114.813 72.5124,117.98 62.5,114C 52.6692,104.162 53.6692,95.6615 65.5,88.5 Z"/></g>
<g><path style="opacity:1" fill="#bfaf91" d="M 66.5,95.5 C 65.352,96.1641 64.0187,96.3308 62.5,96C 64.1397,98.7758 63.473,100.776 60.5,102C 62.6766,103.186 63.6766,105.019 63.5,107.5C 65.9928,107.329 67.8261,108.329 69,110.5C 69.3333,110.167 69.6667,109.833 70,109.5C 70.7737,111.403 70.4404,113.07 69,114.5C 67.8333,112.833 66.6667,111.167 65.5,109.5C 64.2638,110.246 62.9305,110.579 61.5,110.5C 61.3573,108.738 61.6906,107.071 62.5,105.5C 55.8333,103.167 55.8333,100.833 62.5,98.5C 59.7077,93.1566 61.0411,92.1566 66.5,95.5 Z"/></g>
<g><path style="opacity:1" fill="#bda88b" d="M 71.5,98.5 C 66.7863,98.2008 65.1196,100.201 66.5,104.5C 67.9492,105.172 69.2825,105.839 70.5,106.5C 68.1993,107.788 66.366,107.121 65,104.5C 63.8132,99.8421 65.6465,97.1755 70.5,96.5C 70,95.5 69.5,94.5 69,93.5C 68.5831,94.756 67.7498,95.4226 66.5,95.5C 67.4124,94.2618 67.5791,92.9285 67,91.5C 63.6539,92.0891 63.6539,91.4224 67,89.5C 70.0701,90.2958 71.7367,92.2958 72,95.5C 77.134,91.1285 78.3006,91.9619 75.5,98C 76.8333,98.3333 78.1667,98.6667 79.5,99C 80.0219,99.5613 80.3552,100.228 80.5,101C 79.1667,102.333 77.8333,103.667 76.5,105C 77.0294,106.559 77.696,108.059 78.5,109.5C 76.081,110.895 74.081,110.395 72.5,108C 75.2172,107.957 75.8839,106.957 74.5,105C 74.9504,103.715 75.6171,102.548 76.5,101.5C 75.0451,99.7801 74.2117,97.7801 74,95.5C 72.583,96.0779 71.7496,97.0779 71.5,98.5 Z"/></g>
<g><path style="opacity:1" fill="#944e45" d="M 71.5,98.5 C 72.7251,99.1522 73.3917,100.319 73.5,102C 73.9497,104.626 72.9497,106.126 70.5,106.5C 69.2825,105.839 67.9492,105.172 66.5,104.5C 65.1196,100.201 66.7863,98.2008 71.5,98.5 Z"/></g>
<g><path style="opacity:1" fill="#685843" d="M 32.5,99.5 C 33.8366,100.315 34.8366,101.482 35.5,103C 34.2888,103.893 34.2888,104.726 35.5,105.5C 36.7362,104.754 38.0695,104.421 39.5,104.5C 39.4828,106.565 39.1495,108.565 38.5,110.5C 37.6411,113.452 35.6411,115.285 32.5,116C 27.9735,116.849 23.6402,116.349 19.5,114.5C 16.9563,111.6 16.9563,108.6 19.5,105.5C 19.8333,105.833 20.1667,106.167 20.5,106.5C 17.5479,110.971 18.7145,112.304 24,110.5C 25.2502,112.706 27.0835,114.039 29.5,114.5C 29.2222,112.654 29.8888,111.32 31.5,110.5C 32.8498,111.95 34.5165,112.617 36.5,112.5C 36.3921,110.217 35.5588,108.217 34,106.5C 33.6667,107.5 33.3333,108.5 33,109.5C 31.119,108.646 29.2857,108.979 27.5,110.5C 26.1502,109.05 24.4835,108.383 22.5,108.5C 22.3713,106.784 22.038,105.117 21.5,103.5C 23.3059,100.662 24.3059,100.995 24.5,104.5C 23.475,104.897 23.3083,105.563 24,106.5C 31.1838,109.484 34.0171,107.151 32.5,99.5 Z"/></g>
<g><path style="opacity:1" fill="#9e9791" d="M 40.5,112.5 C 40.2624,114.404 39.2624,115.738 37.5,116.5C 37.44,115.957 37.1067,115.624 36.5,115.5C 31.9241,118.08 27.2574,119.08 22.5,118.5C 17.0612,116.729 13.7279,113.062 12.5,107.5C 12.7938,105.724 12.9605,103.724 13,101.5C 13.977,103.74 14.477,106.073 14.5,108.5C 14.7717,111.732 16.4384,113.732 19.5,114.5C 23.6402,116.349 27.9735,116.849 32.5,116C 35.6411,115.285 37.6411,113.452 38.5,110.5C 39.1174,110.389 39.6174,110.056 40,109.5C 40.5788,107.351 41.0788,105.185 41.5,103C 40.875,101.159 40.7083,99.3261 41,97.5C 42.7877,102.519 42.621,107.519 40.5,112.5 Z"/></g>
<g><path style="opacity:1" fill="#5a5351" d="M 37.5,116.5 C 32.7969,119.41 27.7969,120.077 22.5,118.5C 27.2574,119.08 31.9241,118.08 36.5,115.5C 37.1067,115.624 37.44,115.957 37.5,116.5 Z"/></g>
<g><path style="opacity:1" fill="#817a75" d="M 41.5,149.5 C 44.1065,140.642 41.4399,133.975 33.5,129.5C 32.8933,129.624 32.56,129.957 32.5,130.5C 30.901,130.232 29.5676,130.566 28.5,131.5C 27.8333,131.5 27.1667,131.5 26.5,131.5C 22.6161,130.194 19.1161,131.527 16,135.5C 14.692,138.73 13.692,142.064 13,145.5C 12.4127,141.69 12.9127,138.023 14.5,134.5C 17.2699,129.601 21.6033,126.934 27.5,126.5C 39.501,128.514 44.6676,135.514 43,147.5C 42.7216,148.416 42.2216,149.082 41.5,149.5 Z"/></g>
<g><path style="opacity:1" fill="#ada5a2" d="M 32.5,130.5 C 32.56,129.957 32.8933,129.624 33.5,129.5C 41.4399,133.975 44.1065,140.642 41.5,149.5C 41.6716,150.492 41.3382,151.158 40.5,151.5C 39.8333,151.833 39.1667,152.167 38.5,152.5C 43.1887,143.256 41.1887,135.923 32.5,130.5 Z"/></g>
<g><path style="opacity:1" fill="#6e5a47" d="M 26.5,131.5 C 25.9437,135.905 24.1103,136.572 21,133.5C 18.9676,134.698 17.4676,136.365 16.5,138.5C 17.664,138.165 18.9974,138.165 20.5,138.5C 19.1502,139.95 17.4835,140.617 15.5,140.5C 15.281,141.675 15.6143,142.675 16.5,143.5C 18.0016,144.083 19.3349,144.916 20.5,146C 18.8446,147.444 18.178,149.278 18.5,151.5C 20.0603,151.481 21.5603,151.148 23,150.5C 24.3307,151.996 25.8307,153.329 27.5,154.5C 28.7362,152.966 29.2362,151.3 29,149.5C 28.586,149.957 28.086,150.291 27.5,150.5C 25.8273,148.914 23.8273,148.247 21.5,148.5C 21.7711,146.179 21.1045,144.179 19.5,142.5C 22.4851,137.337 26.8185,135.67 32.5,137.5C 32.393,139.903 33.393,141.736 35.5,143C 33.9544,145.257 32.2877,147.424 30.5,149.5C 31.4209,151.756 33.0876,152.756 35.5,152.5C 35.6427,150.738 35.3094,149.071 34.5,147.5C 35.9448,145.937 37.6115,144.604 39.5,143.5C 37.8333,142.167 36.1667,140.833 34.5,139.5C 35.3094,137.929 35.6427,136.262 35.5,134.5C 33.5,134.833 31.5,135.167 29.5,135.5C 29.7678,133.901 29.4345,132.568 28.5,131.5C 29.5676,130.566 30.901,130.232 32.5,130.5C 41.1887,135.923 43.1887,143.256 38.5,152.5C 36.9826,152.511 35.8159,153.177 35,154.5C 33.6667,153.833 32.3333,153.167 31,152.5C 29.7705,153.275 29.4372,154.275 30,155.5C 31.0495,154.483 32.2161,154.316 33.5,155C 24.2695,158.369 17.7695,155.536 14,146.5C 13.4644,148.567 13.9644,150.401 15.5,152C 15.2716,152.399 14.9382,152.565 14.5,152.5C 11.7044,147.96 10.871,142.96 12,137.5C 12.3768,136.058 13.2101,135.058 14.5,134.5C 12.9127,138.023 12.4127,141.69 13,145.5C 13.692,142.064 14.692,138.73 16,135.5C 19.1161,131.527 22.6161,130.194 26.5,131.5 Z"/></g>
<g><path style="opacity:1" fill="#b6a484" d="M 26.5,131.5 C 27.1667,131.5 27.8333,131.5 28.5,131.5C 29.4345,132.568 29.7678,133.901 29.5,135.5C 31.5,135.167 33.5,134.833 35.5,134.5C 35.6427,136.262 35.3094,137.929 34.5,139.5C 36.1667,140.833 37.8333,142.167 39.5,143.5C 37.6115,144.604 35.9448,145.937 34.5,147.5C 35.3094,149.071 35.6427,150.738 35.5,152.5C 33.0876,152.756 31.4209,151.756 30.5,149.5C 32.2877,147.424 33.9544,145.257 35.5,143C 33.393,141.736 32.393,139.903 32.5,137.5C 26.8185,135.67 22.4851,137.337 19.5,142.5C 21.1045,144.179 21.7711,146.179 21.5,148.5C 23.8273,148.247 25.8273,148.914 27.5,150.5C 28.086,150.291 28.586,149.957 29,149.5C 29.2362,151.3 28.7362,152.966 27.5,154.5C 25.8307,153.329 24.3307,151.996 23,150.5C 21.5603,151.148 20.0603,151.481 18.5,151.5C 18.178,149.278 18.8446,147.444 20.5,146C 19.3349,144.916 18.0016,144.083 16.5,143.5C 15.6143,142.675 15.281,141.675 15.5,140.5C 17.4835,140.617 19.1502,139.95 20.5,138.5C 18.9974,138.165 17.664,138.165 16.5,138.5C 17.4676,136.365 18.9676,134.698 21,133.5C 24.1103,136.572 25.9437,135.905 26.5,131.5 Z"/></g>
<g><path style="opacity:1" fill="#984944" d="M 25.5,140.5 C 31.2093,139.678 32.5427,141.511 29.5,146C 24.7282,146.81 23.3948,144.977 25.5,140.5 Z"/></g>
<g><path style="opacity:1" fill="#86807b" d="M 63.5,127.5 C 78.7932,126.294 85.9598,133.294 85,148.5C 78.7432,159.87 69.9099,162.37 58.5,156C 49.3537,144.511 51.0204,135.011 63.5,127.5 Z"/></g>
<g><path style="opacity:1" fill="#bdac8e" d="M 69.5,131.5 C 69.8333,131.5 70.1667,131.5 70.5,131.5C 71.4345,132.568 71.7678,133.901 71.5,135.5C 73.5,135.167 75.5,134.833 77.5,134.5C 77.6168,136.484 76.9501,138.15 75.5,139.5C 77.0147,141.082 78.6814,142.416 80.5,143.5C 80.5,143.833 80.5,144.167 80.5,144.5C 79.1225,145.234 77.6225,145.901 76,146.5C 75.8195,148.488 75.9862,150.488 76.5,152.5C 74.3146,152.296 72.3146,151.63 70.5,150.5C 70.5,151.5 70.5,152.5 70.5,153.5C 69.8501,153.804 69.1835,154.137 68.5,154.5C 67.2092,152.903 65.7092,151.57 64,150.5C 62.5603,151.148 61.0603,151.481 59.5,151.5C 59.5861,149.323 60.2528,147.323 61.5,145.5C 60.0986,144.479 58.7653,143.479 57.5,142.5C 57.5,141.833 57.5,141.167 57.5,140.5C 58.8734,140.657 60.2068,140.49 61.5,140C 62.4506,139.282 62.6172,138.449 62,137.5C 60.8173,138.731 59.6507,138.731 58.5,137.5C 59.325,136.614 60.325,136.281 61.5,136.5C 61.281,135.325 61.6143,134.325 62.5,133.5C 63.8333,134.167 65.1667,134.833 66.5,135.5C 67.1497,133.816 68.1497,132.483 69.5,131.5 Z"/></g>
<g><path style="opacity:1" fill="#6c563f" d="M 70.5,150.5 C 68.4017,151.914 67.4017,151.248 67.5,148.5C 65.4247,148.698 63.4247,148.865 61.5,149C 63.9733,146.92 63.9733,144.754 61.5,142.5C 63.756,141.579 64.756,139.912 64.5,137.5C 66.9806,137.677 68.8139,136.677 70,134.5C 70.4828,135.448 70.6495,136.448 70.5,137.5C 71.8333,137.5 73.1667,137.5 74.5,137.5C 73.9738,140.808 75.3072,142.974 78.5,144C 75.1433,144.463 73.81,146.13 74.5,149C 72.9419,149.21 71.6085,149.71 70.5,150.5 Z"/></g>
<g><path style="opacity:1" fill="#8a3a32" d="M 66.5,145.5 C 65.9285,144.027 65.9285,142.36 66.5,140.5C 69.4518,139.308 71.4518,140.308 72.5,143.5C 71.0907,146.347 69.0907,147.013 66.5,145.5 Z"/></g>
<g><path style="opacity:1" fill="#b68578" d="M 67.5,148.5 C 66.9094,147.849 66.2427,147.182 65.5,146.5C 65.6236,145.893 65.9569,145.56 66.5,145.5C 69.0907,147.013 71.0907,146.347 72.5,143.5C 71.4518,140.308 69.4518,139.308 66.5,140.5C 70.2026,137.47 72.8693,138.47 74.5,143.5C 73.4086,146.881 71.0753,148.548 67.5,148.5 Z"/></g>
<g><path style="opacity:1" fill="#625540" d="M 69.5,131.5 C 68.1497,132.483 67.1497,133.816 66.5,135.5C 65.1667,134.833 63.8333,134.167 62.5,133.5C 61.6143,134.325 61.281,135.325 61.5,136.5C 60.325,136.281 59.325,136.614 58.5,137.5C 59.6507,138.731 60.8173,138.731 62,137.5C 62.6172,138.449 62.4506,139.282 61.5,140C 60.2068,140.49 58.8734,140.657 57.5,140.5C 56.6561,136.999 57.9895,134.166 61.5,132C 62.9663,131.365 64.2997,130.531 65.5,129.5C 66.1924,130.025 66.6924,130.692 67,131.5C 67.9772,130.226 68.8106,130.226 69.5,131.5 Z"/></g>
<g><path style="opacity:1" fill="#685942" d="M 70.5,131.5 C 73.7575,130.448 76.5909,131.448 79,134.5C 80.6965,136.56 81.8631,138.893 82.5,141.5C 82.2528,142.713 81.5862,143.38 80.5,143.5C 78.6814,142.416 77.0147,141.082 75.5,139.5C 76.9501,138.15 77.6168,136.484 77.5,134.5C 75.5,134.833 73.5,135.167 71.5,135.5C 71.7678,133.901 71.4345,132.568 70.5,131.5 Z"/></g>
<g><path style="opacity:1" fill="#625641" d="M 57.5,142.5 C 58.7653,143.479 60.0986,144.479 61.5,145.5C 60.2528,147.323 59.5861,149.323 59.5,151.5C 61.0603,151.481 62.5603,151.148 64,150.5C 65.7092,151.57 67.2092,152.903 68.5,154.5C 69.1835,154.137 69.8501,153.804 70.5,153.5C 70.8807,154.931 71.8807,155.764 73.5,156C 66.3807,157.933 61.0473,155.766 57.5,149.5C 58.2132,146.871 58.2132,144.537 57.5,142.5 Z"/></g>
<g><path style="opacity:1" fill="#5c4e3f" d="M 80.5,144.5 C 81.2389,144.369 81.9056,144.536 82.5,145C 81.7124,148.463 80.0457,151.463 77.5,154C 75.0529,153.59 72.7195,153.424 70.5,153.5C 70.5,152.5 70.5,151.5 70.5,150.5C 72.3146,151.63 74.3146,152.296 76.5,152.5C 75.9862,150.488 75.8195,148.488 76,146.5C 77.6225,145.901 79.1225,145.234 80.5,144.5 Z"/></g>
<g><path style="opacity:1" fill="#ada59f" d="M 38.5,152.5 C 37.1064,154.708 35.1064,156.208 32.5,157C 28.1294,157.629 23.796,157.463 19.5,156.5C 17.2512,155.92 15.5846,154.587 14.5,152.5C 14.9382,152.565 15.2716,152.399 15.5,152C 13.9644,150.401 13.4644,148.567 14,146.5C 17.7695,155.536 24.2695,158.369 33.5,155C 32.2161,154.316 31.0495,154.483 30,155.5C 29.4372,154.275 29.7705,153.275 31,152.5C 32.3333,153.167 33.6667,153.833 35,154.5C 35.8159,153.177 36.9826,152.511 38.5,152.5 Z"/></g>
<g><path style="opacity:1" fill="#747171" d="M 40.5,151.5 C 38.7945,155.379 35.7945,157.879 31.5,159C 29.1667,159.667 26.8333,159.667 24.5,159C 22.3474,158.901 20.6808,158.067 19.5,156.5C 23.796,157.463 28.1294,157.629 32.5,157C 35.1064,156.208 37.1064,154.708 38.5,152.5C 39.1667,152.167 39.8333,151.833 40.5,151.5 Z"/></g>
</svg>
