<?xml version="1.0" encoding="UTF-8"?>
<!DOCTYPE svg PUBLIC "-//W3C//DTD SVG 1.1//EN" "http://www.w3.org/Graphics/SVG/1.1/DTD/svg11.dtd">
<svg xmlns="http://www.w3.org/2000/svg" version="1.1" width="100px" height="165px" style="shape-rendering:geometricPrecision; text-rendering:geometricPrecision; image-rendering:optimizeQuality; fill-rule:evenodd; clip-rule:evenodd" xmlns:xlink="http://www.w3.org/1999/xlink">
<g><path style="opacity:1" fill="#fafafa" d="M -0.5,-0.5 C 32.8333,-0.5 66.1667,-0.5 99.5,-0.5C 99.5,54.5 99.5,109.5 99.5,164.5C 66.1667,164.5 32.8333,164.5 -0.5,164.5C -0.5,109.5 -0.5,54.5 -0.5,-0.5 Z"/></g>
<g><path style="opacity:1" fill="#594e44" d="M 74.5,5.5 C 74.5,6.83333 74.5,8.16667 74.5,9.5C 72.8007,9.47291 71.4674,8.80624 70.5,7.5C 70.9577,4.69087 72.2911,4.02421 74.5,5.5 Z"/></g>
<g><path style="opacity:1" fill="#a59787" d="M 74.5,5.5 C 75.4614,7.26465 75.7947,9.26465 75.5,11.5C 72.1438,12.2596 70.1438,14.2596 69.5,17.5C 69.3424,14.0977 69.6758,10.7644 70.5,7.5C 71.4674,8.80624 72.8007,9.47291 74.5,9.5C 74.5,8.16667 74.5,6.83333 74.5,5.5 Z"/></g>
<g><path style="opacity:1" fill="#623a38" d="M 75.5,11.5 C 75.4606,12.5832 75.1272,13.5832 74.5,14.5C 76.2242,17.95 76.8909,21.6166 76.5,25.5C 74.857,25.5198 73.5237,24.8532 72.5,23.5C 71.7348,24.6119 70.7348,25.2786 69.5,25.5C 68.5033,22.6717 68.5033,20.005 69.5,17.5C 70.1438,14.2596 72.1438,12.2596 75.5,11.5 Z"/></g>
<g><path style="opacity:1" fill="#c3ac80" d="M 47.5,8.5 C 46.7254,19.3636 46.7254,30.1969 47.5,41C 47.0496,42.2853 46.3829,43.452 45.5,44.5C 45.9569,45.2975 46.6236,45.6309 47.5,45.5C 47.5271,47.1993 48.1938,48.5326 49.5,49.5C 47.8333,49.5 46.1667,49.5 44.5,49.5C 44.3334,36.4957 44.5001,23.4957 45,10.5C 45.7083,9.61947 46.5416,8.9528 47.5,8.5 Z"/></g>
<g><path style="opacity:1" fill="#8b856d" d="M 51.5,9.5 C 52.4944,19.9869 52.8278,30.6536 52.5,41.5C 52.1667,41.5 51.8333,41.5 51.5,41.5C 50.9619,30.6575 50.9619,19.9908 51.5,9.5 Z"/></g>
<g><path style="opacity:1" fill="#897538" d="M 47.5,8.5 C 48.1667,8.5 48.8333,8.5 49.5,8.5C 48.1899,20.105 48.1899,31.7716 49.5,43.5C 50.5223,43.1445 51.189,42.4778 51.5,41.5C 51.8333,41.5 52.1667,41.5 52.5,41.5C 52.5,42.8333 52.5,44.1667 52.5,45.5C 50.8333,45.5 49.1667,45.5 47.5,45.5C 46.6236,45.6309 45.9569,45.2975 45.5,44.5C 46.3829,43.452 47.0496,42.2853 47.5,41C 46.7254,30.1969 46.7254,19.3636 47.5,8.5 Z"/></g>
<g><path style="opacity:1" fill="#a19573" d="M 76.5,25.5 C 81.3875,25.9266 83.3875,28.5932 82.5,33.5C 80.7839,33.6287 79.1172,33.962 77.5,34.5C 77.5,33.1667 77.5,31.8333 77.5,30.5C 75.7085,30.634 74.0418,30.3007 72.5,29.5C 71.209,29.2627 70.209,29.596 69.5,30.5C 68.5987,31.2905 67.9321,32.2905 67.5,33.5C 66.5,33.5 65.5,33.5 64.5,33.5C 62.6011,28.6339 64.2677,25.9673 69.5,25.5C 70.7348,25.2786 71.7348,24.6119 72.5,23.5C 73.5237,24.8532 74.857,25.5198 76.5,25.5 Z"/></g>
<g><path style="opacity:1" fill="#746649" d="M 49.5,7.5 C 49.5,7.83333 49.5,8.16667 49.5,8.5C 48.8333,8.5 48.1667,8.5 47.5,8.5C 46.5416,8.9528 45.7083,9.61947 45,10.5C 44.5001,23.4957 44.3334,36.4957 44.5,49.5C 43.8333,49.5 43.1667,49.5 42.5,49.5C 42.3739,47.8002 41.7073,46.3002 40.5,45C 41.1021,43.437 41.9354,43.6037 43,45.5C 43.49,44.2068 43.6567,42.8734 43.5,41.5C 43.1679,30.4798 43.5012,19.4798 44.5,8.5C 45.7193,7.73659 46.7193,6.73659 47.5,5.5C 48.1818,6.24269 48.8485,6.90935 49.5,7.5 Z"/></g>
<g><path style="opacity:1" fill="#d2c589" d="M 49.5,7.5 C 50.5,7.83333 51.1667,8.5 51.5,9.5C 50.9619,19.9908 50.9619,30.6575 51.5,41.5C 51.189,42.4778 50.5223,43.1445 49.5,43.5C 48.1899,31.7716 48.1899,20.105 49.5,8.5C 49.5,8.16667 49.5,7.83333 49.5,7.5 Z"/></g>
<g><path style="opacity:1" fill="#9f9b84" d="M 43.5,41.5 C 43.6567,42.8734 43.49,44.2068 43,45.5C 41.9354,43.6037 41.1021,43.437 40.5,45C 41.7073,46.3002 42.3739,47.8002 42.5,49.5C 39.6803,48.5353 38.3469,46.5353 38.5,43.5C 39.4991,40.8259 41.1658,40.1592 43.5,41.5 Z"/></g>
<g><path style="opacity:1" fill="#96957f" d="M 52.5,41.5 C 54.1667,41.5 55.8333,41.5 57.5,41.5C 57.6621,43.5273 57.4955,45.5273 57,47.5C 52.8719,49.9148 51.3719,53.5815 52.5,58.5C 52.1667,58.5 51.8333,58.5 51.5,58.5C 52.0545,54.9878 51.3878,51.9878 49.5,49.5C 48.1938,48.5326 47.5271,47.1993 47.5,45.5C 49.1667,45.5 50.8333,45.5 52.5,45.5C 52.5,44.1667 52.5,42.8333 52.5,41.5 Z"/></g>
<g><path style="opacity:1" fill="#f6f4f0" d="M 22.5,5.5 C 25.0031,4.2368 27.3364,4.7368 29.5,7C 29.0253,12.6533 28.692,18.4866 28.5,24.5C 31.1667,24.5 33.8333,24.5 36.5,24.5C 37.5862,28.1782 37.5862,31.8449 36.5,35.5C 34.0193,34.508 32.5193,35.508 32,38.5C 30.6325,36.1854 29.7991,36.1854 29.5,38.5C 30.0372,39.7412 30.7039,40.9079 31.5,42C 30.6705,43.4651 30.5038,44.9651 31,46.5C 31.3333,46.1667 31.6667,45.8333 32,45.5C 33.9869,47.6791 33.8202,49.5124 31.5,51C 39.1322,57.5426 41.1322,56.0426 37.5,46.5C 37.5195,45.2739 37.8529,44.2739 38.5,43.5C 38.3469,46.5353 39.6803,48.5353 42.5,49.5C 43.1667,49.5 43.8333,49.5 44.5,49.5C 44.3424,52.9023 44.6758,56.2356 45.5,59.5C 45.3354,62.5184 45.502,65.5184 46,68.5C 47.3561,69.3802 48.8561,69.7135 50.5,69.5C 50.9422,65.8455 51.2756,62.1788 51.5,58.5C 51.8333,58.5 52.1667,58.5 52.5,58.5C 52.665,61.8499 52.4983,65.1832 52,68.5C 50.566,70.1355 48.7326,71.1355 46.5,71.5C 45.3961,72.6313 45.7295,73.4646 47.5,74C 46.8333,74.3333 46.1667,74.6667 45.5,75C 55.1667,75.3333 64.8333,75.6667 74.5,76C 77.2813,76.5218 79.6146,77.6885 81.5,79.5C 80.8333,79.5 80.1667,79.5 79.5,79.5C 67.011,78.5046 54.3443,78.1713 41.5,78.5C 41.7242,72.9473 39.3909,71.4473 34.5,74C 33.6634,75.0113 33.33,76.1779 33.5,77.5C 30.5701,78.299 27.5701,78.6323 24.5,78.5C 24.8769,76.742 25.5435,75.0754 26.5,73.5C 24.2188,71.4471 21.7188,69.7805 19,68.5C 15.8813,62.4241 15.7146,56.2574 18.5,50C 17.7819,46.5395 17.2819,43.0395 17,39.5C 16.7591,47.6919 15.7591,55.6919 14,63.5C 12.2072,52.2198 12.0405,41.3865 13.5,31C 11.3546,29.1825 11.3546,27.6825 13.5,26.5C 13.1667,25.8333 12.8333,25.1667 12.5,24.5C 13.9223,23.4528 15.4223,23.4528 17,24.5C 17.9454,24.0946 18.6121,23.428 19,22.5C 19.8013,17.4338 19.6346,12.4338 18.5,7.5C 19.7824,7.91248 20.7824,7.24581 21.5,5.5C 21.2962,8.51763 20.9629,11.5176 20.5,14.5C 20.5,18.1667 20.5,21.8333 20.5,25.5C 15.7711,26.0498 14.1045,28.5498 15.5,33C 16.7932,33.49 18.1266,33.6567 19.5,33.5C 19.5,38.1667 19.5,42.8333 19.5,47.5C 19.3338,53.5092 19.5005,59.5092 20,65.5C 21.3333,66.8333 22.6667,68.1667 24,69.5C 25.3333,68.1667 26.6667,66.8333 28,65.5C 28.4998,55.172 28.6665,44.8387 28.5,34.5C 29.29,33.3915 29.79,32.0581 30,30.5C 30.4828,31.448 30.6495,32.448 30.5,33.5C 31.5,33.5 32.5,33.5 33.5,33.5C 34.658,28.8907 32.9914,26.2241 28.5,25.5C 27.8333,25.5 27.5,25.1667 27.5,24.5C 27.81,21.2869 27.4767,18.2869 26.5,15.5C 27.2466,12.2475 27.2466,8.91413 26.5,5.5C 25.1667,5.5 23.8333,5.5 22.5,5.5 Z"/></g>
<g><path style="opacity:1" fill="#b09c7d" d="M 20.5,25.5 C 23.1667,26.8333 25.8333,26.8333 28.5,25.5C 32.9914,26.2241 34.658,28.8907 33.5,33.5C 32.5,33.5 31.5,33.5 30.5,33.5C 30.6495,32.448 30.4828,31.448 30,30.5C 29.79,32.0581 29.29,33.3915 28.5,34.5C 28.7678,32.901 28.4345,31.5676 27.5,30.5C 24.8333,30.5 22.1667,30.5 19.5,30.5C 19.5,31.5 19.5,32.5 19.5,33.5C 18.1266,33.6567 16.7932,33.49 15.5,33C 14.1045,28.5498 15.7711,26.0498 20.5,25.5 Z"/></g>
<g><path style="opacity:1" fill="#735335" d="M 26.5,15.5 C 25.7519,17.7349 24.9186,17.4016 24,14.5C 22.044,17.3088 21.544,20.3088 22.5,23.5C 24.0453,24.4519 25.712,24.7852 27.5,24.5C 27.5,25.1667 27.8333,25.5 28.5,25.5C 25.8333,26.8333 23.1667,26.8333 20.5,25.5C 20.5,21.8333 20.5,18.1667 20.5,14.5C 22.9253,12.8806 24.9253,13.2139 26.5,15.5 Z"/></g>
<g><path style="opacity:1" fill="#9c775e" d="M 26.5,15.5 C 27.4767,18.2869 27.81,21.2869 27.5,24.5C 25.712,24.7852 24.0453,24.4519 22.5,23.5C 21.544,20.3088 22.044,17.3088 24,14.5C 24.9186,17.4016 25.7519,17.7349 26.5,15.5 Z"/></g>
<g><path style="opacity:1" fill="#8a7a6d" d="M 21.5,5.5 C 21.8333,5.5 22.1667,5.5 22.5,5.5C 23.8333,5.5 25.1667,5.5 26.5,5.5C 27.2466,8.91413 27.2466,12.2475 26.5,15.5C 24.9253,13.2139 22.9253,12.8806 20.5,14.5C 20.9629,11.5176 21.2962,8.51763 21.5,5.5 Z"/></g>
<g><path style="opacity:1" fill="#c4d3de" d="M 64.5,33.5 C 65.5,33.5 66.5,33.5 67.5,33.5C 68.494,43.3194 68.8274,53.3194 68.5,63.5C 68.5,63.8333 68.5,64.1667 68.5,64.5C 67.506,54.6806 67.1726,44.6806 67.5,34.5C 66.209,34.7373 65.209,34.404 64.5,33.5 Z"/></g>
<g><path style="opacity:1" fill="#9e5757" d="M 27.5,30.5 C 28.1436,41.8842 27.477,52.8842 25.5,63.5C 25.1924,53.7801 25.5257,44.1135 26.5,34.5C 25.9953,33.0815 24.9953,32.4148 23.5,32.5C 21.5411,38.7496 20.8745,45.4163 21.5,52.5C 20.8333,50.8333 20.1667,49.1667 19.5,47.5C 19.5,42.8333 19.5,38.1667 19.5,33.5C 19.5,32.5 19.5,31.5 19.5,30.5C 22.1667,30.5 24.8333,30.5 27.5,30.5 Z"/></g>
<g><path style="opacity:1" fill="#3c6d8b" d="M 72.5,29.5 C 74.0418,30.3007 75.7085,30.634 77.5,30.5C 77.5,31.8333 77.5,33.1667 77.5,34.5C 77.8276,45.0135 77.4942,55.3468 76.5,65.5C 75.6762,61.6877 75.1762,57.6877 75,53.5C 74.7618,57.2222 74.2618,60.8889 73.5,64.5C 74.1272,65.4168 74.4606,66.4168 74.5,67.5C 73.8333,67.8333 73.1667,68.1667 72.5,68.5C 72.5,55.5 72.5,42.5 72.5,29.5 Z"/></g>
<g><path style="opacity:1" fill="#529ab5" d="M 72.5,29.5 C 72.5,42.5 72.5,55.5 72.5,68.5C 70.8333,67.5 69.5,66.1667 68.5,64.5C 68.5,64.1667 68.5,63.8333 68.5,63.5C 69.4946,52.6794 69.8279,41.6794 69.5,30.5C 70.209,29.596 71.209,29.2627 72.5,29.5 Z"/></g>
<g><path style="opacity:1" fill="#36424d" d="M 44.5,49.5 C 46.1667,49.5 47.8333,49.5 49.5,49.5C 51.3878,51.9878 52.0545,54.9878 51.5,58.5C 50.8423,59.3984 50.1757,60.3984 49.5,61.5C 48.4763,60.1468 47.143,59.4802 45.5,59.5C 44.6758,56.2356 44.3424,52.9023 44.5,49.5 Z"/></g>
<g><path style="opacity:1" fill="#123d4e" d="M 69.5,30.5 C 69.8279,41.6794 69.4946,52.6794 68.5,63.5C 68.8274,53.3194 68.494,43.3194 67.5,33.5C 67.9321,32.2905 68.5987,31.2905 69.5,30.5 Z"/></g>
<g><path style="opacity:1" fill="#956668" d="M 27.5,30.5 C 28.4345,31.5676 28.7678,32.901 28.5,34.5C 28.6665,44.8387 28.4998,55.172 28,65.5C 26.6667,66.8333 25.3333,68.1667 24,69.5C 22.6667,68.1667 21.3333,66.8333 20,65.5C 19.5005,59.5092 19.3338,53.5092 19.5,47.5C 20.1667,49.1667 20.8333,50.8333 21.5,52.5C 21.185,56.3714 21.5184,60.0381 22.5,63.5C 23.5,63.5 24.5,63.5 25.5,63.5C 27.477,52.8842 28.1436,41.8842 27.5,30.5 Z"/></g>
<g><path style="opacity:1" fill="#dc7a80" d="M 23.5,32.5 C 22.5729,42.7944 22.2396,53.1277 22.5,63.5C 21.5184,60.0381 21.185,56.3714 21.5,52.5C 20.8745,45.4163 21.5411,38.7496 23.5,32.5 Z"/></g>
<g><path style="opacity:1" fill="#a1373c" d="M 23.5,32.5 C 24.9953,32.4148 25.9953,33.0815 26.5,34.5C 25.5257,44.1135 25.1924,53.7801 25.5,63.5C 24.5,63.5 23.5,63.5 22.5,63.5C 22.2396,53.1277 22.5729,42.7944 23.5,32.5 Z"/></g>
<g><path style="opacity:1" fill="#887974" d="M 51.5,58.5 C 51.2756,62.1788 50.9422,65.8455 50.5,69.5C 48.8561,69.7135 47.3561,69.3802 46,68.5C 45.502,65.5184 45.3354,62.5184 45.5,59.5C 47.143,59.4802 48.4763,60.1468 49.5,61.5C 50.1757,60.3984 50.8423,59.3984 51.5,58.5 Z"/></g>
<g><path style="opacity:1" fill="#6ca1be" d="M 76.5,65.5 C 76.1667,66.5 75.5,67.1667 74.5,67.5C 74.4606,66.4168 74.1272,65.4168 73.5,64.5C 74.2618,60.8889 74.7618,57.2222 75,53.5C 75.1762,57.6877 75.6762,61.6877 76.5,65.5 Z"/></g>
<g><path style="opacity:1" fill="#d6c99f" d="M 38.5,77.5 C 38.4891,74.9991 37.8224,74.8324 36.5,77C 36.8333,77.3333 37.1667,77.6667 37.5,78C 36.552,78.4828 35.552,78.6495 34.5,78.5C 34.281,79.675 34.6143,80.675 35.5,81.5C 36.3957,80.4937 37.0623,80.4937 37.5,81.5C 36.3112,82.4287 34.9778,82.762 33.5,82.5C 33.5,80.8333 33.5,79.1667 33.5,77.5C 35.1757,75.1663 37.509,74.1663 40.5,74.5C 40.7148,76.1788 40.0481,77.1788 38.5,77.5 Z"/></g>
<g><path style="opacity:1" fill="#7e7354" d="M 79.5,79.5 C 79.1667,79.5 78.8333,79.5 78.5,79.5C 65.1237,78.8524 52.1237,79.5191 39.5,81.5C 38.5655,80.4324 38.2322,79.099 38.5,77.5C 40.0481,77.1788 40.7148,76.1788 40.5,74.5C 37.509,74.1663 35.1757,75.1663 33.5,77.5C 33.33,76.1779 33.6634,75.0113 34.5,74C 39.3909,71.4473 41.7242,72.9473 41.5,78.5C 54.3443,78.1713 67.011,78.5046 79.5,79.5 Z"/></g>
<g><path style="opacity:1" fill="#60493e" d="M 33.5,77.5 C 33.5,79.1667 33.5,80.8333 33.5,82.5C 32.1806,81.1032 30.5139,80.4365 28.5,80.5C 26.1817,80.9971 23.8484,81.3305 21.5,81.5C 21.5,82.5 21.5,83.5 21.5,84.5C 18.4824,84.2962 15.4824,83.9629 12.5,83.5C 12.5,82.5 12.5,81.5 12.5,80.5C 14.1667,80.5 15.8333,80.5 17.5,80.5C 19.8333,79.8333 22.1667,79.1667 24.5,78.5C 27.5701,78.6323 30.5701,78.299 33.5,77.5 Z"/></g>
<g><path style="opacity:1" fill="#efd78c" d="M 78.5,79.5 C 78.8333,80.1667 79.1667,80.8333 79.5,81.5C 67.5803,82.4786 55.5803,82.8119 43.5,82.5C 41.901,82.7678 40.5676,82.4345 39.5,81.5C 52.1237,79.5191 65.1237,78.8524 78.5,79.5 Z"/></g>
<g><path style="opacity:1" fill="#947d4e" d="M 38.5,77.5 C 38.2322,79.099 38.5655,80.4324 39.5,81.5C 40.5676,82.4345 41.901,82.7678 43.5,82.5C 43.3691,83.3764 43.7025,84.0431 44.5,84.5C 46.4086,83.6518 48.4086,83.3184 50.5,83.5C 54.9949,84.4219 59.6616,85.0886 64.5,85.5C 62.3926,86.4682 60.0593,86.8016 57.5,86.5C 54.8333,86.5 52.1667,86.5 49.5,86.5C 44.1489,85.8574 38.8156,84.8574 33.5,83.5C 33.5,83.1667 33.5,82.8333 33.5,82.5C 34.9778,82.762 36.3112,82.4287 37.5,81.5C 37.0623,80.4937 36.3957,80.4937 35.5,81.5C 34.6143,80.675 34.281,79.675 34.5,78.5C 35.552,78.6495 36.552,78.4828 37.5,78C 37.1667,77.6667 36.8333,77.3333 36.5,77C 37.8224,74.8324 38.4891,74.9991 38.5,77.5 Z"/></g>
<g><path style="opacity:1" fill="#e4ccbc" d="M 17.5,80.5 C 18.5,80.5 19.5,80.5 20.5,80.5C 20.5,81.5 20.5,82.5 20.5,83.5C 19.5,83.5 18.5,83.5 17.5,83.5C 17.5,82.5 17.5,81.5 17.5,80.5 Z"/></g>
<g><path style="opacity:1" fill="#ad8c42" d="M 79.5,81.5 C 79.5,82.1667 79.5,82.8333 79.5,83.5C 69.9048,84.3095 60.2381,84.3095 50.5,83.5C 48.4086,83.3184 46.4086,83.6518 44.5,84.5C 43.7025,84.0431 43.3691,83.3764 43.5,82.5C 55.5803,82.8119 67.5803,82.4786 79.5,81.5 Z"/></g>
<g><path style="opacity:1" fill="#794443" d="M 33.5,82.5 C 33.5,82.8333 33.5,83.1667 33.5,83.5C 33.5,84.1667 33.5,84.8333 33.5,85.5C 33.1667,85.5 32.8333,85.5 32.5,85.5C 28.8019,85.4476 25.1352,85.1143 21.5,84.5C 21.5,83.5 21.5,82.5 21.5,81.5C 23.8484,81.3305 26.1817,80.9971 28.5,80.5C 30.5139,80.4365 32.1806,81.1032 33.5,82.5 Z"/></g>
<g><path style="opacity:1" fill="#e3cc93" d="M 50.5,83.5 C 60.2381,84.3095 69.9048,84.3095 79.5,83.5C 79.5858,84.4959 79.2524,85.3292 78.5,86C 73.8159,86.4614 69.1493,86.2947 64.5,85.5C 59.6616,85.0886 54.9949,84.4219 50.5,83.5 Z"/></g>
<g><path style="opacity:1" fill="#5f5444" d="M 49.5,86.5 C 52.1667,86.5 54.8333,86.5 57.5,86.5C 57.5,86.8333 57.5,87.1667 57.5,87.5C 52.1667,87.5 46.8333,87.5 41.5,87.5C 41.5,88.8333 41.5,90.1667 41.5,91.5C 40.8333,91.5 40.5,91.1667 40.5,90.5C 40.3491,87.2819 39.5158,86.9485 38,89.5C 37.5172,88.552 37.3505,87.552 37.5,86.5C 41.5,86.5 45.5,86.5 49.5,86.5 Z"/></g>
<g><path style="opacity:1" fill="#9f9781" d="M 78.5,79.5 C 78.8333,79.5 79.1667,79.5 79.5,79.5C 80.1667,79.5 80.8333,79.5 81.5,79.5C 82.1408,80.4822 82.8075,81.4822 83.5,82.5C 82.3523,84.1487 81.019,85.6487 79.5,87C 72.1742,87.4997 64.8409,87.6663 57.5,87.5C 57.5,87.1667 57.5,86.8333 57.5,86.5C 60.0593,86.8016 62.3926,86.4682 64.5,85.5C 69.1493,86.2947 73.8159,86.4614 78.5,86C 79.2524,85.3292 79.5858,84.4959 79.5,83.5C 79.5,82.8333 79.5,82.1667 79.5,81.5C 79.1667,80.8333 78.8333,80.1667 78.5,79.5 Z"/></g>
<g><path style="opacity:1" fill="#d0c096" d="M 33.5,83.5 C 38.8156,84.8574 44.1489,85.8574 49.5,86.5C 45.5,86.5 41.5,86.5 37.5,86.5C 37.3505,87.552 37.5172,88.552 38,89.5C 39.5158,86.9485 40.3491,87.2819 40.5,90.5C 36.6821,91.3957 34.3488,89.729 33.5,85.5C 33.5,84.8333 33.5,84.1667 33.5,83.5 Z"/></g>
<g><path style="opacity:1" fill="#998e80" d="M 32.5,85.5 C 32.8333,85.5 33.1667,85.5 33.5,85.5C 34.3488,89.729 36.6821,91.3957 40.5,90.5C 40.5,91.1667 40.8333,91.5 41.5,91.5C 38.3052,93.8816 35.4719,93.215 33,89.5C 32.51,88.2068 32.3433,86.8734 32.5,85.5 Z"/></g>
<g><path style="opacity:1" fill="#6b5850" d="M 50.5,98.5 C 49.5326,99.8062 48.1993,100.473 46.5,100.5C 46.5,99.1667 46.5,97.8333 46.5,96.5C 48.7089,95.0242 50.0423,95.6909 50.5,98.5 Z"/></g>
<g><path style="opacity:1" fill="#795149" d="M 75.5,99.5 C 71.1667,99.1667 69.1667,101.167 69.5,105.5C 69.3496,114.857 69.683,124.191 70.5,133.5C 71.8333,133.5 73.1667,133.5 74.5,133.5C 74.8333,133.5 75.1667,133.5 75.5,133.5C 76.1667,132.833 76.8333,132.167 77.5,131.5C 77.5,132.833 77.5,134.167 77.5,135.5C 74.4578,136.541 71.4578,136.541 68.5,135.5C 68.5,134.5 68.5,133.5 68.5,132.5C 68.3335,121.828 68.5002,111.161 69,100.5C 70.353,99.3147 71.5197,97.9814 72.5,96.5C 73.8549,97.1882 74.8549,98.1882 75.5,99.5 Z"/></g>
<g><path style="opacity:1" fill="#b9aaa2" d="M 46.5,96.5 C 46.5,97.8333 46.5,99.1667 46.5,100.5C 48.1993,100.473 49.5326,99.8062 50.5,98.5C 52.1869,103.913 52.5203,109.247 51.5,114.5C 51.4476,110.802 51.1143,107.135 50.5,103.5C 47.0886,102.933 45.0886,104.266 44.5,107.5C 44.4299,103.575 45.0966,99.9085 46.5,96.5 Z"/></g>
<g><path style="opacity:1" fill="#6e4640" d="M 51.5,114.5 C 51.5,114.833 51.5,115.167 51.5,115.5C 49.1667,116.833 46.8333,116.833 44.5,115.5C 44.5,112.833 44.5,110.167 44.5,107.5C 45.0886,104.266 47.0886,102.933 50.5,103.5C 51.1143,107.135 51.4476,110.802 51.5,114.5 Z"/></g>
<g><path style="opacity:1" fill="#55a0bb" d="M 24.5,96.5 C 25.4884,97.795 26.4884,99.1283 27.5,100.5C 26.5054,111.321 26.1721,122.321 26.5,133.5C 26.1583,134.338 25.4916,134.672 24.5,134.5C 24.5,121.833 24.5,109.167 24.5,96.5 Z"/></g>
<g><path style="opacity:1" fill="#39758a" d="M 24.5,96.5 C 24.5,109.167 24.5,121.833 24.5,134.5C 22.2188,134.923 20.5521,134.256 19.5,132.5C 19.5,121.833 19.5,111.167 19.5,100.5C 20.5846,98.4131 22.2512,97.0798 24.5,96.5 Z"/></g>
<g><path style="opacity:1" fill="#a35f61" d="M 75.5,99.5 C 77.4402,109.91 78.1068,120.577 77.5,131.5C 76.8333,132.167 76.1667,132.833 75.5,133.5C 75.6665,122.828 75.4998,112.161 75,101.5C 74.6174,100.944 74.1174,100.611 73.5,100.5C 71.461,101.672 70.1276,103.338 69.5,105.5C 69.1667,101.167 71.1667,99.1667 75.5,99.5 Z"/></g>
<g><path style="opacity:1" fill="#578196" d="M 27.5,100.5 C 28.4942,110.653 28.8276,120.986 28.5,131.5C 28.1667,132.5 27.5,133.167 26.5,133.5C 26.1721,122.321 26.5054,111.321 27.5,100.5 Z"/></g>
<g><path style="opacity:1" fill="#aec5cd" d="M 19.5,100.5 C 19.5,111.167 19.5,121.833 19.5,132.5C 18.5,132.5 17.5,132.5 16.5,132.5C 18.1193,121.909 19.1193,111.242 19.5,100.5 Z"/></g>
<g><path style="opacity:1" fill="#9f9272" d="M 44.5,115.5 C 46.8333,116.833 49.1667,116.833 51.5,115.5C 56.4973,116.246 58.4973,118.913 57.5,123.5C 56.2638,124.246 54.9305,124.579 53.5,124.5C 53.3727,121.728 51.8727,120.395 49,120.5C 45.7072,120.046 43.8739,121.38 43.5,124.5C 42.1667,124.5 40.8333,124.5 39.5,124.5C 38.4153,119.83 40.082,116.83 44.5,115.5 Z"/></g>
<g><path style="opacity:1" fill="#7d673c" d="M 53.5,124.5 C 52.8333,127.5 52.1667,130.5 51.5,133.5C 51.5,129.833 51.5,126.167 51.5,122.5C 50.1667,122.5 48.8333,122.5 47.5,122.5C 46.5084,122.328 45.8417,122.662 45.5,123.5C 44.8333,124.167 44.1667,124.833 43.5,125.5C 43.5,125.167 43.5,124.833 43.5,124.5C 43.8739,121.38 45.7072,120.046 49,120.5C 51.8727,120.395 53.3727,121.728 53.5,124.5 Z"/></g>
<g><path style="opacity:1" fill="#d86a6e" d="M 73.5,100.5 C 74.1174,100.611 74.6174,100.944 75,101.5C 75.4998,112.161 75.6665,122.828 75.5,133.5C 75.1667,133.5 74.8333,133.5 74.5,133.5C 73.5931,122.531 73.2598,111.531 73.5,100.5 Z"/></g>
<g><path style="opacity:1" fill="#97393b" d="M 73.5,100.5 C 73.2598,111.531 73.5931,122.531 74.5,133.5C 73.1667,133.5 71.8333,133.5 70.5,133.5C 69.683,124.191 69.3496,114.857 69.5,105.5C 70.1276,103.338 71.461,101.672 73.5,100.5 Z"/></g>
<g><path style="opacity:1" fill="#a09877" d="M 45.5,123.5 C 45.3335,133.839 45.5002,144.172 46,154.5C 46.3333,155.167 46.6667,155.833 47,156.5C 47.3988,156.272 47.5654,155.938 47.5,155.5C 48.8221,155.67 49.9887,155.337 51,154.5C 51.4996,147.508 51.6663,140.508 51.5,133.5C 52.1667,130.5 52.8333,127.5 53.5,124.5C 53.6665,134.839 53.4998,145.172 53,155.5C 49.2255,161.123 46.2255,160.789 44,154.5C 43.5002,144.839 43.3335,135.172 43.5,125.5C 44.1667,124.833 44.8333,124.167 45.5,123.5 Z"/></g>
<g><path style="opacity:1" fill="#89816a" d="M 28.5,131.5 C 33.0685,131.083 34.5685,133.083 33,137.5C 31.0636,139.254 29.2302,140.921 27.5,142.5C 25.3403,140.436 23.007,140.102 20.5,141.5C 16.0401,140.553 14.2067,137.886 15,133.5C 15.3826,132.944 15.8826,132.611 16.5,132.5C 17.5,132.5 18.5,132.5 19.5,132.5C 20.5521,134.256 22.2188,134.923 24.5,134.5C 25.4916,134.672 26.1583,134.338 26.5,133.5C 27.5,133.167 28.1667,132.5 28.5,131.5 Z"/></g>
<g><path style="opacity:1" fill="#e9dc9a" d="M 47.5,122.5 C 47.5,133.5 47.5,144.5 47.5,155.5C 47.5654,155.938 47.3988,156.272 47,156.5C 46.6667,155.833 46.3333,155.167 46,154.5C 45.5002,144.172 45.3335,133.839 45.5,123.5C 45.8417,122.662 46.5084,122.328 47.5,122.5 Z"/></g>
<g><path style="opacity:1" fill="#a09271" d="M 77.5,131.5 C 83.7684,133.612 84.1017,136.612 78.5,140.5C 78.2648,139.903 77.7648,139.57 77,139.5C 75.9231,140.429 74.7564,141.096 73.5,141.5C 72.5,140.167 71.5,140.167 70.5,141.5C 66.901,140.878 64.5677,138.878 63.5,135.5C 64.0728,132.915 65.7395,131.915 68.5,132.5C 68.5,133.5 68.5,134.5 68.5,135.5C 71.4578,136.541 74.4578,136.541 77.5,135.5C 77.5,134.167 77.5,132.833 77.5,131.5 Z"/></g>
<g><path style="opacity:1" fill="#c2b488" d="M 19.5,135.5 C 23.4724,136.108 27.4724,136.608 31.5,137C 27.0633,139.899 22.3967,140.232 17.5,138C 18.756,137.583 19.4226,136.75 19.5,135.5 Z"/></g>
<g><path style="opacity:1" fill="#ab9150" d="M 47.5,122.5 C 48.8333,122.5 50.1667,122.5 51.5,122.5C 51.5,126.167 51.5,129.833 51.5,133.5C 51.6663,140.508 51.4996,147.508 51,154.5C 49.9887,155.337 48.8221,155.67 47.5,155.5C 47.5,144.5 47.5,133.5 47.5,122.5 Z"/></g>
<g><path style="opacity:1" fill="#6d543c" d="M 73.5,141.5 C 70.3102,142.667 69.9768,144.334 72.5,146.5C 72.1543,147.696 71.6543,147.696 71,146.5C 70.5357,147.094 70.369,147.761 70.5,148.5C 69.2437,146.274 69.2437,143.941 70.5,141.5C 71.5,140.167 72.5,140.167 73.5,141.5 Z"/></g>
<g><path style="opacity:1" fill="#b0916e" d="M 73.5,141.5 C 73.9038,142.756 74.5705,143.923 75.5,145C 73.8555,146.032 73.5221,147.199 74.5,148.5C 73.3002,149.292 71.9669,149.292 70.5,148.5C 70.369,147.761 70.5357,147.094 71,146.5C 71.6543,147.696 72.1543,147.696 72.5,146.5C 69.9768,144.334 70.3102,142.667 73.5,141.5 Z"/></g>
<g><path style="opacity:1" fill="#6b4341" d="M 27.5,142.5 C 27.5,144.5 27.5,146.5 27.5,148.5C 26.5655,149.568 26.2322,150.901 26.5,152.5C 25.1667,152.5 23.8333,152.5 22.5,152.5C 22.7373,151.209 22.404,150.209 21.5,149.5C 20.5269,147.052 20.1936,144.385 20.5,141.5C 23.007,140.102 25.3403,140.436 27.5,142.5 Z"/></g>
<g><path style="opacity:1" fill="#6a5949" d="M 78.5,140.5 C 76.9319,146.866 75.5985,153.532 74.5,160.5C 72.4937,161.626 71.1604,160.96 70.5,158.5C 70.8197,155.285 70.8197,151.952 70.5,148.5C 71.9669,149.292 73.3002,149.292 74.5,148.5C 73.5221,147.199 73.8555,146.032 75.5,145C 74.5705,143.923 73.9038,142.756 73.5,141.5C 74.7564,141.096 75.9231,140.429 77,139.5C 77.7648,139.57 78.2648,139.903 78.5,140.5 Z"/></g>
<g><path style="opacity:1" fill="#62524b" d="M 25.5,159.5 C 23.2911,160.976 21.9577,160.309 21.5,157.5C 22.4674,156.194 23.8007,155.527 25.5,155.5C 25.5,156.833 25.5,158.167 25.5,159.5 Z"/></g>
<g><path style="opacity:1" fill="#9b8c82" d="M 27.5,148.5 C 27.7489,152.458 27.0823,156.124 25.5,159.5C 25.5,158.167 25.5,156.833 25.5,155.5C 23.8007,155.527 22.4674,156.194 21.5,157.5C 20.1667,154.833 20.1667,152.167 21.5,149.5C 22.404,150.209 22.7373,151.209 22.5,152.5C 23.8333,152.5 25.1667,152.5 26.5,152.5C 26.2322,150.901 26.5655,149.568 27.5,148.5 Z"/></g>
</svg>
