<?xml version="1.0" encoding="UTF-8"?>
<!DOCTYPE svg PUBLIC "-//W3C//DTD SVG 1.1//EN" "http://www.w3.org/Graphics/SVG/1.1/DTD/svg11.dtd">
<svg xmlns="http://www.w3.org/2000/svg" version="1.1" width="100px" height="165px" style="shape-rendering:geometricPrecision; text-rendering:geometricPrecision; image-rendering:optimizeQuality; fill-rule:evenodd; clip-rule:evenodd" xmlns:xlink="http://www.w3.org/1999/xlink">
<g><path style="opacity:1" fill="#f9f9f8" d="M -0.5,-0.5 C 15.5,-0.5 31.5,-0.5 47.5,-0.5C 48.0577,0.789915 49.0577,1.62325 50.5,2C 54.0252,2.17871 57.3586,2.67871 60.5,3.5C 54.49,4.54116 48.49,4.70783 42.5,4C 39.1934,6.79147 36.5267,9.95814 34.5,13.5C 34.427,15.0269 35.0937,16.0269 36.5,16.5C 37.5676,17.4345 38.901,17.7678 40.5,17.5C 40.2051,21.5128 39.2051,25.3461 37.5,29C 37.5699,29.7648 37.9033,30.2648 38.5,30.5C 38.7214,31.7348 39.3881,32.7348 40.5,33.5C 39.7573,34.1818 39.0906,34.8485 38.5,35.5C 38.5,36.1667 38.1667,36.5 37.5,36.5C 35.5823,34.2991 34.2489,31.6324 33.5,28.5C 32.9761,20.9191 29.6428,14.9191 23.5,10.5C 21.5528,7.5655 18.8862,6.89883 15.5,8.5C 14.4563,9.62261 13.7896,10.9559 13.5,12.5C 14.6519,17.108 15.4852,21.7747 16,26.5C 16.8596,29.6328 18.3596,32.2995 20.5,34.5C 21.9131,37.6612 23.5797,40.6612 25.5,43.5C 23.2614,46.9527 20.7614,50.286 18,53.5C 17.0594,56.154 16.2261,58.8206 15.5,61.5C 14.1134,63.4888 14.4468,65.3221 16.5,67C 19.0135,68.2525 21.6802,68.7525 24.5,68.5C 29.0847,67.4174 33.418,65.7507 37.5,63.5C 37.5,64.8333 37.5,66.1667 37.5,67.5C 37.6567,68.8734 37.49,70.2068 37,71.5C 34.7159,73.7357 33.2159,76.4024 32.5,79.5C 30.2283,83.4997 28.395,87.833 27,92.5C 26.7435,95.557 26.2435,98.557 25.5,101.5C 27.3964,102.275 29.063,103.275 30.5,104.5C 31.9305,104.579 33.2638,104.246 34.5,103.5C 35.8592,104.624 36.8592,105.958 37.5,107.5C 37.2941,111.898 37.6274,116.232 38.5,120.5C 37.8348,127.48 37.5015,134.48 37.5,141.5C 35.1187,142.719 32.6187,143.719 30,144.5C 29.6667,144.167 29.3333,143.833 29,143.5C 28.2917,144.381 27.4584,145.047 26.5,145.5C 26.5,144.833 26.1667,144.5 25.5,144.5C 23.8333,144.5 22.1667,144.5 20.5,144.5C 20.5198,146.143 19.8532,147.476 18.5,148.5C 15.9296,149.702 13.4296,151.035 11,152.5C 8.73392,155.354 9.23392,157.187 12.5,158C 11.5,158.333 10.5,158.667 9.5,159C 10.0944,159.464 10.7611,159.631 11.5,159.5C 20.6696,160.481 30.003,160.481 39.5,159.5C 43.1667,159.5 46.8333,159.5 50.5,159.5C 54.8333,159.5 59.1667,159.5 63.5,159.5C 68.5871,160.105 73.5871,160.105 78.5,159.5C 80.8333,159.5 83.1667,159.5 85.5,159.5C 86.7562,159.539 87.7562,159.039 88.5,158C 87.6198,156.644 87.2865,155.144 87.5,153.5C 86.0413,153.567 84.7079,153.234 83.5,152.5C 83.5,151.833 83.5,151.167 83.5,150.5C 84.1667,150.5 84.8333,150.5 85.5,150.5C 87.0887,151.872 88.4221,153.539 89.5,155.5C 90.2868,154.758 90.9535,153.925 91.5,153C 90.4829,151.951 90.3162,150.784 91,149.5C 92.3186,151.25 92.8186,153.25 92.5,155.5C 93.9305,155.579 95.2638,155.246 96.5,154.5C 98.0259,157.654 98.6925,160.987 98.5,164.5C 65.5,164.5 32.5,164.5 -0.5,164.5C -0.5,109.5 -0.5,54.5 -0.5,-0.5 Z"/></g>
<g><path style="opacity:1" fill="#fbfcfc" d="M 47.5,-0.5 C 64.8333,-0.5 82.1667,-0.5 99.5,-0.5C 99.5,54.5 99.5,109.5 99.5,164.5C 99.1667,164.5 98.8333,164.5 98.5,164.5C 98.6925,160.987 98.0259,157.654 96.5,154.5C 95.2638,155.246 93.9305,155.579 92.5,155.5C 92.8186,153.25 92.3186,151.25 91,149.5C 90.3162,150.784 90.4829,151.951 91.5,153C 90.9535,153.925 90.2868,154.758 89.5,155.5C 88.4221,153.539 87.0887,151.872 85.5,150.5C 84.8166,148.824 83.4832,148.157 81.5,148.5C 81.7852,146.712 81.4519,145.045 80.5,143.5C 79.5713,144.689 79.238,146.022 79.5,147.5C 78.8333,147.5 78.1667,147.5 77.5,147.5C 77.8808,145.058 77.2141,144.391 75.5,145.5C 74.8333,144.833 74.1667,144.167 73.5,143.5C 72.4763,144.853 71.143,145.52 69.5,145.5C 69.6567,144.127 69.49,142.793 69,141.5C 68.6174,142.056 68.1174,142.389 67.5,142.5C 66.8423,141.602 66.1757,140.602 65.5,139.5C 64.0962,140.999 63.4296,140.666 63.5,138.5C 63.8178,137.353 64.4844,136.519 65.5,136C 64.5769,133.959 64.2436,131.792 64.5,129.5C 64.0791,121.278 65.0791,113.278 67.5,105.5C 70.7871,104.839 74.1204,104.339 77.5,104C 76.552,103.517 75.552,103.351 74.5,103.5C 74.3341,98.4889 74.5007,93.4889 75,88.5C 75.6543,89.6956 76.1543,89.6956 76.5,88.5C 75.8108,86.556 75.3108,84.556 75,82.5C 74.6667,84.1667 74.3333,85.8333 74,87.5C 73.3299,84.8261 72.1632,82.4927 70.5,80.5C 69.0931,76.6882 67.4264,73.0215 65.5,69.5C 69.0477,68.7606 72.381,67.4272 75.5,65.5C 76.2097,59.7483 76.543,53.915 76.5,48C 75.7256,45.595 75.2256,43.095 75,40.5C 72.7526,38.5109 71.2526,36.5109 70.5,34.5C 66.5412,35.4025 62.5412,35.4025 58.5,34.5C 57.6236,34.6309 56.9569,34.2975 56.5,33.5C 60.1745,32.1616 61.8411,29.495 61.5,25.5C 60.2838,21.916 59.6171,18.2493 59.5,14.5C 62.9656,14.0322 64.6322,12.0322 64.5,8.5C 64.6716,7.50838 64.3382,6.84171 63.5,6.5C 63.5,5.83333 63.1667,5.5 62.5,5.5C 61.8333,4.83333 61.1667,4.16667 60.5,3.5C 57.3586,2.67871 54.0252,2.17871 50.5,2C 49.0577,1.62325 48.0577,0.789915 47.5,-0.5 Z"/></g>
<g><path style="opacity:1" fill="#4da279" d="M 62.5,5.5 C 63.1667,5.5 63.5,5.83333 63.5,6.5C 61.9519,6.82124 61.2852,7.82124 61.5,9.5C 58.5,9.5 55.5,9.5 52.5,9.5C 52.2648,8.90326 51.7648,8.56993 51,8.5C 46.5594,9.98903 42.0594,10.8224 37.5,11C 39.5,9.33333 41.5,7.66667 43.5,6C 49.8246,5.50046 56.1579,5.33379 62.5,5.5 Z"/></g>
<g><path style="opacity:1" fill="#5a8c76" d="M 60.5,3.5 C 61.1667,4.16667 61.8333,4.83333 62.5,5.5C 56.1579,5.33379 49.8246,5.50046 43.5,6C 41.5,7.66667 39.5,9.33333 37.5,11C 42.0594,10.8224 46.5594,9.98903 51,8.5C 51.7648,8.56993 52.2648,8.90326 52.5,9.5C 48.3875,9.86825 44.7208,11.2016 41.5,13.5C 39.0314,14.0671 36.698,14.0671 34.5,13.5C 36.5267,9.95814 39.1934,6.79147 42.5,4C 48.49,4.70783 54.49,4.54116 60.5,3.5 Z"/></g>
<g><path style="opacity:1" fill="#335a6f" d="M 23.5,10.5 C 22.6618,10.8417 22.3284,11.5084 22.5,12.5C 19.6598,12.807 18.8265,14.1403 20,16.5C 18.8145,14.4407 17.6479,14.274 16.5,16C 17.2109,20.5187 18.0442,25.0187 19,29.5C 20.1455,30.6843 21.3121,30.6843 22.5,29.5C 22.8782,31.921 23.5448,34.2543 24.5,36.5C 22.8267,35.657 21.66,34.3237 21,32.5C 20.5357,33.0944 20.369,33.7611 20.5,34.5C 18.3596,32.2995 16.8596,29.6328 16,26.5C 15.4852,21.7747 14.6519,17.108 13.5,12.5C 13.7896,10.9559 14.4563,9.62261 15.5,8.5C 18.8862,6.89883 21.5528,7.5655 23.5,10.5 Z"/></g>
<g><path style="opacity:1" fill="#292523" d="M 64.5,8.5 C 64.6322,12.0322 62.9656,14.0322 59.5,14.5C 58.8333,14.8333 58.1667,15.1667 57.5,15.5C 55.3193,15.7163 53.6526,14.883 52.5,13C 54.9316,11.9125 54.5983,11.4125 51.5,11.5C 55.9496,11.0357 60.2829,10.0357 64.5,8.5 Z"/></g>
<g><path style="opacity:1" fill="#2e4131" d="M 63.5,6.5 C 64.3382,6.84171 64.6716,7.50838 64.5,8.5C 60.2829,10.0357 55.9496,11.0357 51.5,11.5C 49.2986,12.5664 46.9653,13.233 44.5,13.5C 43.6618,13.8417 43.3284,14.5084 43.5,15.5C 42.1667,15.5 41.5,14.8333 41.5,13.5C 44.7208,11.2016 48.3875,9.86825 52.5,9.5C 55.5,9.5 58.5,9.5 61.5,9.5C 61.2852,7.82124 61.9519,6.82124 63.5,6.5 Z"/></g>
<g><path style="opacity:1" fill="#21221d" d="M 34.5,13.5 C 36.698,14.0671 39.0314,14.0671 41.5,13.5C 41.5,14.8333 42.1667,15.5 43.5,15.5C 44.2389,15.369 44.9056,15.5357 45.5,16C 44.6634,17.0113 44.33,18.1779 44.5,19.5C 43.8333,19.5 43.1667,19.5 42.5,19.5C 41.596,18.791 41.2627,17.791 41.5,16.5C 39.8333,16.5 38.1667,16.5 36.5,16.5C 35.0937,16.0269 34.427,15.0269 34.5,13.5 Z"/></g>
<g><path style="opacity:1" fill="#664d3b" d="M 44.5,13.5 C 46.6715,14.2449 49.0048,14.4115 51.5,14C 49.3208,15.8482 47.4874,18.0148 46,20.5C 45.6174,19.944 45.1174,19.6107 44.5,19.5C 44.33,18.1779 44.6634,17.0113 45.5,16C 44.9056,15.5357 44.2389,15.369 43.5,15.5C 43.3284,14.5084 43.6618,13.8417 44.5,13.5 Z"/></g>
<g><path style="opacity:1" fill="#379ec8" d="M 22.5,12.5 C 22.5,13.1667 22.8333,13.5 23.5,13.5C 23.5198,15.143 22.8532,16.4763 21.5,17.5C 22.966,21.5556 23.2994,25.5556 22.5,29.5C 21.3121,30.6843 20.1455,30.6843 19,29.5C 18.0442,25.0187 17.2109,20.5187 16.5,16C 17.6479,14.274 18.8145,14.4407 20,16.5C 18.8265,14.1403 19.6598,12.807 22.5,12.5 Z"/></g>
<g><path style="opacity:1" fill="#3b789d" d="M 23.5,13.5 C 27.0708,15.6419 28.0708,18.6419 26.5,22.5C 25.4164,21.3349 24.5831,20.0016 24,18.5C 23.097,23.6909 25.097,27.3576 30,29.5C 30.5046,31.5183 31.0046,33.5183 31.5,35.5C 29.2104,33.9671 28.5437,34.3004 29.5,36.5C 29.1543,37.6956 28.6543,37.6956 28,36.5C 27.5357,37.0944 27.369,37.7611 27.5,38.5C 26.7777,37.4489 25.7777,36.7822 24.5,36.5C 23.5448,34.2543 22.8782,31.921 22.5,29.5C 23.2994,25.5556 22.966,21.5556 21.5,17.5C 22.8532,16.4763 23.5198,15.143 23.5,13.5 Z"/></g>
<g><path style="opacity:1" fill="#223a4b" d="M 23.5,10.5 C 29.6428,14.9191 32.9761,20.9191 33.5,28.5C 32.8614,29.0968 32.528,29.9302 32.5,31C 34.0105,37.0418 35.6772,43.0418 37.5,49C 37.4301,49.7648 37.0967,50.2648 36.5,50.5C 34.9625,45.5123 33.2958,40.5123 31.5,35.5C 31.0046,33.5183 30.5046,31.5183 30,29.5C 25.097,27.3576 23.097,23.6909 24,18.5C 24.5831,20.0016 25.4164,21.3349 26.5,22.5C 28.0708,18.6419 27.0708,15.6419 23.5,13.5C 22.8333,13.5 22.5,13.1667 22.5,12.5C 22.3284,11.5084 22.6618,10.8417 23.5,10.5 Z"/></g>
<g><path style="opacity:1" fill="#7e7870" d="M 36.5,16.5 C 38.1667,16.5 39.8333,16.5 41.5,16.5C 41.2627,17.791 41.596,18.791 42.5,19.5C 42.5394,20.5832 42.8728,21.5832 43.5,22.5C 43.1543,23.6956 42.6543,23.6956 42,22.5C 40.0168,25.0679 40.1835,27.4012 42.5,29.5C 41.3687,30.6039 40.5354,30.2705 40,28.5C 39.2828,29.0442 38.7828,29.7109 38.5,30.5C 37.9033,30.2648 37.5699,29.7648 37.5,29C 39.2051,25.3461 40.2051,21.5128 40.5,17.5C 38.901,17.7678 37.5676,17.4345 36.5,16.5 Z"/></g>
<g><path style="opacity:1" fill="#dc997d" d="M 54.5,29.5 C 54.0766,30.2646 53.7432,31.0979 53.5,32C 55.0679,34.3331 56.7346,36.4998 58.5,38.5C 58.5,39.8333 57.8333,40.5 56.5,40.5C 56.2172,39.7109 55.7172,39.0442 55,38.5C 52.2628,39.6105 49.4294,39.7772 46.5,39C 45.9221,37.583 44.9221,36.7496 43.5,36.5C 43.4208,35.0695 43.7542,33.7362 44.5,32.5C 45.2739,31.2888 46.1072,31.2888 47,32.5C 47.6776,30.4024 47.5109,28.4024 46.5,26.5C 47.4614,24.7354 47.7947,22.7354 47.5,20.5C 49.1667,20.5 50.8333,20.5 52.5,20.5C 52.3796,22.1986 52.0463,23.8653 51.5,25.5C 51.7867,27.4433 52.7867,28.7767 54.5,29.5 Z"/></g>
<g><path style="opacity:1" fill="#ba9882" d="M 51.5,11.5 C 54.5983,11.4125 54.9316,11.9125 52.5,13C 53.6526,14.883 55.3193,15.7163 57.5,15.5C 56.0707,16.2342 55.0707,17.4009 54.5,19C 58.4317,22.5051 58.4317,26.0051 54.5,29.5C 52.7867,28.7767 51.7867,27.4433 51.5,25.5C 52.0463,23.8653 52.3796,22.1986 52.5,20.5C 50.8333,20.5 49.1667,20.5 47.5,20.5C 47.7947,22.7354 47.4614,24.7354 46.5,26.5C 45.8333,24.1667 45.1667,21.8333 44.5,19.5C 45.1174,19.6107 45.6174,19.944 46,20.5C 47.4874,18.0148 49.3208,15.8482 51.5,14C 49.0048,14.4115 46.6715,14.2449 44.5,13.5C 46.9653,13.233 49.2986,12.5664 51.5,11.5 Z"/></g>
<g><path style="opacity:1" fill="#51473d" d="M 59.5,14.5 C 59.6171,18.2493 60.2838,21.916 61.5,25.5C 61.8411,29.495 60.1745,32.1616 56.5,33.5C 56.9569,34.2975 57.6236,34.6309 58.5,34.5C 60.9791,35.7949 63.6458,36.7949 66.5,37.5C 66.5,37.8333 66.5,38.1667 66.5,38.5C 65.391,38.4431 64.391,38.1098 63.5,37.5C 62.209,37.2627 61.209,37.596 60.5,38.5C 59.8333,38.5 59.1667,38.5 58.5,38.5C 56.7346,36.4998 55.0679,34.3331 53.5,32C 53.7432,31.0979 54.0766,30.2646 54.5,29.5C 58.4317,26.0051 58.4317,22.5051 54.5,19C 55.0707,17.4009 56.0707,16.2342 57.5,15.5C 58.1667,15.1667 58.8333,14.8333 59.5,14.5 Z"/></g>
<g><path style="opacity:1" fill="#644e42" d="M 42.5,19.5 C 43.1667,19.5 43.8333,19.5 44.5,19.5C 45.1667,21.8333 45.8333,24.1667 46.5,26.5C 47.5109,28.4024 47.6776,30.4024 47,32.5C 46.1072,31.2888 45.2739,31.2888 44.5,32.5C 43.7542,33.7362 43.4208,35.0695 43.5,36.5C 42.1001,37.0998 41.1001,38.0998 40.5,39.5C 40.1667,38.1667 39.8333,38.1667 39.5,39.5C 38.9569,39.44 38.6236,39.1067 38.5,38.5C 40.9767,37.12 40.9767,36.12 38.5,35.5C 39.0906,34.8485 39.7573,34.1818 40.5,33.5C 39.3881,32.7348 38.7214,31.7348 38.5,30.5C 38.7828,29.7109 39.2828,29.0442 40,28.5C 40.5354,30.2705 41.3687,30.6039 42.5,29.5C 40.1835,27.4012 40.0168,25.0679 42,22.5C 42.6543,23.6956 43.1543,23.6956 43.5,22.5C 42.8728,21.5832 42.5394,20.5832 42.5,19.5 Z"/></g>
<g><path style="opacity:1" fill="#2d3843" d="M 24.5,36.5 C 25.7777,36.7822 26.7777,37.4489 27.5,38.5C 28.4942,44.1608 30.8276,49.1608 34.5,53.5C 33.1667,54.1667 31.8333,54.8333 30.5,55.5C 29.5655,54.4324 29.2322,53.099 29.5,51.5C 29.7407,47.9812 28.4074,45.3145 25.5,43.5C 23.5797,40.6612 21.9131,37.6612 20.5,34.5C 20.369,33.7611 20.5357,33.0944 21,32.5C 21.66,34.3237 22.8267,35.657 24.5,36.5 Z"/></g>
<g><path style="opacity:1" fill="#566f7d" d="M 33.5,28.5 C 34.2489,31.6324 35.5823,34.2991 37.5,36.5C 36.7619,42.0608 37.7619,47.3942 40.5,52.5C 39.7784,52.9175 39.2784,53.5842 39,54.5C 38.3292,53.7476 37.4959,53.4142 36.5,53.5C 36.5,52.5 36.5,51.5 36.5,50.5C 37.0967,50.2648 37.4301,49.7648 37.5,49C 35.6772,43.0418 34.0105,37.0418 32.5,31C 32.528,29.9302 32.8614,29.0968 33.5,28.5 Z"/></g>
<g><path style="opacity:1" fill="#ebe1dd" d="M 58.5,34.5 C 62.5412,35.4025 66.5412,35.4025 70.5,34.5C 71.2526,36.5109 72.7526,38.5109 75,40.5C 75.2256,43.095 75.7256,45.595 76.5,48C 76.543,53.915 76.2097,59.7483 75.5,65.5C 76.0201,56.2845 74.1868,47.6179 70,39.5C 69.1841,38.1772 68.0174,37.5106 66.5,37.5C 63.6458,36.7949 60.9791,35.7949 58.5,34.5 Z"/></g>
<g><path style="opacity:1" fill="#b87446" d="M 43.5,36.5 C 44.9221,36.7496 45.9221,37.583 46.5,39C 49.4294,39.7772 52.2628,39.6105 55,38.5C 55.7172,39.0442 56.2172,39.7109 56.5,40.5C 52.6494,39.9709 49.1494,40.6375 46,42.5C 45,42.1667 44,41.8333 43,41.5C 42.5357,42.0944 42.369,42.7611 42.5,43.5C 42.1667,43.5 41.8333,43.5 41.5,43.5C 41.5674,42.0413 41.2341,40.7079 40.5,39.5C 41.1001,38.0998 42.1001,37.0998 43.5,36.5 Z"/></g>
<g><path style="opacity:1" fill="#c1935b" d="M 58.5,38.5 C 59.1667,38.5 59.8333,38.5 60.5,38.5C 59.6314,40.717 59.298,43.0504 59.5,45.5C 57.8333,45.5 56.1667,45.5 54.5,45.5C 51.8333,44.1667 49.1667,44.1667 46.5,45.5C 46.2493,48.909 46.5827,52.2423 47.5,55.5C 47.0057,57.0255 46.339,58.3588 45.5,59.5C 43.9925,57.8185 42.9925,55.8185 42.5,53.5C 43.1499,53.8039 43.8165,54.1373 44.5,54.5C 45.4841,51.5719 45.8174,48.5719 45.5,45.5C 43.8212,45.7148 42.8212,45.0481 42.5,43.5C 42.369,42.7611 42.5357,42.0944 43,41.5C 44,41.8333 45,42.1667 46,42.5C 49.1494,40.6375 52.6494,39.9709 56.5,40.5C 57.8333,40.5 58.5,39.8333 58.5,38.5 Z"/></g>
<g><path style="opacity:1" fill="#d5ca99" d="M 40.5,39.5 C 41.2341,40.7079 41.5674,42.0413 41.5,43.5C 42.0508,46.8067 42.3841,50.1401 42.5,53.5C 41.0848,49.0419 40.0848,44.3752 39.5,39.5C 39.8333,38.1667 40.1667,38.1667 40.5,39.5 Z"/></g>
<g><path style="opacity:1" fill="#e9cb84" d="M 63.5,37.5 C 63.5,38.8333 63.5,40.1667 63.5,41.5C 62.7784,41.9175 62.2784,42.5842 62,43.5C 61.2522,48.4814 60.7522,53.4814 60.5,58.5C 59.0681,60.3271 57.4014,61.9937 55.5,63.5C 55.4931,57.5119 55.1598,51.5119 54.5,45.5C 56.1667,45.5 57.8333,45.5 59.5,45.5C 59.298,43.0504 59.6314,40.717 60.5,38.5C 61.209,37.596 62.209,37.2627 63.5,37.5 Z"/></g>
<g><path style="opacity:1" fill="#643433" d="M 66.5,38.5 C 66.5,38.1667 66.5,37.8333 66.5,37.5C 68.0174,37.5106 69.1841,38.1772 70,39.5C 74.1868,47.6179 76.0201,56.2845 75.5,65.5C 72.381,67.4272 69.0477,68.7606 65.5,69.5C 63.368,69.4456 62.0347,68.4456 61.5,66.5C 64.7089,64.4866 68.2089,63.1532 72,62.5C 72.3333,62.8333 72.6667,63.1667 73,63.5C 73.437,54.3633 71.2703,46.03 66.5,38.5 Z"/></g>
<g><path style="opacity:1" fill="#b05c62" d="M 25.5,43.5 C 28.4074,45.3145 29.7407,47.9812 29.5,51.5C 28.8476,54.7753 26.8476,56.7753 23.5,57.5C 25.4019,55.8814 26.7353,53.8814 27.5,51.5C 27.523,49.9334 27.023,48.6001 26,47.5C 25.1376,49.087 24.4709,50.7536 24,52.5C 20.9129,55.284 18.0796,58.284 15.5,61.5C 16.2261,58.8206 17.0594,56.154 18,53.5C 20.7614,50.286 23.2614,46.9527 25.5,43.5 Z"/></g>
<g><path style="opacity:1" fill="#4295b5" d="M 31.5,35.5 C 33.2958,40.5123 34.9625,45.5123 36.5,50.5C 36.5,51.5 36.5,52.5 36.5,53.5C 35.8333,53.5 35.1667,53.5 34.5,53.5C 30.8276,49.1608 28.4942,44.1608 27.5,38.5C 27.369,37.7611 27.5357,37.0944 28,36.5C 28.6543,37.6956 29.1543,37.6956 29.5,36.5C 28.5437,34.3004 29.2104,33.9671 31.5,35.5 Z"/></g>
<g><path style="opacity:1" fill="#eadb79" d="M 41.5,43.5 C 41.8333,43.5 42.1667,43.5 42.5,43.5C 42.8212,45.0481 43.8212,45.7148 45.5,45.5C 45.8174,48.5719 45.4841,51.5719 44.5,54.5C 43.8165,54.1373 43.1499,53.8039 42.5,53.5C 42.3841,50.1401 42.0508,46.8067 41.5,43.5 Z"/></g>
<g><path style="opacity:1" fill="#6e3222" d="M 63.5,41.5 C 63.6881,47.8885 63.1881,54.2218 62,60.5C 61.5831,61.756 60.7498,62.4226 59.5,62.5C 59.8333,61.1667 60.1667,59.8333 60.5,58.5C 60.7522,53.4814 61.2522,48.4814 62,43.5C 62.2784,42.5842 62.7784,41.9175 63.5,41.5 Z"/></g>
<g><path style="opacity:1" fill="#977756" d="M 54.5,45.5 C 55.1598,51.5119 55.4931,57.5119 55.5,63.5C 57.4014,61.9937 59.0681,60.3271 60.5,58.5C 60.1667,59.8333 59.8333,61.1667 59.5,62.5C 59.0825,63.2216 58.4158,63.7216 57.5,64C 58.6906,64.6979 59.6906,65.5313 60.5,66.5C 60.5,68.5 59.5,69.5 57.5,69.5C 57.3859,66.3489 56.0526,65.3489 53.5,66.5C 53.6633,64.1432 53.4966,61.8098 53,59.5C 52.6667,61.5 52.3333,63.5 52,65.5C 50.6439,66.3802 49.1439,66.7135 47.5,66.5C 47.8342,63.812 47.1675,61.4786 45.5,59.5C 46.339,58.3588 47.0057,57.0255 47.5,55.5C 46.5827,52.2423 46.2493,48.909 46.5,45.5C 49.1667,44.1667 51.8333,44.1667 54.5,45.5 Z"/></g>
<g><path style="opacity:1" fill="#c75359" d="M 63.5,37.5 C 64.391,38.1098 65.391,38.4431 66.5,38.5C 71.2703,46.03 73.437,54.3633 73,63.5C 72.6667,63.1667 72.3333,62.8333 72,62.5C 68.2089,63.1532 64.7089,64.4866 61.5,66.5C 61.1667,66.5 60.8333,66.5 60.5,66.5C 59.6906,65.5313 58.6906,64.6979 57.5,64C 58.4158,63.7216 59.0825,63.2216 59.5,62.5C 60.7498,62.4226 61.5831,61.756 62,60.5C 63.1881,54.2218 63.6881,47.8885 63.5,41.5C 63.5,40.1667 63.5,38.8333 63.5,37.5 Z"/></g>
<g><path style="opacity:1" fill="#9c8876" d="M 40.5,52.5 C 41.2122,54.9279 42.2122,57.2612 43.5,59.5C 42.3881,60.2652 41.7214,61.2652 41.5,62.5C 41.1667,62.5 40.8333,62.5 40.5,62.5C 40.1583,61.6618 39.4916,61.3284 38.5,61.5C 39.0816,56.4749 37.0816,54.8083 32.5,56.5C 31.5344,58.396 31.2011,60.396 31.5,62.5C 30.089,64.539 28.089,65.539 25.5,65.5C 25.3379,63.4727 25.5045,61.4727 26,59.5C 27,58.1667 28,58.1667 29,59.5C 29.4101,58.0993 29.9101,56.766 30.5,55.5C 31.8333,54.8333 33.1667,54.1667 34.5,53.5C 35.1667,53.5 35.8333,53.5 36.5,53.5C 37.4959,53.4142 38.3292,53.7476 39,54.5C 39.2784,53.5842 39.7784,52.9175 40.5,52.5 Z"/></g>
<g><path style="opacity:1" fill="#cd5059" d="M 23.5,57.5 C 24.7613,62.4018 22.9279,65.0685 18,65.5C 16.4053,64.6443 15.572,63.3109 15.5,61.5C 18.0796,58.284 20.9129,55.284 24,52.5C 24.4709,50.7536 25.1376,49.087 26,47.5C 27.023,48.6001 27.523,49.9334 27.5,51.5C 26.7353,53.8814 25.4019,55.8814 23.5,57.5 Z"/></g>
<g><path style="opacity:1" fill="#e5b591" d="M 38.5,61.5 C 36.283,62.3686 33.9496,62.702 31.5,62.5C 31.2011,60.396 31.5344,58.396 32.5,56.5C 37.0816,54.8083 39.0816,56.4749 38.5,61.5 Z"/></g>
<g><path style="opacity:1" fill="#403c34" d="M 38.5,35.5 C 40.9767,36.12 40.9767,37.12 38.5,38.5C 38.6236,39.1067 38.9569,39.44 39.5,39.5C 40.0848,44.3752 41.0848,49.0419 42.5,53.5C 42.9925,55.8185 43.9925,57.8185 45.5,59.5C 47.1675,61.4786 47.8342,63.812 47.5,66.5C 49.1439,66.7135 50.6439,66.3802 52,65.5C 52.3333,63.5 52.6667,61.5 53,59.5C 53.4966,61.8098 53.6633,64.1432 53.5,66.5C 51.5368,67.8202 49.5368,69.1535 47.5,70.5C 45.1582,70.2252 45.1582,69.3919 47.5,68C 46.2986,67.0975 45.4652,65.9308 45,64.5C 43.6976,63.9152 42.531,63.2485 41.5,62.5C 41.7214,61.2652 42.3881,60.2652 43.5,59.5C 42.2122,57.2612 41.2122,54.9279 40.5,52.5C 37.7619,47.3942 36.7619,42.0608 37.5,36.5C 38.1667,36.5 38.5,36.1667 38.5,35.5 Z"/></g>
<g><path style="opacity:1" fill="#52493b" d="M 38.5,61.5 C 39.4916,61.3284 40.1583,61.6618 40.5,62.5C 40.5,62.8333 40.5,63.1667 40.5,63.5C 39.1429,64.5903 38.1429,65.9236 37.5,67.5C 37.5,66.1667 37.5,64.8333 37.5,63.5C 33.418,65.7507 29.0847,67.4174 24.5,68.5C 24.5569,67.391 24.8902,66.391 25.5,65.5C 28.089,65.539 30.089,64.539 31.5,62.5C 33.9496,62.702 36.283,62.3686 38.5,61.5 Z"/></g>
<g><path style="opacity:1" fill="#673330" d="M 29.5,51.5 C 29.2322,53.099 29.5655,54.4324 30.5,55.5C 29.9101,56.766 29.4101,58.0993 29,59.5C 28,58.1667 27,58.1667 26,59.5C 25.5045,61.4727 25.3379,63.4727 25.5,65.5C 24.8902,66.391 24.5569,67.391 24.5,68.5C 21.6802,68.7525 19.0135,68.2525 16.5,67C 14.4468,65.3221 14.1134,63.4888 15.5,61.5C 15.572,63.3109 16.4053,64.6443 18,65.5C 22.9279,65.0685 24.7613,62.4018 23.5,57.5C 26.8476,56.7753 28.8476,54.7753 29.5,51.5 Z"/></g>
<g><path style="opacity:1" fill="#4b6f7d" d="M 40.5,62.5 C 40.8333,62.5 41.1667,62.5 41.5,62.5C 42.531,63.2485 43.6976,63.9152 45,64.5C 45.4652,65.9308 46.2986,67.0975 47.5,68C 45.1582,69.3919 45.1582,70.2252 47.5,70.5C 47.1667,71.5 46.5,72.1667 45.5,72.5C 44.4549,71.1224 43.1216,70.1224 41.5,69.5C 41.5,69.1667 41.5,68.8333 41.5,68.5C 41.9382,68.5654 42.2716,68.3988 42.5,68C 40.8934,66.951 40.2267,65.451 40.5,63.5C 40.5,63.1667 40.5,62.8333 40.5,62.5 Z"/></g>
<g><path style="opacity:1" fill="#ddb693" d="M 57.5,69.5 C 55.9826,69.5106 54.8159,70.1772 54,71.5C 53.3448,73.6284 52.5114,75.6284 51.5,77.5C 48.8808,77.0745 46.5475,76.0745 44.5,74.5C 44.3284,73.5084 44.6618,72.8417 45.5,72.5C 46.5,72.1667 47.1667,71.5 47.5,70.5C 49.5368,69.1535 51.5368,67.8202 53.5,66.5C 56.0526,65.3489 57.3859,66.3489 57.5,69.5 Z"/></g>
<g><path style="opacity:1" fill="#203a30" d="M 40.5,63.5 C 40.2267,65.451 40.8934,66.951 42.5,68C 42.2716,68.3988 41.9382,68.5654 41.5,68.5C 40.5,68.5 39.5,68.5 38.5,68.5C 38.1815,72.1357 37.0148,75.469 35,78.5C 34.3292,79.2524 33.4959,79.5858 32.5,79.5C 33.2159,76.4024 34.7159,73.7357 37,71.5C 37.49,70.2068 37.6567,68.8734 37.5,67.5C 38.1429,65.9236 39.1429,64.5903 40.5,63.5 Z"/></g>
<g><path style="opacity:1" fill="#9d896e" d="M 44.5,74.5 C 46.5475,76.0745 48.8808,77.0745 51.5,77.5C 51.1667,78.1667 50.8333,78.8333 50.5,79.5C 50.189,80.4778 49.5223,81.1445 48.5,81.5C 46.3287,80.091 44.662,78.2576 43.5,76C 43.5699,75.2352 43.9033,74.7352 44.5,74.5 Z"/></g>
<g><path style="opacity:1" fill="#3b664e" d="M 41.5,69.5 C 43.1216,70.1224 44.4549,71.1224 45.5,72.5C 44.6618,72.8417 44.3284,73.5084 44.5,74.5C 43.9033,74.7352 43.5699,75.2352 43.5,76C 44.662,78.2576 46.3287,80.091 48.5,81.5C 49.5223,81.1445 50.189,80.4778 50.5,79.5C 51.2223,80.5511 52.2223,81.2178 53.5,81.5C 53.5,83.8333 53.5,86.1667 53.5,88.5C 52.2206,86.8767 50.8872,85.21 49.5,83.5C 48.8076,84.0253 48.3076,84.6919 48,85.5C 47.3321,80.6488 44.8321,78.9821 40.5,80.5C 40.5,79.1667 40.5,77.8333 40.5,76.5C 42.3162,74.3827 42.6496,72.0494 41.5,69.5 Z"/></g>
<g><path style="opacity:1" fill="#4f9177" d="M 41.5,68.5 C 41.5,68.8333 41.5,69.1667 41.5,69.5C 42.6496,72.0494 42.3162,74.3827 40.5,76.5C 40.19,75.2617 39.69,75.2617 39,76.5C 38,78.1667 37,79.8333 36,81.5C 34.1268,89.2169 32.2935,96.8835 30.5,104.5C 29.063,103.275 27.3964,102.275 25.5,101.5C 26.2435,98.557 26.7435,95.557 27,92.5C 28.395,87.833 30.2283,83.4997 32.5,79.5C 33.4959,79.5858 34.3292,79.2524 35,78.5C 37.0148,75.469 38.1815,72.1357 38.5,68.5C 39.5,68.5 40.5,68.5 41.5,68.5 Z"/></g>
<g><path style="opacity:1" fill="#39a076" d="M 65.5,75.5 C 65.5,77.1667 65.5,78.8333 65.5,80.5C 63.6096,80.2965 62.1096,80.9632 61,82.5C 59.6485,80.4062 59.1485,78.0728 59.5,75.5C 59.5,75.1667 59.5,74.8333 59.5,74.5C 62.0121,72.8212 64.0121,73.1546 65.5,75.5 Z"/></g>
<g><path style="opacity:1" fill="#5c947b" d="M 59.5,75.5 C 59.1485,78.0728 59.6485,80.4062 61,82.5C 62.1096,80.9632 63.6096,80.2965 65.5,80.5C 65.5,78.8333 65.5,77.1667 65.5,75.5C 67.4683,81.8857 68.4683,88.5524 68.5,95.5C 68.6716,96.4916 68.3382,97.1583 67.5,97.5C 68.0323,92.051 66.8657,87.051 64,82.5C 64.3109,88.8095 64.8109,95.1428 65.5,101.5C 65.5,102.167 65.1667,102.5 64.5,102.5C 64.5635,96.7763 62.8968,91.7763 59.5,87.5C 59.2793,83.7248 57.946,80.3915 55.5,77.5C 56.5769,76.2949 57.9102,75.6282 59.5,75.5 Z"/></g>
<g><path style="opacity:1" fill="#1a372d" d="M 59.5,74.5 C 59.5,74.8333 59.5,75.1667 59.5,75.5C 57.9102,75.6282 56.5769,76.2949 55.5,77.5C 57.946,80.3915 59.2793,83.7248 59.5,87.5C 58.7321,88.2625 58.2321,89.2625 58,90.5C 57.5007,95.4889 57.3341,100.489 57.5,105.5C 57.1667,106.167 56.8333,106.833 56.5,107.5C 55.8333,107.5 55.1667,107.5 54.5,107.5C 54.0825,106.778 53.4158,106.278 52.5,106C 54.0609,105.682 55.2276,104.849 56,103.5C 56.6667,99.5 56.6667,95.5 56,91.5C 55.1482,90.4293 54.3149,89.4293 53.5,88.5C 53.5,86.1667 53.5,83.8333 53.5,81.5C 54.552,81.6495 55.552,81.4828 56.5,81C 53.522,77.1189 54.522,74.9523 59.5,74.5 Z"/></g>
<g><path style="opacity:1" fill="#2d7258" d="M 53.5,88.5 C 54.3149,89.4293 55.1482,90.4293 56,91.5C 56.6667,95.5 56.6667,99.5 56,103.5C 55.2276,104.849 54.0609,105.682 52.5,106C 53.4158,106.278 54.0825,106.778 54.5,107.5C 53.5084,107.328 52.8417,107.662 52.5,108.5C 51.6618,108.158 51.3284,107.492 51.5,106.5C 51.8212,104.952 52.8212,104.285 54.5,104.5C 54.6079,99.1301 54.2745,93.7968 53.5,88.5 Z"/></g>
<g><path style="opacity:1" fill="#162f23" d="M 40.5,76.5 C 40.5,77.8333 40.5,79.1667 40.5,80.5C 38.9293,86.7172 37.2626,93.0506 35.5,99.5C 35.737,102.063 36.237,102.063 37,99.5C 37.4966,101.81 37.6633,104.143 37.5,106.5C 37.5,106.833 37.5,107.167 37.5,107.5C 36.8592,105.958 35.8592,104.624 34.5,103.5C 33.2638,104.246 31.9305,104.579 30.5,104.5C 32.2935,96.8835 34.1268,89.2169 36,81.5C 37,79.8333 38,78.1667 39,76.5C 39.69,75.2617 40.19,75.2617 40.5,76.5 Z"/></g>
<g><path style="opacity:1" fill="#222922" d="M 60.5,66.5 C 60.8333,66.5 61.1667,66.5 61.5,66.5C 62.0347,68.4456 63.368,69.4456 65.5,69.5C 67.4264,73.0215 69.0931,76.6882 70.5,80.5C 72.4622,87.0174 73.4622,93.6841 73.5,100.5C 72.1667,100.5 70.8333,100.5 69.5,100.5C 69.7845,98.5853 69.4511,96.9187 68.5,95.5C 68.4683,88.5524 67.4683,81.8857 65.5,75.5C 64.0121,73.1546 62.0121,72.8212 59.5,74.5C 54.522,74.9523 53.522,77.1189 56.5,81C 55.552,81.4828 54.552,81.6495 53.5,81.5C 52.2223,81.2178 51.2223,80.5511 50.5,79.5C 50.8333,78.8333 51.1667,78.1667 51.5,77.5C 52.5114,75.6284 53.3448,73.6284 54,71.5C 54.8159,70.1772 55.9826,69.5106 57.5,69.5C 59.5,69.5 60.5,68.5 60.5,66.5 Z"/></g>
<g><path style="opacity:1" fill="#409e78" d="M 53.5,88.5 C 54.2745,93.7968 54.6079,99.1301 54.5,104.5C 52.8212,104.285 51.8212,104.952 51.5,106.5C 50.1411,107.007 49.1411,108.007 48.5,109.5C 47.8933,109.376 47.56,109.043 47.5,108.5C 48.4935,106.146 47.4935,105.146 44.5,105.5C 44.6658,100.821 44.4992,96.1548 44,91.5C 42.8054,95.7514 42.3054,100.085 42.5,104.5C 41.448,104.351 40.448,104.517 39.5,105C 40.7736,105.977 40.7736,106.811 39.5,107.5C 39.1583,106.662 38.4916,106.328 37.5,106.5C 37.6633,104.143 37.4966,101.81 37,99.5C 36.237,102.063 35.737,102.063 35.5,99.5C 37.2626,93.0506 38.9293,86.7172 40.5,80.5C 44.8321,78.9821 47.3321,80.6488 48,85.5C 48.3076,84.6919 48.8076,84.0253 49.5,83.5C 50.8872,85.21 52.2206,86.8767 53.5,88.5 Z"/></g>
<g><path style="opacity:1" fill="#2d463b" d="M 59.5,87.5 C 62.8968,91.7763 64.5635,96.7763 64.5,102.5C 64.5,102.833 64.5,103.167 64.5,103.5C 63.4324,104.434 62.099,104.768 60.5,104.5C 60.5,104.167 60.5,103.833 60.5,103.5C 60.5225,101.147 60.8558,98.6466 61.5,96C 60.1055,93.3211 59.4388,90.4877 59.5,87.5 Z"/></g>
<g><path style="opacity:1" fill="#142e1e" d="M 67.5,97.5 C 67.5394,98.5832 67.8728,99.5832 68.5,100.5C 67.675,101.386 66.675,101.719 65.5,101.5C 64.8109,95.1428 64.3109,88.8095 64,82.5C 66.8657,87.051 68.0323,92.051 67.5,97.5 Z"/></g>
<g><path style="opacity:1" fill="#141716" d="M 59.5,87.5 C 59.4388,90.4877 60.1055,93.3211 61.5,96C 60.8558,98.6466 60.5225,101.147 60.5,103.5C 59.2223,103.782 58.2223,104.449 57.5,105.5C 57.3341,100.489 57.5007,95.4889 58,90.5C 58.2321,89.2625 58.7321,88.2625 59.5,87.5 Z"/></g>
<g><path style="opacity:1" fill="#d2d4d2" d="M 70.5,80.5 C 72.1632,82.4927 73.3299,84.8261 74,87.5C 74.3333,85.8333 74.6667,84.1667 75,82.5C 75.3108,84.556 75.8108,86.556 76.5,88.5C 76.1543,89.6956 75.6543,89.6956 75,88.5C 74.5007,93.4889 74.3341,98.4889 74.5,103.5C 75.552,103.351 76.552,103.517 77.5,104C 74.1204,104.339 70.7871,104.839 67.5,105.5C 67.8807,104.069 68.8807,103.236 70.5,103C 69.7476,102.329 69.4142,101.496 69.5,100.5C 70.8333,100.5 72.1667,100.5 73.5,100.5C 73.4622,93.6841 72.4622,87.0174 70.5,80.5 Z"/></g>
<g><path style="opacity:1" fill="#395843" d="M 47.5,108.5 C 46.8333,108.5 46.1667,108.5 45.5,108.5C 44.8333,105.833 44.1667,105.833 43.5,108.5C 42.7784,108.082 42.2784,107.416 42,106.5C 41.3992,108.359 40.5659,108.692 39.5,107.5C 40.7736,106.811 40.7736,105.977 39.5,105C 40.448,104.517 41.448,104.351 42.5,104.5C 42.3054,100.085 42.8054,95.7514 44,91.5C 44.4992,96.1548 44.6658,100.821 44.5,105.5C 47.4935,105.146 48.4935,106.146 47.5,108.5 Z"/></g>
<g><path style="opacity:1" fill="#564a3f" d="M 68.5,95.5 C 69.4511,96.9187 69.7845,98.5853 69.5,100.5C 69.4142,101.496 69.7476,102.329 70.5,103C 68.8807,103.236 67.8807,104.069 67.5,105.5C 65.0791,113.278 64.0791,121.278 64.5,129.5C 64.1667,129.5 63.8333,129.5 63.5,129.5C 63.8168,125.298 63.4834,121.298 62.5,117.5C 62.5,117.167 62.5,116.833 62.5,116.5C 63.3382,116.158 63.6716,115.492 63.5,114.5C 64.2161,112.444 64.8828,110.277 65.5,108C 63.1195,107.262 61.1195,107.762 59.5,109.5C 58.2905,109.932 57.2905,110.599 56.5,111.5C 55.6236,111.631 54.9569,111.298 54.5,110.5C 55.6119,109.735 56.2786,108.735 56.5,107.5C 56.8333,106.833 57.1667,106.167 57.5,105.5C 58.2223,104.449 59.2223,103.782 60.5,103.5C 60.5,103.833 60.5,104.167 60.5,104.5C 62.3635,105.793 64.3635,105.793 66.5,104.5C 66.0431,103.702 65.3764,103.369 64.5,103.5C 64.5,103.167 64.5,102.833 64.5,102.5C 65.1667,102.5 65.5,102.167 65.5,101.5C 66.675,101.719 67.675,101.386 68.5,100.5C 67.8728,99.5832 67.5394,98.5832 67.5,97.5C 68.3382,97.1583 68.6716,96.4916 68.5,95.5 Z"/></g>
<g><path style="opacity:1" fill="#c4bcb4" d="M 64.5,103.5 C 65.3764,103.369 66.0431,103.702 66.5,104.5C 64.3635,105.793 62.3635,105.793 60.5,104.5C 62.099,104.768 63.4324,104.434 64.5,103.5 Z"/></g>
<g><path style="opacity:1" fill="#908884" d="M 54.5,107.5 C 55.1667,107.5 55.8333,107.5 56.5,107.5C 56.2786,108.735 55.6119,109.735 54.5,110.5C 54.9569,111.298 55.6236,111.631 56.5,111.5C 56.7148,113.179 56.0481,114.179 54.5,114.5C 53.7659,113.292 53.4326,111.959 53.5,110.5C 52.5,110.5 51.5,110.5 50.5,110.5C 51.1667,109.833 51.8333,109.167 52.5,108.5C 52.8417,107.662 53.5084,107.328 54.5,107.5 Z"/></g>
<g><path style="opacity:1" fill="#896f51" d="M 63.5,114.5 C 63.8174,111.454 62.4841,109.787 59.5,109.5C 61.1195,107.762 63.1195,107.262 65.5,108C 64.8828,110.277 64.2161,112.444 63.5,114.5 Z"/></g>
<g><path style="opacity:1" fill="#4d4632" d="M 43.5,108.5 C 44.1667,108.5 44.8333,108.5 45.5,108.5C 46.1667,108.5 46.8333,108.5 47.5,108.5C 47.56,109.043 47.8933,109.376 48.5,109.5C 49.1411,108.007 50.1411,107.007 51.5,106.5C 51.3284,107.492 51.6618,108.158 52.5,108.5C 51.8333,109.167 51.1667,109.833 50.5,110.5C 49.2638,112.649 48.2638,114.982 47.5,117.5C 46.2463,115.643 46.2463,113.643 47.5,111.5C 46.3112,110.571 44.9778,110.238 43.5,110.5C 43.1667,110.5 42.8333,110.5 42.5,110.5C 41.6868,109.347 40.6868,109.347 39.5,110.5C 38.2241,109.386 38.2241,108.386 39.5,107.5C 40.5659,108.692 41.3992,108.359 42,106.5C 42.2784,107.416 42.7784,108.082 43.5,108.5 Z"/></g>
<g><path style="opacity:1" fill="#d7d0be" d="M 45.5,108.5 C 44.8333,108.5 44.1667,108.5 43.5,108.5C 44.1667,105.833 44.8333,105.833 45.5,108.5 Z"/></g>
<g><path style="opacity:1" fill="#9a8362" d="M 43.5,110.5 C 44.9778,110.238 46.3112,110.571 47.5,111.5C 46.2463,113.643 46.2463,115.643 47.5,117.5C 47.5,118.833 47.5,120.167 47.5,121.5C 46.8333,120.833 46.1667,120.167 45.5,119.5C 45.9347,116.162 45.2681,113.162 43.5,110.5 Z"/></g>
<g><path style="opacity:1" fill="#c1aa7e" d="M 59.5,109.5 C 58.1346,111.591 57.4679,113.924 57.5,116.5C 59.1667,116.5 60.8333,116.5 62.5,116.5C 62.5,116.833 62.5,117.167 62.5,117.5C 61.8333,117.5 61.5,117.833 61.5,118.5C 59.4352,118.483 57.4352,118.15 55.5,117.5C 55.4431,116.391 55.1098,115.391 54.5,114.5C 56.0481,114.179 56.7148,113.179 56.5,111.5C 57.2905,110.599 58.2905,109.932 59.5,109.5 Z"/></g>
<g><path style="opacity:1" fill="#e7cf7d" d="M 59.5,109.5 C 62.4841,109.787 63.8174,111.454 63.5,114.5C 63.6716,115.492 63.3382,116.158 62.5,116.5C 60.8333,116.5 59.1667,116.5 57.5,116.5C 57.4679,113.924 58.1346,111.591 59.5,109.5 Z"/></g>
<g><path style="opacity:1" fill="#ebd67c" d="M 42.5,110.5 C 42.8333,110.5 43.1667,110.5 43.5,110.5C 45.2681,113.162 45.9347,116.162 45.5,119.5C 39.9999,120.169 37.8333,117.835 39,112.5C 40.1127,111.695 41.2794,111.028 42.5,110.5 Z"/></g>
<g><path style="opacity:1" fill="#a1916b" d="M 37.5,106.5 C 38.4916,106.328 39.1583,106.662 39.5,107.5C 38.2241,108.386 38.2241,109.386 39.5,110.5C 40.6868,109.347 41.6868,109.347 42.5,110.5C 41.2794,111.028 40.1127,111.695 39,112.5C 37.8333,117.835 39.9999,120.169 45.5,119.5C 43.3926,120.468 41.0593,120.802 38.5,120.5C 37.6274,116.232 37.2941,111.898 37.5,107.5C 37.5,107.167 37.5,106.833 37.5,106.5 Z"/></g>
<g><path style="opacity:1" fill="#924847" d="M 55.5,117.5 C 57.4352,118.15 59.4352,118.483 61.5,118.5C 62.7359,122.965 62.7359,127.299 61.5,131.5C 62.1197,127.698 61.2863,124.365 59,121.5C 58.2904,122.973 57.1238,123.64 55.5,123.5C 55.5,124.833 55.5,126.167 55.5,127.5C 54.5565,124.332 54.5565,120.999 55.5,117.5 Z"/></g>
<g><path style="opacity:1" fill="#7a6e68" d="M 47.5,123.5 C 48.9171,126.34 48.5838,129.007 46.5,131.5C 47.0916,128.873 47.4249,126.206 47.5,123.5 Z"/></g>
<g><path style="opacity:1" fill="#713837" d="M 45.5,119.5 C 46.1667,120.167 46.8333,120.833 47.5,121.5C 47.5,122.167 47.5,122.833 47.5,123.5C 47.4249,126.206 47.0916,128.873 46.5,131.5C 44.3263,135.189 43.3263,139.189 43.5,143.5C 43.9118,145.973 42.9118,147.306 40.5,147.5C 40.8333,146.833 41.1667,146.167 41.5,145.5C 41.5,144.833 41.5,144.167 41.5,143.5C 43.3643,137.045 44.6976,130.378 45.5,123.5C 43.5,123.5 41.5,123.5 39.5,123.5C 39.1109,130.339 38.4442,137.006 37.5,143.5C 37.5,142.833 37.5,142.167 37.5,141.5C 37.5015,134.48 37.8348,127.48 38.5,120.5C 41.0593,120.802 43.3926,120.468 45.5,119.5 Z"/></g>
<g><path style="opacity:1" fill="#e44e5b" d="M 41.5,143.5 C 41.5,144.167 41.5,144.833 41.5,145.5C 40.2521,144.666 39.5854,143.333 39.5,141.5C 39.9039,136.794 40.5705,132.127 41.5,127.5C 43.202,129.289 43.3687,130.955 42,132.5C 41.5014,136.152 41.3347,139.818 41.5,143.5 Z"/></g>
<g><path style="opacity:1" fill="#f1efed" d="M 50.5,110.5 C 51.5,110.5 52.5,110.5 53.5,110.5C 53.4326,111.959 53.7659,113.292 54.5,114.5C 55.1098,115.391 55.4431,116.391 55.5,117.5C 54.5565,120.999 54.5565,124.332 55.5,127.5C 55.9981,132.152 56.3314,136.819 56.5,141.5C 55.5178,142.141 54.5178,142.807 53.5,143.5C 52.1667,139.5 50.8333,139.5 49.5,143.5C 47.2619,140.567 46.2619,140.901 46.5,144.5C 46.44,145.043 46.1067,145.376 45.5,145.5C 44.8182,144.757 44.1515,144.091 43.5,143.5C 43.3263,139.189 44.3263,135.189 46.5,131.5C 48.5838,129.007 48.9171,126.34 47.5,123.5C 47.5,122.833 47.5,122.167 47.5,121.5C 47.5,120.167 47.5,118.833 47.5,117.5C 48.2638,114.982 49.2638,112.649 50.5,110.5 Z"/></g>
<g><path style="opacity:1" fill="#853a43" d="M 55.5,127.5 C 57.45,132.735 58.1167,138.402 57.5,144.5C 56.596,143.791 56.2627,142.791 56.5,141.5C 56.3314,136.819 55.9981,132.152 55.5,127.5 Z"/></g>
<g><path style="opacity:1" fill="#5d3131" d="M 62.5,117.5 C 63.4834,121.298 63.8168,125.298 63.5,129.5C 62.7705,134.13 62.4372,138.797 62.5,143.5C 63.791,143.263 64.791,143.596 65.5,144.5C 64.6618,144.842 64.3284,145.508 64.5,146.5C 64.1667,146.5 63.8333,146.5 63.5,146.5C 63.5,145.833 63.1667,145.5 62.5,145.5C 61.559,140.93 61.2256,136.263 61.5,131.5C 62.7359,127.299 62.7359,122.965 61.5,118.5C 61.5,117.833 61.8333,117.5 62.5,117.5 Z"/></g>
<g><path style="opacity:1" fill="#d0c5c0" d="M 63.5,129.5 C 63.8333,129.5 64.1667,129.5 64.5,129.5C 64.2436,131.792 64.5769,133.959 65.5,136C 64.4844,136.519 63.8178,137.353 63.5,138.5C 63.4296,140.666 64.0962,140.999 65.5,139.5C 66.1757,140.602 66.8423,141.602 67.5,142.5C 67.0133,143.473 66.5133,144.473 66,145.5C 65.6012,145.272 65.4346,144.938 65.5,144.5C 64.791,143.596 63.791,143.263 62.5,143.5C 62.4372,138.797 62.7705,134.13 63.5,129.5 Z"/></g>
<g><path style="opacity:1" fill="#c4545c" d="M 41.5,143.5 C 41.3347,139.818 41.5014,136.152 42,132.5C 43.3687,130.955 43.202,129.289 41.5,127.5C 40.5705,132.127 39.9039,136.794 39.5,141.5C 39.5854,143.333 40.2521,144.666 41.5,145.5C 41.1667,146.167 40.8333,146.833 40.5,147.5C 39.5,147.5 38.5,147.5 37.5,147.5C 37.5,146.5 37.5,145.5 37.5,144.5C 37.5,144.167 37.5,143.833 37.5,143.5C 38.4442,137.006 39.1109,130.339 39.5,123.5C 41.5,123.5 43.5,123.5 45.5,123.5C 44.6976,130.378 43.3643,137.045 41.5,143.5 Z"/></g>
<g><path style="opacity:1" fill="#cf4e5d" d="M 61.5,131.5 C 61.2256,136.263 61.559,140.93 62.5,145.5C 60.7085,145.634 59.0418,145.301 57.5,144.5C 58.1167,138.402 57.45,132.735 55.5,127.5C 55.5,126.167 55.5,124.833 55.5,123.5C 57.1238,123.64 58.2904,122.973 59,121.5C 61.2863,124.365 62.1197,127.698 61.5,131.5 Z"/></g>
<g><path style="opacity:1" fill="#576c56" d="M 37.5,141.5 C 37.5,142.167 37.5,142.833 37.5,143.5C 37.5,143.833 37.5,144.167 37.5,144.5C 36.6236,144.369 35.9569,144.702 35.5,145.5C 36.8069,146.865 36.8069,148.198 35.5,149.5C 34.71,148.391 34.21,147.058 34,145.5C 32.4452,147.146 30.7785,147.479 29,146.5C 28.3162,147.784 28.4829,148.951 29.5,150C 29,150.5 28.5,151 28,151.5C 27.187,149.564 26.687,147.564 26.5,145.5C 27.4584,145.047 28.2917,144.381 29,143.5C 29.3333,143.833 29.6667,144.167 30,144.5C 32.6187,143.719 35.1187,142.719 37.5,141.5 Z"/></g>
<g><path style="opacity:1" fill="#695e61" d="M 56.5,141.5 C 56.2627,142.791 56.596,143.791 57.5,144.5C 59.0418,145.301 60.7085,145.634 62.5,145.5C 63.1667,145.5 63.5,145.833 63.5,146.5C 61.064,147.933 58.7307,147.6 56.5,145.5C 55.2291,147.806 55.5624,149.806 57.5,151.5C 56.1667,151.5 54.8333,151.5 53.5,151.5C 54.3414,149.621 54.6747,147.621 54.5,145.5C 53.0695,145.421 51.7362,145.754 50.5,146.5C 49.4763,145.147 48.143,144.48 46.5,144.5C 46.2619,140.901 47.2619,140.567 49.5,143.5C 50.8333,139.5 52.1667,139.5 53.5,143.5C 54.5178,142.807 55.5178,142.141 56.5,141.5 Z"/></g>
<g><path style="opacity:1" fill="#262228" d="M 69.5,145.5 C 70.1667,146.167 70.8333,146.833 71.5,147.5C 70.6457,148.632 70.6457,149.965 71.5,151.5C 71.1667,151.5 70.8333,151.5 70.5,151.5C 68.2274,150.233 66.2274,148.567 64.5,146.5C 64.3284,145.508 64.6618,144.842 65.5,144.5C 65.4346,144.938 65.6012,145.272 66,145.5C 66.5133,144.473 67.0133,143.473 67.5,142.5C 68.1174,142.389 68.6174,142.056 69,141.5C 69.49,142.793 69.6567,144.127 69.5,145.5 Z"/></g>
<g><path style="opacity:1" fill="#78645b" d="M 77.5,147.5 C 75.5,147.5 73.5,147.5 71.5,147.5C 70.8333,146.833 70.1667,146.167 69.5,145.5C 71.143,145.52 72.4763,144.853 73.5,143.5C 74.1667,144.167 74.8333,144.833 75.5,145.5C 77.2141,144.391 77.8808,145.058 77.5,147.5 Z"/></g>
<g><path style="opacity:1" fill="#34302f" d="M 43.5,143.5 C 44.1515,144.091 44.8182,144.757 45.5,145.5C 46.1067,145.376 46.44,145.043 46.5,144.5C 48.143,144.48 49.4763,145.147 50.5,146.5C 51.7362,145.754 53.0695,145.421 54.5,145.5C 54.6747,147.621 54.3414,149.621 53.5,151.5C 52.209,151.263 51.209,151.596 50.5,152.5C 47.6122,153.01 45.2789,152.344 43.5,150.5C 43.38,149.414 42.7133,148.747 41.5,148.5C 39.484,149.178 37.484,149.844 35.5,150.5C 35.5,150.167 35.5,149.833 35.5,149.5C 36.8069,148.198 36.8069,146.865 35.5,145.5C 35.9569,144.702 36.6236,144.369 37.5,144.5C 37.5,145.5 37.5,146.5 37.5,147.5C 38.5,147.5 39.5,147.5 40.5,147.5C 42.9118,147.306 43.9118,145.973 43.5,143.5 Z"/></g>
<g><path style="opacity:1" fill="#a95151" d="M 71.5,147.5 C 73.5,147.5 75.5,147.5 77.5,147.5C 78.1667,147.5 78.8333,147.5 79.5,147.5C 80.2114,149.201 81.5447,150.201 83.5,150.5C 83.5,151.167 83.5,151.833 83.5,152.5C 83.8844,154.929 84.551,157.263 85.5,159.5C 83.1667,159.5 80.8333,159.5 78.5,159.5C 78.1583,158.662 77.4916,158.328 76.5,158.5C 74.8113,157.696 73.1446,156.696 71.5,155.5C 72.3629,154.274 72.3629,152.94 71.5,151.5C 70.6457,149.965 70.6457,148.632 71.5,147.5 Z"/></g>
<g><path style="opacity:1" fill="#7c6159" d="M 85.5,150.5 C 84.8333,150.5 84.1667,150.5 83.5,150.5C 81.5447,150.201 80.2114,149.201 79.5,147.5C 79.238,146.022 79.5713,144.689 80.5,143.5C 81.4519,145.045 81.7852,146.712 81.5,148.5C 83.4832,148.157 84.8166,148.824 85.5,150.5 Z"/></g>
<g><path style="opacity:1" fill="#59757a" d="M 63.5,146.5 C 63.8333,146.5 64.1667,146.5 64.5,146.5C 66.2274,148.567 68.2274,150.233 70.5,151.5C 70.5,152.833 70.5,154.167 70.5,155.5C 69.0413,155.567 67.7079,155.234 66.5,154.5C 64.0443,152.132 61.0443,151.132 57.5,151.5C 55.5624,149.806 55.2291,147.806 56.5,145.5C 58.7307,147.6 61.064,147.933 63.5,146.5 Z"/></g>
<g><path style="opacity:1" fill="#649780" d="M 25.5,144.5 C 26.1667,144.5 26.5,144.833 26.5,145.5C 26.687,147.564 27.187,149.564 28,151.5C 28.5,151 29,150.5 29.5,150C 28.4829,148.951 28.3162,147.784 29,146.5C 30.7785,147.479 32.4452,147.146 34,145.5C 34.21,147.058 34.71,148.391 35.5,149.5C 35.5,149.833 35.5,150.167 35.5,150.5C 34.8902,151.391 34.5569,152.391 34.5,153.5C 33.3121,154.684 32.1455,154.684 31,153.5C 30.3109,154.357 29.4776,155.023 28.5,155.5C 27.2813,154.354 25.9479,153.354 24.5,152.5C 25.8754,150.837 25.542,149.503 23.5,148.5C 24.6302,147.378 25.2969,146.044 25.5,144.5 Z"/></g>
<g><path style="opacity:1" fill="#6793a2" d="M 43.5,150.5 C 43.1667,150.5 42.8333,150.5 42.5,150.5C 39.6733,151.108 37.0067,152.108 34.5,153.5C 34.5569,152.391 34.8902,151.391 35.5,150.5C 37.484,149.844 39.484,149.178 41.5,148.5C 42.7133,148.747 43.38,149.414 43.5,150.5 Z"/></g>
<g><path style="opacity:1" fill="#416253" d="M 25.5,144.5 C 25.2969,146.044 24.6302,147.378 23.5,148.5C 25.542,149.503 25.8754,150.837 24.5,152.5C 25.9479,153.354 27.2813,154.354 28.5,155.5C 29.4776,155.023 30.3109,154.357 31,153.5C 32.1455,154.684 33.3121,154.684 34.5,153.5C 37.0067,152.108 39.6733,151.108 42.5,150.5C 42.3059,152.912 40.9726,153.912 38.5,153.5C 34.5939,154.661 30.9272,156.328 27.5,158.5C 25.3543,157.106 23.021,156.44 20.5,156.5C 20.6198,153.795 19.6198,153.128 17.5,154.5C 16.5713,155.689 16.238,157.022 16.5,158.5C 17.8734,158.343 19.2068,158.51 20.5,159C 17.5184,159.498 14.5184,159.665 11.5,159.5C 10.7611,159.631 10.0944,159.464 9.5,159C 10.5,158.667 11.5,158.333 12.5,158C 9.23392,157.187 8.73392,155.354 11,152.5C 13.4296,151.035 15.9296,149.702 18.5,148.5C 19.8532,147.476 20.5198,146.143 20.5,144.5C 22.1667,144.5 23.8333,144.5 25.5,144.5 Z"/></g>
<g><path style="opacity:1" fill="#748163" d="M 42.5,150.5 C 42.8333,150.5 43.1667,150.5 43.5,150.5C 45.2789,152.344 47.6122,153.01 50.5,152.5C 51.0431,152.56 51.3764,152.893 51.5,153.5C 46.4816,155.289 46.4816,156.456 51.5,157C 49.3808,157.342 49.0474,158.175 50.5,159.5C 46.8333,159.5 43.1667,159.5 39.5,159.5C 39.6747,157.379 39.3414,155.379 38.5,153.5C 40.9726,153.912 42.3059,152.912 42.5,150.5 Z"/></g>
<g><path style="opacity:1" fill="#784e4b" d="M 83.5,152.5 C 84.7079,153.234 86.0413,153.567 87.5,153.5C 87.2865,155.144 87.6198,156.644 88.5,158C 87.7562,159.039 86.7562,159.539 85.5,159.5C 84.551,157.263 83.8844,154.929 83.5,152.5 Z"/></g>
<g><path style="opacity:1" fill="#544839" d="M 50.5,152.5 C 51.209,151.596 52.209,151.263 53.5,151.5C 53.2596,155.527 54.9263,156.861 58.5,155.5C 57.5,154.833 56.5,154.167 55.5,153.5C 59.0097,152.329 61.843,153.329 64,156.5C 64.7083,155.619 65.5416,154.953 66.5,154.5C 67.7079,155.234 69.0413,155.567 70.5,155.5C 70.5,154.167 70.5,152.833 70.5,151.5C 70.8333,151.5 71.1667,151.5 71.5,151.5C 72.3629,152.94 72.3629,154.274 71.5,155.5C 73.1446,156.696 74.8113,157.696 76.5,158.5C 71.9677,158.182 67.6344,158.515 63.5,159.5C 59.1667,159.5 54.8333,159.5 50.5,159.5C 49.0474,158.175 49.3808,157.342 51.5,157C 46.4816,156.456 46.4816,155.289 51.5,153.5C 51.3764,152.893 51.0431,152.56 50.5,152.5 Z"/></g>
<g><path style="opacity:1" fill="#a38978" d="M 53.5,151.5 C 54.8333,151.5 56.1667,151.5 57.5,151.5C 61.0443,151.132 64.0443,152.132 66.5,154.5C 65.5416,154.953 64.7083,155.619 64,156.5C 61.843,153.329 59.0097,152.329 55.5,153.5C 56.5,154.167 57.5,154.833 58.5,155.5C 54.9263,156.861 53.2596,155.527 53.5,151.5 Z"/></g>
<g><path style="opacity:1" fill="#729785" d="M 38.5,153.5 C 39.3414,155.379 39.6747,157.379 39.5,159.5C 30.003,160.481 20.6696,160.481 11.5,159.5C 14.5184,159.665 17.5184,159.498 20.5,159C 19.2068,158.51 17.8734,158.343 16.5,158.5C 16.238,157.022 16.5713,155.689 17.5,154.5C 19.6198,153.128 20.6198,153.795 20.5,156.5C 23.021,156.44 25.3543,157.106 27.5,158.5C 30.9272,156.328 34.5939,154.661 38.5,153.5 Z"/></g>
<g><path style="opacity:1" fill="#98867c" d="M 63.5,159.5 C 67.6344,158.515 71.9677,158.182 76.5,158.5C 77.4916,158.328 78.1583,158.662 78.5,159.5C 73.5871,160.105 68.5871,160.105 63.5,159.5 Z"/></g>
</svg>
