<?xml version="1.0" encoding="UTF-8"?>
<!DOCTYPE svg PUBLIC "-//W3C//DTD SVG 1.1//EN" "http://www.w3.org/Graphics/SVG/1.1/DTD/svg11.dtd">
<svg xmlns="http://www.w3.org/2000/svg" version="1.1" width="100px" height="165px" style="shape-rendering:geometricPrecision; text-rendering:geometricPrecision; image-rendering:optimizeQuality; fill-rule:evenodd; clip-rule:evenodd" xmlns:xlink="http://www.w3.org/1999/xlink">
<g><path style="opacity:1" fill="#f8f9f9" d="M 1.5,-0.5 C 34.1667,-0.5 66.8333,-0.5 99.5,-0.5C 99.5,54.5 99.5,109.5 99.5,164.5C 98.1667,164.5 96.8333,164.5 95.5,164.5C 95.6495,163.448 95.4828,162.448 95,161.5C 93.8173,162.731 92.6507,162.731 91.5,161.5C 93.433,158.905 93.433,156.572 91.5,154.5C 92.0253,153.808 92.6919,153.308 93.5,153C 91.4857,150.323 89.4857,147.656 87.5,145C 88.3272,142.271 87.9938,139.604 86.5,137C 87.3115,132.829 87.3115,128.495 86.5,124C 88.2853,122.407 88.452,120.907 87,119.5C 85.6487,114.335 84.482,109.168 83.5,104C 84.7806,99.7108 84.7806,95.3774 83.5,91C 86.1075,85.3943 86.1075,79.8943 83.5,74.5C 83.5,74.1667 83.5,73.8333 83.5,73.5C 85.1898,73.1436 86.1898,72.1436 86.5,70.5C 88.4835,67.2006 89.4835,63.5339 89.5,59.5C 89.8762,53.6604 89.2095,47.9937 87.5,42.5C 86.4064,37.6461 84.2397,33.3127 81,29.5C 80.5026,26.854 80.3359,24.1873 80.5,21.5C 81.0184,20.4226 81.3517,19.2559 81.5,18C 80.4308,14.2264 79.7642,10.393 79.5,6.5C 79.5,5.16667 79.5,3.83333 79.5,2.5C 78.5,2.5 77.5,2.5 76.5,2.5C 76.5,4.16667 76.5,5.83333 76.5,7.5C 76.5,8.5 76.5,9.5 76.5,10.5C 75.8401,12.8157 75.1734,15.149 74.5,17.5C 76.0936,20.9855 76.7603,24.6521 76.5,28.5C 75.3263,29.5137 74.6596,30.847 74.5,32.5C 73.1667,34.5 73.1667,36.5 74.5,38.5C 75.4916,38.3284 76.1583,38.6618 76.5,39.5C 76.6567,40.8734 76.49,42.2068 76,43.5C 75.34,41.6763 74.1733,40.343 72.5,39.5C 71.1667,38.8333 69.8333,38.1667 68.5,37.5C 66.9142,36.8519 65.2475,36.3519 63.5,36C 66.2146,35.1253 67.5479,33.2919 67.5,30.5C 67.555,25.7218 65.3883,22.3885 61,20.5C 59.872,18.6547 59.372,16.6547 59.5,14.5C 60.4959,14.5858 61.3292,14.2524 62,13.5C 62.8395,10.6824 62.0062,8.51573 59.5,7C 56.1832,6.50166 52.8499,6.33499 49.5,6.5C 48.0536,5.38705 46.3869,5.22039 44.5,6C 40.7216,8.11198 37.2216,10.612 34,13.5C 31.2959,18.0915 32.4626,20.7581 37.5,21.5C 38.1667,21.5 38.5,21.8333 38.5,22.5C 36.5328,22.2606 34.6995,22.5939 33,23.5C 32.6667,22.5 32.3333,21.5 32,20.5C 31.3333,21.8333 30.6667,21.8333 30,20.5C 27.8517,22.8785 28.0183,25.0452 30.5,27C 28.3424,28.3117 28.0091,29.9783 29.5,32C 28.9056,32.4643 28.2389,32.631 27.5,32.5C 27.5,32.1667 27.5,31.8333 27.5,31.5C 27.5,31.1667 27.5,30.8333 27.5,30.5C 25.5803,28.5344 23.5803,26.5344 21.5,24.5C 24.6868,23.9734 27.0201,22.3067 28.5,19.5C 30.3371,16.0987 29.3371,13.7654 25.5,12.5C 24.6143,11.675 24.281,10.675 24.5,9.5C 24.5,8.83333 24.8333,8.5 25.5,8.5C 28.6483,7.38399 28.9816,6.05065 26.5,4.5C 21.3595,3.51192 16.0262,3.17859 10.5,3.5C 10.2407,5.98935 11.2407,7.65601 13.5,8.5C 13.5,8.83333 13.5,9.16667 13.5,9.5C 12.4168,9.53944 11.4168,9.87277 10.5,10.5C 9.83333,7.83333 9.16667,5.16667 8.5,2.5C 6.46888,3.5387 5.13554,5.20537 4.5,7.5C 1.89407,5.58224 0.894073,2.91557 1.5,-0.5 Z"/></g>
<g><path style="opacity:1" fill="#aaaaa8" d="M 79.5,6.5 C 78.7321,5.73747 78.2321,4.73747 78,3.5C 77.79,5.05814 77.29,6.39147 76.5,7.5C 76.5,5.83333 76.5,4.16667 76.5,2.5C 77.5,2.5 78.5,2.5 79.5,2.5C 79.5,3.83333 79.5,5.16667 79.5,6.5 Z"/></g>
<g><path style="opacity:1" fill="#9b7173" d="M 26.5,4.5 C 23.9407,4.19845 21.6074,4.53178 19.5,5.5C 17.5,5.5 15.5,5.5 13.5,5.5C 13.5,6.5 13.5,7.5 13.5,8.5C 11.2407,7.65601 10.2407,5.98935 10.5,3.5C 16.0262,3.17859 21.3595,3.51192 26.5,4.5 Z"/></g>
<g><path style="opacity:1" fill="#a35663" d="M 19.5,5.5 C 21.6074,4.53178 23.9407,4.19845 26.5,4.5C 28.9816,6.05065 28.6483,7.38399 25.5,8.5C 23.7078,7.69088 21.7078,7.19088 19.5,7C 22.0972,6.22083 22.0972,5.72083 19.5,5.5 Z"/></g>
<g><path style="opacity:1" fill="#3b4f41" d="M 49.5,6.5 C 52.8499,6.33499 56.1832,6.50166 59.5,7C 62.0062,8.51573 62.8395,10.6824 62,13.5C 61.3292,14.2524 60.4959,14.5858 59.5,14.5C 59.3429,12.1824 58.1762,10.5157 56,9.5C 53.3792,11.0324 50.5459,12.0324 47.5,12.5C 48.5,11.1667 49.5,9.83333 50.5,8.5C 50.1667,7.83333 49.8333,7.16667 49.5,6.5 Z"/></g>
<g><path style="opacity:1" fill="#714238" d="M 19.5,5.5 C 22.0972,5.72083 22.0972,6.22083 19.5,7C 21.7078,7.19088 23.7078,7.69088 25.5,8.5C 24.8333,8.5 24.5,8.83333 24.5,9.5C 23.8333,10.5 23.1667,11.5 22.5,12.5C 20.801,11.4887 19.301,10.1554 18,8.5C 16.9701,8.83611 16.4701,9.50278 16.5,10.5C 15.8333,10.5 15.1667,10.5 14.5,10.5C 14.5,9.83333 14.1667,9.5 13.5,9.5C 13.5,9.16667 13.5,8.83333 13.5,8.5C 13.5,7.5 13.5,6.5 13.5,5.5C 15.5,5.5 17.5,5.5 19.5,5.5 Z"/></g>
<g><path style="opacity:1" fill="#52aa7e" d="M 50.5,8.5 C 49.5,9.83333 48.5,11.1667 47.5,12.5C 44.8284,13.5014 42.1618,14.5014 39.5,15.5C 38.325,15.719 37.325,15.3857 36.5,14.5C 39.6353,11.0994 43.302,8.43271 47.5,6.5C 48.6956,6.84569 48.6956,7.34569 47.5,8C 48.448,8.48278 49.448,8.64945 50.5,8.5 Z"/></g>
<g><path style="opacity:1" fill="#afaa93" d="M 14.5,10.5 C 15.1667,10.5 15.8333,10.5 16.5,10.5C 14.7784,11.9999 13.1117,13.6666 11.5,15.5C 10.8333,15.5 10.1667,15.5 9.5,15.5C 9.16667,15.5 8.83333,15.5 8.5,15.5C 9.7589,12.88 11.7589,11.2133 14.5,10.5 Z"/></g>
<g><path style="opacity:1" fill="#d8cb8e" d="M 22.5,12.5 C 23.0906,13.1515 23.7573,13.8182 24.5,14.5C 20.5546,15.4909 16.5546,15.8242 12.5,15.5C 12.1667,15.5 11.8333,15.5 11.5,15.5C 13.1117,13.6666 14.7784,11.9999 16.5,10.5C 16.4701,9.50278 16.9701,8.83611 18,8.5C 19.301,10.1554 20.801,11.4887 22.5,12.5 Z"/></g>
<g><path style="opacity:1" fill="#7c7569" d="M 24.5,9.5 C 24.281,10.675 24.6143,11.675 25.5,12.5C 29.3371,13.7654 30.3371,16.0987 28.5,19.5C 28.6567,18.1266 28.49,16.7932 28,15.5C 25.0614,16.1281 22.2281,16.7948 19.5,17.5C 19.1667,17.5 18.8333,17.5 18.5,17.5C 18.1583,16.6618 17.4916,16.3284 16.5,16.5C 15.1779,16.33 14.0113,16.6634 13,17.5C 12.5357,16.9056 12.369,16.2389 12.5,15.5C 16.5546,15.8242 20.5546,15.4909 24.5,14.5C 23.7573,13.8182 23.0906,13.1515 22.5,12.5C 23.1667,11.5 23.8333,10.5 24.5,9.5 Z"/></g>
<g><path style="opacity:1" fill="#5c8973" d="M 49.5,6.5 C 49.8333,7.16667 50.1667,7.83333 50.5,8.5C 49.448,8.64945 48.448,8.48278 47.5,8C 48.6956,7.34569 48.6956,6.84569 47.5,6.5C 43.302,8.43271 39.6353,11.0994 36.5,14.5C 37.325,15.3857 38.325,15.719 39.5,15.5C 38.7177,17.4513 37.3844,18.9513 35.5,20C 36.4158,20.2784 37.0825,20.7784 37.5,21.5C 32.4626,20.7581 31.2959,18.0915 34,13.5C 37.2216,10.612 40.7216,8.11198 44.5,6C 46.3869,5.22039 48.0536,5.38705 49.5,6.5 Z"/></g>
<g><path style="opacity:1" fill="#272f1e" d="M 59.5,14.5 C 58.71,15.6085 58.21,16.9419 58,18.5C 56.8068,16.5029 55.3068,14.8362 53.5,13.5C 51.7839,13.6287 50.1172,13.962 48.5,14.5C 45.2033,14.6317 43.5367,16.2984 43.5,19.5C 39.4994,18.1673 38.8327,19.1673 41.5,22.5C 41.0431,23.2975 40.3764,23.6309 39.5,23.5C 39.5,22.8333 39.1667,22.5 38.5,22.5C 38.5,21.8333 38.1667,21.5 37.5,21.5C 37.0825,20.7784 36.4158,20.2784 35.5,20C 37.3844,18.9513 38.7177,17.4513 39.5,15.5C 42.1618,14.5014 44.8284,13.5014 47.5,12.5C 50.5459,12.0324 53.3792,11.0324 56,9.5C 58.1762,10.5157 59.3429,12.1824 59.5,14.5 Z"/></g>
<g><path style="opacity:1" fill="#3c3d43" d="M 79.5,6.5 C 79.7642,10.393 80.4308,14.2264 81.5,18C 81.3517,19.2559 81.0184,20.4226 80.5,21.5C 80.0276,23.5313 79.0276,25.1979 77.5,26.5C 77.783,23.2386 78.1164,19.7386 78.5,16C 78.4535,13.7047 77.7868,11.8714 76.5,10.5C 76.5,9.5 76.5,8.5 76.5,7.5C 77.29,6.39147 77.79,5.05814 78,3.5C 78.2321,4.73747 78.7321,5.73747 79.5,6.5 Z"/></g>
<g><path style="opacity:1" fill="#6e8b91" d="M 76.5,10.5 C 77.7868,11.8714 78.4535,13.7047 78.5,16C 78.1164,19.7386 77.783,23.2386 77.5,26.5C 79.0311,27.9245 78.6977,28.5912 76.5,28.5C 76.7603,24.6521 76.0936,20.9855 74.5,17.5C 75.1734,15.149 75.8401,12.8157 76.5,10.5 Z"/></g>
<g><path style="opacity:1" fill="#e6caa5" d="M 47.5,20.5 C 46.5655,21.5676 46.2322,22.901 46.5,24.5C 46.1667,24.5 45.8333,24.5 45.5,24.5C 44.8106,23.2264 43.9772,23.2264 43,24.5C 42.6155,22.8034 42.7822,21.1368 43.5,19.5C 44.9305,19.5792 46.2638,19.2458 47.5,18.5C 48.463,18.9698 48.463,19.6365 47.5,20.5 Z"/></g>
<g><path style="opacity:1" fill="#ae967a" d="M 48.5,14.5 C 49.8113,17.1541 51.1447,19.8208 52.5,22.5C 51.5326,23.8062 50.1993,24.4729 48.5,24.5C 51.2178,22.5774 50.8845,21.244 47.5,20.5C 48.463,19.6365 48.463,18.9698 47.5,18.5C 46.2638,19.2458 44.9305,19.5792 43.5,19.5C 43.5367,16.2984 45.2033,14.6317 48.5,14.5 Z"/></g>
<g><path style="opacity:1" fill="#816e62" d="M 53.5,13.5 C 53.5858,14.4959 53.2524,15.3292 52.5,16C 55.6366,17.6932 57.9699,20.1932 59.5,23.5C 59.0302,24.463 58.3635,24.463 57.5,23.5C 56.4324,22.5655 55.099,22.2322 53.5,22.5C 53.1667,22.5 52.8333,22.5 52.5,22.5C 51.1447,19.8208 49.8113,17.1541 48.5,14.5C 50.1172,13.962 51.7839,13.6287 53.5,13.5 Z"/></g>
<g><path style="opacity:1" fill="#3d4a4b" d="M 8.5,15.5 C 8.83333,15.5 9.16667,15.5 9.5,15.5C 9.85162,18.1141 11.3516,19.7808 14,20.5C 16.0197,19.9681 16.853,18.6348 16.5,16.5C 17.4916,16.3284 18.1583,16.6618 18.5,17.5C 17.156,19.1849 17.3227,20.8516 19,22.5C 19.4935,20.8659 19.6602,19.1992 19.5,17.5C 22.2281,16.7948 25.0614,16.1281 28,15.5C 28.49,16.7932 28.6567,18.1266 28.5,19.5C 27.0201,22.3067 24.6868,23.9734 21.5,24.5C 23.5803,26.5344 25.5803,28.5344 27.5,30.5C 25.2972,30.3964 23.2972,29.7298 21.5,28.5C 21.2942,26.4508 20.4609,26.1175 19,27.5C 18.0053,26.9341 17.172,26.2674 16.5,25.5C 13.7494,24.1098 11.2494,22.1098 9,19.5C 8.50999,18.2068 8.34332,16.8734 8.5,15.5 Z"/></g>
<g><path style="opacity:1" fill="#7dadb7" d="M 18.5,17.5 C 18.8333,17.5 19.1667,17.5 19.5,17.5C 19.6602,19.1992 19.4935,20.8659 19,22.5C 17.3227,20.8516 17.156,19.1849 18.5,17.5 Z"/></g>
<g><path style="opacity:1" fill="#49818c" d="M 9.5,15.5 C 10.1667,15.5 10.8333,15.5 11.5,15.5C 11.8333,15.5 12.1667,15.5 12.5,15.5C 12.369,16.2389 12.5357,16.9056 13,17.5C 14.0113,16.6634 15.1779,16.33 16.5,16.5C 16.853,18.6348 16.0197,19.9681 14,20.5C 11.3516,19.7808 9.85162,18.1141 9.5,15.5 Z"/></g>
<g><path style="opacity:1" fill="#5a3f25" d="M 47.5,20.5 C 50.8845,21.244 51.2178,22.5774 48.5,24.5C 47.5655,23.4324 47.2322,22.099 47.5,20.5 Z"/></g>
<g><path style="opacity:1" fill="#56534e" d="M 53.5,13.5 C 55.3068,14.8362 56.8068,16.5029 58,18.5C 58.21,16.9419 58.71,15.6085 59.5,14.5C 59.372,16.6547 59.872,18.6547 61,20.5C 65.3883,22.3885 67.555,25.7218 67.5,30.5C 66.2876,31.2299 65.2876,32.2299 64.5,33.5C 60.0156,35.0266 59.0156,34.0266 61.5,30.5C 60.5389,26.5433 59.5389,26.5433 58.5,30.5C 57.5258,28.2573 57.1924,25.924 57.5,23.5C 58.3635,24.463 59.0302,24.463 59.5,23.5C 57.9699,20.1932 55.6366,17.6932 52.5,16C 53.2524,15.3292 53.5858,14.4959 53.5,13.5 Z"/></g>
<g><path style="opacity:1" fill="#786e66" d="M 43.5,19.5 C 42.7822,21.1368 42.6155,22.8034 43,24.5C 43.9772,23.2264 44.8106,23.2264 45.5,24.5C 42.1438,25.2596 40.1438,27.2596 39.5,30.5C 38.8968,28.3743 38.8968,26.0409 39.5,23.5C 40.3764,23.6309 41.0431,23.2975 41.5,22.5C 38.8327,19.1673 39.4994,18.1673 43.5,19.5 Z"/></g>
<g><path style="opacity:1" fill="#9f7f61" d="M 47.5,20.5 C 47.2322,22.099 47.5655,23.4324 48.5,24.5C 46.9579,27.1073 47.4579,27.7739 50,26.5C 52.7957,28.091 53.1291,30.091 51,32.5C 50.2496,31.8742 49.4162,31.3742 48.5,31C 50.2705,30.4646 50.6039,29.6313 49.5,28.5C 47.8437,30.0224 46.677,29.689 46,27.5C 45.5357,28.0944 45.369,28.7611 45.5,29.5C 44.9033,29.2648 44.5699,28.7648 44.5,28C 45.4295,26.9231 46.0962,25.7564 46.5,24.5C 46.2322,22.901 46.5655,21.5676 47.5,20.5 Z"/></g>
<g><path style="opacity:1" fill="#87766b" d="M 80.5,21.5 C 80.3359,24.1873 80.5026,26.854 81,29.5C 84.2397,33.3127 86.4064,37.6461 87.5,42.5C 86.5489,43.9187 86.2155,45.5853 86.5,47.5C 84.4458,47.3653 82.7791,48.032 81.5,49.5C 81.5,49.1667 81.5,48.8333 81.5,48.5C 81.7822,47.2223 82.4489,46.2223 83.5,45.5C 84.6935,45.0296 85.3601,44.0296 85.5,42.5C 84.3313,38.4988 82.498,34.8322 80,31.5C 78.9326,32.1905 77.7659,32.6905 76.5,33C 78.6653,33.9917 78.4986,35.1583 76,36.5C 75.5,36.3333 75,36.1667 74.5,36C 75.1712,35.0138 75.1712,33.8471 74.5,32.5C 74.6596,30.847 75.3263,29.5137 76.5,28.5C 78.6977,28.5912 79.0311,27.9245 77.5,26.5C 79.0276,25.1979 80.0276,23.5313 80.5,21.5 Z"/></g>
<g><path style="opacity:1" fill="#fbfbfa" d="M -0.5,-0.5 C 0.166667,-0.5 0.833333,-0.5 1.5,-0.5C 0.894073,2.91557 1.89407,5.58224 4.5,7.5C 5.13554,5.20537 6.46888,3.5387 8.5,2.5C 9.16667,5.16667 9.83333,7.83333 10.5,10.5C 11.4168,9.87277 12.4168,9.53944 13.5,9.5C 14.1667,9.5 14.5,9.83333 14.5,10.5C 11.7589,11.2133 9.7589,12.88 8.5,15.5C 8.34332,16.8734 8.50999,18.2068 9,19.5C 11.2494,22.1098 13.7494,24.1098 16.5,25.5C 14.8212,25.2852 13.8212,25.9519 13.5,27.5C 12.209,27.2627 11.209,27.596 10.5,28.5C 9.56552,29.5676 9.23219,30.901 9.5,32.5C 15.5,32.5 21.5,32.5 27.5,32.5C 28.2389,32.631 28.9056,32.4643 29.5,32C 28.0091,29.9783 28.3424,28.3117 30.5,27C 28.0183,25.0452 27.8517,22.8785 30,20.5C 30.6667,21.8333 31.3333,21.8333 32,20.5C 32.3333,21.5 32.6667,22.5 33,23.5C 34.6995,22.5939 36.5328,22.2606 38.5,22.5C 39.1667,22.5 39.5,22.8333 39.5,23.5C 38.8968,26.0409 38.8968,28.3743 39.5,30.5C 39.8333,31.1667 40.1667,31.8333 40.5,32.5C 40.957,35.3093 40.957,37.976 40.5,40.5C 36.7739,39.9513 34.1073,41.2846 32.5,44.5C 31.8333,44.5 31.5,44.8333 31.5,45.5C 26.3058,49.9222 22.6391,55.2556 20.5,61.5C 21.9013,66.4017 24.2346,70.735 27.5,74.5C 31.3715,78.5833 35.7048,81.9166 40.5,84.5C 39.7814,86.7638 39.448,89.0971 39.5,91.5C 38.5318,93.6074 38.1984,95.9407 38.5,98.5C 38.5,98.8333 38.5,99.1667 38.5,99.5C 36.6505,111.241 33.9838,122.907 30.5,134.5C 30.5,135.167 30.5,135.833 30.5,136.5C 29.5655,137.568 29.2322,138.901 29.5,140.5C 22.0882,139.55 16.0882,141.884 11.5,147.5C 10.5041,147.414 9.67076,147.748 9,148.5C 8.93505,146.117 8.10172,145.45 6.5,146.5C 5.82812,143.103 4.99478,139.77 4,136.5C 3.40101,104.135 3.56768,71.8014 4.5,39.5C 5.55198,39.6495 6.55198,39.4828 7.5,39C 7.13424,37.1685 5.80091,35.6685 3.5,34.5C 4.16667,34.1667 4.83333,33.8333 5.5,33.5C 3.6155,32.8027 3.28217,31.8027 4.5,30.5C 2.95467,29.5481 1.28801,29.2148 -0.5,29.5C -0.5,19.5 -0.5,9.5 -0.5,-0.5 Z"/></g>
<g><path style="opacity:1" fill="#5a3831" d="M 13.5,27.5 C 15.9401,27.6267 18.6068,27.96 21.5,28.5C 23.2972,29.7298 25.2972,30.3964 27.5,30.5C 27.5,30.8333 27.5,31.1667 27.5,31.5C 25.1667,31.5 22.8333,31.5 20.5,31.5C 18.1891,29.9318 15.5224,29.0984 12.5,29C 13.056,28.6174 13.3893,28.1174 13.5,27.5 Z"/></g>
<g><path style="opacity:1" fill="#a65e6b" d="M 13.5,27.5 C 13.3893,28.1174 13.056,28.6174 12.5,29C 15.5224,29.0984 18.1891,29.9318 20.5,31.5C 17.1667,31.5 13.8333,31.5 10.5,31.5C 10.5,30.5 10.5,29.5 10.5,28.5C 11.209,27.596 12.209,27.2627 13.5,27.5 Z"/></g>
<g><path style="opacity:1" fill="#a28f7d" d="M 16.5,25.5 C 17.172,26.2674 18.0053,26.9341 19,27.5C 20.4609,26.1175 21.2942,26.4508 21.5,28.5C 18.6068,27.96 15.9401,27.6267 13.5,27.5C 13.8212,25.9519 14.8212,25.2852 16.5,25.5 Z"/></g>
<g><path style="opacity:1" fill="#b0999e" d="M 10.5,28.5 C 10.5,29.5 10.5,30.5 10.5,31.5C 13.8333,31.5 17.1667,31.5 20.5,31.5C 22.8333,31.5 25.1667,31.5 27.5,31.5C 27.5,31.8333 27.5,32.1667 27.5,32.5C 21.5,32.5 15.5,32.5 9.5,32.5C 9.23219,30.901 9.56552,29.5676 10.5,28.5 Z"/></g>
<g><path style="opacity:1" fill="#342e29" d="M 45.5,24.5 C 45.8333,24.5 46.1667,24.5 46.5,24.5C 46.0962,25.7564 45.4295,26.9231 44.5,28C 44.5699,28.7648 44.9033,29.2648 45.5,29.5C 46.0553,31.7288 47.3886,33.3954 49.5,34.5C 48.5279,37.543 46.5279,39.2097 43.5,39.5C 42.596,38.791 42.2627,37.791 42.5,36.5C 43.9778,36.762 45.3112,36.4287 46.5,35.5C 44.472,34.451 42.472,33.451 40.5,32.5C 40.1667,31.8333 39.8333,31.1667 39.5,30.5C 40.1438,27.2596 42.1438,25.2596 45.5,24.5 Z"/></g>
<g><path style="opacity:1" fill="#5e5c5c" d="M 40.5,32.5 C 42.472,33.451 44.472,34.451 46.5,35.5C 45.3112,36.4287 43.9778,36.762 42.5,36.5C 42.2627,37.791 42.596,38.791 43.5,39.5C 43.1667,40.1667 42.8333,40.8333 42.5,41.5C 41.5084,41.6716 40.8417,41.3382 40.5,40.5C 40.957,37.976 40.957,35.3093 40.5,32.5 Z"/></g>
<g><path style="opacity:1" fill="#90735d" d="M 55.5,27.5 C 56.0369,31.0954 57.7036,34.0954 60.5,36.5C 59.2502,36.5774 58.4169,37.244 58,38.5C 54.6664,35.6051 53.833,31.9384 55.5,27.5 Z"/></g>
<g><path style="opacity:1" fill="#312924" d="M 53.5,22.5 C 55.099,22.2322 56.4324,22.5655 57.5,23.5C 57.1924,25.924 57.5258,28.2573 58.5,30.5C 59.5389,26.5433 60.5389,26.5433 61.5,30.5C 59.0156,34.0266 60.0156,35.0266 64.5,33.5C 65.2876,32.2299 66.2876,31.2299 67.5,30.5C 67.5479,33.2919 66.2146,35.1253 63.5,36C 65.2475,36.3519 66.9142,36.8519 68.5,37.5C 68.5,37.8333 68.5,38.1667 68.5,38.5C 66.0504,38.298 63.717,38.6314 61.5,39.5C 61.7373,38.209 61.404,37.209 60.5,36.5C 57.7036,34.0954 56.0369,31.0954 55.5,27.5C 55.6085,25.4862 54.9418,23.8195 53.5,22.5 Z"/></g>
<g><path style="opacity:1" fill="#cfb499" d="M 52.5,22.5 C 52.8333,22.5 53.1667,22.5 53.5,22.5C 54.9418,23.8195 55.6085,25.4862 55.5,27.5C 53.833,31.9384 54.6664,35.6051 58,38.5C 58.4169,37.244 59.2502,36.5774 60.5,36.5C 61.404,37.209 61.7373,38.209 61.5,39.5C 61.5,41.1667 61.5,42.8333 61.5,44.5C 60.1851,43.5244 58.8518,42.5244 57.5,41.5C 56.1455,43.5212 54.4788,45.1879 52.5,46.5C 51.5,46.5 50.5,46.5 49.5,46.5C 48.8333,46.5 48.5,46.1667 48.5,45.5C 50.5991,44.5721 52.2657,43.0721 53.5,41C 50.2744,39.8011 46.941,39.3011 43.5,39.5C 46.5279,39.2097 48.5279,37.543 49.5,34.5C 47.3886,33.3954 46.0553,31.7288 45.5,29.5C 45.369,28.7611 45.5357,28.0944 46,27.5C 46.677,29.689 47.8437,30.0224 49.5,28.5C 50.6039,29.6313 50.2705,30.4646 48.5,31C 49.4162,31.3742 50.2496,31.8742 51,32.5C 53.1291,30.091 52.7957,28.091 50,26.5C 47.4579,27.7739 46.9579,27.1073 48.5,24.5C 50.1993,24.4729 51.5326,23.8062 52.5,22.5 Z"/></g>
<g><path style="opacity:1" fill="#dcbfa8" d="M 83.5,45.5 C 81.4066,43.5294 79.74,41.196 78.5,38.5C 77.0416,37.218 75.7082,37.218 74.5,38.5C 73.1667,36.5 73.1667,34.5 74.5,32.5C 75.1712,33.8471 75.1712,35.0138 74.5,36C 75,36.1667 75.5,36.3333 76,36.5C 78.4986,35.1583 78.6653,33.9917 76.5,33C 77.7659,32.6905 78.9326,32.1905 80,31.5C 82.498,34.8322 84.3313,38.4988 85.5,42.5C 85.3601,44.0296 84.6935,45.0296 83.5,45.5 Z"/></g>
<g><path style="opacity:1" fill="#dadfdf" d="M 68.5,38.5 C 69.1098,39.391 69.4431,40.391 69.5,41.5C 68.0937,41.9731 67.427,42.9731 67.5,44.5C 67.1667,44.5 66.8333,44.5 66.5,44.5C 64.7659,45.562 63.0992,45.562 61.5,44.5C 61.5,42.8333 61.5,41.1667 61.5,39.5C 63.717,38.6314 66.0504,38.298 68.5,38.5 Z"/></g>
<g><path style="opacity:1" fill="#5b4e3d" d="M 74.5,38.5 C 75.7082,37.218 77.0416,37.218 78.5,38.5C 79.74,41.196 81.4066,43.5294 83.5,45.5C 82.4489,46.2223 81.7822,47.2223 81.5,48.5C 80.8333,50.1667 80.1667,51.8333 79.5,53.5C 79.4225,49.1234 78.9225,44.7901 78,40.5C 77.6174,39.944 77.1174,39.6107 76.5,39.5C 76.1583,38.6618 75.4916,38.3284 74.5,38.5 Z"/></g>
<g><path style="opacity:1" fill="#427b92" d="M 40.5,40.5 C 40.8417,41.3382 41.5084,41.6716 42.5,41.5C 44.4632,42.8202 46.4632,44.1535 48.5,45.5C 48.5,46.1667 48.8333,46.5 49.5,46.5C 50.8062,47.4674 51.4729,48.8007 51.5,50.5C 51.6495,51.552 51.4828,52.552 51,53.5C 48.2933,48.7932 44.6266,45.1266 40,42.5C 37.318,43.0672 35.1514,44.4006 33.5,46.5C 32.7025,46.0431 32.3691,45.3764 32.5,44.5C 34.1073,41.2846 36.7739,39.9513 40.5,40.5 Z"/></g>
<g><path style="opacity:1" fill="#e8ebf0" d="M 43.5,39.5 C 46.941,39.3011 50.2744,39.8011 53.5,41C 52.2657,43.0721 50.5991,44.5721 48.5,45.5C 46.4632,44.1535 44.4632,42.8202 42.5,41.5C 42.8333,40.8333 43.1667,40.1667 43.5,39.5 Z"/></g>
<g><path style="opacity:1" fill="#504e44" d="M 61.5,44.5 C 63.0992,45.562 64.7659,45.562 66.5,44.5C 65.2493,47.1323 64.2493,49.799 63.5,52.5C 63.5052,47.6105 61.1718,45.1105 56.5,45C 55.2889,46.1131 55.2889,47.2798 56.5,48.5C 56.0431,49.2975 55.3764,49.6309 54.5,49.5C 53.0937,49.0269 52.427,48.0269 52.5,46.5C 54.4788,45.1879 56.1455,43.5212 57.5,41.5C 58.8518,42.5244 60.1851,43.5244 61.5,44.5 Z"/></g>
<g><path style="opacity:1" fill="#cfc79e" d="M 86.5,47.5 C 86.5,48.8333 86.5,50.1667 86.5,51.5C 84.2188,51.9227 82.5521,51.256 81.5,49.5C 82.7791,48.032 84.4458,47.3653 86.5,47.5 Z"/></g>
<g><path style="opacity:1" fill="#45483f" d="M 87.5,42.5 C 89.2095,47.9937 89.8762,53.6604 89.5,59.5C 89.0826,56.8411 88.0826,54.5078 86.5,52.5C 86.5,52.1667 86.5,51.8333 86.5,51.5C 86.5,50.1667 86.5,48.8333 86.5,47.5C 86.2155,45.5853 86.5489,43.9187 87.5,42.5 Z"/></g>
<g><path style="opacity:1" fill="#566e76" d="M 49.5,46.5 C 50.5,46.5 51.5,46.5 52.5,46.5C 52.427,48.0269 53.0937,49.0269 54.5,49.5C 55.0289,51.5834 56.0289,53.4167 57.5,55C 56.7231,60.558 56.7231,65.8913 57.5,71C 56.2298,71.8996 55.2298,73.0663 54.5,74.5C 52.7807,73.2113 51.4474,73.5446 50.5,75.5C 50.5,74.5 50.5,73.5 50.5,72.5C 53.0967,71.0675 54.7633,68.9009 55.5,66C 54.8958,62.2672 54.2291,58.2672 53.5,54C 53.3917,52.3189 52.7251,51.1522 51.5,50.5C 51.4729,48.8007 50.8062,47.4674 49.5,46.5 Z"/></g>
<g><path style="opacity:1" fill="#41a5c6" d="M 68.5,68.5 C 66.6833,63.977 65.6833,59.1437 65.5,54C 66.6944,50.9241 67.361,47.7574 67.5,44.5C 67.427,42.9731 68.0937,41.9731 69.5,41.5C 70.1174,41.3893 70.6174,41.056 71,40.5C 71.5625,42.8661 71.3958,45.1994 70.5,47.5C 70.4823,49.3726 70.9823,49.7059 72,48.5C 72.9045,55.7084 71.7378,62.3751 68.5,68.5 Z"/></g>
<g><path style="opacity:1" fill="#496e86" d="M 79.5,59.5 C 79.5,59.8333 79.5,60.1667 79.5,60.5C 78.6554,61.6715 77.9887,63.0048 77.5,64.5C 76.5084,64.3284 75.8417,64.6618 75.5,65.5C 74.391,65.4431 73.391,65.1098 72.5,64.5C 73.6358,62.9539 74.3025,61.1206 74.5,59C 73.6746,55.7608 73.6746,52.5941 74.5,49.5C 75.7899,48.9423 76.6232,47.9423 77,46.5C 76.8916,51.2803 77.725,55.6136 79.5,59.5 Z"/></g>
<g><path style="opacity:1" fill="#819298" d="M 72.5,39.5 C 74.1733,40.343 75.34,41.6763 76,43.5C 76.49,42.2068 76.6567,40.8734 76.5,39.5C 77.1174,39.6107 77.6174,39.944 78,40.5C 78.9225,44.7901 79.4225,49.1234 79.5,53.5C 79.5,55.5 79.5,57.5 79.5,59.5C 77.725,55.6136 76.8916,51.2803 77,46.5C 76.6232,47.9423 75.7899,48.9423 74.5,49.5C 73.8333,46.1667 73.1667,42.8333 72.5,39.5 Z"/></g>
<g><path style="opacity:1" fill="#456567" d="M 81.5,48.5 C 81.5,48.8333 81.5,49.1667 81.5,49.5C 82.5521,51.256 84.2188,51.9227 86.5,51.5C 86.5,51.8333 86.5,52.1667 86.5,52.5C 86.5,53.1667 86.5,53.8333 86.5,54.5C 86.1667,54.5 85.8333,54.5 85.5,54.5C 84.4324,53.5655 83.099,53.2322 81.5,53.5C 81.5,55.8333 81.5,58.1667 81.5,60.5C 81.1774,64.226 81.5108,67.8927 82.5,71.5C 83.1835,71.1373 83.8501,70.8039 84.5,70.5C 85.1667,70.5 85.8333,70.5 86.5,70.5C 86.1898,72.1436 85.1898,73.1436 83.5,73.5C 82.5,73.5 81.5,73.5 80.5,73.5C 80.4135,69.1434 80.0802,64.81 79.5,60.5C 79.5,60.1667 79.5,59.8333 79.5,59.5C 79.5,57.5 79.5,55.5 79.5,53.5C 80.1667,51.8333 80.8333,50.1667 81.5,48.5 Z"/></g>
<g><path style="opacity:1" fill="#49869e" d="M 31.5,45.5 C 29.4142,49.2765 27.7476,53.2765 26.5,57.5C 23.0699,56.2578 21.7366,57.5911 22.5,61.5C 21.8333,61.5 21.1667,61.5 20.5,61.5C 22.6391,55.2556 26.3058,49.9222 31.5,45.5 Z"/></g>
<g><path style="opacity:1" fill="#49817b" d="M 66.5,44.5 C 66.8333,44.5 67.1667,44.5 67.5,44.5C 67.361,47.7574 66.6944,50.9241 65.5,54C 65.6833,59.1437 66.6833,63.977 68.5,68.5C 67.3951,69.6005 66.0618,70.2671 64.5,70.5C 64.4226,69.2502 63.756,68.4169 62.5,68C 64.8075,67.6458 65.1408,66.6458 63.5,65C 63.9054,64.0546 64.572,63.3879 65.5,63C 64.6919,62.6924 64.0253,62.1924 63.5,61.5C 64.3574,58.5491 64.3574,55.5491 63.5,52.5C 64.2493,49.799 65.2493,47.1323 66.5,44.5 Z"/></g>
<g><path style="opacity:1" fill="#3786a0" d="M 85.5,54.5 C 85.8333,54.5 86.1667,54.5 86.5,54.5C 87.3914,59.86 86.7247,65.1934 84.5,70.5C 83.8501,70.8039 83.1835,71.1373 82.5,71.5C 81.5108,67.8927 81.1774,64.226 81.5,60.5C 82.404,61.209 82.7373,62.209 82.5,63.5C 83.5,63.5 84.5,63.5 85.5,63.5C 85.5,60.5 85.5,57.5 85.5,54.5 Z"/></g>
<g><path style="opacity:1" fill="#40a5cf" d="M 85.5,54.5 C 85.5,57.5 85.5,60.5 85.5,63.5C 84.5,63.5 83.5,63.5 82.5,63.5C 82.7373,62.209 82.404,61.209 81.5,60.5C 81.5,58.1667 81.5,55.8333 81.5,53.5C 83.099,53.2322 84.4324,53.5655 85.5,54.5 Z"/></g>
<g><path style="opacity:1" fill="#2d485a" d="M 50.5,72.5 C 50.5,73.5 50.5,74.5 50.5,75.5C 49.391,75.5569 48.391,75.8902 47.5,76.5C 45.7056,75.7671 44.0389,74.7671 42.5,73.5C 41.0079,67.5317 39.5079,61.5317 38,55.5C 34.3353,56.9845 32.502,59.6512 32.5,63.5C 31.4168,63.4606 30.4168,63.1272 29.5,62.5C 28.537,62.9698 28.537,63.6365 29.5,64.5C 27.6921,63.0821 27.0254,61.0821 27.5,58.5C 28.8333,58.5 30.1667,58.5 31.5,58.5C 32.9842,56.9263 34.6508,55.593 36.5,54.5C 36.2837,52.3193 37.117,50.6526 39,49.5C 40.8693,54.3175 41.8693,59.3175 42,64.5C 42.8624,62.913 43.5291,61.2464 44,59.5C 44.8294,64.1373 45.3294,68.804 45.5,73.5C 47.2161,73.3713 48.8828,73.038 50.5,72.5 Z"/></g>
<g><path style="opacity:1" fill="#6f5a46" d="M 63.5,52.5 C 64.3574,55.5491 64.3574,58.5491 63.5,61.5C 64.0253,62.1924 64.6919,62.6924 65.5,63C 64.572,63.3879 63.9054,64.0546 63.5,65C 65.1408,66.6458 64.8075,67.6458 62.5,68C 63.756,68.4169 64.4226,69.2502 64.5,70.5C 64.5,71.1667 64.5,71.8333 64.5,72.5C 64.366,74.2915 64.6993,75.9582 65.5,77.5C 60.1808,78.0718 54.8475,78.7385 49.5,79.5C 52.4281,80.4841 55.4281,80.8174 58.5,80.5C 58.3893,81.1174 58.056,81.6174 57.5,82C 54.1832,82.4983 50.8499,82.665 47.5,82.5C 47.5394,81.4168 47.8728,80.4168 48.5,79.5C 47.5,78.8333 46.5,78.1667 45.5,77.5C 45.9569,76.7025 46.6236,76.3691 47.5,76.5C 48.391,75.8902 49.391,75.5569 50.5,75.5C 51.4474,73.5446 52.7807,73.2113 54.5,74.5C 55.2298,73.0663 56.2298,71.8996 57.5,71C 56.7231,65.8913 56.7231,60.558 57.5,55C 56.0289,53.4167 55.0289,51.5834 54.5,49.5C 55.3764,49.6309 56.0431,49.2975 56.5,48.5C 55.2889,47.2798 55.2889,46.1131 56.5,45C 61.1718,45.1105 63.5052,47.6105 63.5,52.5 Z"/></g>
<g><path style="opacity:1" fill="#1f2f3d" d="M 68.5,37.5 C 69.8333,38.1667 71.1667,38.8333 72.5,39.5C 73.1667,42.8333 73.8333,46.1667 74.5,49.5C 73.6746,52.5941 73.6746,55.7608 74.5,59C 74.3025,61.1206 73.6358,62.9539 72.5,64.5C 72.5,65.8333 72.5,67.1667 72.5,68.5C 71.8333,68.5 71.5,68.8333 71.5,69.5C 70.2402,71.3671 68.5735,72.7005 66.5,73.5C 66.1583,72.6618 65.4916,72.3284 64.5,72.5C 64.5,71.8333 64.5,71.1667 64.5,70.5C 66.0618,70.2671 67.3951,69.6005 68.5,68.5C 71.7378,62.3751 72.9045,55.7084 72,48.5C 70.9823,49.7059 70.4823,49.3726 70.5,47.5C 71.3958,45.1994 71.5625,42.8661 71,40.5C 70.6174,41.056 70.1174,41.3893 69.5,41.5C 69.4431,40.391 69.1098,39.391 68.5,38.5C 68.5,38.1667 68.5,37.8333 68.5,37.5 Z"/></g>
<g><path style="opacity:1" fill="#20393f" d="M 86.5,52.5 C 88.0826,54.5078 89.0826,56.8411 89.5,59.5C 89.4835,63.5339 88.4835,67.2006 86.5,70.5C 85.8333,70.5 85.1667,70.5 84.5,70.5C 86.7247,65.1934 87.3914,59.86 86.5,54.5C 86.5,53.8333 86.5,53.1667 86.5,52.5 Z"/></g>
<g><path style="opacity:1" fill="#30373b" d="M 77.5,64.5 C 78.8333,66.8333 78.8333,69.1667 77.5,71.5C 76.2702,69.7028 75.6036,67.7028 75.5,65.5C 75.8417,64.6618 76.5084,64.3284 77.5,64.5 Z"/></g>
<g><path style="opacity:1" fill="#2e4f61" d="M 20.5,61.5 C 21.1667,61.5 21.8333,61.5 22.5,61.5C 23.7396,65.6506 25.7396,69.3173 28.5,72.5C 28.1667,73.1667 27.8333,73.8333 27.5,74.5C 24.2346,70.735 21.9013,66.4017 20.5,61.5 Z"/></g>
<g><path style="opacity:1" fill="#202929" d="M 32.5,63.5 C 33.8466,66.1932 35.1799,68.8599 36.5,71.5C 36.6567,72.8734 36.49,74.2068 36,75.5C 35.6174,74.944 35.1174,74.6107 34.5,74.5C 34.6495,73.448 34.4828,72.448 34,71.5C 33.0228,72.7736 32.1894,72.7736 31.5,71.5C 31.8151,68.7892 31.1484,66.4559 29.5,64.5C 28.537,63.6365 28.537,62.9698 29.5,62.5C 30.4168,63.1272 31.4168,63.4606 32.5,63.5 Z"/></g>
<g><path style="opacity:1" fill="#34a5d2" d="M 51.5,50.5 C 52.7251,51.1522 53.3917,52.3189 53.5,54C 54.2291,58.2672 54.8958,62.2672 55.5,66C 54.7633,68.9009 53.0967,71.0675 50.5,72.5C 48.8828,73.038 47.2161,73.3713 45.5,73.5C 45.3294,68.804 44.8294,64.1373 44,59.5C 43.5291,61.2464 42.8624,62.913 42,64.5C 41.8693,59.3175 40.8693,54.3175 39,49.5C 37.117,50.6526 36.2837,52.3193 36.5,54.5C 35.1805,53.0582 33.5138,52.3915 31.5,52.5C 30.6201,54.6112 30.6201,56.6112 31.5,58.5C 30.1667,58.5 28.8333,58.5 27.5,58.5C 27.0254,61.0821 27.6921,63.0821 29.5,64.5C 31.1484,66.4559 31.8151,68.7892 31.5,71.5C 30.391,71.5569 29.391,71.8902 28.5,72.5C 25.7396,69.3173 23.7396,65.6506 22.5,61.5C 21.7366,57.5911 23.0699,56.2578 26.5,57.5C 27.7476,53.2765 29.4142,49.2765 31.5,45.5C 31.5,44.8333 31.8333,44.5 32.5,44.5C 32.3691,45.3764 32.7025,46.0431 33.5,46.5C 35.1514,44.4006 37.318,43.0672 40,42.5C 44.6266,45.1266 48.2933,48.7932 51,53.5C 51.4828,52.552 51.6495,51.552 51.5,50.5 Z"/></g>
<g><path style="opacity:1" fill="#5b798c" d="M 36.5,54.5 C 34.6508,55.593 32.9842,56.9263 31.5,58.5C 30.6201,56.6112 30.6201,54.6112 31.5,52.5C 33.5138,52.3915 35.1805,53.0582 36.5,54.5 Z"/></g>
<g><path style="opacity:1" fill="#eeece7" d="M 42.5,73.5 C 41.0813,74.4511 39.4147,74.7845 37.5,74.5C 37.7373,73.209 37.404,72.209 36.5,71.5C 35.1799,68.8599 33.8466,66.1932 32.5,63.5C 32.502,59.6512 34.3353,56.9845 38,55.5C 39.5079,61.5317 41.0079,67.5317 42.5,73.5 Z"/></g>
<g><path style="opacity:1" fill="#9f867c" d="M 72.5,68.5 C 73.172,69.2674 74.0053,69.9341 75,70.5C 75.8007,73.367 75.6341,76.0336 74.5,78.5C 74.5,76.8333 74.5,75.1667 74.5,73.5C 73.7888,71.9699 72.7888,70.6366 71.5,69.5C 71.5,68.8333 71.8333,68.5 72.5,68.5 Z"/></g>
<g><path style="opacity:1" fill="#6f6455" d="M 31.5,71.5 C 32.1894,72.7736 33.0228,72.7736 34,71.5C 34.4828,72.448 34.6495,73.448 34.5,74.5C 33.4168,74.4606 32.4168,74.1272 31.5,73.5C 30.479,74.0016 30.3123,74.6683 31,75.5C 32.5833,76.9711 34.4166,77.9711 36.5,78.5C 38.1016,80.0739 40.1016,80.7406 42.5,80.5C 43.1667,80.5 43.5,80.8333 43.5,81.5C 42.1001,82.0998 41.1001,83.0998 40.5,84.5C 35.7048,81.9166 31.3715,78.5833 27.5,74.5C 27.8333,73.8333 28.1667,73.1667 28.5,72.5C 29.391,71.8902 30.391,71.5569 31.5,71.5 Z"/></g>
<g><path style="opacity:1" fill="#824547" d="M 71.5,69.5 C 72.7888,70.6366 73.7888,71.9699 74.5,73.5C 73.6372,75.8783 72.1372,77.8783 70,79.5C 67.8258,78.2006 66.6591,76.2006 66.5,73.5C 68.5735,72.7005 70.2402,71.3671 71.5,69.5 Z"/></g>
<g><path style="opacity:1" fill="#a68c70" d="M 36.5,71.5 C 37.404,72.209 37.7373,73.209 37.5,74.5C 39.4147,74.7845 41.0813,74.4511 42.5,73.5C 44.0389,74.7671 45.7056,75.7671 47.5,76.5C 46.6236,76.3691 45.9569,76.7025 45.5,77.5C 46.5,78.1667 47.5,78.8333 48.5,79.5C 47.8728,80.4168 47.5394,81.4168 47.5,82.5C 47.0831,83.1239 46.4164,83.4573 45.5,83.5C 44.2867,83.2528 43.62,82.5862 43.5,81.5C 43.5,80.8333 43.1667,80.5 42.5,80.5C 43.8062,79.5326 44.4729,78.1993 44.5,76.5C 42.1432,76.3367 39.8098,76.5034 37.5,77C 36.944,77.3826 36.6107,77.8826 36.5,78.5C 34.4166,77.9711 32.5833,76.9711 31,75.5C 30.3123,74.6683 30.479,74.0016 31.5,73.5C 32.4168,74.1272 33.4168,74.4606 34.5,74.5C 35.1174,74.6107 35.6174,74.944 36,75.5C 36.49,74.2068 36.6567,72.8734 36.5,71.5 Z"/></g>
<g><path style="opacity:1" fill="#533930" d="M 64.5,72.5 C 65.4916,72.3284 66.1583,72.6618 66.5,73.5C 66.6591,76.2006 67.8258,78.2006 70,79.5C 72.1372,77.8783 73.6372,75.8783 74.5,73.5C 74.5,75.1667 74.5,76.8333 74.5,78.5C 73.4138,78.62 72.7472,79.2867 72.5,80.5C 72.8457,81.8492 73.179,83.1825 73.5,84.5C 71.8235,83.8166 71.1568,82.4832 71.5,80.5C 70.209,80.2627 69.209,80.596 68.5,81.5C 66.5853,81.7845 64.9187,81.4511 63.5,80.5C 64.5511,79.7777 65.2178,78.7777 65.5,77.5C 64.6993,75.9582 64.366,74.2915 64.5,72.5 Z"/></g>
<g><path style="opacity:1" fill="#e8e1d5" d="M 72.5,64.5 C 73.391,65.1098 74.391,65.4431 75.5,65.5C 75.6036,67.7028 76.2702,69.7028 77.5,71.5C 77.5,71.8333 77.5,72.1667 77.5,72.5C 77.8859,81.6832 78.5525,90.8498 79.5,100C 79.4915,101.707 79.1582,103.207 78.5,104.5C 77.8522,97.5993 76.1856,90.9326 73.5,84.5C 73.179,83.1825 72.8457,81.8492 72.5,80.5C 72.7472,79.2867 73.4138,78.62 74.5,78.5C 75.6341,76.0336 75.8007,73.367 75,70.5C 74.0053,69.9341 73.172,69.2674 72.5,68.5C 72.5,67.1667 72.5,65.8333 72.5,64.5 Z"/></g>
<g><path style="opacity:1" fill="#f5f8f2" d="M -0.5,29.5 C 1.28801,29.2148 2.95467,29.5481 4.5,30.5C 3.28217,31.8027 3.6155,32.8027 5.5,33.5C 4.83333,33.8333 4.16667,34.1667 3.5,34.5C 5.80091,35.6685 7.13424,37.1685 7.5,39C 6.55198,39.4828 5.55198,39.6495 4.5,39.5C 3.56768,71.8014 3.40101,104.135 4,136.5C 4.99478,139.77 5.82812,143.103 6.5,146.5C 8.10172,145.45 8.93505,146.117 9,148.5C 9.67076,147.748 10.5041,147.414 11.5,147.5C 10.7659,148.708 10.4326,150.041 10.5,151.5C 10.5,152.833 10.5,154.167 10.5,155.5C 9.70927,157.309 9.70927,159.309 10.5,161.5C 17.1667,161.5 23.8333,161.5 30.5,161.5C 32.5,161.5 34.5,161.5 36.5,161.5C 50.0015,162.302 63.6682,162.969 77.5,163.5C 80.0254,163.497 82.3587,163.163 84.5,162.5C 86.0407,160.612 87.7074,158.779 89.5,157C 89.4301,156.235 89.0967,155.735 88.5,155.5C 87.8333,154.167 87.1667,152.833 86.5,151.5C 86.2785,149.336 85.2785,147.67 83.5,146.5C 83.5,139.167 83.5,131.833 83.5,124.5C 82.8501,107.679 82.5167,91.0122 82.5,74.5C 82.8333,74.5 83.1667,74.5 83.5,74.5C 86.1075,79.8943 86.1075,85.3943 83.5,91C 84.7806,95.3774 84.7806,99.7108 83.5,104C 84.482,109.168 85.6487,114.335 87,119.5C 88.452,120.907 88.2853,122.407 86.5,124C 87.3115,128.495 87.3115,132.829 86.5,137C 87.9938,139.604 88.3272,142.271 87.5,145C 89.4857,147.656 91.4857,150.323 93.5,153C 92.6919,153.308 92.0253,153.808 91.5,154.5C 93.433,156.572 93.433,158.905 91.5,161.5C 92.6507,162.731 93.8173,162.731 95,161.5C 95.4828,162.448 95.6495,163.448 95.5,164.5C 63.5,164.5 31.5,164.5 -0.5,164.5C -0.5,119.5 -0.5,74.5 -0.5,29.5 Z"/></g>
<g><path style="opacity:1" fill="#3ba574" d="M 67.5,91.5 C 68.038,93.1172 68.3713,94.7839 68.5,96.5C 67.9242,102.485 67.4242,108.485 67,114.5C 66,115.833 65,117.167 64,118.5C 63.586,118.043 63.086,117.709 62.5,117.5C 61.3351,109.521 61.1684,101.521 62,93.5C 62.991,90.4188 64.8243,89.7521 67.5,91.5 Z"/></g>
<g><path style="opacity:1" fill="#697f6b" d="M 59.5,95.5 C 59.5,97.1667 59.5,98.8333 59.5,100.5C 59.3713,102.216 59.038,103.883 58.5,105.5C 57.2903,102.07 57.6236,98.7369 59.5,95.5 Z"/></g>
<g><path style="opacity:1" fill="#578c6e" d="M 61.5,81.5 C 61.5,81.1667 61.5,80.8333 61.5,80.5C 62.1667,80.5 62.8333,80.5 63.5,80.5C 64.9187,81.4511 66.5853,81.7845 68.5,81.5C 68.8333,82.8333 69.1667,84.1667 69.5,85.5C 69.5781,92.7003 70.2448,99.7003 71.5,106.5C 71.7062,109.495 71.0395,112.162 69.5,114.5C 69.0282,108.277 68.6949,102.277 68.5,96.5C 68.3713,94.7839 68.038,93.1172 67.5,91.5C 67.5,88.8333 67.5,86.1667 67.5,83.5C 65.7085,83.366 64.0418,83.6993 62.5,84.5C 62.7373,83.209 62.404,82.209 61.5,81.5 Z"/></g>
<g><path style="opacity:1" fill="#eb434f" d="M 44.5,86.5 C 44.8417,87.3382 45.5084,87.6716 46.5,87.5C 47.9187,88.4511 49.5853,88.7845 51.5,88.5C 51.5715,91.1933 51.9049,93.8599 52.5,96.5C 50.6214,102.975 49.2881,109.308 48.5,115.5C 44.3642,119.292 41.5309,123.959 40,129.5C 39.5915,123.49 39.7581,117.49 40.5,111.5C 43.7343,111.763 45.0676,110.263 44.5,107C 44.6373,104.444 43.804,102.277 42,100.5C 41.5026,97.854 41.3359,95.1873 41.5,92.5C 41.5,91.1667 41.5,89.8333 41.5,88.5C 41.9731,87.0937 42.9731,86.427 44.5,86.5 Z"/></g>
<g><path style="opacity:1" fill="#ccc0ad" d="M 82.5,74.5 C 82.5167,91.0122 82.8501,107.679 83.5,124.5C 81.4531,107.86 81.1197,91.1928 82.5,74.5 Z"/></g>
<g><path style="opacity:1" fill="#793136" d="M 58.5,91.5 C 58.1417,94.2666 57.475,96.9333 56.5,99.5C 56.1667,99.5 55.8333,99.5 55.5,99.5C 54.8622,95.5729 54.0289,91.5729 53,87.5C 50.8823,85.2926 48.7156,85.2926 46.5,87.5C 45.5084,87.6716 44.8417,87.3382 44.5,86.5C 46.5161,85.412 48.6828,84.412 51,83.5C 52.6101,85.4887 54.4435,85.8221 56.5,84.5C 57.9438,86.6079 58.6104,88.9412 58.5,91.5 Z"/></g>
<g><path style="opacity:1" fill="#9e464e" d="M 41.5,88.5 C 41.5,89.8333 41.5,91.1667 41.5,92.5C 40.5269,94.9479 40.1936,97.6146 40.5,100.5C 39.8333,99.8333 39.1667,99.1667 38.5,98.5C 38.1984,95.9407 38.5318,93.6074 39.5,91.5C 40.1667,90.5 40.8333,89.5 41.5,88.5 Z"/></g>
<g><path style="opacity:1" fill="#734f49" d="M 73.5,84.5 C 76.1856,90.9326 77.8522,97.5993 78.5,104.5C 78.7373,105.791 78.404,106.791 77.5,107.5C 77.6106,105.352 76.944,105.019 75.5,106.5C 74.833,102.353 74.1663,98.3525 73.5,94.5C 72.2525,91.2005 72.2525,87.8672 73.5,84.5 Z"/></g>
<g><path style="opacity:1" fill="#22402c" d="M 69.5,85.5 C 71.4612,92.0869 72.1279,99.0869 71.5,106.5C 70.2448,99.7003 69.5781,92.7003 69.5,85.5 Z"/></g>
<g><path style="opacity:1" fill="#39362a" d="M 61.5,81.5 C 62.404,82.209 62.7373,83.209 62.5,84.5C 61.9636,88.3139 60.9636,91.9806 59.5,95.5C 57.6236,98.7369 57.2903,102.07 58.5,105.5C 57.8505,107.435 57.5172,109.435 57.5,111.5C 56.8999,110.1 55.8999,109.1 54.5,108.5C 55.6336,105.63 56.3003,102.63 56.5,99.5C 57.475,96.9333 58.1417,94.2666 58.5,91.5C 59.0115,88.037 60.0115,84.7037 61.5,81.5 Z"/></g>
<g><path style="opacity:1" fill="#1b1e16" d="M 73.5,84.5 C 72.2525,87.8672 72.2525,91.2005 73.5,94.5C 73.1642,103.021 73.1642,111.354 73.5,119.5C 73.5569,120.609 73.8902,121.609 74.5,122.5C 72.9519,122.821 72.2852,123.821 72.5,125.5C 71.5269,127.948 71.1936,130.615 71.5,133.5C 70.8333,133.5 70.1667,133.5 69.5,133.5C 69.5,133.167 69.5,132.833 69.5,132.5C 69.0728,128.176 68.7395,123.842 68.5,119.5C 68.6287,117.784 68.962,116.117 69.5,114.5C 71.0395,112.162 71.7062,109.495 71.5,106.5C 72.1279,99.0869 71.4612,92.0869 69.5,85.5C 69.1667,84.1667 68.8333,82.8333 68.5,81.5C 69.209,80.596 70.209,80.2627 71.5,80.5C 71.1568,82.4832 71.8235,83.8166 73.5,84.5 Z"/></g>
<g><path style="opacity:1" fill="#592c24" d="M 58.5,80.5 C 59.5,80.5 60.5,80.5 61.5,80.5C 61.5,80.8333 61.5,81.1667 61.5,81.5C 60.0115,84.7037 59.0115,88.037 58.5,91.5C 58.6104,88.9412 57.9438,86.6079 56.5,84.5C 54.4435,85.8221 52.6101,85.4887 51,83.5C 48.6828,84.412 46.5161,85.412 44.5,86.5C 42.9731,86.427 41.9731,87.0937 41.5,88.5C 40.8333,89.5 40.1667,90.5 39.5,91.5C 39.448,89.0971 39.7814,86.7638 40.5,84.5C 41.1001,83.0998 42.1001,82.0998 43.5,81.5C 43.62,82.5862 44.2867,83.2528 45.5,83.5C 46.4164,83.4573 47.0831,83.1239 47.5,82.5C 50.8499,82.665 54.1832,82.4983 57.5,82C 58.056,81.6174 58.3893,81.1174 58.5,80.5 Z"/></g>
<g><path style="opacity:1" fill="#b29375" d="M 65.5,77.5 C 65.2178,78.7777 64.5511,79.7777 63.5,80.5C 62.8333,80.5 62.1667,80.5 61.5,80.5C 60.5,80.5 59.5,80.5 58.5,80.5C 55.4281,80.8174 52.4281,80.4841 49.5,79.5C 54.8475,78.7385 60.1808,78.0718 65.5,77.5 Z"/></g>
<g><path style="opacity:1" fill="#e1b095" d="M 42.5,80.5 C 40.1016,80.7406 38.1016,80.0739 36.5,78.5C 36.6107,77.8826 36.944,77.3826 37.5,77C 39.8098,76.5034 42.1432,76.3367 44.5,76.5C 44.4729,78.1993 43.8062,79.5326 42.5,80.5 Z"/></g>
<g><path style="opacity:1" fill="#5c1419" d="M 38.5,98.5 C 39.1667,99.1667 39.8333,99.8333 40.5,100.5C 40.5,101.167 40.5,101.833 40.5,102.5C 41.3235,104.455 41.4901,106.455 41,108.5C 40.7216,107.584 40.2216,106.918 39.5,106.5C 39.0074,104.194 38.6741,101.861 38.5,99.5C 38.5,99.1667 38.5,98.8333 38.5,98.5 Z"/></g>
<g><path style="opacity:1" fill="#c7b49e" d="M 77.5,72.5 C 78.8117,74.7432 79.4783,77.4098 79.5,80.5C 80.3218,93.1537 80.6551,105.82 80.5,118.5C 80.1667,118.5 79.8333,118.5 79.5,118.5C 78.8333,118.5 78.1667,118.5 77.5,118.5C 78.628,115.219 78.628,111.885 77.5,108.5C 77.5,108.167 77.5,107.833 77.5,107.5C 78.404,106.791 78.7373,105.791 78.5,104.5C 79.1582,103.207 79.4915,101.707 79.5,100C 78.5525,90.8498 77.8859,81.6832 77.5,72.5 Z"/></g>
<g><path style="opacity:1" fill="#b64248" d="M 55.5,99.5 C 53.2016,104.672 51.2016,110.006 49.5,115.5C 49.1667,115.5 48.8333,115.5 48.5,115.5C 49.2881,109.308 50.6214,102.975 52.5,96.5C 51.9049,93.8599 51.5715,91.1933 51.5,88.5C 49.5853,88.7845 47.9187,88.4511 46.5,87.5C 48.7156,85.2926 50.8823,85.2926 53,87.5C 54.0289,91.5729 54.8622,95.5729 55.5,99.5 Z"/></g>
<g><path style="opacity:1" fill="#b6bcb5" d="M 54.5,108.5 C 55.8999,109.1 56.8999,110.1 57.5,111.5C 57.5,116.5 57.5,121.5 57.5,126.5C 56.4132,131.433 55.7466,136.433 55.5,141.5C 53.8333,141.5 52.1667,141.5 50.5,141.5C 51.5676,140.566 52.901,140.232 54.5,140.5C 55.5857,134.23 56.2524,127.897 56.5,121.5C 56.483,118.087 55.8164,115.087 54.5,112.5C 54.5,111.167 54.5,109.833 54.5,108.5 Z"/></g>
<g><path style="opacity:1" fill="#65403a" d="M 77.5,108.5 C 78.628,111.885 78.628,115.219 77.5,118.5C 77.9118,120.973 76.9118,122.306 74.5,122.5C 73.8902,121.609 73.5569,120.609 73.5,119.5C 73.6945,116.388 74.3611,113.055 75.5,109.5C 76.1835,109.137 76.8501,108.804 77.5,108.5 Z"/></g>
<g><path style="opacity:1" fill="#509e7b" d="M 67.5,91.5 C 64.8243,89.7521 62.991,90.4188 62,93.5C 61.1684,101.521 61.3351,109.521 62.5,117.5C 63.086,117.709 63.586,118.043 64,118.5C 65,117.167 66,115.833 67,114.5C 67.4242,108.485 67.9242,102.485 68.5,96.5C 68.6949,102.277 69.0282,108.277 69.5,114.5C 68.962,116.117 68.6287,117.784 68.5,119.5C 67.8401,120.964 67.5068,122.631 67.5,124.5C 67.3817,127.486 68.0483,130.152 69.5,132.5C 69.5,132.833 69.5,133.167 69.5,133.5C 69.7363,136.829 68.903,139.829 67,142.5C 66.3736,138.864 65.2069,138.864 63.5,142.5C 62.5832,141.873 61.5832,141.539 60.5,141.5C 58.5613,140.986 57.5613,139.653 57.5,137.5C 58.1667,136.167 58.8333,134.833 59.5,133.5C 58.1786,131.147 58.1786,128.814 59.5,126.5C 60.1557,124.516 60.8224,122.516 61.5,120.5C 60.4562,118.285 59.7895,115.952 59.5,113.5C 60.4595,108.995 60.4595,104.661 59.5,100.5C 59.5,98.8333 59.5,97.1667 59.5,95.5C 60.9636,91.9806 61.9636,88.3139 62.5,84.5C 64.0418,83.6993 65.7085,83.366 67.5,83.5C 67.5,86.1667 67.5,88.8333 67.5,91.5 Z"/></g>
<g><path style="opacity:1" fill="#361b1a" d="M 73.5,94.5 C 74.1663,98.3525 74.833,102.353 75.5,106.5C 76.944,105.019 77.6106,105.352 77.5,107.5C 77.5,107.833 77.5,108.167 77.5,108.5C 76.8501,108.804 76.1835,109.137 75.5,109.5C 74.3611,113.055 73.6945,116.388 73.5,119.5C 73.1642,111.354 73.1642,103.021 73.5,94.5 Z"/></g>
<g><path style="opacity:1" fill="#542b23" d="M 55.5,99.5 C 55.8333,99.5 56.1667,99.5 56.5,99.5C 56.3003,102.63 55.6336,105.63 54.5,108.5C 54.5,109.833 54.5,111.167 54.5,112.5C 52.5559,118.806 50.5559,125.139 48.5,131.5C 47.8333,131.833 47.1667,132.167 46.5,132.5C 44.2558,130.149 43.9225,127.482 45.5,124.5C 47.3588,124.539 48.6921,123.706 49.5,122C 48.6669,119.919 48.6669,117.752 49.5,115.5C 51.2016,110.006 53.2016,104.672 55.5,99.5 Z"/></g>
<g><path style="opacity:1" fill="#d74b54" d="M 41.5,92.5 C 41.3359,95.1873 41.5026,97.854 42,100.5C 43.804,102.277 44.6373,104.444 44.5,107C 45.0676,110.263 43.7343,111.763 40.5,111.5C 39.7581,117.49 39.5915,123.49 40,129.5C 41.5309,123.959 44.3642,119.292 48.5,115.5C 48.1924,119.443 46.6924,122.776 44,125.5C 43.5026,128.146 43.3359,130.813 43.5,133.5C 42.0652,134.79 41.0652,136.456 40.5,138.5C 39.2538,134.094 38.2538,129.76 37.5,125.5C 36.453,124.922 36.6197,124.256 38,123.5C 38.9225,119.21 39.4225,114.877 39.5,110.5C 40.5,110.5 41.5,110.5 42.5,110.5C 42.6633,108.143 42.4966,105.81 42,103.5C 41.6174,102.944 41.1174,102.611 40.5,102.5C 40.5,101.833 40.5,101.167 40.5,100.5C 40.1936,97.6146 40.5269,94.9479 41.5,92.5 Z"/></g>
<g><path style="opacity:1" fill="#223e2e" d="M 59.5,100.5 C 60.4595,104.661 60.4595,108.995 59.5,113.5C 59.7895,115.952 60.4562,118.285 61.5,120.5C 60.8224,122.516 60.1557,124.516 59.5,126.5C 58.8333,126.5 58.1667,126.5 57.5,126.5C 57.5,121.5 57.5,116.5 57.5,111.5C 57.5172,109.435 57.8505,107.435 58.5,105.5C 59.038,103.883 59.3713,102.216 59.5,100.5 Z"/></g>
<g><path style="opacity:1" fill="#1d5e42" d="M 65.5,117.5 C 66.1386,118.097 66.472,118.93 66.5,120C 65.6998,126.502 64.8664,133.002 64,139.5C 63.091,132.042 63.591,124.709 65.5,117.5 Z"/></g>
<g><path style="opacity:1" fill="#948a77" d="M 79.5,60.5 C 80.0802,64.81 80.4135,69.1434 80.5,73.5C 81.5,73.5 82.5,73.5 83.5,73.5C 83.5,73.8333 83.5,74.1667 83.5,74.5C 83.1667,74.5 82.8333,74.5 82.5,74.5C 81.1197,91.1928 81.4531,107.86 83.5,124.5C 83.5,131.833 83.5,139.167 83.5,146.5C 82.6733,141.349 82.1733,136.016 82,130.5C 81.1787,137.679 81.3454,144.679 82.5,151.5C 82.6309,152.376 82.2975,153.043 81.5,153.5C 80.8243,152.398 80.1577,151.398 79.5,150.5C 78.5,150.167 77.8333,149.5 77.5,148.5C 77.9382,148.565 78.2716,148.399 78.5,148C 76.6277,145.056 73.961,143.889 70.5,144.5C 73.5207,142.24 76.8541,141.907 80.5,143.5C 80.5,135.167 80.5,126.833 80.5,118.5C 80.6551,105.82 80.3218,93.1537 79.5,80.5C 79.4783,77.4098 78.8117,74.7432 77.5,72.5C 77.5,72.1667 77.5,71.8333 77.5,71.5C 78.8333,69.1667 78.8333,66.8333 77.5,64.5C 77.9887,63.0048 78.6554,61.6715 79.5,60.5 Z"/></g>
<g><path style="opacity:1" fill="#425d4d" d="M 68.5,119.5 C 68.7395,123.842 69.0728,128.176 69.5,132.5C 68.0483,130.152 67.3817,127.486 67.5,124.5C 67.5068,122.631 67.8401,120.964 68.5,119.5 Z"/></g>
<g><path style="opacity:1" fill="#f7f6f1" d="M 77.5,118.5 C 78.1667,118.5 78.8333,118.5 79.5,118.5C 79.831,126.528 79.4977,134.528 78.5,142.5C 77.2054,141.902 75.8721,141.402 74.5,141C 75.0585,140.275 75.3918,139.442 75.5,138.5C 73.4087,134.465 72.4087,130.131 72.5,125.5C 72.2852,123.821 72.9519,122.821 74.5,122.5C 76.9118,122.306 77.9118,120.973 77.5,118.5 Z"/></g>
<g><path style="opacity:1" fill="#7e3f3f" d="M 38.5,99.5 C 38.6741,101.861 39.0074,104.194 39.5,106.5C 37.5353,115.685 35.202,124.851 32.5,134C 32.9404,136.597 33.6071,139.097 34.5,141.5C 33.8826,141.611 33.3826,141.944 33,142.5C 32.7206,139.543 31.8873,136.877 30.5,134.5C 33.9838,122.907 36.6505,111.241 38.5,99.5 Z"/></g>
<g><path style="opacity:1" fill="#f2f2ed" d="M 54.5,112.5 C 55.8164,115.087 56.483,118.087 56.5,121.5C 56.2524,127.897 55.5857,134.23 54.5,140.5C 52.901,140.232 51.5676,140.566 50.5,141.5C 48.302,141.12 46.6354,141.787 45.5,143.5C 44.1667,143.5 43.5,142.833 43.5,141.5C 46.6427,138.996 48.3094,135.663 48.5,131.5C 50.5559,125.139 52.5559,118.806 54.5,112.5 Z"/></g>
<g><path style="opacity:1" fill="#ada299" d="M 48.5,131.5 C 48.3094,135.663 46.6427,138.996 43.5,141.5C 44.9697,138.682 45.9697,135.682 46.5,132.5C 47.1667,132.167 47.8333,131.833 48.5,131.5 Z"/></g>
<g><path style="opacity:1" fill="#d4cfc7" d="M 79.5,118.5 C 79.8333,118.5 80.1667,118.5 80.5,118.5C 80.5,126.833 80.5,135.167 80.5,143.5C 76.8541,141.907 73.5207,142.24 70.5,144.5C 69.8333,144.833 69.1667,145.167 68.5,145.5C 70.6426,141.852 71.6426,137.852 71.5,133.5C 71.1936,130.615 71.5269,127.948 72.5,125.5C 72.4087,130.131 73.4087,134.465 75.5,138.5C 75.3918,139.442 75.0585,140.275 74.5,141C 75.8721,141.402 77.2054,141.902 78.5,142.5C 79.4977,134.528 79.831,126.528 79.5,118.5 Z"/></g>
<g><path style="opacity:1" fill="#cc5157" d="M 40.5,102.5 C 41.1174,102.611 41.6174,102.944 42,103.5C 42.4966,105.81 42.6633,108.143 42.5,110.5C 41.5,110.5 40.5,110.5 39.5,110.5C 39.4225,114.877 38.9225,119.21 38,123.5C 36.6197,124.256 36.453,124.922 37.5,125.5C 37.8256,129.884 37.4922,134.217 36.5,138.5C 35.8243,139.602 35.1577,140.602 34.5,141.5C 33.6071,139.097 32.9404,136.597 32.5,134C 35.202,124.851 37.5353,115.685 39.5,106.5C 40.2216,106.918 40.7216,107.584 41,108.5C 41.4901,106.455 41.3235,104.455 40.5,102.5 Z"/></g>
<g><path style="opacity:1" fill="#386d58" d="M 57.5,126.5 C 58.1667,126.5 58.8333,126.5 59.5,126.5C 58.1786,128.814 58.1786,131.147 59.5,133.5C 58.8333,134.833 58.1667,136.167 57.5,137.5C 57.5613,139.653 58.5613,140.986 60.5,141.5C 58.8333,142.833 57.1667,142.833 55.5,141.5C 55.7466,136.433 56.4132,131.433 57.5,126.5 Z"/></g>
<g><path style="opacity:1" fill="#5c2525" d="M 48.5,115.5 C 48.8333,115.5 49.1667,115.5 49.5,115.5C 48.6669,117.752 48.6669,119.919 49.5,122C 48.6921,123.706 47.3588,124.539 45.5,124.5C 43.9225,127.482 44.2558,130.149 46.5,132.5C 45.9697,135.682 44.9697,138.682 43.5,141.5C 42.6554,142.671 41.9887,144.005 41.5,145.5C 40.8333,145.5 40.1667,145.5 39.5,145.5C 36.6553,144.656 33.6553,143.99 30.5,143.5C 30.5,141.167 30.5,138.833 30.5,136.5C 30.5,135.833 30.5,135.167 30.5,134.5C 31.8873,136.877 32.7206,139.543 33,142.5C 33.3826,141.944 33.8826,141.611 34.5,141.5C 34.3691,142.376 34.7025,143.043 35.5,143.5C 37.2199,142.045 39.2199,141.212 41.5,141C 42.3547,138.564 43.0213,136.064 43.5,133.5C 43.3359,130.813 43.5026,128.146 44,125.5C 46.6924,122.776 48.1924,119.443 48.5,115.5 Z"/></g>
<g><path style="opacity:1" fill="#993c3e" d="M 37.5,125.5 C 38.2538,129.76 39.2538,134.094 40.5,138.5C 41.0652,136.456 42.0652,134.79 43.5,133.5C 43.0213,136.064 42.3547,138.564 41.5,141C 39.2199,141.212 37.2199,142.045 35.5,143.5C 34.7025,143.043 34.3691,142.376 34.5,141.5C 35.1577,140.602 35.8243,139.602 36.5,138.5C 37.4922,134.217 37.8256,129.884 37.5,125.5 Z"/></g>
<g><path style="opacity:1" fill="#bd8b75" d="M 30.5,136.5 C 30.5,138.833 30.5,141.167 30.5,143.5C 30.1667,144.167 29.8333,144.833 29.5,145.5C 24.7126,145.348 20.0459,146.015 15.5,147.5C 16.8069,148.865 16.8069,150.198 15.5,151.5C 13.8333,151.5 12.1667,151.5 10.5,151.5C 10.4326,150.041 10.7659,148.708 11.5,147.5C 16.0882,141.884 22.0882,139.55 29.5,140.5C 29.2322,138.901 29.5655,137.568 30.5,136.5 Z"/></g>
<g><path style="opacity:1" fill="#8e725e" d="M 30.5,143.5 C 33.6553,143.99 36.6553,144.656 39.5,145.5C 39.7845,147.415 39.4511,149.081 38.5,150.5C 38.5,148.833 38.5,147.167 38.5,145.5C 36.1137,145.259 34.1137,145.925 32.5,147.5C 32.1788,145.952 31.1788,145.285 29.5,145.5C 29.8333,144.833 30.1667,144.167 30.5,143.5 Z"/></g>
<g><path style="opacity:1" fill="#c49577" d="M 50.5,141.5 C 53.581,141.789 55.581,143.456 56.5,146.5C 56.2528,147.713 55.5862,148.38 54.5,148.5C 53.8333,148.5 53.1667,148.5 52.5,148.5C 50.3512,146.591 48.0179,144.924 45.5,143.5C 46.6354,141.787 48.302,141.12 50.5,141.5 Z"/></g>
<g><path style="opacity:1" fill="#404337" d="M 69.5,133.5 C 70.1667,133.5 70.8333,133.5 71.5,133.5C 71.6426,137.852 70.6426,141.852 68.5,145.5C 67.9569,145.56 67.6236,145.893 67.5,146.5C 70.8663,147.24 74.1996,147.907 77.5,148.5C 77.8333,149.5 78.5,150.167 79.5,150.5C 79.6495,151.552 79.4828,152.552 79,153.5C 76.9361,152.409 74.7695,152.242 72.5,153C 73.4158,153.278 74.0825,153.778 74.5,154.5C 75.404,155.209 75.7373,156.209 75.5,157.5C 72.0272,157.576 68.6939,158.242 65.5,159.5C 65.1667,159.5 64.8333,159.5 64.5,159.5C 64.5,159.167 64.5,158.833 64.5,158.5C 64.5,158.167 64.5,157.833 64.5,157.5C 65.552,157.649 66.552,157.483 67.5,157C 63.0769,153.902 58.0769,152.402 52.5,152.5C 53.2625,151.732 54.2625,151.232 55.5,151C 54.7476,150.329 54.4142,149.496 54.5,148.5C 55.5862,148.38 56.2528,147.713 56.5,146.5C 55.581,143.456 53.581,141.789 50.5,141.5C 52.1667,141.5 53.8333,141.5 55.5,141.5C 57.1667,142.833 58.8333,142.833 60.5,141.5C 61.5832,141.539 62.5832,141.873 63.5,142.5C 65.2069,138.864 66.3736,138.864 67,142.5C 68.903,139.829 69.7363,136.829 69.5,133.5 Z"/></g>
<g><path style="opacity:1" fill="#cab68f" d="M 70.5,144.5 C 73.961,143.889 76.6277,145.056 78.5,148C 78.2716,148.399 77.9382,148.565 77.5,148.5C 74.1996,147.907 70.8663,147.24 67.5,146.5C 67.6236,145.893 67.9569,145.56 68.5,145.5C 69.1667,145.167 69.8333,144.833 70.5,144.5 Z"/></g>
<g><path style="opacity:1" fill="#85674d" d="M 29.5,145.5 C 27.7392,146.313 26.0725,147.313 24.5,148.5C 22.0326,148.755 20.0326,149.755 18.5,151.5C 17.5,151.5 16.5,151.5 15.5,151.5C 16.8069,150.198 16.8069,148.865 15.5,147.5C 20.0459,146.015 24.7126,145.348 29.5,145.5 Z"/></g>
<g><path style="opacity:1" fill="#625d48" d="M 83.5,146.5 C 85.2785,147.67 86.2785,149.336 86.5,151.5C 85.8444,150.722 85.0111,150.056 84,149.5C 82.9701,149.836 82.4701,150.503 82.5,151.5C 81.3454,144.679 81.1787,137.679 82,130.5C 82.1733,136.016 82.6733,141.349 83.5,146.5 Z"/></g>
<g><path style="opacity:1" fill="#2e261d" d="M 29.5,145.5 C 31.1788,145.285 32.1788,145.952 32.5,147.5C 31.1283,148.512 29.795,149.512 28.5,150.5C 27.8333,150.167 27.1667,149.833 26.5,149.5C 26.1583,148.662 25.4916,148.328 24.5,148.5C 26.0725,147.313 27.7392,146.313 29.5,145.5 Z"/></g>
<g><path style="opacity:1" fill="#d7c1a6" d="M 38.5,150.5 C 38.6309,151.376 38.2975,152.043 37.5,152.5C 36.7836,151.689 35.9503,151.022 35,150.5C 32.8458,151.274 30.6792,151.941 28.5,152.5C 27.4937,152.062 27.4937,151.396 28.5,150.5C 29.795,149.512 31.1283,148.512 32.5,147.5C 34.1137,145.925 36.1137,145.259 38.5,145.5C 38.5,147.167 38.5,148.833 38.5,150.5 Z"/></g>
<g><path style="opacity:1" fill="#bab197" d="M 43.5,141.5 C 43.5,142.833 44.1667,143.5 45.5,143.5C 48.0179,144.924 50.3512,146.591 52.5,148.5C 52.5299,149.497 52.0299,150.164 51,150.5C 48.0036,147.712 45.5036,148.046 43.5,151.5C 42.325,151.719 41.325,151.386 40.5,150.5C 41.3094,148.929 41.6427,147.262 41.5,145.5C 41.9887,144.005 42.6554,142.671 43.5,141.5 Z"/></g>
<g><path style="opacity:1" fill="#bec2b7" d="M 24.5,148.5 C 25.4916,148.328 26.1583,148.662 26.5,149.5C 25.7095,150.401 24.7095,151.068 23.5,151.5C 21.8333,151.5 20.1667,151.5 18.5,151.5C 20.0326,149.755 22.0326,148.755 24.5,148.5 Z"/></g>
<g><path style="opacity:1" fill="#deceae" d="M 74.5,154.5 C 72.1526,155.716 69.6526,155.716 67,154.5C 65.3551,152.855 63.6884,151.188 62,149.5C 61.6924,150.308 61.1924,150.975 60.5,151.5C 58.7438,149.809 58.2438,147.809 59,145.5C 60.3876,144.446 61.8876,144.28 63.5,145C 66.538,147.703 69.2046,150.703 71.5,154C 72.448,154.483 73.448,154.649 74.5,154.5 Z"/></g>
<g><path style="opacity:1" fill="#68a0a8" d="M 70.5,148.5 C 72.8273,148.247 74.8273,148.914 76.5,150.5C 74.9255,151.631 73.2588,151.798 71.5,151C 70.7476,150.329 70.4142,149.496 70.5,148.5 Z"/></g>
<g><path style="opacity:1" fill="#1f302a" d="M 52.5,148.5 C 53.1667,148.5 53.8333,148.5 54.5,148.5C 54.4142,149.496 54.7476,150.329 55.5,151C 54.2625,151.232 53.2625,151.732 52.5,152.5C 49.5176,152.037 46.5176,151.704 43.5,151.5C 45.5036,148.046 48.0036,147.712 51,150.5C 52.0299,150.164 52.5299,149.497 52.5,148.5 Z"/></g>
<g><path style="opacity:1" fill="#6d6a68" d="M 26.5,149.5 C 27.1667,149.833 27.8333,150.167 28.5,150.5C 27.4937,151.396 27.4937,152.062 28.5,152.5C 28.5,152.833 28.5,153.167 28.5,153.5C 26.7085,153.366 25.0418,153.699 23.5,154.5C 23.5,153.5 23.5,152.5 23.5,151.5C 24.7095,151.068 25.7095,150.401 26.5,149.5 Z"/></g>
<g><path style="opacity:1" fill="#383117" d="M 39.5,145.5 C 40.1667,145.5 40.8333,145.5 41.5,145.5C 41.6427,147.262 41.3094,148.929 40.5,150.5C 41.325,151.386 42.325,151.719 43.5,151.5C 46.5176,151.704 49.5176,152.037 52.5,152.5C 45.0109,153.513 37.3442,154.18 29.5,154.5C 29.5,153.833 29.1667,153.5 28.5,153.5C 28.5,153.167 28.5,152.833 28.5,152.5C 30.6792,151.941 32.8458,151.274 35,150.5C 35.9503,151.022 36.7836,151.689 37.5,152.5C 38.2975,152.043 38.6309,151.376 38.5,150.5C 39.4511,149.081 39.7845,147.415 39.5,145.5 Z"/></g>
<g><path style="opacity:1" fill="#242721" d="M 86.5,151.5 C 87.1667,152.833 87.8333,154.167 88.5,155.5C 88.0296,156.693 87.0296,157.36 85.5,157.5C 84.5,157.333 83.5,157.167 82.5,157C 83.6956,156.346 83.6956,155.846 82.5,155.5C 80.2706,156.577 77.9372,157.244 75.5,157.5C 75.7373,156.209 75.404,155.209 74.5,154.5C 74.0825,153.778 73.4158,153.278 72.5,153C 74.7695,152.242 76.9361,152.409 79,153.5C 79.4828,152.552 79.6495,151.552 79.5,150.5C 80.1577,151.398 80.8243,152.398 81.5,153.5C 82.2975,153.043 82.6309,152.376 82.5,151.5C 82.4701,150.503 82.9701,149.836 84,149.5C 85.0111,150.056 85.8444,150.722 86.5,151.5 Z"/></g>
<g><path style="opacity:1" fill="#56a285" d="M 15.5,159.5 C 12.4535,159.817 10.7868,158.484 10.5,155.5C 11.3149,154.571 12.1482,153.571 13,152.5C 14.1362,154.743 14.9695,157.076 15.5,159.5 Z"/></g>
<g><path style="opacity:1" fill="#cbcc8c" d="M 52.5,152.5 C 58.0769,152.402 63.0769,153.902 67.5,157C 66.552,157.483 65.552,157.649 64.5,157.5C 60.4174,155.978 56.0841,154.978 51.5,154.5C 49.1133,156.143 45.78,156.976 41.5,157C 43.0302,158.12 44.6968,158.954 46.5,159.5C 45.0813,160.451 43.4147,160.784 41.5,160.5C 37.4055,159.307 33.4055,157.807 29.5,156C 28.2617,155.31 28.2617,154.81 29.5,154.5C 37.3442,154.18 45.0109,153.513 52.5,152.5 Z"/></g>
<g><path style="opacity:1" fill="#314f3e" d="M 10.5,151.5 C 12.1667,151.5 13.8333,151.5 15.5,151.5C 16.5,151.5 17.5,151.5 18.5,151.5C 20.1667,151.5 21.8333,151.5 23.5,151.5C 23.5,152.5 23.5,153.5 23.5,154.5C 22.8333,154.5 22.5,154.833 22.5,155.5C 21.596,154.791 21.2627,153.791 21.5,152.5C 16.281,151.907 15.6144,152.907 19.5,155.5C 20.4287,156.689 20.762,158.022 20.5,159.5C 21.6332,160.862 19.9666,160.862 15.5,159.5C 14.9695,157.076 14.1362,154.743 13,152.5C 12.1482,153.571 11.3149,154.571 10.5,155.5C 10.5,154.167 10.5,152.833 10.5,151.5 Z"/></g>
<g><path style="opacity:1" fill="#6f6c39" d="M 64.5,157.5 C 64.5,157.833 64.5,158.167 64.5,158.5C 60.753,157.14 57.0863,156.807 53.5,157.5C 51.6943,158.024 50.0276,158.691 48.5,159.5C 47.8333,159.5 47.1667,159.5 46.5,159.5C 44.6968,158.954 43.0302,158.12 41.5,157C 45.78,156.976 49.1133,156.143 51.5,154.5C 56.0841,154.978 60.4174,155.978 64.5,157.5 Z"/></g>
<g><path style="opacity:1" fill="#343b2b" d="M 28.5,153.5 C 29.1667,153.5 29.5,153.833 29.5,154.5C 28.2617,154.81 28.2617,155.31 29.5,156C 33.4055,157.807 37.4055,159.307 41.5,160.5C 40.0813,161.451 38.4147,161.784 36.5,161.5C 34.5,161.5 32.5,161.5 30.5,161.5C 29.0919,158.1 26.4253,156.1 22.5,155.5C 22.5,154.833 22.8333,154.5 23.5,154.5C 25.0418,153.699 26.7085,153.366 28.5,153.5 Z"/></g>
<g><path style="opacity:1" fill="#a5a971" d="M 53.5,157.5 C 57.0863,156.807 60.753,157.14 64.5,158.5C 64.5,158.833 64.5,159.167 64.5,159.5C 62.2772,160.702 59.7772,161.369 57,161.5C 54.6392,161.496 52.4726,161.163 50.5,160.5C 53.6492,160.789 56.6492,160.289 59.5,159C 57.5643,158.187 55.5643,157.687 53.5,157.5 Z"/></g>
<g><path style="opacity:1" fill="#e0e298" d="M 53.5,157.5 C 55.5643,157.687 57.5643,158.187 59.5,159C 56.6492,160.289 53.6492,160.789 50.5,160.5C 49.5084,160.672 48.8417,160.338 48.5,159.5C 50.0276,158.691 51.6943,158.024 53.5,157.5 Z"/></g>
<g><path style="opacity:1" fill="#a2a77c" d="M 88.5,155.5 C 89.0967,155.735 89.4301,156.235 89.5,157C 87.7074,158.779 86.0407,160.612 84.5,162.5C 80.1539,162.666 75.8206,162.499 71.5,162C 68.9488,161.998 66.9488,161.164 65.5,159.5C 68.6939,158.242 72.0272,157.576 75.5,157.5C 77.9372,157.244 80.2706,156.577 82.5,155.5C 83.6956,155.846 83.6956,156.346 82.5,157C 83.5,157.167 84.5,157.333 85.5,157.5C 87.0296,157.36 88.0296,156.693 88.5,155.5 Z"/></g>
<g><path style="opacity:1" fill="#56786b" d="M 22.5,155.5 C 26.4253,156.1 29.0919,158.1 30.5,161.5C 23.8333,161.5 17.1667,161.5 10.5,161.5C 9.70927,159.309 9.70927,157.309 10.5,155.5C 10.7868,158.484 12.4535,159.817 15.5,159.5C 19.9666,160.862 21.6332,160.862 20.5,159.5C 20.762,158.022 20.4287,156.689 19.5,155.5C 15.6144,152.907 16.281,151.907 21.5,152.5C 21.2627,153.791 21.596,154.791 22.5,155.5 Z"/></g>
<g><path style="opacity:1" fill="#bdbea3" d="M 46.5,159.5 C 47.1667,159.5 47.8333,159.5 48.5,159.5C 48.8417,160.338 49.5084,160.672 50.5,160.5C 52.4726,161.163 54.6392,161.496 57,161.5C 59.7772,161.369 62.2772,160.702 64.5,159.5C 64.8333,159.5 65.1667,159.5 65.5,159.5C 66.9488,161.164 68.9488,161.998 71.5,162C 75.8206,162.499 80.1539,162.666 84.5,162.5C 82.3587,163.163 80.0254,163.497 77.5,163.5C 63.6682,162.969 50.0015,162.302 36.5,161.5C 38.4147,161.784 40.0813,161.451 41.5,160.5C 43.4147,160.784 45.0813,160.451 46.5,159.5 Z"/></g>
</svg>
