<?xml version="1.0" encoding="UTF-8"?>
<!DOCTYPE svg PUBLIC "-//W3C//DTD SVG 1.1//EN" "http://www.w3.org/Graphics/SVG/1.1/DTD/svg11.dtd">
<svg xmlns="http://www.w3.org/2000/svg" version="1.1" width="100px" height="165px" style="shape-rendering:geometricPrecision; text-rendering:geometricPrecision; image-rendering:optimizeQuality; fill-rule:evenodd; clip-rule:evenodd" xmlns:xlink="http://www.w3.org/1999/xlink">
<g><path style="opacity:1" fill="#f8f9f9" d="M -0.5,-0.5 C 20.1667,-0.5 40.8333,-0.5 61.5,-0.5C 61.5,0.5 61.5,1.5 61.5,2.5C 59.8212,2.28519 58.8212,2.95186 58.5,4.5C 52.8008,4.68813 47.1342,4.3548 41.5,3.5C 38.6991,3.63462 36.6991,4.96795 35.5,7.5C 31.5241,9.50842 27.1907,10.6751 22.5,11C 19.3343,13.0001 16.6676,15.5001 14.5,18.5C 14.3367,20.8568 14.5034,23.1902 15,25.5C 15.5613,26.0219 16.228,26.3552 17,26.5C 23.4741,21.7636 30.4741,18.0969 38,15.5C 38.7648,15.5699 39.2648,15.9033 39.5,16.5C 39.5,16.8333 39.5,17.1667 39.5,17.5C 37.3412,20.9127 35.6745,24.5794 34.5,28.5C 34.1667,29.1667 33.8333,29.8333 33.5,30.5C 30.4384,31.2678 28.7717,33.2678 28.5,36.5C 26.9102,36.6282 25.5769,37.2949 24.5,38.5C 19.0011,46.5412 15.0011,55.2079 12.5,64.5C 12.5,65.1667 12.5,65.8333 12.5,66.5C 12.3497,79.0306 13.0163,91.3639 14.5,103.5C 14.1984,106.059 14.5318,108.393 15.5,110.5C 15.484,112.484 16.484,113.484 18.5,113.5C 20.0377,113.547 21.0377,112.88 21.5,111.5C 22.2223,110.449 23.2223,109.782 24.5,109.5C 25.1174,109.611 25.6174,109.944 26,110.5C 26.4983,113.817 26.665,117.15 26.5,120.5C 25.9686,127.078 26.6353,133.412 28.5,139.5C 28.3915,141.514 29.0582,143.18 30.5,144.5C 29.8333,145.5 29.1667,146.5 28.5,147.5C 27.4168,147.539 26.4168,147.873 25.5,148.5C 24.8333,146.5 24.1667,144.5 23.5,142.5C 22.8933,142.624 22.56,142.957 22.5,143.5C 22.44,144.043 22.1067,144.376 21.5,144.5C 20.2807,143.737 19.2807,142.737 18.5,141.5C 16.0856,143.81 14.4189,146.477 13.5,149.5C 12.4246,148.438 11.4246,148.438 10.5,149.5C 11.0938,152.83 11.7604,156.164 12.5,159.5C 13.5,160 14.5,160.5 15.5,161C 24.8274,161.5 34.1607,161.666 43.5,161.5C 56.8333,161.5 70.1667,161.5 83.5,161.5C 83.2178,162.778 82.5511,163.778 81.5,164.5C 54.1667,164.5 26.8333,164.5 -0.5,164.5C -0.5,109.5 -0.5,54.5 -0.5,-0.5 Z"/></g>
<g><path style="opacity:1" fill="#f9fafa" d="M 61.5,-0.5 C 74.1667,-0.5 86.8333,-0.5 99.5,-0.5C 99.5,54.5 99.5,109.5 99.5,164.5C 93.5,164.5 87.5,164.5 81.5,164.5C 82.5511,163.778 83.2178,162.778 83.5,161.5C 84.4916,161.672 85.1583,161.338 85.5,160.5C 85.6775,159.305 86.0109,158.138 86.5,157C 84.4495,151.935 82.7829,146.768 81.5,141.5C 79.857,141.52 78.5237,140.853 77.5,139.5C 76.081,141.336 74.9143,143.336 74,145.5C 72.4708,144.271 71.3041,142.771 70.5,141C 69.552,140.517 68.552,140.351 67.5,140.5C 67.5,141.5 67.5,142.5 67.5,143.5C 66.5,143.5 65.5,143.5 64.5,143.5C 64.5,144.5 64.5,145.5 64.5,146.5C 65.5,146.5 66.5,146.5 67.5,146.5C 66.7375,147.268 65.7375,147.768 64.5,148C 65.7736,148.977 65.7736,149.811 64.5,150.5C 61.622,149.438 59.622,147.438 58.5,144.5C 58.5,143.833 58.8333,143.5 59.5,143.5C 63.0951,142.15 64.4285,139.483 63.5,135.5C 64.2242,127.521 64.5575,119.521 64.5,111.5C 64.7619,109.436 65.9286,108.103 68,107.5C 68.6342,104.445 68.4675,101.445 67.5,98.5C 69.8954,99.3635 72.2287,99.3635 74.5,98.5C 75.4066,95.5788 75.7399,92.5788 75.5,89.5C 76.1757,84.084 77.1757,78.7506 78.5,73.5C 79.3091,71.7078 79.8091,69.7078 80,67.5C 84.6747,62.7865 86.3414,57.1198 85,50.5C 84.675,46.3898 83.8417,42.3898 82.5,38.5C 82.9024,36.6998 83.5691,35.0332 84.5,33.5C 85.2216,33.0825 85.7216,32.4158 86,31.5C 86.6667,26.5 86.6667,21.5 86,16.5C 84.6912,14.0243 82.8579,12.0243 80.5,10.5C 79.6143,11.325 79.281,12.325 79.5,13.5C 74.6272,11.47 70.6272,12.47 67.5,16.5C 66.6236,16.6309 65.9569,16.2975 65.5,15.5C 69.0174,12.0208 73.3507,10.1874 78.5,10C 68.8448,7.822 63.5115,11.6553 62.5,21.5C 62.4357,23.5566 63.1024,25.2233 64.5,26.5C 65.2423,28.4258 66.2423,30.2591 67.5,32C 70.6747,32.4932 73.3414,33.6598 75.5,35.5C 75.5,37.5 75.5,39.5 75.5,41.5C 73.655,42.9955 73.3217,44.6621 74.5,46.5C 74.1667,48.5 73.8333,50.5 73.5,52.5C 72.8333,52.1667 72.1667,51.8333 71.5,51.5C 69.9752,49.7837 68.9752,47.7837 68.5,45.5C 67.4611,42.0787 65.4611,39.4121 62.5,37.5C 61.6223,34.9437 60.2889,32.6104 58.5,30.5C 58.8333,29.8333 59.1667,29.1667 59.5,28.5C 58.8321,24.8035 58.1654,21.1368 57.5,17.5C 57.5,16.8333 57.5,16.1667 57.5,15.5C 58.7495,14.2225 60.2495,13.2225 62,12.5C 62.4828,11.552 62.6495,10.552 62.5,9.5C 61.8553,7.17369 60.522,5.50702 58.5,4.5C 58.8212,2.95186 59.8212,2.28519 61.5,2.5C 61.5,1.5 61.5,0.5 61.5,-0.5 Z"/></g>
<g><path style="opacity:1" fill="#4ba1c1" d="M 58.5,4.5 C 60.522,5.50702 61.8553,7.17369 62.5,9.5C 55.9584,10.1527 49.4584,10.486 43,10.5C 41.1667,10.1667 39.3333,9.83333 37.5,9.5C 37.1445,8.4777 36.4778,7.81103 35.5,7.5C 36.6991,4.96795 38.6991,3.63462 41.5,3.5C 47.1342,4.3548 52.8008,4.68813 58.5,4.5 Z"/></g>
<g><path style="opacity:1" fill="#b1aeab" d="M 67.5,16.5 C 67.1667,17.1667 66.8333,17.8333 66.5,18.5C 65.1751,17.0474 64.3418,17.3808 64,19.5C 63.6664,21.8473 63.833,24.1806 64.5,26.5C 63.1024,25.2233 62.4357,23.5566 62.5,21.5C 63.5115,11.6553 68.8448,7.822 78.5,10C 73.3507,10.1874 69.0174,12.0208 65.5,15.5C 65.9569,16.2975 66.6236,16.6309 67.5,16.5 Z"/></g>
<g><path style="opacity:1" fill="#32353b" d="M 35.5,7.5 C 36.4778,7.81103 37.1445,8.4777 37.5,9.5C 39.3333,9.83333 41.1667,10.1667 43,10.5C 49.4584,10.486 55.9584,10.1527 62.5,9.5C 62.6495,10.552 62.4828,11.552 62,12.5C 60.2495,13.2225 58.7495,14.2225 57.5,15.5C 55.8595,14.853 54.5261,13.853 53.5,12.5C 48.6158,12.0483 43.6158,11.7149 38.5,11.5C 37.5,11.5 36.5,11.5 35.5,11.5C 35.5,10.1667 35.5,8.83333 35.5,7.5 Z"/></g>
<g><path style="opacity:1" fill="#d4b37e" d="M 35.5,7.5 C 35.5,8.83333 35.5,10.1667 35.5,11.5C 29.8721,12.4901 24.8721,14.8235 20.5,18.5C 19.5713,19.6888 19.238,21.0222 19.5,22.5C 18.6136,23.7759 17.6136,23.7759 16.5,22.5C 16.0057,20.9745 15.339,19.6412 14.5,18.5C 16.6676,15.5001 19.3343,13.0001 22.5,11C 27.1907,10.6751 31.5241,9.50842 35.5,7.5 Z"/></g>
<g><path style="opacity:1" fill="#7a6e4d" d="M 79.5,13.5 C 79.5,14.1667 79.5,14.8333 79.5,15.5C 77.5165,15.6168 75.8498,14.9501 74.5,13.5C 73.8333,14.5 73.1667,15.5 72.5,16.5C 69.3982,15.1066 68.3982,15.94 69.5,19C 67.503,20.1531 67.1696,21.6531 68.5,23.5C 69.1835,23.1373 69.8501,22.8039 70.5,22.5C 71.1667,22.5 71.5,22.8333 71.5,23.5C 69.1481,24.5426 68.9815,25.8759 71,27.5C 71.7697,26.4019 72.603,26.4019 73.5,27.5C 73.6716,28.4916 73.3382,29.1583 72.5,29.5C 67.1173,27.689 65.1173,24.0224 66.5,18.5C 66.8333,17.8333 67.1667,17.1667 67.5,16.5C 70.6272,12.47 74.6272,11.47 79.5,13.5 Z"/></g>
<g><path style="opacity:1" fill="#b28c4a" d="M 35.5,11.5 C 35.5,12.8333 35.5,14.1667 35.5,15.5C 30.8466,16.3264 26.5133,17.993 22.5,20.5C 21.914,20.2907 21.414,19.9574 21,19.5C 20.7679,20.7375 20.2679,21.7375 19.5,22.5C 19.238,21.0222 19.5713,19.6888 20.5,18.5C 24.8721,14.8235 29.8721,12.4901 35.5,11.5 Z"/></g>
<g><path style="opacity:1" fill="#6e5344" d="M 38.5,11.5 C 43.6158,11.7149 48.6158,12.0483 53.5,12.5C 50.3508,12.2114 47.3508,12.7114 44.5,14C 45.4438,16.7191 45.7771,19.5525 45.5,22.5C 45.1667,22.5 44.8333,22.5 44.5,22.5C 44.8956,19.5178 44.2289,16.8511 42.5,14.5C 41.8589,15.9935 40.8589,16.9935 39.5,17.5C 39.5,17.1667 39.5,16.8333 39.5,16.5C 40.0431,16.44 40.3764,16.1067 40.5,15.5C 39.8201,14.1401 39.1534,12.8068 38.5,11.5 Z"/></g>
<g><path style="opacity:1" fill="#c1a284" d="M 53.5,12.5 C 54.5261,13.853 55.8595,14.853 57.5,15.5C 57.5,16.1667 57.5,16.8333 57.5,17.5C 56.1667,17.5 54.8333,17.5 53.5,17.5C 53.5,18.8333 53.5,20.1667 53.5,21.5C 54.5,21.5 55.5,21.5 56.5,21.5C 56.6972,25.2623 55.3639,28.2623 52.5,30.5C 51.3415,28.2604 50.0082,26.0937 48.5,24C 49.7932,23.51 51.1266,23.3433 52.5,23.5C 52.6621,21.4727 52.4955,19.4727 52,17.5C 51.7679,18.7375 51.2679,19.7375 50.5,20.5C 48.9724,21.3092 47.3057,21.9759 45.5,22.5C 45.7771,19.5525 45.4438,16.7191 44.5,14C 47.3508,12.7114 50.3508,12.2114 53.5,12.5 Z"/></g>
<g><path style="opacity:1" fill="#90765b" d="M 35.5,11.5 C 36.5,11.5 37.5,11.5 38.5,11.5C 39.1534,12.8068 39.8201,14.1401 40.5,15.5C 40.3764,16.1067 40.0431,16.44 39.5,16.5C 39.2648,15.9033 38.7648,15.5699 38,15.5C 30.4741,18.0969 23.4741,21.7636 17,26.5C 16.228,26.3552 15.5613,26.0219 15,25.5C 14.5034,23.1902 14.3367,20.8568 14.5,18.5C 15.339,19.6412 16.0057,20.9745 16.5,22.5C 17.6136,23.7759 18.6136,23.7759 19.5,22.5C 20.2679,21.7375 20.7679,20.7375 21,19.5C 21.414,19.9574 21.914,20.2907 22.5,20.5C 26.5133,17.993 30.8466,16.3264 35.5,15.5C 35.5,14.1667 35.5,12.8333 35.5,11.5 Z"/></g>
<g><path style="opacity:1" fill="#59351f" d="M 50.5,20.5 C 49.5,20.5 48.5,20.5 47.5,20.5C 47.5,19.5 47.5,18.5 47.5,17.5C 48.5,17.5 49.5,17.5 50.5,17.5C 50.5,18.5 50.5,19.5 50.5,20.5 Z"/></g>
<g><path style="opacity:1" fill="#444142" d="M 44.5,22.5 C 43.6981,21.0484 43.1981,19.3817 43,17.5C 41.2125,19.3326 41.0458,21.3326 42.5,23.5C 40.9793,23.8797 39.3126,24.0464 37.5,24C 38.0848,25.3024 38.7515,26.469 39.5,27.5C 38.0474,28.8249 38.3808,29.6582 40.5,30C 39.2889,31.1131 39.2889,32.2798 40.5,33.5C 36.3891,38.8367 34.3891,37.8367 34.5,30.5C 35.675,30.719 36.675,30.3857 37.5,29.5C 36.6063,29.4827 35.6063,29.1494 34.5,28.5C 35.6745,24.5794 37.3412,20.9127 39.5,17.5C 40.8589,16.9935 41.8589,15.9935 42.5,14.5C 44.2289,16.8511 44.8956,19.5178 44.5,22.5 Z"/></g>
<g><path style="opacity:1" fill="#d5b780" d="M 79.5,15.5 C 78.892,18.2929 79.5586,20.9595 81.5,23.5C 79.9519,23.8212 79.2852,24.8212 79.5,26.5C 78.5,26.5 77.5,26.5 76.5,26.5C 76.5,27.5 76.5,28.5 76.5,29.5C 75.8423,28.6016 75.1757,27.6016 74.5,26.5C 73.8933,26.6236 73.56,26.9569 73.5,27.5C 72.603,26.4019 71.7697,26.4019 71,27.5C 68.9815,25.8759 69.1481,24.5426 71.5,23.5C 72.6591,25.3769 74.3258,25.8769 76.5,25C 79.0028,19.1492 77.3361,16.9826 71.5,18.5C 70.5713,19.6888 70.238,21.0222 70.5,22.5C 69.8501,22.8039 69.1835,23.1373 68.5,23.5C 67.1696,21.6531 67.503,20.1531 69.5,19C 68.3982,15.94 69.3982,15.1066 72.5,16.5C 73.1667,15.5 73.8333,14.5 74.5,13.5C 75.8498,14.9501 77.5165,15.6168 79.5,15.5 Z"/></g>
<g><path style="opacity:1" fill="#945431" d="M 71.5,23.5 C 71.5,22.8333 71.1667,22.5 70.5,22.5C 70.238,21.0222 70.5713,19.6888 71.5,18.5C 77.3361,16.9826 79.0028,19.1492 76.5,25C 74.3258,25.8769 72.6591,25.3769 71.5,23.5 Z"/></g>
<g><path style="opacity:1" fill="#8e6a46" d="M 81.5,23.5 C 83.0647,27.6362 81.3981,29.6362 76.5,29.5C 76.5,28.5 76.5,27.5 76.5,26.5C 77.5,26.5 78.5,26.5 79.5,26.5C 79.2852,24.8212 79.9519,23.8212 81.5,23.5 Z"/></g>
<g><path style="opacity:1" fill="#ebbd9d" d="M 52.5,30.5 C 50.6182,31.221 50.2848,32.221 51.5,33.5C 51.0296,34.6935 50.0296,35.3601 48.5,35.5C 47.5,35.1667 46.5,34.8333 45.5,34.5C 44.5672,30.5705 44.2338,26.5705 44.5,22.5C 44.8333,22.5 45.1667,22.5 45.5,22.5C 47.3057,21.9759 48.9724,21.3092 50.5,20.5C 51.2679,19.7375 51.7679,18.7375 52,17.5C 52.4955,19.4727 52.6621,21.4727 52.5,23.5C 51.1266,23.3433 49.7932,23.51 48.5,24C 50.0082,26.0937 51.3415,28.2604 52.5,30.5 Z"/></g>
<g><path style="opacity:1" fill="#e8e3e2" d="M 66.5,18.5 C 65.1173,24.0224 67.1173,27.689 72.5,29.5C 73.8333,30.1667 75.1667,30.8333 76.5,31.5C 71.5486,32.0219 67.5486,30.3553 64.5,26.5C 63.833,24.1806 63.6664,21.8473 64,19.5C 64.3418,17.3808 65.1751,17.0474 66.5,18.5 Z"/></g>
<g><path style="opacity:1" fill="#ac9a87" d="M 84.5,33.5 C 84.5,32.8333 84.1667,32.5 83.5,32.5C 83.2252,30.1582 82.3919,30.1582 81,32.5C 77.9644,35.3118 76.1311,38.3118 75.5,41.5C 75.5,39.5 75.5,37.5 75.5,35.5C 76.4345,34.4324 76.7678,33.099 76.5,31.5C 75.1667,30.8333 73.8333,30.1667 72.5,29.5C 73.3382,29.1583 73.6716,28.4916 73.5,27.5C 73.56,26.9569 73.8933,26.6236 74.5,26.5C 75.1757,27.6016 75.8423,28.6016 76.5,29.5C 81.3981,29.6362 83.0647,27.6362 81.5,23.5C 79.5586,20.9595 78.892,18.2929 79.5,15.5C 79.5,14.8333 79.5,14.1667 79.5,13.5C 79.281,12.325 79.6143,11.325 80.5,10.5C 82.8579,12.0243 84.6912,14.0243 86,16.5C 86.6667,21.5 86.6667,26.5 86,31.5C 85.7216,32.4158 85.2216,33.0825 84.5,33.5 Z"/></g>
<g><path style="opacity:1" fill="#eae4de" d="M 80.5,12.5 C 84.2403,15.5994 85.407,19.5994 84,24.5C 83.9755,20.0923 82.8088,16.0923 80.5,12.5 Z"/></g>
<g><path style="opacity:1" fill="#3b3638" d="M 57.5,17.5 C 58.1654,21.1368 58.8321,24.8035 59.5,28.5C 59.1667,29.1667 58.8333,29.8333 58.5,30.5C 60.2889,32.6104 61.6223,34.9437 62.5,37.5C 61.1667,38.1667 59.8333,38.8333 58.5,39.5C 57.8333,38.5 57.1667,37.5 56.5,36.5C 54.7056,35.7671 53.0389,34.7671 51.5,33.5C 50.2848,32.221 50.6182,31.221 52.5,30.5C 55.3639,28.2623 56.6972,25.2623 56.5,21.5C 55.5,21.5 54.5,21.5 53.5,21.5C 53.5,20.1667 53.5,18.8333 53.5,17.5C 54.8333,17.5 56.1667,17.5 57.5,17.5 Z"/></g>
<g><path style="opacity:1" fill="#b3afaf" d="M 64.5,26.5 C 67.5486,30.3553 71.5486,32.0219 76.5,31.5C 76.7678,33.099 76.4345,34.4324 75.5,35.5C 73.3414,33.6598 70.6747,32.4932 67.5,32C 66.2423,30.2591 65.2423,28.4258 64.5,26.5 Z"/></g>
<g><path style="opacity:1" fill="#4f514c" d="M 33.5,30.5 C 33.3184,32.5914 33.6518,34.5914 34.5,36.5C 33.3636,36.9643 32.3636,37.2976 31.5,37.5C 30.391,37.4431 29.391,37.1098 28.5,36.5C 28.7717,33.2678 30.4384,31.2678 33.5,30.5 Z"/></g>
<g><path style="opacity:1" fill="#242825" d="M 41.5,34.5 C 41.1913,37.3455 39.5246,38.8455 36.5,39C 35.1772,39.8159 34.5106,40.9826 34.5,42.5C 35.2096,44.7463 35.7096,47.0796 36,49.5C 36.4186,48.3279 37.0853,47.3279 38,46.5C 38.3988,46.7284 38.5654,47.0618 38.5,47.5C 37.6586,49.3792 37.3253,51.3792 37.5,53.5C 37.5,54.1667 37.5,54.8333 37.5,55.5C 35.5085,57.4882 34.1752,59.8215 33.5,62.5C 33.762,61.0222 33.4287,59.6888 32.5,58.5C 31.7025,58.9569 31.3691,59.6236 31.5,60.5C 29.8333,60.5 28.1667,60.5 26.5,60.5C 26.4142,59.5041 26.7476,58.6708 27.5,58C 28.938,57.7811 30.2713,57.2811 31.5,56.5C 30.175,53.4692 30.175,50.4692 31.5,47.5C 33.9715,44.7857 33.9715,42.1191 31.5,39.5C 31.5,39.1667 31.5,38.8333 31.5,38.5C 31.5,38.1667 31.5,37.8333 31.5,37.5C 32.3636,37.2976 33.3636,36.9643 34.5,36.5C 33.6518,34.5914 33.3184,32.5914 33.5,30.5C 33.8333,29.8333 34.1667,29.1667 34.5,28.5C 35.6063,29.1494 36.6063,29.4827 37.5,29.5C 36.675,30.3857 35.675,30.719 34.5,30.5C 34.3891,37.8367 36.3891,38.8367 40.5,33.5C 39.2889,32.2798 39.2889,31.1131 40.5,30C 38.3808,29.6582 38.0474,28.8249 39.5,27.5C 39.369,26.7611 39.5357,26.0944 40,25.5C 41.5259,30.627 42.5259,30.627 43,25.5C 43.9065,28.8438 43.4065,31.8438 41.5,34.5 Z"/></g>
<g><path style="opacity:1" fill="#8c7e76" d="M 44.5,22.5 C 44.2338,26.5705 44.5672,30.5705 45.5,34.5C 46.5,34.8333 47.5,35.1667 48.5,35.5C 50.0296,35.3601 51.0296,34.6935 51.5,33.5C 53.0389,34.7671 54.7056,35.7671 56.5,36.5C 54.516,37.1557 52.516,37.8224 50.5,38.5C 47.4814,37.1624 44.4814,35.829 41.5,34.5C 43.4065,31.8438 43.9065,28.8438 43,25.5C 42.5259,30.627 41.5259,30.627 40,25.5C 39.5357,26.0944 39.369,26.7611 39.5,27.5C 38.7515,26.469 38.0848,25.3024 37.5,24C 39.3126,24.0464 40.9793,23.8797 42.5,23.5C 41.0458,21.3326 41.2125,19.3326 43,17.5C 43.1981,19.3817 43.6981,21.0484 44.5,22.5 Z"/></g>
<g><path style="opacity:1" fill="#ccc6c4" d="M 41.5,34.5 C 44.4814,35.829 47.4814,37.1624 50.5,38.5C 52.516,37.8224 54.516,37.1557 56.5,36.5C 57.1667,37.5 57.8333,38.5 58.5,39.5C 58.1583,40.3382 57.4916,40.6716 56.5,40.5C 55.2921,41.2341 53.9587,41.5674 52.5,41.5C 52.6495,42.552 52.4828,43.552 52,44.5C 50.0036,44.0037 48.3369,43.0037 47,41.5C 46.0853,42.3279 45.4186,43.3279 45,44.5C 44.67,38.6624 43.8367,38.329 42.5,43.5C 41.7784,43.9175 41.2784,44.5842 41,45.5C 42.3917,40.2173 41.3917,39.5506 38,43.5C 37.6667,42.5 37.3333,41.5 37,40.5C 36.5831,41.756 35.7498,42.4226 34.5,42.5C 34.5106,40.9826 35.1772,39.8159 36.5,39C 39.5246,38.8455 41.1913,37.3455 41.5,34.5 Z"/></g>
<g><path style="opacity:1" fill="#d5c6b4" d="M 83.5,32.5 C 80.6249,36.6584 79.2915,41.3251 79.5,46.5C 77.8333,46.5 76.1667,46.5 74.5,46.5C 73.3217,44.6621 73.655,42.9955 75.5,41.5C 76.1311,38.3118 77.9644,35.3118 81,32.5C 82.3919,30.1582 83.2252,30.1582 83.5,32.5 Z"/></g>
<g><path style="opacity:1" fill="#6e9590" d="M 62.5,37.5 C 65.4611,39.4121 67.4611,42.0787 68.5,45.5C 67.2921,46.2341 65.9587,46.5674 64.5,46.5C 64.5674,45.0413 64.2341,43.7079 63.5,42.5C 63.3713,40.7839 63.038,39.1172 62.5,37.5 Z"/></g>
<g><path style="opacity:1" fill="#4f85a5" d="M 62.5,37.5 C 63.038,39.1172 63.3713,40.7839 63.5,42.5C 62.3195,46.3189 60.9861,49.9855 59.5,53.5C 59.5191,51.9397 59.8524,50.4397 60.5,49C 59.6831,47.51 58.8498,46.01 58,44.5C 57.6667,44.8333 57.3333,45.1667 57,45.5C 57.337,49.0794 57.5036,52.746 57.5,56.5C 56.4371,52.3609 55.7704,48.0275 55.5,43.5C 56.1098,42.609 56.4431,41.609 56.5,40.5C 57.4916,40.6716 58.1583,40.3382 58.5,39.5C 59.8333,38.8333 61.1667,38.1667 62.5,37.5 Z"/></g>
<g><path style="opacity:1" fill="#638b77" d="M 31.5,39.5 C 33.9715,42.1191 33.9715,44.7857 31.5,47.5C 30.5655,46.4324 30.2322,45.099 30.5,43.5C 31.4345,42.4324 31.7678,41.099 31.5,39.5 Z"/></g>
<g><path style="opacity:1" fill="#8e807b" d="M 56.5,40.5 C 56.4431,41.609 56.1098,42.609 55.5,43.5C 53.7973,42.3398 53.1307,43.0065 53.5,45.5C 52.5,45.5 51.5,45.5 50.5,45.5C 51.3021,52.8042 51.6354,60.1375 51.5,67.5C 50.8333,67.5 50.1667,67.5 49.5,67.5C 49.8844,60.4112 49.3844,53.4112 48,46.5C 47.3292,45.7476 46.4959,45.4142 45.5,45.5C 44.2223,45.2178 43.2223,44.5511 42.5,43.5C 43.8367,38.329 44.67,38.6624 45,44.5C 45.4186,43.3279 46.0853,42.3279 47,41.5C 48.3369,43.0037 50.0036,44.0037 52,44.5C 52.4828,43.552 52.6495,42.552 52.5,41.5C 53.9587,41.5674 55.2921,41.2341 56.5,40.5 Z"/></g>
<g><path style="opacity:1" fill="#48a5bd" d="M 37.5,53.5 C 37.3253,51.3792 37.6586,49.3792 38.5,47.5C 39.8221,47.67 40.9887,47.3366 42,46.5C 42.4955,48.4727 42.6621,50.4727 42.5,52.5C 40.7839,52.6287 39.1172,52.962 37.5,53.5 Z"/></g>
<g><path style="opacity:1" fill="#4e555f" d="M 55.5,43.5 C 55.7704,48.0275 56.4371,52.3609 57.5,56.5C 57.5,58.8333 57.5,61.1667 57.5,63.5C 57.5,64.5 57.5,65.5 57.5,66.5C 56.4568,59.444 55.1235,52.444 53.5,45.5C 53.1307,43.0065 53.7973,42.3398 55.5,43.5 Z"/></g>
<g><path style="opacity:1" fill="#50a17a" d="M 68.5,45.5 C 68.9752,47.7837 69.9752,49.7837 71.5,51.5C 69.4131,52.5846 68.0798,54.2512 67.5,56.5C 66.2749,57.1522 65.6083,58.3189 65.5,60C 67.0571,63.0828 66.3905,64.5828 63.5,64.5C 62.7659,63.2921 62.4326,61.9587 62.5,60.5C 62.5319,55.6093 63.1985,50.9426 64.5,46.5C 65.9587,46.5674 67.2921,46.2341 68.5,45.5 Z"/></g>
<g><path style="opacity:1" fill="#43a5d3" d="M 59.5,53.5 C 59.5,54.1667 59.5,54.8333 59.5,55.5C 59.1583,56.3382 58.4916,56.6716 57.5,56.5C 57.5036,52.746 57.337,49.0794 57,45.5C 57.3333,45.1667 57.6667,44.8333 58,44.5C 58.8498,46.01 59.6831,47.51 60.5,49C 59.8524,50.4397 59.5191,51.9397 59.5,53.5 Z"/></g>
<g><path style="opacity:1" fill="#53856e" d="M 28.5,36.5 C 29.391,37.1098 30.391,37.4431 31.5,37.5C 31.5,37.8333 31.5,38.1667 31.5,38.5C 28.9556,38.1043 26.7889,38.771 25,40.5C 21.0938,48.7843 16.9272,56.7843 12.5,64.5C 15.0011,55.2079 19.0011,46.5412 24.5,38.5C 25.5769,37.2949 26.9102,36.6282 28.5,36.5 Z"/></g>
<g><path style="opacity:1" fill="#84745b" d="M 83.5,32.5 C 84.1667,32.5 84.5,32.8333 84.5,33.5C 83.5691,35.0332 82.9024,36.6998 82.5,38.5C 83.8417,42.3898 84.675,46.3898 85,50.5C 86.3414,57.1198 84.6747,62.7865 80,67.5C 79.8091,69.7078 79.3091,71.7078 78.5,73.5C 78.5,71.5 78.5,69.5 78.5,67.5C 76.901,67.7678 75.5676,67.4345 74.5,66.5C 76.4672,66.7394 78.3005,66.4061 80,65.5C 82.629,60.19 83.7957,54.5234 83.5,48.5C 81.1432,48.3367 78.8098,48.5034 76.5,49C 74.9632,50.1096 74.2965,51.6096 74.5,53.5C 73.8333,53.5 73.5,53.1667 73.5,52.5C 73.8333,50.5 74.1667,48.5 74.5,46.5C 76.1667,46.5 77.8333,46.5 79.5,46.5C 79.2915,41.3251 80.6249,36.6584 83.5,32.5 Z"/></g>
<g><path style="opacity:1" fill="#597281" d="M 42.5,43.5 C 43.2223,44.5511 44.2223,45.2178 45.5,45.5C 44.7904,47.7463 44.2904,50.0796 44,52.5C 43.0053,53.0659 42.172,53.7326 41.5,54.5C 40.2921,55.2341 38.9587,55.5674 37.5,55.5C 37.5,54.8333 37.5,54.1667 37.5,53.5C 39.1172,52.962 40.7839,52.6287 42.5,52.5C 42.6621,50.4727 42.4955,48.4727 42,46.5C 40.9887,47.3366 39.8221,47.67 38.5,47.5C 38.5654,47.0618 38.3988,46.7284 38,46.5C 37.0853,47.3279 36.4186,48.3279 36,49.5C 35.7096,47.0796 35.2096,44.7463 34.5,42.5C 35.7498,42.4226 36.5831,41.756 37,40.5C 37.3333,41.5 37.6667,42.5 38,43.5C 41.3917,39.5506 42.3917,40.2173 41,45.5C 41.2784,44.5842 41.7784,43.9175 42.5,43.5 Z"/></g>
<g><path style="opacity:1" fill="#573f3a" d="M 45.5,45.5 C 46.4959,45.4142 47.3292,45.7476 48,46.5C 49.3844,53.4112 49.8844,60.4112 49.5,67.5C 45.03,68.4861 40.3633,68.8195 35.5,68.5C 35.2322,70.099 35.5655,71.4324 36.5,72.5C 37.1667,72.5 37.5,72.8333 37.5,73.5C 36.8333,73.5 36.1667,73.5 35.5,73.5C 34.5386,71.7354 34.2053,69.7354 34.5,67.5C 39.6393,66.9407 39.6393,65.9407 34.5,64.5C 36.2646,63.5386 38.2646,63.2053 40.5,63.5C 42.8568,63.6633 45.1902,63.4966 47.5,63C 46.3318,61.5944 46.6652,60.4277 48.5,59.5C 46.9547,58.5481 45.288,58.2148 43.5,58.5C 44.9516,57.6981 46.6183,57.1981 48.5,57C 46.1667,56.6667 43.8333,56.3333 41.5,56C 42.7383,55.31 42.7383,54.81 41.5,54.5C 42.172,53.7326 43.0053,53.0659 44,52.5C 44.2904,50.0796 44.7904,47.7463 45.5,45.5 Z"/></g>
<g><path style="opacity:1" fill="#b06a66" d="M 71.5,51.5 C 72.1667,51.8333 72.8333,52.1667 73.5,52.5C 73.5,53.1667 73.8333,53.5 74.5,53.5C 74.7845,55.4147 74.4511,57.0813 73.5,58.5C 73.6495,57.448 73.4828,56.448 73,55.5C 72.79,57.0581 72.29,58.3915 71.5,59.5C 70.3509,59.2089 69.6842,58.3756 69.5,57C 69.9543,55.0614 70.621,53.228 71.5,51.5 Z"/></g>
<g><path style="opacity:1" fill="#ddc177" d="M 74.5,66.5 C 74.5,66.1667 74.5,65.8333 74.5,65.5C 74.5,64.8333 74.1667,64.5 73.5,64.5C 73.5,62.5 73.5,60.5 73.5,58.5C 74.4511,57.0813 74.7845,55.4147 74.5,53.5C 74.2965,51.6096 74.9632,50.1096 76.5,49C 78.8098,48.5034 81.1432,48.3367 83.5,48.5C 83.7957,54.5234 82.629,60.19 80,65.5C 78.3005,66.4061 76.4672,66.7394 74.5,66.5 Z"/></g>
<g><path style="opacity:1" fill="#2e4b36" d="M 30.5,43.5 C 30.2322,45.099 30.5655,46.4324 31.5,47.5C 30.175,50.4692 30.175,53.4692 31.5,56.5C 30.2713,57.2811 28.938,57.7811 27.5,58C 26.7476,58.6708 26.4142,59.5041 26.5,60.5C 26.1667,61.5 25.5,62.1667 24.5,62.5C 24.4208,61.0695 24.7542,59.7362 25.5,58.5C 24.2634,57.7193 23.2634,56.7193 22.5,55.5C 24.3413,54.7696 26.1746,54.1029 28,53.5C 28.0885,51.8866 27.2552,50.7199 25.5,50C 26.7932,49.51 28.1266,49.3433 29.5,49.5C 29.4809,47.9397 29.1476,46.4397 28.5,45C 28.8361,43.9701 29.5028,43.4701 30.5,43.5 Z"/></g>
<g><path style="opacity:1" fill="#e0b996" d="M 41.5,54.5 C 42.7383,54.81 42.7383,55.31 41.5,56C 43.8333,56.3333 46.1667,56.6667 48.5,57C 46.6183,57.1981 44.9516,57.6981 43.5,58.5C 43.5,59.8333 43.5,61.1667 43.5,62.5C 42.209,62.2627 41.209,62.596 40.5,63.5C 38.2646,63.2053 36.2646,63.5386 34.5,64.5C 34.5,65.1667 34.1667,65.5 33.5,65.5C 33.5,64.5 33.5,63.5 33.5,62.5C 34.1752,59.8215 35.5085,57.4882 37.5,55.5C 38.9587,55.5674 40.2921,55.2341 41.5,54.5 Z"/></g>
<g><path style="opacity:1" fill="#0e3337" d="M 63.5,42.5 C 64.2341,43.7079 64.5674,45.0413 64.5,46.5C 63.1985,50.9426 62.5319,55.6093 62.5,60.5C 61.8333,61.8333 61.1667,63.1667 60.5,64.5C 60.81,61.2869 60.4767,58.2869 59.5,55.5C 59.5,54.8333 59.5,54.1667 59.5,53.5C 60.9861,49.9855 62.3195,46.3189 63.5,42.5 Z"/></g>
<g><path style="opacity:1" fill="#4f322e" d="M 53.5,45.5 C 55.1235,52.444 56.4568,59.444 57.5,66.5C 57.5,67.1667 57.5,67.8333 57.5,68.5C 55.3729,67.8506 53.3729,67.5173 51.5,67.5C 51.6354,60.1375 51.3021,52.8042 50.5,45.5C 51.5,45.5 52.5,45.5 53.5,45.5 Z"/></g>
<g><path style="opacity:1" fill="#f4d861" d="M 78.5,51.5 C 80.7224,51.5587 81.7224,52.7253 81.5,55C 80.3834,57.7313 79.7167,60.5647 79.5,63.5C 78.5,63.5 77.5,63.5 76.5,63.5C 75.9905,59.1869 76.6571,55.1869 78.5,51.5 Z"/></g>
<g><path style="opacity:1" fill="#2d1f1c" d="M 71.5,51.5 C 70.621,53.228 69.9543,55.0614 69.5,57C 69.6842,58.3756 70.3509,59.2089 71.5,59.5C 71.7271,61.9328 70.7271,63.5994 68.5,64.5C 66.5031,62.02 66.1698,59.3533 67.5,56.5C 68.0798,54.2512 69.4131,52.5846 71.5,51.5 Z"/></g>
<g><path style="opacity:1" fill="#579aae" d="M 59.5,55.5 C 60.4767,58.2869 60.81,61.2869 60.5,64.5C 60.6309,65.3764 60.2975,66.0431 59.5,66.5C 58.8243,65.3984 58.1577,64.3984 57.5,63.5C 57.5,61.1667 57.5,58.8333 57.5,56.5C 58.4916,56.6716 59.1583,56.3382 59.5,55.5 Z"/></g>
<g><path style="opacity:1" fill="#e4d7d2" d="M 33.5,62.5 C 33.5,63.5 33.5,64.5 33.5,65.5C 32.3951,66.6005 31.0618,67.2671 29.5,67.5C 29.767,65.0347 30.4336,62.7014 31.5,60.5C 31.3691,59.6236 31.7025,58.9569 32.5,58.5C 33.4287,59.6888 33.762,61.0222 33.5,62.5 Z"/></g>
<g><path style="opacity:1" fill="#957361" d="M 43.5,58.5 C 45.288,58.2148 46.9547,58.5481 48.5,59.5C 46.6652,60.4277 46.3318,61.5944 47.5,63C 45.1902,63.4966 42.8568,63.6633 40.5,63.5C 41.209,62.596 42.209,62.2627 43.5,62.5C 43.5,61.1667 43.5,59.8333 43.5,58.5 Z"/></g>
<g><path style="opacity:1" fill="#408d68" d="M 31.5,38.5 C 31.5,38.8333 31.5,39.1667 31.5,39.5C 31.7678,41.099 31.4345,42.4324 30.5,43.5C 29.5028,43.4701 28.8361,43.9701 28.5,45C 29.1476,46.4397 29.4809,47.9397 29.5,49.5C 28.1266,49.3433 26.7932,49.51 25.5,50C 27.2552,50.7199 28.0885,51.8866 28,53.5C 26.1746,54.1029 24.3413,54.7696 22.5,55.5C 23.2634,56.7193 24.2634,57.7193 25.5,58.5C 24.7542,59.7362 24.4208,61.0695 24.5,62.5C 24.5674,63.9587 24.2341,65.2921 23.5,66.5C 22.5661,69.1152 20.8994,69.7818 18.5,68.5C 17.6143,69.325 17.281,70.325 17.5,71.5C 16.7784,71.0825 16.2784,70.4158 16,69.5C 15.6667,70.1667 15.3333,70.8333 15,71.5C 14.9504,69.256 14.1171,67.5893 12.5,66.5C 12.5,65.8333 12.5,65.1667 12.5,64.5C 16.9272,56.7843 21.0938,48.7843 25,40.5C 26.7889,38.771 28.9556,38.1043 31.5,38.5 Z"/></g>
<g><path style="opacity:1" fill="#632f1d" d="M 73.5,58.5 C 73.5,60.5 73.5,62.5 73.5,64.5C 72.1779,64.33 71.0113,64.6634 70,65.5C 69.5045,67.4727 69.3379,69.4727 69.5,71.5C 68.5318,69.3926 68.1984,67.0593 68.5,64.5C 70.7271,63.5994 71.7271,61.9328 71.5,59.5C 72.29,58.3915 72.79,57.0581 73,55.5C 73.4828,56.448 73.6495,57.448 73.5,58.5 Z"/></g>
<g><path style="opacity:1" fill="#56969f" d="M 39.5,64.5 C 40.8333,64.5 42.1667,64.5 43.5,64.5C 43.5,65.5 43.5,66.5 43.5,67.5C 42.1667,67.5 40.8333,67.5 39.5,67.5C 39.5,66.5 39.5,65.5 39.5,64.5 Z"/></g>
<g><path style="opacity:1" fill="#b05159" d="M 26.5,60.5 C 28.1667,60.5 29.8333,60.5 31.5,60.5C 30.4336,62.7014 29.767,65.0347 29.5,67.5C 29.5,67.8333 29.5,68.1667 29.5,68.5C 27.9212,70.9355 25.5879,72.2689 22.5,72.5C 22.8333,70.5 23.1667,68.5 23.5,66.5C 24.2341,65.2921 24.5674,63.9587 24.5,62.5C 25.5,62.1667 26.1667,61.5 26.5,60.5 Z"/></g>
<g><path style="opacity:1" fill="#2f4d3f" d="M 62.5,60.5 C 62.4326,61.9587 62.7659,63.2921 63.5,64.5C 63.8972,66.6621 65.2305,67.9954 67.5,68.5C 67.1445,69.5223 66.4778,70.189 65.5,70.5C 63.6924,69.6754 61.8591,68.6754 60,67.5C 58.9889,68.0556 58.1556,68.7222 57.5,69.5C 57.5,69.1667 57.5,68.8333 57.5,68.5C 57.5,67.8333 57.5,67.1667 57.5,66.5C 57.5,65.5 57.5,64.5 57.5,63.5C 58.1577,64.3984 58.8243,65.3984 59.5,66.5C 60.2975,66.0431 60.6309,65.3764 60.5,64.5C 61.1667,63.1667 61.8333,61.8333 62.5,60.5 Z"/></g>
<g><path style="opacity:1" fill="#5c8571" d="M 12.5,66.5 C 14.1171,67.5893 14.9504,69.256 15,71.5C 15.3333,70.8333 15.6667,70.1667 16,69.5C 16.2784,70.4158 16.7784,71.0825 17.5,71.5C 18.1098,72.391 18.4431,73.391 18.5,74.5C 16.5542,74.1928 14.8875,74.1928 13.5,74.5C 15.4176,77.5834 16.7509,80.9167 17.5,84.5C 16.7439,90.8858 15.7439,97.2191 14.5,103.5C 13.0163,91.3639 12.3497,79.0306 12.5,66.5 Z"/></g>
<g><path style="opacity:1" fill="#8c735a" d="M 49.5,67.5 C 50.1667,67.5 50.8333,67.5 51.5,67.5C 53.3729,67.5173 55.3729,67.8506 57.5,68.5C 57.5,68.8333 57.5,69.1667 57.5,69.5C 57.5,70.1667 57.5,70.8333 57.5,71.5C 57.573,73.0269 56.9063,74.0269 55.5,74.5C 54.209,74.2627 53.209,74.596 52.5,75.5C 51.1667,75.5 50.5,76.1667 50.5,77.5C 49.596,76.791 49.2627,75.791 49.5,74.5C 48.5,74.5 47.5,74.5 46.5,74.5C 46.1667,74.5 45.8333,74.5 45.5,74.5C 45.5,74.1667 45.5,73.8333 45.5,73.5C 46.2389,73.631 46.9056,73.4643 47.5,73C 46.6634,71.9887 46.33,70.8221 46.5,69.5C 43.8127,69.3359 41.146,69.5026 38.5,70C 39.8333,70.3333 41.1667,70.6667 42.5,71C 40.2922,71.1909 38.2922,71.6909 36.5,72.5C 35.5655,71.4324 35.2322,70.099 35.5,68.5C 40.3633,68.8195 45.03,68.4861 49.5,67.5 Z"/></g>
<g><path style="opacity:1" fill="#c96a71" d="M 73.5,64.5 C 74.1667,64.5 74.5,64.8333 74.5,65.5C 73.8334,71.3465 73.1668,77.3465 72.5,83.5C 71.914,83.2907 71.414,82.9574 71,82.5C 70.8195,79.3054 70.3195,76.3054 69.5,73.5C 69.5,72.8333 69.5,72.1667 69.5,71.5C 69.3379,69.4727 69.5045,67.4727 70,65.5C 71.0113,64.6634 72.1779,64.33 73.5,64.5 Z"/></g>
<g><path style="opacity:1" fill="#b4a191" d="M 45.5,73.5 C 43.8333,73.5 42.1667,73.5 40.5,73.5C 39.5,73.5 38.5,73.5 37.5,73.5C 37.5,72.8333 37.1667,72.5 36.5,72.5C 38.2922,71.6909 40.2922,71.1909 42.5,71C 41.1667,70.6667 39.8333,70.3333 38.5,70C 41.146,69.5026 43.8127,69.3359 46.5,69.5C 46.33,70.8221 46.6634,71.9887 47.5,73C 46.9056,73.4643 46.2389,73.631 45.5,73.5 Z"/></g>
<g><path style="opacity:1" fill="#5e7d62" d="M 67.5,56.5 C 66.1698,59.3533 66.5031,62.02 68.5,64.5C 68.1984,67.0593 68.5318,69.3926 69.5,71.5C 69.5,72.1667 69.5,72.8333 69.5,73.5C 69.5,74.8333 69.5,76.1667 69.5,77.5C 68.8485,78.0906 68.1818,78.7573 67.5,79.5C 66.3219,76.6092 65.6553,73.6092 65.5,70.5C 66.4778,70.189 67.1445,69.5223 67.5,68.5C 65.2305,67.9954 63.8972,66.6621 63.5,64.5C 66.3905,64.5828 67.0571,63.0828 65.5,60C 65.6083,58.3189 66.2749,57.1522 67.5,56.5 Z"/></g>
<g><path style="opacity:1" fill="#2f2720" d="M 23.5,66.5 C 23.1667,68.5 22.8333,70.5 22.5,72.5C 22.634,74.2915 22.3007,75.9582 21.5,77.5C 19.9886,80.5443 19.322,83.8776 19.5,87.5C 21.6353,89.0605 21.802,90.7271 20,92.5C 19.6174,91.944 19.1174,91.6107 18.5,91.5C 18.2065,85.739 18.2065,80.0723 18.5,74.5C 18.4431,73.391 18.1098,72.391 17.5,71.5C 17.281,70.325 17.6143,69.325 18.5,68.5C 20.8994,69.7818 22.5661,69.1152 23.5,66.5 Z"/></g>
<g><path style="opacity:1" fill="#561e1c" d="M 29.5,68.5 C 30.4916,68.3284 31.1583,68.6618 31.5,69.5C 30.7659,70.7079 30.4326,72.0413 30.5,73.5C 29.3681,76.6284 28.5348,79.9618 28,83.5C 26.2942,82.6921 25.4609,81.3588 25.5,79.5C 25.719,78.325 25.3857,77.325 24.5,76.5C 23.5832,77.1272 22.5832,77.4606 21.5,77.5C 22.3007,75.9582 22.634,74.2915 22.5,72.5C 25.5879,72.2689 27.9212,70.9355 29.5,68.5 Z"/></g>
<g><path style="opacity:1" fill="#bd6168" d="M 25.5,79.5 C 23.0258,81.9517 21.0258,84.6184 19.5,87.5C 19.322,83.8776 19.9886,80.5443 21.5,77.5C 22.5832,77.4606 23.5832,77.1272 24.5,76.5C 25.3857,77.325 25.719,78.325 25.5,79.5 Z"/></g>
<g><path style="opacity:1" fill="#b56e78" d="M 31.5,69.5 C 32.574,79.2488 31.4074,88.9155 28,98.5C 27.6232,99.9423 26.7899,100.942 25.5,101.5C 27.4523,96.3552 28.4523,91.0219 28.5,85.5C 29.8042,81.6403 30.4709,77.6403 30.5,73.5C 30.4326,72.0413 30.7659,70.7079 31.5,69.5 Z"/></g>
<g><path style="opacity:1" fill="#38201f" d="M 74.5,65.5 C 74.5,65.8333 74.5,66.1667 74.5,66.5C 75.5676,67.4345 76.901,67.7678 78.5,67.5C 78.5,69.5 78.5,71.5 78.5,73.5C 77.1757,78.7506 76.1757,84.084 75.5,89.5C 74.6862,91.631 74.1862,93.9644 74,96.5C 72.6439,95.6198 71.1439,95.2865 69.5,95.5C 69.5,94.5 69.5,93.5 69.5,92.5C 70.5,92.5 71.5,92.5 72.5,92.5C 72.4208,91.0695 72.7542,89.7362 73.5,88.5C 70.5812,87.0682 69.2479,88.0682 69.5,91.5C 69.1915,87.0419 69.1915,82.3752 69.5,77.5C 69.5,76.1667 69.5,74.8333 69.5,73.5C 70.3195,76.3054 70.8195,79.3054 71,82.5C 71.414,82.9574 71.914,83.2907 72.5,83.5C 73.1668,77.3465 73.8334,71.3465 74.5,65.5 Z"/></g>
<g><path style="opacity:1" fill="#172c41" d="M 35.5,73.5 C 36.1667,73.5 36.8333,73.5 37.5,73.5C 36.3159,81.0776 34.6492,88.4109 32.5,95.5C 32.0732,87.9281 33.0732,80.5947 35.5,73.5 Z"/></g>
<g><path style="opacity:1" fill="#569ebf" d="M 37.5,73.5 C 38.5,73.5 39.5,73.5 40.5,73.5C 40.5,73.8333 40.5,74.1667 40.5,74.5C 39.7659,75.7079 39.4326,77.0413 39.5,78.5C 36.7524,89.3212 35.419,100.321 35.5,111.5C 34.4324,112.434 33.099,112.768 31.5,112.5C 31.4724,107.138 31.8058,101.805 32.5,96.5C 32.5,96.1667 32.5,95.8333 32.5,95.5C 34.6492,88.4109 36.3159,81.0776 37.5,73.5 Z"/></g>
<g><path style="opacity:1" fill="#1b1b1a" d="M 65.5,70.5 C 65.6553,73.6092 66.3219,76.6092 67.5,79.5C 68.1818,78.7573 68.8485,78.0906 69.5,77.5C 69.1915,82.3752 69.1915,87.0419 69.5,91.5C 69.5,91.8333 69.5,92.1667 69.5,92.5C 69.5,93.5 69.5,94.5 69.5,95.5C 69.5,96.8333 68.8333,97.5 67.5,97.5C 65.1838,90.3063 64.3505,82.973 65,75.5C 63.687,74.7129 62.5203,75.0462 61.5,76.5C 60.8333,75.5 60.1667,74.5 59.5,73.5C 59.1667,72.5 58.5,71.8333 57.5,71.5C 57.5,70.8333 57.5,70.1667 57.5,69.5C 58.1556,68.7222 58.9889,68.0556 60,67.5C 61.8591,68.6754 63.6924,69.6754 65.5,70.5 Z"/></g>
<g><path style="opacity:1" fill="#293628" d="M 18.5,74.5 C 18.2065,80.0723 18.2065,85.739 18.5,91.5C 17.5184,94.9619 17.185,98.6286 17.5,102.5C 15.631,104.635 14.9644,107.302 15.5,110.5C 14.5318,108.393 14.1984,106.059 14.5,103.5C 15.7439,97.2191 16.7439,90.8858 17.5,84.5C 16.7509,80.9167 15.4176,77.5834 13.5,74.5C 14.8875,74.1928 16.5542,74.1928 18.5,74.5 Z"/></g>
<g><path style="opacity:1" fill="#742d31" d="M 30.5,73.5 C 30.4709,77.6403 29.8042,81.6403 28.5,85.5C 27.3121,84.3157 26.1455,84.3157 25,85.5C 22.5824,92.2557 20.4157,99.089 18.5,106C 18.6251,107.627 19.1251,109.127 20,110.5C 20.7096,109.027 21.8762,108.36 23.5,108.5C 24.1667,108.5 24.5,108.833 24.5,109.5C 23.2223,109.782 22.2223,110.449 21.5,111.5C 20.1667,111.5 18.8333,111.5 17.5,111.5C 17.5,108.5 17.5,105.5 17.5,102.5C 17.185,98.6286 17.5184,94.9619 18.5,91.5C 19.1174,91.6107 19.6174,91.944 20,92.5C 21.802,90.7271 21.6353,89.0605 19.5,87.5C 21.0258,84.6184 23.0258,81.9517 25.5,79.5C 25.4609,81.3588 26.2942,82.6921 28,83.5C 28.5348,79.9618 29.3681,76.6284 30.5,73.5 Z"/></g>
<g><path style="opacity:1" fill="#183d57" d="M 39.5,78.5 C 40.404,79.209 40.7373,80.209 40.5,81.5C 39.9523,87.1953 39.2857,92.8619 38.5,98.5C 36.8651,102.573 35.8651,106.906 35.5,111.5C 35.419,100.321 36.7524,89.3212 39.5,78.5 Z"/></g>
<g><path style="opacity:1" fill="#bb6d79" d="M 69.5,92.5 C 69.5,92.1667 69.5,91.8333 69.5,91.5C 69.2479,88.0682 70.5812,87.0682 73.5,88.5C 72.7542,89.7362 72.4208,91.0695 72.5,92.5C 71.5,92.5 70.5,92.5 69.5,92.5 Z"/></g>
<g><path style="opacity:1" fill="#427d9a" d="M 40.5,74.5 C 41.5,74.5 42.5,74.5 43.5,74.5C 43.5,87.8333 43.5,101.167 43.5,114.5C 43.1667,114.5 42.8333,114.5 42.5,114.5C 40.8333,114.5 39.1667,114.5 37.5,114.5C 37.1818,109.968 37.5151,105.634 38.5,101.5C 38.5,105.5 38.5,109.5 38.5,113.5C 39.8333,113.5 41.1667,113.5 42.5,113.5C 43.1428,102.448 42.4762,91.7809 40.5,81.5C 40.7373,80.209 40.404,79.209 39.5,78.5C 39.4326,77.0413 39.7659,75.7079 40.5,74.5 Z"/></g>
<g><path style="opacity:1" fill="#4b4558" d="M 40.5,74.5 C 40.5,74.1667 40.5,73.8333 40.5,73.5C 42.1667,73.5 43.8333,73.5 45.5,73.5C 45.5,73.8333 45.5,74.1667 45.5,74.5C 45.5,78.8333 45.5,83.1667 45.5,87.5C 44.5067,96.3178 44.1734,105.318 44.5,114.5C 44.1667,114.5 43.8333,114.5 43.5,114.5C 43.5,101.167 43.5,87.8333 43.5,74.5C 42.5,74.5 41.5,74.5 40.5,74.5 Z"/></g>
<g><path style="opacity:1" fill="#65829f" d="M 59.5,73.5 C 60.1667,74.5 60.8333,75.5 61.5,76.5C 63.222,86.8183 63.8886,97.1516 63.5,107.5C 62.8324,104.694 62.1657,102.028 61.5,99.5C 61.6659,94.4889 61.4993,89.4889 61,84.5C 60.6667,88.1667 60.3333,91.8333 60,95.5C 59.6174,94.944 59.1174,94.6107 58.5,94.5C 59.1537,89.1776 58.8204,83.5109 57.5,77.5C 57.3402,75.6455 58.0069,74.3121 59.5,73.5 Z"/></g>
<g><path style="opacity:1" fill="#d34b55" d="M 28.5,85.5 C 28.4523,91.0219 27.4523,96.3552 25.5,101.5C 24.8333,103.833 24.1667,106.167 23.5,108.5C 21.8762,108.36 20.7096,109.027 20,110.5C 19.1251,109.127 18.6251,107.627 18.5,106C 20.4157,99.089 22.5824,92.2557 25,85.5C 26.1455,84.3157 27.3121,84.3157 28.5,85.5 Z"/></g>
<g><path style="opacity:1" fill="#5d3837" d="M 46.5,74.5 C 47.5,74.5 48.5,74.5 49.5,74.5C 49.2627,75.791 49.596,76.791 50.5,77.5C 51.0552,89.1589 51.3885,100.826 51.5,112.5C 49.3812,112.468 48.0478,113.468 47.5,115.5C 47.1667,115.5 46.8333,115.5 46.5,115.5C 46.1583,114.662 45.4916,114.328 44.5,114.5C 44.1734,105.318 44.5067,96.3178 45.5,87.5C 45.3336,95.5069 45.5003,103.507 46,111.5C 46.7412,112.641 47.5745,112.641 48.5,111.5C 48.8333,110.167 49.1667,108.833 49.5,107.5C 48.2482,98.9822 48.2482,90.4822 49.5,82C 48.778,79.3226 47.778,76.8226 46.5,74.5 Z"/></g>
<g><path style="opacity:1" fill="#692931" d="M 45.5,74.5 C 45.8333,74.5 46.1667,74.5 46.5,74.5C 47.778,76.8226 48.778,79.3226 49.5,82C 48.2482,90.4822 48.2482,98.9822 49.5,107.5C 49.1667,108.833 48.8333,110.167 48.5,111.5C 47.5745,112.641 46.7412,112.641 46,111.5C 45.5003,103.507 45.3336,95.5069 45.5,87.5C 45.5,83.1667 45.5,78.8333 45.5,74.5 Z"/></g>
<g><path style="opacity:1" fill="#403f53" d="M 61.5,99.5 C 60.5318,101.607 60.1984,103.941 60.5,106.5C 60.1667,106.5 59.8333,106.5 59.5,106.5C 59.3542,102.481 59.0209,98.4809 58.5,94.5C 59.1174,94.6107 59.6174,94.944 60,95.5C 60.3333,91.8333 60.6667,88.1667 61,84.5C 61.4993,89.4889 61.6659,94.4889 61.5,99.5 Z"/></g>
<g><path style="opacity:1" fill="#5c4b4d" d="M 75.5,89.5 C 75.7399,92.5788 75.4066,95.5788 74.5,98.5C 72.2287,99.3635 69.8954,99.3635 67.5,98.5C 67.5,98.1667 67.5,97.8333 67.5,97.5C 68.8333,97.5 69.5,96.8333 69.5,95.5C 71.1439,95.2865 72.6439,95.6198 74,96.5C 74.1862,93.9644 74.6862,91.631 75.5,89.5 Z"/></g>
<g><path style="opacity:1" fill="#49a8cf" d="M 40.5,81.5 C 42.4762,91.7809 43.1428,102.448 42.5,113.5C 41.1667,113.5 39.8333,113.5 38.5,113.5C 38.5,109.5 38.5,105.5 38.5,101.5C 38.5,100.5 38.5,99.5 38.5,98.5C 39.2857,92.8619 39.9523,87.1953 40.5,81.5 Z"/></g>
<g><path style="opacity:1" fill="#542e2b" d="M 55.5,74.5 C 55.641,80.5261 55.3077,86.5261 54.5,92.5C 54.7163,94.3839 55.383,96.0506 56.5,97.5C 55.415,98.7841 54.7483,100.284 54.5,102C 55.3222,105.141 55.9888,108.307 56.5,111.5C 55.3127,109.928 54.3127,108.261 53.5,106.5C 53.1251,96.1683 52.7918,85.835 52.5,75.5C 53.209,74.596 54.209,74.2627 55.5,74.5 Z"/></g>
<g><path style="opacity:1" fill="#69343f" d="M 57.5,71.5 C 58.5,71.8333 59.1667,72.5 59.5,73.5C 58.0069,74.3121 57.3402,75.6455 57.5,77.5C 58.8204,83.5109 59.1537,89.1776 58.5,94.5C 59.0209,98.4809 59.3542,102.481 59.5,106.5C 59.7593,108.989 58.7593,110.656 56.5,111.5C 55.9888,108.307 55.3222,105.141 54.5,102C 54.7483,100.284 55.415,98.7841 56.5,97.5C 55.383,96.0506 54.7163,94.3839 54.5,92.5C 55.3077,86.5261 55.641,80.5261 55.5,74.5C 56.9063,74.0269 57.573,73.0269 57.5,71.5 Z"/></g>
<g><path style="opacity:1" fill="#9e8d84" d="M 52.5,75.5 C 52.7918,85.835 53.1251,96.1683 53.5,106.5C 53.9746,109.082 53.3079,111.082 51.5,112.5C 51.3885,100.826 51.0552,89.1589 50.5,77.5C 50.5,76.1667 51.1667,75.5 52.5,75.5 Z"/></g>
<g><path style="opacity:1" fill="#1a2030" d="M 67.5,97.5 C 67.5,97.8333 67.5,98.1667 67.5,98.5C 68.4675,101.445 68.6342,104.445 68,107.5C 65.9286,108.103 64.7619,109.436 64.5,111.5C 63.1667,111.5 61.8333,111.5 60.5,111.5C 60.5,109.833 60.5,108.167 60.5,106.5C 60.1984,103.941 60.5318,101.607 61.5,99.5C 62.1657,102.028 62.8324,104.694 63.5,107.5C 63.8886,97.1516 63.222,86.8183 61.5,76.5C 62.5203,75.0462 63.687,74.7129 65,75.5C 64.3505,82.973 65.1838,90.3063 67.5,97.5 Z"/></g>
<g><path style="opacity:1" fill="#251b1d" d="M 34.5,64.5 C 39.6393,65.9407 39.6393,66.9407 34.5,67.5C 34.2053,69.7354 34.5386,71.7354 35.5,73.5C 33.0732,80.5947 32.0732,87.9281 32.5,95.5C 32.5,95.8333 32.5,96.1667 32.5,96.5C 28.2261,101.358 27.5595,106.691 30.5,112.5C 32.396,113.466 34.396,113.799 36.5,113.5C 36.33,114.822 36.6634,115.989 37.5,117C 39.5,117.667 41.5,117.667 43.5,117C 42.7476,116.329 42.4142,115.496 42.5,114.5C 42.8333,114.5 43.1667,114.5 43.5,114.5C 43.8333,114.5 44.1667,114.5 44.5,114.5C 43.9791,118.481 43.6458,122.481 43.5,126.5C 43.0756,123.33 41.4089,120.997 38.5,119.5C 36.4268,118.862 34.4268,117.862 32.5,116.5C 30.4645,117.885 28.4645,119.218 26.5,120.5C 26.665,117.15 26.4983,113.817 26,110.5C 25.6174,109.944 25.1174,109.611 24.5,109.5C 24.5,108.833 24.1667,108.5 23.5,108.5C 24.1667,106.167 24.8333,103.833 25.5,101.5C 26.7899,100.942 27.6232,99.9423 28,98.5C 31.4074,88.9155 32.574,79.2488 31.5,69.5C 31.1583,68.6618 30.4916,68.3284 29.5,68.5C 29.5,68.1667 29.5,67.8333 29.5,67.5C 31.0618,67.2671 32.3951,66.6005 33.5,65.5C 34.1667,65.5 34.5,65.1667 34.5,64.5 Z"/></g>
<g><path style="opacity:1" fill="#41292d" d="M 17.5,102.5 C 17.5,105.5 17.5,108.5 17.5,111.5C 18.8333,111.5 20.1667,111.5 21.5,111.5C 21.0377,112.88 20.0377,113.547 18.5,113.5C 16.484,113.484 15.484,112.484 15.5,110.5C 14.9644,107.302 15.631,104.635 17.5,102.5 Z"/></g>
<g><path style="opacity:1" fill="#13202f" d="M 32.5,96.5 C 31.8058,101.805 31.4724,107.138 31.5,112.5C 33.099,112.768 34.4324,112.434 35.5,111.5C 35.8651,106.906 36.8651,102.573 38.5,98.5C 38.5,99.5 38.5,100.5 38.5,101.5C 37.5151,105.634 37.1818,109.968 37.5,114.5C 39.1667,114.5 40.8333,114.5 42.5,114.5C 42.4142,115.496 42.7476,116.329 43.5,117C 41.5,117.667 39.5,117.667 37.5,117C 36.6634,115.989 36.33,114.822 36.5,113.5C 34.396,113.799 32.396,113.466 30.5,112.5C 27.5595,106.691 28.2261,101.358 32.5,96.5 Z"/></g>
<g><path style="opacity:1" fill="#271d1a" d="M 53.5,106.5 C 54.3127,108.261 55.3127,109.928 56.5,111.5C 58.7593,110.656 59.7593,108.989 59.5,106.5C 59.8333,106.5 60.1667,106.5 60.5,106.5C 60.5,108.167 60.5,109.833 60.5,111.5C 59.3862,112.885 58.3862,114.385 57.5,116C 53.9439,116.222 50.6105,117.056 47.5,118.5C 47.5,117.5 47.5,116.5 47.5,115.5C 48.0478,113.468 49.3812,112.468 51.5,112.5C 53.3079,111.082 53.9746,109.082 53.5,106.5 Z"/></g>
<g><path style="opacity:1" fill="#232e26" d="M 60.5,111.5 C 61.8333,111.5 63.1667,111.5 64.5,111.5C 64.5575,119.521 64.2242,127.521 63.5,135.5C 62.8525,137.498 62.0192,139.498 61,141.5C 60.9934,134.575 60.1601,127.908 58.5,121.5C 57.791,120.596 56.791,120.263 55.5,120.5C 54.0536,119.387 52.3869,119.22 50.5,120C 49.7476,120.671 49.4142,121.504 49.5,122.5C 47.8235,121.817 47.1568,120.483 47.5,118.5C 50.6105,117.056 53.9439,116.222 57.5,116C 58.3862,114.385 59.3862,112.885 60.5,111.5 Z"/></g>
<g><path style="opacity:1" fill="#b0adad" d="M 44.5,114.5 C 45.4916,114.328 46.1583,114.662 46.5,115.5C 45.1667,123.5 43.8333,131.5 42.5,139.5C 42.3718,135.119 42.7051,130.785 43.5,126.5C 43.6458,122.481 43.9791,118.481 44.5,114.5 Z"/></g>
<g><path style="opacity:1" fill="#202923" d="M 38.5,119.5 C 41.4089,120.997 43.0756,123.33 43.5,126.5C 42.7051,130.785 42.3718,135.119 42.5,139.5C 41.5987,140.29 40.9321,141.29 40.5,142.5C 39.209,142.263 38.209,142.596 37.5,143.5C 35.6208,144.341 33.6208,144.675 31.5,144.5C 31.1667,144.5 30.8333,144.5 30.5,144.5C 29.0582,143.18 28.3915,141.514 28.5,139.5C 28.8333,139.5 29.1667,139.5 29.5,139.5C 30.9198,140.866 32.4198,142.2 34,143.5C 35.2613,143.241 36.2613,142.574 37,141.5C 37.0605,138.119 38.2272,135.286 40.5,133C 40.0542,129.65 39.3875,126.483 38.5,123.5C 38.5,122.167 38.5,120.833 38.5,119.5 Z"/></g>
<g><path style="opacity:1" fill="#304f3d" d="M 38.5,119.5 C 38.5,120.833 38.5,122.167 38.5,123.5C 37.8333,122.5 37.1667,121.5 36.5,120.5C 34.8828,119.962 33.2161,119.629 31.5,119.5C 29.0689,120.607 28.0689,122.607 28.5,125.5C 29.2308,130.141 29.5641,134.807 29.5,139.5C 29.1667,139.5 28.8333,139.5 28.5,139.5C 26.6353,133.412 25.9686,127.078 26.5,120.5C 28.4645,119.218 30.4645,117.885 32.5,116.5C 34.4268,117.862 36.4268,118.862 38.5,119.5 Z"/></g>
<g><path style="opacity:1" fill="#507a63" d="M 46.5,115.5 C 46.8333,115.5 47.1667,115.5 47.5,115.5C 47.5,116.5 47.5,117.5 47.5,118.5C 47.1568,120.483 47.8235,121.817 49.5,122.5C 49.3342,127.179 49.5008,131.845 50,136.5C 52.2379,138.309 53.4046,140.642 53.5,143.5C 54.5,143.5 55.5,143.5 56.5,143.5C 55.4324,144.434 54.099,144.768 52.5,144.5C 52.817,141.466 51.817,140.466 49.5,141.5C 49.1667,141.5 48.8333,141.5 48.5,141.5C 47.5027,132.865 46.836,124.198 46.5,115.5 Z"/></g>
<g><path style="opacity:1" fill="#468365" d="M 31.5,119.5 C 30.6433,121.403 29.9766,123.403 29.5,125.5C 31.7371,129.838 32.9038,134.505 33,139.5C 34,140.833 35,140.833 36,139.5C 36.2963,136.294 36.7963,133.128 37.5,130C 36.6328,126.895 36.2994,123.728 36.5,120.5C 37.1667,121.5 37.8333,122.5 38.5,123.5C 39.3875,126.483 40.0542,129.65 40.5,133C 38.2272,135.286 37.0605,138.119 37,141.5C 36.2613,142.574 35.2613,143.241 34,143.5C 32.4198,142.2 30.9198,140.866 29.5,139.5C 29.5641,134.807 29.2308,130.141 28.5,125.5C 28.0689,122.607 29.0689,120.607 31.5,119.5 Z"/></g>
<g><path style="opacity:1" fill="#42a778" d="M 31.5,119.5 C 33.2161,119.629 34.8828,119.962 36.5,120.5C 36.2994,123.728 36.6328,126.895 37.5,130C 36.7963,133.128 36.2963,136.294 36,139.5C 35,140.833 34,140.833 33,139.5C 32.9038,134.505 31.7371,129.838 29.5,125.5C 29.9766,123.403 30.6433,121.403 31.5,119.5 Z"/></g>
<g><path style="opacity:1" fill="#4c9e76" d="M 55.5,120.5 C 55.5,121.167 55.5,121.833 55.5,122.5C 56.3046,128.002 56.9712,133.669 57.5,139.5C 57.3767,140.925 57.0434,142.258 56.5,143.5C 55.5,143.5 54.5,143.5 53.5,143.5C 53.4046,140.642 52.2379,138.309 50,136.5C 49.5008,131.845 49.3342,127.179 49.5,122.5C 49.4142,121.504 49.7476,120.671 50.5,120C 52.3869,119.22 54.0536,119.387 55.5,120.5 Z"/></g>
<g><path style="opacity:1" fill="#3aaa74" d="M 55.5,122.5 C 55.9457,128.021 55.4457,133.355 54,138.5C 50.7252,133.746 49.7252,128.412 51,122.5C 52.4139,121.587 53.9139,121.587 55.5,122.5 Z"/></g>
<g><path style="opacity:1" fill="#eef0ee" d="M 46.5,115.5 C 46.836,124.198 47.5027,132.865 48.5,141.5C 47.0335,138.742 46.3668,139.075 46.5,142.5C 44.3792,142.325 42.3792,142.659 40.5,143.5C 40.5,143.167 40.5,142.833 40.5,142.5C 40.9321,141.29 41.5987,140.29 42.5,139.5C 43.8333,131.5 45.1667,123.5 46.5,115.5 Z"/></g>
<g><path style="opacity:1" fill="#30533c" d="M 55.5,120.5 C 56.791,120.263 57.791,120.596 58.5,121.5C 57.8401,122.964 57.5068,124.631 57.5,126.5C 59.3268,132.103 59.9935,137.77 59.5,143.5C 58.8333,143.5 58.5,143.833 58.5,144.5C 55.9455,145.388 53.2788,145.721 50.5,145.5C 50.5674,144.041 50.2341,142.708 49.5,141.5C 51.817,140.466 52.817,141.466 52.5,144.5C 54.099,144.768 55.4324,144.434 56.5,143.5C 57.0434,142.258 57.3767,140.925 57.5,139.5C 56.9712,133.669 56.3046,128.002 55.5,122.5C 55.5,121.833 55.5,121.167 55.5,120.5 Z"/></g>
<g><path style="opacity:1" fill="#628072" d="M 58.5,121.5 C 60.1601,127.908 60.9934,134.575 61,141.5C 62.0192,139.498 62.8525,137.498 63.5,135.5C 64.4285,139.483 63.0951,142.15 59.5,143.5C 59.9935,137.77 59.3268,132.103 57.5,126.5C 57.5068,124.631 57.8401,122.964 58.5,121.5 Z"/></g>
<g><path style="opacity:1" fill="#dbd8c0" d="M 48.5,141.5 C 48.8333,141.5 49.1667,141.5 49.5,141.5C 50.2341,142.708 50.5674,144.041 50.5,145.5C 49.9329,147.969 49.9329,150.302 50.5,152.5C 48.7354,153.461 46.7354,153.795 44.5,153.5C 44.5,153.167 44.5,152.833 44.5,152.5C 49.9796,150.053 49.6463,148.053 43.5,146.5C 41.8653,147.046 40.1986,147.38 38.5,147.5C 38.1568,145.517 38.8235,144.183 40.5,143.5C 42.3792,142.659 44.3792,142.325 46.5,142.5C 46.3668,139.075 47.0335,138.742 48.5,141.5 Z"/></g>
<g><path style="opacity:1" fill="#c35259" d="M 30.5,144.5 C 30.8333,144.5 31.1667,144.5 31.5,144.5C 32.5676,145.434 33.901,145.768 35.5,145.5C 35.8076,147.924 35.4742,150.257 34.5,152.5C 32.2406,152.784 30.5739,153.784 29.5,155.5C 27.6336,156.014 25.8003,156.68 24,157.5C 22.9701,157.164 22.4701,156.497 22.5,155.5C 22.5,155.167 22.5,154.833 22.5,154.5C 24.845,152.486 26.845,150.153 28.5,147.5C 29.1667,146.5 29.8333,145.5 30.5,144.5 Z"/></g>
<g><path style="opacity:1" fill="#acc0b3" d="M 67.5,146.5 C 69.4459,147.254 70.2793,148.588 70,150.5C 69,149.833 68,149.167 67,148.5C 66.7645,150.119 65.9311,151.119 64.5,151.5C 64.5,151.167 64.5,150.833 64.5,150.5C 65.7736,149.811 65.7736,148.977 64.5,148C 65.7375,147.768 66.7375,147.268 67.5,146.5 Z"/></g>
<g><path style="opacity:1" fill="#b1a18a" d="M 22.5,143.5 C 22.56,142.957 22.8933,142.624 23.5,142.5C 24.1667,144.5 24.8333,146.5 25.5,148.5C 26.4168,147.873 27.4168,147.539 28.5,147.5C 26.845,150.153 24.845,152.486 22.5,154.5C 22.5,154.167 22.5,153.833 22.5,153.5C 21.264,150.116 21.264,146.783 22.5,143.5 Z"/></g>
<g><path style="opacity:1" fill="#ee454c" d="M 31.5,147.5 C 33.3442,148.204 33.8442,149.537 33,151.5C 31.6124,152.554 30.1124,152.72 28.5,152C 29.3862,150.385 30.3862,148.885 31.5,147.5 Z"/></g>
<g><path style="opacity:1" fill="#e2e372" d="M 44.5,152.5 C 42.742,152.877 41.0754,153.544 39.5,154.5C 38.5258,152.257 38.1924,149.924 38.5,147.5C 40.1986,147.38 41.8653,147.046 43.5,146.5C 49.6463,148.053 49.9796,150.053 44.5,152.5 Z"/></g>
<g><path style="opacity:1" fill="#76784f" d="M 40.5,142.5 C 40.5,142.833 40.5,143.167 40.5,143.5C 38.8235,144.183 38.1568,145.517 38.5,147.5C 38.1924,149.924 38.5258,152.257 39.5,154.5C 41.0754,153.544 42.742,152.877 44.5,152.5C 44.5,152.833 44.5,153.167 44.5,153.5C 43.6618,153.842 43.3284,154.508 43.5,155.5C 41.1667,155.5 38.8333,155.5 36.5,155.5C 37.4299,151.6 37.7633,147.6 37.5,143.5C 38.209,142.596 39.209,142.263 40.5,142.5 Z"/></g>
<g><path style="opacity:1" fill="#477c5d" d="M 22.5,143.5 C 21.264,146.783 21.264,150.116 22.5,153.5C 21.8333,153.833 21.1667,154.167 20.5,154.5C 18.139,154.326 15.8056,153.993 13.5,153.5C 13.8346,152.336 13.8346,151.003 13.5,149.5C 14.4189,146.477 16.0856,143.81 18.5,141.5C 19.2807,142.737 20.2807,143.737 21.5,144.5C 22.1067,144.376 22.44,144.043 22.5,143.5 Z"/></g>
<g><path style="opacity:1" fill="#497e60" d="M 80.5,153.5 C 75.9296,152.559 71.263,152.226 66.5,152.5C 65.5084,152.672 64.8417,152.338 64.5,151.5C 65.9311,151.119 66.7645,150.119 67,148.5C 68,149.167 69,149.833 70,150.5C 70.2793,148.588 69.4459,147.254 67.5,146.5C 64.7417,145.033 65.075,144.367 68.5,144.5C 68.3505,143.448 68.5172,142.448 69,141.5C 70.0152,144.21 71.5152,146.543 73.5,148.5C 74.6721,148.081 75.6721,147.415 76.5,146.5C 75.3595,145.575 75.3595,144.741 76.5,144C 77.635,143.251 78.635,143.417 79.5,144.5C 81.4745,146.545 81.4745,148.212 79.5,149.5C 80.2458,150.736 80.5792,152.07 80.5,153.5 Z"/></g>
<g><path style="opacity:1" fill="#6e9380" d="M 85.5,160.5 C 84.1667,160.5 83.5,159.833 83.5,158.5C 83.5,157.833 83.5,157.167 83.5,156.5C 83.1898,154.856 82.1898,153.856 80.5,153.5C 80.5792,152.07 80.2458,150.736 79.5,149.5C 81.4745,148.212 81.4745,146.545 79.5,144.5C 78.635,143.417 77.635,143.251 76.5,144C 75.3595,144.741 75.3595,145.575 76.5,146.5C 75.6721,147.415 74.6721,148.081 73.5,148.5C 71.5152,146.543 70.0152,144.21 69,141.5C 68.5172,142.448 68.3505,143.448 68.5,144.5C 65.075,144.367 64.7417,145.033 67.5,146.5C 66.5,146.5 65.5,146.5 64.5,146.5C 64.5,145.5 64.5,144.5 64.5,143.5C 65.5,143.5 66.5,143.5 67.5,143.5C 67.5,142.5 67.5,141.5 67.5,140.5C 68.552,140.351 69.552,140.517 70.5,141C 71.3041,142.771 72.4708,144.271 74,145.5C 74.9143,143.336 76.081,141.336 77.5,139.5C 78.5237,140.853 79.857,141.52 81.5,141.5C 82.7829,146.768 84.4495,151.935 86.5,157C 86.0109,158.138 85.6775,159.305 85.5,160.5 Z"/></g>
<g><path style="opacity:1" fill="#4a271c" d="M 37.5,143.5 C 37.7633,147.6 37.4299,151.6 36.5,155.5C 35.5,155.5 34.5,155.5 33.5,155.5C 32.1667,155.5 30.8333,155.5 29.5,155.5C 30.5739,153.784 32.2406,152.784 34.5,152.5C 35.4742,150.257 35.8076,147.924 35.5,145.5C 33.901,145.768 32.5676,145.434 31.5,144.5C 33.6208,144.675 35.6208,144.341 37.5,143.5 Z"/></g>
<g><path style="opacity:1" fill="#223b1f" d="M 50.5,152.5 C 51.5,153.167 52.5,153.833 53.5,154.5C 50.3752,155.479 47.0419,155.813 43.5,155.5C 43.3284,154.508 43.6618,153.842 44.5,153.5C 46.7354,153.795 48.7354,153.461 50.5,152.5 Z"/></g>
<g><path style="opacity:1" fill="#5e362f" d="M 58.5,144.5 C 59.622,147.438 61.622,149.438 64.5,150.5C 64.5,150.833 64.5,151.167 64.5,151.5C 64.8417,152.338 65.5084,152.672 66.5,152.5C 67.3065,153.728 68.3065,154.728 69.5,155.5C 68.6618,155.842 68.3284,156.508 68.5,157.5C 65.4816,157.665 62.4816,157.498 59.5,157C 58.3474,155.117 56.6807,154.284 54.5,154.5C 54.1667,154.5 53.8333,154.5 53.5,154.5C 52.5,153.833 51.5,153.167 50.5,152.5C 49.9329,150.302 49.9329,147.969 50.5,145.5C 53.2788,145.721 55.9455,145.388 58.5,144.5 Z"/></g>
<g><path style="opacity:1" fill="#c6565e" d="M 51.5,146.5 C 53.5273,146.338 55.5273,146.505 57.5,147C 59.9796,150.539 62.9796,153.373 66.5,155.5C 66,155.833 65.5,156.167 65,156.5C 61.1086,154.307 56.9419,152.807 52.5,152C 51.5939,150.301 51.2606,148.467 51.5,146.5 Z"/></g>
<g><path style="opacity:1" fill="#154223" d="M 66.5,152.5 C 71.263,152.226 75.9296,152.559 80.5,153.5C 82.1898,153.856 83.1898,154.856 83.5,156.5C 79.0564,154.198 74.3898,153.865 69.5,155.5C 68.3065,154.728 67.3065,153.728 66.5,152.5 Z"/></g>
<g><path style="opacity:1" fill="#659d7c" d="M 83.5,156.5 C 83.5,157.167 83.5,157.833 83.5,158.5C 81.283,159.369 78.9496,159.702 76.5,159.5C 73.3019,160.036 70.6353,159.369 68.5,157.5C 68.3284,156.508 68.6618,155.842 69.5,155.5C 74.3898,153.865 79.0564,154.198 83.5,156.5 Z"/></g>
<g><path style="opacity:1" fill="#577767" d="M 13.5,149.5 C 13.8346,151.003 13.8346,152.336 13.5,153.5C 13.3837,158.385 15.717,160.385 20.5,159.5C 20.5,157.833 20.5,156.167 20.5,154.5C 21.1667,154.167 21.8333,153.833 22.5,153.5C 22.5,153.833 22.5,154.167 22.5,154.5C 22.5,154.833 22.5,155.167 22.5,155.5C 21.5655,156.568 21.2322,157.901 21.5,159.5C 24.8515,159.47 27.5182,158.137 29.5,155.5C 30.8333,155.5 32.1667,155.5 33.5,155.5C 32.5169,156.85 31.1836,157.85 29.5,158.5C 36.4763,159.664 43.4763,159.831 50.5,159C 53.1059,158.55 54.4392,157.05 54.5,154.5C 56.6807,154.284 58.3474,155.117 59.5,157C 62.4816,157.498 65.4816,157.665 68.5,157.5C 70.6353,159.369 73.3019,160.036 76.5,159.5C 65.5,160.167 54.5,160.833 43.5,161.5C 34.1607,161.666 24.8274,161.5 15.5,161C 14.5,160.5 13.5,160 12.5,159.5C 11.7604,156.164 11.0938,152.83 10.5,149.5C 11.4246,148.438 12.4246,148.438 13.5,149.5 Z"/></g>
<g><path style="opacity:1" fill="#4e3e33" d="M 22.5,155.5 C 22.4701,156.497 22.9701,157.164 24,157.5C 25.8003,156.68 27.6336,156.014 29.5,155.5C 27.5182,158.137 24.8515,159.47 21.5,159.5C 21.2322,157.901 21.5655,156.568 22.5,155.5 Z"/></g>
<g><path style="opacity:1" fill="#509270" d="M 53.5,154.5 C 53.8333,154.5 54.1667,154.5 54.5,154.5C 54.4392,157.05 53.1059,158.55 50.5,159C 43.4763,159.831 36.4763,159.664 29.5,158.5C 31.1836,157.85 32.5169,156.85 33.5,155.5C 34.5,155.5 35.5,155.5 36.5,155.5C 38.8333,155.5 41.1667,155.5 43.5,155.5C 47.0419,155.813 50.3752,155.479 53.5,154.5 Z"/></g>
<g><path style="opacity:1" fill="#4da680" d="M 13.5,153.5 C 15.8056,153.993 18.139,154.326 20.5,154.5C 20.5,156.167 20.5,157.833 20.5,159.5C 15.717,160.385 13.3837,158.385 13.5,153.5 Z"/></g>
<g><path style="opacity:1" fill="#a0b8af" d="M 83.5,158.5 C 83.5,159.833 84.1667,160.5 85.5,160.5C 85.1583,161.338 84.4916,161.672 83.5,161.5C 70.1667,161.5 56.8333,161.5 43.5,161.5C 54.5,160.833 65.5,160.167 76.5,159.5C 78.9496,159.702 81.283,159.369 83.5,158.5 Z"/></g>
</svg>
