<?xml version="1.0" encoding="UTF-8"?>
<!DOCTYPE svg PUBLIC "-//W3C//DTD SVG 1.1//EN" "http://www.w3.org/Graphics/SVG/1.1/DTD/svg11.dtd">
<svg xmlns="http://www.w3.org/2000/svg" version="1.1" width="100px" height="165px" style="shape-rendering:geometricPrecision; text-rendering:geometricPrecision; image-rendering:optimizeQuality; fill-rule:evenodd; clip-rule:evenodd" xmlns:xlink="http://www.w3.org/1999/xlink">
<g><path style="opacity:1" fill="#1c2a34" d="M 18.5,6.5 C 18.5,6.83333 18.5,7.16667 18.5,7.5C 19.3242,10.7644 19.6576,14.0977 19.5,17.5C 18.8922,27.8676 17.8922,38.201 16.5,48.5C 17.5916,35.0052 17.5916,21.6719 16.5,8.5C 16.5,7.16667 17.1667,6.5 18.5,6.5 Z"/></g>
<g><path style="opacity:1" fill="#5387a0" d="M 18.5,6.5 C 17.1667,6.5 16.5,7.16667 16.5,8.5C 16.5,11.1667 16.5,13.8333 16.5,16.5C 14.5247,26.4459 13.8581,36.7792 14.5,47.5C 13.8333,47.5 13.1667,47.5 12.5,47.5C 12.4291,34.4866 12.7624,21.4866 13.5,8.5C 14.6594,7.54417 15.8261,6.54417 17,5.5C 17.7648,5.56993 18.2648,5.90326 18.5,6.5 Z"/></g>
<g><path style="opacity:1" fill="#61a6c8" d="M 16.5,16.5 C 15.5462,27.1152 15.2129,37.7819 15.5,48.5C 14.8333,48.5 14.5,48.1667 14.5,47.5C 13.8581,36.7792 14.5247,26.4459 16.5,16.5 Z"/></g>
<g><path style="opacity:1" fill="#181418" d="M 19.5,17.5 C 19.6458,28.1875 19.3125,38.8541 18.5,49.5C 17.209,49.7373 16.209,49.404 15.5,48.5C 15.8333,48.5 16.1667,48.5 16.5,48.5C 17.8922,38.201 18.8922,27.8676 19.5,17.5 Z"/></g>
<g><path style="opacity:1" fill="#295d77" d="M 16.5,8.5 C 17.5916,21.6719 17.5916,35.0052 16.5,48.5C 16.1667,48.5 15.8333,48.5 15.5,48.5C 15.2129,37.7819 15.5462,27.1152 16.5,16.5C 16.5,13.8333 16.5,11.1667 16.5,8.5 Z"/></g>
<g><path style="opacity:1" fill="#838380" d="M 18.5,7.5 C 19.1174,7.61071 19.6174,7.94404 20,8.5C 20.7373,21.8548 20.5707,35.1881 19.5,48.5C 19.5,49.1667 19.1667,49.5 18.5,49.5C 19.3125,38.8541 19.6458,28.1875 19.5,17.5C 19.6576,14.0977 19.3242,10.7644 18.5,7.5 Z"/></g>
<g><path style="opacity:1" fill="#d45358" d="M 38.5,44.5 C 40.2838,44.8925 41.9505,45.5592 43.5,46.5C 43.5,46.8333 43.5,47.1667 43.5,47.5C 43.5,48.1667 43.5,48.8333 43.5,49.5C 42.5138,53.9973 41.6804,58.664 41,63.5C 40.8019,61.6183 40.3019,59.9516 39.5,58.5C 37.9493,53.5855 37.116,48.5855 37,43.5C 37.3826,44.056 37.8826,44.3893 38.5,44.5 Z"/></g>
<g><path style="opacity:1" fill="#ded79f" d="M 19.5,54.5 C 19.2976,53.6364 18.9643,52.6364 18.5,51.5C 17.2613,51.9424 16.2613,52.6091 15.5,53.5C 14.5255,52.365 13.3588,51.365 12,50.5C 11.3828,51.4491 11.5494,52.2825 12.5,53C 11.552,53.4828 10.552,53.6495 9.5,53.5C 9.08467,51.0523 10.0847,49.7189 12.5,49.5C 15.8058,50.1633 19.1392,50.6633 22.5,51C 21.1667,52 21.1667,53 22.5,54C 21.552,54.4828 20.552,54.6495 19.5,54.5 Z"/></g>
<g><path style="opacity:1" fill="#4e8f70" d="M 34.5,43.5 C 36.0017,47.3425 36.6684,51.3425 36.5,55.5C 35.9935,56.8589 34.9935,57.8589 33.5,58.5C 36.3685,61.9617 35.7019,62.9617 31.5,61.5C 30.1266,61.6567 28.7932,61.49 27.5,61C 28.985,59.2435 28.6516,58.0768 26.5,57.5C 28.5985,53.6354 30.4318,49.6354 32,45.5C 32.7083,44.6195 33.5416,43.9528 34.5,43.5 Z"/></g>
<g><path style="opacity:1" fill="#bc7f66" d="M 43.5,47.5 C 44.4816,50.9619 44.815,54.6286 44.5,58.5C 44.5,59.1667 44.5,59.8333 44.5,60.5C 43.6909,62.2922 43.1909,64.2922 43,66.5C 42.5357,65.9056 42.369,65.2389 42.5,64.5C 43.0534,59.518 43.3867,54.518 43.5,49.5C 43.5,48.8333 43.5,48.1667 43.5,47.5 Z"/></g>
<g><path style="opacity:1" fill="#9a7f6f" d="M 15.5,53.5 C 16.5305,54.5523 17.1971,55.8857 17.5,57.5C 16.4745,60.0398 16.4745,62.5398 17.5,65C 17.0245,66.7633 16.3578,68.43 15.5,70C 16.3317,70.6877 16.9984,70.521 17.5,69.5C 18.0276,67.6639 18.6942,65.9972 19.5,64.5C 20.1667,67.1667 21.8333,68.8333 24.5,69.5C 24.5,69.8333 24.5,70.1667 24.5,70.5C 23.5084,70.3284 22.8417,70.6618 22.5,71.5C 21.609,70.8902 20.609,70.5569 19.5,70.5C 19.5654,70.0618 19.3988,69.7284 19,69.5C 17.5993,71.1922 15.7659,71.8588 13.5,71.5C 13.2947,65.1439 11.9613,59.1439 9.5,53.5C 10.552,53.6495 11.552,53.4828 12.5,53C 11.5494,52.2825 11.3828,51.4491 12,50.5C 13.3588,51.365 14.5255,52.365 15.5,53.5 Z"/></g>
<g><path style="opacity:1" fill="#a99e7f" d="M 12.5,47.5 C 13.1667,47.5 13.8333,47.5 14.5,47.5C 14.5,48.1667 14.8333,48.5 15.5,48.5C 16.209,49.404 17.209,49.7373 18.5,49.5C 19.1667,49.5 19.5,49.1667 19.5,48.5C 20.8221,48.33 21.9887,48.6634 23,49.5C 23.6595,52.0472 23.4929,54.5472 22.5,57C 22.7074,58.9497 23.7074,60.1164 25.5,60.5C 25.5,60.8333 25.5,61.1667 25.5,61.5C 24.5084,61.3284 23.8417,61.6618 23.5,62.5C 22.2502,62.4226 21.4169,61.756 21,60.5C 20.7679,61.7375 20.2679,62.7375 19.5,63.5C 19.5,60.5 19.5,57.5 19.5,54.5C 20.552,54.6495 21.552,54.4828 22.5,54C 21.1667,53 21.1667,52 22.5,51C 19.1392,50.6633 15.8058,50.1633 12.5,49.5C 10.0847,49.7189 9.08467,51.0523 9.5,53.5C 7.7274,52.6857 7.2274,51.3524 8,49.5C 9.47049,48.7334 10.9705,48.0668 12.5,47.5 Z"/></g>
<g><path style="opacity:1" fill="#4f4a3b" d="M 49.5,48.5 C 50.4511,49.9187 50.7845,51.5853 50.5,53.5C 50.0199,58.8221 49.6865,64.1554 49.5,69.5C 48.1667,69.5 47.5,68.8333 47.5,67.5C 48.1942,62.1951 48.5276,56.8617 48.5,51.5C 48.2627,50.209 48.596,49.209 49.5,48.5 Z"/></g>
<g><path style="opacity:1" fill="#4d705c" d="M 78.5,43.5 C 79.6737,44.5137 80.3404,45.847 80.5,47.5C 79.4936,48.9792 79.4936,50.6459 80.5,52.5C 81.211,54.5446 82.5443,55.8779 84.5,56.5C 85.1667,56.5 85.5,56.8333 85.5,57.5C 83.227,58.2711 82.8937,59.6044 84.5,61.5C 84.2528,62.7133 83.5862,63.38 82.5,63.5C 81.5,63.5 80.5,63.5 79.5,63.5C 78.8333,63.5 78.1667,63.5 77.5,63.5C 73.8867,64.3803 72.5533,66.3803 73.5,69.5C 73.5,69.8333 73.5,70.1667 73.5,70.5C 71.2188,70.9227 69.5521,70.256 68.5,68.5C 69.2479,65.8298 70.2479,63.1631 71.5,60.5C 72.1667,60.5 72.5,60.1667 72.5,59.5C 74.1992,59.3398 75.8659,59.5065 77.5,60C 76.6919,60.3076 76.0253,60.8076 75.5,61.5C 77.7649,62.6474 80.0982,62.8141 82.5,62C 81.6634,60.9887 81.33,59.8221 81.5,58.5C 81.573,56.9731 80.9063,55.9731 79.5,55.5C 79.1405,51.6071 78.1405,47.9405 76.5,44.5C 76.9569,43.7025 77.6236,43.3691 78.5,43.5 Z"/></g>
<g><path style="opacity:1" fill="#fafbfb" d="M -0.5,-0.5 C 4.16667,-0.5 8.83333,-0.5 13.5,-0.5C 13.9175,0.221579 14.5842,0.721579 15.5,1C 12.8552,3.08445 12.1885,5.58445 13.5,8.5C 12.7624,21.4866 12.4291,34.4866 12.5,47.5C 10.9705,48.0668 9.47049,48.7334 8,49.5C 7.2274,51.3524 7.7274,52.6857 9.5,53.5C 11.9613,59.1439 13.2947,65.1439 13.5,71.5C 15.7659,71.8588 17.5993,71.1922 19,69.5C 19.3988,69.7284 19.5654,70.0618 19.5,70.5C 18.5888,79.1258 18.2555,87.7925 18.5,96.5C 17.4929,100.779 18.8263,103.779 22.5,105.5C 22.7352,106.097 23.2352,106.43 24,106.5C 25.7309,105.259 27.5642,104.259 29.5,103.5C 29.8417,104.338 30.5084,104.672 31.5,104.5C 32.6354,106.213 34.302,106.88 36.5,106.5C 36.3677,109.57 36.701,112.57 37.5,115.5C 39.59,120.277 40.9234,125.277 41.5,130.5C 42.3186,132.772 42.9853,135.106 43.5,137.5C 40.1155,138.244 39.7822,139.577 42.5,141.5C 45.1752,143.846 44.8419,145.846 41.5,147.5C 37.4432,147.152 33.4432,146.486 29.5,145.5C 27.3718,144.371 25.0385,144.204 22.5,145C 18.8019,146.193 15.4686,147.693 12.5,149.5C 11.5084,149.328 10.8417,149.662 10.5,150.5C 10.1667,150.5 9.83333,150.5 9.5,150.5C 8.52216,150.811 7.85549,151.478 7.5,152.5C 8.72405,154.839 8.72405,157.172 7.5,159.5C 4.70546,160.561 3.37213,159.394 3.5,156C 4.16667,153 4.83333,150 5.5,147C 5.54631,145.272 5.04631,143.772 4,142.5C 3.50006,124.17 3.33339,105.836 3.5,87.5C 2.5,87.5 1.5,87.5 0.5,87.5C 0.767809,89.099 0.434475,90.4324 -0.5,91.5C -0.5,60.8333 -0.5,30.1667 -0.5,-0.5 Z"/></g>
<g><path style="opacity:1" fill="#449e79" d="M 76.5,40.5 C 77.4013,41.2905 78.0679,42.2905 78.5,43.5C 77.6236,43.3691 76.9569,43.7025 76.5,44.5C 78.1405,47.9405 79.1405,51.6071 79.5,55.5C 78.6236,55.3691 77.9569,55.7025 77.5,56.5C 78.5769,57.7051 79.9102,58.3718 81.5,58.5C 81.33,59.8221 81.6634,60.9887 82.5,62C 80.0982,62.8141 77.7649,62.6474 75.5,61.5C 76.0253,60.8076 76.6919,60.3076 77.5,60C 75.8659,59.5065 74.1992,59.3398 72.5,59.5C 71.5224,56.8686 70.5224,54.2019 69.5,51.5C 69.5995,47.1736 71.0995,43.5069 74,40.5C 75.3919,42.8418 76.2252,42.8418 76.5,40.5 Z"/></g>
<g><path style="opacity:1" fill="#203828" d="M 36.5,55.5 C 37.4731,57.9479 37.8064,60.6146 37.5,63.5C 36.7713,67.5993 36.438,71.5993 36.5,75.5C 35.8333,77.5 35.1667,79.5 34.5,81.5C 34.1667,81.5 33.8333,81.5 33.5,81.5C 34.9563,75.6057 35.623,69.6057 35.5,63.5C 33.5168,63.8432 32.1834,63.1765 31.5,61.5C 35.7019,62.9617 36.3685,61.9617 33.5,58.5C 34.9935,57.8589 35.9935,56.8589 36.5,55.5 Z"/></g>
<g><path style="opacity:1" fill="#261f1b" d="M 68.5,54.5 C 69.2277,57.2675 70.2277,59.2675 71.5,60.5C 70.2479,63.1631 69.2479,65.8298 68.5,68.5C 68.5,67.8333 68.1667,67.5 67.5,67.5C 67.5,67.1667 67.5,66.8333 67.5,66.5C 68.0209,62.5191 68.3542,58.5191 68.5,54.5 Z"/></g>
<g><path style="opacity:1" fill="#af7566" d="M 63.5,45.5 C 63.1961,46.1499 62.8627,46.8165 62.5,47.5C 60.2188,48.2766 58.0521,49.2766 56,50.5C 55.7685,54.5548 55.2685,58.5548 54.5,62.5C 54.8655,63.9019 55.6988,64.9019 57,65.5C 60.4779,66.3294 63.9779,66.9961 67.5,67.5C 68.1667,67.5 68.5,67.8333 68.5,68.5C 67.5,68.5 66.5,68.5 65.5,68.5C 65.5,70.1667 65.5,71.8333 65.5,73.5C 64.0322,72.1943 62.6988,70.6943 61.5,69C 54.7428,68.8104 52.0761,65.3104 53.5,58.5C 53.2981,54.6068 53.9647,50.9402 55.5,47.5C 58.1667,46.8333 60.8333,46.1667 63.5,45.5 Z"/></g>
<g><path style="opacity:1" fill="#78393e" d="M 69.5,43.5 C 69.2756,47.1788 68.9422,50.8455 68.5,54.5C 68.3542,58.5191 68.0209,62.5191 67.5,66.5C 66.6045,60.0438 66.6045,53.3771 67.5,46.5C 66.209,46.7373 65.209,46.404 64.5,45.5C 65.5521,43.744 67.2188,43.0773 69.5,43.5 Z"/></g>
<g><path style="opacity:1" fill="#58846f" d="M 26.5,57.5 C 28.6516,58.0768 28.985,59.2435 27.5,61C 28.7932,61.49 30.1266,61.6567 31.5,61.5C 32.1834,63.1765 33.5168,63.8432 35.5,63.5C 35.623,69.6057 34.9563,75.6057 33.5,81.5C 32.596,82.209 32.2627,83.209 32.5,84.5C 31.596,83.791 31.2627,82.791 31.5,81.5C 31.366,79.7085 31.6993,78.0418 32.5,76.5C 32.8836,72.5115 32.217,68.8448 30.5,65.5C 29.8333,65.5 29.5,65.1667 29.5,64.5C 27.9236,63.8571 26.5903,62.8571 25.5,61.5C 25.5,61.1667 25.5,60.8333 25.5,60.5C 25.5569,59.391 25.8902,58.391 26.5,57.5 Z"/></g>
<g><path style="opacity:1" fill="#593832" d="M 37.5,39.5 C 37.4921,41.0502 37.8254,42.7168 38.5,44.5C 37.8826,44.3893 37.3826,44.056 37,43.5C 37.116,48.5855 37.9493,53.5855 39.5,58.5C 39.5,60.8333 39.5,63.1667 39.5,65.5C 39.5,66.5 39.5,67.5 39.5,68.5C 38.8333,66.8333 38.1667,65.1667 37.5,63.5C 37.8064,60.6146 37.4731,57.9479 36.5,55.5C 36.6684,51.3425 36.0017,47.3425 34.5,43.5C 35.5,42.1667 36.5,40.8333 37.5,39.5 Z"/></g>
<g><path style="opacity:1" fill="#724a31" d="M 19.5,54.5 C 19.5,57.5 19.5,60.5 19.5,63.5C 19.5,63.8333 19.5,64.1667 19.5,64.5C 18.6942,65.9972 18.0276,67.6639 17.5,69.5C 16.9984,70.521 16.3317,70.6877 15.5,70C 16.3578,68.43 17.0245,66.7633 17.5,65C 16.4745,62.5398 16.4745,60.0398 17.5,57.5C 17.1971,55.8857 16.5305,54.5523 15.5,53.5C 16.2613,52.6091 17.2613,51.9424 18.5,51.5C 18.9643,52.6364 19.2976,53.6364 19.5,54.5 Z"/></g>
<g><path style="opacity:1" fill="#4e4338" d="M 25.5,61.5 C 26.5903,62.8571 27.9236,63.8571 29.5,64.5C 28.5,64.5 27.5,64.5 26.5,64.5C 24.9731,64.573 23.9731,63.9063 23.5,62.5C 23.8417,61.6618 24.5084,61.3284 25.5,61.5 Z"/></g>
<g><path style="opacity:1" fill="#9a443d" d="M 43.5,49.5 C 43.3867,54.518 43.0534,59.518 42.5,64.5C 41.391,64.5569 40.391,64.8902 39.5,65.5C 39.5,63.1667 39.5,60.8333 39.5,58.5C 40.3019,59.9516 40.8019,61.6183 41,63.5C 41.6804,58.664 42.5138,53.9973 43.5,49.5 Z"/></g>
<g><path style="opacity:1" fill="#b94a4b" d="M 63.5,45.5 C 63.8333,45.5 64.1667,45.5 64.5,45.5C 65.209,46.404 66.209,46.7373 67.5,46.5C 66.6045,53.3771 66.6045,60.0438 67.5,66.5C 67.5,66.8333 67.5,67.1667 67.5,67.5C 63.9779,66.9961 60.4779,66.3294 57,65.5C 55.6988,64.9019 54.8655,63.9019 54.5,62.5C 55.2685,58.5548 55.7685,54.5548 56,50.5C 58.0521,49.2766 60.2188,48.2766 62.5,47.5C 62.8627,46.8165 63.1961,46.1499 63.5,45.5 Z"/></g>
<g><path style="opacity:1" fill="#ea4852" d="M 61.5,49.5 C 62.8333,49.5 64.1667,49.5 65.5,49.5C 65.1434,53.5929 65.1434,57.5929 65.5,61.5C 63.2906,64.5657 60.4572,65.2323 57,63.5C 56.2334,59.4425 56.4001,55.4425 57.5,51.5C 58.9492,50.8281 60.2825,50.1614 61.5,49.5 Z"/></g>
<g><path style="opacity:1" fill="#a7a08e" d="M 49.5,69.5 C 49.6865,64.1554 50.0199,58.8221 50.5,53.5C 51.29,52.3915 51.79,51.0581 52,49.5C 52.1667,51.1667 52.3333,52.8333 52.5,54.5C 52.4795,59.9621 51.4795,64.9621 49.5,69.5 Z"/></g>
<g><path style="opacity:1" fill="#445449" d="M 85.5,57.5 C 86.404,58.209 86.7373,59.209 86.5,60.5C 85.233,63.2165 85.5663,65.8832 87.5,68.5C 86.8333,72.1667 86.1667,75.8333 85.5,79.5C 85.5,78.1667 85.5,76.8333 85.5,75.5C 86.1143,70.9576 85.1143,66.9576 82.5,63.5C 83.5862,63.38 84.2528,62.7133 84.5,61.5C 82.8937,59.6044 83.227,58.2711 85.5,57.5 Z"/></g>
<g><path style="opacity:1" fill="#b1ac88" d="M 47.5,49.5 C 47.3284,50.4916 47.6618,51.1583 48.5,51.5C 48.5276,56.8617 48.1942,62.1951 47.5,67.5C 46.1982,68.3567 44.8649,68.8567 43.5,69C 44.2181,66.5393 44.8847,64.0393 45.5,61.5C 45.3764,60.8933 45.0431,60.56 44.5,60.5C 44.5,59.8333 44.5,59.1667 44.5,58.5C 45.1031,56.8103 46.1031,55.3103 47.5,54C 45.2263,52.6446 45.2263,51.1446 47.5,49.5 Z"/></g>
<g><path style="opacity:1" fill="#172721" d="M 86.5,60.5 C 87.9063,60.9731 88.573,61.9731 88.5,63.5C 88.821,64.8175 89.1543,66.1508 89.5,67.5C 89.2528,68.7133 88.5862,69.38 87.5,69.5C 87.5,69.1667 87.5,68.8333 87.5,68.5C 85.5663,65.8832 85.233,63.2165 86.5,60.5 Z"/></g>
<g><path style="opacity:1" fill="#d2a792" d="M 23.5,62.5 C 23.9731,63.9063 24.9731,64.573 26.5,64.5C 26.2041,66.403 25.5375,68.0697 24.5,69.5C 21.8333,68.8333 20.1667,67.1667 19.5,64.5C 19.5,64.1667 19.5,63.8333 19.5,63.5C 20.2679,62.7375 20.7679,61.7375 21,60.5C 21.4169,61.756 22.2502,62.4226 23.5,62.5 Z"/></g>
<g><path style="opacity:1" fill="#242515" d="M 77.5,63.5 C 75.7484,65.2459 74.4151,67.2459 73.5,69.5C 72.5533,66.3803 73.8867,64.3803 77.5,63.5 Z"/></g>
<g><path style="opacity:1" fill="#b85a5c" d="M 26.5,64.5 C 27.5,64.5 28.5,64.5 29.5,64.5C 29.5,65.1667 29.8333,65.5 30.5,65.5C 30.5,67.5 30.5,69.5 30.5,71.5C 28.3792,71.6747 26.3792,71.3414 24.5,70.5C 24.5,70.1667 24.5,69.8333 24.5,69.5C 25.5375,68.0697 26.2041,66.403 26.5,64.5 Z"/></g>
<g><path style="opacity:1" fill="#552023" d="M 81.5,65.5 C 82.6491,65.7911 83.3158,66.6244 83.5,68C 83.3333,68.8333 83.1667,69.6667 83,70.5C 81.3005,71.4061 79.4672,71.7394 77.5,71.5C 77.7148,73.1788 77.0481,74.1788 75.5,74.5C 75.7593,70.9319 77.7593,69.5985 81.5,70.5C 81.5,68.8333 81.5,67.1667 81.5,65.5 Z"/></g>
<g><path style="opacity:1" fill="#241d19" d="M 37.5,63.5 C 38.1667,65.1667 38.8333,66.8333 39.5,68.5C 40.5511,69.2223 41.2178,70.2223 41.5,71.5C 39.8333,72.8333 38.1667,74.1667 36.5,75.5C 36.438,71.5993 36.7713,67.5993 37.5,63.5 Z"/></g>
<g><path style="opacity:1" fill="#88786a" d="M 49.5,48.5 C 51.2646,47.5386 53.2646,47.2053 55.5,47.5C 53.9647,50.9402 53.2981,54.6068 53.5,58.5C 52.0761,65.3104 54.7428,68.8104 61.5,69C 62.6988,70.6943 64.0322,72.1943 65.5,73.5C 65.5,73.8333 65.5,74.1667 65.5,74.5C 64.391,74.5569 63.391,74.8902 62.5,75.5C 61.5,75.1667 60.8333,74.5 60.5,73.5C 60.3893,72.8826 60.056,72.3826 59.5,72C 54.8157,71.6499 50.149,71.1499 45.5,70.5C 44.5,70.8333 43.5,71.1667 42.5,71.5C 47.0994,72.6582 51.7661,73.3249 56.5,73.5C 54.7499,75.0586 53.7499,77.0586 53.5,79.5C 53.1731,89.015 53.5064,98.3483 54.5,107.5C 54.5,108.167 54.5,108.833 54.5,109.5C 53.2921,108.766 51.9587,108.433 50.5,108.5C 51.5038,106.508 52.1705,104.341 52.5,102C 50.9226,98.3931 50.0892,93.8931 50,88.5C 49.0557,92.6092 48.2224,96.6092 47.5,100.5C 47.6716,99.5084 47.3382,98.8417 46.5,98.5C 46.5,95.5 46.5,92.5 46.5,89.5C 46.19,86.2869 46.5233,83.2869 47.5,80.5C 47.3359,83.1873 47.5026,85.854 48,88.5C 48.1971,83.9145 48.6971,79.4145 49.5,75C 49.1667,74.8333 48.8333,74.6667 48.5,74.5C 47.5713,75.6888 47.238,77.0222 47.5,78.5C 46.8999,77.0998 45.8999,76.0998 44.5,75.5C 43.5,74.1667 42.5,72.8333 41.5,71.5C 41.2178,70.2223 40.5511,69.2223 39.5,68.5C 39.5,67.5 39.5,66.5 39.5,65.5C 40.391,64.8902 41.391,64.5569 42.5,64.5C 42.369,65.2389 42.5357,65.9056 43,66.5C 43.1909,64.2922 43.6909,62.2922 44.5,60.5C 45.0431,60.56 45.3764,60.8933 45.5,61.5C 44.8847,64.0393 44.2181,66.5393 43.5,69C 44.8649,68.8567 46.1982,68.3567 47.5,67.5C 47.5,68.8333 48.1667,69.5 49.5,69.5C 51.4795,64.9621 52.4795,59.9621 52.5,54.5C 52.3333,52.8333 52.1667,51.1667 52,49.5C 51.79,51.0581 51.29,52.3915 50.5,53.5C 50.7845,51.5853 50.4511,49.9187 49.5,48.5 Z"/></g>
<g><path style="opacity:1" fill="#ad5961" d="M 77.5,63.5 C 78.1667,63.5 78.8333,63.5 79.5,63.5C 79.8333,64.1667 80.1667,64.8333 80.5,65.5C 80.8333,65.5 81.1667,65.5 81.5,65.5C 81.5,67.1667 81.5,68.8333 81.5,70.5C 77.7593,69.5985 75.7593,70.9319 75.5,74.5C 74.5,74.5 73.5,74.5 72.5,74.5C 73.2778,73.8444 73.9444,73.0111 74.5,72C 74.4301,71.2352 74.0967,70.7352 73.5,70.5C 73.5,70.1667 73.5,69.8333 73.5,69.5C 74.4151,67.2459 75.7484,65.2459 77.5,63.5 Z"/></g>
<g><path style="opacity:1" fill="#da505e" d="M 80.5,65.5 C 80.5,66.8333 80.5,68.1667 80.5,69.5C 79.1667,69.5 77.8333,69.5 76.5,69.5C 76.1667,66.5 77.5,65.1667 80.5,65.5 Z"/></g>
<g><path style="opacity:1" fill="#d7b099" d="M 68.5,68.5 C 69.5521,70.256 71.2188,70.9227 73.5,70.5C 74.0967,70.7352 74.4301,71.2352 74.5,72C 73.9444,73.0111 73.2778,73.8444 72.5,74.5C 72.1667,74.5 71.8333,74.5 71.5,74.5C 69.5,74.5 67.5,74.5 65.5,74.5C 65.5,74.1667 65.5,73.8333 65.5,73.5C 65.5,71.8333 65.5,70.1667 65.5,68.5C 66.5,68.5 67.5,68.5 68.5,68.5 Z"/></g>
<g><path style="opacity:1" fill="#433831" d="M 60.5,73.5 C 59.1667,73.5 57.8333,73.5 56.5,73.5C 51.7661,73.3249 47.0994,72.6582 42.5,71.5C 43.5,71.1667 44.5,70.8333 45.5,70.5C 50.149,71.1499 54.8157,71.6499 59.5,72C 60.056,72.3826 60.3893,72.8826 60.5,73.5 Z"/></g>
<g><path style="opacity:1" fill="#211f1d" d="M 79.5,63.5 C 80.5,63.5 81.5,63.5 82.5,63.5C 85.1143,66.9576 86.1143,70.9576 85.5,75.5C 82.5256,77.6555 79.1922,79.3221 75.5,80.5C 74.8792,85.632 74.2125,90.632 73.5,95.5C 72.9486,88.3909 72.6153,81.3909 72.5,74.5C 73.5,74.5 74.5,74.5 75.5,74.5C 77.0481,74.1788 77.7148,73.1788 77.5,71.5C 79.4672,71.7394 81.3005,71.4061 83,70.5C 83.1667,69.6667 83.3333,68.8333 83.5,68C 83.3158,66.6244 82.6491,65.7911 81.5,65.5C 81.1667,65.5 80.8333,65.5 80.5,65.5C 80.1667,64.8333 79.8333,64.1667 79.5,63.5 Z"/></g>
<g><path style="opacity:1" fill="#743c39" d="M 56.5,73.5 C 57.8333,73.5 59.1667,73.5 60.5,73.5C 60.8333,74.5 61.5,75.1667 62.5,75.5C 62.5,76.1667 62.5,76.8333 62.5,77.5C 62.1667,77.5 61.8333,77.5 61.5,77.5C 61.1667,76.5 60.5,75.8333 59.5,75.5C 58.1667,75.5 56.8333,75.5 55.5,75.5C 55.5,76.8333 55.5,78.1667 55.5,79.5C 54.8333,79.5 54.1667,79.5 53.5,79.5C 53.7499,77.0586 54.7499,75.0586 56.5,73.5 Z"/></g>
<g><path style="opacity:1" fill="#677f75" d="M 19.5,70.5 C 20.609,70.5569 21.609,70.8902 22.5,71.5C 22.5,74.1667 22.5,76.8333 22.5,79.5C 21.4254,85.0592 20.4254,90.7259 19.5,96.5C 19.1667,96.5 18.8333,96.5 18.5,96.5C 18.2555,87.7925 18.5888,79.1258 19.5,70.5 Z"/></g>
<g><path style="opacity:1" fill="#1a4353" d="M 32.5,76.5 C 31.6993,78.0418 31.366,79.7085 31.5,81.5C 30.5655,80.4324 30.2322,79.099 30.5,77.5C 28.5168,77.1568 27.1834,77.8235 26.5,79.5C 25.8333,80.1667 25.1667,80.8333 24.5,81.5C 24.5094,75.8219 27.1761,74.1553 32.5,76.5 Z"/></g>
<g><path style="opacity:1" fill="#1c1f1e" d="M 30.5,65.5 C 32.217,68.8448 32.8836,72.5115 32.5,76.5C 27.1761,74.1553 24.5094,75.8219 24.5,81.5C 23.8902,82.391 23.5569,83.391 23.5,84.5C 22.5489,83.0813 22.2155,81.4147 22.5,79.5C 22.5,76.8333 22.5,74.1667 22.5,71.5C 22.8417,70.6618 23.5084,70.3284 24.5,70.5C 26.3792,71.3414 28.3792,71.6747 30.5,71.5C 30.5,69.5 30.5,67.5 30.5,65.5 Z"/></g>
<g><path style="opacity:1" fill="#3f201a" d="M 65.5,74.5 C 67.5,74.5 69.5,74.5 71.5,74.5C 71.5,74.8333 71.5,75.1667 71.5,75.5C 68.5918,76.1593 68.2584,76.9926 70.5,78C 69.5,78.3333 68.5,78.6667 67.5,79C 69.0163,80.897 69.683,83.0637 69.5,85.5C 68.2954,83.8624 66.9621,83.5291 65.5,84.5C 65.4546,81.6792 64.4546,79.3459 62.5,77.5C 62.5,76.8333 62.5,76.1667 62.5,75.5C 63.391,74.8902 64.391,74.5569 65.5,74.5 Z"/></g>
<g><path style="opacity:1" fill="#bfb197" d="M 44.5,75.5 C 45.8999,76.0998 46.8999,77.0998 47.5,78.5C 47.5,79.1667 47.5,79.8333 47.5,80.5C 46.5233,83.2869 46.19,86.2869 46.5,89.5C 45.7838,84.9362 45.1171,80.2695 44.5,75.5 Z"/></g>
<g><path style="opacity:1" fill="#f9f9f9" d="M 13.5,-0.5 C 42.1667,-0.5 70.8333,-0.5 99.5,-0.5C 99.5,54.5 99.5,109.5 99.5,164.5C 66.1667,164.5 32.8333,164.5 -0.5,164.5C -0.5,140.167 -0.5,115.833 -0.5,91.5C 0.434475,90.4324 0.767809,89.099 0.5,87.5C 1.5,87.5 2.5,87.5 3.5,87.5C 3.33339,105.836 3.50006,124.17 4,142.5C 5.04631,143.772 5.54631,145.272 5.5,147C 4.83333,150 4.16667,153 3.5,156C 3.37213,159.394 4.70546,160.561 7.5,159.5C 8.72405,157.172 8.72405,154.839 7.5,152.5C 7.85549,151.478 8.52216,150.811 9.5,150.5C 9.21083,154.106 9.54416,157.606 10.5,161C 24.1626,161.5 37.8293,161.667 51.5,161.5C 54.1667,161.5 56.8333,161.5 59.5,161.5C 67.1739,161.666 74.8406,161.5 82.5,161C 86.771,157.892 87.4377,154.392 84.5,150.5C 84.4257,148.589 83.4257,147.422 81.5,147C 79.1902,146.503 76.8568,146.337 74.5,146.5C 73.8333,146.5 73.1667,146.5 72.5,146.5C 73.2309,144.401 73.2309,142.401 72.5,140.5C 71.8589,141.993 70.8589,142.993 69.5,143.5C 70.7016,138.023 70.7016,132.689 69.5,127.5C 68.3927,121.189 67.3927,114.856 66.5,108.5C 67.4511,107.081 67.7845,105.415 67.5,103.5C 68.791,103.737 69.791,103.404 70.5,102.5C 71.1667,102.5 71.5,102.167 71.5,101.5C 72.1667,102.833 72.8333,104.167 73.5,105.5C 73.5,106.167 73.5,106.833 73.5,107.5C 73.5768,111.118 75.0768,112.118 78,110.5C 78.8333,110.667 79.6667,110.833 80.5,111C 79.3044,111.654 79.3044,112.154 80.5,112.5C 83.4318,110.375 84.0985,107.709 82.5,104.5C 83.1583,101.51 84.4917,98.8431 86.5,96.5C 87.4841,93.5719 87.8174,90.5719 87.5,87.5C 88.9775,80.9317 89.9775,74.265 90.5,67.5C 90.6598,65.6455 89.9931,64.3121 88.5,63.5C 88.573,61.9731 87.9063,60.9731 86.5,60.5C 86.7373,59.209 86.404,58.209 85.5,57.5C 85.5,56.8333 85.1667,56.5 84.5,56.5C 83.917,53.0534 82.5837,50.0534 80.5,47.5C 80.3404,45.847 79.6737,44.5137 78.5,43.5C 78.0679,42.2905 77.4013,41.2905 76.5,40.5C 74.7975,37.4746 72.1309,36.1413 68.5,36.5C 67.0222,36.762 65.6888,36.4287 64.5,35.5C 65.325,34.6143 66.325,34.281 67.5,34.5C 67.634,32.7085 67.3007,31.0418 66.5,29.5C 65.3995,28.3951 64.7329,27.0618 64.5,25.5C 64.5,25.1667 64.5,24.8333 64.5,24.5C 65.0405,23.439 65.3738,22.439 65.5,21.5C 67.7772,22.4486 69.7772,23.7819 71.5,25.5C 78.3147,30.5282 80.6481,28.8615 78.5,20.5C 84.1289,20.0389 86.7956,17.0389 86.5,11.5C 82.351,12.0803 78.6843,11.4136 75.5,9.5C 71.4537,7.20235 67.1204,6.86902 62.5,8.5C 62.1667,8.5 61.8333,8.5 61.5,8.5C 61.5,7.83333 61.1667,7.5 60.5,7.5C 55.1954,4.56445 49.5287,3.89779 43.5,5.5C 37.1363,1.9812 31.6363,2.9812 27,8.5C 26.2204,10.3869 26.3871,12.0536 27.5,13.5C 28.0713,18.7387 31.0713,21.7387 36.5,22.5C 37.4164,22.4573 38.0831,22.1239 38.5,21.5C 39.1667,21.5 39.8333,21.5 40.5,21.5C 42.035,20.6457 43.3684,20.6457 44.5,21.5C 43.1716,22.5072 42.1716,23.8405 41.5,25.5C 41.7472,26.7133 42.4138,27.38 43.5,27.5C 43.043,30.3093 43.043,32.976 43.5,35.5C 42.5,36.1667 41.5,36.8333 40.5,37.5C 39.2905,37.9321 38.2905,38.5987 37.5,39.5C 36.5,40.8333 35.5,42.1667 34.5,43.5C 33.5416,43.9528 32.7083,44.6195 32,45.5C 30.4318,49.6354 28.5985,53.6354 26.5,57.5C 25.8902,58.391 25.5569,59.391 25.5,60.5C 23.7074,60.1164 22.7074,58.9497 22.5,57C 23.4929,54.5472 23.6595,52.0472 23,49.5C 21.9887,48.6634 20.8221,48.33 19.5,48.5C 20.5707,35.1881 20.7373,21.8548 20,8.5C 19.6174,7.94404 19.1174,7.61071 18.5,7.5C 18.5,7.16667 18.5,6.83333 18.5,6.5C 18.2648,5.90326 17.7648,5.56993 17,5.5C 15.8261,6.54417 14.6594,7.54417 13.5,8.5C 12.1885,5.58445 12.8552,3.08445 15.5,1C 14.5842,0.721579 13.9175,0.221579 13.5,-0.5 Z"/></g>
<g><path style="opacity:1" fill="#06371e" d="M 79.5,55.5 C 80.9063,55.9731 81.573,56.9731 81.5,58.5C 79.9102,58.3718 78.5769,57.7051 77.5,56.5C 77.9569,55.7025 78.6236,55.3691 79.5,55.5 Z"/></g>
<g><path style="opacity:1" fill="#27362f" d="M 80.5,47.5 C 82.5837,50.0534 83.917,53.0534 84.5,56.5C 82.5443,55.8779 81.211,54.5446 80.5,52.5C 79.4936,50.6459 79.4936,48.9792 80.5,47.5 Z"/></g>
<g><path style="opacity:1" fill="#765539" d="M 43.5,47.5 C 43.5,47.1667 43.5,46.8333 43.5,46.5C 43.8333,46.5 44.1667,46.5 44.5,46.5C 46.1898,46.8564 47.1898,47.8564 47.5,49.5C 45.2263,51.1446 45.2263,52.6446 47.5,54C 46.1031,55.3103 45.1031,56.8103 44.5,58.5C 44.815,54.6286 44.4816,50.9619 43.5,47.5 Z"/></g>
<g><path style="opacity:1" fill="#b5b3b3" d="M 67.5,38.5 C 67.8333,38.5 68.1667,38.5 68.5,38.5C 69.3094,39.4687 70.3094,40.3021 71.5,41C 70.6195,41.7083 69.9528,42.5416 69.5,43.5C 67.2188,43.0773 65.5521,43.744 64.5,45.5C 64.1667,45.5 63.8333,45.5 63.5,45.5C 60.8333,46.1667 58.1667,46.8333 55.5,47.5C 53.2646,47.2053 51.2646,47.5386 49.5,48.5C 48.596,49.209 48.2627,50.209 48.5,51.5C 47.6618,51.1583 47.3284,50.4916 47.5,49.5C 47.1898,47.8564 46.1898,46.8564 44.5,46.5C 43.4019,45.603 43.4019,44.7697 44.5,44C 43.7471,42.513 42.9138,42.3463 42,43.5C 41.3551,42.354 40.5217,41.354 39.5,40.5C 39.8333,40.1667 40.1667,39.8333 40.5,39.5C 41.8498,40.9501 43.5165,41.6168 45.5,41.5C 49.8333,42.8333 54.1667,42.8333 58.5,41.5C 58.3691,42.3764 58.7025,43.0431 59.5,43.5C 62.4686,42.1932 65.1352,40.5265 67.5,38.5 Z"/></g>
<g><path style="opacity:1" fill="#6f7678" d="M 60.5,38.5 C 60.5,38.1667 60.5,37.8333 60.5,37.5C 60.8333,37.5 61.1667,37.5 61.5,37.5C 63.5,37.8333 65.5,38.1667 67.5,38.5C 65.1352,40.5265 62.4686,42.1932 59.5,43.5C 58.7025,43.0431 58.3691,42.3764 58.5,41.5C 60.4233,41.205 62.0899,40.3717 63.5,39C 62.552,38.5172 61.552,38.3505 60.5,38.5 Z"/></g>
<g><path style="opacity:1" fill="#9c8e88" d="M 40.5,37.5 C 42.7488,38.0798 44.4154,39.4131 45.5,41.5C 43.5165,41.6168 41.8498,40.9501 40.5,39.5C 40.1667,39.8333 39.8333,40.1667 39.5,40.5C 40.5217,41.354 41.3551,42.354 42,43.5C 42.9138,42.3463 43.7471,42.513 44.5,44C 43.4019,44.7697 43.4019,45.603 44.5,46.5C 44.1667,46.5 43.8333,46.5 43.5,46.5C 41.9505,45.5592 40.2838,44.8925 38.5,44.5C 37.8254,42.7168 37.4921,41.0502 37.5,39.5C 38.2905,38.5987 39.2905,37.9321 40.5,37.5 Z"/></g>
<g><path style="opacity:1" fill="#dececc" d="M 43.5,35.5 C 44.4716,37.4931 45.8049,37.8264 47.5,36.5C 47.5,37.8333 47.5,39.1667 47.5,40.5C 52.1014,40.9449 56.4347,40.2783 60.5,38.5C 61.552,38.3505 62.552,38.5172 63.5,39C 62.0899,40.3717 60.4233,41.205 58.5,41.5C 54.1667,42.8333 49.8333,42.8333 45.5,41.5C 44.4154,39.4131 42.7488,38.0798 40.5,37.5C 41.5,36.8333 42.5,36.1667 43.5,35.5 Z"/></g>
<g><path style="opacity:1" fill="#55635b" d="M 68.5,36.5 C 72.1309,36.1413 74.7975,37.4746 76.5,40.5C 76.2252,42.8418 75.3919,42.8418 74,40.5C 71.0995,43.5069 69.5995,47.1736 69.5,51.5C 70.5224,54.2019 71.5224,56.8686 72.5,59.5C 72.5,60.1667 72.1667,60.5 71.5,60.5C 70.2277,59.2675 69.2277,57.2675 68.5,54.5C 68.9422,50.8455 69.2756,47.1788 69.5,43.5C 69.9528,42.5416 70.6195,41.7083 71.5,41C 70.3094,40.3021 69.3094,39.4687 68.5,38.5C 68.5,37.8333 68.5,37.1667 68.5,36.5 Z"/></g>
<g><path style="opacity:1" fill="#3a3839" d="M 66.5,29.5 C 67.3007,31.0418 67.634,32.7085 67.5,34.5C 66.325,34.281 65.325,34.6143 64.5,35.5C 65.6888,36.4287 67.0222,36.762 68.5,36.5C 68.5,37.1667 68.5,37.8333 68.5,38.5C 68.1667,38.5 67.8333,38.5 67.5,38.5C 65.5,38.1667 63.5,37.8333 61.5,37.5C 62.0271,34.7686 62.8604,32.1019 64,29.5C 64.3333,30.1667 64.6667,30.8333 65,31.5C 65.2784,30.5842 65.7784,29.9175 66.5,29.5 Z"/></g>
<g><path style="opacity:1" fill="#daad9b" d="M 52.5,35.5 C 55.221,35.9628 57.8877,36.6295 60.5,37.5C 60.5,37.8333 60.5,38.1667 60.5,38.5C 56.4347,40.2783 52.1014,40.9449 47.5,40.5C 47.5,39.1667 47.5,37.8333 47.5,36.5C 48.1499,36.8039 48.8165,37.1373 49.5,37.5C 50.2978,35.9223 50.7978,34.2556 51,32.5C 51.2321,33.7375 51.7321,34.7375 52.5,35.5 Z"/></g>
<g><path style="opacity:1" fill="#98816e" d="M 49.5,25.5 C 51.1433,25.6495 52.81,25.9829 54.5,26.5C 55.4831,27.8503 56.8164,28.8503 58.5,29.5C 56.3259,30.8932 54.4926,30.5598 53,28.5C 52.5034,30.8098 52.3367,33.1432 52.5,35.5C 51.7321,34.7375 51.2321,33.7375 51,32.5C 50.7978,34.2556 50.2978,35.9223 49.5,37.5C 48.8165,37.1373 48.1499,36.8039 47.5,36.5C 48.0906,35.8485 48.7573,35.1818 49.5,34.5C 49.0431,33.7025 48.3764,33.3691 47.5,33.5C 49.6297,32.0359 50.963,30.0359 51.5,27.5C 50.325,27.719 49.325,27.3857 48.5,26.5C 48.6236,25.8933 48.9569,25.56 49.5,25.5 Z"/></g>
<g><path style="opacity:1" fill="#64544f" d="M 43.5,27.5 C 44.9561,29.3704 46.2895,31.3704 47.5,33.5C 48.3764,33.3691 49.0431,33.7025 49.5,34.5C 48.7573,35.1818 48.0906,35.8485 47.5,36.5C 45.8049,37.8264 44.4716,37.4931 43.5,35.5C 43.043,32.976 43.043,30.3093 43.5,27.5 Z"/></g>
<g><path style="opacity:1" fill="#d1a790" d="M 49.5,22.5 C 49.5,23.5 49.5,24.5 49.5,25.5C 48.9569,25.56 48.6236,25.8933 48.5,26.5C 49.325,27.3857 50.325,27.719 51.5,27.5C 50.963,30.0359 49.6297,32.0359 47.5,33.5C 46.2895,31.3704 44.9561,29.3704 43.5,27.5C 42.4138,27.38 41.7472,26.7133 41.5,25.5C 42.1716,23.8405 43.1716,22.5072 44.5,21.5C 44.7352,22.0967 45.2352,22.4301 46,22.5C 47.0105,22.1081 47.5105,21.4415 47.5,20.5C 48.5223,20.8555 49.189,21.5222 49.5,22.5 Z"/></g>
<g><path style="opacity:1" fill="#6b6155" d="M 64.5,25.5 C 64.7329,27.0618 65.3995,28.3951 66.5,29.5C 65.7784,29.9175 65.2784,30.5842 65,31.5C 64.6667,30.8333 64.3333,30.1667 64,29.5C 62.8604,32.1019 62.0271,34.7686 61.5,37.5C 61.1667,37.5 60.8333,37.5 60.5,37.5C 57.8877,36.6295 55.221,35.9628 52.5,35.5C 52.3367,33.1432 52.5034,30.8098 53,28.5C 54.4926,30.5598 56.3259,30.8932 58.5,29.5C 56.8164,28.8503 55.4831,27.8503 54.5,26.5C 56.1092,26.9059 57.4425,26.9059 58.5,26.5C 57.218,24.8208 56.218,22.9874 55.5,21C 58.3216,20.3013 59.9883,21.4679 60.5,24.5C 61.6888,25.4287 63.0222,25.762 64.5,25.5 Z"/></g>
<g><path style="opacity:1" fill="#422b28" d="M 47.5,15.5 C 47.7352,14.9033 48.2352,14.5699 49,14.5C 52.1237,15.8279 55.2904,16.8279 58.5,17.5C 60.3839,18.3387 61.7172,19.672 62.5,21.5C 62.7822,22.7777 63.4489,23.7777 64.5,24.5C 64.5,24.8333 64.5,25.1667 64.5,25.5C 63.0222,25.762 61.6888,25.4287 60.5,24.5C 59.9883,21.4679 58.3216,20.3013 55.5,21C 56.218,22.9874 57.218,24.8208 58.5,26.5C 57.4425,26.9059 56.1092,26.9059 54.5,26.5C 52.81,25.9829 51.1433,25.6495 49.5,25.5C 49.5,24.5 49.5,23.5 49.5,22.5C 53.7667,18.9561 53.1,16.6228 47.5,15.5 Z"/></g>
<g><path style="opacity:1" fill="#2d8bbc" d="M 74.5,19.5 C 75.9418,20.8195 76.6085,22.4862 76.5,24.5C 75.0413,24.5674 73.7079,24.2341 72.5,23.5C 71.3871,22.0536 71.2204,20.3869 72,18.5C 72.6708,19.2524 73.5041,19.5858 74.5,19.5 Z"/></g>
<g><path style="opacity:1" fill="#285771" d="M 70.5,15.5 C 72.8333,15.8333 74.1667,17.1667 74.5,19.5C 73.5041,19.5858 72.6708,19.2524 72,18.5C 71.2204,20.3869 71.3871,22.0536 72.5,23.5C 72.6716,24.4916 72.3382,25.1583 71.5,25.5C 69.7772,23.7819 67.7772,22.4486 65.5,21.5C 65.5,20.1667 65.5,18.8333 65.5,17.5C 66.2216,17.0825 66.7216,16.4158 67,15.5C 68,17.5 69,19.5 70,21.5C 70.4955,19.5273 70.6621,17.5273 70.5,15.5 Z"/></g>
<g><path style="opacity:1" fill="#597c90" d="M 61.5,8.5 C 61.8333,8.5 62.1667,8.5 62.5,8.5C 65.3377,10.3455 68.3377,12.0121 71.5,13.5C 72.842,14.793 74.5087,15.6264 76.5,16C 77.5822,17.3297 78.2488,18.8297 78.5,20.5C 80.6481,28.8615 78.3147,30.5282 71.5,25.5C 72.3382,25.1583 72.6716,24.4916 72.5,23.5C 73.7079,24.2341 75.0413,24.5674 76.5,24.5C 76.6085,22.4862 75.9418,20.8195 74.5,19.5C 74.1667,17.1667 72.8333,15.8333 70.5,15.5C 67.2879,13.8636 63.9546,12.5303 60.5,11.5C 61.1098,10.609 61.4431,9.60895 61.5,8.5 Z"/></g>
<g><path style="opacity:1" fill="#441c1e" d="M 39.5,16.5 C 40.9187,15.5489 42.5853,15.2155 44.5,15.5C 41.9908,16.6824 40.6574,18.6824 40.5,21.5C 39.8333,21.5 39.1667,21.5 38.5,21.5C 37.5222,21.189 36.8555,20.5223 36.5,19.5C 36.8457,18.3044 37.3457,18.3044 38,19.5C 38.8333,18.6667 39.6667,17.8333 40.5,17C 40.2716,16.6012 39.9382,16.4346 39.5,16.5 Z"/></g>
<g><path style="opacity:1" fill="#856861" d="M 44.5,15.5 C 45.5,15.5 46.5,15.5 47.5,15.5C 53.1,16.6228 53.7667,18.9561 49.5,22.5C 49.189,21.5222 48.5223,20.8555 47.5,20.5C 47.5105,21.4415 47.0105,22.1081 46,22.5C 45.2352,22.4301 44.7352,22.0967 44.5,21.5C 43.3684,20.6457 42.035,20.6457 40.5,21.5C 40.6574,18.6824 41.9908,16.6824 44.5,15.5 Z"/></g>
<g><path style="opacity:1" fill="#764549" d="M 60.5,7.5 C 59.5436,9.51583 58.2102,11.3492 56.5,13C 58.6667,14.8333 60.8333,16.6667 63,18.5C 63.7401,19.7494 63.5735,20.7494 62.5,21.5C 61.7172,19.672 60.3839,18.3387 58.5,17.5C 57.5,16.1667 56.5,14.8333 55.5,13.5C 55.5858,12.5041 55.2524,11.6708 54.5,11C 55.4158,10.7216 56.0825,10.2216 56.5,9.5C 57.6049,8.39952 58.9382,7.73286 60.5,7.5 Z"/></g>
<g><path style="opacity:1" fill="#774547" d="M 27.5,13.5 C 27.8333,13.5 28.1667,13.5 28.5,13.5C 28.3601,15.1238 29.0267,16.2904 30.5,17C 33.592,17.7358 36.592,17.5691 39.5,16.5C 39.9382,16.4346 40.2716,16.6012 40.5,17C 39.6667,17.8333 38.8333,18.6667 38,19.5C 37.3457,18.3044 36.8457,18.3044 36.5,19.5C 36.8555,20.5223 37.5222,21.189 38.5,21.5C 38.0831,22.1239 37.4164,22.4573 36.5,22.5C 31.0713,21.7387 28.0713,18.7387 27.5,13.5 Z"/></g>
<g><path style="opacity:1" fill="#862e34" d="M 28.5,13.5 C 36.8333,13.5 45.1667,13.5 53.5,13.5C 54.1667,13.5 54.8333,13.5 55.5,13.5C 56.5,14.8333 57.5,16.1667 58.5,17.5C 55.2904,16.8279 52.1237,15.8279 49,14.5C 48.2352,14.5699 47.7352,14.9033 47.5,15.5C 46.5,15.5 45.5,15.5 44.5,15.5C 42.5853,15.2155 40.9187,15.5489 39.5,16.5C 36.592,17.5691 33.592,17.7358 30.5,17C 29.0267,16.2904 28.3601,15.1238 28.5,13.5 Z"/></g>
<g><path style="opacity:1" fill="#459cc3" d="M 60.5,11.5 C 63.9546,12.5303 67.2879,13.8636 70.5,15.5C 70.6621,17.5273 70.4955,19.5273 70,21.5C 69,19.5 68,17.5 67,15.5C 66.7216,16.4158 66.2216,17.0825 65.5,17.5C 64.2101,16.9423 63.3768,15.9423 63,14.5C 61.6569,15.2135 60.3236,14.8802 59,13.5C 58.4719,12.184 58.9719,11.5173 60.5,11.5 Z"/></g>
<g><path style="opacity:1" fill="#b58a82" d="M 75.5,9.5 C 78.6843,11.4136 82.351,12.0803 86.5,11.5C 86.7956,17.0389 84.1289,20.0389 78.5,20.5C 78.2488,18.8297 77.5822,17.3297 76.5,16C 74.5087,15.6264 72.842,14.793 71.5,13.5C 71.5,12.1667 71.5,10.8333 71.5,9.5C 72.8333,9.5 74.1667,9.5 75.5,9.5 Z"/></g>
<g><path style="opacity:1" fill="#544f5a" d="M 60.5,7.5 C 61.1667,7.5 61.5,7.83333 61.5,8.5C 61.4431,9.60895 61.1098,10.609 60.5,11.5C 58.9719,11.5173 58.4719,12.184 59,13.5C 60.3236,14.8802 61.6569,15.2135 63,14.5C 63.3768,15.9423 64.2101,16.9423 65.5,17.5C 65.5,18.8333 65.5,20.1667 65.5,21.5C 65.3738,22.439 65.0405,23.439 64.5,24.5C 63.4489,23.7777 62.7822,22.7777 62.5,21.5C 63.5735,20.7494 63.7401,19.7494 63,18.5C 60.8333,16.6667 58.6667,14.8333 56.5,13C 58.2102,11.3492 59.5436,9.51583 60.5,7.5 Z"/></g>
<g><path style="opacity:1" fill="#e34757" d="M 31.5,6.5 C 38.9549,6.58599 46.2882,7.41932 53.5,9C 52.2721,10.4902 52.2721,11.9902 53.5,13.5C 45.1667,13.5 36.8333,13.5 28.5,13.5C 27.9078,10.3695 28.9078,8.03614 31.5,6.5 Z"/></g>
<g><path style="opacity:1" fill="#b7ada5" d="M 75.5,9.5 C 74.1667,9.5 72.8333,9.5 71.5,9.5C 71.5,10.8333 71.5,12.1667 71.5,13.5C 68.3377,12.0121 65.3377,10.3455 62.5,8.5C 67.1204,6.86902 71.4537,7.20235 75.5,9.5 Z"/></g>
<g><path style="opacity:1" fill="#bc555d" d="M 31.5,6.5 C 35.2984,5.51658 39.2984,5.18325 43.5,5.5C 46.977,6.3227 50.6437,6.8227 54.5,7C 55.756,7.41691 56.4226,8.25025 56.5,9.5C 56.0825,10.2216 55.4158,10.7216 54.5,11C 55.2524,11.6708 55.5858,12.5041 55.5,13.5C 54.8333,13.5 54.1667,13.5 53.5,13.5C 52.2721,11.9902 52.2721,10.4902 53.5,9C 46.2882,7.41932 38.9549,6.58599 31.5,6.5 Z"/></g>
<g><path style="opacity:1" fill="#ac6d6f" d="M 60.5,7.5 C 58.9382,7.73286 57.6049,8.39952 56.5,9.5C 56.4226,8.25025 55.756,7.41691 54.5,7C 50.6437,6.8227 46.977,6.3227 43.5,5.5C 49.5287,3.89779 55.1954,4.56445 60.5,7.5 Z"/></g>
<g><path style="opacity:1" fill="#b5727a" d="M 43.5,5.5 C 39.2984,5.18325 35.2984,5.51658 31.5,6.5C 28.9078,8.03614 27.9078,10.3695 28.5,13.5C 28.1667,13.5 27.8333,13.5 27.5,13.5C 26.3871,12.0536 26.2204,10.3869 27,8.5C 31.6363,2.9812 37.1363,1.9812 43.5,5.5 Z"/></g>
<g><path style="opacity:1" fill="#db525d" d="M 59.5,77.5 C 60.3467,83.6459 61.3467,89.6459 62.5,95.5C 62.5,98.8333 62.5,102.167 62.5,105.5C 60.8333,105.5 59.1667,105.5 57.5,105.5C 56.8611,95.7734 57.5278,86.4401 59.5,77.5 Z"/></g>
<g><path style="opacity:1" fill="#414946" d="M 88.5,63.5 C 89.9931,64.3121 90.6598,65.6455 90.5,67.5C 89.9775,74.265 88.9775,80.9317 87.5,87.5C 87.1667,87.5 86.8333,87.5 86.5,87.5C 86.5,86.8333 86.5,86.1667 86.5,85.5C 87.3424,80.213 87.6757,74.8797 87.5,69.5C 88.5862,69.38 89.2528,68.7133 89.5,67.5C 89.1543,66.1508 88.821,64.8175 88.5,63.5 Z"/></g>
<g><path style="opacity:1" fill="#3a2e2b" d="M 47.5,80.5 C 47.5,79.8333 47.5,79.1667 47.5,78.5C 47.238,77.0222 47.5713,75.6888 48.5,74.5C 48.8333,74.6667 49.1667,74.8333 49.5,75C 48.6971,79.4145 48.1971,83.9145 48,88.5C 47.5026,85.854 47.3359,83.1873 47.5,80.5 Z"/></g>
<g><path style="opacity:1" fill="#6b9284" d="M 87.5,68.5 C 87.5,68.8333 87.5,69.1667 87.5,69.5C 87.6757,74.8797 87.3424,80.213 86.5,85.5C 84.8167,88.5765 83.4834,91.9098 82.5,95.5C 81.8614,94.9032 81.528,94.0698 81.5,93C 82.2755,90.1776 82.9421,87.3443 83.5,84.5C 84.5375,83.0697 85.2041,81.403 85.5,79.5C 86.1667,75.8333 86.8333,72.1667 87.5,68.5 Z"/></g>
<g><path style="opacity:1" fill="#cb626f" d="M 61.5,77.5 C 61.8333,77.5 62.1667,77.5 62.5,77.5C 64.4546,79.3459 65.4546,81.6792 65.5,84.5C 67.142,90.0446 68.142,95.7112 68.5,101.5C 67.8333,101.833 67.1667,102.167 66.5,102.5C 66.0074,100.194 65.6741,97.861 65.5,95.5C 64.3383,89.5157 62.6716,83.6824 60.5,78C 60.7284,77.6012 61.0618,77.4346 61.5,77.5 Z"/></g>
<g><path style="opacity:1" fill="#466470" d="M 31.5,81.5 C 31.2627,82.791 31.596,83.791 32.5,84.5C 30.1236,90.575 29.1236,96.9083 29.5,103.5C 27.5642,104.259 25.7309,105.259 24,106.5C 23.2352,106.43 22.7352,106.097 22.5,105.5C 23.2625,104.732 24.2625,104.232 25.5,104C 26.2524,103.329 26.5858,102.496 26.5,101.5C 28.8024,94.4744 29.8024,87.141 29.5,79.5C 28.5,79.5 27.5,79.5 26.5,79.5C 27.1834,77.8235 28.5168,77.1568 30.5,77.5C 30.2322,79.099 30.5655,80.4324 31.5,81.5 Z"/></g>
<g><path style="opacity:1" fill="#988e6a" d="M 44.5,75.5 C 45.1171,80.2695 45.7838,84.9362 46.5,89.5C 46.5,92.5 46.5,95.5 46.5,98.5C 46.4921,101.545 46.1587,104.545 45.5,107.5C 43.8333,107.5 42.1667,107.5 40.5,107.5C 40.5,106.833 40.5,106.167 40.5,105.5C 40.9775,97.8371 41.4775,90.1704 42,82.5C 41.9698,79.6385 42.8031,77.3052 44.5,75.5 Z"/></g>
<g><path style="opacity:1" fill="#421e1b" d="M 53.5,79.5 C 54.1667,79.5 54.8333,79.5 55.5,79.5C 55.9238,88.904 56.5904,98.2373 57.5,107.5C 56.5,107.5 55.5,107.5 54.5,107.5C 53.5064,98.3483 53.1731,89.015 53.5,79.5 Z"/></g>
<g><path style="opacity:1" fill="#ad5257" d="M 59.5,75.5 C 59.5,76.1667 59.5,76.8333 59.5,77.5C 57.5278,86.4401 56.8611,95.7734 57.5,105.5C 59.1667,105.5 60.8333,105.5 62.5,105.5C 62.5,102.167 62.5,98.8333 62.5,95.5C 63.4767,98.2869 63.81,101.287 63.5,104.5C 63.5858,105.496 63.2524,106.329 62.5,107C 60.8659,107.494 59.1992,107.66 57.5,107.5C 56.5904,98.2373 55.9238,88.904 55.5,79.5C 55.5,78.1667 55.5,76.8333 55.5,75.5C 56.8333,75.5 58.1667,75.5 59.5,75.5 Z"/></g>
<g><path style="opacity:1" fill="#842b31" d="M 59.5,75.5 C 60.5,75.8333 61.1667,76.5 61.5,77.5C 61.0618,77.4346 60.7284,77.6012 60.5,78C 62.6716,83.6824 64.3383,89.5157 65.5,95.5C 63.87,93.9739 63.0367,91.9739 63,89.5C 62.5045,91.4727 62.3379,93.4727 62.5,95.5C 61.3467,89.6459 60.3467,83.6459 59.5,77.5C 59.5,76.8333 59.5,76.1667 59.5,75.5 Z"/></g>
<g><path style="opacity:1" fill="#6d262b" d="M 69.5,85.5 C 69.9804,91.2355 69.9804,96.9021 69.5,102.5C 68.8333,102.5 68.5,102.167 68.5,101.5C 68.142,95.7112 67.142,90.0446 65.5,84.5C 66.9621,83.5291 68.2954,83.8624 69.5,85.5 Z"/></g>
<g><path style="opacity:1" fill="#49a0ba" d="M 79.5,80.5 C 80.7251,81.1522 81.3917,82.3189 81.5,84C 80.3165,91.82 79.3165,99.6534 78.5,107.5C 77.5,107.5 76.5,107.5 75.5,107.5C 75.2518,98.4596 75.5851,89.4596 76.5,80.5C 77.5,80.5 78.5,80.5 79.5,80.5 Z"/></g>
<g><path style="opacity:1" fill="#396148" d="M 86.5,85.5 C 86.5,86.1667 86.5,86.8333 86.5,87.5C 86.7128,90.4509 86.0461,93.1175 84.5,95.5C 83.8333,95.5 83.1667,95.5 82.5,95.5C 83.4834,91.9098 84.8167,88.5765 86.5,85.5 Z"/></g>
<g><path style="opacity:1" fill="#30211f" d="M 33.5,81.5 C 33.8333,81.5 34.1667,81.5 34.5,81.5C 34.1082,88.2836 33.1082,94.9503 31.5,101.5C 31.7472,102.713 32.4138,103.38 33.5,103.5C 33.1583,104.338 32.4916,104.672 31.5,104.5C 30.5084,104.672 29.8417,104.338 29.5,103.5C 29.1236,96.9083 30.1236,90.575 32.5,84.5C 32.2627,83.209 32.596,82.209 33.5,81.5 Z"/></g>
<g><path style="opacity:1" fill="#321f1a" d="M 71.5,75.5 C 71.8635,84.2561 71.8635,92.9227 71.5,101.5C 71.5,102.167 71.1667,102.5 70.5,102.5C 70.1667,102.5 69.8333,102.5 69.5,102.5C 69.9804,96.9021 69.9804,91.2355 69.5,85.5C 69.683,83.0637 69.0163,80.897 67.5,79C 68.5,78.6667 69.5,78.3333 70.5,78C 68.2584,76.9926 68.5918,76.1593 71.5,75.5 Z"/></g>
<g><path style="opacity:1" fill="#1b3638" d="M 22.5,79.5 C 22.2155,81.4147 22.5489,83.0813 23.5,84.5C 22.8333,89.1667 22.1667,93.8333 21.5,98.5C 20.7784,98.9175 20.2784,99.5842 20,100.5C 19.51,99.2068 19.3433,97.8734 19.5,96.5C 20.4254,90.7259 21.4254,85.0592 22.5,79.5 Z"/></g>
<g><path style="opacity:1" fill="#747070" d="M 71.5,74.5 C 71.8333,74.5 72.1667,74.5 72.5,74.5C 72.6153,81.3909 72.9486,88.3909 73.5,95.5C 73.9819,98.7209 73.9819,102.054 73.5,105.5C 72.8333,104.167 72.1667,102.833 71.5,101.5C 71.8635,92.9227 71.8635,84.2561 71.5,75.5C 71.5,75.1667 71.5,74.8333 71.5,74.5 Z"/></g>
<g><path style="opacity:1" fill="#36666b" d="M 79.5,80.5 C 80.209,79.596 81.209,79.2627 82.5,79.5C 82.2155,81.4147 82.5489,83.0813 83.5,84.5C 82.9421,87.3443 82.2755,90.1776 81.5,93C 81.528,94.0698 81.8614,94.9032 82.5,95.5C 83.1667,95.5 83.8333,95.5 84.5,95.5C 82.8701,100.081 80.8701,104.414 78.5,108.5C 78.5,108.167 78.5,107.833 78.5,107.5C 79.3165,99.6534 80.3165,91.82 81.5,84C 81.3917,82.3189 80.7251,81.1522 79.5,80.5 Z"/></g>
<g><path style="opacity:1" fill="#56131a" d="M 65.5,95.5 C 65.6741,97.861 66.0074,100.194 66.5,102.5C 66.5,103.167 66.5,103.833 66.5,104.5C 65.5,103.167 64.5,103.167 63.5,104.5C 63.81,101.287 63.4767,98.2869 62.5,95.5C 62.3379,93.4727 62.5045,91.4727 63,89.5C 63.0367,91.9739 63.87,93.9739 65.5,95.5 Z"/></g>
<g><path style="opacity:1" fill="#213d42" d="M 85.5,75.5 C 85.5,76.8333 85.5,78.1667 85.5,79.5C 85.2041,81.403 84.5375,83.0697 83.5,84.5C 82.5489,83.0813 82.2155,81.4147 82.5,79.5C 81.209,79.2627 80.209,79.596 79.5,80.5C 78.5,80.5 77.5,80.5 76.5,80.5C 75.5851,89.4596 75.2518,98.4596 75.5,107.5C 76.5,107.5 77.5,107.5 78.5,107.5C 78.5,107.833 78.5,108.167 78.5,108.5C 78.2648,109.097 77.7648,109.43 77,109.5C 75.6974,109.022 74.5307,108.355 73.5,107.5C 73.5,106.833 73.5,106.167 73.5,105.5C 73.9819,102.054 73.9819,98.7209 73.5,95.5C 74.2125,90.632 74.8792,85.632 75.5,80.5C 79.1922,79.3221 82.5256,77.6555 85.5,75.5 Z"/></g>
<g><path style="opacity:1" fill="#36a6cd" d="M 26.5,79.5 C 27.5,79.5 28.5,79.5 29.5,79.5C 29.8024,87.141 28.8024,94.4744 26.5,101.5C 23.1543,104.213 21.4876,103.213 21.5,98.5C 22.1667,93.8333 22.8333,89.1667 23.5,84.5C 23.5569,83.391 23.8902,82.391 24.5,81.5C 25.1667,80.8333 25.8333,80.1667 26.5,79.5 Z"/></g>
<g><path style="opacity:1" fill="#5a2925" d="M 41.5,71.5 C 42.5,72.8333 43.5,74.1667 44.5,75.5C 42.8031,77.3052 41.9698,79.6385 42,82.5C 41.4775,90.1704 40.9775,97.8371 40.5,105.5C 39.5,105.5 38.5,105.5 37.5,105.5C 37.5,104.5 37.5,103.5 37.5,102.5C 37.9068,93.919 39.2401,85.419 41.5,77C 41.1667,76.1667 40.8333,75.3333 40.5,74.5C 38.1555,79.2192 36.8221,84.2192 36.5,89.5C 34.9261,91.1016 34.2594,93.1016 34.5,95.5C 34.1667,98.1667 33.8333,100.833 33.5,103.5C 32.4138,103.38 31.7472,102.713 31.5,101.5C 33.1082,94.9503 34.1082,88.2836 34.5,81.5C 35.1667,79.5 35.8333,77.5 36.5,75.5C 38.1667,74.1667 39.8333,72.8333 41.5,71.5 Z"/></g>
<g><path style="opacity:1" fill="#cb5059" d="M 36.5,89.5 C 37.4849,93.6344 37.8182,97.9677 37.5,102.5C 35.9174,100.492 34.9174,98.1589 34.5,95.5C 34.2594,93.1016 34.9261,91.1016 36.5,89.5 Z"/></g>
<g><path style="opacity:1" fill="#c8676d" d="M 37.5,102.5 C 37.8182,97.9677 37.4849,93.6344 36.5,89.5C 36.8221,84.2192 38.1555,79.2192 40.5,74.5C 40.8333,75.3333 41.1667,76.1667 41.5,77C 39.2401,85.419 37.9068,93.919 37.5,102.5 Z"/></g>
<g><path style="opacity:1" fill="#9e9181" d="M 50.5,108.5 C 49.5318,110.607 49.1984,112.941 49.5,115.5C 48.2751,110.71 47.6084,105.71 47.5,100.5C 48.2224,96.6092 49.0557,92.6092 50,88.5C 50.0892,93.8931 50.9226,98.3931 52.5,102C 52.1705,104.341 51.5038,106.508 50.5,108.5 Z"/></g>
<g><path style="opacity:1" fill="#dbdfdb" d="M 86.5,87.5 C 86.8333,87.5 87.1667,87.5 87.5,87.5C 87.8174,90.5719 87.4841,93.5719 86.5,96.5C 84.4917,98.8431 83.1583,101.51 82.5,104.5C 84.0985,107.709 83.4318,110.375 80.5,112.5C 79.3044,112.154 79.3044,111.654 80.5,111C 79.6667,110.833 78.8333,110.667 78,110.5C 75.0768,112.118 73.5768,111.118 73.5,107.5C 74.5307,108.355 75.6974,109.022 77,109.5C 77.7648,109.43 78.2648,109.097 78.5,108.5C 80.8701,104.414 82.8701,100.081 84.5,95.5C 86.0461,93.1175 86.7128,90.4509 86.5,87.5 Z"/></g>
<g><path style="opacity:1" fill="#4d7679" d="M 18.5,96.5 C 18.8333,96.5 19.1667,96.5 19.5,96.5C 19.3433,97.8734 19.51,99.2068 20,100.5C 20.2784,99.5842 20.7784,98.9175 21.5,98.5C 21.4876,103.213 23.1543,104.213 26.5,101.5C 26.5858,102.496 26.2524,103.329 25.5,104C 24.2625,104.232 23.2625,104.732 22.5,105.5C 18.8263,103.779 17.4929,100.779 18.5,96.5 Z"/></g>
<g><path style="opacity:1" fill="#c06f76" d="M 34.5,95.5 C 34.9174,98.1589 35.9174,100.492 37.5,102.5C 37.5,103.5 37.5,104.5 37.5,105.5C 36.8333,105.5 36.5,105.833 36.5,106.5C 34.302,106.88 32.6354,106.213 31.5,104.5C 32.4916,104.672 33.1583,104.338 33.5,103.5C 33.8333,100.833 34.1667,98.1667 34.5,95.5 Z"/></g>
<g><path style="opacity:1" fill="#9f8388" d="M 68.5,101.5 C 68.5,102.167 68.8333,102.5 69.5,102.5C 69.8333,102.5 70.1667,102.5 70.5,102.5C 69.791,103.404 68.791,103.737 67.5,103.5C 67.7845,105.415 67.4511,107.081 66.5,108.5C 66.5,107.167 66.5,105.833 66.5,104.5C 66.5,103.833 66.5,103.167 66.5,102.5C 67.1667,102.167 67.8333,101.833 68.5,101.5 Z"/></g>
<g><path style="opacity:1" fill="#242920" d="M 37.5,105.5 C 38.5,105.5 39.5,105.5 40.5,105.5C 40.5,106.167 40.5,106.833 40.5,107.5C 39.2846,110.154 38.2846,112.82 37.5,115.5C 36.701,112.57 36.3677,109.57 36.5,106.5C 36.5,105.833 36.8333,105.5 37.5,105.5 Z"/></g>
<g><path style="opacity:1" fill="#1f2d22" d="M 66.5,104.5 C 66.5,105.833 66.5,107.167 66.5,108.5C 67.3927,114.856 68.3927,121.189 69.5,127.5C 69.5,128.167 69.1667,128.5 68.5,128.5C 67.5031,124.521 66.5031,120.521 65.5,116.5C 65.7845,114.585 65.4511,112.919 64.5,111.5C 62.9555,109.195 60.9555,108.862 58.5,110.5C 57.6236,110.369 56.9569,110.702 56.5,111.5C 57.6527,112.687 57.6527,113.687 56.5,114.5C 55.8333,112.833 55.1667,111.167 54.5,109.5C 54.5,108.833 54.5,108.167 54.5,107.5C 55.5,107.5 56.5,107.5 57.5,107.5C 59.1992,107.66 60.8659,107.494 62.5,107C 63.2524,106.329 63.5858,105.496 63.5,104.5C 64.5,103.167 65.5,103.167 66.5,104.5 Z"/></g>
<g><path style="opacity:1" fill="#212621" d="M 46.5,98.5 C 47.3382,98.8417 47.6716,99.5084 47.5,100.5C 47.6084,105.71 48.2751,110.71 49.5,115.5C 50.627,117.998 51.2937,120.664 51.5,123.5C 51.4892,125.045 51.1558,126.378 50.5,127.5C 49.6288,123.979 48.7955,120.312 48,116.5C 47.3028,114.416 46.1361,112.749 44.5,111.5C 43.6016,110.842 42.6016,110.176 41.5,109.5C 42.9492,108.828 44.2825,108.161 45.5,107.5C 46.1587,104.545 46.4921,101.545 46.5,98.5 Z"/></g>
<g><path style="opacity:1" fill="#174f2e" d="M 64.5,111.5 C 65.4511,112.919 65.7845,114.585 65.5,116.5C 64.448,116.649 63.448,116.483 62.5,116C 64.0368,114.89 64.7035,113.39 64.5,111.5 Z"/></g>
<g><path style="opacity:1" fill="#234837" d="M 44.5,111.5 C 46.1361,112.749 47.3028,114.416 48,116.5C 48.7955,120.312 49.6288,123.979 50.5,127.5C 50.3424,130.902 50.6758,134.236 51.5,137.5C 51.1583,138.338 50.4916,138.672 49.5,138.5C 49.5,138.167 49.5,137.833 49.5,137.5C 48.7491,128.665 47.0825,119.998 44.5,111.5 Z"/></g>
<g><path style="opacity:1" fill="#2a4c3b" d="M 40.5,107.5 C 42.1667,107.5 43.8333,107.5 45.5,107.5C 44.2825,108.161 42.9492,108.828 41.5,109.5C 42.6016,110.176 43.6016,110.842 44.5,111.5C 42.8333,111.5 41.1667,111.5 39.5,111.5C 39.3433,112.873 39.51,114.207 40,115.5C 40.8928,114.289 41.7261,114.289 42.5,115.5C 41.4561,120.469 41.4561,125.469 42.5,130.5C 42.1667,130.5 41.8333,130.5 41.5,130.5C 40.9234,125.277 39.59,120.277 37.5,115.5C 38.2846,112.82 39.2846,110.154 40.5,107.5 Z"/></g>
<g><path style="opacity:1" fill="#efefef" d="M 50.5,108.5 C 51.9587,108.433 53.2921,108.766 54.5,109.5C 55.1667,111.167 55.8333,112.833 56.5,114.5C 56.4126,121.408 58.2459,127.741 62,133.5C 62.662,135.813 63.162,138.146 63.5,140.5C 62.5386,142.265 62.2053,144.265 62.5,146.5C 59.7334,146.142 57.0667,145.475 54.5,144.5C 54.1075,142.716 53.4408,141.05 52.5,139.5C 52.6716,138.508 52.3382,137.842 51.5,137.5C 50.6758,134.236 50.3424,130.902 50.5,127.5C 51.1558,126.378 51.4892,125.045 51.5,123.5C 51.2937,120.664 50.627,117.998 49.5,115.5C 49.1984,112.941 49.5318,110.607 50.5,108.5 Z"/></g>
<g><path style="opacity:1" fill="#4ea47b" d="M 64.5,111.5 C 64.7035,113.39 64.0368,114.89 62.5,116C 63.448,116.483 64.448,116.649 65.5,116.5C 66.5031,120.521 67.5031,124.521 68.5,128.5C 68.5,132.167 68.5,135.833 68.5,139.5C 67.1667,139.5 65.8333,139.5 64.5,139.5C 64.494,134.785 63.994,130.118 63,125.5C 61.8661,129.14 60.8661,128.807 60,124.5C 59.4625,119.829 58.9625,115.162 58.5,110.5C 60.9555,108.862 62.9555,109.195 64.5,111.5 Z"/></g>
<g><path style="opacity:1" fill="#449f75" d="M 44.5,111.5 C 47.0825,119.998 48.7491,128.665 49.5,137.5C 47.8333,137.5 46.1667,137.5 44.5,137.5C 44.8294,134.772 44.1628,132.438 42.5,130.5C 41.4561,125.469 41.4561,120.469 42.5,115.5C 41.7261,114.289 40.8928,114.289 40,115.5C 39.51,114.207 39.3433,112.873 39.5,111.5C 41.1667,111.5 42.8333,111.5 44.5,111.5 Z"/></g>
<g><path style="opacity:1" fill="#365340" d="M 58.5,110.5 C 58.9625,115.162 59.4625,119.829 60,124.5C 60.8661,128.807 61.8661,129.14 63,125.5C 63.994,130.118 64.494,134.785 64.5,139.5C 65.8333,139.5 67.1667,139.5 68.5,139.5C 68.5,135.833 68.5,132.167 68.5,128.5C 69.1667,128.5 69.5,128.167 69.5,127.5C 70.7016,132.689 70.7016,138.023 69.5,143.5C 68.609,142.89 67.609,142.557 66.5,142.5C 66.1667,142.5 65.8333,142.5 65.5,142.5C 65.5,141.167 64.8333,140.5 63.5,140.5C 63.162,138.146 62.662,135.813 62,133.5C 58.2459,127.741 56.4126,121.408 56.5,114.5C 57.6527,113.687 57.6527,112.687 56.5,111.5C 56.9569,110.702 57.6236,110.369 58.5,110.5 Z"/></g>
<g><path style="opacity:1" fill="#5f775c" d="M 41.5,130.5 C 41.8333,130.5 42.1667,130.5 42.5,130.5C 44.1628,132.438 44.8294,134.772 44.5,137.5C 46.1667,137.5 47.8333,137.5 49.5,137.5C 49.5,137.833 49.5,138.167 49.5,138.5C 47.0445,140.138 45.0445,139.805 43.5,137.5C 42.9853,135.106 42.3186,132.772 41.5,130.5 Z"/></g>
<g><path style="opacity:1" fill="#a39a8b" d="M 43.5,137.5 C 45.0445,139.805 47.0445,140.138 49.5,138.5C 50.4916,138.672 51.1583,138.338 51.5,137.5C 52.3382,137.842 52.6716,138.508 52.5,139.5C 50.901,139.232 49.5676,139.566 48.5,140.5C 48.1667,140.5 47.8333,140.5 47.5,140.5C 45.5853,140.216 43.9187,140.549 42.5,141.5C 39.7822,139.577 40.1155,138.244 43.5,137.5 Z"/></g>
<g><path style="opacity:1" fill="#5e3f3b" d="M 48.5,140.5 C 49.5676,139.566 50.901,139.232 52.5,139.5C 53.4408,141.05 54.1075,142.716 54.5,144.5C 54.8333,145.833 55.1667,147.167 55.5,148.5C 53.8185,150.008 51.8185,151.008 49.5,151.5C 49.8333,150.833 50.1667,150.167 50.5,149.5C 52.2517,149.582 53.2517,148.749 53.5,147C 52.3906,144.953 51.7239,142.787 51.5,140.5C 50.5,140.5 49.5,140.5 48.5,140.5 Z"/></g>
<g><path style="opacity:1" fill="#83675e" d="M 72.5,146.5 C 71.7784,146.082 71.2784,145.416 71,144.5C 70.6012,144.728 70.4346,145.062 70.5,145.5C 69.1667,144.833 67.8333,144.167 66.5,143.5C 66.5,143.167 66.5,142.833 66.5,142.5C 67.609,142.557 68.609,142.89 69.5,143.5C 70.8589,142.993 71.8589,141.993 72.5,140.5C 73.2309,142.401 73.2309,144.401 72.5,146.5 Z"/></g>
<g><path style="opacity:1" fill="#8f9885" d="M 63.5,140.5 C 64.8333,140.5 65.5,141.167 65.5,142.5C 63.9876,144.191 62.9876,146.191 62.5,148.5C 60.1667,148.5 57.8333,148.5 55.5,148.5C 55.1667,147.167 54.8333,145.833 54.5,144.5C 57.0667,145.475 59.7334,146.142 62.5,146.5C 62.2053,144.265 62.5386,142.265 63.5,140.5 Z"/></g>
<g><path style="opacity:1" fill="#409584" d="M 28.5,146.5 C 29.2297,148.045 30.563,148.878 32.5,149C 30.1218,149.511 27.7885,150.178 25.5,151C 26.756,151.417 27.4226,152.25 27.5,153.5C 26.5,153.5 25.5,153.5 24.5,153.5C 24.5,152.5 24.5,151.5 24.5,150.5C 19.2902,150.735 14.9568,152.735 11.5,156.5C 11.7947,154.265 11.4614,152.265 10.5,150.5C 10.8417,149.662 11.5084,149.328 12.5,149.5C 13.8175,149.821 15.1508,150.154 16.5,150.5C 20.3255,148.682 24.3255,147.349 28.5,146.5 Z"/></g>
<g><path style="opacity:1" fill="#6e3f3b" d="M 47.5,140.5 C 46.0582,141.82 45.3915,143.486 45.5,145.5C 43.6281,148.582 41.2948,151.249 38.5,153.5C 38.5,153.167 38.5,152.833 38.5,152.5C 39.7515,150.999 40.7515,149.332 41.5,147.5C 44.8419,145.846 45.1752,143.846 42.5,141.5C 43.9187,140.549 45.5853,140.216 47.5,140.5 Z"/></g>
<g><path style="opacity:1" fill="#9f4e4c" d="M 47.5,140.5 C 47.8333,140.5 48.1667,140.5 48.5,140.5C 49.5,140.5 50.5,140.5 51.5,140.5C 51.7239,142.787 52.3906,144.953 53.5,147C 53.2517,148.749 52.2517,149.582 50.5,149.5C 50.6621,147.473 50.4955,145.473 50,143.5C 48.5295,144.267 47.0295,144.933 45.5,145.5C 45.3915,143.486 46.0582,141.82 47.5,140.5 Z"/></g>
<g><path style="opacity:1" fill="#90b2b6" d="M 29.5,145.5 C 28.8333,145.5 28.5,145.833 28.5,146.5C 24.3255,147.349 20.3255,148.682 16.5,150.5C 15.1508,150.154 13.8175,149.821 12.5,149.5C 15.4686,147.693 18.8019,146.193 22.5,145C 25.0385,144.204 27.3718,144.371 29.5,145.5 Z"/></g>
<g><path style="opacity:1" fill="#682c23" d="M 72.5,146.5 C 73.1667,146.5 73.8333,146.5 74.5,146.5C 74.7376,148.404 75.7376,149.738 77.5,150.5C 77.5,151.167 77.5,151.833 77.5,152.5C 74.1447,151.145 71.8114,148.811 70.5,145.5C 70.4346,145.062 70.6012,144.728 71,144.5C 71.2784,145.416 71.7784,146.082 72.5,146.5 Z"/></g>
<g><path style="opacity:1" fill="#b0b694" d="M 74.5,146.5 C 76.8568,146.337 79.1902,146.503 81.5,147C 83.4257,147.422 84.4257,148.589 84.5,150.5C 83.1667,150.5 81.8333,150.5 80.5,150.5C 79.5,150.5 78.5,150.5 77.5,150.5C 75.7376,149.738 74.7376,148.404 74.5,146.5 Z"/></g>
<g><path style="opacity:1" fill="#d15a64" d="M 50.5,149.5 C 46.9994,150.395 43.9994,152.062 41.5,154.5C 40.1417,155.626 38.8084,155.626 37.5,154.5C 37.6236,153.893 37.9569,153.56 38.5,153.5C 41.2948,151.249 43.6281,148.582 45.5,145.5C 47.0295,144.933 48.5295,144.267 50,143.5C 50.4955,145.473 50.6621,147.473 50.5,149.5 Z"/></g>
<g><path style="opacity:1" fill="#466d57" d="M 29.5,145.5 C 33.4432,146.486 37.4432,147.152 41.5,147.5C 40.7515,149.332 39.7515,150.999 38.5,152.5C 36.8235,153.183 36.1568,154.517 36.5,156.5C 35.5386,154.735 35.2053,152.735 35.5,150.5C 32.9896,151.783 30.3229,152.783 27.5,153.5C 27.4226,152.25 26.756,151.417 25.5,151C 27.7885,150.178 30.1218,149.511 32.5,149C 30.563,148.878 29.2297,148.045 28.5,146.5C 28.5,145.833 28.8333,145.5 29.5,145.5 Z"/></g>
<g><path style="opacity:1" fill="#74302f" d="M 50.5,149.5 C 50.1667,150.167 49.8333,150.833 49.5,151.5C 48.8333,151.833 48.1667,152.167 47.5,152.5C 45.5786,153.363 43.5786,154.029 41.5,154.5C 43.9994,152.062 46.9994,150.395 50.5,149.5 Z"/></g>
<g><path style="opacity:1" fill="#603330" d="M 65.5,142.5 C 65.8333,142.5 66.1667,142.5 66.5,142.5C 66.5,142.833 66.5,143.167 66.5,143.5C 64.8325,145.479 64.1658,147.812 64.5,150.5C 68.4592,150.147 71.1258,151.813 72.5,155.5C 71.8333,155.5 71.1667,155.5 70.5,155.5C 69.7377,153.738 68.4044,152.738 66.5,152.5C 65.8333,152.5 65.1667,152.5 64.5,152.5C 64.5,151.833 64.1667,151.5 63.5,151.5C 62.8902,150.609 62.5569,149.609 62.5,148.5C 62.9876,146.191 63.9876,144.191 65.5,142.5 Z"/></g>
<g><path style="opacity:1" fill="#cc5866" d="M 66.5,143.5 C 67.8333,144.167 69.1667,144.833 70.5,145.5C 71.8114,148.811 74.1447,151.145 77.5,152.5C 78.0283,153.847 78.195,155.181 78,156.5C 76.3005,155.594 74.4672,155.261 72.5,155.5C 71.1258,151.813 68.4592,150.147 64.5,150.5C 64.1658,147.812 64.8325,145.479 66.5,143.5 Z"/></g>
<g><path style="opacity:1" fill="#3f583a" d="M 55.5,148.5 C 57.8333,148.5 60.1667,148.5 62.5,148.5C 62.5569,149.609 62.8902,150.609 63.5,151.5C 61.0504,151.298 58.717,151.631 56.5,152.5C 53.4261,152.873 50.4261,153.539 47.5,154.5C 47.5,153.833 47.5,153.167 47.5,152.5C 48.1667,152.167 48.8333,151.833 49.5,151.5C 51.8185,151.008 53.8185,150.008 55.5,148.5 Z"/></g>
<g><path style="opacity:1" fill="#2f3723" d="M 77.5,150.5 C 78.5,150.5 79.5,150.5 80.5,150.5C 81.6085,151.29 82.9419,151.79 84.5,152C 83.5842,152.278 82.9175,152.778 82.5,153.5C 82.5,154.167 82.1667,154.5 81.5,154.5C 79.9382,154.267 78.6049,153.6 77.5,152.5C 77.5,151.833 77.5,151.167 77.5,150.5 Z"/></g>
<g><path style="opacity:1" fill="#9f9181" d="M 66.5,152.5 C 68.4044,152.738 69.7377,153.738 70.5,155.5C 70.44,156.043 70.1067,156.376 69.5,156.5C 68.4756,155.148 67.4756,153.815 66.5,152.5 Z"/></g>
<g><path style="opacity:1" fill="#93af7b" d="M 63.5,151.5 C 64.1667,151.5 64.5,151.833 64.5,152.5C 62.7619,152.172 61.0952,152.839 59.5,154.5C 59.8039,155.15 60.1373,155.817 60.5,156.5C 57.2638,157.941 54.2638,157.608 51.5,155.5C 53.1446,154.304 54.8113,153.304 56.5,152.5C 58.717,151.631 61.0504,151.298 63.5,151.5 Z"/></g>
<g><path style="opacity:1" fill="#393525" d="M 38.5,152.5 C 38.5,152.833 38.5,153.167 38.5,153.5C 37.9569,153.56 37.6236,153.893 37.5,154.5C 38.8084,155.626 40.1417,155.626 41.5,154.5C 43.5786,154.029 45.5786,153.363 47.5,152.5C 47.5,153.167 47.5,153.833 47.5,154.5C 46.0048,154.989 44.6715,155.655 43.5,156.5C 41.059,157.756 38.7257,157.756 36.5,156.5C 36.1568,154.517 36.8235,153.183 38.5,152.5 Z"/></g>
<g><path style="opacity:1" fill="#5c3f2c" d="M 77.5,152.5 C 78.6049,153.6 79.9382,154.267 81.5,154.5C 81.1436,156.19 80.1436,157.19 78.5,157.5C 77.5,157.5 76.5,157.5 75.5,157.5C 74.5,156.833 73.5,156.167 72.5,155.5C 74.4672,155.261 76.3005,155.594 78,156.5C 78.195,155.181 78.0283,153.847 77.5,152.5 Z"/></g>
<g><path style="opacity:1" fill="#4e8e67" d="M 56.5,152.5 C 54.8113,153.304 53.1446,154.304 51.5,155.5C 54.2638,157.608 57.2638,157.941 60.5,156.5C 60.1373,155.817 59.8039,155.15 59.5,154.5C 61.5,154.5 63.5,154.5 65.5,154.5C 65.5,155.5 65.5,156.5 65.5,157.5C 67.9892,157.298 70.3225,157.798 72.5,159C 67.8452,159.499 63.1785,159.666 58.5,159.5C 53.5783,158.72 48.5783,157.72 43.5,156.5C 44.6715,155.655 46.0048,154.989 47.5,154.5C 50.4261,153.539 53.4261,152.873 56.5,152.5 Z"/></g>
<g><path style="opacity:1" fill="#409f7a" d="M 27.5,153.5 C 30.3229,152.783 32.9896,151.783 35.5,150.5C 35.2053,152.735 35.5386,154.735 36.5,156.5C 38.7257,157.756 41.059,157.756 43.5,156.5C 48.5783,157.72 53.5783,158.72 58.5,159.5C 56.1667,159.5 53.8333,159.5 51.5,159.5C 38.1667,159.5 24.8333,159.5 11.5,159.5C 11.5,158.5 11.5,157.5 11.5,156.5C 14.9568,152.735 19.2902,150.735 24.5,150.5C 24.5,151.5 24.5,152.5 24.5,153.5C 25.5,153.5 26.5,153.5 27.5,153.5 Z"/></g>
<g><path style="opacity:1" fill="#aebd97" d="M 82.5,153.5 C 84.2252,153.843 84.7252,154.843 84,156.5C 82.1363,159.207 79.6363,160.041 76.5,159C 77.4158,158.722 78.0825,158.222 78.5,157.5C 80.1436,157.19 81.1436,156.19 81.5,154.5C 82.1667,154.5 82.5,154.167 82.5,153.5 Z"/></g>
<g><path style="opacity:1" fill="#4e6e5c" d="M 64.5,152.5 C 65.1667,152.5 65.8333,152.5 66.5,152.5C 67.4756,153.815 68.4756,155.148 69.5,156.5C 70.1067,156.376 70.44,156.043 70.5,155.5C 71.1667,155.5 71.8333,155.5 72.5,155.5C 73.5,156.167 74.5,156.833 75.5,157.5C 75.5,158.5 75.5,159.5 75.5,160.5C 69.9738,160.179 64.6405,160.512 59.5,161.5C 56.8333,161.5 54.1667,161.5 51.5,161.5C 51.5,160.833 51.5,160.167 51.5,159.5C 53.8333,159.5 56.1667,159.5 58.5,159.5C 63.1785,159.666 67.8452,159.499 72.5,159C 70.3225,157.798 67.9892,157.298 65.5,157.5C 65.5,156.5 65.5,155.5 65.5,154.5C 63.5,154.5 61.5,154.5 59.5,154.5C 61.0952,152.839 62.7619,152.172 64.5,152.5 Z"/></g>
<g><path style="opacity:1" fill="#71806c" d="M 80.5,150.5 C 81.8333,150.5 83.1667,150.5 84.5,150.5C 87.4377,154.392 86.771,157.892 82.5,161C 74.8406,161.5 67.1739,161.666 59.5,161.5C 64.6405,160.512 69.9738,160.179 75.5,160.5C 75.5,159.5 75.5,158.5 75.5,157.5C 76.5,157.5 77.5,157.5 78.5,157.5C 78.0825,158.222 77.4158,158.722 76.5,159C 79.6363,160.041 82.1363,159.207 84,156.5C 84.7252,154.843 84.2252,153.843 82.5,153.5C 82.9175,152.778 83.5842,152.278 84.5,152C 82.9419,151.79 81.6085,151.29 80.5,150.5 Z"/></g>
<g><path style="opacity:1" fill="#58887a" d="M 9.5,150.5 C 9.83333,150.5 10.1667,150.5 10.5,150.5C 11.4614,152.265 11.7947,154.265 11.5,156.5C 11.5,157.5 11.5,158.5 11.5,159.5C 24.8333,159.5 38.1667,159.5 51.5,159.5C 51.5,160.167 51.5,160.833 51.5,161.5C 37.8293,161.667 24.1626,161.5 10.5,161C 9.54416,157.606 9.21083,154.106 9.5,150.5 Z"/></g>
</svg>
