<?xml version="1.0" encoding="UTF-8"?>
<!DOCTYPE svg PUBLIC "-//W3C//DTD SVG 1.1//EN" "http://www.w3.org/Graphics/SVG/1.1/DTD/svg11.dtd">
<svg xmlns="http://www.w3.org/2000/svg" version="1.1" width="100px" height="165px" style="shape-rendering:geometricPrecision; text-rendering:geometricPrecision; image-rendering:optimizeQuality; fill-rule:evenodd; clip-rule:evenodd" xmlns:xlink="http://www.w3.org/1999/xlink">
<g><path style="opacity:1" fill="#f8f9f8" d="M -0.5,-0.5 C 32.8333,-0.5 66.1667,-0.5 99.5,-0.5C 99.5,54.5 99.5,109.5 99.5,164.5C 68.1667,164.5 36.8333,164.5 5.5,164.5C 5.53859,163.244 5.03859,162.244 4,161.5C 3.19151,146.967 3.35818,132.467 4.5,118C 3.98279,115.923 3.31612,113.923 2.5,112C 4.38735,104.639 4.88735,97.139 4,89.5C 3.66667,89.1667 3.33333,88.8333 3,88.5C 1.88732,89.305 0.72065,89.9717 -0.5,90.5C -0.5,60.1667 -0.5,29.8333 -0.5,-0.5 Z"/></g>
<g><path style="opacity:1" fill="#b89487" d="M 43.5,8.5 C 43.5,9.83333 43.5,11.1667 43.5,12.5C 41.5853,12.7845 39.9187,12.4511 38.5,11.5C 36.7354,10.5386 34.7354,10.2053 32.5,10.5C 36.0606,9.76978 39.7272,9.10311 43.5,8.5 Z"/></g>
<g><path style="opacity:1" fill="#995056" d="M 32.5,10.5 C 34.7354,10.2053 36.7354,10.5386 38.5,11.5C 37.2652,11.7214 36.2652,12.3881 35.5,13.5C 33.6043,12.3606 32.6043,13.0272 32.5,15.5C 31.1667,13.8333 31.1667,12.1667 32.5,10.5 Z"/></g>
<g><path style="opacity:1" fill="#c65e5c" d="M 43.5,8.5 C 44.5,8.5 45.5,8.5 46.5,8.5C 46.8333,8.5 47.1667,8.5 47.5,8.5C 47.5,8.83333 47.5,9.16667 47.5,9.5C 47.6715,11.4918 47.0049,13.1585 45.5,14.5C 41.126,15.0665 36.7927,15.3998 32.5,15.5C 32.6043,13.0272 33.6043,12.3606 35.5,13.5C 36.2652,12.3881 37.2652,11.7214 38.5,11.5C 39.9187,12.4511 41.5853,12.7845 43.5,12.5C 43.5,11.1667 43.5,9.83333 43.5,8.5 Z"/></g>
<g><path style="opacity:1" fill="#97493e" d="M 47.5,9.5 C 48.7562,9.46141 49.7562,9.96141 50.5,11C 49.0889,13.0822 47.4222,14.9155 45.5,16.5C 42.7212,16.2786 40.0545,16.612 37.5,17.5C 35.9582,16.6993 34.2915,16.366 32.5,16.5C 32.5,16.1667 32.5,15.8333 32.5,15.5C 36.7927,15.3998 41.126,15.0665 45.5,14.5C 47.0049,13.1585 47.6715,11.4918 47.5,9.5 Z"/></g>
<g><path style="opacity:1" fill="#988c74" d="M 53.5,9.5 C 56.6574,12.6543 58.9907,16.321 60.5,20.5C 60.5654,20.9382 60.3988,21.2716 60,21.5C 59.7679,20.2625 59.2679,19.2625 58.5,18.5C 56.1667,17.8333 53.8333,17.1667 51.5,16.5C 52.8654,14.4091 53.5321,12.0758 53.5,9.5 Z"/></g>
<g><path style="opacity:1" fill="#9e9163" d="M 69.5,23.5 C 68.8485,22.9094 68.1818,22.2427 67.5,21.5C 66.8182,22.2427 66.1515,22.9094 65.5,23.5C 65.3601,21.8762 66.0267,20.7096 67.5,20C 66.8333,18.6667 65.8333,17.6667 64.5,17C 66.421,15.9691 66.421,14.4691 64.5,12.5C 63.549,13.3256 62.549,13.4922 61.5,13C 62.8331,11.1598 62.6665,10.6598 61,11.5C 60.5,10.5 60,9.5 59.5,8.5C 58.7261,7.28882 57.8928,7.28882 57,8.5C 56.6667,7.83333 56.3333,7.16667 56,6.5C 54.583,7.07794 53.7496,8.07794 53.5,9.5C 51.5648,8.85048 49.5648,8.51715 47.5,8.5C 47.1667,8.5 46.8333,8.5 46.5,8.5C 49.6689,6.73613 53.0022,5.06946 56.5,3.5C 57.3857,4.32496 57.719,5.32496 57.5,6.5C 63.8919,7.88365 68.5585,11.5503 71.5,17.5C 71.1217,19.7165 70.455,21.7165 69.5,23.5 Z"/></g>
<g><path style="opacity:1" fill="#d5c06e" d="M 65.5,23.5 C 64.3406,21.7497 62.674,20.7497 60.5,20.5C 58.9907,16.321 56.6574,12.6543 53.5,9.5C 53.7496,8.07794 54.583,7.07794 56,6.5C 56.3333,7.16667 56.6667,7.83333 57,8.5C 57.8928,7.28882 58.7261,7.28882 59.5,8.5C 60,9.5 60.5,10.5 61,11.5C 62.6665,10.6598 62.8331,11.1598 61.5,13C 62.549,13.4922 63.549,13.3256 64.5,12.5C 66.421,14.4691 66.421,15.9691 64.5,17C 65.8333,17.6667 66.8333,18.6667 67.5,20C 66.0267,20.7096 65.3601,21.8762 65.5,23.5 Z"/></g>
<g><path style="opacity:1" fill="#7b6761" d="M 32.5,16.5 C 34.2915,16.366 35.9582,16.6993 37.5,17.5C 38.8333,19.1667 38.8333,20.8333 37.5,22.5C 37.5,23.1667 37.5,23.8333 37.5,24.5C 36.2878,26.2637 36.6212,27.9303 38.5,29.5C 39.782,28.0416 39.782,26.7082 38.5,25.5C 38.8333,24.8333 39.1667,24.1667 39.5,23.5C 40.5783,25.5394 41.5783,27.706 42.5,30C 41.244,30.4169 40.5774,31.2502 40.5,32.5C 38.544,30.8249 37.2107,31.1582 36.5,33.5C 35.7171,31.6568 35.0505,29.6568 34.5,27.5C 36.3424,23.1436 35.6757,19.4769 32.5,16.5 Z"/></g>
<g><path style="opacity:1" fill="#331d19" d="M 39.5,23.5 C 39.1667,24.1667 38.8333,24.8333 38.5,25.5C 37.8333,25.5 37.5,25.1667 37.5,24.5C 37.5,23.8333 37.5,23.1667 37.5,22.5C 38.6226,21.2426 39.2893,21.5759 39.5,23.5 Z"/></g>
<g><path style="opacity:1" fill="#cfcbad" d="M 58.5,18.5 C 59.2679,19.2625 59.7679,20.2625 60,21.5C 60.3988,21.2716 60.5654,20.9382 60.5,20.5C 62.674,20.7497 64.3406,21.7497 65.5,23.5C 66.1515,22.9094 66.8182,22.2427 67.5,21.5C 68.1818,22.2427 68.8485,22.9094 69.5,23.5C 66.6447,24.8032 63.6447,24.8032 60.5,23.5C 58.9951,22.1585 58.3285,20.4918 58.5,18.5 Z"/></g>
<g><path style="opacity:1" fill="#dfc9c0" d="M 37.5,24.5 C 37.5,25.1667 37.8333,25.5 38.5,25.5C 39.782,26.7082 39.782,28.0416 38.5,29.5C 36.6212,27.9303 36.2878,26.2637 37.5,24.5 Z"/></g>
<g><path style="opacity:1" fill="#2f9ec7" d="M 19.5,9.5 C 15.8979,9.67796 15.8979,10.678 19.5,12.5C 20.7125,15.0932 22.0458,17.5932 23.5,20C 24.6462,22.8667 24.6462,25.7 23.5,28.5C 24.2601,32.0199 25.2601,35.3532 26.5,38.5C 27.7384,40.2143 28.405,42.2143 28.5,44.5C 28.5,45.5 28.5,46.5 28.5,47.5C 27.325,47.719 26.325,47.3857 25.5,46.5C 21.9081,42.5859 19.7414,37.9193 19,32.5C 18,31.5 17,30.5 16,29.5C 15.8665,26.4749 14.8665,23.8082 13,21.5C 12.6608,19.1656 12.8275,16.8322 13.5,14.5C 13.3601,12.9704 12.6935,11.9704 11.5,11.5C 11.4142,10.5041 11.7476,9.67076 12.5,9C 15.0385,8.20419 17.3718,8.37086 19.5,9.5 Z"/></g>
<g><path style="opacity:1" fill="#2e4c66" d="M 19.5,9.5 C 22.3943,13.5785 25.561,17.5785 29,21.5C 29.7033,23.9291 29.5366,26.2625 28.5,28.5C 27.5661,31.6557 26.8994,34.9891 26.5,38.5C 25.2601,35.3532 24.2601,32.0199 23.5,28.5C 24.6462,25.7 24.6462,22.8667 23.5,20C 22.0458,17.5932 20.7125,15.0932 19.5,12.5C 15.8979,10.678 15.8979,9.67796 19.5,9.5 Z"/></g>
<g><path style="opacity:1" fill="#477286" d="M 11.5,11.5 C 12.6935,11.9704 13.3601,12.9704 13.5,14.5C 12.8275,16.8322 12.6608,19.1656 13,21.5C 14.8665,23.8082 15.8665,26.4749 16,29.5C 17,30.5 18,31.5 19,32.5C 19.7414,37.9193 21.9081,42.5859 25.5,46.5C 26.325,47.3857 27.325,47.719 28.5,47.5C 28.5,46.5 28.5,45.5 28.5,44.5C 29.9559,47.0675 31.2892,49.7342 32.5,52.5C 33.7093,57.4603 34.7093,62.4603 35.5,67.5C 35.1667,67.5 34.8333,67.5 34.5,67.5C 33.5,67.5 32.5,67.5 31.5,67.5C 31.5,66.1667 31.5,64.8333 31.5,63.5C 31.3751,57.0666 28.7084,52.0666 23.5,48.5C 18.8673,39.7933 14.7006,30.7933 11,21.5C 11.0455,18.1996 11.2122,14.8663 11.5,11.5 Z"/></g>
<g><path style="opacity:1" fill="#756c67" d="M 46.5,32.5 C 46.5,31.5 46.5,30.5 46.5,29.5C 47.1174,29.6107 47.6174,29.944 48,30.5C 48.5,29 49,27.5 49.5,26C 48.394,24.1178 48.394,22.2844 49.5,20.5C 50.5377,23.3281 51.871,25.9948 53.5,28.5C 52.7261,29.7112 51.8928,29.7112 51,28.5C 50.2079,30.6437 48.7079,31.977 46.5,32.5 Z"/></g>
<g><path style="opacity:1" fill="#423a32" d="M 47.5,9.5 C 47.5,9.16667 47.5,8.83333 47.5,8.5C 49.5648,8.51715 51.5648,8.85048 53.5,9.5C 53.5321,12.0758 52.8654,14.4091 51.5,16.5C 52.6586,20.733 53.9919,24.8996 55.5,29C 55.1734,30.8133 54.5067,32.48 53.5,34C 55.916,35.5261 58.2493,37.1928 60.5,39C 59.2068,39.49 57.8734,39.6567 56.5,39.5C 54.5,38.1667 52.5,36.8333 50.5,35.5C 48.8053,34.9886 47.1386,34.3219 45.5,33.5C 45.6236,32.8933 45.9569,32.56 46.5,32.5C 48.7079,31.977 50.2079,30.6437 51,28.5C 51.8928,29.7112 52.7261,29.7112 53.5,28.5C 51.871,25.9948 50.5377,23.3281 49.5,20.5C 48.394,22.2844 48.394,24.1178 49.5,26C 49,27.5 48.5,29 48,30.5C 47.6174,29.944 47.1174,29.6107 46.5,29.5C 47.4184,25.8782 47.4184,22.2116 46.5,18.5C 43.075,18.6332 42.7417,17.9665 45.5,16.5C 47.4222,14.9155 49.0889,13.0822 50.5,11C 49.7562,9.96141 48.7562,9.46141 47.5,9.5 Z"/></g>
<g><path style="opacity:1" fill="#ceb192" d="M 45.5,16.5 C 42.7417,17.9665 43.075,18.6332 46.5,18.5C 47.4184,22.2116 47.4184,25.8782 46.5,29.5C 46.5,30.5 46.5,31.5 46.5,32.5C 45.9569,32.56 45.6236,32.8933 45.5,33.5C 47.1386,34.3219 48.8053,34.9886 50.5,35.5C 50.5,36.5 50.5,37.5 50.5,38.5C 50.1667,38.5 49.8333,38.5 49.5,38.5C 47.6458,39.241 45.9791,40.241 44.5,41.5C 44.5,40.8333 44.1667,40.5 43.5,40.5C 42.4884,39.1283 41.4884,37.795 40.5,36.5C 40.5,35.1667 40.5,33.8333 40.5,32.5C 40.5774,31.2502 41.244,30.4169 42.5,30C 41.5783,27.706 40.5783,25.5394 39.5,23.5C 39.2893,21.5759 38.6226,21.2426 37.5,22.5C 38.8333,20.8333 38.8333,19.1667 37.5,17.5C 40.0545,16.612 42.7212,16.2786 45.5,16.5 Z"/></g>
<g><path style="opacity:1" fill="#7b5a3e" d="M 41.5,20.5 C 42.5,20.5 43.5,20.5 44.5,20.5C 44.5,21.8333 44.5,23.1667 44.5,24.5C 43.5,24.5 42.5,24.5 41.5,24.5C 41.5,23.1667 41.5,21.8333 41.5,20.5 Z"/></g>
<g><path style="opacity:1" fill="#2b2825" d="M 73.5,30.5 C 74.6129,31.9464 74.7796,33.6131 74,35.5C 73.7216,34.5842 73.2216,33.9175 72.5,33.5C 72.2627,32.209 72.596,31.209 73.5,30.5 Z"/></g>
<g><path style="opacity:1" fill="#847a74" d="M 82.5,33.5 C 79.8797,33.991 77.5463,35.1577 75.5,37C 78.6061,36.5612 80.6061,38.0612 81.5,41.5C 77.3791,40.6581 74.3791,41.9915 72.5,45.5C 71.5,45.5 70.5,45.5 69.5,45.5C 69.7373,46.791 69.404,47.791 68.5,48.5C 68.1667,48.5 67.8333,48.5 67.5,48.5C 68.9559,46.1988 69.2892,43.8655 68.5,41.5C 69.4822,40.8592 70.4822,40.1925 71.5,39.5C 72.5,42.1667 73.5,42.1667 74.5,39.5C 73.3504,36.6795 72.1838,36.3462 71,38.5C 70.5172,37.552 70.3505,36.552 70.5,35.5C 71.1667,34.8333 71.8333,34.1667 72.5,33.5C 73.2216,33.9175 73.7216,34.5842 74,35.5C 74.7796,33.6131 74.6129,31.9464 73.5,30.5C 73.3691,29.6236 73.7025,28.9569 74.5,28.5C 75.9744,29.4363 76.9744,30.7697 77.5,32.5C 79.0453,33.4519 80.712,33.7852 82.5,33.5 Z"/></g>
<g><path style="opacity:1" fill="#172d39" d="M 28.5,28.5 C 29.7934,31.6791 30.4601,35.0124 30.5,38.5C 29.9569,38.56 29.6236,38.8933 29.5,39.5C 30.376,40.2508 31.376,40.7508 32.5,41C 31.6634,42.0113 31.33,43.1779 31.5,44.5C 32.0916,47.1272 32.4249,49.7938 32.5,52.5C 31.2892,49.7342 29.9559,47.0675 28.5,44.5C 28.405,42.2143 27.7384,40.2143 26.5,38.5C 26.8994,34.9891 27.5661,31.6557 28.5,28.5 Z"/></g>
<g><path style="opacity:1" fill="#332d2a" d="M 40.5,32.5 C 40.5,33.8333 40.5,35.1667 40.5,36.5C 39.391,36.4431 38.391,36.1098 37.5,35.5C 37.1667,34.8333 36.8333,34.1667 36.5,33.5C 37.2107,31.1582 38.544,30.8249 40.5,32.5 Z"/></g>
<g><path style="opacity:1" fill="#4a4641" d="M 87.5,39.5 C 86.4168,39.4606 85.4168,39.1272 84.5,38.5C 83.8589,39.9935 82.8589,40.9935 81.5,41.5C 80.6061,38.0612 78.6061,36.5612 75.5,37C 77.5463,35.1577 79.8797,33.991 82.5,33.5C 82.281,32.325 82.6143,31.325 83.5,30.5C 84.1667,32.1667 84.8333,33.8333 85.5,35.5C 86.891,34.3554 88.2243,34.3554 89.5,35.5C 88.2889,36.7202 88.2889,37.8869 89.5,39C 88.9056,39.4643 88.2389,39.631 87.5,39.5 Z"/></g>
<g><path style="opacity:1" fill="#4fa280" d="M 40.5,41.5 C 39.5977,43.3407 38.2644,44.674 36.5,45.5C 36.1231,43.742 35.4565,42.0754 34.5,40.5C 37.0685,37.7934 39.0685,38.1267 40.5,41.5 Z"/></g>
<g><path style="opacity:1" fill="#5a8168" d="M 37.5,35.5 C 38.391,36.1098 39.391,36.4431 40.5,36.5C 41.4884,37.795 42.4884,39.1283 43.5,40.5C 42.391,40.5569 41.391,40.8902 40.5,41.5C 39.0685,38.1267 37.0685,37.7934 34.5,40.5C 35.4565,42.0754 36.1231,43.742 36.5,45.5C 34.9826,45.4894 33.8159,44.8228 33,43.5C 32.6012,43.7284 32.4346,44.0618 32.5,44.5C 32.1667,44.5 31.8333,44.5 31.5,44.5C 31.33,43.1779 31.6634,42.0113 32.5,41C 31.376,40.7508 30.376,40.2508 29.5,39.5C 29.6236,38.8933 29.9569,38.56 30.5,38.5C 33.3682,39.3088 35.7016,38.3088 37.5,35.5 Z"/></g>
<g><path style="opacity:1" fill="#3d5532" d="M 43.5,40.5 C 44.1667,40.5 44.5,40.8333 44.5,41.5C 44.7373,42.791 44.404,43.791 43.5,44.5C 42.4402,46.0433 40.9402,47.0433 39,47.5C 37.699,47.3613 36.8656,46.6946 36.5,45.5C 38.2644,44.674 39.5977,43.3407 40.5,41.5C 41.391,40.8902 42.391,40.5569 43.5,40.5 Z"/></g>
<g><path style="opacity:1" fill="#484034" d="M 68.5,41.5 C 69.2892,43.8655 68.9559,46.1988 67.5,48.5C 67.3178,50.6746 66.6511,52.6746 65.5,54.5C 65.8457,55.8492 66.179,57.1825 66.5,58.5C 64.9735,57.5081 64.3068,56.0081 64.5,54C 65.7058,50.2721 66.5392,46.4388 67,42.5C 67.3826,41.944 67.8826,41.6107 68.5,41.5 Z"/></g>
<g><path style="opacity:1" fill="#857d73" d="M 87.5,39.5 C 86.0998,40.1001 85.0998,41.1001 84.5,42.5C 83.1667,42.5 82.5,43.1667 82.5,44.5C 80.8212,44.2852 79.8212,44.9519 79.5,46.5C 78.1667,46.8333 76.8333,47.1667 75.5,47.5C 76.3007,45.9582 76.634,44.2915 76.5,42.5C 78.4147,42.7845 80.0813,42.4511 81.5,41.5C 82.8589,40.9935 83.8589,39.9935 84.5,38.5C 85.4168,39.1272 86.4168,39.4606 87.5,39.5 Z"/></g>
<g><path style="opacity:1" fill="#667862" d="M 50.5,35.5 C 52.5,36.8333 54.5,38.1667 56.5,39.5C 56.5,39.8333 56.5,40.1667 56.5,40.5C 57.4558,41.6594 58.4558,42.8261 59.5,44C 58.5765,45.8114 57.7431,45.6447 57,43.5C 55.1413,44.5791 53.6413,45.9124 52.5,47.5C 51.7777,46.4489 50.7777,45.7822 49.5,45.5C 48.791,44.596 47.791,44.2627 46.5,44.5C 46.5,50.8333 46.5,57.1667 46.5,63.5C 48.0757,66.2148 47.7424,68.5481 45.5,70.5C 45.8235,63.9779 45.4902,57.6446 44.5,51.5C 44.5,50.8333 44.5,50.1667 44.5,49.5C 44.634,47.7085 44.3007,46.0418 43.5,44.5C 44.404,43.791 44.7373,42.791 44.5,41.5C 45.9791,40.241 47.6458,39.241 49.5,38.5C 47.7994,41.7021 48.7994,43.7021 52.5,44.5C 55.4879,41.3103 54.8212,39.3103 50.5,38.5C 50.5,37.5 50.5,36.5 50.5,35.5 Z"/></g>
<g><path style="opacity:1" fill="#55a07b" d="M 49.5,38.5 C 49.8333,38.5 50.1667,38.5 50.5,38.5C 54.8212,39.3103 55.4879,41.3103 52.5,44.5C 48.7994,43.7021 47.7994,41.7021 49.5,38.5 Z"/></g>
<g><path style="opacity:1" fill="#9a9388" d="M 70.5,35.5 C 70.3505,36.552 70.5172,37.552 71,38.5C 72.1838,36.3462 73.3504,36.6795 74.5,39.5C 73.5,42.1667 72.5,42.1667 71.5,39.5C 70.4822,40.1925 69.4822,40.8592 68.5,41.5C 67.8826,41.6107 67.3826,41.944 67,42.5C 66.5392,46.4388 65.7058,50.2721 64.5,54C 64.3068,56.0081 64.9735,57.5081 66.5,58.5C 66.1667,59.5 65.5,60.1667 64.5,60.5C 64.0223,58.0829 63.0223,55.9162 61.5,54C 63.3528,52.2691 64.0195,50.4358 63.5,48.5C 62.4164,49.6651 61.5831,50.9984 61,52.5C 58.6308,51.0726 58.1308,49.2393 59.5,47C 62.3832,47.7954 63.8832,46.6287 64,43.5C 63.3457,44.6956 62.8457,44.6956 62.5,43.5C 63.2634,42.2807 64.2634,41.2807 65.5,40.5C 65.3764,39.8933 65.0431,39.56 64.5,39.5C 66.4632,38.1798 68.4632,36.8465 70.5,35.5 Z"/></g>
<g><path style="opacity:1" fill="#4a4539" d="M 64.5,39.5 C 65.0431,39.56 65.3764,39.8933 65.5,40.5C 64.2634,41.2807 63.2634,42.2807 62.5,43.5C 62.8457,44.6956 63.3457,44.6956 64,43.5C 63.8832,46.6287 62.3832,47.7954 59.5,47C 58.1308,49.2393 58.6308,51.0726 61,52.5C 61.5831,50.9984 62.4164,49.6651 63.5,48.5C 64.0195,50.4358 63.3528,52.2691 61.5,54C 63.0223,55.9162 64.0223,58.0829 64.5,60.5C 64.8431,63.6533 64.5098,65.9866 63.5,67.5C 62.3379,62.8516 61.1712,58.1849 60,53.5C 59.5357,54.0944 59.369,54.7611 59.5,55.5C 58.8826,55.6107 58.3826,55.944 58,56.5C 57.5899,55.0993 57.0899,53.766 56.5,52.5C 58.2329,48.084 56.8995,46.4174 52.5,47.5C 53.6413,45.9124 55.1413,44.5791 57,43.5C 57.7431,45.6447 58.5765,45.8114 59.5,44C 58.4558,42.8261 57.4558,41.6594 56.5,40.5C 59.2372,40.5987 61.9039,40.2653 64.5,39.5 Z"/></g>
<g><path style="opacity:1" fill="#ded28f" d="M 36.5,45.5 C 36.8656,46.6946 37.699,47.3613 39,47.5C 40.9402,47.0433 42.4402,46.0433 43.5,44.5C 44.3007,46.0418 44.634,47.7085 44.5,49.5C 41.7938,49.4249 39.1272,49.0916 36.5,48.5C 36.5,49.8333 36.5,51.1667 36.5,52.5C 34.7981,50.1595 33.4647,47.4928 32.5,44.5C 32.4346,44.0618 32.6012,43.7284 33,43.5C 33.8159,44.8228 34.9826,45.4894 36.5,45.5 Z"/></g>
<g><path style="opacity:1" fill="#c4b9ac" d="M 81.5,41.5 C 80.0813,42.4511 78.4147,42.7845 76.5,42.5C 76.634,44.2915 76.3007,45.9582 75.5,47.5C 75.5,48.8333 75.5,50.1667 75.5,51.5C 77.8333,51.5 80.1667,51.5 82.5,51.5C 82.7271,49.0672 81.7271,47.4006 79.5,46.5C 79.8212,44.9519 80.8212,44.2852 82.5,44.5C 84.0265,45.4919 84.6932,46.9919 84.5,49C 84.2517,50.7159 83.585,52.2159 82.5,53.5C 83.2458,54.7362 83.5792,56.0695 83.5,57.5C 80.5745,56.3642 77.9078,54.6975 75.5,52.5C 74.914,52.7093 74.414,53.0426 74,53.5C 73.4954,51.4817 72.9954,49.4817 72.5,47.5C 72.5,46.8333 72.5,46.1667 72.5,45.5C 74.3791,41.9915 77.3791,40.6581 81.5,41.5 Z"/></g>
<g><path style="opacity:1" fill="#42362f" d="M 79.5,46.5 C 81.7271,47.4006 82.7271,49.0672 82.5,51.5C 80.1667,51.5 77.8333,51.5 75.5,51.5C 75.5,50.1667 75.5,48.8333 75.5,47.5C 76.8333,47.1667 78.1667,46.8333 79.5,46.5 Z"/></g>
<g><path style="opacity:1" fill="#908c7c" d="M 49.5,45.5 C 50.7777,45.7822 51.7777,46.4489 52.5,47.5C 56.8995,46.4174 58.2329,48.084 56.5,52.5C 54.8356,53.9488 54.0023,55.9488 54,58.5C 53.2917,59.3805 52.4584,60.0472 51.5,60.5C 51.4332,58.5992 51.7665,56.7659 52.5,55C 50.3981,52.1936 49.3981,49.027 49.5,45.5 Z"/></g>
<g><path style="opacity:1" fill="#556b6f" d="M 49.5,45.5 C 49.3981,49.027 50.3981,52.1936 52.5,55C 51.7665,56.7659 51.4332,58.5992 51.5,60.5C 51.5,61.5 51.5,62.5 51.5,63.5C 50.2502,63.4226 49.4169,62.756 49,61.5C 48.5831,62.756 47.7498,63.4226 46.5,63.5C 46.5,57.1667 46.5,50.8333 46.5,44.5C 47.791,44.2627 48.791,44.596 49.5,45.5 Z"/></g>
<g><path style="opacity:1" fill="#513c40" d="M 23.5,48.5 C 28.7084,52.0666 31.3751,57.0666 31.5,63.5C 30.5,63.5 29.5,63.5 28.5,63.5C 28.3541,59.6125 27.6874,55.9458 26.5,52.5C 25.1805,51.0582 23.5138,50.3915 21.5,50.5C 21.8333,49.5 22.5,48.8333 23.5,48.5 Z"/></g>
<g><path style="opacity:1" fill="#deca85" d="M 44.5,51.5 C 45.4902,57.6446 45.8235,63.9779 45.5,70.5C 43.1317,69.1618 40.7984,67.8285 38.5,66.5C 37.9933,62.1405 37.3266,57.8072 36.5,53.5C 39.0996,57.2708 40.7663,61.6042 41.5,66.5C 42.5,66.5 43.5,66.5 44.5,66.5C 44.5,61.5 44.5,56.5 44.5,51.5 Z"/></g>
<g><path style="opacity:1" fill="#f7db6c" d="M 44.5,49.5 C 44.5,50.1667 44.5,50.8333 44.5,51.5C 44.5,56.5 44.5,61.5 44.5,66.5C 43.5,66.5 42.5,66.5 41.5,66.5C 40.7663,61.6042 39.0996,57.2708 36.5,53.5C 36.5,53.1667 36.5,52.8333 36.5,52.5C 36.5,51.1667 36.5,49.8333 36.5,48.5C 39.1272,49.0916 41.7938,49.4249 44.5,49.5 Z"/></g>
<g><path style="opacity:1" fill="#303029" d="M 31.5,44.5 C 31.8333,44.5 32.1667,44.5 32.5,44.5C 33.4647,47.4928 34.7981,50.1595 36.5,52.5C 36.5,52.8333 36.5,53.1667 36.5,53.5C 37.3266,57.8072 37.9933,62.1405 38.5,66.5C 37.391,66.5569 36.391,66.8902 35.5,67.5C 34.7093,62.4603 33.7093,57.4603 32.5,52.5C 32.4249,49.7938 32.0916,47.1272 31.5,44.5 Z"/></g>
<g><path style="opacity:1" fill="#948d7f" d="M 72.5,47.5 C 72.9954,49.4817 73.4954,51.4817 74,53.5C 74.414,53.0426 74.914,52.7093 75.5,52.5C 77.9078,54.6975 80.5745,56.3642 83.5,57.5C 87.3411,60.8846 88.0077,64.8846 85.5,69.5C 85.6236,70.1067 85.9569,70.44 86.5,70.5C 85.2946,71.6857 83.9613,71.6857 82.5,70.5C 81.8535,68.8439 81.1869,67.1772 80.5,65.5C 80.8333,64.8333 81.1667,64.1667 81.5,63.5C 82.4287,64.6888 82.762,66.0222 82.5,67.5C 83.552,67.6495 84.552,67.4828 85.5,67C 83.8446,65.5557 83.178,63.7224 83.5,61.5C 80.8431,61.838 78.5098,61.1713 76.5,59.5C 75.0944,60.6682 73.9277,60.3348 73,58.5C 70.7016,54.7824 70.0349,50.7824 71,46.5C 71.3826,47.056 71.8826,47.3893 72.5,47.5 Z"/></g>
<g><path style="opacity:1" fill="#833842" d="M 26.5,52.5 C 27.6874,55.9458 28.3541,59.6125 28.5,63.5C 29.5,63.5 30.5,63.5 31.5,63.5C 31.5,64.8333 31.5,66.1667 31.5,67.5C 31.1583,68.3382 30.4916,68.6716 29.5,68.5C 29.5,67.5 29.5,66.5 29.5,65.5C 26.4285,66.0755 24.4285,64.9088 23.5,62C 25.1997,59.7691 26.1997,57.2691 26.5,54.5C 26.5,53.8333 26.5,53.1667 26.5,52.5 Z"/></g>
<g><path style="opacity:1" fill="#625943" d="M 68.5,51.5 C 69.2852,53.3736 69.9518,55.3736 70.5,57.5C 70.1667,59.5 69.8333,61.5 69.5,63.5C 67.4345,59.6398 67.1011,55.6398 68.5,51.5 Z"/></g>
<g><path style="opacity:1" fill="#b45a64" d="M 21.5,50.5 C 23.5138,50.3915 25.1805,51.0582 26.5,52.5C 26.5,53.1667 26.5,53.8333 26.5,54.5C 25.399,53.2003 24.0657,52.7003 22.5,53C 17.36,58.8377 17.36,64.3377 22.5,69.5C 21.6618,69.8417 21.3284,70.5084 21.5,71.5C 20.5084,71.6716 19.8417,71.3382 19.5,70.5C 18.3146,69.1434 17.3146,67.6434 16.5,66C 17.3479,63.2305 17.6813,60.3971 17.5,57.5C 18.5686,55.0313 19.9019,52.6979 21.5,50.5 Z"/></g>
<g><path style="opacity:1" fill="#3d3b36" d="M 84.5,42.5 C 86.9257,45.2817 87.5924,48.4484 86.5,52C 89.1527,56.8744 89.986,62.0411 89,67.5C 88.6232,68.9423 87.7899,69.9423 86.5,70.5C 85.9569,70.44 85.6236,70.1067 85.5,69.5C 88.0077,64.8846 87.3411,60.8846 83.5,57.5C 83.5792,56.0695 83.2458,54.7362 82.5,53.5C 83.585,52.2159 84.2517,50.7159 84.5,49C 84.6932,46.9919 84.0265,45.4919 82.5,44.5C 82.5,43.1667 83.1667,42.5 84.5,42.5 Z"/></g>
<g><path style="opacity:1" fill="#db4c56" d="M 26.5,54.5 C 26.1997,57.2691 25.1997,59.7691 23.5,62C 24.4285,64.9088 26.4285,66.0755 29.5,65.5C 29.5,66.5 29.5,67.5 29.5,68.5C 29.5,69.1667 29.5,69.8333 29.5,70.5C 26.9165,71.9377 24.5832,71.6044 22.5,69.5C 17.36,64.3377 17.36,58.8377 22.5,53C 24.0657,52.7003 25.399,53.2003 26.5,54.5 Z"/></g>
<g><path style="opacity:1" fill="#484137" d="M 72.5,45.5 C 72.5,46.1667 72.5,46.8333 72.5,47.5C 71.8826,47.3893 71.3826,47.056 71,46.5C 70.0349,50.7824 70.7016,54.7824 73,58.5C 73.9277,60.3348 75.0944,60.6682 76.5,59.5C 78.5098,61.1713 80.8431,61.838 83.5,61.5C 83.178,63.7224 83.8446,65.5557 85.5,67C 84.552,67.4828 83.552,67.6495 82.5,67.5C 82.762,66.0222 82.4287,64.6888 81.5,63.5C 81.1667,64.1667 80.8333,64.8333 80.5,65.5C 81.1869,67.1772 81.8535,68.8439 82.5,70.5C 81.2921,71.2341 79.9587,71.5674 78.5,71.5C 77.6993,69.9582 77.366,68.2915 77.5,66.5C 76.0222,66.762 74.6888,66.4287 73.5,65.5C 72.9929,62.5779 71.9929,59.9113 70.5,57.5C 69.9518,55.3736 69.2852,53.3736 68.5,51.5C 68.5,50.5 68.5,49.5 68.5,48.5C 69.404,47.791 69.7373,46.791 69.5,45.5C 70.5,45.5 71.5,45.5 72.5,45.5 Z"/></g>
<g><path style="opacity:1" fill="#736452" d="M 56.5,52.5 C 57.0899,53.766 57.5899,55.0993 58,56.5C 58.3826,55.944 58.8826,55.6107 59.5,55.5C 59.5,56.8333 59.5,58.1667 59.5,59.5C 58.6236,59.3691 57.9569,59.7025 57.5,60.5C 58.3094,62.0709 58.6427,63.7376 58.5,65.5C 56.549,65.2267 55.049,65.8934 54,67.5C 51.2355,66.9754 50.4022,65.6421 51.5,63.5C 51.5,62.5 51.5,61.5 51.5,60.5C 52.4584,60.0472 53.2917,59.3805 54,58.5C 54.0023,55.9488 54.8356,53.9488 56.5,52.5 Z"/></g>
<g><path style="opacity:1" fill="#d1a8ab" d="M 17.5,57.5 C 17.6813,60.3971 17.3479,63.2305 16.5,66C 17.3146,67.6434 18.3146,69.1434 19.5,70.5C 17.9826,70.4894 16.8159,69.8228 16,68.5C 15.2549,64.5521 15.7549,60.8855 17.5,57.5 Z"/></g>
<g><path style="opacity:1" fill="#696242" d="M 38.5,66.5 C 40.7984,67.8285 43.1317,69.1618 45.5,70.5C 43.8333,71.1667 42.1667,71.8333 40.5,72.5C 40.6716,73.4916 40.3382,74.1583 39.5,74.5C 35.551,74.3068 35.551,73.8068 39.5,73C 38.1667,72.3333 38.1667,71.6667 39.5,71C 37.9154,70.9152 36.5821,70.7486 35.5,70.5C 36.376,69.7492 37.376,69.2492 38.5,69C 36.9419,68.79 35.6085,68.29 34.5,67.5C 34.8333,67.5 35.1667,67.5 35.5,67.5C 36.391,66.8902 37.391,66.5569 38.5,66.5 Z"/></g>
<g><path style="opacity:1" fill="#39392e" d="M 59.5,59.5 C 60.5905,62.6812 60.5905,66.0145 59.5,69.5C 56.1198,69.1794 55.2865,70.1794 57,72.5C 57.414,72.0426 57.914,71.7093 58.5,71.5C 59.3624,72.7658 60.0291,74.0992 60.5,75.5C 60.44,76.0431 60.1067,76.3764 59.5,76.5C 58.8333,75.5 58.1667,74.5 57.5,73.5C 56.7025,73.9569 56.3691,74.6236 56.5,75.5C 54.9519,75.8212 54.2852,76.8212 54.5,78.5C 53.209,78.2627 52.209,78.596 51.5,79.5C 50.5,79.5 49.5,79.5 48.5,79.5C 48.3404,77.847 47.6737,76.5137 46.5,75.5C 45.3202,73.087 43.3202,72.087 40.5,72.5C 42.1667,71.8333 43.8333,71.1667 45.5,70.5C 47.7424,68.5481 48.0757,66.2148 46.5,63.5C 47.7498,63.4226 48.5831,62.756 49,61.5C 49.4169,62.756 50.2502,63.4226 51.5,63.5C 50.4022,65.6421 51.2355,66.9754 54,67.5C 55.049,65.8934 56.549,65.2267 58.5,65.5C 58.6427,63.7376 58.3094,62.0709 57.5,60.5C 57.9569,59.7025 58.6236,59.3691 59.5,59.5 Z"/></g>
<g><path style="opacity:1" fill="#daccac" d="M 67.5,48.5 C 67.8333,48.5 68.1667,48.5 68.5,48.5C 68.5,49.5 68.5,50.5 68.5,51.5C 67.1011,55.6398 67.4345,59.6398 69.5,63.5C 70.3331,65.7522 70.3331,67.9189 69.5,70C 67.2199,70.2117 65.2199,71.0451 63.5,72.5C 63.3631,71.0594 62.3631,69.7261 60.5,68.5C 61.325,67.6143 62.325,67.281 63.5,67.5C 64.5098,65.9866 64.8431,63.6533 64.5,60.5C 65.5,60.1667 66.1667,59.5 66.5,58.5C 66.179,57.1825 65.8457,55.8492 65.5,54.5C 66.6511,52.6746 67.3178,50.6746 67.5,48.5 Z"/></g>
<g><path style="opacity:1" fill="#6f3533" d="M 22.5,69.5 C 24.5832,71.6044 26.9165,71.9377 29.5,70.5C 29.5,71.8333 29.5,73.1667 29.5,74.5C 28.8333,74.5 28.5,74.8333 28.5,75.5C 28.1667,75.5 27.8333,75.5 27.5,75.5C 25.249,74.5894 23.249,73.256 21.5,71.5C 21.3284,70.5084 21.6618,69.8417 22.5,69.5 Z"/></g>
<g><path style="opacity:1" fill="#d8b994" d="M 31.5,67.5 C 32.5,67.5 33.5,67.5 34.5,67.5C 35.6085,68.29 36.9419,68.79 38.5,69C 37.376,69.2492 36.376,69.7492 35.5,70.5C 36.5821,70.7486 37.9154,70.9152 39.5,71C 38.1667,71.6667 38.1667,72.3333 39.5,73C 35.551,73.8068 35.551,74.3068 39.5,74.5C 38.4863,75.6737 37.153,76.3404 35.5,76.5C 34.8333,76.5 34.1667,76.5 33.5,76.5C 32.4863,75.3263 31.153,74.6596 29.5,74.5C 29.5,73.1667 29.5,71.8333 29.5,70.5C 29.5,69.8333 29.5,69.1667 29.5,68.5C 30.4916,68.6716 31.1583,68.3382 31.5,67.5 Z"/></g>
<g><path style="opacity:1" fill="#9d957c" d="M 63.5,67.5 C 62.325,67.281 61.325,67.6143 60.5,68.5C 62.3631,69.7261 63.3631,71.0594 63.5,72.5C 65.2199,71.0451 67.2199,70.2117 69.5,70C 70.3331,67.9189 70.3331,65.7522 69.5,63.5C 69.8333,61.5 70.1667,59.5 70.5,57.5C 71.9929,59.9113 72.9929,62.5779 73.5,65.5C 74.6888,66.4287 76.0222,66.762 77.5,66.5C 77.366,68.2915 77.6993,69.9582 78.5,71.5C 77.6618,71.8417 77.3284,72.5084 77.5,73.5C 76.8186,71.8415 75.9853,70.1749 75,68.5C 74.9822,70.7972 75.1489,73.1305 75.5,75.5C 73.7965,79.0884 72.7965,78.4217 72.5,73.5C 70.1432,73.3367 67.8098,73.5034 65.5,74C 66.056,74.3826 66.3893,74.8826 66.5,75.5C 63.7912,78.009 64.1245,80.3424 67.5,82.5C 68.3857,81.675 68.719,80.675 68.5,79.5C 69.4884,80.795 70.4884,82.1283 71.5,83.5C 71.0269,84.9063 70.0269,85.573 68.5,85.5C 65.2464,83.6734 62.913,81.0067 61.5,77.5C 61.6716,76.5084 61.3382,75.8417 60.5,75.5C 60.0291,74.0992 59.3624,72.7658 58.5,71.5C 57.914,71.7093 57.414,72.0426 57,72.5C 55.2865,70.1794 56.1198,69.1794 59.5,69.5C 60.5905,66.0145 60.5905,62.6812 59.5,59.5C 59.5,58.1667 59.5,56.8333 59.5,55.5C 59.369,54.7611 59.5357,54.0944 60,53.5C 61.1712,58.1849 62.3379,62.8516 63.5,67.5 Z"/></g>
<g><path style="opacity:1" fill="#69604e" d="M 60.5,75.5 C 61.3382,75.8417 61.6716,76.5084 61.5,77.5C 60.8826,77.6107 60.3826,77.944 60,78.5C 59.5045,80.4727 59.3379,82.4727 59.5,84.5C 59.1667,84.5 58.8333,84.5 58.5,84.5C 58.1667,83.1667 57.8333,81.8333 57.5,80.5C 56.962,78.8828 56.6287,77.2161 56.5,75.5C 56.3691,74.6236 56.7025,73.9569 57.5,73.5C 58.1667,74.5 58.8333,75.5 59.5,76.5C 60.1067,76.3764 60.44,76.0431 60.5,75.5 Z"/></g>
<g><path style="opacity:1" fill="#59523a" d="M 66.5,75.5 C 67.3446,76.6715 68.0113,78.0048 68.5,79.5C 68.719,80.675 68.3857,81.675 67.5,82.5C 64.1245,80.3424 63.7912,78.009 66.5,75.5 Z"/></g>
<g><path style="opacity:1" fill="#d9c8b0" d="M 75.5,75.5 C 75.5,78.1667 75.5,80.8333 75.5,83.5C 74.1667,83.5 72.8333,83.5 71.5,83.5C 70.4884,82.1283 69.4884,80.795 68.5,79.5C 68.0113,78.0048 67.3446,76.6715 66.5,75.5C 66.3893,74.8826 66.056,74.3826 65.5,74C 67.8098,73.5034 70.1432,73.3367 72.5,73.5C 72.7965,78.4217 73.7965,79.0884 75.5,75.5 Z"/></g>
<g><path style="opacity:1" fill="#4fa278" d="M 33.5,76.5 C 34.1667,76.5 34.8333,76.5 35.5,76.5C 39.7656,80.9164 38.7656,82.2497 32.5,80.5C 30.0882,80.3059 29.0882,78.9726 29.5,76.5C 30.8333,76.5 32.1667,76.5 33.5,76.5 Z"/></g>
<g><path style="opacity:1" fill="#a48876" d="M 56.5,75.5 C 56.6287,77.2161 56.962,78.8828 57.5,80.5C 56.8501,80.1961 56.1835,79.8627 55.5,79.5C 54.8302,81.2914 54.1635,82.9581 53.5,84.5C 52.8333,84.5 52.5,84.1667 52.5,83.5C 51.7659,82.2921 51.4326,80.9587 51.5,79.5C 52.209,78.596 53.209,78.2627 54.5,78.5C 54.2852,76.8212 54.9519,75.8212 56.5,75.5 Z"/></g>
<g><path style="opacity:1" fill="#3d4e35" d="M 29.5,74.5 C 31.153,74.6596 32.4863,75.3263 33.5,76.5C 32.1667,76.5 30.8333,76.5 29.5,76.5C 29.0882,78.9726 30.0882,80.3059 32.5,80.5C 33.5903,81.8571 34.9236,82.8571 36.5,83.5C 35.7611,83.369 35.0944,83.5357 34.5,84C 35.8228,84.8159 36.4894,85.9826 36.5,87.5C 34.8207,86.0837 33.1541,84.7503 31.5,83.5C 30.7777,82.4489 29.7777,81.7822 28.5,81.5C 28.5,79.5 28.5,77.5 28.5,75.5C 28.5,74.8333 28.8333,74.5 29.5,74.5 Z"/></g>
<g><path style="opacity:1" fill="#39755d" d="M 40.5,72.5 C 43.3202,72.087 45.3202,73.087 46.5,75.5C 44.9891,74.4975 43.3224,73.8308 41.5,73.5C 41.8963,78.9697 41.8963,83.9697 41.5,88.5C 40.2459,86.4622 38.5792,84.7956 36.5,83.5C 34.9236,82.8571 33.5903,81.8571 32.5,80.5C 38.7656,82.2497 39.7656,80.9164 35.5,76.5C 37.153,76.3404 38.4863,75.6737 39.5,74.5C 40.3382,74.1583 40.6716,73.4916 40.5,72.5 Z"/></g>
<g><path style="opacity:1" fill="#797e5a" d="M 61.5,77.5 C 62.913,81.0067 65.2464,83.6734 68.5,85.5C 66.7741,85.1854 65.1075,85.0187 63.5,85C 64.0442,85.7172 64.7109,86.2172 65.5,86.5C 65.2172,87.2891 64.7172,87.9558 64,88.5C 62.0077,87.6719 60.5077,86.3386 59.5,84.5C 59.3379,82.4727 59.5045,80.4727 60,78.5C 60.3826,77.944 60.8826,77.6107 61.5,77.5 Z"/></g>
<g><path style="opacity:1" fill="#a4947f" d="M 27.5,75.5 C 27.8333,75.5 28.1667,75.5 28.5,75.5C 28.5,77.5 28.5,79.5 28.5,81.5C 28.3227,85.2343 28.6561,88.9009 29.5,92.5C 28.8826,92.3893 28.3826,92.056 28,91.5C 27.8171,88.6353 27.3171,85.9686 26.5,83.5C 23.6689,84.0787 21.3356,85.412 19.5,87.5C 16.4503,89.5491 14.117,92.2157 12.5,95.5C 11.8333,95.5 11.1667,95.5 10.5,95.5C 13.6417,88.2458 18.975,83.2458 26.5,80.5C 27.4519,78.9547 27.7852,77.288 27.5,75.5 Z"/></g>
<g><path style="opacity:1" fill="#3a3f32" d="M 52.5,83.5 C 52.5,84.1667 52.8333,84.5 53.5,84.5C 54.8654,86.5909 55.5321,88.9242 55.5,91.5C 52.7041,89.2854 51.7041,86.6187 52.5,83.5 Z"/></g>
<g><path style="opacity:1" fill="#535448" d="M 77.5,73.5 C 78.3438,76.3447 79.0104,79.3447 79.5,82.5C 79.5,84.1667 79.5,85.8333 79.5,87.5C 78.1779,87.33 77.0113,87.6634 76,88.5C 75.1465,92.8572 74.3132,97.1905 73.5,101.5C 72.8826,101.389 72.3826,101.056 72,100.5C 71.5658,97.8208 71.7325,95.1541 72.5,92.5C 72.3601,90.9704 71.6935,89.9704 70.5,89.5C 70.5,88.8333 70.1667,88.5 69.5,88.5C 68.8166,86.8235 67.4832,86.1568 65.5,86.5C 64.7109,86.2172 64.0442,85.7172 63.5,85C 65.1075,85.0187 66.7741,85.1854 68.5,85.5C 70.0269,85.573 71.0269,84.9063 71.5,83.5C 72.8333,83.5 74.1667,83.5 75.5,83.5C 75.5,80.8333 75.5,78.1667 75.5,75.5C 75.1489,73.1305 74.9822,70.7972 75,68.5C 75.9853,70.1749 76.8186,71.8415 77.5,73.5 Z"/></g>
<g><path style="opacity:1" fill="#8f5b57" d="M 57.5,80.5 C 57.8333,81.8333 58.1667,83.1667 58.5,84.5C 58.8016,87.0593 58.4682,89.3926 57.5,91.5C 56.8333,91.5 56.1667,91.5 55.5,91.5C 55.5321,88.9242 54.8654,86.5909 53.5,84.5C 54.1635,82.9581 54.8302,81.2914 55.5,79.5C 56.1835,79.8627 56.8501,80.1961 57.5,80.5 Z"/></g>
<g><path style="opacity:1" fill="#3f7555" d="M 48.5,79.5 C 49.5,79.5 50.5,79.5 51.5,79.5C 51.4326,80.9587 51.7659,82.2921 52.5,83.5C 51.7041,86.6187 52.7041,89.2854 55.5,91.5C 55.9628,94.221 56.6295,96.8877 57.5,99.5C 55.9519,99.8212 55.2852,100.821 55.5,102.5C 52.8333,102.5 50.1667,102.5 47.5,102.5C 48.0547,98.2829 47.0547,94.6162 44.5,91.5C 45.8221,91.33 46.9887,91.6634 48,92.5C 48.3143,94.8689 49.1476,97.0356 50.5,99C 50.0946,99.9454 49.428,100.612 48.5,101C 50.7489,101.863 52.5822,101.363 54,99.5C 54.6667,97.1667 54.6667,94.8333 54,92.5C 52.0038,88.153 49.1705,84.3197 45.5,81C 46.4491,80.3828 47.2825,80.5494 48,81.5C 48.4643,80.9056 48.631,80.2389 48.5,79.5 Z"/></g>
<g><path style="opacity:1" fill="#2b251d" d="M 69.5,88.5 C 70.1667,88.5 70.5,88.8333 70.5,89.5C 70.7261,92.2492 70.3928,94.9159 69.5,97.5C 68.3112,98.4287 66.9778,98.762 65.5,98.5C 66.8355,95.148 68.1688,91.8146 69.5,88.5 Z"/></g>
<g><path style="opacity:1" fill="#e1c97d" d="M 31.5,83.5 C 33.1541,84.7503 34.8207,86.0837 36.5,87.5C 36.5111,89.5466 36.8444,91.5466 37.5,93.5C 37.2528,94.7133 36.5862,95.38 35.5,95.5C 33.9778,94.8091 32.9778,93.6424 32.5,92C 31.6521,89.2305 31.3187,86.3971 31.5,83.5 Z"/></g>
<g><path style="opacity:1" fill="#3d9f76" d="M 46.5,75.5 C 47.6737,76.5137 48.3404,77.847 48.5,79.5C 48.631,80.2389 48.4643,80.9056 48,81.5C 47.2825,80.5494 46.4491,80.3828 45.5,81C 49.1705,84.3197 52.0038,88.153 54,92.5C 54.6667,94.8333 54.6667,97.1667 54,99.5C 52.5822,101.363 50.7489,101.863 48.5,101C 49.428,100.612 50.0946,99.9454 50.5,99C 49.1476,97.0356 48.3143,94.8689 48,92.5C 46.9887,91.6634 45.8221,91.33 44.5,91.5C 43.1667,90.8333 42.1667,89.8333 41.5,88.5C 41.8963,83.9697 41.8963,78.9697 41.5,73.5C 43.3224,73.8308 44.9891,74.4975 46.5,75.5 Z"/></g>
<g><path style="opacity:1" fill="#22241c" d="M 36.5,83.5 C 38.5792,84.7956 40.2459,86.4622 41.5,88.5C 42.1667,89.8333 43.1667,90.8333 44.5,91.5C 47.0547,94.6162 48.0547,98.2829 47.5,102.5C 47.1667,102.5 46.8333,102.5 46.5,102.5C 46.2078,99.1991 44.5411,97.1991 41.5,96.5C 41.4012,93.3607 40.0679,91.0274 37.5,89.5C 37.6716,88.5084 37.3382,87.8417 36.5,87.5C 36.4894,85.9826 35.8228,84.8159 34.5,84C 35.0944,83.5357 35.7611,83.369 36.5,83.5 Z"/></g>
<g><path style="opacity:1" fill="#dfc1a3" d="M 26.5,83.5 C 27.3171,85.9686 27.8171,88.6353 28,91.5C 28.3826,92.056 28.8826,92.3893 29.5,92.5C 29.9752,94.7837 30.9752,96.7837 32.5,98.5C 31.791,99.404 30.791,99.7373 29.5,99.5C 29.5,101.833 29.5,104.167 29.5,106.5C 29.7148,108.179 29.0481,109.179 27.5,109.5C 27.5,108.167 26.8333,107.5 25.5,107.5C 25.2572,104.117 25.9239,100.951 27.5,98C 26.5308,93.2633 26.1975,88.43 26.5,83.5 Z"/></g>
<g><path style="opacity:1" fill="#a58357" d="M 36.5,87.5 C 37.3382,87.8417 37.6716,88.5084 37.5,89.5C 38.7736,91.9925 39.4403,94.6592 39.5,97.5C 37.6203,97.7709 36.287,97.1042 35.5,95.5C 36.5862,95.38 37.2528,94.7133 37.5,93.5C 36.8444,91.5466 36.5111,89.5466 36.5,87.5 Z"/></g>
<g><path style="opacity:1" fill="#f5fbf0" d="M 5.5,164.5 C 3.5,164.5 1.5,164.5 -0.5,164.5C -0.5,139.833 -0.5,115.167 -0.5,90.5C 0.72065,89.9717 1.88732,89.305 3,88.5C 3.33333,88.8333 3.66667,89.1667 4,89.5C 4.88735,97.139 4.38735,104.639 2.5,112C 3.31612,113.923 3.98279,115.923 4.5,118C 3.35818,132.467 3.19151,146.967 4,161.5C 5.03859,162.244 5.53859,163.244 5.5,164.5 Z"/></g>
<g><path style="opacity:1" fill="#d4c5ab" d="M 58.5,84.5 C 58.8333,84.5 59.1667,84.5 59.5,84.5C 60.5077,86.3386 62.0077,87.6719 64,88.5C 64.7172,87.9558 65.2172,87.2891 65.5,86.5C 67.4832,86.1568 68.8166,86.8235 69.5,88.5C 68.1688,91.8146 66.8355,95.148 65.5,98.5C 66.9778,98.762 68.3112,98.4287 69.5,97.5C 70.3928,94.9159 70.7261,92.2492 70.5,89.5C 71.6935,89.9704 72.3601,90.9704 72.5,92.5C 71.7325,95.1541 71.5658,97.8208 72,100.5C 72.3826,101.056 72.8826,101.389 73.5,101.5C 74.2905,102.401 75.2905,103.068 76.5,103.5C 76.7373,104.791 76.404,105.791 75.5,106.5C 70.3656,104.433 65.3656,102.099 60.5,99.5C 58.9294,97.0293 57.9294,94.3626 57.5,91.5C 58.4682,89.3926 58.8016,87.0593 58.5,84.5 Z"/></g>
<g><path style="opacity:1" fill="#a15e4e" d="M 28.5,81.5 C 29.7777,81.7822 30.7777,82.4489 31.5,83.5C 31.3187,86.3971 31.6521,89.2305 32.5,92C 32.9778,93.6424 33.9778,94.8091 35.5,95.5C 36.287,97.1042 37.6203,97.7709 39.5,97.5C 41.9726,97.0882 43.3059,98.0882 43.5,100.5C 40.6592,100.56 37.9925,101.226 35.5,102.5C 35.2624,100.596 34.2624,99.2623 32.5,98.5C 30.9752,96.7837 29.9752,94.7837 29.5,92.5C 28.6561,88.9009 28.3227,85.2343 28.5,81.5 Z"/></g>
<g><path style="opacity:1" fill="#2f2923" d="M 79.5,87.5 C 79.3841,90.8599 79.0508,94.1933 78.5,97.5C 78.5,99.1667 78.5,100.833 78.5,102.5C 82.1823,102.711 85.1823,104.044 87.5,106.5C 86.8333,106.5 86.1667,106.5 85.5,106.5C 82.5939,105.213 79.5939,104.213 76.5,103.5C 75.2905,103.068 74.2905,102.401 73.5,101.5C 74.3132,97.1905 75.1465,92.8572 76,88.5C 77.0113,87.6634 78.1779,87.33 79.5,87.5 Z"/></g>
<g><path style="opacity:1" fill="#989887" d="M 79.5,82.5 C 80.3247,86.6472 80.8247,90.9805 81,95.5C 84.3575,98.0312 87.5242,100.698 90.5,103.5C 89.8333,103.5 89.5,103.833 89.5,104.5C 86.6806,102.581 84.014,100.415 81.5,98C 80.552,97.5172 79.552,97.3505 78.5,97.5C 79.0508,94.1933 79.3841,90.8599 79.5,87.5C 79.5,85.8333 79.5,84.1667 79.5,82.5 Z"/></g>
<g><path style="opacity:1" fill="#8c8d8f" d="M 9.5,98.5 C 9.29245,100.92 9.62578,103.253 10.5,105.5C 10.0431,106.298 9.37644,106.631 8.5,106.5C 8.1936,103.615 8.52693,100.948 9.5,98.5 Z"/></g>
<g><path style="opacity:1" fill="#e1c18e" d="M 26.5,83.5 C 26.1975,88.43 26.5308,93.2633 27.5,98C 25.9239,100.951 25.2572,104.117 25.5,107.5C 25.5,108.167 25.5,108.833 25.5,109.5C 24.448,109.351 23.448,109.517 22.5,110C 23.3098,114.262 22.6431,114.428 20.5,110.5C 21.09,109.201 22.09,108.368 23.5,108C 22.5305,106.242 21.3639,105.742 20,106.5C 19.5172,105.552 19.3505,104.552 19.5,103.5C 16.341,103.083 14.341,101.25 13.5,98C 13.8623,96.7753 14.3623,95.6086 15,94.5C 19.374,93.6802 20.874,91.3468 19.5,87.5C 21.3356,85.412 23.6689,84.0787 26.5,83.5 Z"/></g>
<g><path style="opacity:1" fill="#c2bfa7" d="M 78.5,97.5 C 79.552,97.3505 80.552,97.5172 81.5,98C 84.014,100.415 86.6806,102.581 89.5,104.5C 89.5394,105.583 89.8728,106.583 90.5,107.5C 88.9483,108.798 87.9483,108.465 87.5,106.5C 85.1823,104.044 82.1823,102.711 78.5,102.5C 78.5,100.833 78.5,99.1667 78.5,97.5 Z"/></g>
<g><path style="opacity:1" fill="#5f5347" d="M 32.5,98.5 C 34.2624,99.2623 35.2624,100.596 35.5,102.5C 34.6618,102.842 34.3284,103.508 34.5,104.5C 33.1986,103.36 32.0319,102.027 31,100.5C 30.8091,102.708 30.3091,104.708 29.5,106.5C 29.5,104.167 29.5,101.833 29.5,99.5C 30.791,99.7373 31.791,99.404 32.5,98.5 Z"/></g>
<g><path style="opacity:1" fill="#9f908a" d="M 43.5,100.5 C 43.5,101.5 43.5,102.5 43.5,103.5C 41.7839,103.629 40.1172,103.962 38.5,104.5C 38.44,103.957 38.1067,103.624 37.5,103.5C 36.6481,105.924 35.6481,108.258 34.5,110.5C 33.4271,108.653 33.4271,106.653 34.5,104.5C 34.3284,103.508 34.6618,102.842 35.5,102.5C 37.9925,101.226 40.6592,100.56 43.5,100.5 Z"/></g>
<g><path style="opacity:1" fill="#b08a79" d="M 46.5,102.5 C 46.8333,102.5 47.1667,102.5 47.5,102.5C 50.1667,102.5 52.8333,102.5 55.5,102.5C 55.1667,103.167 54.8333,103.833 54.5,104.5C 52.0504,104.298 49.717,104.631 47.5,105.5C 47.1667,105.5 46.8333,105.5 46.5,105.5C 45.375,104.348 45.375,103.348 46.5,102.5 Z"/></g>
<g><path style="opacity:1" fill="#4f4a44" d="M 55.5,91.5 C 56.1667,91.5 56.8333,91.5 57.5,91.5C 57.9294,94.3626 58.9294,97.0293 60.5,99.5C 65.3656,102.099 70.3656,104.433 75.5,106.5C 77.2955,110.25 78.9621,110.25 80.5,106.5C 82.2825,108.023 82.9492,110.023 82.5,112.5C 81.3263,113.514 80.6596,114.847 80.5,116.5C 80.8151,119.211 80.1484,121.544 78.5,123.5C 78.7035,125.39 78.0368,126.89 76.5,128C 73.7163,128.892 71.0496,130.058 68.5,131.5C 67.218,130.042 67.218,128.708 68.5,127.5C 70.5273,127.662 72.5273,127.495 74.5,127C 75.056,126.617 75.3893,126.117 75.5,125.5C 77.2923,121.085 78.1256,116.419 78,111.5C 77.6667,112.167 77.3333,112.833 77,113.5C 76.79,111.942 76.29,110.609 75.5,109.5C 71.6066,107.124 67.2732,106.124 62.5,106.5C 62.7373,107.791 62.404,108.791 61.5,109.5C 61.6621,107.473 61.4955,105.473 61,103.5C 58.9286,102.897 57.7619,101.564 57.5,99.5C 56.6295,96.8877 55.9628,94.221 55.5,91.5 Z"/></g>
<g><path style="opacity:1" fill="#a8a59b" d="M 76.5,103.5 C 79.5939,104.213 82.5939,105.213 85.5,106.5C 85.5,106.833 85.5,107.167 85.5,107.5C 83.9724,108.802 82.9724,110.469 82.5,112.5C 82.9492,110.023 82.2825,108.023 80.5,106.5C 78.9621,110.25 77.2955,110.25 75.5,106.5C 76.404,105.791 76.7373,104.791 76.5,103.5 Z"/></g>
<g><path style="opacity:1" fill="#372220" d="M 37.5,89.5 C 40.0679,91.0274 41.4012,93.3607 41.5,96.5C 44.5411,97.1991 46.2078,99.1991 46.5,102.5C 45.375,103.348 45.375,104.348 46.5,105.5C 46.6641,108.187 46.4974,110.854 46,113.5C 45.6174,114.056 45.1174,114.389 44.5,114.5C 43.8031,112.929 43.4698,111.429 43.5,110C 41.553,110.536 39.553,110.202 37.5,109C 37.9121,107.436 38.2454,105.936 38.5,104.5C 40.1172,103.962 41.7839,103.629 43.5,103.5C 43.5,102.5 43.5,101.5 43.5,100.5C 43.3059,98.0882 41.9726,97.0882 39.5,97.5C 39.4403,94.6592 38.7736,91.9925 37.5,89.5 Z"/></g>
<g><path style="opacity:1" fill="#7d725a" d="M 25.5,107.5 C 26.8333,107.5 27.5,108.167 27.5,109.5C 26.8333,111.167 26.1667,112.833 25.5,114.5C 25.5,112.833 25.5,111.167 25.5,109.5C 25.5,108.833 25.5,108.167 25.5,107.5 Z"/></g>
<g><path style="opacity:1" fill="#6c6c63" d="M 90.5,103.5 C 91.1558,104.622 91.4892,105.955 91.5,107.5C 91.5587,110.109 90.892,112.443 89.5,114.5C 87.3449,115.552 87.0116,114.886 88.5,112.5C 87.7573,111.818 87.0906,111.151 86.5,110.5C 86.4431,109.391 86.1098,108.391 85.5,107.5C 85.5,107.167 85.5,106.833 85.5,106.5C 86.1667,106.5 86.8333,106.5 87.5,106.5C 87.9483,108.465 88.9483,108.798 90.5,107.5C 89.8728,106.583 89.5394,105.583 89.5,104.5C 89.5,103.833 89.8333,103.5 90.5,103.5 Z"/></g>
<g><path style="opacity:1" fill="#d2bc9a" d="M 19.5,87.5 C 20.874,91.3468 19.374,93.6802 15,94.5C 14.3623,95.6086 13.8623,96.7753 13.5,98C 14.341,101.25 16.341,103.083 19.5,103.5C 19.3505,104.552 19.5172,105.552 20,106.5C 21.3639,105.742 22.5305,106.242 23.5,108C 22.09,108.368 21.09,109.201 20.5,110.5C 22.6431,114.428 23.3098,114.262 22.5,110C 23.448,109.517 24.448,109.351 25.5,109.5C 25.5,111.167 25.5,112.833 25.5,114.5C 24.8574,119.851 23.8574,125.184 22.5,130.5C 22.8499,132.626 22.8499,134.959 22.5,137.5C 21.7611,137.631 21.0944,137.464 20.5,137C 20.115,132.32 20.115,127.486 20.5,122.5C 19.4924,119.777 18.4924,117.11 17.5,114.5C 14.919,113.176 14.919,111.676 17.5,110C 17.062,108.08 16.3953,106.246 15.5,104.5C 15.2448,106.343 15.0781,108.343 15,110.5C 13.9563,109.377 13.2896,108.044 13,106.5C 12.5014,102.848 12.3347,99.1817 12.5,95.5C 14.117,92.2157 16.4503,89.5491 19.5,87.5 Z"/></g>
<g><path style="opacity:1" fill="#e6e5dc" d="M 85.5,107.5 C 86.1098,108.391 86.4431,109.391 86.5,110.5C 85.1964,111.987 84.0298,113.654 83,115.5C 82.3292,116.252 81.4959,116.586 80.5,116.5C 80.6596,114.847 81.3263,113.514 82.5,112.5C 82.9724,110.469 83.9724,108.802 85.5,107.5 Z"/></g>
<g><path style="opacity:1" fill="#2c2524" d="M 34.5,104.5 C 33.4271,106.653 33.4271,108.653 34.5,110.5C 31.5229,112.064 30.8562,114.397 32.5,117.5C 32.0431,118.298 31.3764,118.631 30.5,118.5C 30.631,117.761 30.4643,117.094 30,116.5C 27.7907,121.455 25.2907,126.122 22.5,130.5C 23.8574,125.184 24.8574,119.851 25.5,114.5C 26.1667,112.833 26.8333,111.167 27.5,109.5C 29.0481,109.179 29.7148,108.179 29.5,106.5C 30.3091,104.708 30.8091,102.708 31,100.5C 32.0319,102.027 33.1986,103.36 34.5,104.5 Z"/></g>
<g><path style="opacity:1" fill="#835157" d="M 46.5,105.5 C 46.8333,105.5 47.1667,105.5 47.5,105.5C 47.5,108.833 47.5,112.167 47.5,115.5C 46.391,115.557 45.391,115.89 44.5,116.5C 44.5,115.833 44.5,115.167 44.5,114.5C 45.1174,114.389 45.6174,114.056 46,113.5C 46.4974,110.854 46.6641,108.187 46.5,105.5 Z"/></g>
<g><path style="opacity:1" fill="#b04a54" d="M 54.5,104.5 C 54.5,104.833 54.5,105.167 54.5,105.5C 54.7513,111.892 54.418,118.225 53.5,124.5C 52.1779,124.67 51.0113,124.337 50,123.5C 49.9633,121.026 49.13,119.026 47.5,117.5C 47.5,116.833 47.5,116.167 47.5,115.5C 47.5,112.167 47.5,108.833 47.5,105.5C 49.717,104.631 52.0504,104.298 54.5,104.5 Z"/></g>
<g><path style="opacity:1" fill="#362529" d="M 57.5,99.5 C 57.7619,101.564 58.9286,102.897 61,103.5C 61.4955,105.473 61.6621,107.473 61.5,109.5C 60.2163,112.402 59.2163,115.402 58.5,118.5C 57.7777,119.551 56.7777,120.218 55.5,120.5C 56.1667,115.84 56.3334,111.174 56,106.5C 55.6174,105.944 55.1174,105.611 54.5,105.5C 54.5,105.167 54.5,104.833 54.5,104.5C 54.8333,103.833 55.1667,103.167 55.5,102.5C 55.2852,100.821 55.9519,99.8212 57.5,99.5 Z"/></g>
<g><path style="opacity:1" fill="#4c473e" d="M 10.5,95.5 C 11.1667,95.5 11.8333,95.5 12.5,95.5C 12.3347,99.1817 12.5014,102.848 13,106.5C 13.2896,108.044 13.9563,109.377 15,110.5C 15.0781,108.343 15.2448,106.343 15.5,104.5C 16.3953,106.246 17.062,108.08 17.5,110C 14.919,111.676 14.919,113.176 17.5,114.5C 17.467,117.836 18.1336,121.003 19.5,124C 18.552,124.483 17.552,124.649 16.5,124.5C 10.359,120.171 7.69236,114.171 8.5,106.5C 9.37644,106.631 10.0431,106.298 10.5,105.5C 9.62578,103.253 9.29245,100.92 9.5,98.5C 9.55688,97.391 9.89022,96.391 10.5,95.5 Z"/></g>
<g><path style="opacity:1" fill="#1a1819" d="M 38.5,104.5 C 38.2454,105.936 37.9121,107.436 37.5,109C 39.553,110.202 41.553,110.536 43.5,110C 43.4698,111.429 43.8031,112.929 44.5,114.5C 44.5,115.167 44.5,115.833 44.5,116.5C 44.7709,118.38 44.1042,119.713 42.5,120.5C 41.8826,118.679 41.716,116.679 42,114.5C 40.9887,115.337 39.8221,115.67 38.5,115.5C 38.5,116.5 38.5,117.5 38.5,118.5C 35.075,118.367 34.7417,119.033 37.5,120.5C 37.6669,126.676 36.5003,126.676 34,120.5C 32.6976,119.915 31.531,119.249 30.5,118.5C 31.3764,118.631 32.0431,118.298 32.5,117.5C 30.8562,114.397 31.5229,112.064 34.5,110.5C 35.6481,108.258 36.6481,105.924 37.5,103.5C 38.1067,103.624 38.44,103.957 38.5,104.5 Z"/></g>
<g><path style="opacity:1" fill="#beb5b0" d="M 75.5,109.5 C 76.29,110.609 76.79,111.942 77,113.5C 77.3333,112.833 77.6667,112.167 78,111.5C 78.1256,116.419 77.2923,121.085 75.5,125.5C 74.3054,125.134 73.6387,124.301 73.5,123C 75.7258,120.284 76.3924,117.451 75.5,114.5C 75.5,112.833 75.5,111.167 75.5,109.5 Z"/></g>
<g><path style="opacity:1" fill="#5c232f" d="M 54.5,105.5 C 55.1174,105.611 55.6174,105.944 56,106.5C 56.3334,111.174 56.1667,115.84 55.5,120.5C 55.5,120.833 55.5,121.167 55.5,121.5C 55.5,122.5 55.5,123.5 55.5,124.5C 54.8333,125.167 54.1667,125.833 53.5,126.5C 53.5,125.833 53.5,125.167 53.5,124.5C 54.418,118.225 54.7513,111.892 54.5,105.5 Z"/></g>
<g><path style="opacity:1" fill="#9c998e" d="M 86.5,110.5 C 87.0906,111.151 87.7573,111.818 88.5,112.5C 87.0116,114.886 87.3449,115.552 89.5,114.5C 88.011,120.087 84.3444,123.087 78.5,123.5C 80.1484,121.544 80.8151,119.211 80.5,116.5C 81.4959,116.586 82.3292,116.252 83,115.5C 84.0298,113.654 85.1964,111.987 86.5,110.5 Z"/></g>
<g><path style="opacity:1" fill="#e2505f" d="M 49.5,105.5 C 50.8333,105.5 52.1667,105.5 53.5,105.5C 53.9101,111.621 53.4101,117.621 52,123.5C 51.9525,120.671 50.9525,118.337 49,116.5C 48.2446,112.745 48.4113,109.078 49.5,105.5 Z"/></g>
<g><path style="opacity:1" fill="#b77489" d="M 47.5,117.5 C 49.13,119.026 49.9633,121.026 50,123.5C 51.0113,124.337 52.1779,124.67 53.5,124.5C 53.5,125.167 53.5,125.833 53.5,126.5C 51.5,126.167 49.5,125.833 47.5,125.5C 47.5,122.833 47.5,120.167 47.5,117.5 Z"/></g>
<g><path style="opacity:1" fill="#2d4959" d="M 58.5,118.5 C 59.6754,122.186 61.0087,125.853 62.5,129.5C 61.9232,130.773 61.2565,130.773 60.5,129.5C 59.2081,127.333 58.3747,125 58,122.5C 57.3292,121.748 56.4959,121.414 55.5,121.5C 55.5,121.167 55.5,120.833 55.5,120.5C 56.7777,120.218 57.7777,119.551 58.5,118.5 Z"/></g>
<g><path style="opacity:1" fill="#908e85" d="M 75.5,114.5 C 76.3924,117.451 75.7258,120.284 73.5,123C 73.6387,124.301 74.3054,125.134 75.5,125.5C 75.3893,126.117 75.056,126.617 74.5,127C 72.5273,127.495 70.5273,127.662 68.5,127.5C 70.2157,124.845 72.049,122.178 74,119.5C 74.3519,117.753 74.8519,116.086 75.5,114.5 Z"/></g>
<g><path style="opacity:1" fill="#538da0" d="M 55.5,121.5 C 56.4959,121.414 57.3292,121.748 58,122.5C 58.3747,125 59.2081,127.333 60.5,129.5C 61.2565,130.773 61.9232,130.773 62.5,129.5C 64.6824,130.823 65.3491,132.49 64.5,134.5C 60.1468,132.513 57.1468,129.179 55.5,124.5C 55.5,123.5 55.5,122.5 55.5,121.5 Z"/></g>
<g><path style="opacity:1" fill="#66605b" d="M 30.5,118.5 C 31.531,119.249 32.6976,119.915 34,120.5C 36.5003,126.676 37.6669,126.676 37.5,120.5C 39.1084,119.462 40.1084,120.129 40.5,122.5C 39.5428,124.918 38.2095,127.084 36.5,129C 37.5762,130.726 37.7429,132.559 37,134.5C 36,133.167 35,133.167 34,134.5C 32.581,132.664 31.4143,130.664 30.5,128.5C 28.4807,129.133 28.1474,130.133 29.5,131.5C 28.6267,135.494 27.46,135.494 26,131.5C 25.1301,132.108 24.6301,132.941 24.5,134C 25.6667,137.5 26.8333,141 28,144.5C 28.7589,146.063 29.9256,147.063 31.5,147.5C 31.8432,149.483 31.1765,150.817 29.5,151.5C 27.2288,147.291 25.2288,142.958 23.5,138.5C 23.5,137.833 23.1667,137.5 22.5,137.5C 22.8499,134.959 22.8499,132.626 22.5,130.5C 25.2907,126.122 27.7907,121.455 30,116.5C 30.4643,117.094 30.631,117.761 30.5,118.5 Z"/></g>
<g><path style="opacity:1" fill="#3aa3c7" d="M 53.5,127.5 C 56.1905,129.216 58.1905,131.549 59.5,134.5C 58.277,135.614 56.9437,135.781 55.5,135C 53.2528,133.723 51.2528,132.223 49.5,130.5C 49.5858,129.504 49.2524,128.671 48.5,128C 50.1341,127.506 51.8008,127.34 53.5,127.5 Z"/></g>
<g><path style="opacity:1" fill="#62757f" d="M 47.5,125.5 C 49.5,125.833 51.5,126.167 53.5,126.5C 53.5,126.833 53.5,127.167 53.5,127.5C 51.8008,127.34 50.1341,127.506 48.5,128C 49.2524,128.671 49.5858,129.504 49.5,130.5C 48.3865,131.694 47.3865,133.027 46.5,134.5C 47.6888,135.429 49.0222,135.762 50.5,135.5C 49.0813,136.451 47.4147,136.784 45.5,136.5C 45.1113,132.586 45.7779,128.92 47.5,125.5 Z"/></g>
<g><path style="opacity:1" fill="#877d6d" d="M 17.5,114.5 C 18.4924,117.11 19.4924,119.777 20.5,122.5C 20.115,127.486 20.115,132.32 20.5,137C 21.0944,137.464 21.7611,137.631 22.5,137.5C 23.1667,137.5 23.5,137.833 23.5,138.5C 22.9033,138.735 22.5699,139.235 22.5,140C 23.6868,142.724 24.3535,145.557 24.5,148.5C 23.8333,148.5 23.1667,148.5 22.5,148.5C 21.7703,142.869 19.7703,137.702 16.5,133C 17.7924,130.121 17.7924,127.287 16.5,124.5C 17.552,124.649 18.552,124.483 19.5,124C 18.1336,121.003 17.467,117.836 17.5,114.5 Z"/></g>
<g><path style="opacity:1" fill="#234559" d="M 55.5,124.5 C 57.1468,129.179 60.1468,132.513 64.5,134.5C 64.5,135.5 64.5,136.5 64.5,137.5C 59.846,138.196 55.6793,137.196 52,134.5C 51.2352,134.57 50.7352,134.903 50.5,135.5C 49.0222,135.762 47.6888,135.429 46.5,134.5C 47.3865,133.027 48.3865,131.694 49.5,130.5C 51.2528,132.223 53.2528,133.723 55.5,135C 56.9437,135.781 58.277,135.614 59.5,134.5C 58.1905,131.549 56.1905,129.216 53.5,127.5C 53.5,127.167 53.5,126.833 53.5,126.5C 54.1667,125.833 54.8333,125.167 55.5,124.5 Z"/></g>
<g><path style="opacity:1" fill="#362f2c" d="M 42.5,120.5 C 41.1598,124.371 40.3265,128.371 40,132.5C 39.3457,131.304 38.8457,131.304 38.5,132.5C 39.7951,136.074 41.4618,139.407 43.5,142.5C 43.5,143.167 43.1667,143.5 42.5,143.5C 40.998,141.825 39.6647,139.992 38.5,138C 37.552,137.517 36.552,137.351 35.5,137.5C 33.5,135.5 31.5,133.5 29.5,131.5C 28.1474,130.133 28.4807,129.133 30.5,128.5C 31.4143,130.664 32.581,132.664 34,134.5C 35,133.167 36,133.167 37,134.5C 37.7429,132.559 37.5762,130.726 36.5,129C 38.2095,127.084 39.5428,124.918 40.5,122.5C 40.1084,120.129 39.1084,119.462 37.5,120.5C 34.7417,119.033 35.075,118.367 38.5,118.5C 38.5,117.5 38.5,116.5 38.5,115.5C 39.8221,115.67 40.9887,115.337 42,114.5C 41.716,116.679 41.8826,118.679 42.5,120.5 Z"/></g>
<g><path style="opacity:1" fill="#f1f2ec" d="M 47.5,115.5 C 47.5,116.167 47.5,116.833 47.5,117.5C 47.5,120.167 47.5,122.833 47.5,125.5C 45.7779,128.92 45.1113,132.586 45.5,136.5C 47.4147,136.784 49.0813,136.451 50.5,135.5C 50.7352,134.903 51.2352,134.57 52,134.5C 55.6793,137.196 59.846,138.196 64.5,137.5C 67.1619,136.263 69.8285,135.429 72.5,135C 70.5614,135.908 69.5614,137.408 69.5,139.5C 72.8499,139.665 76.1832,139.498 79.5,139C 80.7155,136.904 81.5488,137.071 82,139.5C 84.0433,137.033 86.2099,137.033 88.5,139.5C 89.1924,138.975 89.6924,138.308 90,137.5C 90.3729,139.698 90.8729,141.865 91.5,144C 91.4301,144.765 91.0967,145.265 90.5,145.5C 90.5,144.833 90.1667,144.5 89.5,144.5C 89.5,143.833 89.5,143.167 89.5,142.5C 84.825,142.103 79.825,142.103 74.5,142.5C 72.3855,143.034 70.5522,144.034 69,145.5C 67.9148,144.707 66.7481,144.04 65.5,143.5C 64.0098,145.376 62.3431,146.043 60.5,145.5C 60.1667,145.5 59.8333,145.5 59.5,145.5C 55.2776,143.863 51.2776,144.197 47.5,146.5C 46.16,145.133 44.8267,143.8 43.5,142.5C 41.4618,139.407 39.7951,136.074 38.5,132.5C 38.8457,131.304 39.3457,131.304 40,132.5C 40.3265,128.371 41.1598,124.371 42.5,120.5C 44.1042,119.713 44.7709,118.38 44.5,116.5C 45.391,115.89 46.391,115.557 47.5,115.5 Z"/></g>
<g><path style="opacity:1" fill="#a69a90" d="M 35.5,137.5 C 36.552,137.351 37.552,137.517 38.5,138C 39.6647,139.992 40.998,141.825 42.5,143.5C 43.8995,145.835 45.5662,148.002 47.5,150C 46.0715,150.579 44.7382,150.412 43.5,149.5C 43.1667,149.5 42.8333,149.5 42.5,149.5C 42.3736,147.378 41.7069,146.378 40.5,146.5C 37.995,143.988 36.3283,140.988 35.5,137.5 Z"/></g>
<g><path style="opacity:1" fill="#e9efea" d="M 29.5,131.5 C 31.5,133.5 33.5,135.5 35.5,137.5C 36.3283,140.988 37.995,143.988 40.5,146.5C 37.7131,147.477 34.7131,147.81 31.5,147.5C 29.9256,147.063 28.7589,146.063 28,144.5C 26.8333,141 25.6667,137.5 24.5,134C 24.6301,132.941 25.1301,132.108 26,131.5C 27.46,135.494 28.6267,135.494 29.5,131.5 Z"/></g>
<g><path style="opacity:1" fill="#bfafa3" d="M 23.5,138.5 C 25.2288,142.958 27.2288,147.291 29.5,151.5C 30.1667,152.167 30.8333,152.833 31.5,153.5C 28.9837,152.202 26.6504,150.535 24.5,148.5C 24.3535,145.557 23.6868,142.724 22.5,140C 22.5699,139.235 22.9033,138.735 23.5,138.5 Z"/></g>
<g><path style="opacity:1" fill="#636a5b" d="M 43.5,142.5 C 44.8267,143.8 46.16,145.133 47.5,146.5C 51.2776,144.197 55.2776,143.863 59.5,145.5C 59.4413,147.722 58.2747,148.722 56,148.5C 53.5379,147.841 51.0379,147.507 48.5,147.5C 48.8764,150.707 47.8764,153.373 45.5,155.5C 44.8165,155.137 44.1499,154.804 43.5,154.5C 43.5,152.833 43.5,151.167 43.5,149.5C 44.7382,150.412 46.0715,150.579 47.5,150C 45.5662,148.002 43.8995,145.835 42.5,143.5C 43.1667,143.5 43.5,143.167 43.5,142.5 Z"/></g>
<g><path style="opacity:1" fill="#7d9573" d="M 89.5,142.5 C 88.6906,143.469 87.6906,144.302 86.5,145C 87.2524,145.671 87.5858,146.504 87.5,147.5C 85.8235,146.817 85.1568,145.483 85.5,143.5C 83.8008,143.34 82.1341,143.506 80.5,144C 80.6938,145.43 80.6938,146.93 80.5,148.5C 79.2724,146.824 77.9391,146.491 76.5,147.5C 74.6921,148.918 74.0254,150.918 74.5,153.5C 72.8333,153.5 71.1667,153.5 69.5,153.5C 67.5,153.5 65.5,153.5 63.5,153.5C 64.5676,152.566 65.901,152.232 67.5,152.5C 67.1147,147.764 65.7814,147.431 63.5,151.5C 61.4228,150.012 60.4228,148.012 60.5,145.5C 62.3431,146.043 64.0098,145.376 65.5,143.5C 66.7481,144.04 67.9148,144.707 69,145.5C 70.5522,144.034 72.3855,143.034 74.5,142.5C 79.825,142.103 84.825,142.103 89.5,142.5 Z"/></g>
<g><path style="opacity:1" fill="#4f7559" d="M 87.5,147.5 C 87.5,149.5 87.5,151.5 87.5,153.5C 86.5,153.5 85.5,153.5 84.5,153.5C 86.14,152.21 86.64,150.543 86,148.5C 85.7508,149.624 85.2508,150.624 84.5,151.5C 82.5607,149.382 80.394,149.049 78,150.5C 77.4867,149.473 76.9867,148.473 76.5,147.5C 77.9391,146.491 79.2724,146.824 80.5,148.5C 80.6938,146.93 80.6938,145.43 80.5,144C 82.1341,143.506 83.8008,143.34 85.5,143.5C 85.1568,145.483 85.8235,146.817 87.5,147.5 Z"/></g>
<g><path style="opacity:1" fill="#88875e" d="M 13.5,148.5 C 16.5,148.5 19.5,148.5 22.5,148.5C 23.1667,148.5 23.8333,148.5 24.5,148.5C 26.6504,150.535 28.9837,152.202 31.5,153.5C 31.7329,155.062 32.3995,156.395 33.5,157.5C 31.4352,157.483 29.4352,157.15 27.5,156.5C 27.5,155.167 27.5,153.833 27.5,152.5C 22.9777,150.349 18.311,150.016 13.5,151.5C 13.5,150.5 13.5,149.5 13.5,148.5 Z"/></g>
<g><path style="opacity:1" fill="#59846d" d="M 42.5,149.5 C 39.8872,148.565 37.2205,148.398 34.5,149C 33.3157,150.145 33.3157,151.312 34.5,152.5C 33.391,152.557 32.391,152.89 31.5,153.5C 30.8333,152.833 30.1667,152.167 29.5,151.5C 31.1765,150.817 31.8432,149.483 31.5,147.5C 34.7131,147.81 37.7131,147.477 40.5,146.5C 41.7069,146.378 42.3736,147.378 42.5,149.5 Z"/></g>
<g><path style="opacity:1" fill="#324930" d="M 59.5,145.5 C 59.8333,145.5 60.1667,145.5 60.5,145.5C 60.4228,148.012 61.4228,150.012 63.5,151.5C 65.7814,147.431 67.1147,147.764 67.5,152.5C 65.901,152.232 64.5676,152.566 63.5,153.5C 62.1667,153.5 60.8333,153.5 59.5,153.5C 57.8008,153.66 56.1341,153.494 54.5,153C 56.0441,152.71 57.3774,152.044 58.5,151C 56.1902,150.503 53.8568,150.337 51.5,150.5C 51.7589,153.48 50.4256,155.313 47.5,156C 49.1667,156.333 50.8333,156.667 52.5,157C 47.8262,157.333 43.1595,157.167 38.5,156.5C 38.5,156.167 38.5,155.833 38.5,155.5C 39.9187,154.549 41.5853,154.216 43.5,154.5C 44.1499,154.804 44.8165,155.137 45.5,155.5C 47.8764,153.373 48.8764,150.707 48.5,147.5C 51.0379,147.507 53.5379,147.841 56,148.5C 58.2747,148.722 59.4413,147.722 59.5,145.5 Z"/></g>
<g><path style="opacity:1" fill="#355332" d="M 68.5,146.5 C 70.0931,147.348 71.2597,148.681 72,150.5C 72.3333,149.833 72.6667,149.167 73,148.5C 73.49,149.793 73.6567,151.127 73.5,152.5C 71.8333,152.5 70.1667,152.5 68.5,152.5C 68.5,150.5 68.5,148.5 68.5,146.5 Z"/></g>
<g><path style="opacity:1" fill="#313830" d="M 89.5,142.5 C 89.5,143.167 89.5,143.833 89.5,144.5C 90.0545,148.012 89.3878,151.012 87.5,153.5C 87.5,151.5 87.5,149.5 87.5,147.5C 87.5858,146.504 87.2524,145.671 86.5,145C 87.6906,144.302 88.6906,143.469 89.5,142.5 Z"/></g>
<g><path style="opacity:1" fill="#479b78" d="M 42.5,149.5 C 42.8333,149.5 43.1667,149.5 43.5,149.5C 43.5,151.167 43.5,152.833 43.5,154.5C 41.5853,154.216 39.9187,154.549 38.5,155.5C 37.5,155.5 36.5,155.5 35.5,155.5C 35.7373,154.209 35.404,153.209 34.5,152.5C 33.3157,151.312 33.3157,150.145 34.5,149C 37.2205,148.398 39.8872,148.565 42.5,149.5 Z"/></g>
<g><path style="opacity:1" fill="#254228" d="M 76.5,147.5 C 76.9867,148.473 77.4867,149.473 78,150.5C 80.394,149.049 82.5607,149.382 84.5,151.5C 85.2508,150.624 85.7508,149.624 86,148.5C 86.64,150.543 86.14,152.21 84.5,153.5C 82.5,153.5 80.5,153.5 78.5,153.5C 77.5,153.5 76.5,153.5 75.5,153.5C 75.1667,153.5 74.8333,153.5 74.5,153.5C 74.0254,150.918 74.6921,148.918 76.5,147.5 Z"/></g>
<g><path style="opacity:1" fill="#162518" d="M 34.5,152.5 C 35.404,153.209 35.7373,154.209 35.5,155.5C 36.5,155.5 37.5,155.5 38.5,155.5C 38.5,155.833 38.5,156.167 38.5,156.5C 36.8828,157.038 35.2161,157.371 33.5,157.5C 32.3995,156.395 31.7329,155.062 31.5,153.5C 32.391,152.89 33.391,152.557 34.5,152.5 Z"/></g>
<g><path style="opacity:1" fill="#797e75" d="M 89.5,144.5 C 90.1667,144.5 90.5,144.833 90.5,145.5C 90.8205,150.695 90.4872,155.695 89.5,160.5C 89.5,158.5 89.5,156.5 89.5,154.5C 86.4552,154.508 83.4552,154.841 80.5,155.5C 79.8333,154.833 79.1667,154.167 78.5,153.5C 80.5,153.5 82.5,153.5 84.5,153.5C 85.5,153.5 86.5,153.5 87.5,153.5C 89.3878,151.012 90.0545,148.012 89.5,144.5 Z"/></g>
<g><path style="opacity:1" fill="#d8e089" d="M 59.5,153.5 C 60.8333,153.5 62.1667,153.5 63.5,153.5C 65.5,153.5 67.5,153.5 69.5,153.5C 66.2856,154.282 62.9523,155.115 59.5,156C 64.4889,156.499 69.4889,156.666 74.5,156.5C 70.8999,157.387 67.2332,158.387 63.5,159.5C 61.8333,159.5 60.1667,159.5 58.5,159.5C 54.4862,159.666 50.4862,159.499 46.5,159C 49.8333,158.667 53.1667,158.333 56.5,158C 55.4495,156.615 54.1161,155.615 52.5,155C 55.0356,154.814 57.369,154.314 59.5,153.5 Z"/></g>
<g><path style="opacity:1" fill="#cdcfad" d="M 75.5,153.5 C 76.5,153.5 77.5,153.5 78.5,153.5C 79.1667,154.167 79.8333,154.833 80.5,155.5C 78.7839,155.629 77.1172,155.962 75.5,156.5C 75.5,155.5 75.5,154.5 75.5,153.5 Z"/></g>
<g><path style="opacity:1" fill="#bbcb84" d="M 27.5,156.5 C 23.1667,156.5 18.8333,156.5 14.5,156.5C 13.645,155.469 12.9783,154.303 12.5,153C 12.5699,152.235 12.9033,151.735 13.5,151.5C 18.311,150.016 22.9777,150.349 27.5,152.5C 27.5,153.833 27.5,155.167 27.5,156.5 Z"/></g>
<g><path style="opacity:1" fill="#f0f37c" d="M 69.5,153.5 C 71.1667,153.5 72.8333,153.5 74.5,153.5C 74.8333,153.5 75.1667,153.5 75.5,153.5C 75.5,154.5 75.5,155.5 75.5,156.5C 75.1667,156.5 74.8333,156.5 74.5,156.5C 69.4889,156.666 64.4889,156.499 59.5,156C 62.9523,155.115 66.2856,154.282 69.5,153.5 Z"/></g>
<g><path style="opacity:1" fill="#5a6e4b" d="M 14.5,156.5 C 18.8333,156.5 23.1667,156.5 27.5,156.5C 27.5569,157.609 27.8902,158.609 28.5,159.5C 23.7588,158.353 19.0921,157.353 14.5,156.5 Z"/></g>
<g><path style="opacity:1" fill="#95ae81" d="M 59.5,153.5 C 57.369,154.314 55.0356,154.814 52.5,155C 54.1161,155.615 55.4495,156.615 56.5,158C 53.1667,158.333 49.8333,158.667 46.5,159C 50.4862,159.499 54.4862,159.666 58.5,159.5C 56.8333,160.167 55.1667,160.833 53.5,161.5C 49.1667,161.5 44.8333,161.5 40.5,161.5C 40.2131,159.879 39.2131,158.879 37.5,158.5C 34.5788,159.407 31.5788,159.74 28.5,159.5C 27.8902,158.609 27.5569,157.609 27.5,156.5C 29.4352,157.15 31.4352,157.483 33.5,157.5C 35.2161,157.371 36.8828,157.038 38.5,156.5C 43.1595,157.167 47.8262,157.333 52.5,157C 50.8333,156.667 49.1667,156.333 47.5,156C 50.4256,155.313 51.7589,153.48 51.5,150.5C 53.8568,150.337 56.1902,150.503 58.5,151C 57.3774,152.044 56.0441,152.71 54.5,153C 56.1341,153.494 57.8008,153.66 59.5,153.5 Z"/></g>
<g><path style="opacity:1" fill="#292d26" d="M 89.5,160.5 C 80.6506,160.826 71.9839,160.493 63.5,159.5C 67.2332,158.387 70.8999,157.387 74.5,156.5C 74.8333,156.5 75.1667,156.5 75.5,156.5C 77.1172,155.962 78.7839,155.629 80.5,155.5C 83.4552,154.841 86.4552,154.508 89.5,154.5C 89.5,156.5 89.5,158.5 89.5,160.5 Z"/></g>
<g><path style="opacity:1" fill="#394338" d="M 13.5,148.5 C 13.5,149.5 13.5,150.5 13.5,151.5C 12.9033,151.735 12.5699,152.235 12.5,153C 12.9783,154.303 13.645,155.469 14.5,156.5C 19.0921,157.353 23.7588,158.353 28.5,159.5C 31.5788,159.74 34.5788,159.407 37.5,158.5C 39.2131,158.879 40.2131,159.879 40.5,161.5C 30.2868,161.392 19.9535,161.392 9.5,161.5C 9.5,157.167 9.5,152.833 9.5,148.5C 10.8333,148.5 12.1667,148.5 13.5,148.5 Z"/></g>
<g><path style="opacity:1" fill="#808481" d="M 58.5,159.5 C 60.1667,159.5 61.8333,159.5 63.5,159.5C 71.9839,160.493 80.6506,160.826 89.5,160.5C 77.6783,161.495 65.6783,161.828 53.5,161.5C 55.1667,160.833 56.8333,160.167 58.5,159.5 Z"/></g>
</svg>
