<?xml version="1.0" encoding="UTF-8"?>
<!DOCTYPE svg PUBLIC "-//W3C//DTD SVG 1.1//EN" "http://www.w3.org/Graphics/SVG/1.1/DTD/svg11.dtd">
<svg xmlns="http://www.w3.org/2000/svg" version="1.1" width="100px" height="165px" style="shape-rendering:geometricPrecision; text-rendering:geometricPrecision; image-rendering:optimizeQuality; fill-rule:evenodd; clip-rule:evenodd" xmlns:xlink="http://www.w3.org/1999/xlink">
<g><path style="opacity:1" fill="#f9faf8" d="M 8.5,-0.5 C 38.8333,-0.5 69.1667,-0.5 99.5,-0.5C 99.5,54.5 99.5,109.5 99.5,164.5C 96.1667,164.5 92.8333,164.5 89.5,164.5C 89.5,164.167 89.5,163.833 89.5,163.5C 89.5,162.167 89.5,160.833 89.5,159.5C 89.5,158.5 89.5,157.5 89.5,156.5C 89.5,154.167 89.5,151.833 89.5,149.5C 85.1667,150.167 80.8333,150.833 76.5,151.5C 74.8333,151.5 73.1667,151.5 71.5,151.5C 71.5,150.5 71.5,149.5 71.5,148.5C 72.5886,144.457 73.5886,140.457 74.5,136.5C 74.33,135.178 74.6634,134.011 75.5,133C 78.3286,131.753 80.9952,130.253 83.5,128.5C 85.5816,123.601 88.2483,119.101 91.5,115C 91.0137,112.973 91.0137,110.807 91.5,108.5C 91.4511,105.626 91.7844,102.792 92.5,100C 92.1414,97.4541 91.1414,95.2874 89.5,93.5C 88.1497,89.9049 85.483,88.5715 81.5,89.5C 77.5448,85.2153 74.2115,80.5487 71.5,75.5C 71.2627,74.209 71.596,73.209 72.5,72.5C 76.6137,72.3818 79.2804,70.3818 80.5,66.5C 79.5606,62.017 78.2272,57.6837 76.5,53.5C 76.5204,48.8662 75.3538,44.5329 73,40.5C 71.5295,39.7334 70.0295,39.0668 68.5,38.5C 66.642,37.4045 64.9754,36.0712 63.5,34.5C 65.2718,33.7303 66.2718,32.3969 66.5,30.5C 65.3489,28.6746 64.6822,26.6746 64.5,24.5C 64.6716,23.5084 64.3382,22.8417 63.5,22.5C 63.5,22.1667 63.5,21.8333 63.5,21.5C 63.56,20.9569 63.8933,20.6236 64.5,20.5C 67.5445,21.2793 70.2111,22.6127 72.5,24.5C 73.6009,25.5983 74.9343,25.765 76.5,25C 77.7491,23.02 79.0824,21.1867 80.5,19.5C 81.4916,19.6716 82.1583,19.3382 82.5,18.5C 83.8863,16.0621 83.553,13.7288 81.5,11.5C 78.0202,10.1944 74.6868,10.1944 71.5,11.5C 69.139,11.6741 66.8056,12.0074 64.5,12.5C 63.8333,12.1667 63.1667,11.8333 62.5,11.5C 56.6812,10.3475 50.6812,10.1808 44.5,11C 41.5724,12.8761 40.9057,15.3761 42.5,18.5C 43.325,19.3857 44.325,19.719 45.5,19.5C 45.5,19.8333 45.5,20.1667 45.5,20.5C 44.6347,23.1 43.968,25.7666 43.5,28.5C 44.1822,30.8409 44.8489,33.1743 45.5,35.5C 43.5,36.8333 41.8333,38.5 40.5,40.5C 39.1667,41.1667 38.1667,42.1667 37.5,43.5C 35.4752,41.8036 33.4752,40.137 31.5,38.5C 30.8112,37.2928 30.6446,35.9594 31,34.5C 30.0862,35.6537 29.2529,35.487 28.5,34C 30.1667,33.6667 31.8333,33.3333 33.5,33C 32.2341,32.6905 31.0674,32.1905 30,31.5C 28.3107,29.24 27.144,26.74 26.5,24C 24.925,24.379 23.425,24.2123 22,23.5C 21.5304,22.4232 21.6971,21.4232 22.5,20.5C 23.1667,19.1667 24.1667,18.1667 25.5,17.5C 27.2729,14.324 26.2729,12.6573 22.5,12.5C 22.5,11.1667 22.5,9.83333 22.5,8.5C 23.1667,7.5 23.8333,6.5 24.5,5.5C 26.0281,5.48269 26.5281,4.81602 26,3.5C 24.9326,2.80945 23.7659,2.30945 22.5,2C 17.9796,1.18636 13.6463,1.35303 9.5,2.5C 8.90326,2.7352 8.56993,3.2352 8.5,4C 9.05558,5.01106 9.72225,5.84439 10.5,6.5C 10.7709,8.3797 10.1042,9.71304 8.5,10.5C 7.2825,9.83855 5.94916,9.17189 4.5,8.5C 4.97665,7.52242 5.64332,6.68909 6.5,6C 5.14867,4.38288 3.482,3.21622 1.5,2.5C 4.10238,1.86758 6.43571,0.867575 8.5,-0.5 Z"/></g>
<g><path style="opacity:1" fill="#a2776f" d="M 9.5,2.5 C 13.6463,1.35303 17.9796,1.18636 22.5,2C 23.7659,2.30945 24.9326,2.80945 26,3.5C 26.5281,4.81602 26.0281,5.48269 24.5,5.5C 24.316,3.07516 23.6493,3.07516 22.5,5.5C 18.3956,3.46423 14.0622,2.46423 9.5,2.5 Z"/></g>
<g><path style="opacity:1" fill="#664234" d="M 9.5,2.5 C 14.0622,2.46423 18.3956,3.46423 22.5,5.5C 23.6493,3.07516 24.316,3.07516 24.5,5.5C 23.8333,6.5 23.1667,7.5 22.5,8.5C 21.609,9.10978 20.609,9.44312 19.5,9.5C 16.8152,7.74088 13.8152,6.74088 10.5,6.5C 9.72225,5.84439 9.05558,5.01106 8.5,4C 8.56993,3.2352 8.90326,2.7352 9.5,2.5 Z"/></g>
<g><path style="opacity:1" fill="#cebf8d" d="M 10.5,6.5 C 13.8152,6.74088 16.8152,7.74088 19.5,9.5C 19.5,10.8333 19.5,12.1667 19.5,13.5C 15.8333,13.5 12.1667,13.5 8.5,13.5C 8.5,12.5 8.5,11.5 8.5,10.5C 10.1042,9.71304 10.7709,8.3797 10.5,6.5 Z"/></g>
<g><path style="opacity:1" fill="#5a899d" d="M 62.5,11.5 C 61.7611,11.369 61.0944,11.5357 60.5,12C 61.3567,12.6891 62.0233,13.5224 62.5,14.5C 60.604,15.4656 58.604,15.7989 56.5,15.5C 59.1251,14.5595 59.1251,13.3928 56.5,12C 51.8481,10.8069 47.6814,11.6403 44,14.5C 43.2748,16.1575 43.7748,17.1575 45.5,17.5C 45.5,18.1667 45.5,18.8333 45.5,19.5C 44.325,19.719 43.325,19.3857 42.5,18.5C 40.9057,15.3761 41.5724,12.8761 44.5,11C 50.6812,10.1808 56.6812,10.3475 62.5,11.5 Z"/></g>
<g><path style="opacity:1" fill="#c49d98" d="M 71.5,11.5 C 74.6868,10.1944 78.0202,10.1944 81.5,11.5C 83.553,13.7288 83.8863,16.0621 82.5,18.5C 82.822,16.2776 82.1554,14.4443 80.5,13C 77.6492,11.7114 74.6492,11.2114 71.5,11.5 Z"/></g>
<g><path style="opacity:1" fill="#6d6a5d" d="M 22.5,8.5 C 22.5,9.83333 22.5,11.1667 22.5,12.5C 26.2729,12.6573 27.2729,14.324 25.5,17.5C 25.5,16.5 25.5,15.5 25.5,14.5C 23.8333,14.5 22.1667,14.5 20.5,14.5C 19.8333,14.5 19.5,14.1667 19.5,13.5C 19.5,12.1667 19.5,10.8333 19.5,9.5C 20.609,9.44312 21.609,9.10978 22.5,8.5 Z"/></g>
<g><path style="opacity:1" fill="#41acd5" d="M 56.5,15.5 C 52.8333,16.1667 49.1667,16.8333 45.5,17.5C 43.7748,17.1575 43.2748,16.1575 44,14.5C 47.6814,11.6403 51.8481,10.8069 56.5,12C 59.1251,13.3928 59.1251,14.5595 56.5,15.5 Z"/></g>
<g><path style="opacity:1" fill="#57828e" d="M 7.5,14.5 C 7.5,13.8333 7.83333,13.5 8.5,13.5C 12.1667,13.5 15.8333,13.5 19.5,13.5C 19.5,14.1667 19.8333,14.5 20.5,14.5C 20.5,16.1667 20.5,17.8333 20.5,19.5C 19.0695,19.4208 17.7362,19.7542 16.5,20.5C 15.8333,19.5 15.1667,18.5 14.5,17.5C 11.7314,17.9602 9.39807,16.9602 7.5,14.5 Z"/></g>
<g><path style="opacity:1" fill="#474149" d="M 62.5,11.5 C 63.1667,11.8333 63.8333,12.1667 64.5,12.5C 63.5868,14.0861 63.5868,15.5861 64.5,17C 70.0981,17.0673 75.4314,17.9006 80.5,19.5C 79.0824,21.1867 77.7491,23.02 76.5,25C 74.9343,25.765 73.6009,25.5983 72.5,24.5C 72.3287,21.2027 72.9954,20.8694 74.5,23.5C 76.4879,22.7112 76.8213,21.5445 75.5,20C 71.23,18.9246 66.8967,18.4246 62.5,18.5C 62.2627,19.791 62.596,20.791 63.5,21.5C 63.5,21.8333 63.5,22.1667 63.5,22.5C 62.6909,24.2922 62.1909,26.2922 62,28.5C 61.1594,24.7116 60.326,21.3782 59.5,18.5C 55.7326,18.5166 52.0659,18.8499 48.5,19.5C 47.609,20.1098 46.609,20.4431 45.5,20.5C 45.5,20.1667 45.5,19.8333 45.5,19.5C 45.5,18.8333 45.5,18.1667 45.5,17.5C 49.1667,16.8333 52.8333,16.1667 56.5,15.5C 58.604,15.7989 60.604,15.4656 62.5,14.5C 62.0233,13.5224 61.3567,12.6891 60.5,12C 61.0944,11.5357 61.7611,11.369 62.5,11.5 Z"/></g>
<g><path style="opacity:1" fill="#a15356" d="M 71.5,11.5 C 74.6492,11.2114 77.6492,11.7114 80.5,13C 82.1554,14.4443 82.822,16.2776 82.5,18.5C 82.1583,19.3382 81.4916,19.6716 80.5,19.5C 75.4314,17.9006 70.0981,17.0673 64.5,17C 63.5868,15.5861 63.5868,14.0861 64.5,12.5C 66.8056,12.0074 69.139,11.6741 71.5,11.5 Z"/></g>
<g><path style="opacity:1" fill="#b99c84" d="M 48.5,19.5 C 50.5273,19.3379 52.5273,19.5045 54.5,20C 52.8934,21.049 52.2267,22.549 52.5,24.5C 52.0825,25.2216 51.4158,25.7216 50.5,26C 52.6633,26.2453 54.33,27.2453 55.5,29C 53.1902,29.4966 50.8568,29.6633 48.5,29.5C 47.0582,28.1805 46.3915,26.5138 46.5,24.5C 47.5,24.5 48.5,24.5 49.5,24.5C 49.634,22.7085 49.3007,21.0418 48.5,19.5 Z"/></g>
<g><path style="opacity:1" fill="#8f7f74" d="M 48.5,19.5 C 52.0659,18.8499 55.7326,18.5166 59.5,18.5C 60.326,21.3782 61.1594,24.7116 62,28.5C 62.1909,26.2922 62.6909,24.2922 63.5,22.5C 64.3382,22.8417 64.6716,23.5084 64.5,24.5C 63.5033,27.005 63.5033,29.6717 64.5,32.5C 62.8333,32.5 61.1667,32.5 59.5,32.5C 59.7989,30.396 59.4656,28.396 58.5,26.5C 57.8281,27.9492 57.1614,29.2825 56.5,30.5C 56.5,28.5 56.5,26.5 56.5,24.5C 55.1667,24.5 53.8333,24.5 52.5,24.5C 52.2267,22.549 52.8934,21.049 54.5,20C 52.5273,19.5045 50.5273,19.3379 48.5,19.5 Z"/></g>
<g><path style="opacity:1" fill="#394344" d="M 7.5,14.5 C 9.39807,16.9602 11.7314,17.9602 14.5,17.5C 15.1667,18.5 15.8333,19.5 16.5,20.5C 17.7362,19.7542 19.0695,19.4208 20.5,19.5C 20.5,17.8333 20.5,16.1667 20.5,14.5C 22.1667,14.5 23.8333,14.5 25.5,14.5C 25.5,15.5 25.5,16.5 25.5,17.5C 24.1667,18.1667 23.1667,19.1667 22.5,20.5C 20.0274,20.0882 18.6941,21.0882 18.5,23.5C 17.0413,23.5674 15.7079,23.2341 14.5,22.5C 10.7953,21.1249 8.46193,18.4583 7.5,14.5 Z"/></g>
<g><path style="opacity:1" fill="#678aa1" d="M 72.5,24.5 C 70.2111,22.6127 67.5445,21.2793 64.5,20.5C 63.8933,20.6236 63.56,20.9569 63.5,21.5C 62.596,20.791 62.2627,19.791 62.5,18.5C 66.8967,18.4246 71.23,18.9246 75.5,20C 76.8213,21.5445 76.4879,22.7112 74.5,23.5C 72.9954,20.8694 72.3287,21.2027 72.5,24.5 Z"/></g>
<g><path style="opacity:1" fill="#715f5e" d="M 48.5,19.5 C 49.3007,21.0418 49.634,22.7085 49.5,24.5C 48.5,24.5 47.5,24.5 46.5,24.5C 46.3915,26.5138 47.0582,28.1805 48.5,29.5C 48.5,30.1667 48.5,30.8333 48.5,31.5C 47.7109,31.7828 47.0442,32.2828 46.5,33C 47.5981,33.7697 47.5981,34.603 46.5,35.5C 46.1667,35.5 45.8333,35.5 45.5,35.5C 44.8489,33.1743 44.1822,30.8409 43.5,28.5C 43.968,25.7666 44.6347,23.1 45.5,20.5C 46.609,20.4431 47.609,20.1098 48.5,19.5 Z"/></g>
<g><path style="opacity:1" fill="#dabfa0" d="M 52.5,24.5 C 53.8333,24.5 55.1667,24.5 56.5,24.5C 56.5,26.5 56.5,28.5 56.5,30.5C 56.0472,31.4584 55.3805,32.2917 54.5,33C 56.3146,33.7568 57.9812,34.5902 59.5,35.5C 58.1667,36.1667 56.8333,36.8333 55.5,37.5C 54.8485,38.0906 54.1818,38.7573 53.5,39.5C 51.6208,36.8531 49.9542,34.1864 48.5,31.5C 48.5,30.8333 48.5,30.1667 48.5,29.5C 50.8568,29.6633 53.1902,29.4966 55.5,29C 54.33,27.2453 52.6633,26.2453 50.5,26C 51.4158,25.7216 52.0825,25.2216 52.5,24.5 Z"/></g>
<g><path style="opacity:1" fill="#493c30" d="M 64.5,24.5 C 64.6822,26.6746 65.3489,28.6746 66.5,30.5C 66.2718,32.3969 65.2718,33.7303 63.5,34.5C 64.9754,36.0712 66.642,37.4045 68.5,38.5C 66.891,39.3262 65.2243,40.3262 63.5,41.5C 63.1667,41.5 62.8333,41.5 62.5,41.5C 63.0283,40.2794 63.695,39.1127 64.5,38C 62.6854,37.2432 61.0188,36.4098 59.5,35.5C 57.9812,34.5902 56.3146,33.7568 54.5,33C 55.3805,32.2917 56.0472,31.4584 56.5,30.5C 57.1614,29.2825 57.8281,27.9492 58.5,26.5C 59.4656,28.396 59.7989,30.396 59.5,32.5C 61.1667,32.5 62.8333,32.5 64.5,32.5C 63.5033,29.6717 63.5033,27.005 64.5,24.5 Z"/></g>
<g><path style="opacity:1" fill="#92887f" d="M 31.5,38.5 C 33.4752,40.137 35.4752,41.8036 37.5,43.5C 36.8112,44.7072 36.6446,46.0406 37,47.5C 36.3333,46.8333 35.6667,46.1667 35,45.5C 33.7327,47.8144 32.566,50.1478 31.5,52.5C 32.0252,57.118 30.6919,58.118 27.5,55.5C 30.797,51.0911 30.9636,46.4244 28,41.5C 27.9748,44.9167 27.8082,48.2501 27.5,51.5C 26.5049,46.8433 25.5049,42.51 24.5,38.5C 22.9539,39.684 21.2873,40.684 19.5,41.5C 20.5,42.1667 21.5,42.8333 22.5,43.5C 20.9137,45.1727 20.2471,47.1727 20.5,49.5C 20.1667,49.5 19.8333,49.5 19.5,49.5C 19.6716,48.5084 19.3382,47.8417 18.5,47.5C 16.4377,45.7142 15.1043,43.3809 14.5,40.5C 15.4289,38.3622 17.0955,37.1955 19.5,37C 18.2068,36.51 16.8734,36.3433 15.5,36.5C 16.209,35.596 17.209,35.2627 18.5,35.5C 18.5,34.1667 18.5,32.8333 18.5,31.5C 19.8734,31.3433 21.2068,31.51 22.5,32C 25.1178,34.7976 28.1178,36.9643 31.5,38.5 Z"/></g>
<g><path style="opacity:1" fill="#534c40" d="M 10.5,34.5 C 12.1667,35.1667 13.8333,35.8333 15.5,36.5C 16.8734,36.3433 18.2068,36.51 19.5,37C 17.0955,37.1955 15.4289,38.3622 14.5,40.5C 15.1043,43.3809 16.4377,45.7142 18.5,47.5C 14.6089,46.4264 12.7756,43.7598 13,39.5C 12.7104,41.0441 12.0437,42.3774 11,43.5C 10.7822,40.5738 10.2822,37.7405 9.5,35C 9.72845,34.6012 10.0618,34.4346 10.5,34.5 Z"/></g>
<g><path style="opacity:1" fill="#1d2f24" d="M 45.5,35.5 C 45.8333,35.5 46.1667,35.5 46.5,35.5C 48.1788,35.2852 49.1788,35.9519 49.5,37.5C 46.5185,37.1824 44.1852,38.1824 42.5,40.5C 41.8333,40.5 41.1667,40.5 40.5,40.5C 41.8333,38.5 43.5,36.8333 45.5,35.5 Z"/></g>
<g><path style="opacity:1" fill="#6f9d7d" d="M 49.5,37.5 C 50.0431,37.56 50.3764,37.8933 50.5,38.5C 49.1014,40.3941 47.268,41.7274 45,42.5C 43.6244,42.3158 42.7911,41.6491 42.5,40.5C 44.1852,38.1824 46.5185,37.1824 49.5,37.5 Z"/></g>
<g><path style="opacity:1" fill="#619d74" d="M 59.5,35.5 C 61.0188,36.4098 62.6854,37.2432 64.5,38C 63.695,39.1127 63.0283,40.2794 62.5,41.5C 60.4884,42.0138 58.4884,42.1805 56.5,42C 55.6198,40.6439 55.2865,39.1439 55.5,37.5C 56.8333,36.8333 58.1667,36.1667 59.5,35.5 Z"/></g>
<g><path style="opacity:1" fill="#9f835e" d="M 68.5,38.5 C 70.0295,39.0668 71.5295,39.7334 73,40.5C 75.3538,44.5329 76.5204,48.8662 76.5,53.5C 75.6043,52.4937 74.9377,52.4937 74.5,53.5C 71.7884,53.7375 69.2884,53.7375 67,53.5C 66.7216,54.4158 66.2216,55.0825 65.5,55.5C 64.8333,55.5 64.5,55.1667 64.5,54.5C 64.5,54.1667 64.5,53.8333 64.5,53.5C 65.29,52.3915 65.79,51.0581 66,49.5C 66.7096,50.9733 67.8762,51.6399 69.5,51.5C 71.5638,47.1858 70.3971,44.1858 66,42.5C 63.9771,44.7693 63.1437,47.4359 63.5,50.5C 62.5318,48.3926 62.1984,46.0593 62.5,43.5C 62.8333,42.8333 63.1667,42.1667 63.5,41.5C 65.2243,40.3262 66.891,39.3262 68.5,38.5 Z"/></g>
<g><path style="opacity:1" fill="#857d76" d="M 10.5,34.5 C 10.0618,34.4346 9.72845,34.6012 9.5,35C 10.2822,37.7405 10.7822,40.5738 11,43.5C 12.0437,42.3774 12.7104,41.0441 13,39.5C 12.7756,43.7598 14.6089,46.4264 18.5,47.5C 17.1516,48.1859 15.985,49.1859 15,50.5C 14.8784,48.563 14.045,47.2297 12.5,46.5C 11.791,45.596 10.791,45.2627 9.5,45.5C 9.5,46.5 9.5,47.5 9.5,48.5C 8.5,48.5 7.5,48.5 6.5,48.5C 6.15069,45.5371 7.15069,43.2038 9.5,41.5C 8.95893,38.7924 8.29226,36.1257 7.5,33.5C 8.85953,32.3347 9.85953,32.668 10.5,34.5 Z"/></g>
<g><path style="opacity:1" fill="#cbb36b" d="M 64.5,53.5 C 64.4431,52.391 64.1098,51.391 63.5,50.5C 63.1437,47.4359 63.9771,44.7693 66,42.5C 70.3971,44.1858 71.5638,47.1858 69.5,51.5C 67.8762,51.6399 66.7096,50.9733 66,49.5C 65.79,51.0581 65.29,52.3915 64.5,53.5 Z"/></g>
<g><path style="opacity:1" fill="#a0534d" d="M 47.5,43.5 C 48.6857,44.9613 48.6857,46.2946 47.5,47.5C 47.2089,46.3509 46.3756,45.6842 45,45.5C 42.5,45.3333 41.3333,46.5 41.5,49C 41.8564,51.8593 43.5231,53.3593 46.5,53.5C 46.5,55.8333 46.5,58.1667 46.5,60.5C 44.8958,59.713 44.2291,58.3797 44.5,56.5C 43.5,56.5 42.5,56.5 41.5,56.5C 41.1667,55.1667 40.8333,53.8333 40.5,52.5C 40.6716,51.5084 40.3382,50.8417 39.5,50.5C 39.695,45.3035 42.3617,42.9701 47.5,43.5 Z"/></g>
<g><path style="opacity:1" fill="#b05a51" d="M 54.5,43.5 C 56.5648,43.5172 58.5648,43.8505 60.5,44.5C 60.9861,47.3817 60.9861,50.0483 60.5,52.5C 59.6236,52.6309 58.9569,52.2975 58.5,51.5C 60.561,46.3972 59.061,44.7305 54,46.5C 51.9704,52.6782 50.8037,59.0116 50.5,65.5C 49.3547,61.6888 49.1881,57.6888 50,53.5C 51.092,50.9556 51.7586,48.2889 52,45.5C 52.7083,44.6195 53.5416,43.9528 54.5,43.5 Z"/></g>
<g><path style="opacity:1" fill="#2e261e" d="M 12.5,46.5 C 11.6993,48.0418 11.366,49.7085 11.5,51.5C 10.8333,52.5 10.1667,53.5 9.5,54.5C 9.5,52.5 9.5,50.5 9.5,48.5C 9.5,47.5 9.5,46.5 9.5,45.5C 10.791,45.2627 11.791,45.596 12.5,46.5 Z"/></g>
<g><path style="opacity:1" fill="#662825" d="M 62.5,43.5 C 62.1984,46.0593 62.5318,48.3926 63.5,50.5C 64.1098,51.391 64.4431,52.391 64.5,53.5C 64.5,53.8333 64.5,54.1667 64.5,54.5C 64.254,57.2933 64.0873,60.2933 64,63.5C 62.9681,65.0267 61.8014,66.36 60.5,67.5C 59.5,67.5 58.5,67.5 57.5,67.5C 57.1583,66.6618 56.4916,66.3284 55.5,66.5C 56.8775,65.7656 58.3775,65.0989 60,64.5C 60.4988,60.5138 60.6655,56.5138 60.5,52.5C 60.9861,50.0483 60.9861,47.3817 60.5,44.5C 61.1667,44.1667 61.8333,43.8333 62.5,43.5 Z"/></g>
<g><path style="opacity:1" fill="#cc4f4f" d="M 47.5,47.5 C 47.7947,49.7354 47.4614,51.7354 46.5,53.5C 43.5231,53.3593 41.8564,51.8593 41.5,49C 41.3333,46.5 42.5,45.3333 45,45.5C 46.3756,45.6842 47.2089,46.3509 47.5,47.5 Z"/></g>
<g><path style="opacity:1" fill="#cbc0ac" d="M 12.5,46.5 C 14.045,47.2297 14.8784,48.563 15,50.5C 15.985,49.1859 17.1516,48.1859 18.5,47.5C 19.3382,47.8417 19.6716,48.5084 19.5,49.5C 18.5041,49.4142 17.6708,49.7476 17,50.5C 16.5065,52.1341 16.3398,53.8008 16.5,55.5C 14.8031,57.3052 13.9698,59.6385 14,62.5C 11.9246,59.1656 11.0912,55.4989 11.5,51.5C 11.366,49.7085 11.6993,48.0418 12.5,46.5 Z"/></g>
<g><path style="opacity:1" fill="#635953" d="M 20.5,59.5 C 19.3473,58.6868 19.3473,57.6868 20.5,56.5C 19.3112,55.5713 17.9778,55.238 16.5,55.5C 16.3398,53.8008 16.5065,52.1341 17,50.5C 17.6708,49.7476 18.5041,49.4142 19.5,49.5C 19.8333,49.5 20.1667,49.5 20.5,49.5C 21.8321,50.8304 22.6655,52.4971 23,54.5C 23.8969,46.2145 24.7302,45.8812 25.5,53.5C 25.3333,55.5 25.1667,57.5 25,59.5C 24.586,59.9574 24.086,60.2907 23.5,60.5C 22.7022,58.9223 22.2022,57.2556 22,55.5C 21.5899,56.9007 21.0899,58.234 20.5,59.5 Z"/></g>
<g><path style="opacity:1" fill="#d04b4c" d="M 60.5,52.5 C 60.6655,56.5138 60.4988,60.5138 60,64.5C 58.3775,65.0989 56.8775,65.7656 55.5,66.5C 53.7839,66.3713 52.1172,66.038 50.5,65.5C 50.8037,59.0116 51.9704,52.6782 54,46.5C 59.061,44.7305 60.561,46.3972 58.5,51.5C 58.9569,52.2975 59.6236,52.6309 60.5,52.5 Z"/></g>
<g><path style="opacity:1" fill="#372e28" d="M 31.5,52.5 C 32.8799,52.9623 33.5466,53.9623 33.5,55.5C 32.9447,57.7221 31.9447,59.7221 30.5,61.5C 32.3274,63.4872 33.3274,65.8205 33.5,68.5C 30.3648,68.4518 28.6981,66.7852 28.5,63.5C 27.6143,64.325 27.281,65.325 27.5,66.5C 26.1667,66.5 24.8333,66.5 23.5,66.5C 22.1667,68.8333 22.1667,71.1667 23.5,73.5C 21.6854,74.6298 19.6854,75.2964 17.5,75.5C 14.8361,73.5156 13.1695,70.8489 12.5,67.5C 12.3691,66.6236 12.7025,65.9569 13.5,65.5C 14.3249,67.3596 15.3249,69.0262 16.5,70.5C 16.2852,72.1788 16.9519,73.1788 18.5,73.5C 19.5862,73.38 20.2528,72.7133 20.5,71.5C 20.0188,68.9168 19.3521,66.4168 18.5,64C 19.1667,63.6667 19.8333,63.3333 20.5,63C 19.3157,61.8545 19.3157,60.6879 20.5,59.5C 21.0899,58.234 21.5899,56.9007 22,55.5C 22.2022,57.2556 22.7022,58.9223 23.5,60.5C 24.086,60.2907 24.586,59.9574 25,59.5C 25.1667,57.5 25.3333,55.5 25.5,53.5C 24.7302,45.8812 23.8969,46.2145 23,54.5C 22.6655,52.4971 21.8321,50.8304 20.5,49.5C 20.2471,47.1727 20.9137,45.1727 22.5,43.5C 21.5,42.8333 20.5,42.1667 19.5,41.5C 21.2873,40.684 22.9539,39.684 24.5,38.5C 25.5049,42.51 26.5049,46.8433 27.5,51.5C 27.8082,48.2501 27.9748,44.9167 28,41.5C 30.9636,46.4244 30.797,51.0911 27.5,55.5C 30.6919,58.118 32.0252,57.118 31.5,52.5 Z"/></g>
<g><path style="opacity:1" fill="#a5a294" d="M 39.5,50.5 C 40.3382,50.8417 40.6716,51.5084 40.5,52.5C 40.3542,55.9556 40.1876,59.6223 40,63.5C 39.7216,64.4158 39.2216,65.0825 38.5,65.5C 38.5,65.1667 38.5,64.8333 38.5,64.5C 38.6495,63.448 38.4828,62.448 38,61.5C 36.984,62.6341 36.3173,62.3008 36,60.5C 35.7508,61.624 35.2508,62.624 34.5,63.5C 34.1667,63 33.8333,62.5 33.5,62C 34.814,58.6169 35.6473,55.1169 36,51.5C 36.6667,52.8333 37.3333,54.1667 38,55.5C 38.5758,53.6226 38.4091,51.7892 37.5,50C 37.6667,49.5 37.8333,49 38,48.5C 38.2784,49.4158 38.7784,50.0825 39.5,50.5 Z"/></g>
<g><path style="opacity:1" fill="#8c8471" d="M 11.5,51.5 C 11.0912,55.4989 11.9246,59.1656 14,62.5C 13.9698,59.6385 14.8031,57.3052 16.5,55.5C 17.9778,55.238 19.3112,55.5713 20.5,56.5C 19.3473,57.6868 19.3473,58.6868 20.5,59.5C 19.3157,60.6879 19.3157,61.8545 20.5,63C 19.8333,63.3333 19.1667,63.6667 18.5,64C 19.3521,66.4168 20.0188,68.9168 20.5,71.5C 20.2528,72.7133 19.5862,73.38 18.5,73.5C 18.1225,71.1234 18.1225,68.6234 18.5,66C 17.365,65.2506 16.365,65.4173 15.5,66.5C 16.2458,67.7362 16.5792,69.0695 16.5,70.5C 15.3249,69.0262 14.3249,67.3596 13.5,65.5C 12.7025,65.9569 12.3691,66.6236 12.5,67.5C 11.5991,63.263 10.5991,58.9297 9.5,54.5C 10.1667,53.5 10.8333,52.5 11.5,51.5 Z"/></g>
<g><path style="opacity:1" fill="#997667" d="M 54.5,43.5 C 53.5416,43.9528 52.7083,44.6195 52,45.5C 51.7586,48.2889 51.092,50.9556 50,53.5C 49.1881,57.6888 49.3547,61.6888 50.5,65.5C 50.7709,67.3797 50.1042,68.713 48.5,69.5C 48.5,69.1667 48.5,68.8333 48.5,68.5C 47.8333,65.8333 47.1667,63.1667 46.5,60.5C 46.5,58.1667 46.5,55.8333 46.5,53.5C 47.4614,51.7354 47.7947,49.7354 47.5,47.5C 48.6857,46.2946 48.6857,44.9613 47.5,43.5C 48.7997,42.8921 50.1331,42.2255 51.5,41.5C 53.0377,41.4534 54.0377,42.1201 54.5,43.5 Z"/></g>
<g><path style="opacity:1" fill="#498294" d="M 74.5,53.5 C 74.5,54.1667 74.5,54.8333 74.5,55.5C 66.5349,57.1846 66.5349,59.5179 74.5,62.5C 73.675,63.3857 72.675,63.719 71.5,63.5C 69.6096,63.7035 68.1096,63.0368 67,61.5C 66.6847,59.4144 66.1847,57.4144 65.5,55.5C 66.2216,55.0825 66.7216,54.4158 67,53.5C 69.2884,53.7375 71.7884,53.7375 74.5,53.5 Z"/></g>
<g><path style="opacity:1" fill="#3c2922" d="M 41.5,56.5 C 42.5,56.5 43.5,56.5 44.5,56.5C 44.2291,58.3797 44.8958,59.713 46.5,60.5C 47.1667,63.1667 47.8333,65.8333 48.5,68.5C 46.6159,68.2882 45.2826,67.2882 44.5,65.5C 43.1094,69.2544 40.4428,70.421 36.5,69C 36.6932,67.3547 36.8598,65.5213 37,63.5C 37.3826,64.056 37.8826,64.3893 38.5,64.5C 38.5,64.8333 38.5,65.1667 38.5,65.5C 38.9175,66.2216 39.5842,66.7216 40.5,67C 39.3533,68.2811 39.6866,68.6144 41.5,68C 42.2226,65.8881 43.2226,63.8881 44.5,62C 43.8758,59.9149 42.8758,58.0816 41.5,56.5 Z"/></g>
<g><path style="opacity:1" fill="#26292c" d="M 64.5,54.5 C 64.5,55.1667 64.8333,55.5 65.5,55.5C 66.1847,57.4144 66.6847,59.4144 67,61.5C 68.1096,63.0368 69.6096,63.7035 71.5,63.5C 68.1896,64.6038 65.1896,66.2705 62.5,68.5C 61.5084,68.6716 60.8417,68.3382 60.5,67.5C 61.8014,66.36 62.9681,65.0267 64,63.5C 64.0873,60.2933 64.254,57.2933 64.5,54.5 Z"/></g>
<g><path style="opacity:1" fill="#324b5c" d="M 76.5,53.5 C 78.2272,57.6837 79.5606,62.017 80.5,66.5C 79.2804,70.3818 76.6137,72.3818 72.5,72.5C 72.5,71.8333 72.1667,71.5 71.5,71.5C 73.22,70.1359 75.22,69.1359 77.5,68.5C 77.8333,67.6667 78.1667,66.8333 78.5,66C 77.3514,62.4018 76.0181,58.9018 74.5,55.5C 74.5,54.8333 74.5,54.1667 74.5,53.5C 74.9377,52.4937 75.6043,52.4937 76.5,53.5 Z"/></g>
<g><path style="opacity:1" fill="#635752" d="M 40.5,52.5 C 40.8333,53.8333 41.1667,55.1667 41.5,56.5C 42.8758,58.0816 43.8758,59.9149 44.5,62C 43.2226,63.8881 42.2226,65.8881 41.5,68C 39.6866,68.6144 39.3533,68.2811 40.5,67C 39.5842,66.7216 38.9175,66.2216 38.5,65.5C 39.2216,65.0825 39.7216,64.4158 40,63.5C 40.1876,59.6223 40.3542,55.9556 40.5,52.5 Z"/></g>
<g><path style="opacity:1" fill="#3ba5cd" d="M 74.5,55.5 C 76.0181,58.9018 77.3514,62.4018 78.5,66C 78.1667,66.8333 77.8333,67.6667 77.5,68.5C 75.22,69.1359 73.22,70.1359 71.5,71.5C 68.8333,71.5 66.1667,71.5 63.5,71.5C 63.4431,70.391 63.1098,69.391 62.5,68.5C 65.1896,66.2705 68.1896,64.6038 71.5,63.5C 72.675,63.719 73.675,63.3857 74.5,62.5C 66.5349,59.5179 66.5349,57.1846 74.5,55.5 Z"/></g>
<g><path style="opacity:1" fill="#cac7ba" d="M 18.5,73.5 C 16.9519,73.1788 16.2852,72.1788 16.5,70.5C 16.5792,69.0695 16.2458,67.7362 15.5,66.5C 16.365,65.4173 17.365,65.2506 18.5,66C 18.1225,68.6234 18.1225,71.1234 18.5,73.5 Z"/></g>
<g><path style="opacity:1" fill="#e8c9b3" d="M 57.5,67.5 C 58.5,67.5 59.5,67.5 60.5,67.5C 60.8417,68.3382 61.5084,68.6716 62.5,68.5C 63.1098,69.391 63.4431,70.391 63.5,71.5C 60.1194,71.4595 56.7861,71.7929 53.5,72.5C 53.5792,71.0695 53.2458,69.7362 52.5,68.5C 54.0453,67.5481 55.712,67.2148 57.5,67.5 Z"/></g>
<g><path style="opacity:1" fill="#716455" d="M 48.5,31.5 C 49.9542,34.1864 51.6208,36.8531 53.5,39.5C 54.1818,38.7573 54.8485,38.0906 55.5,37.5C 55.2865,39.1439 55.6198,40.6439 56.5,42C 58.4884,42.1805 60.4884,42.0138 62.5,41.5C 62.8333,41.5 63.1667,41.5 63.5,41.5C 63.1667,42.1667 62.8333,42.8333 62.5,43.5C 61.8333,43.8333 61.1667,44.1667 60.5,44.5C 58.5648,43.8505 56.5648,43.5172 54.5,43.5C 54.0377,42.1201 53.0377,41.4534 51.5,41.5C 50.1331,42.2255 48.7997,42.8921 47.5,43.5C 42.3617,42.9701 39.695,45.3035 39.5,50.5C 38.7784,50.0825 38.2784,49.4158 38,48.5C 37.8333,49 37.6667,49.5 37.5,50C 38.4091,51.7892 38.5758,53.6226 38,55.5C 37.3333,54.1667 36.6667,52.8333 36,51.5C 35.6473,55.1169 34.814,58.6169 33.5,62C 33.8333,62.5 34.1667,63 34.5,63.5C 35.2508,62.624 35.7508,61.624 36,60.5C 36.3173,62.3008 36.984,62.6341 38,61.5C 38.4828,62.448 38.6495,63.448 38.5,64.5C 37.8826,64.3893 37.3826,64.056 37,63.5C 36.8598,65.5213 36.6932,67.3547 36.5,69C 40.4428,70.421 43.1094,69.2544 44.5,65.5C 45.2826,67.2882 46.6159,68.2882 48.5,68.5C 48.5,68.8333 48.5,69.1667 48.5,69.5C 48.5,69.8333 48.5,70.1667 48.5,70.5C 47.8153,72.4144 47.3153,74.4144 47,76.5C 45.8904,74.9632 44.3904,74.2965 42.5,74.5C 42.6816,76.5914 42.3482,78.5914 41.5,80.5C 43.1446,81.6963 44.8113,82.6963 46.5,83.5C 46.1667,83.5 45.8333,83.5 45.5,83.5C 42.8827,85.2885 40.716,87.6218 39,90.5C 38.2599,91.7494 38.4265,92.7494 39.5,93.5C 39.5,93.8333 39.5,94.1667 39.5,94.5C 38.2652,94.7214 37.2652,95.3881 36.5,96.5C 33.6318,93.0051 33.9651,89.8384 37.5,87C 37.2716,86.6012 36.9382,86.4346 36.5,86.5C 37.8098,84.8523 39.1431,83.1856 40.5,81.5C 39.9747,80.8076 39.3081,80.3076 38.5,80C 39.5266,78.1335 40.5266,76.3002 41.5,74.5C 42.6602,73.735 43.6602,72.735 44.5,71.5C 40.1805,70.7137 35.8472,70.047 31.5,69.5C 30.0683,69.7332 29.5683,70.3999 30,71.5C 31.4877,73.16 33.321,74.16 35.5,74.5C 36.5,75.1667 37.5,75.8333 38.5,76.5C 36.4086,76.6816 34.4086,76.3482 32.5,75.5C 31.8243,76.6016 31.1577,77.6016 30.5,78.5C 30.762,77.0222 30.4287,75.6888 29.5,74.5C 28.9882,76.8507 27.9882,78.8507 26.5,80.5C 26.5143,77.2322 26.181,73.8988 25.5,70.5C 24.8243,71.6016 24.1577,72.6016 23.5,73.5C 22.1667,71.1667 22.1667,68.8333 23.5,66.5C 24.8333,66.5 26.1667,66.5 27.5,66.5C 27.281,65.325 27.6143,64.325 28.5,63.5C 28.6981,66.7852 30.3648,68.4518 33.5,68.5C 33.3274,65.8205 32.3274,63.4872 30.5,61.5C 31.9447,59.7221 32.9447,57.7221 33.5,55.5C 33.5466,53.9623 32.8799,52.9623 31.5,52.5C 32.566,50.1478 33.7327,47.8144 35,45.5C 35.6667,46.1667 36.3333,46.8333 37,47.5C 36.6446,46.0406 36.8112,44.7072 37.5,43.5C 38.1667,42.1667 39.1667,41.1667 40.5,40.5C 41.1667,40.5 41.8333,40.5 42.5,40.5C 42.7911,41.6491 43.6244,42.3158 45,42.5C 47.268,41.7274 49.1014,40.3941 50.5,38.5C 50.3764,37.8933 50.0431,37.56 49.5,37.5C 49.1788,35.9519 48.1788,35.2852 46.5,35.5C 47.5981,34.603 47.5981,33.7697 46.5,33C 47.0442,32.2828 47.7109,31.7828 48.5,31.5 Z"/></g>
<g><path style="opacity:1" fill="#524b3a" d="M 41.5,74.5 C 39.549,74.7733 38.049,74.1066 37,72.5C 36.7216,73.4158 36.2216,74.0825 35.5,74.5C 33.321,74.16 31.4877,73.16 30,71.5C 29.5683,70.3999 30.0683,69.7332 31.5,69.5C 35.8472,70.047 40.1805,70.7137 44.5,71.5C 43.6602,72.735 42.6602,73.735 41.5,74.5 Z"/></g>
<g><path style="opacity:1" fill="#2d2b2c" d="M 63.5,71.5 C 66.1667,71.5 68.8333,71.5 71.5,71.5C 72.1667,71.5 72.5,71.8333 72.5,72.5C 71.596,73.209 71.2627,74.209 71.5,75.5C 71.1667,76.8333 70.8333,78.1667 70.5,79.5C 70.1667,79.5 69.8333,79.5 69.5,79.5C 69.4191,76.4866 68.0858,74.4866 65.5,73.5C 64.5,73.1667 63.8333,72.5 63.5,71.5 Z"/></g>
<g><path style="opacity:1" fill="#9c5451" d="M 50.5,65.5 C 52.1172,66.038 53.7839,66.3713 55.5,66.5C 56.4916,66.3284 57.1583,66.6618 57.5,67.5C 55.712,67.2148 54.0453,67.5481 52.5,68.5C 53.2458,69.7362 53.5792,71.0695 53.5,72.5C 56.7861,71.7929 60.1194,71.4595 63.5,71.5C 63.8333,72.5 64.5,73.1667 65.5,73.5C 66.6843,74.6879 66.6843,75.8545 65.5,77C 63.4144,77.3153 61.4144,77.8153 59.5,78.5C 56.4776,78.0192 53.4776,77.3525 50.5,76.5C 49.9495,74.3432 49.2829,72.3432 48.5,70.5C 48.5,70.1667 48.5,69.8333 48.5,69.5C 50.1042,68.713 50.7709,67.3797 50.5,65.5 Z"/></g>
<g><path style="opacity:1" fill="#d8c8af" d="M 30.5,78.5 C 30.6085,80.5138 29.9418,82.1805 28.5,83.5C 25.8862,84.5448 23.2196,85.0448 20.5,85C 21.3253,82.2219 21.992,79.3886 22.5,76.5C 22.5569,75.391 22.8902,74.391 23.5,73.5C 24.1577,72.6016 24.8243,71.6016 25.5,70.5C 26.181,73.8988 26.5143,77.2322 26.5,80.5C 27.9882,78.8507 28.9882,76.8507 29.5,74.5C 30.4287,75.6888 30.762,77.0222 30.5,78.5 Z"/></g>
<g><path style="opacity:1" fill="#302923" d="M 48.5,70.5 C 49.2829,72.3432 49.9495,74.3432 50.5,76.5C 53.4776,77.3525 56.4776,78.0192 59.5,78.5C 59.5,78.8333 59.5,79.1667 59.5,79.5C 54.4061,78.6644 50.0727,79.9978 46.5,83.5C 44.8113,82.6963 43.1446,81.6963 41.5,80.5C 42.3482,78.5914 42.6816,76.5914 42.5,74.5C 44.3904,74.2965 45.8904,74.9632 47,76.5C 47.3153,74.4144 47.8153,72.4144 48.5,70.5 Z"/></g>
<g><path style="opacity:1" fill="#421b1d" d="M 65.5,73.5 C 68.0858,74.4866 69.4191,76.4866 69.5,79.5C 66.1667,79.5 62.8333,79.5 59.5,79.5C 59.5,79.1667 59.5,78.8333 59.5,78.5C 61.4144,77.8153 63.4144,77.3153 65.5,77C 66.6843,75.8545 66.6843,74.6879 65.5,73.5 Z"/></g>
<g><path style="opacity:1" fill="#999283" d="M 23.5,73.5 C 22.8902,74.391 22.5569,75.391 22.5,76.5C 21.2223,76.7822 20.2223,77.4489 19.5,78.5C 16.5493,79.8094 15.2159,82.1427 15.5,85.5C 14.8333,85.1667 14.1667,84.8333 13.5,84.5C 14.5758,81.3516 15.9091,78.3516 17.5,75.5C 19.6854,75.2964 21.6854,74.6298 23.5,73.5 Z"/></g>
<g><path style="opacity:1" fill="#4b8462" d="M 59.5,79.5 C 60.3984,80.1577 61.3984,80.8243 62.5,81.5C 61.7542,82.7362 61.4208,84.0695 61.5,85.5C 60.1667,85.5 58.8333,85.5 57.5,85.5C 57.6495,86.552 57.4828,87.552 57,88.5C 54.5772,91.3638 51.7439,93.6971 48.5,95.5C 50.6597,93.7936 51.8264,91.4602 52,88.5C 54.218,86.8178 56.0514,84.8178 57.5,82.5C 57.0004,81.1195 56.0004,80.4528 54.5,80.5C 52.1208,81.4419 49.9541,82.7753 48,84.5C 45.5031,88.8326 42.6698,92.8326 39.5,96.5C 39.5,95.8333 39.5,95.1667 39.5,94.5C 39.5,94.1667 39.5,93.8333 39.5,93.5C 41.8899,90.4338 43.8899,87.1004 45.5,83.5C 45.8333,83.5 46.1667,83.5 46.5,83.5C 50.0727,79.9978 54.4061,78.6644 59.5,79.5 Z"/></g>
<g><path style="opacity:1" fill="#2a2522" d="M 38.5,76.5 C 36.5,81.1667 33.1667,84.5 28.5,86.5C 27.375,85.6522 27.375,84.6522 28.5,83.5C 29.9418,82.1805 30.6085,80.5138 30.5,78.5C 31.1577,77.6016 31.8243,76.6016 32.5,75.5C 34.4086,76.3482 36.4086,76.6816 38.5,76.5 Z"/></g>
<g><path style="opacity:1" fill="#978b7f" d="M 41.5,74.5 C 40.5266,76.3002 39.5266,78.1335 38.5,80C 39.3081,80.3076 39.9747,80.8076 40.5,81.5C 39.1431,83.1856 37.8098,84.8523 36.5,86.5C 34.6917,87.9073 32.6917,89.074 30.5,90C 32.1066,91.049 32.7733,92.549 32.5,94.5C 31.596,93.791 31.2627,92.791 31.5,91.5C 28.4299,91.3677 25.4299,91.701 22.5,92.5C 22.5774,91.2502 23.244,90.4169 24.5,90C 24.0426,89.586 23.7093,89.086 23.5,88.5C 25.2914,87.8302 26.9581,87.1635 28.5,86.5C 33.1667,84.5 36.5,81.1667 38.5,76.5C 37.5,75.8333 36.5,75.1667 35.5,74.5C 36.2216,74.0825 36.7216,73.4158 37,72.5C 38.049,74.1066 39.549,74.7733 41.5,74.5 Z"/></g>
<g><path style="opacity:1" fill="#c3b094" d="M 69.5,79.5 C 69.8333,79.5 70.1667,79.5 70.5,79.5C 71.1667,79.5 71.8333,79.5 72.5,79.5C 72.6567,80.8734 72.49,82.2068 72,83.5C 69.7487,85.3773 67.2487,86.8773 64.5,88C 63.7476,88.6708 63.4142,89.5041 63.5,90.5C 61.7901,92.1996 59.7901,93.5329 57.5,94.5C 56.8933,94.3764 56.56,94.0431 56.5,93.5C 59.7344,89.7055 63.4011,86.3722 67.5,83.5C 68.6302,82.3777 69.2969,81.0443 69.5,79.5 Z"/></g>
<g><path style="opacity:1" fill="#928e7c" d="M 71.5,75.5 C 74.2115,80.5487 77.5448,85.2153 81.5,89.5C 80.5084,89.3284 79.8417,89.6618 79.5,90.5C 79.0228,88.01 77.6895,86.01 75.5,84.5C 74.8933,84.6236 74.56,84.9569 74.5,85.5C 74.1667,85.5 73.8333,85.5 73.5,85.5C 73.8468,82.6591 73.5135,80.6591 72.5,79.5C 71.8333,79.5 71.1667,79.5 70.5,79.5C 70.8333,78.1667 71.1667,76.8333 71.5,75.5 Z"/></g>
<g><path style="opacity:1" fill="#dbc9a3" d="M 19.5,78.5 C 18.7347,81.0961 18.4013,83.7628 18.5,86.5C 17.209,86.7373 16.209,86.404 15.5,85.5C 15.2159,82.1427 16.5493,79.8094 19.5,78.5 Z"/></g>
<g><path style="opacity:1" fill="#42aa76" d="M 48.5,95.5 C 47.791,96.404 46.791,96.7373 45.5,96.5C 43.6921,97.9179 43.0254,99.9179 43.5,102.5C 42.1667,102.5 40.8333,102.5 39.5,102.5C 39.5,100.5 39.5,98.5 39.5,96.5C 42.6698,92.8326 45.5031,88.8326 48,84.5C 49.9541,82.7753 52.1208,81.4419 54.5,80.5C 56.0004,80.4528 57.0004,81.1195 57.5,82.5C 56.0514,84.8178 54.218,86.8178 52,88.5C 51.8264,91.4602 50.6597,93.7936 48.5,95.5 Z"/></g>
<g><path style="opacity:1" fill="#d0cfaa" d="M 45.5,83.5 C 43.8899,87.1004 41.8899,90.4338 39.5,93.5C 38.4265,92.7494 38.2599,91.7494 39,90.5C 40.716,87.6218 42.8827,85.2885 45.5,83.5 Z"/></g>
<g><path style="opacity:1" fill="#615045" d="M 22.5,76.5 C 21.992,79.3886 21.3253,82.2219 20.5,85C 23.2196,85.0448 25.8862,84.5448 28.5,83.5C 27.375,84.6522 27.375,85.6522 28.5,86.5C 26.9581,87.1635 25.2914,87.8302 23.5,88.5C 23.7093,89.086 24.0426,89.586 24.5,90C 23.244,90.4169 22.5774,91.2502 22.5,92.5C 20.2151,93.5463 17.8817,93.5463 15.5,92.5C 15.9089,95.9915 16.9089,99.3248 18.5,102.5C 20.5499,101.923 21.5499,100.59 21.5,98.5C 22.791,98.7373 23.791,98.404 24.5,97.5C 25.7079,96.7659 27.0413,96.4326 28.5,96.5C 28.5,98.5 28.5,100.5 28.5,102.5C 25.0977,102.342 21.7644,102.676 18.5,103.5C 17.4168,103.539 16.4168,103.873 15.5,104.5C 14.8313,102.369 14.1646,100.369 13.5,98.5C 13.5,93.8333 13.5,89.1667 13.5,84.5C 14.1667,84.8333 14.8333,85.1667 15.5,85.5C 16.209,86.404 17.209,86.7373 18.5,86.5C 18.4013,83.7628 18.7347,81.0961 19.5,78.5C 20.2223,77.4489 21.2223,76.7822 22.5,76.5 Z"/></g>
<g><path style="opacity:1" fill="#20291b" d="M 59.5,79.5 C 62.8333,79.5 66.1667,79.5 69.5,79.5C 69.2969,81.0443 68.6302,82.3777 67.5,83.5C 63.4011,86.3722 59.7344,89.7055 56.5,93.5C 53.6323,94.3348 52.6323,96.0014 53.5,98.5C 52.4116,99.9344 51.0783,100.934 49.5,101.5C 48.1667,101.5 47.5,102.167 47.5,103.5C 46.8902,104.391 46.5569,105.391 46.5,106.5C 43.8333,106.5 41.1667,106.5 38.5,106.5C 38.5,105.833 38.5,105.167 38.5,104.5C 40.7564,105.438 43.0897,105.438 45.5,104.5C 45.5,101.833 45.5,99.1667 45.5,96.5C 46.791,96.7373 47.791,96.404 48.5,95.5C 51.7439,93.6971 54.5772,91.3638 57,88.5C 57.4828,87.552 57.6495,86.552 57.5,85.5C 58.8333,85.5 60.1667,85.5 61.5,85.5C 61.4208,84.0695 61.7542,82.7362 62.5,81.5C 61.3984,80.8243 60.3984,80.1577 59.5,79.5 Z"/></g>
<g><path style="opacity:1" fill="#a7a499" d="M 81.5,89.5 C 85.483,88.5715 88.1497,89.9049 89.5,93.5C 88.2502,93.4226 87.4169,92.756 87,91.5C 85.5098,92.7279 84.0098,92.7279 82.5,91.5C 82.1667,90.8333 81.8333,90.1667 81.5,89.5 Z"/></g>
<g><path style="opacity:1" fill="#87826b" d="M 22.5,92.5 C 22.0773,94.7812 22.744,96.4479 24.5,97.5C 23.791,98.404 22.791,98.7373 21.5,98.5C 21.5499,100.59 20.5499,101.923 18.5,102.5C 16.9089,99.3248 15.9089,95.9915 15.5,92.5C 17.8817,93.5463 20.2151,93.5463 22.5,92.5 Z"/></g>
<g><path style="opacity:1" fill="#eee075" d="M 69.5,94.5 C 69.5,95.8333 69.5,97.1667 69.5,98.5C 66.5118,100.273 63.1785,100.94 59.5,100.5C 58.6971,99.5768 58.5304,98.5768 59,97.5C 62.8596,96.3071 65.3596,93.8071 66.5,90C 67.448,89.5172 68.448,89.3505 69.5,89.5C 69.5,91.1667 69.5,92.8333 69.5,94.5 Z"/></g>
<g><path style="opacity:1" fill="#dacbaf" d="M 79.5,90.5 C 80.4881,95.6405 80.8214,100.974 80.5,106.5C 79.2652,106.279 78.2652,105.612 77.5,104.5C 76.3652,106.707 75.6985,109.04 75.5,111.5C 72.858,111.488 71.5246,112.821 71.5,115.5C 71.3426,118.984 70.6759,122.651 69.5,126.5C 69.8795,129.582 70.5462,132.582 71.5,135.5C 69.9272,137.836 68.5939,137.836 67.5,135.5C 67.1667,134.833 66.8333,134.167 66.5,133.5C 66.6716,132.508 66.3382,131.842 65.5,131.5C 64.8333,128.833 64.1667,126.167 63.5,123.5C 64.397,122.402 65.2303,122.402 66,123.5C 69.0209,119.721 70.1875,115.387 69.5,110.5C 70.5,110.5 71.5,110.5 72.5,110.5C 72.4208,109.07 72.7542,107.736 73.5,106.5C 70.8938,105.348 68.2272,105.182 65.5,106C 67.9288,106.451 68.0955,107.285 66,108.5C 64.3845,107.199 62.8845,107.199 61.5,108.5C 59.8102,108.144 58.8102,107.144 58.5,105.5C 63.5405,105.062 68.5405,104.062 73.5,102.5C 75.39,96.8551 75.7234,91.1884 74.5,85.5C 74.56,84.9569 74.8933,84.6236 75.5,84.5C 77.6895,86.01 79.0228,88.01 79.5,90.5 Z"/></g>
<g><path style="opacity:1" fill="#ddcfa8" d="M 32.5,94.5 C 34.0202,95.8499 34.6869,97.1832 34.5,98.5C 34.5,100.5 34.5,102.5 34.5,104.5C 30.4659,104.505 26.4659,104.838 22.5,105.5C 20.6203,105.771 19.287,105.104 18.5,103.5C 21.7644,102.676 25.0977,102.342 28.5,102.5C 28.5,100.5 28.5,98.5 28.5,96.5C 27.0413,96.4326 25.7079,96.7659 24.5,97.5C 22.744,96.4479 22.0773,94.7812 22.5,92.5C 25.4299,91.701 28.4299,91.3677 31.5,91.5C 31.2627,92.791 31.596,93.791 32.5,94.5 Z"/></g>
<g><path style="opacity:1" fill="#e5d791" d="M 69.5,94.5 C 69.5,92.8333 69.5,91.1667 69.5,89.5C 68.448,89.3505 67.448,89.5172 66.5,90C 65.3596,93.8071 62.8596,96.3071 59,97.5C 58.5304,98.5768 58.6971,99.5768 59.5,100.5C 57.9139,99.5868 56.4139,99.5868 55,100.5C 54.51,99.2068 54.3433,97.8734 54.5,96.5C 59.0692,96.7234 62.0692,94.7234 63.5,90.5C 69.6389,85.6609 71.6389,86.9942 69.5,94.5 Z"/></g>
<g><path style="opacity:1" fill="#5e4733" d="M 73.5,85.5 C 73.2762,89.3028 73.1096,93.3028 73,97.5C 72.6397,99.4211 71.8064,101.088 70.5,102.5C 69.5713,101.311 69.238,99.9778 69.5,98.5C 69.5,97.1667 69.5,95.8333 69.5,94.5C 71.6389,86.9942 69.6389,85.6609 63.5,90.5C 63.4142,89.5041 63.7476,88.6708 64.5,88C 67.2487,86.8773 69.7487,85.3773 72,83.5C 72.49,82.2068 72.6567,80.8734 72.5,79.5C 73.5135,80.6591 73.8468,82.6591 73.5,85.5 Z"/></g>
<g><path style="opacity:1" fill="#5d9777" d="M 39.5,96.5 C 39.5,98.5 39.5,100.5 39.5,102.5C 40.8333,102.5 42.1667,102.5 43.5,102.5C 43.0254,99.9179 43.6921,97.9179 45.5,96.5C 45.5,99.1667 45.5,101.833 45.5,104.5C 43.0897,105.438 40.7564,105.438 38.5,104.5C 37.8476,103.551 37.5143,102.385 37.5,101C 37.3068,98.9919 37.9735,97.4919 39.5,96.5 Z"/></g>
<g><path style="opacity:1" fill="#7a7971" d="M 82.5,91.5 C 84.0098,92.7279 85.5098,92.7279 87,91.5C 87.4169,92.756 88.2502,93.4226 89.5,93.5C 91.1414,95.2874 92.1414,97.4541 92.5,100C 91.7844,102.792 91.4511,105.626 91.5,108.5C 90.71,107.391 90.21,106.058 90,104.5C 89.6411,107.544 88.9745,107.878 88,105.5C 87.6667,105.833 87.3333,106.167 87,106.5C 86.4164,102.502 87.2497,98.8351 89.5,95.5C 89.1667,95.1667 88.8333,94.8333 88.5,94.5C 87.265,95.3398 86.265,96.3398 85.5,97.5C 83.6206,96.1048 82.6206,94.1048 82.5,91.5 Z"/></g>
<g><path style="opacity:1" fill="#7d6551" d="M 73.5,85.5 C 73.8333,85.5 74.1667,85.5 74.5,85.5C 75.7234,91.1884 75.39,96.8551 73.5,102.5C 68.5405,104.062 63.5405,105.062 58.5,105.5C 57.0502,106.658 56.0502,106.158 55.5,104C 53.2774,103.434 51.2774,102.6 49.5,101.5C 51.0783,100.934 52.4116,99.9344 53.5,98.5C 52.6323,96.0014 53.6323,94.3348 56.5,93.5C 56.56,94.0431 56.8933,94.3764 57.5,94.5C 59.7901,93.5329 61.7901,92.1996 63.5,90.5C 62.0692,94.7234 59.0692,96.7234 54.5,96.5C 54.3433,97.8734 54.51,99.2068 55,100.5C 56.4139,99.5868 57.9139,99.5868 59.5,100.5C 63.1785,100.94 66.5118,100.273 69.5,98.5C 69.238,99.9778 69.5713,101.311 70.5,102.5C 71.8064,101.088 72.6397,99.4211 73,97.5C 73.1096,93.3028 73.2762,89.3028 73.5,85.5 Z"/></g>
<g><path style="opacity:1" fill="#a28c75" d="M 49.5,101.5 C 51.2774,102.6 53.2774,103.434 55.5,104C 56.0502,106.158 57.0502,106.658 58.5,105.5C 58.8102,107.144 59.8102,108.144 61.5,108.5C 64.2344,112.569 64.9011,116.903 63.5,121.5C 62.6208,117.72 61.1208,114.053 59,110.5C 57.2933,109.862 55.46,109.862 53.5,110.5C 52.2601,107.588 50.2601,105.254 47.5,103.5C 47.5,102.167 48.1667,101.5 49.5,101.5 Z"/></g>
<g><path style="opacity:1" fill="#beb7ac" d="M 13.5,98.5 C 14.1646,100.369 14.8313,102.369 15.5,104.5C 16.4168,103.873 17.4168,103.539 18.5,103.5C 19.287,105.104 20.6203,105.771 22.5,105.5C 22.5,105.833 22.5,106.167 22.5,106.5C 19.9407,106.198 17.6074,106.532 15.5,107.5C 13.8002,107.626 12.3002,108.293 11,109.5C 9.98894,108.944 9.15561,108.278 8.5,107.5C 8.41423,106.504 8.74756,105.671 9.5,105C 13.0296,104.328 14.3629,102.162 13.5,98.5 Z"/></g>
<g><path style="opacity:1" fill="#958974" d="M 38.5,106.5 C 41.1667,106.5 43.8333,106.5 46.5,106.5C 46.5,107.167 46.5,107.833 46.5,108.5C 44.283,107.631 41.9496,107.298 39.5,107.5C 39.5,108.5 39.5,109.5 39.5,110.5C 36.9407,110.802 34.6074,110.468 32.5,109.5C 34.8439,109.06 36.8439,108.06 38.5,106.5 Z"/></g>
<g><path style="opacity:1" fill="#564e47" d="M 34.5,98.5 C 35.6341,100.966 35.8007,103.633 35,106.5C 31.179,105.325 27.3457,105.492 23.5,107C 26.2514,107.124 27.9181,107.957 28.5,109.5C 26.2188,109.077 24.5521,109.744 23.5,111.5C 21.8007,111.527 20.4674,112.194 19.5,113.5C 18.5655,112.432 18.2322,111.099 18.5,109.5C 20.6188,109.532 21.9522,108.532 22.5,106.5C 22.5,106.167 22.5,105.833 22.5,105.5C 26.4659,104.838 30.4659,104.505 34.5,104.5C 34.5,102.5 34.5,100.5 34.5,98.5 Z"/></g>
<g><path style="opacity:1" fill="#27201b" d="M 36.5,86.5 C 36.9382,86.4346 37.2716,86.6012 37.5,87C 33.9651,89.8384 33.6318,93.0051 36.5,96.5C 37.2652,95.3881 38.2652,94.7214 39.5,94.5C 39.5,95.1667 39.5,95.8333 39.5,96.5C 37.9735,97.4919 37.3068,98.9919 37.5,101C 37.5143,102.385 37.8476,103.551 38.5,104.5C 38.5,105.167 38.5,105.833 38.5,106.5C 36.8439,108.06 34.8439,109.06 32.5,109.5C 30.3523,109.389 30.019,110.056 31.5,111.5C 28.2218,113.151 27.2218,112.485 28.5,109.5C 27.9181,107.957 26.2514,107.124 23.5,107C 27.3457,105.492 31.179,105.325 35,106.5C 35.8007,103.633 35.6341,100.966 34.5,98.5C 34.6869,97.1832 34.0202,95.8499 32.5,94.5C 32.7733,92.549 32.1066,91.049 30.5,90C 32.6917,89.074 34.6917,87.9073 36.5,86.5 Z"/></g>
<g><path style="opacity:1" fill="#54524e" d="M 91.5,108.5 C 91.0137,110.807 91.0137,112.973 91.5,115C 88.2483,119.101 85.5816,123.601 83.5,128.5C 80.9952,130.253 78.3286,131.753 75.5,133C 74.6634,134.011 74.33,135.178 74.5,136.5C 73.5869,134.067 72.5869,131.567 71.5,129C 72.0442,128.283 72.7109,127.783 73.5,127.5C 73.9175,128.222 74.5842,128.722 75.5,129C 73.7295,129.535 73.3961,130.369 74.5,131.5C 77.3655,130.818 79.8655,129.484 82,127.5C 82.4922,126.451 82.3256,125.451 81.5,124.5C 83.8234,119.386 84.6568,114.052 84,108.5C 83.6174,109.056 83.1174,109.389 82.5,109.5C 82.4148,108.005 83.0815,107.005 84.5,106.5C 85.4841,103.572 85.8174,100.572 85.5,97.5C 86.265,96.3398 87.265,95.3398 88.5,94.5C 88.8333,94.8333 89.1667,95.1667 89.5,95.5C 87.2497,98.8351 86.4164,102.502 87,106.5C 87.3333,106.167 87.6667,105.833 88,105.5C 88.9745,107.878 89.6411,107.544 90,104.5C 90.21,106.058 90.71,107.391 91.5,108.5 Z"/></g>
<g><path style="opacity:1" fill="#eddbb1" d="M 63.5,123.5 C 63.5,122.833 63.5,122.167 63.5,121.5C 64.9011,116.903 64.2344,112.569 61.5,108.5C 62.8845,107.199 64.3845,107.199 66,108.5C 68.0955,107.285 67.9288,106.451 65.5,106C 68.2272,105.182 70.8938,105.348 73.5,106.5C 72.7542,107.736 72.4208,109.07 72.5,110.5C 71.5,110.5 70.5,110.5 69.5,110.5C 70.1875,115.387 69.0209,119.721 66,123.5C 65.2303,122.402 64.397,122.402 63.5,123.5 Z"/></g>
<g><path style="opacity:1" fill="#38332c" d="M 28.5,109.5 C 27.2218,112.485 28.2218,113.151 31.5,111.5C 30.019,110.056 30.3523,109.389 32.5,109.5C 34.6074,110.468 36.9407,110.802 39.5,110.5C 39.7556,113.598 40.4222,116.598 41.5,119.5C 42.1143,123.135 42.4476,126.802 42.5,130.5C 41.8333,130.5 41.5,130.833 41.5,131.5C 40.5084,131.672 39.8417,131.338 39.5,130.5C 41.0819,125.146 40.2486,120.146 37,115.5C 34.0027,114.134 30.836,113.467 27.5,113.5C 27.5,115.833 27.5,118.167 27.5,120.5C 26.8442,121.622 26.5108,122.955 26.5,124.5C 27.9677,131.069 28.8011,137.736 29,144.5C 29.3333,144.833 29.6667,145.167 30,145.5C 30.4169,144.244 31.2502,143.577 32.5,143.5C 32.6138,145.718 33.2804,147.718 34.5,149.5C 34.5,150.5 34.5,151.5 34.5,152.5C 33.5,152.5 32.5,152.5 31.5,152.5C 30.5041,152.414 29.6708,152.748 29,153.5C 28.4557,147.994 27.2891,142.661 25.5,137.5C 25.5,136.5 25.5,135.5 25.5,134.5C 25.8657,129.16 24.8657,123.826 22.5,118.5C 24.7508,116.47 25.0842,114.136 23.5,111.5C 24.5521,109.744 26.2188,109.077 28.5,109.5 Z"/></g>
<g><path style="opacity:1" fill="#302923" d="M 47.5,103.5 C 50.2601,105.254 52.2601,107.588 53.5,110.5C 55.46,109.862 57.2933,109.862 59,110.5C 61.1208,114.053 62.6208,117.72 63.5,121.5C 63.5,122.167 63.5,122.833 63.5,123.5C 64.1667,126.167 64.8333,128.833 65.5,131.5C 63.7844,132.971 61.7844,133.971 59.5,134.5C 56.5734,128.979 53.9068,123.312 51.5,117.5C 53.0174,117.511 54.1841,118.177 55,119.5C 56.0674,118.809 57.2341,118.309 58.5,118C 58.6158,116.732 58.9491,115.398 59.5,114C 58.5838,113.626 57.7504,113.126 57,112.5C 55.6124,113.554 54.1124,113.72 52.5,113C 51.6667,111.5 50.5,110.333 49,109.5C 48.5357,110.094 48.369,110.761 48.5,111.5C 47.8333,110.833 47.1667,110.167 46.5,109.5C 46.5,109.167 46.5,108.833 46.5,108.5C 46.5,107.833 46.5,107.167 46.5,106.5C 46.5569,105.391 46.8902,104.391 47.5,103.5 Z"/></g>
<g><path style="opacity:1" fill="#857c72" d="M 80.5,106.5 C 80.719,107.675 80.3857,108.675 79.5,109.5C 77.6984,110.986 75.6984,111.986 73.5,112.5C 73.7148,114.179 73.0481,115.179 71.5,115.5C 71.5246,112.821 72.858,111.488 75.5,111.5C 75.6985,109.04 76.3652,106.707 77.5,104.5C 78.2652,105.612 79.2652,106.279 80.5,106.5 Z"/></g>
<g><path style="opacity:1" fill="#575336" d="M 46.5,109.5 C 47.1667,110.167 47.8333,110.833 48.5,111.5C 48.5,112.5 48.5,113.5 48.5,114.5C 50.1788,114.285 51.1788,114.952 51.5,116.5C 50.8501,116.196 50.1835,115.863 49.5,115.5C 48.5108,119.107 48.1774,122.774 48.5,126.5C 47.8333,127.5 47.1667,128.5 46.5,129.5C 46.5,128.833 46.5,128.167 46.5,127.5C 47.1816,121.455 47.1816,115.455 46.5,109.5 Z"/></g>
<g><path style="opacity:1" fill="#c7bfae" d="M 23.5,111.5 C 25.0842,114.136 24.7508,116.47 22.5,118.5C 24.8657,123.826 25.8657,129.16 25.5,134.5C 22.7686,127.942 20.7686,120.942 19.5,113.5C 20.4674,112.194 21.8007,111.527 23.5,111.5 Z"/></g>
<g><path style="opacity:1" fill="#58554f" d="M 82.5,110.5 C 82.5394,111.583 82.8728,112.583 83.5,113.5C 82.0304,116.308 81.1971,119.308 81,122.5C 78.7973,122.312 76.6306,122.979 74.5,124.5C 76.7968,120.805 78.6301,116.805 80,112.5C 80.7083,111.619 81.5416,110.953 82.5,110.5 Z"/></g>
<g><path style="opacity:1" fill="#a19fa1" d="M 8.5,111.5 C 9.4959,111.414 10.3292,111.748 11,112.5C 10.8334,118.795 13.0001,123.962 17.5,128C 16.5705,129.077 15.9038,130.244 15.5,131.5C 9.69702,126.309 7.36369,119.643 8.5,111.5 Z"/></g>
<g><path style="opacity:1" fill="#edece1" d="M 14.5,109.5 C 15.5,109.5 16.5,109.5 17.5,109.5C 17.845,114.878 18.5117,120.211 19.5,125.5C 13.6764,121.621 12.0098,116.288 14.5,109.5 Z"/></g>
<g><path style="opacity:1" fill="#49433f" d="M 8.5,107.5 C 9.15561,108.278 9.98894,108.944 11,109.5C 12.3002,108.293 13.8002,107.626 15.5,107.5C 15.1667,108.167 14.8333,108.833 14.5,109.5C 12.0098,116.288 13.6764,121.621 19.5,125.5C 19.5,127.833 19.5,130.167 19.5,132.5C 18.5,132.5 17.5,132.5 16.5,132.5C 15.8333,132.5 15.5,132.167 15.5,131.5C 15.9038,130.244 16.5705,129.077 17.5,128C 13.0001,123.962 10.8334,118.795 11,112.5C 10.3292,111.748 9.4959,111.414 8.5,111.5C 7.31434,110.295 7.31434,108.961 8.5,107.5 Z"/></g>
<g><path style="opacity:1" fill="#1a1317" d="M 51.5,117.5 C 51.5,117.167 51.5,116.833 51.5,116.5C 51.1788,114.952 50.1788,114.285 48.5,114.5C 48.5,113.5 48.5,112.5 48.5,111.5C 48.369,110.761 48.5357,110.094 49,109.5C 50.5,110.333 51.6667,111.5 52.5,113C 54.1124,113.72 55.6124,113.554 57,112.5C 57.7504,113.126 58.5838,113.626 59.5,114C 58.9491,115.398 58.6158,116.732 58.5,118C 57.2341,118.309 56.0674,118.809 55,119.5C 54.1841,118.177 53.0174,117.511 51.5,117.5 Z"/></g>
<g><path style="opacity:1" fill="#27211c" d="M 79.5,90.5 C 79.8417,89.6618 80.5084,89.3284 81.5,89.5C 81.8333,90.1667 82.1667,90.8333 82.5,91.5C 82.6206,94.1048 83.6206,96.1048 85.5,97.5C 85.8174,100.572 85.4841,103.572 84.5,106.5C 83.0815,107.005 82.4148,108.005 82.5,109.5C 82.5,109.833 82.5,110.167 82.5,110.5C 81.5416,110.953 80.7083,111.619 80,112.5C 78.6301,116.805 76.7968,120.805 74.5,124.5C 73.596,125.209 73.2627,126.209 73.5,127.5C 72.7109,127.783 72.0442,128.283 71.5,129C 72.5869,131.567 73.5869,134.067 74.5,136.5C 73.5886,140.457 72.5886,144.457 71.5,148.5C 70.7784,148.918 70.2784,149.584 70,150.5C 70.1805,146.267 71.0138,142.101 72.5,138C 72.472,136.93 72.1386,136.097 71.5,135.5C 70.5462,132.582 69.8795,129.582 69.5,126.5C 70.6759,122.651 71.3426,118.984 71.5,115.5C 73.0481,115.179 73.7148,114.179 73.5,112.5C 75.6984,111.986 77.6984,110.986 79.5,109.5C 80.3857,108.675 80.719,107.675 80.5,106.5C 80.8214,100.974 80.4881,95.6405 79.5,90.5 Z"/></g>
<g><path style="opacity:1" fill="#d0cb98" d="M 41.5,119.5 C 42.9953,119.415 43.9953,120.081 44.5,121.5C 43.6518,123.409 43.3184,125.409 43.5,127.5C 44.5,127.5 45.5,127.5 46.5,127.5C 46.5,128.167 46.5,128.833 46.5,129.5C 46.5,129.833 46.5,130.167 46.5,130.5C 45.1667,130.5 43.8333,130.5 42.5,130.5C 42.4476,126.802 42.1143,123.135 41.5,119.5 Z"/></g>
<g><path style="opacity:1" fill="#f7f7f5" d="M 39.5,130.5 C 38.8333,130.5 38.5,130.833 38.5,131.5C 35.74,132.569 32.9067,133.569 30,134.5C 29.4604,132.865 29.9604,131.532 31.5,130.5C 27.9102,128.183 26.5769,124.849 27.5,120.5C 27.5,118.167 27.5,115.833 27.5,113.5C 30.836,113.467 34.0027,114.134 37,115.5C 40.2486,120.146 41.0819,125.146 39.5,130.5 Z"/></g>
<g><path style="opacity:1" fill="#f6f7f5" d="M -0.5,-0.5 C 2.5,-0.5 5.5,-0.5 8.5,-0.5C 6.43571,0.867575 4.10238,1.86758 1.5,2.5C 3.482,3.21622 5.14867,4.38288 6.5,6C 5.64332,6.68909 4.97665,7.52242 4.5,8.5C 5.94916,9.17189 7.2825,9.83855 8.5,10.5C 8.5,11.5 8.5,12.5 8.5,13.5C 7.83333,13.5 7.5,13.8333 7.5,14.5C 8.46193,18.4583 10.7953,21.1249 14.5,22.5C 13.0158,24.0737 11.3492,25.407 9.5,26.5C 9.88066,27.9311 10.8807,28.7645 12.5,29C 16.1516,29.4986 19.8183,29.6653 23.5,29.5C 23.7373,28.209 23.404,27.209 22.5,26.5C 20.9236,25.8571 19.5903,24.8571 18.5,23.5C 18.6941,21.0882 20.0274,20.0882 22.5,20.5C 21.6971,21.4232 21.5304,22.4232 22,23.5C 23.425,24.2123 24.925,24.379 26.5,24C 27.144,26.74 28.3107,29.24 30,31.5C 31.0674,32.1905 32.2341,32.6905 33.5,33C 31.8333,33.3333 30.1667,33.6667 28.5,34C 29.2529,35.487 30.0862,35.6537 31,34.5C 30.6446,35.9594 30.8112,37.2928 31.5,38.5C 28.1178,36.9643 25.1178,34.7976 22.5,32C 21.2068,31.51 19.8734,31.3433 18.5,31.5C 18.5,32.8333 18.5,34.1667 18.5,35.5C 17.209,35.2627 16.209,35.596 15.5,36.5C 13.8333,35.8333 12.1667,35.1667 10.5,34.5C 9.85953,32.668 8.85953,32.3347 7.5,33.5C 8.29226,36.1257 8.95893,38.7924 9.5,41.5C 7.15069,43.2038 6.15069,45.5371 6.5,48.5C 7.5,48.5 8.5,48.5 9.5,48.5C 9.5,50.5 9.5,52.5 9.5,54.5C 10.5991,58.9297 11.5991,63.263 12.5,67.5C 13.1695,70.8489 14.8361,73.5156 17.5,75.5C 15.9091,78.3516 14.5758,81.3516 13.5,84.5C 13.5,89.1667 13.5,93.8333 13.5,98.5C 14.3629,102.162 13.0296,104.328 9.5,105C 8.74756,105.671 8.41423,106.504 8.5,107.5C 7.31434,108.961 7.31434,110.295 8.5,111.5C 7.36369,119.643 9.69702,126.309 15.5,131.5C 15.5,132.167 15.8333,132.5 16.5,132.5C 17.5676,133.434 18.901,133.768 20.5,133.5C 20.8333,126.833 21.1667,126.833 21.5,133.5C 21.5,135.167 21.5,136.833 21.5,138.5C 20.3263,139.514 19.6596,140.847 19.5,142.5C 18.7638,144.229 17.4305,145.229 15.5,145.5C 14.6363,142.952 13.303,140.619 11.5,138.5C 10.8326,141.642 10.166,144.642 9.5,147.5C 8.59603,148.209 8.26269,149.209 8.5,150.5C 6.96063,152.982 5.46063,152.982 4,150.5C 3.81172,144.252 3.31172,138.085 2.5,132C 3.65367,131.086 3.48701,130.253 2,129.5C 1.83333,127.333 1.66667,125.167 1.5,123C 2.96722,114.59 3.63388,106.09 3.5,97.5C 3.22823,83.2538 2.56157,69.0871 1.5,55C 2.43026,53.8061 3.09693,52.4728 3.5,51C 2.45273,44.6793 1.78607,38.5126 1.5,32.5C 1.97665,31.5224 2.64332,30.6891 3.5,30C 2.86931,26.4707 2.03598,22.9707 1,19.5C 0.617425,20.056 0.117425,20.3893 -0.5,20.5C -0.5,13.5 -0.5,6.5 -0.5,-0.5 Z"/></g>
<g><path style="opacity:1" fill="#594842" d="M 9.5,26.5 C 13.8744,27.416 18.2077,27.416 22.5,26.5C 23.404,27.209 23.7373,28.209 23.5,29.5C 19.8183,29.6653 16.1516,29.4986 12.5,29C 10.8807,28.7645 9.88066,27.9311 9.5,26.5 Z"/></g>
<g><path style="opacity:1" fill="#a38b78" d="M 14.5,22.5 C 15.7079,23.2341 17.0413,23.5674 18.5,23.5C 19.5903,24.8571 20.9236,25.8571 22.5,26.5C 18.2077,27.416 13.8744,27.416 9.5,26.5C 11.3492,25.407 13.0158,24.0737 14.5,22.5 Z"/></g>
<g><path style="opacity:1" fill="#e6da85" d="M 46.5,108.5 C 46.5,108.833 46.5,109.167 46.5,109.5C 47.1816,115.455 47.1816,121.455 46.5,127.5C 45.5,127.5 44.5,127.5 43.5,127.5C 43.3184,125.409 43.6518,123.409 44.5,121.5C 43.9953,120.081 42.9953,119.415 41.5,119.5C 40.4222,116.598 39.7556,113.598 39.5,110.5C 39.5,109.5 39.5,108.5 39.5,107.5C 41.9496,107.298 44.283,107.631 46.5,108.5 Z"/></g>
<g><path style="opacity:1" fill="#827a70" d="M 22.5,106.5 C 21.9522,108.532 20.6188,109.532 18.5,109.5C 18.2322,111.099 18.5655,112.432 19.5,113.5C 20.7686,120.942 22.7686,127.942 25.5,134.5C 25.5,135.5 25.5,136.5 25.5,137.5C 23.8058,136.473 22.4725,135.139 21.5,133.5C 21.1667,126.833 20.8333,126.833 20.5,133.5C 18.901,133.768 17.5676,133.434 16.5,132.5C 17.5,132.5 18.5,132.5 19.5,132.5C 19.5,130.167 19.5,127.833 19.5,125.5C 18.5117,120.211 17.845,114.878 17.5,109.5C 16.5,109.5 15.5,109.5 14.5,109.5C 14.8333,108.833 15.1667,108.167 15.5,107.5C 17.6074,106.532 19.9407,106.198 22.5,106.5 Z"/></g>
<g><path style="opacity:1" fill="#86817f" d="M 73.5,127.5 C 73.2627,126.209 73.596,125.209 74.5,124.5C 76.6306,122.979 78.7973,122.312 81,122.5C 81.1971,119.308 82.0304,116.308 83.5,113.5C 82.8728,112.583 82.5394,111.583 82.5,110.5C 82.5,110.167 82.5,109.833 82.5,109.5C 83.1174,109.389 83.6174,109.056 84,108.5C 84.6568,114.052 83.8234,119.386 81.5,124.5C 82.3256,125.451 82.4922,126.451 82,127.5C 79.8655,129.484 77.3655,130.818 74.5,131.5C 73.3961,130.369 73.7295,129.535 75.5,129C 74.5842,128.722 73.9175,128.222 73.5,127.5 Z"/></g>
<g><path style="opacity:1" fill="#7d7e75" d="M 65.5,131.5 C 66.3382,131.842 66.6716,132.508 66.5,133.5C 65.2905,133.932 64.2905,134.599 63.5,135.5C 62.6236,135.369 61.9569,135.702 61.5,136.5C 60.7262,140.714 58.8929,144.381 56,147.5C 55.6012,147.272 55.4346,146.938 55.5,146.5C 56.5,144.5 57.5,142.5 58.5,140.5C 59.4614,138.735 59.7947,136.735 59.5,134.5C 61.7844,133.971 63.7844,132.971 65.5,131.5 Z"/></g>
<g><path style="opacity:1" fill="#abac9f" d="M 21.5,133.5 C 22.4725,135.139 23.8058,136.473 25.5,137.5C 27.2891,142.661 28.4557,147.994 29,153.5C 29.6708,152.748 30.5041,152.414 31.5,152.5C 32.1098,153.391 32.4431,154.391 32.5,155.5C 31.8333,155.5 31.1667,155.5 30.5,155.5C 28.8333,154.833 27.1667,154.167 25.5,153.5C 26.2236,147.713 24.8903,142.713 21.5,138.5C 21.5,136.833 21.5,135.167 21.5,133.5 Z"/></g>
<g><path style="opacity:1" fill="#eff3ea" d="M 8.5,150.5 C 8.18178,155.032 8.51511,159.366 9.5,163.5C 17.5,163.5 25.5,163.5 33.5,163.5C 43.1667,163.5 52.8333,163.5 62.5,163.5C 71.5,163.5 80.5,163.5 89.5,163.5C 89.5,163.833 89.5,164.167 89.5,164.5C 59.5,164.5 29.5,164.5 -0.5,164.5C -0.5,116.5 -0.5,68.5 -0.5,20.5C 0.117425,20.3893 0.617425,20.056 1,19.5C 2.03598,22.9707 2.86931,26.4707 3.5,30C 2.64332,30.6891 1.97665,31.5224 1.5,32.5C 1.78607,38.5126 2.45273,44.6793 3.5,51C 3.09693,52.4728 2.43026,53.8061 1.5,55C 2.56157,69.0871 3.22823,83.2538 3.5,97.5C 3.63388,106.09 2.96722,114.59 1.5,123C 1.66667,125.167 1.83333,127.333 2,129.5C 3.48701,130.253 3.65367,131.086 2.5,132C 3.31172,138.085 3.81172,144.252 4,150.5C 5.46063,152.982 6.96063,152.982 8.5,150.5 Z"/></g>
<g><path style="opacity:1" fill="#e6e7e5" d="M 51.5,116.5 C 51.5,116.833 51.5,117.167 51.5,117.5C 53.9068,123.312 56.5734,128.979 59.5,134.5C 59.7947,136.735 59.4614,138.735 58.5,140.5C 58.7989,138.396 58.4656,136.396 57.5,134.5C 56.1667,135.833 54.8333,135.833 53.5,134.5C 52.5481,136.045 52.2148,137.712 52.5,139.5C 45.5823,140.867 38.9156,142.2 32.5,143.5C 31.2502,143.577 30.4169,144.244 30,145.5C 29.6667,145.167 29.3333,144.833 29,144.5C 28.8011,137.736 27.9677,131.069 26.5,124.5C 26.5108,122.955 26.8442,121.622 27.5,120.5C 26.5769,124.849 27.9102,128.183 31.5,130.5C 29.9604,131.532 29.4604,132.865 30,134.5C 32.9067,133.569 35.74,132.569 38.5,131.5C 37.7939,133.876 36.1273,135.21 33.5,135.5C 31.9719,135.517 31.4719,136.184 32,137.5C 37.8247,138.468 43.658,138.135 49.5,136.5C 51.0801,132.872 50.7467,129.538 48.5,126.5C 48.1774,122.774 48.5108,119.107 49.5,115.5C 50.1835,115.863 50.8501,116.196 51.5,116.5 Z"/></g>
<g><path style="opacity:1" fill="#2b3d40" d="M 48.5,126.5 C 50.7467,129.538 51.0801,132.872 49.5,136.5C 43.658,138.135 37.8247,138.468 32,137.5C 31.4719,136.184 31.9719,135.517 33.5,135.5C 37.6485,136.124 41.9818,136.124 46.5,135.5C 47.8333,133.833 47.8333,132.167 46.5,130.5C 46.5,130.167 46.5,129.833 46.5,129.5C 47.1667,128.5 47.8333,127.5 48.5,126.5 Z"/></g>
<g><path style="opacity:1" fill="#446b7f" d="M 39.5,130.5 C 39.8417,131.338 40.5084,131.672 41.5,131.5C 41.1961,132.15 40.8627,132.817 40.5,133.5C 42.6309,134.169 44.6309,134.835 46.5,135.5C 41.9818,136.124 37.6485,136.124 33.5,135.5C 36.1273,135.21 37.7939,133.876 38.5,131.5C 38.5,130.833 38.8333,130.5 39.5,130.5 Z"/></g>
<g><path style="opacity:1" fill="#50a1b6" d="M 42.5,130.5 C 43.8333,130.5 45.1667,130.5 46.5,130.5C 47.8333,132.167 47.8333,133.833 46.5,135.5C 44.6309,134.835 42.6309,134.169 40.5,133.5C 40.8627,132.817 41.1961,132.15 41.5,131.5C 41.5,130.833 41.8333,130.5 42.5,130.5 Z"/></g>
<g><path style="opacity:1" fill="#f9f9f3" d="M 58.5,140.5 C 57.5,142.5 56.5,144.5 55.5,146.5C 54.5,146.833 53.8333,147.5 53.5,148.5C 51.3736,149.048 49.3736,149.715 47.5,150.5C 44.4682,150.505 41.4682,150.838 38.5,151.5C 36.8857,151.197 35.5523,150.53 34.5,149.5C 33.2804,147.718 32.6138,145.718 32.5,143.5C 38.9156,142.2 45.5823,140.867 52.5,139.5C 52.2148,137.712 52.5481,136.045 53.5,134.5C 54.8333,135.833 56.1667,135.833 57.5,134.5C 58.4656,136.396 58.7989,138.396 58.5,140.5 Z"/></g>
<g><path style="opacity:1" fill="#32332a" d="M 21.5,138.5 C 24.8903,142.713 26.2236,147.713 25.5,153.5C 23.8053,152.989 22.1386,152.322 20.5,151.5C 20.9867,150.554 21.3201,149.554 21.5,148.5C 20.3489,146.675 19.6822,144.675 19.5,142.5C 19.6596,140.847 20.3263,139.514 21.5,138.5 Z"/></g>
<g><path style="opacity:1" fill="#f0efe6" d="M 66.5,137.5 C 67.9468,138.134 68.6134,139.301 68.5,141C 67.5829,143.972 66.5829,146.806 65.5,149.5C 64.2597,148.341 62.9264,147.341 61.5,146.5C 62.7738,143.24 64.4405,140.24 66.5,137.5 Z"/></g>
<g><path style="opacity:1" fill="#314336" d="M 15.5,145.5 C 16.209,146.404 17.209,146.737 18.5,146.5C 18.448,148.903 18.7814,151.236 19.5,153.5C 17.1667,153.5 14.8333,153.5 12.5,153.5C 12.4621,150.819 13.1287,148.319 14.5,146C 14.1667,145.5 13.8333,145 13.5,144.5C 12.5713,145.689 12.238,147.022 12.5,148.5C 11.209,148.737 10.209,148.404 9.5,147.5C 10.166,144.642 10.8326,141.642 11.5,138.5C 13.303,140.619 14.6363,142.952 15.5,145.5 Z"/></g>
<g><path style="opacity:1" fill="#c0bcb2" d="M 63.5,135.5 C 61.7806,140.606 59.7806,145.606 57.5,150.5C 55.9382,150.267 54.6049,149.6 53.5,148.5C 53.8333,147.5 54.5,146.833 55.5,146.5C 55.4346,146.938 55.6012,147.272 56,147.5C 58.8929,144.381 60.7262,140.714 61.5,136.5C 61.9569,135.702 62.6236,135.369 63.5,135.5 Z"/></g>
<g><path style="opacity:1" fill="#b3bc92" d="M 53.5,148.5 C 54.6049,149.6 55.9382,150.267 57.5,150.5C 57.3219,153.745 55.9886,154.745 53.5,153.5C 50.6085,152.597 47.6085,152.264 44.5,152.5C 45.5,151.833 46.5,151.167 47.5,150.5C 49.3736,149.715 51.3736,149.048 53.5,148.5 Z"/></g>
<g><path style="opacity:1" fill="#dcdaa1" d="M 61.5,146.5 C 62.9264,147.341 64.2597,148.341 65.5,149.5C 65.5,150.167 65.5,150.833 65.5,151.5C 63.9582,152.301 62.2915,152.634 60.5,152.5C 60.2053,150.265 60.5386,148.265 61.5,146.5 Z"/></g>
<g><path style="opacity:1" fill="#253123" d="M 89.5,156.5 C 83.1041,156.622 76.7708,157.289 70.5,158.5C 71.4293,157.685 72.4293,156.852 73.5,156C 72.4293,155.148 71.4293,154.315 70.5,153.5C 73.5184,153.665 76.5184,153.498 79.5,153C 78.2625,152.768 77.2625,152.268 76.5,151.5C 80.8333,150.833 85.1667,150.167 89.5,149.5C 89.5,151.833 89.5,154.167 89.5,156.5 Z"/></g>
<g><path style="opacity:1" fill="#8a8c79" d="M 67.5,135.5 C 68.5939,137.836 69.9272,137.836 71.5,135.5C 72.1386,136.097 72.472,136.93 72.5,138C 71.0138,142.101 70.1805,146.267 70,150.5C 70.2784,149.584 70.7784,148.918 71.5,148.5C 71.5,149.5 71.5,150.5 71.5,151.5C 73.1667,151.5 74.8333,151.5 76.5,151.5C 77.2625,152.268 78.2625,152.768 79.5,153C 76.5184,153.498 73.5184,153.665 70.5,153.5C 70.1667,153.5 69.8333,153.5 69.5,153.5C 68.8519,151.914 68.3519,150.247 68,148.5C 67.6232,149.942 66.7899,150.942 65.5,151.5C 65.5,150.833 65.5,150.167 65.5,149.5C 66.5829,146.806 67.5829,143.972 68.5,141C 68.6134,139.301 67.9468,138.134 66.5,137.5C 66.8333,136.833 67.1667,136.167 67.5,135.5 Z"/></g>
<g><path style="opacity:1" fill="#727569" d="M 19.5,142.5 C 19.6822,144.675 20.3489,146.675 21.5,148.5C 21.3201,149.554 20.9867,150.554 20.5,151.5C 22.1386,152.322 23.8053,152.989 25.5,153.5C 27.1667,154.167 28.8333,154.833 30.5,155.5C 28.1667,155.5 25.8333,155.5 23.5,155.5C 22.8166,153.824 21.4832,153.157 19.5,153.5C 18.7814,151.236 18.448,148.903 18.5,146.5C 17.209,146.737 16.209,146.404 15.5,145.5C 17.4305,145.229 18.7638,144.229 19.5,142.5 Z"/></g>
<g><path style="opacity:1" fill="#7c9379" d="M 34.5,149.5 C 35.5523,150.53 36.8857,151.197 38.5,151.5C 41.4682,150.838 44.4682,150.505 47.5,150.5C 46.5,151.167 45.5,151.833 44.5,152.5C 41.3769,154.045 37.3769,155.045 32.5,155.5C 32.4431,154.391 32.1098,153.391 31.5,152.5C 32.5,152.5 33.5,152.5 34.5,152.5C 34.5,151.5 34.5,150.5 34.5,149.5 Z"/></g>
<g><path style="opacity:1" fill="#d4cfc3" d="M 69.5,153.5 C 68.0772,154.449 66.5772,155.449 65,156.5C 64.5,156.167 64,155.833 63.5,155.5C 64.6302,154.378 65.2969,153.044 65.5,151.5C 66.7899,150.942 67.6232,149.942 68,148.5C 68.3519,150.247 68.8519,151.914 69.5,153.5 Z"/></g>
<g><path style="opacity:1" fill="#262e1a" d="M 44.5,152.5 C 47.6085,152.264 50.6085,152.597 53.5,153.5C 54.9899,155.28 56.9899,155.946 59.5,155.5C 56.4928,157.175 53.1595,157.841 49.5,157.5C 42.218,156.078 34.8846,156.411 27.5,158.5C 25.8333,158.5 24.1667,158.5 22.5,158.5C 22.2627,157.209 22.596,156.209 23.5,155.5C 25.8333,155.5 28.1667,155.5 30.5,155.5C 31.1667,155.5 31.8333,155.5 32.5,155.5C 37.3769,155.045 41.3769,154.045 44.5,152.5 Z"/></g>
<g><path style="opacity:1" fill="#c0c88b" d="M 12.5,153.5 C 14.8333,153.5 17.1667,153.5 19.5,153.5C 21.4832,153.157 22.8166,153.824 23.5,155.5C 22.596,156.209 22.2627,157.209 22.5,158.5C 22.1583,159.338 21.4916,159.672 20.5,159.5C 20.5,157.833 20.5,156.167 20.5,154.5C 17.5,154.5 14.5,154.5 11.5,154.5C 11.3915,156.514 12.0582,158.18 13.5,159.5C 12.1667,159.5 10.8333,159.5 9.5,159.5C 9.85405,157.459 9.85405,155.626 9.5,154C 10.448,153.517 11.448,153.351 12.5,153.5 Z"/></g>
<g><path style="opacity:1" fill="#dce37d" d="M 20.5,159.5 C 18.1667,159.5 15.8333,159.5 13.5,159.5C 12.0582,158.18 11.3915,156.514 11.5,154.5C 14.5,154.5 17.5,154.5 20.5,154.5C 20.5,156.167 20.5,157.833 20.5,159.5 Z"/></g>
<g><path style="opacity:1" fill="#c7c98e" d="M 59.5,155.5 C 60.8333,155.5 61.5,156.167 61.5,157.5C 60.8333,157.5 60.5,157.833 60.5,158.5C 57.6085,159.403 54.6085,159.736 51.5,159.5C 50.8333,158.833 50.1667,158.167 49.5,157.5C 53.1595,157.841 56.4928,157.175 59.5,155.5 Z"/></g>
<g><path style="opacity:1" fill="#ebeb90" d="M 49.5,157.5 C 50.1667,158.167 50.8333,158.833 51.5,159.5C 50.8333,159.5 50.1667,159.5 49.5,159.5C 30.8333,158.833 30.8333,158.167 49.5,157.5 Z"/></g>
<g><path style="opacity:1" fill="#303029" d="M 66.5,133.5 C 66.8333,134.167 67.1667,134.833 67.5,135.5C 67.1667,136.167 66.8333,136.833 66.5,137.5C 64.4405,140.24 62.7738,143.24 61.5,146.5C 60.5386,148.265 60.2053,150.265 60.5,152.5C 62.2915,152.634 63.9582,152.301 65.5,151.5C 65.2969,153.044 64.6302,154.378 63.5,155.5C 64,155.833 64.5,156.167 65,156.5C 66.5772,155.449 68.0772,154.449 69.5,153.5C 69.8333,153.5 70.1667,153.5 70.5,153.5C 71.4293,154.315 72.4293,155.148 73.5,156C 72.4293,156.852 71.4293,157.685 70.5,158.5C 67.8111,159.038 65.1444,159.705 62.5,160.5C 61.6143,159.675 61.281,158.675 61.5,157.5C 61.5,156.167 60.8333,155.5 59.5,155.5C 56.9899,155.946 54.9899,155.28 53.5,153.5C 55.9886,154.745 57.3219,153.745 57.5,150.5C 59.7806,145.606 61.7806,140.606 63.5,135.5C 64.2905,134.599 65.2905,133.932 66.5,133.5 Z"/></g>
<g><path style="opacity:1" fill="#809770" d="M 89.5,156.5 C 89.5,157.5 89.5,158.5 89.5,159.5C 89.1667,159.5 88.8333,159.5 88.5,159.5C 83.1951,160.194 77.8617,160.528 72.5,160.5C 71.1667,160.5 70.5,159.833 70.5,158.5C 76.7708,157.289 83.1041,156.622 89.5,156.5 Z"/></g>
<g><path style="opacity:1" fill="#616956" d="M 12.5,153.5 C 11.448,153.351 10.448,153.517 9.5,154C 9.85405,155.626 9.85405,157.459 9.5,159.5C 10.8333,159.5 12.1667,159.5 13.5,159.5C 15.8333,159.5 18.1667,159.5 20.5,159.5C 21.4916,159.672 22.1583,159.338 22.5,158.5C 24.1667,158.5 25.8333,158.5 27.5,158.5C 28.5676,159.434 29.901,159.768 31.5,159.5C 31.5,160.167 31.5,160.833 31.5,161.5C 31.5654,161.938 31.3988,162.272 31,162.5C 24.1147,160.559 16.948,159.892 9.5,160.5C 9.5,161.5 9.5,162.5 9.5,163.5C 8.51511,159.366 8.18178,155.032 8.5,150.5C 8.26269,149.209 8.59603,148.209 9.5,147.5C 10.209,148.404 11.209,148.737 12.5,148.5C 12.238,147.022 12.5713,145.689 13.5,144.5C 13.8333,145 14.1667,145.5 14.5,146C 13.1287,148.319 12.4621,150.819 12.5,153.5 Z"/></g>
<g><path style="opacity:1" fill="#bccc89" d="M 49.5,157.5 C 30.8333,158.167 30.8333,158.833 49.5,159.5C 43.6298,160.766 37.6298,160.766 31.5,159.5C 29.901,159.768 28.5676,159.434 27.5,158.5C 34.8846,156.411 42.218,156.078 49.5,157.5 Z"/></g>
<g><path style="opacity:1" fill="#2c2f27" d="M 31.5,161.5 C 33.9935,161.131 34.6602,161.797 33.5,163.5C 25.5,163.5 17.5,163.5 9.5,163.5C 9.5,162.5 9.5,161.5 9.5,160.5C 16.948,159.892 24.1147,160.559 31,162.5C 31.3988,162.272 31.5654,161.938 31.5,161.5 Z"/></g>
<g><path style="opacity:1" fill="#629571" d="M 60.5,158.5 C 60.5,159.5 60.5,160.5 60.5,161.5C 62.9935,161.131 63.6602,161.797 62.5,163.5C 52.8333,163.5 43.1667,163.5 33.5,163.5C 34.6602,161.797 33.9935,161.131 31.5,161.5C 31.5,160.833 31.5,160.167 31.5,159.5C 37.6298,160.766 43.6298,160.766 49.5,159.5C 50.1667,159.5 50.8333,159.5 51.5,159.5C 54.6085,159.736 57.6085,159.403 60.5,158.5 Z"/></g>
<g><path style="opacity:1" fill="#597160" d="M 61.5,157.5 C 61.281,158.675 61.6143,159.675 62.5,160.5C 65.1444,159.705 67.8111,159.038 70.5,158.5C 70.5,159.833 71.1667,160.5 72.5,160.5C 77.5531,162.26 82.8864,162.927 88.5,162.5C 88.5,161.5 88.5,160.5 88.5,159.5C 88.8333,159.5 89.1667,159.5 89.5,159.5C 89.5,160.833 89.5,162.167 89.5,163.5C 80.5,163.5 71.5,163.5 62.5,163.5C 63.6602,161.797 62.9935,161.131 60.5,161.5C 60.5,160.5 60.5,159.5 60.5,158.5C 60.5,157.833 60.8333,157.5 61.5,157.5 Z"/></g>
<g><path style="opacity:1" fill="#293a23" d="M 88.5,159.5 C 88.5,160.5 88.5,161.5 88.5,162.5C 82.8864,162.927 77.5531,162.26 72.5,160.5C 77.8617,160.528 83.1951,160.194 88.5,159.5 Z"/></g>
</svg>
