<?xml version="1.0" encoding="UTF-8"?>
<!DOCTYPE svg PUBLIC "-//W3C//DTD SVG 1.1//EN" "http://www.w3.org/Graphics/SVG/1.1/DTD/svg11.dtd">
<svg xmlns="http://www.w3.org/2000/svg" version="1.1" width="100px" height="165px" style="shape-rendering:geometricPrecision; text-rendering:geometricPrecision; image-rendering:optimizeQuality; fill-rule:evenodd; clip-rule:evenodd" xmlns:xlink="http://www.w3.org/1999/xlink">
<g><path style="opacity:1" fill="#f8f8f7" d="M -0.5,-0.5 C 9.16667,-0.5 18.8333,-0.5 28.5,-0.5C 30.0931,2.1973 31.7598,2.53063 33.5,0.5C 34.2082,2.74513 35.2082,4.74513 36.5,6.5C 35.3129,7.53365 34.4796,8.86698 34,10.5C 29.7156,9.86359 25.549,8.86359 21.5,7.5C 19.0582,7.28577 17.3915,8.28577 16.5,10.5C 14.9826,10.5106 13.8159,11.1772 13,12.5C 11.5236,17.0759 11.1902,21.7426 12,26.5C 14.3743,28.5079 15.8743,30.5079 16.5,32.5C 17.2038,38.5558 17.2038,44.5558 16.5,50.5C 15.7166,54.1458 15.5499,57.8125 16,61.5C 16.9022,63.4308 18.0688,65.0975 19.5,66.5C 19.7352,67.0967 20.2352,67.4301 21,67.5C 22.8928,66.8037 24.7262,65.9704 26.5,65C 28.9666,62.2703 31.6333,59.7703 34.5,57.5C 35.1667,57.5 35.8333,57.5 36.5,57.5C 36.5,59.5 36.5,61.5 36.5,63.5C 34.1432,63.3367 31.8098,63.5034 29.5,64C 28.944,64.3826 28.6107,64.8826 28.5,65.5C 27.5222,65.811 26.8555,66.4777 26.5,67.5C 27.6302,68.6223 28.2969,69.9557 28.5,71.5C 23.6097,71.8553 18.6097,71.8553 13.5,71.5C 13.5,73.1667 13.5,74.8333 13.5,76.5C 18.8009,75.8227 24.1343,75.3227 29.5,75C 30.056,74.6174 30.3893,74.1174 30.5,73.5C 32.3838,72.6184 33.7171,71.1184 34.5,69C 35.4368,68.3083 36.1034,68.475 36.5,69.5C 35.0937,69.9731 34.427,70.9731 34.5,72.5C 33.6618,72.8417 33.3284,73.5084 33.5,74.5C 33.1667,75.1667 32.8333,75.8333 32.5,76.5C 31.209,76.2627 30.209,76.596 29.5,77.5C 28.0048,77.9887 26.6715,78.6554 25.5,79.5C 19.1334,81.8257 13.4667,85.4923 8.5,90.5C 6.87886,93.6521 5.87886,96.9855 5.5,100.5C 4.40951,103.681 4.40951,107.015 5.5,110.5C 5.5,112.5 5.5,114.5 5.5,116.5C 7.16486,119.706 8.83153,123.373 10.5,127.5C 9.77842,127.918 9.27842,128.584 9,129.5C 7.33333,128.167 5.66667,126.833 4,125.5C 3.25711,123.559 3.42378,121.726 4.5,120C 3.54148,118.293 2.87481,116.459 2.5,114.5C 3.93331,112.664 4.43331,110.664 4,108.5C 3.58476,110.291 2.58476,111.624 1,112.5C 0.257114,114.441 0.423781,116.274 1.5,118C 0.915201,119.302 0.248534,120.469 -0.5,121.5C -0.5,80.8333 -0.5,40.1667 -0.5,-0.5 Z"/></g>
<g><path style="opacity:1" fill="#fbfcfc" d="M 28.5,-0.5 C 52.1667,-0.5 75.8333,-0.5 99.5,-0.5C 99.5,11.5 99.5,23.5 99.5,35.5C 97.857,35.4802 96.5237,36.1468 95.5,37.5C 94.8165,37.1373 94.1499,36.8039 93.5,36.5C 93.6681,32.2674 92.3348,31.2674 89.5,33.5C 87.4648,32.9588 85.4648,32.2922 83.5,31.5C 84.6034,31.0024 85.6034,30.6691 86.5,30.5C 85.9747,29.8076 85.3081,29.3076 84.5,29C 86.5238,25.0163 85.5238,22.3496 81.5,21C 83.4141,16.6964 83.9141,12.1964 83,7.5C 82.6121,6.57203 81.9454,5.90536 81,5.5C 76.1892,6.26475 71.3559,6.93142 66.5,7.5C 64.8651,7.12229 63.3651,6.45563 62,5.5C 60.0767,6.80188 58.2434,6.63521 56.5,5C 50.9171,4.80887 45.4171,4.30887 40,3.5C 39.015,4.81414 37.8484,5.81414 36.5,6.5C 35.2082,4.74513 34.2082,2.74513 33.5,0.5C 31.7598,2.53063 30.0931,2.1973 28.5,-0.5 Z"/></g>
<g><path style="opacity:1" fill="#7f6f51" d="M 34.5,23.5 C 33.0054,27.6509 30.0054,29.9842 25.5,30.5C 23.5853,30.7845 21.9187,30.4511 20.5,29.5C 20.1667,29.5 19.8333,29.5 19.5,29.5C 12.3222,24.6089 11.6556,18.9422 17.5,12.5C 23.6457,9.29384 29.1457,10.2938 34,15.5C 34.4974,18.146 34.6641,20.8127 34.5,23.5 Z"/></g>
<g><path style="opacity:1" fill="#897a75" d="M 51.5,14.5 C 52.675,14.281 53.675,14.6143 54.5,15.5C 53.5721,16.7678 53.4054,18.1011 54,19.5C 54.6667,18.1667 55.3333,18.1667 56,19.5C 56.66,17.6763 57.8267,16.343 59.5,15.5C 60.8993,16.8897 62.5659,17.8897 64.5,18.5C 64.5,19.5 64.5,20.5 64.5,21.5C 63.5255,20.365 62.3588,19.365 61,18.5C 60.6271,20.6982 60.1271,22.8649 59.5,25C 60.9205,26.4191 61.9205,28.0858 62.5,30C 62.4301,30.7648 62.0967,31.2648 61.5,31.5C 61.631,30.7611 61.4643,30.0944 61,29.5C 59.0606,33.3066 57.2273,33.3066 55.5,29.5C 56.2458,28.2638 56.5792,26.9305 56.5,25.5C 55.1667,25.5 53.8333,25.5 52.5,25.5C 52.756,21.7307 52.4227,18.0641 51.5,14.5 Z"/></g>
<g><path style="opacity:1" fill="#d2af8e" d="M 40.5,13.5 C 44.026,13.2311 47.6926,13.5645 51.5,14.5C 52.4227,18.0641 52.756,21.7307 52.5,25.5C 52.2562,28.2626 50.9229,30.4293 48.5,32C 53.0935,30.7322 55.7601,32.5655 56.5,37.5C 54.3364,37.7215 52.6697,38.7215 51.5,40.5C 51.1583,41.3382 50.4916,41.6716 49.5,41.5C 48.2223,41.2178 47.2223,40.5511 46.5,39.5C 45.962,37.8828 45.6287,36.2161 45.5,34.5C 44.1667,34.5 42.8333,34.5 41.5,34.5C 42.5,33.8333 43.5,33.1667 44.5,32.5C 44.5608,30.5608 44.5608,28.5608 44.5,26.5C 41.8333,24.5 41.8333,22.5 44.5,20.5C 43.1369,19.1072 42.3036,17.4405 42,15.5C 41.7216,16.4158 41.2216,17.0825 40.5,17.5C 40.5,16.1667 40.5,14.8333 40.5,13.5 Z"/></g>
<g><path style="opacity:1" fill="#d3cbc8" d="M 16.5,10.5 C 16.3284,11.4916 16.6618,12.1583 17.5,12.5C 11.6556,18.9422 12.3222,24.6089 19.5,29.5C 18.8333,30.8333 17.8333,31.8333 16.5,32.5C 15.8743,30.5079 14.3743,28.5079 12,26.5C 11.1902,21.7426 11.5236,17.0759 13,12.5C 13.8159,11.1772 14.9826,10.5106 16.5,10.5 Z"/></g>
<g><path style="opacity:1" fill="#ac9063" d="M 20.5,29.5 C 19.2073,27.7041 17.7073,26.0375 16,24.5C 15.4998,12.6306 20.3331,9.46398 30.5,15C 30.6932,16.6453 30.8598,18.4787 31,20.5C 31.8357,17.0585 32.669,16.8919 33.5,20C 33.204,21.8882 32.704,23.7216 32,25.5C 31.6667,24.8333 31.3333,24.1667 31,23.5C 29.6127,28.9019 26.1127,30.9019 20.5,29.5 Z"/></g>
<g><path style="opacity:1" fill="#bb5447" d="M 23.5,16.5 C 28.6677,17.3385 29.6677,19.8385 26.5,24C 22,24.8333 20.1667,23 21,18.5C 21.9947,17.9341 22.828,17.2674 23.5,16.5 Z"/></g>
<g><path style="opacity:1" fill="#60564e" d="M 44.5,32.5 C 44.1667,32.5 43.8333,32.5 43.5,32.5C 42.9095,30.9028 41.9095,29.5695 40.5,28.5C 41.6446,27.109 41.6446,25.7757 40.5,24.5C 39.8076,25.0253 39.3076,25.6919 39,26.5C 38.5721,23.6783 39.0721,21.0116 40.5,18.5C 40.5,18.1667 40.5,17.8333 40.5,17.5C 41.2216,17.0825 41.7216,16.4158 42,15.5C 42.3036,17.4405 43.1369,19.1072 44.5,20.5C 41.8333,22.5 41.8333,24.5 44.5,26.5C 44.5608,28.5608 44.5608,30.5608 44.5,32.5 Z"/></g>
<g><path style="opacity:1" fill="#cbc9c8" d="M 40.5,18.5 C 39.0721,21.0116 38.5721,23.6783 39,26.5C 39.3076,25.6919 39.8076,25.0253 40.5,24.5C 41.6446,25.7757 41.6446,27.109 40.5,28.5C 41.9095,29.5695 42.9095,30.9028 43.5,32.5C 40.7553,31.3991 38.0886,30.0657 35.5,28.5C 33.2101,31.459 30.2101,33.1257 26.5,33.5C 26.1667,32.8333 25.8333,32.1667 25.5,31.5C 25.5,31.1667 25.5,30.8333 25.5,30.5C 30.0054,29.9842 33.0054,27.6509 34.5,23.5C 35.6995,23.6463 36.3661,22.6463 36.5,20.5C 35.6547,17.8074 35.1547,15.1407 35,12.5C 36.0437,13.6226 36.7104,14.9559 37,16.5C 37.8159,17.8228 38.9826,18.4894 40.5,18.5 Z"/></g>
<g><path style="opacity:1" fill="#493933" d="M 52.5,25.5 C 53.8333,25.5 55.1667,25.5 56.5,25.5C 56.5792,26.9305 56.2458,28.2638 55.5,29.5C 57.2273,33.3066 59.0606,33.3066 61,29.5C 61.4643,30.0944 61.631,30.7611 61.5,31.5C 60.1667,32.8333 60.1667,34.1667 61.5,35.5C 60.8333,36.1667 60.1667,36.8333 59.5,37.5C 58.5,37.5 57.5,37.5 56.5,37.5C 55.7601,32.5655 53.0935,30.7322 48.5,32C 50.9229,30.4293 52.2562,28.2626 52.5,25.5 Z"/></g>
<g><path style="opacity:1" fill="#f0efeb" d="M 93.5,36.5 C 93.1667,36.5 92.8333,36.5 92.5,36.5C 92.5299,35.5028 92.0299,34.8361 91,34.5C 88.7691,36.1997 86.2691,37.1997 83.5,37.5C 83.5,36.5 83.5,35.5 83.5,34.5C 79.7521,36.8923 75.7521,38.8923 71.5,40.5C 70.1667,40.1667 68.8333,39.8333 67.5,39.5C 65.9995,37.6342 63.9995,36.3008 61.5,35.5C 60.1667,34.1667 60.1667,32.8333 61.5,31.5C 62.0967,31.2648 62.4301,30.7648 62.5,30C 61.9205,28.0858 60.9205,26.4191 59.5,25C 60.1271,22.8649 60.6271,20.6982 61,18.5C 62.3588,19.365 63.5255,20.365 64.5,21.5C 64.8333,21.5 65.1667,21.5 65.5,21.5C 67.8209,26.9781 71.9876,29.9781 78,30.5C 79.7659,29.7665 81.5992,29.4332 83.5,29.5C 84.0708,25.1823 82.4041,22.1823 78.5,20.5C 80.3549,18.7787 81.6882,16.612 82.5,14C 81.4939,12.662 80.4939,11.3287 79.5,10C 73.8051,9.3742 68.1385,9.54086 62.5,10.5C 61.1667,10.1667 59.8333,9.83333 58.5,9.5C 56.6948,7.80314 54.3615,6.96981 51.5,7C 47.8333,6.33333 44.1667,6.33333 40.5,7C 37.9186,9.22574 37.9186,11.3924 40.5,13.5C 40.5,14.8333 40.5,16.1667 40.5,17.5C 40.5,17.8333 40.5,18.1667 40.5,18.5C 38.9826,18.4894 37.8159,17.8228 37,16.5C 36.7104,14.9559 36.0437,13.6226 35,12.5C 35.1547,15.1407 35.6547,17.8074 36.5,20.5C 36.3661,22.6463 35.6995,23.6463 34.5,23.5C 34.6641,20.8127 34.4974,18.146 34,15.5C 29.1457,10.2938 23.6457,9.29384 17.5,12.5C 16.6618,12.1583 16.3284,11.4916 16.5,10.5C 17.3915,8.28577 19.0582,7.28577 21.5,7.5C 25.549,8.86359 29.7156,9.86359 34,10.5C 34.4796,8.86698 35.3129,7.53365 36.5,6.5C 37.8484,5.81414 39.015,4.81414 40,3.5C 45.4171,4.30887 50.9171,4.80887 56.5,5C 58.2434,6.63521 60.0767,6.80188 62,5.5C 63.3651,6.45563 64.8651,7.12229 66.5,7.5C 71.3559,6.93142 76.1892,6.26475 81,5.5C 81.9454,5.90536 82.6121,6.57203 83,7.5C 83.9141,12.1964 83.4141,16.6964 81.5,21C 85.5238,22.3496 86.5238,25.0163 84.5,29C 85.3081,29.3076 85.9747,29.8076 86.5,30.5C 85.6034,30.6691 84.6034,31.0024 83.5,31.5C 85.4648,32.2922 87.4648,32.9588 89.5,33.5C 92.3348,31.2674 93.6681,32.2674 93.5,36.5 Z"/></g>
<g><path style="opacity:1" fill="#914d5b" d="M 78.5,20.5 C 82.4041,22.1823 84.0708,25.1823 83.5,29.5C 81.5992,29.4332 79.7659,29.7665 78,30.5C 71.9876,29.9781 67.8209,26.9781 65.5,21.5C 67.7541,22.4151 69.7541,23.7484 71.5,25.5C 74.006,26.7496 76.6726,27.4162 79.5,27.5C 80.4972,27.5299 81.1639,27.0299 81.5,26C 80.259,24.2691 79.259,22.4358 78.5,20.5 Z"/></g>
<g><path style="opacity:1" fill="#ca4359" d="M 79.5,27.5 C 76.6726,27.4162 74.006,26.7496 71.5,25.5C 71.4606,24.4168 71.1272,23.4168 70.5,22.5C 73.359,21.4015 76.0257,21.9015 78.5,24C 79.3366,25.0113 79.67,26.1779 79.5,27.5 Z"/></g>
<g><path style="opacity:1" fill="#a74d4c" d="M 64.5,18.5 C 69.3993,18.0961 74.066,18.7627 78.5,20.5C 79.259,22.4358 80.259,24.2691 81.5,26C 81.1639,27.0299 80.4972,27.5299 79.5,27.5C 79.67,26.1779 79.3366,25.0113 78.5,24C 76.0257,21.9015 73.359,21.4015 70.5,22.5C 71.1272,23.4168 71.4606,24.4168 71.5,25.5C 69.7541,23.7484 67.7541,22.4151 65.5,21.5C 65.1667,21.5 64.8333,21.5 64.5,21.5C 64.5,20.5 64.5,19.5 64.5,18.5 Z"/></g>
<g><path style="opacity:1" fill="#cfa071" d="M 78.5,20.5 C 74.066,18.7627 69.3993,18.0961 64.5,18.5C 62.5659,17.8897 60.8993,16.8897 59.5,15.5C 60.6935,14.7281 61.6935,13.7281 62.5,12.5C 62.7952,13.8967 63.1286,15.3967 63.5,17C 68.8229,17.4994 74.1563,17.666 79.5,17.5C 79.7564,15.2075 79.4231,13.0408 78.5,11C 74.299,10.0776 70.299,10.5776 66.5,12.5C 65.2638,11.7542 63.9305,11.4208 62.5,11.5C 62.5,11.1667 62.5,10.8333 62.5,10.5C 68.1385,9.54086 73.8051,9.3742 79.5,10C 80.4939,11.3287 81.4939,12.662 82.5,14C 81.6882,16.612 80.3549,18.7787 78.5,20.5 Z"/></g>
<g><path style="opacity:1" fill="#e9b35f" d="M 62.5,12.5 C 62.5,12.1667 62.5,11.8333 62.5,11.5C 63.9305,11.4208 65.2638,11.7542 66.5,12.5C 70.299,10.5776 74.299,10.0776 78.5,11C 79.4231,13.0408 79.7564,15.2075 79.5,17.5C 74.1563,17.666 68.8229,17.4994 63.5,17C 63.1286,15.3967 62.7952,13.8967 62.5,12.5 Z"/></g>
<g><path style="opacity:1" fill="#29302f" d="M 58.5,9.5 C 59.8333,9.83333 61.1667,10.1667 62.5,10.5C 62.5,10.8333 62.5,11.1667 62.5,11.5C 62.5,11.8333 62.5,12.1667 62.5,12.5C 61.6935,13.7281 60.6935,14.7281 59.5,15.5C 57.8267,16.343 56.66,17.6763 56,19.5C 55.3333,18.1667 54.6667,18.1667 54,19.5C 53.4054,18.1011 53.5721,16.7678 54.5,15.5C 53.675,14.6143 52.675,14.281 51.5,14.5C 47.6926,13.5645 44.026,13.2311 40.5,13.5C 45.676,12.2964 51.0093,12.2964 56.5,13.5C 57.5,13.1667 58.5,12.8333 59.5,12.5C 58.8728,11.5832 58.5394,10.5832 58.5,9.5 Z"/></g>
<g><path style="opacity:1" fill="#3a86a6" d="M 58.5,9.5 C 58.5394,10.5832 58.8728,11.5832 59.5,12.5C 58.5,12.8333 57.5,13.1667 56.5,13.5C 51.0093,12.2964 45.676,12.2964 40.5,13.5C 37.9186,11.3924 37.9186,9.22574 40.5,7C 44.1667,6.33333 47.8333,6.33333 51.5,7C 54.3615,6.96981 56.6948,7.80314 58.5,9.5 Z"/></g>
<g><path style="opacity:1" fill="#efeee7" d="M 43.5,32.5 C 43.8333,32.5 44.1667,32.5 44.5,32.5C 43.5,33.1667 42.5,33.8333 41.5,34.5C 39.7085,34.366 38.0418,34.6993 36.5,35.5C 35.5,35.8333 34.8333,36.5 34.5,37.5C 34.5,37.8333 34.5,38.1667 34.5,38.5C 33.0609,37.4908 31.7276,37.8241 30.5,39.5C 29.1068,42.932 27.7734,46.2653 26.5,49.5C 25.5555,44.1948 25.5555,38.8615 26.5,33.5C 30.2101,33.1257 33.2101,31.459 35.5,28.5C 38.0886,30.0657 40.7553,31.3991 43.5,32.5 Z"/></g>
<g><path style="opacity:1" fill="#816f64" d="M 25.5,31.5 C 25.8333,32.1667 26.1667,32.8333 26.5,33.5C 25.5555,38.8615 25.5555,44.1948 26.5,49.5C 26.5,50.1667 26.5,50.8333 26.5,51.5C 25.8333,51.5 25.1667,51.5 24.5,51.5C 23.5708,46.9962 23.2375,42.6629 23.5,38.5C 22.9898,35.6122 23.6565,33.2789 25.5,31.5 Z"/></g>
<g><path style="opacity:1" fill="#385132" d="M 41.5,34.5 C 42.8333,34.5 44.1667,34.5 45.5,34.5C 45.6287,36.2161 45.962,37.8828 46.5,39.5C 45.5,39.5 44.5,39.5 43.5,39.5C 43.5,38.5 43.5,37.5 43.5,36.5C 40.9407,36.8016 38.6074,36.4682 36.5,35.5C 38.0418,34.6993 39.7085,34.366 41.5,34.5 Z"/></g>
<g><path style="opacity:1" fill="#727168" d="M 92.5,36.5 C 92.1044,39.4822 92.7711,42.1489 94.5,44.5C 93.7261,45.7112 92.8928,45.7112 92,44.5C 91.5065,46.1341 91.3398,47.8008 91.5,49.5C 90.5386,47.7354 90.2053,45.7354 90.5,43.5C 89.1667,43.5 87.8333,43.5 86.5,43.5C 85.1986,42.36 84.0319,41.0267 83,39.5C 82.3828,40.4491 82.5494,41.2825 83.5,42C 81.5273,42.4955 79.5273,42.6621 77.5,42.5C 77.6495,41.448 77.4828,40.448 77,39.5C 75.1698,41.1581 73.8364,43.1581 73,45.5C 72.3923,43.8455 71.8923,42.1789 71.5,40.5C 75.7521,38.8923 79.7521,36.8923 83.5,34.5C 83.5,35.5 83.5,36.5 83.5,37.5C 86.2691,37.1997 88.7691,36.1997 91,34.5C 92.0299,34.8361 92.5299,35.5028 92.5,36.5 Z"/></g>
<g><path style="opacity:1" fill="#b79a81" d="M 19.5,29.5 C 19.8333,29.5 20.1667,29.5 20.5,29.5C 21.9187,30.4511 23.5853,30.7845 25.5,30.5C 25.5,30.8333 25.5,31.1667 25.5,31.5C 23.6565,33.2789 22.9898,35.6122 23.5,38.5C 22.4799,40.9341 21.1466,40.9341 19.5,38.5C 20.0253,37.8076 20.6919,37.3076 21.5,37C 20.1509,36.2276 19.3176,35.0609 19,33.5C 18.654,35.2182 18.154,36.8849 17.5,38.5C 20.1,41.6284 20.1,44.7951 17.5,48C 17.7432,48.9021 18.0766,49.7354 18.5,50.5C 17.8333,50.5 17.1667,50.5 16.5,50.5C 17.2038,44.5558 17.2038,38.5558 16.5,32.5C 17.8333,31.8333 18.8333,30.8333 19.5,29.5 Z"/></g>
<g><path style="opacity:1" fill="#5e916e" d="M 36.5,35.5 C 38.6074,36.4682 40.9407,36.8016 43.5,36.5C 43.5,37.5 43.5,38.5 43.5,39.5C 44.5,39.5 45.5,39.5 46.5,39.5C 47.2223,40.5511 48.2223,41.2178 49.5,41.5C 49.5,42.1667 49.5,42.8333 49.5,43.5C 47.9382,43.7329 46.6049,44.3995 45.5,45.5C 44.3915,44.71 43.0581,44.21 41.5,44C 39.6875,41.1395 37.3542,38.9729 34.5,37.5C 34.8333,36.5 35.5,35.8333 36.5,35.5 Z"/></g>
<g><path style="opacity:1" fill="#dcc190" d="M 23.5,38.5 C 23.2375,42.6629 23.5708,46.9962 24.5,51.5C 24.1667,51.5 23.8333,51.5 23.5,51.5C 21.5853,51.7845 19.9187,51.4511 18.5,50.5C 18.0766,49.7354 17.7432,48.9021 17.5,48C 20.1,44.7951 20.1,41.6284 17.5,38.5C 18.154,36.8849 18.654,35.2182 19,33.5C 19.3176,35.0609 20.1509,36.2276 21.5,37C 20.6919,37.3076 20.0253,37.8076 19.5,38.5C 21.1466,40.9341 22.4799,40.9341 23.5,38.5 Z"/></g>
<g><path style="opacity:1" fill="#5e9367" d="M 59.5,38.5 C 60.4831,39.8503 61.8164,40.8503 63.5,41.5C 62.1738,42.6422 61.1738,43.9755 60.5,45.5C 60.1667,46.1667 59.8333,46.8333 59.5,47.5C 58.8333,47.5 58.1667,47.5 57.5,47.5C 54.3614,43.5151 55.0281,40.5151 59.5,38.5 Z"/></g>
<g><path style="opacity:1" fill="#a8a18c" d="M 67.5,39.5 C 68.8333,39.8333 70.1667,40.1667 71.5,40.5C 71.8923,42.1789 72.3923,43.8455 73,45.5C 73.8364,43.1581 75.1698,41.1581 77,39.5C 77.4828,40.448 77.6495,41.448 77.5,42.5C 79.5273,42.6621 81.5273,42.4955 83.5,42C 82.5494,41.2825 82.3828,40.4491 83,39.5C 84.0319,41.0267 85.1986,42.36 86.5,43.5C 86.5,43.8333 86.5,44.1667 86.5,44.5C 85.3052,44.3225 84.1385,43.9891 83,43.5C 82.5,43.8333 82,44.1667 81.5,44.5C 82.376,45.2508 83.376,45.7508 84.5,46C 81.7996,46.2532 79.133,46.2532 76.5,46C 75.1068,47.1711 74.2735,48.6711 74,50.5C 73.3333,47.8333 72.6667,47.8333 72,50.5C 71,50.1667 70,49.8333 69,49.5C 68.3333,48.5 68.3333,47.5 69,46.5C 69.8893,47.8882 70.3893,47.7215 70.5,46C 70.1639,44.9701 69.4972,44.4701 68.5,44.5C 69.0906,43.8485 69.7573,43.1818 70.5,42.5C 70.1667,42.1667 69.8333,41.8333 69.5,41.5C 67.5008,42.5076 65.8342,43.841 64.5,45.5C 64.615,43.0532 65.615,41.0532 67.5,39.5 Z"/></g>
<g><path style="opacity:1" fill="#3d4b34" d="M 61.5,35.5 C 63.9995,36.3008 65.9995,37.6342 67.5,39.5C 65.615,41.0532 64.615,43.0532 64.5,45.5C 64.7692,47.4286 64.2692,49.0953 63,50.5C 62.4054,49.1011 62.5721,47.7678 63.5,46.5C 62.675,45.6143 61.675,45.281 60.5,45.5C 61.1738,43.9755 62.1738,42.6422 63.5,41.5C 61.8164,40.8503 60.4831,39.8503 59.5,38.5C 59.5,38.1667 59.5,37.8333 59.5,37.5C 60.1667,36.8333 60.8333,36.1667 61.5,35.5 Z"/></g>
<g><path style="opacity:1" fill="#f5f8f7" d="M 99.5,35.5 C 99.5,78.5 99.5,121.5 99.5,164.5C 68.5,164.5 37.5,164.5 6.5,164.5C 6.5,163.833 6.5,163.167 6.5,162.5C 6.83333,162.5 7.16667,162.5 7.5,162.5C 35.1667,163.833 62.8333,163.833 90.5,162.5C 90.5,158.5 90.5,154.5 90.5,150.5C 90.5,149.5 90.5,148.5 90.5,147.5C 91.0906,146.849 91.7573,146.182 92.5,145.5C 91.6175,141.041 89.2842,137.708 85.5,135.5C 83.9458,136.372 82.6124,136.372 81.5,135.5C 81.5,134.167 81.5,132.833 81.5,131.5C 84.3667,131.631 86.0334,130.297 86.5,127.5C 87.2917,122.458 88.2917,117.458 89.5,112.5C 88.8333,111.167 88.1667,109.833 87.5,108.5C 89.6138,109.36 90.7805,111.027 91,113.5C 91.3333,112.167 91.6667,110.833 92,109.5C 93.1662,110.834 93.3329,112.5 92.5,114.5C 92.477,116.067 92.977,117.4 94,118.5C 94.5112,116.122 95.1779,113.788 96,111.5C 95.9498,103.317 96.1164,95.3174 96.5,87.5C 95.7139,82.2187 95.2139,76.8854 95,71.5C 94.7996,73.3197 93.9663,74.653 92.5,75.5C 93.0549,66.8165 92.7216,58.1499 91.5,49.5C 91.3398,47.8008 91.5065,46.1341 92,44.5C 92.8928,45.7112 93.7261,45.7112 94.5,44.5C 92.7711,42.1489 92.1044,39.4822 92.5,36.5C 92.8333,36.5 93.1667,36.5 93.5,36.5C 94.1499,36.8039 94.8165,37.1373 95.5,37.5C 96.5237,36.1468 97.857,35.4802 99.5,35.5 Z"/></g>
<g><path style="opacity:1" fill="#3d3624" d="M 34.5,37.5 C 37.3542,38.9729 39.6875,41.1395 41.5,44C 43.0581,44.21 44.3915,44.71 45.5,45.5C 45.5,45.8333 45.5,46.1667 45.5,46.5C 43.6331,46.3659 41.6331,46.6992 39.5,47.5C 38.3527,47.8178 37.5194,48.4844 37,49.5C 36.4712,47.4153 36.9712,45.582 38.5,44C 37.5175,41.8504 36.1842,40.0171 34.5,38.5C 34.5,38.1667 34.5,37.8333 34.5,37.5 Z"/></g>
<g><path style="opacity:1" fill="#9f8d5c" d="M 56.5,37.5 C 57.5,37.5 58.5,37.5 59.5,37.5C 59.5,37.8333 59.5,38.1667 59.5,38.5C 55.0281,40.5151 54.3614,43.5151 57.5,47.5C 55.9147,48.4737 54.9147,49.9737 54.5,52C 56.1922,53.4007 56.8588,55.2341 56.5,57.5C 55.3117,58.3636 54.1451,59.3636 53,60.5C 52.2828,59.9558 51.7828,59.2891 51.5,58.5C 51.5,56.5 51.5,54.5 51.5,52.5C 50.0222,52.762 48.6888,52.4287 47.5,51.5C 49.223,49.1324 49.8897,46.4658 49.5,43.5C 50.5,43.5 51.5,43.5 52.5,43.5C 52.3342,48.1785 52.5008,52.8452 53,57.5C 53.1667,54.6667 53.3333,51.8333 53.5,49C 53.4809,45.7485 52.8142,42.9151 51.5,40.5C 52.6697,38.7215 54.3364,37.7215 56.5,37.5 Z"/></g>
<g><path style="opacity:1" fill="#5d4d27" d="M 51.5,40.5 C 52.8142,42.9151 53.4809,45.7485 53.5,49C 53.3333,51.8333 53.1667,54.6667 53,57.5C 52.5008,52.8452 52.3342,48.1785 52.5,43.5C 51.5,43.5 50.5,43.5 49.5,43.5C 49.5,42.8333 49.5,42.1667 49.5,41.5C 50.4916,41.6716 51.1583,41.3382 51.5,40.5 Z"/></g>
<g><path style="opacity:1" fill="#c8beae" d="M 85.5,48.5 C 86.172,49.2674 87.0053,49.9341 88,50.5C 89.0153,54.4402 89.5153,58.4402 89.5,62.5C 88.596,63.209 88.2627,64.209 88.5,65.5C 86.8333,65.5 85.1667,65.5 83.5,65.5C 84.984,64.5267 85.484,63.1933 85,61.5C 82.1913,59.8585 80.358,57.5252 79.5,54.5C 78.5,49.5 80.5,47.5 85.5,48.5 Z"/></g>
<g><path style="opacity:1" fill="#8f7c5e" d="M 34.5,38.5 C 36.1842,40.0171 37.5175,41.8504 38.5,44C 36.9712,45.582 36.4712,47.4153 37,49.5C 37.5194,48.4844 38.3527,47.8178 39.5,47.5C 41.6331,46.6992 43.6331,46.3659 45.5,46.5C 43.2265,50.1362 41.8932,54.1362 41.5,58.5C 40.391,58.5569 39.391,58.8902 38.5,59.5C 41.6253,51.7834 40.6253,50.6167 35.5,56C 36.056,56.3826 36.3893,56.8826 36.5,57.5C 35.8333,57.5 35.1667,57.5 34.5,57.5C 34.0269,56.0937 33.0269,55.427 31.5,55.5C 30.4479,53.744 28.7812,53.0773 26.5,53.5C 26.5,52.8333 26.5,52.1667 26.5,51.5C 26.5,50.8333 26.5,50.1667 26.5,49.5C 27.7734,46.2653 29.1068,42.932 30.5,39.5C 31.7276,37.8241 33.0609,37.4908 34.5,38.5 Z"/></g>
<g><path style="opacity:1" fill="#d8be73" d="M 57.5,47.5 C 58.1667,47.5 58.8333,47.5 59.5,47.5C 59.1432,49.8558 59.1432,52.3558 59.5,55C 59.2517,56.7491 58.2517,57.5824 56.5,57.5C 56.8588,55.2341 56.1922,53.4007 54.5,52C 54.9147,49.9737 55.9147,48.4737 57.5,47.5 Z"/></g>
<g><path style="opacity:1" fill="#2f2d2a" d="M 86.5,43.5 C 87.8333,43.5 89.1667,43.5 90.5,43.5C 90.2053,45.7354 90.5386,47.7354 91.5,49.5C 92.7216,58.1499 93.0549,66.8165 92.5,75.5C 92.1667,75.5 91.8333,75.5 91.5,75.5C 88.075,75.6332 87.7417,74.9665 90.5,73.5C 91.1471,72.7261 91.4805,71.7261 91.5,70.5C 91.032,67.7666 90.3653,65.1 89.5,62.5C 89.5153,58.4402 89.0153,54.4402 88,50.5C 87.0053,49.9341 86.172,49.2674 85.5,48.5C 86.3984,47.8423 87.3984,47.1757 88.5,46.5C 87.7573,45.8182 87.0906,45.1515 86.5,44.5C 86.5,44.1667 86.5,43.8333 86.5,43.5 Z"/></g>
<g><path style="opacity:1" fill="#5990a2" d="M 16.5,50.5 C 17.1667,50.5 17.8333,50.5 18.5,50.5C 19.9187,51.4511 21.5853,51.7845 23.5,51.5C 23.5,52.1667 23.5,52.8333 23.5,53.5C 21.5,53.5 19.5,53.5 17.5,53.5C 17.3359,56.1873 17.5026,58.854 18,61.5C 19.6995,62.4061 21.5328,62.7394 23.5,62.5C 23.631,63.2389 23.4643,63.9056 23,64.5C 21.6976,65.0848 20.531,65.7515 19.5,66.5C 18.0688,65.0975 16.9022,63.4308 16,61.5C 15.5499,57.8125 15.7166,54.1458 16.5,50.5 Z"/></g>
<g><path style="opacity:1" fill="#6697b6" d="M 26.5,53.5 C 28.7812,53.0773 30.4479,53.744 31.5,55.5C 30.7848,57.5596 29.4514,59.2263 27.5,60.5C 26.5258,58.2573 26.1924,55.924 26.5,53.5 Z"/></g>
<g><path style="opacity:1" fill="#35aad7" d="M 23.5,53.5 C 24.7752,56.3962 24.7752,59.3962 23.5,62.5C 21.5328,62.7394 19.6995,62.4061 18,61.5C 17.5026,58.854 17.3359,56.1873 17.5,53.5C 19.5,53.5 21.5,53.5 23.5,53.5 Z"/></g>
<g><path style="opacity:1" fill="#575045" d="M 86.5,44.5 C 87.0906,45.1515 87.7573,45.8182 88.5,46.5C 87.3984,47.1757 86.3984,47.8423 85.5,48.5C 80.5,47.5 78.5,49.5 79.5,54.5C 78.8365,52.9581 78.1698,51.2914 77.5,49.5C 76.6143,50.325 76.281,51.325 76.5,52.5C 75.5269,54.9479 75.1936,57.6146 75.5,60.5C 74.6963,58.8113 73.6963,57.1446 72.5,55.5C 70.8983,56.55 70.065,55.8833 70,53.5C 70.808,58.4051 71.308,63.4051 71.5,68.5C 70.3774,69.7574 69.7107,69.4241 69.5,67.5C 69.2436,65.2075 69.5769,63.0408 70.5,61C 69.4232,60.5304 68.4232,60.6971 67.5,61.5C 67.7776,58.7097 67.1109,56.2097 65.5,54C 65.9444,52.2382 66.4444,52.4049 67,54.5C 67.7581,52.2305 67.5914,50.0639 66.5,48C 67.305,46.8873 67.9717,45.7206 68.5,44.5C 69.4972,44.4701 70.1639,44.9701 70.5,46C 70.3893,47.7215 69.8893,47.8882 69,46.5C 68.3333,47.5 68.3333,48.5 69,49.5C 70,49.8333 71,50.1667 72,50.5C 72.6667,47.8333 73.3333,47.8333 74,50.5C 74.2735,48.6711 75.1068,47.1711 76.5,46C 79.133,46.2532 81.7996,46.2532 84.5,46C 83.376,45.7508 82.376,45.2508 81.5,44.5C 82,44.1667 82.5,43.8333 83,43.5C 84.1385,43.9891 85.3052,44.3225 86.5,44.5 Z"/></g>
<g><path style="opacity:1" fill="#dabf6c" d="M 49.5,43.5 C 49.8897,46.4658 49.223,49.1324 47.5,51.5C 48.6888,52.4287 50.0222,52.762 51.5,52.5C 51.5,54.5 51.5,56.5 51.5,58.5C 50.0331,57.7084 48.6998,57.7084 47.5,58.5C 48.325,59.3857 49.325,59.719 50.5,59.5C 50.7678,61.099 50.4345,62.4324 49.5,63.5C 45.2754,64.2686 42.6087,62.6019 41.5,58.5C 41.8932,54.1362 43.2265,50.1362 45.5,46.5C 45.5,46.1667 45.5,45.8333 45.5,45.5C 46.6049,44.3995 47.9382,43.7329 49.5,43.5 Z"/></g>
<g><path style="opacity:1" fill="#857b70" d="M 79.5,54.5 C 80.358,57.5252 82.1913,59.8585 85,61.5C 85.484,63.1933 84.984,64.5267 83.5,65.5C 82.8333,65.5 82.5,65.1667 82.5,64.5C 81.713,62.8958 80.3797,62.2291 78.5,62.5C 77.8333,59.1667 77.1667,55.8333 76.5,52.5C 76.281,51.325 76.6143,50.325 77.5,49.5C 78.1698,51.2914 78.8365,52.9581 79.5,54.5 Z"/></g>
<g><path style="opacity:1" fill="#706953" d="M 83.5,51.5 C 84.5,51.5 85.5,51.5 86.5,51.5C 86.6321,54.8895 86.7988,58.2228 87,61.5C 84.4157,58.6644 83.2491,55.3311 83.5,51.5 Z"/></g>
<g><path style="opacity:1" fill="#223546" d="M 23.5,51.5 C 23.8333,51.5 24.1667,51.5 24.5,51.5C 25.1667,51.5 25.8333,51.5 26.5,51.5C 26.5,52.1667 26.5,52.8333 26.5,53.5C 26.1924,55.924 26.5258,58.2573 27.5,60.5C 29.4514,59.2263 30.7848,57.5596 31.5,55.5C 33.0269,55.427 34.0269,56.0937 34.5,57.5C 31.6333,59.7703 28.9666,62.2703 26.5,65C 24.7262,65.9704 22.8928,66.8037 21,67.5C 20.2352,67.4301 19.7352,67.0967 19.5,66.5C 20.531,65.7515 21.6976,65.0848 23,64.5C 23.4643,63.9056 23.631,63.2389 23.5,62.5C 24.7752,59.3962 24.7752,56.3962 23.5,53.5C 23.5,52.8333 23.5,52.1667 23.5,51.5 Z"/></g>
<g><path style="opacity:1" fill="#cea576" d="M 41.5,58.5 C 42.6087,62.6019 45.2754,64.2686 49.5,63.5C 49.5,64.1667 49.5,64.8333 49.5,65.5C 46.1667,65.1667 42.8333,64.8333 39.5,64.5C 39.3713,62.7839 39.038,61.1172 38.5,59.5C 39.391,58.8902 40.391,58.5569 41.5,58.5 Z"/></g>
<g><path style="opacity:1" fill="#8d8372" d="M 68.5,44.5 C 67.9717,45.7206 67.305,46.8873 66.5,48C 67.5914,50.0639 67.7581,52.2305 67,54.5C 66.4444,52.4049 65.9444,52.2382 65.5,54C 67.1109,56.2097 67.7776,58.7097 67.5,61.5C 66.3855,64.1771 66.3855,66.8438 67.5,69.5C 68.1818,68.7573 68.8485,68.0906 69.5,67.5C 69.7107,69.4241 70.3774,69.7574 71.5,68.5C 72.8333,68.5 74.1667,68.5 75.5,68.5C 75.2627,67.209 75.596,66.209 76.5,65.5C 76.5,67.5 76.5,69.5 76.5,71.5C 75.1667,71.5 73.8333,71.5 72.5,71.5C 72.5,72.8333 72.5,74.1667 72.5,75.5C 71.71,74.3915 71.21,73.0581 71,71.5C 70.7679,72.7375 70.2679,73.7375 69.5,74.5C 69.631,73.7611 69.4643,73.0944 69,72.5C 66.6252,73.129 64.4586,74.129 62.5,75.5C 61.791,74.596 60.791,74.2627 59.5,74.5C 59.9902,69.4932 59.1568,68.8265 57,72.5C 57.1282,70.555 56.9615,68.7216 56.5,67C 54.5273,66.5045 52.5273,66.3379 50.5,66.5C 50.5,65.8333 50.1667,65.5 49.5,65.5C 49.5,64.8333 49.5,64.1667 49.5,63.5C 50.4345,62.4324 50.7678,61.099 50.5,59.5C 49.325,59.719 48.325,59.3857 47.5,58.5C 48.6998,57.7084 50.0331,57.7084 51.5,58.5C 51.7828,59.2891 52.2828,59.9558 53,60.5C 54.1451,59.3636 55.3117,58.3636 56.5,57.5C 58.2517,57.5824 59.2517,56.7491 59.5,55C 59.1432,52.3558 59.1432,49.8558 59.5,47.5C 59.8333,46.8333 60.1667,46.1667 60.5,45.5C 61.675,45.281 62.675,45.6143 63.5,46.5C 62.5721,47.7678 62.4054,49.1011 63,50.5C 64.2692,49.0953 64.7692,47.4286 64.5,45.5C 65.8342,43.841 67.5008,42.5076 69.5,41.5C 69.8333,41.8333 70.1667,42.1667 70.5,42.5C 69.7573,43.1818 69.0906,43.8485 68.5,44.5 Z"/></g>
<g><path style="opacity:1" fill="#cdcabd" d="M 75.5,60.5 C 76.4511,61.9187 76.7845,63.5853 76.5,65.5C 75.596,66.209 75.2627,67.209 75.5,68.5C 74.1667,68.5 72.8333,68.5 71.5,68.5C 71.308,63.4051 70.808,58.4051 70,53.5C 70.065,55.8833 70.8983,56.55 72.5,55.5C 73.6963,57.1446 74.6963,58.8113 75.5,60.5 Z"/></g>
<g><path style="opacity:1" fill="#382922" d="M 38.5,59.5 C 39.038,61.1172 39.3713,62.7839 39.5,64.5C 39.0744,66.2849 37.9078,67.2849 36,67.5C 33.7298,66.1401 31.2298,65.4734 28.5,65.5C 28.6107,64.8826 28.944,64.3826 29.5,64C 31.8098,63.5034 34.1432,63.3367 36.5,63.5C 36.5,61.5 36.5,59.5 36.5,57.5C 36.3893,56.8826 36.056,56.3826 35.5,56C 40.6253,50.6167 41.6253,51.7834 38.5,59.5 Z"/></g>
<g><path style="opacity:1" fill="#56514f" d="M 82.5,64.5 C 82.5,65.1667 82.8333,65.5 83.5,65.5C 83.2796,68.4005 83.9462,71.0671 85.5,73.5C 86.1667,72.1667 86.8333,70.8333 87.5,69.5C 88.5207,70.9014 89.5207,72.2347 90.5,73.5C 87.7417,74.9665 88.075,75.6332 91.5,75.5C 88.7131,76.4767 85.7131,76.81 82.5,76.5C 82.3256,73.1262 81.8256,69.7928 81,66.5C 79.5187,67.4709 78.6854,68.8042 78.5,70.5C 77.5386,68.7354 77.2053,66.7354 77.5,64.5C 79.1667,64.5 80.8333,64.5 82.5,64.5 Z"/></g>
<g><path style="opacity:1" fill="#978f87" d="M 89.5,62.5 C 90.3653,65.1 91.032,67.7666 91.5,70.5C 91.4805,71.7261 91.1471,72.7261 90.5,73.5C 89.5207,72.2347 88.5207,70.9014 87.5,69.5C 86.8333,70.8333 86.1667,72.1667 85.5,73.5C 83.9462,71.0671 83.2796,68.4005 83.5,65.5C 85.1667,65.5 86.8333,65.5 88.5,65.5C 88.2627,64.209 88.596,63.209 89.5,62.5 Z"/></g>
<g><path style="opacity:1" fill="#5f3a36" d="M 39.5,64.5 C 42.8333,64.8333 46.1667,65.1667 49.5,65.5C 50.1667,65.5 50.5,65.8333 50.5,66.5C 49.448,66.3505 48.448,66.5172 47.5,67C 49.1667,67.3333 50.8333,67.6667 52.5,68C 50.6183,68.1981 48.9516,68.6981 47.5,69.5C 43.7806,68.6406 40.1139,68.6406 36.5,69.5C 36.1034,68.475 35.4368,68.3083 34.5,69C 33.7171,71.1184 32.3838,72.6184 30.5,73.5C 29.1667,73.5 28.5,72.8333 28.5,71.5C 28.2969,69.9557 27.6302,68.6223 26.5,67.5C 26.8555,66.4777 27.5222,65.811 28.5,65.5C 31.2298,65.4734 33.7298,66.1401 36,67.5C 37.9078,67.2849 39.0744,66.2849 39.5,64.5 Z"/></g>
<g><path style="opacity:1" fill="#d5cfc3" d="M 69.5,67.5 C 68.8485,68.0906 68.1818,68.7573 67.5,69.5C 66.3855,66.8438 66.3855,64.1771 67.5,61.5C 68.4232,60.6971 69.4232,60.5304 70.5,61C 69.5769,63.0408 69.2436,65.2075 69.5,67.5 Z"/></g>
<g><path style="opacity:1" fill="#518263" d="M 47.5,69.5 C 49.5138,69.3915 51.1805,70.0582 52.5,71.5C 52.8333,75.8333 50.8333,77.8333 46.5,77.5C 45.6618,77.8417 45.3284,78.5084 45.5,79.5C 44.1667,79.8333 42.8333,80.1667 41.5,80.5C 43.265,76.7569 46.265,75.0902 50.5,75.5C 50.5,74.1667 50.5,72.8333 50.5,71.5C 45.9014,71.8 41.4014,71.4667 37,70.5C 36.2917,71.3805 35.4584,72.0472 34.5,72.5C 34.427,70.9731 35.0937,69.9731 36.5,69.5C 40.1139,68.6406 43.7806,68.6406 47.5,69.5 Z"/></g>
<g><path style="opacity:1" fill="#38a46f" d="M 41.5,80.5 C 41.9231,83.2882 40.9231,85.2882 38.5,86.5C 38.1182,82.732 36.4515,79.732 33.5,77.5C 34.6527,76.3132 34.6527,75.3132 33.5,74.5C 33.3284,73.5084 33.6618,72.8417 34.5,72.5C 35.4584,72.0472 36.2917,71.3805 37,70.5C 41.4014,71.4667 45.9014,71.8 50.5,71.5C 50.5,72.8333 50.5,74.1667 50.5,75.5C 46.265,75.0902 43.265,76.7569 41.5,80.5 Z"/></g>
<g><path style="opacity:1" fill="#d2cbbe" d="M 76.5,71.5 C 76.5,72.8333 76.5,74.1667 76.5,75.5C 74.9635,78.2639 73.9635,81.9306 73.5,86.5C 72.5108,82.8927 72.1774,79.226 72.5,75.5C 72.5,74.1667 72.5,72.8333 72.5,71.5C 73.8333,71.5 75.1667,71.5 76.5,71.5 Z"/></g>
<g><path style="opacity:1" fill="#c4c2c3" d="M 91.5,75.5 C 91.8333,75.5 92.1667,75.5 92.5,75.5C 91.1286,76.7868 89.2953,77.4535 87,77.5C 84.6977,77.3996 82.6977,76.733 81,75.5C 80.5045,77.4727 80.3379,79.4727 80.5,81.5C 80.1667,81.5 79.8333,81.5 79.5,81.5C 79.4476,77.8019 79.1143,74.1352 78.5,70.5C 78.6854,68.8042 79.5187,67.4709 81,66.5C 81.8256,69.7928 82.3256,73.1262 82.5,76.5C 85.7131,76.81 88.7131,76.4767 91.5,75.5 Z"/></g>
<g><path style="opacity:1" fill="#6e5257" d="M 28.5,71.5 C 28.5,72.8333 29.1667,73.5 30.5,73.5C 30.3893,74.1174 30.056,74.6174 29.5,75C 24.1343,75.3227 18.8009,75.8227 13.5,76.5C 13.5,74.8333 13.5,73.1667 13.5,71.5C 18.6097,71.8553 23.6097,71.8553 28.5,71.5 Z"/></g>
<g><path style="opacity:1" fill="#181913" d="M 55.5,80.5 C 55.5,80.8333 55.5,81.1667 55.5,81.5C 53.8333,81.5 52.1667,81.5 50.5,81.5C 50.4021,83.5529 51.0687,85.2196 52.5,86.5C 52.5,87.5 52.5,88.5 52.5,89.5C 50.8333,89.5 49.1667,89.5 47.5,89.5C 48.1667,88.5 48.8333,87.5 49.5,86.5C 50.0762,82.8875 49.0762,79.8875 46.5,77.5C 50.8333,77.8333 52.8333,75.8333 52.5,71.5C 53.209,70.596 54.209,70.2627 55.5,70.5C 55.9819,73.9458 55.9819,77.2791 55.5,80.5 Z"/></g>
<g><path style="opacity:1" fill="#fbfbfb" d="M 87.5,108.5 C 85.5919,105.72 83.4252,103.053 81,100.5C 81.6683,94.1459 81.5016,87.8126 80.5,81.5C 80.3379,79.4727 80.5045,77.4727 81,75.5C 82.6977,76.733 84.6977,77.3996 87,77.5C 89.2953,77.4535 91.1286,76.7868 92.5,75.5C 93.9663,74.653 94.7996,73.3197 95,71.5C 95.2139,76.8854 95.7139,82.2187 96.5,87.5C 96.1164,95.3174 95.9498,103.317 96,111.5C 95.1779,113.788 94.5112,116.122 94,118.5C 92.977,117.4 92.477,116.067 92.5,114.5C 93.3329,112.5 93.1662,110.834 92,109.5C 91.6667,110.833 91.3333,112.167 91,113.5C 90.7805,111.027 89.6138,109.36 87.5,108.5 Z"/></g>
<g><path style="opacity:1" fill="#56413a" d="M 50.5,66.5 C 52.5273,66.3379 54.5273,66.5045 56.5,67C 56.9615,68.7216 57.1282,70.555 57,72.5C 59.1568,68.8265 59.9902,69.4932 59.5,74.5C 60.791,74.2627 61.791,74.596 62.5,75.5C 61.6935,81.2074 62.5268,81.5408 65,76.5C 65.1816,79.2263 65.6816,81.8929 66.5,84.5C 69.0384,81.6906 70.0384,78.3573 69.5,74.5C 70.2679,73.7375 70.7679,72.7375 71,71.5C 71.21,73.0581 71.71,74.3915 72.5,75.5C 72.1774,79.226 72.5108,82.8927 73.5,86.5C 73.9635,81.9306 74.9635,78.2639 76.5,75.5C 77.2175,79.9886 77.2175,84.4886 76.5,89C 75.051,90.1022 73.7177,91.2689 72.5,92.5C 72.3508,88.8767 71.1842,88.5434 69,91.5C 67.4228,90.4485 65.9228,89.4485 64.5,88.5C 62.1353,86.2843 60.3019,83.6176 59,80.5C 58.0138,81.1712 56.8471,81.1712 55.5,80.5C 55.9819,77.2791 55.9819,73.9458 55.5,70.5C 54.209,70.2627 53.209,70.596 52.5,71.5C 51.1805,70.0582 49.5138,69.3915 47.5,69.5C 48.9516,68.6981 50.6183,68.1981 52.5,68C 50.8333,67.6667 49.1667,67.3333 47.5,67C 48.448,66.5172 49.448,66.3505 50.5,66.5 Z"/></g>
<g><path style="opacity:1" fill="#d5c6bd" d="M 69.5,74.5 C 70.0384,78.3573 69.0384,81.6906 66.5,84.5C 65.6816,81.8929 65.1816,79.2263 65,76.5C 62.5268,81.5408 61.6935,81.2074 62.5,75.5C 64.4586,74.129 66.6252,73.129 69,72.5C 69.4643,73.0944 69.631,73.7611 69.5,74.5 Z"/></g>
<g><path style="opacity:1" fill="#133a21" d="M 46.5,77.5 C 49.0762,79.8875 50.0762,82.8875 49.5,86.5C 47.437,84.551 46.1036,82.2177 45.5,79.5C 45.3284,78.5084 45.6618,77.8417 46.5,77.5 Z"/></g>
<g><path style="opacity:1" fill="#534839" d="M 55.5,81.5 C 57.1219,86.0435 59.1219,90.3769 61.5,94.5C 60.9522,96.5323 59.6188,97.5323 57.5,97.5C 57.5,98.8333 57.5,100.167 57.5,101.5C 56.8476,100.551 56.5143,99.3847 56.5,98C 56.6752,96.3419 57.3418,95.0086 58.5,94C 57.5842,93.7216 56.9175,93.2216 56.5,92.5C 57.0967,92.2648 57.4301,91.7648 57.5,91C 56.6831,89.51 55.8498,88.01 55,86.5C 54.0228,85.2264 53.1894,85.2264 52.5,86.5C 51.0687,85.2196 50.4021,83.5529 50.5,81.5C 52.1667,81.5 53.8333,81.5 55.5,81.5 Z"/></g>
<g><path style="opacity:1" fill="#50402c" d="M 29.5,77.5 C 30.0431,77.56 30.3764,77.8933 30.5,78.5C 26.847,84.3956 26.6803,90.3956 30,96.5C 32.7372,97.6105 35.5706,97.7772 38.5,97C 37.3313,94.9935 36.6646,92.8268 36.5,90.5C 36.369,89.7611 36.5357,89.0944 37,88.5C 37.9811,92.2745 40.1478,93.2745 43.5,91.5C 43.1667,92.5 42.5,93.1667 41.5,93.5C 40.2584,95.3888 40.2584,97.3888 41.5,99.5C 37.0887,99.979 32.922,99.3124 29,97.5C 24.9913,91.9949 23.8246,85.9949 25.5,79.5C 26.6715,78.6554 28.0048,77.9887 29.5,77.5 Z"/></g>
<g><path style="opacity:1" fill="#decb86" d="M 29.5,77.5 C 30.209,76.596 31.209,76.2627 32.5,76.5C 32.9229,81.5401 34.2562,86.2068 36.5,90.5C 36.6646,92.8268 37.3313,94.9935 38.5,97C 35.5706,97.7772 32.7372,97.6105 30,96.5C 26.6803,90.3956 26.847,84.3956 30.5,78.5C 30.3764,77.8933 30.0431,77.56 29.5,77.5 Z"/></g>
<g><path style="opacity:1" fill="#f3cf59" d="M 30.5,84.5 C 32.0672,85.6808 32.9005,87.3474 33,89.5C 33.8077,91.5787 33.641,93.5787 32.5,95.5C 29.5748,92.2855 28.9081,88.6188 30.5,84.5 Z"/></g>
<g><path style="opacity:1" fill="#49956d" d="M 33.5,74.5 C 34.6527,75.3132 34.6527,76.3132 33.5,77.5C 36.4515,79.732 38.1182,82.732 38.5,86.5C 40.9231,85.2882 41.9231,83.2882 41.5,80.5C 42.8333,80.1667 44.1667,79.8333 45.5,79.5C 46.1036,82.2177 47.437,84.551 49.5,86.5C 48.8333,87.5 48.1667,88.5 47.5,89.5C 45.9731,89.427 44.9731,90.0937 44.5,91.5C 44.1667,91.5 43.8333,91.5 43.5,91.5C 40.1478,93.2745 37.9811,92.2745 37,88.5C 36.5357,89.0944 36.369,89.7611 36.5,90.5C 34.2562,86.2068 32.9229,81.5401 32.5,76.5C 32.8333,75.8333 33.1667,75.1667 33.5,74.5 Z"/></g>
<g><path style="opacity:1" fill="#a38968" d="M 55.5,80.5 C 56.8471,81.1712 58.0138,81.1712 59,80.5C 60.3019,83.6176 62.1353,86.2843 64.5,88.5C 62.2417,88.7751 61.9084,89.7751 63.5,91.5C 63.0576,92.7387 62.3909,93.7387 61.5,94.5C 59.1219,90.3769 57.1219,86.0435 55.5,81.5C 55.5,81.1667 55.5,80.8333 55.5,80.5 Z"/></g>
<g><path style="opacity:1" fill="#b6b89d" d="M 56.5,92.5 C 54.5695,92.2294 53.2362,91.2294 52.5,89.5C 52.5,88.5 52.5,87.5 52.5,86.5C 53.1894,85.2264 54.0228,85.2264 55,86.5C 55.8498,88.01 56.6831,89.51 57.5,91C 57.4301,91.7648 57.0967,92.2648 56.5,92.5 Z"/></g>
<g><path style="opacity:1" fill="#3e2e2e" d="M 76.5,52.5 C 77.1667,55.8333 77.8333,59.1667 78.5,62.5C 80.3797,62.2291 81.713,62.8958 82.5,64.5C 80.8333,64.5 79.1667,64.5 77.5,64.5C 77.2053,66.7354 77.5386,68.7354 78.5,70.5C 79.1143,74.1352 79.4476,77.8019 79.5,81.5C 81.3527,89.5171 80.3527,97.0171 76.5,104C 76.8361,105.03 77.5028,105.53 78.5,105.5C 79.1667,106.5 79.8333,107.5 80.5,108.5C 80.631,109.239 80.4643,109.906 80,110.5C 79.3292,109.748 78.4959,109.414 77.5,109.5C 76.0699,107.614 74.4032,105.947 72.5,104.5C 71.5994,102.273 69.9328,101.273 67.5,101.5C 67.238,100.022 67.5713,98.6888 68.5,97.5C 69.6888,95.6366 71.0221,93.9699 72.5,92.5C 73.7177,91.2689 75.051,90.1022 76.5,89C 77.2175,84.4886 77.2175,79.9886 76.5,75.5C 76.5,74.1667 76.5,72.8333 76.5,71.5C 76.5,69.5 76.5,67.5 76.5,65.5C 76.7845,63.5853 76.4511,61.9187 75.5,60.5C 75.1936,57.6146 75.5269,54.9479 76.5,52.5 Z"/></g>
<g><path style="opacity:1" fill="#ce4d5d" d="M 43.5,91.5 C 43.8333,91.5 44.1667,91.5 44.5,91.5C 45.1667,91.5 45.8333,91.5 46.5,91.5C 51.016,91.4807 53.016,93.814 52.5,98.5C 53.4731,100.948 53.8064,103.615 53.5,106.5C 52.8333,106.833 52.1667,107.167 51.5,107.5C 50.1667,107.5 48.8333,107.5 47.5,107.5C 47.5,107.167 47.5,106.833 47.5,106.5C 45.237,102.306 43.237,97.9729 41.5,93.5C 42.5,93.1667 43.1667,92.5 43.5,91.5 Z"/></g>
<g><path style="opacity:1" fill="#e84055" d="M 52.5,98.5 C 52.5,100.5 52.5,102.5 52.5,104.5C 51.0222,104.762 49.6888,104.429 48.5,103.5C 46.5592,101.166 44.8925,98.6659 43.5,96C 45.3211,93.8634 47.6544,93.0301 50.5,93.5C 50.1201,95.698 50.7868,97.3646 52.5,98.5 Z"/></g>
<g><path style="opacity:1" fill="#461f1e" d="M 47.5,89.5 C 49.1667,89.5 50.8333,89.5 52.5,89.5C 53.2362,91.2294 54.5695,92.2294 56.5,92.5C 56.9175,93.2216 57.5842,93.7216 58.5,94C 57.3418,95.0086 56.6752,96.3419 56.5,98C 56.5143,99.3847 56.8476,100.551 57.5,101.5C 57.5,102.5 57.5,103.5 57.5,104.5C 56.8423,105.398 56.1757,106.398 55.5,107.5C 54.0052,108.705 52.6719,108.705 51.5,107.5C 52.1667,107.167 52.8333,106.833 53.5,106.5C 54.7479,105.666 55.4146,104.333 55.5,102.5C 55.1818,99.0439 54.3484,95.7106 53,92.5C 50.9836,90.3918 48.8169,90.0584 46.5,91.5C 45.8333,91.5 45.1667,91.5 44.5,91.5C 44.9731,90.0937 45.9731,89.427 47.5,89.5 Z"/></g>
<g><path style="opacity:1" fill="#a59596" d="M 74.5,93.5 C 75.8333,93.5 77.1667,93.5 78.5,93.5C 78.7551,96.9373 77.5884,99.6039 75,101.5C 74.5,101.167 74,100.833 73.5,100.5C 74.3742,98.2534 74.7076,95.9201 74.5,93.5 Z"/></g>
<g><path style="opacity:1" fill="#7f7566" d="M 25.5,79.5 C 23.8246,85.9949 24.9913,91.9949 29,97.5C 32.922,99.3124 37.0887,99.979 41.5,99.5C 42.6737,100.514 43.3404,101.847 43.5,103.5C 40.6757,103.892 37.6757,103.892 34.5,103.5C 34.5,102.5 34.5,101.5 34.5,100.5C 32.2188,100.077 30.5521,100.744 29.5,102.5C 29.1667,102.5 28.8333,102.5 28.5,102.5C 28.001,99.6108 26.501,98.9442 24,100.5C 23.3551,99.354 22.5217,98.354 21.5,97.5C 23.1411,92.6818 24.1411,87.6818 24.5,82.5C 24,82.1667 23.5,81.8333 23,81.5C 18.0067,84.3327 13.84,87.9994 10.5,92.5C 7.94414,96.3504 6.44414,100.684 6,105.5C 5.50649,103.866 5.33982,102.199 5.5,100.5C 5.87886,96.9855 6.87886,93.6521 8.5,90.5C 13.4667,85.4923 19.1334,81.8257 25.5,79.5 Z"/></g>
<g><path style="opacity:1" fill="#4a463f" d="M 10.5,92.5 C 10.5,93.8333 10.5,95.1667 10.5,96.5C 9.6829,98.9686 9.1829,101.635 9,104.5C 8.66667,103.5 8.33333,102.5 8,101.5C 7.2585,104.562 7.42517,107.562 8.5,110.5C 7.57537,111.562 6.57537,111.562 5.5,110.5C 4.40951,107.015 4.40951,103.681 5.5,100.5C 5.33982,102.199 5.50649,103.866 6,105.5C 6.44414,100.684 7.94414,96.3504 10.5,92.5 Z"/></g>
<g><path style="opacity:1" fill="#90363e" d="M 46.5,91.5 C 48.8169,90.0584 50.9836,90.3918 53,92.5C 54.3484,95.7106 55.1818,99.0439 55.5,102.5C 55.4146,104.333 54.7479,105.666 53.5,106.5C 53.8064,103.615 53.4731,100.948 52.5,98.5C 53.016,93.814 51.016,91.4807 46.5,91.5 Z"/></g>
<g><path style="opacity:1" fill="#918e8d" d="M 79.5,81.5 C 79.8333,81.5 80.1667,81.5 80.5,81.5C 81.5016,87.8126 81.6683,94.1459 81,100.5C 83.4252,103.053 85.5919,105.72 87.5,108.5C 88.1667,109.833 88.8333,111.167 89.5,112.5C 88.8333,113.5 88.1667,114.5 87.5,115.5C 86.5299,110.181 83.8632,105.848 79.5,102.5C 78.6143,103.325 78.281,104.325 78.5,105.5C 77.5028,105.53 76.8361,105.03 76.5,104C 80.3527,97.0171 81.3527,89.5171 79.5,81.5 Z"/></g>
<g><path style="opacity:1" fill="#dbcdba" d="M 64.5,88.5 C 65.9228,89.4485 67.4228,90.4485 69,91.5C 71.1842,88.5434 72.3508,88.8767 72.5,92.5C 71.0221,93.9699 69.6888,95.6366 68.5,97.5C 67.5713,98.6888 67.238,100.022 67.5,101.5C 69.9328,101.273 71.5994,102.273 72.5,104.5C 72.2792,107.097 71.7792,107.097 71,104.5C 69.951,106.107 68.451,106.773 66.5,106.5C 66.5,105.5 66.5,104.5 66.5,103.5C 64.857,103.52 63.5237,102.853 62.5,101.5C 61.3081,104.823 59.6415,104.823 57.5,101.5C 57.5,100.167 57.5,98.8333 57.5,97.5C 59.6188,97.5323 60.9522,96.5323 61.5,94.5C 62.3909,93.7387 63.0576,92.7387 63.5,91.5C 61.9084,89.7751 62.2417,88.7751 64.5,88.5 Z"/></g>
<g><path style="opacity:1" fill="#8a4946" d="M 41.5,93.5 C 43.237,97.9729 45.237,102.306 47.5,106.5C 46.8333,106.5 46.1667,106.5 45.5,106.5C 44.4489,105.778 43.7822,104.778 43.5,103.5C 43.3404,101.847 42.6737,100.514 41.5,99.5C 40.2584,97.3888 40.2584,95.3888 41.5,93.5 Z"/></g>
<g><path style="opacity:1" fill="#61594b" d="M 12.5,101.5 C 13.3528,104.59 14.3528,107.59 15.5,110.5C 15.631,111.239 15.4643,111.906 15,112.5C 13.5,108.833 12,105.167 10.5,101.5C 10.9698,100.537 11.6365,100.537 12.5,101.5 Z"/></g>
<g><path style="opacity:1" fill="#979081" d="M 10.5,96.5 C 10.8308,98.3224 11.4975,99.9891 12.5,101.5C 11.6365,100.537 10.9698,100.537 10.5,101.5C 12,105.167 13.5,108.833 15,112.5C 15.4643,111.906 15.631,111.239 15.5,110.5C 16.1239,110.917 16.4573,111.584 16.5,112.5C 14.674,114.349 14.3407,116.349 15.5,118.5C 14.9106,121.64 14.2439,124.64 13.5,127.5C 13.666,122.156 13.4994,116.823 13,111.5C 12,109.5 11,107.5 10,105.5C 9.50137,109.152 9.3347,112.818 9.5,116.5C 8.29764,115.595 6.9643,115.595 5.5,116.5C 5.5,114.5 5.5,112.5 5.5,110.5C 6.57537,111.562 7.57537,111.562 8.5,110.5C 7.42517,107.562 7.2585,104.562 8,101.5C 8.33333,102.5 8.66667,103.5 9,104.5C 9.1829,101.635 9.6829,98.9686 10.5,96.5 Z"/></g>
<g><path style="opacity:1" fill="#181717" d="M 43.5,103.5 C 43.7822,104.778 44.4489,105.778 45.5,106.5C 45.5,107.167 45.1667,107.5 44.5,107.5C 43.0244,109.062 41.5244,110.729 40,112.5C 37.8683,111.22 35.7016,111.22 33.5,112.5C 32.8333,110.5 32.1667,108.5 31.5,106.5C 30.3036,107.559 29.637,108.893 29.5,110.5C 30.8239,111.006 31.4906,112.339 31.5,114.5C 29.6203,114.229 28.287,114.896 27.5,116.5C 27.5,116.833 27.5,117.167 27.5,117.5C 24.2155,118.95 21.7155,121.283 20,124.5C 19.8333,123.333 19.6667,122.167 19.5,121C 20.9111,117.466 22.4111,113.966 24,110.5C 24.3333,110.833 24.6667,111.167 25,111.5C 25.7096,110.027 26.8762,109.36 28.5,109.5C 28.9926,107.194 29.3259,104.861 29.5,102.5C 30.5521,100.744 32.2188,100.077 34.5,100.5C 34.5,101.5 34.5,102.5 34.5,103.5C 37.6757,103.892 40.6757,103.892 43.5,103.5 Z"/></g>
<g><path style="opacity:1" fill="#292828" d="M 44.5,107.5 C 44.9086,110.855 44.2419,113.855 42.5,116.5C 38.7191,120.624 35.7191,125.291 33.5,130.5C 32.6043,131.506 31.9377,131.506 31.5,130.5C 32.4281,126.638 33.9281,122.971 36,119.5C 37.7721,111.497 36.1054,110.497 31,116.5C 30.3923,118.154 29.8923,119.821 29.5,121.5C 28.8333,119.833 28.1667,118.167 27.5,116.5C 28.287,114.896 29.6203,114.229 31.5,114.5C 31.4906,112.339 30.8239,111.006 29.5,110.5C 29.637,108.893 30.3036,107.559 31.5,106.5C 32.1667,108.5 32.8333,110.5 33.5,112.5C 35.7016,111.22 37.8683,111.22 40,112.5C 41.5244,110.729 43.0244,109.062 44.5,107.5 Z"/></g>
<g><path style="opacity:1" fill="#469bbe" d="M 45.5,106.5 C 46.1667,106.5 46.8333,106.5 47.5,106.5C 47.5,106.833 47.5,107.167 47.5,107.5C 49.0913,108.219 50.5913,109.219 52,110.5C 52.1762,114.688 52.6762,118.688 53.5,122.5C 52.6586,124.379 52.3253,126.379 52.5,128.5C 51.5768,127.697 50.5768,127.53 49.5,128C 52.2459,130.646 53.4126,133.812 53,137.5C 51.4229,134.461 48.9229,133.128 45.5,133.5C 45.8432,131.517 45.1765,130.183 43.5,129.5C 44.0418,127.051 44.3751,124.551 44.5,122C 44.4535,119.705 43.7868,117.871 42.5,116.5C 44.2419,113.855 44.9086,110.855 44.5,107.5C 45.1667,107.5 45.5,107.167 45.5,106.5 Z"/></g>
<g><path style="opacity:1" fill="#2a2b2e" d="M 57.5,104.5 C 62.2439,105.361 66.9105,106.861 71.5,109C 73.3115,110.041 73.6448,111.207 72.5,112.5C 68.7602,110.399 64.7602,109.232 60.5,109C 58.5365,113.762 56.2031,118.262 53.5,122.5C 52.6762,118.688 52.1762,114.688 52,110.5C 50.5913,109.219 49.0913,108.219 47.5,107.5C 48.8333,107.5 50.1667,107.5 51.5,107.5C 52.6719,108.705 54.0052,108.705 55.5,107.5C 56.1757,106.398 56.8423,105.398 57.5,104.5 Z"/></g>
<g><path style="opacity:1" fill="#d1cecd" d="M 87.5,115.5 C 86.2051,117.979 85.2051,120.646 84.5,123.5C 85.1157,119.577 85.1157,115.577 84.5,111.5C 83.7377,109.738 82.4044,108.738 80.5,108.5C 79.8333,107.5 79.1667,106.5 78.5,105.5C 78.281,104.325 78.6143,103.325 79.5,102.5C 83.8632,105.848 86.5299,110.181 87.5,115.5 Z"/></g>
<g><path style="opacity:1" fill="#a1a29e" d="M 84.5,111.5 C 85.1157,115.577 85.1157,119.577 84.5,123.5C 83.7627,128.317 81.096,129.65 76.5,127.5C 75.8885,123.941 76.5551,120.607 78.5,117.5C 78.33,118.822 78.6634,119.989 79.5,121C 77.842,121.725 77.342,122.892 78,124.5C 81.6812,121.464 83.5145,117.464 83.5,112.5C 84.1667,112.5 84.5,112.167 84.5,111.5 Z"/></g>
<g><path style="opacity:1" fill="#62635a" d="M 9.5,116.5 C 11.0315,117.971 12.0315,119.804 12.5,122C 12.0566,123.825 11.7233,125.658 11.5,127.5C 11.1667,127.5 10.8333,127.5 10.5,127.5C 8.83153,123.373 7.16486,119.706 5.5,116.5C 6.9643,115.595 8.29764,115.595 9.5,116.5 Z"/></g>
<g><path style="opacity:1" fill="#393729" d="M 13.5,127.5 C 12.8333,127.5 12.1667,127.5 11.5,127.5C 11.7233,125.658 12.0566,123.825 12.5,122C 12.0315,119.804 11.0315,117.971 9.5,116.5C 9.3347,112.818 9.50137,109.152 10,105.5C 11,107.5 12,109.5 13,111.5C 13.4994,116.823 13.666,122.156 13.5,127.5 Z"/></g>
<g><path style="opacity:1" fill="#d0c5b1" d="M 31.5,130.5 C 30.5655,131.568 30.2322,132.901 30.5,134.5C 29.5,134.5 28.5,134.5 27.5,134.5C 27.9088,130.124 28.5755,125.79 29.5,121.5C 29.8923,119.821 30.3923,118.154 31,116.5C 36.1054,110.497 37.7721,111.497 36,119.5C 33.9281,122.971 32.4281,126.638 31.5,130.5 Z"/></g>
<g><path style="opacity:1" fill="#454542" d="M 80.5,108.5 C 82.4044,108.738 83.7377,109.738 84.5,111.5C 84.5,112.167 84.1667,112.5 83.5,112.5C 82.8501,112.196 82.1835,111.863 81.5,111.5C 80.7937,113.704 79.7937,115.704 78.5,117.5C 76.5551,120.607 75.8885,123.941 76.5,127.5C 81.096,129.65 83.7627,128.317 84.5,123.5C 85.2051,120.646 86.2051,117.979 87.5,115.5C 88.1667,114.5 88.8333,113.5 89.5,112.5C 88.2917,117.458 87.2917,122.458 86.5,127.5C 83.0306,130.326 79.0306,131.993 74.5,132.5C 74.6567,131.127 74.49,129.793 74,128.5C 71.7174,131.958 68.5507,133.958 64.5,134.5C 64.2837,132.319 65.117,130.653 67,129.5C 67.3333,130.5 67.6667,131.5 68,132.5C 70.2267,130.393 72.2267,128.06 74,125.5C 75.8931,120.322 77.0598,114.988 77.5,109.5C 78.4959,109.414 79.3292,109.748 80,110.5C 80.4643,109.906 80.631,109.239 80.5,108.5 Z"/></g>
<g><path style="opacity:1" fill="#ececea" d="M 83.5,112.5 C 83.5145,117.464 81.6812,121.464 78,124.5C 77.342,122.892 77.842,121.725 79.5,121C 78.6634,119.989 78.33,118.822 78.5,117.5C 79.7937,115.704 80.7937,113.704 81.5,111.5C 82.1835,111.863 82.8501,112.196 83.5,112.5 Z"/></g>
<g><path style="opacity:1" fill="#f9f9f9" d="M 10.5,127.5 C 10.8333,127.5 11.1667,127.5 11.5,127.5C 11.1706,130.228 11.8372,132.562 13.5,134.5C 15.75,139.229 17.0834,144.229 17.5,149.5C 15.8042,149.315 14.4709,148.481 13.5,147C 11.1902,146.503 8.85684,146.337 6.5,146.5C 6.5,151.833 6.5,157.167 6.5,162.5C 6.5,163.167 6.5,163.833 6.5,164.5C 4.16667,164.5 1.83333,164.5 -0.5,164.5C -0.5,150.167 -0.5,135.833 -0.5,121.5C 0.248534,120.469 0.915201,119.302 1.5,118C 0.423781,116.274 0.257114,114.441 1,112.5C 2.58476,111.624 3.58476,110.291 4,108.5C 4.43331,110.664 3.93331,112.664 2.5,114.5C 2.87481,116.459 3.54148,118.293 4.5,120C 3.42378,121.726 3.25711,123.559 4,125.5C 5.66667,126.833 7.33333,128.167 9,129.5C 9.27842,128.584 9.77842,127.918 10.5,127.5 Z"/></g>
<g><path style="opacity:1" fill="#d6c5ac" d="M 28.5,102.5 C 27.7002,104.741 26.0336,105.741 23.5,105.5C 23.6276,109.636 22.1276,112.969 19,115.5C 18.3893,120.496 17.8893,125.496 17.5,130.5C 14.3841,133.106 13.0508,132.106 13.5,127.5C 14.2439,124.64 14.9106,121.64 15.5,118.5C 14.3407,116.349 14.674,114.349 16.5,112.5C 16.4573,111.584 16.1239,110.917 15.5,110.5C 14.3528,107.59 13.3528,104.59 12.5,101.5C 11.4975,99.9891 10.8308,98.3224 10.5,96.5C 10.5,95.1667 10.5,93.8333 10.5,92.5C 13.84,87.9994 18.0067,84.3327 23,81.5C 23.5,81.8333 24,82.1667 24.5,82.5C 24.1411,87.6818 23.1411,92.6818 21.5,97.5C 22.5217,98.354 23.3551,99.354 24,100.5C 26.501,98.9442 28.001,99.6108 28.5,102.5 Z"/></g>
<g><path style="opacity:1" fill="#5a534c" d="M 28.5,102.5 C 28.8333,102.5 29.1667,102.5 29.5,102.5C 29.3259,104.861 28.9926,107.194 28.5,109.5C 26.8762,109.36 25.7096,110.027 25,111.5C 24.6667,111.167 24.3333,110.833 24,110.5C 22.4111,113.966 20.9111,117.466 19.5,121C 19.6667,122.167 19.8333,123.333 20,124.5C 21.7155,121.283 24.2155,118.95 27.5,117.5C 25.5371,123.352 24.2038,129.352 23.5,135.5C 22.8333,135.833 22.1667,136.167 21.5,136.5C 21.4208,135.07 21.7542,133.736 22.5,132.5C 20.876,131.131 20.376,129.464 21,127.5C 22.5158,130.051 23.3491,129.718 23.5,126.5C 20.0886,125.933 18.0886,127.266 17.5,130.5C 17.8893,125.496 18.3893,120.496 19,115.5C 22.1276,112.969 23.6276,109.636 23.5,105.5C 26.0336,105.741 27.7002,104.741 28.5,102.5 Z"/></g>
<g><path style="opacity:1" fill="#a8a7a2" d="M 57.5,101.5 C 59.6415,104.823 61.3081,104.823 62.5,101.5C 63.5237,102.853 64.857,103.52 66.5,103.5C 66.5,104.5 66.5,105.5 66.5,106.5C 68.451,106.773 69.951,106.107 71,104.5C 71.7792,107.097 72.2792,107.097 72.5,104.5C 74.4032,105.947 76.0699,107.614 77.5,109.5C 77.0598,114.988 75.8931,120.322 74,125.5C 72.2267,128.06 70.2267,130.393 68,132.5C 67.6667,131.5 67.3333,130.5 67,129.5C 65.117,130.653 64.2837,132.319 64.5,134.5C 63.3775,132.712 63.2109,130.712 64,128.5C 70.8226,125.185 73.6559,119.851 72.5,112.5C 73.6448,111.207 73.3115,110.041 71.5,109C 66.9105,106.861 62.2439,105.361 57.5,104.5C 57.5,103.5 57.5,102.5 57.5,101.5 Z"/></g>
<g><path style="opacity:1" fill="#807871" d="M 27.5,116.5 C 28.1667,118.167 28.8333,119.833 29.5,121.5C 28.5755,125.79 27.9088,130.124 27.5,134.5C 28.5,134.5 29.5,134.5 30.5,134.5C 30.2322,132.901 30.5655,131.568 31.5,130.5C 31.9377,131.506 32.6043,131.506 33.5,130.5C 35.3595,137.214 38.0262,143.547 41.5,149.5C 40.8333,149.5 40.1667,149.5 39.5,149.5C 37.4624,144.438 34.629,139.772 31,135.5C 31.3308,137.019 31.1641,138.352 30.5,139.5C 29.145,136.482 26.8116,135.149 23.5,135.5C 24.2038,129.352 25.5371,123.352 27.5,117.5C 27.5,117.167 27.5,116.833 27.5,116.5 Z"/></g>
<g><path style="opacity:1" fill="#7a766c" d="M 21.5,136.5 C 20.4017,137.601 20.235,138.934 21,140.5C 22.4213,142.405 23.588,144.405 24.5,146.5C 24.44,147.043 24.1067,147.376 23.5,147.5C 20.421,144.107 18.5877,140.107 18,135.5C 16.6439,134.62 15.1439,134.286 13.5,134.5C 11.8372,132.562 11.1706,130.228 11.5,127.5C 12.1667,127.5 12.8333,127.5 13.5,127.5C 13.0508,132.106 14.3841,133.106 17.5,130.5C 18.0886,127.266 20.0886,125.933 23.5,126.5C 23.3491,129.718 22.5158,130.051 21,127.5C 20.376,129.464 20.876,131.131 22.5,132.5C 21.7542,133.736 21.4208,135.07 21.5,136.5 Z"/></g>
<g><path style="opacity:1" fill="#f1efee" d="M 23.5,135.5 C 26.8116,135.149 29.145,136.482 30.5,139.5C 31.8008,142.023 32.8008,144.69 33.5,147.5C 31.2573,148.474 28.924,148.808 26.5,148.5C 26.1667,148.5 25.8333,148.5 25.5,148.5C 25.6716,147.508 25.3382,146.842 24.5,146.5C 23.588,144.405 22.4213,142.405 21,140.5C 20.235,138.934 20.4017,137.601 21.5,136.5C 22.1667,136.167 22.8333,135.833 23.5,135.5 Z"/></g>
<g><path style="opacity:1" fill="#57846e" d="M 81.5,135.5 C 82.6124,136.372 83.9458,136.372 85.5,135.5C 89.2842,137.708 91.6175,141.041 92.5,145.5C 91.7573,146.182 91.0906,146.849 90.5,147.5C 90.1667,147.5 89.8333,147.5 89.5,147.5C 89.1667,147.5 88.8333,147.5 88.5,147.5C 88.5774,146.25 89.244,145.417 90.5,145C 88.9544,143.56 88.121,141.727 88,139.5C 85.3759,139.53 82.7092,139.197 80,138.5C 78.8179,140.344 77.6512,142.177 76.5,144C 77.0439,145.585 77.7106,147.085 78.5,148.5C 75.1189,148.54 72.4523,149.873 70.5,152.5C 69.8333,152.167 69.1667,151.833 68.5,151.5C 66.7354,150.539 64.7354,150.205 62.5,150.5C 64.5006,147.157 65.5006,143.49 65.5,139.5C 68.2438,139.248 70.7438,139.915 73,141.5C 76.0495,139.623 78.8829,137.623 81.5,135.5 Z"/></g>
<g><path style="opacity:1" fill="#eff1ef" d="M 72.5,112.5 C 73.6559,119.851 70.8226,125.185 64,128.5C 63.2109,130.712 63.3775,132.712 64.5,134.5C 68.5507,133.958 71.7174,131.958 74,128.5C 74.49,129.793 74.6567,131.127 74.5,132.5C 79.0306,131.993 83.0306,130.326 86.5,127.5C 86.0334,130.297 84.3667,131.631 81.5,131.5C 81.5,132.833 81.5,134.167 81.5,135.5C 78.8829,137.623 76.0495,139.623 73,141.5C 70.7438,139.915 68.2438,139.248 65.5,139.5C 65.5006,143.49 64.5006,147.157 62.5,150.5C 59.9471,151.255 57.2804,151.922 54.5,152.5C 52.6214,152.607 52.2881,152.107 53.5,151C 50.2072,150.174 46.8738,149.674 43.5,149.5C 42.8333,149.5 42.1667,149.5 41.5,149.5C 38.0262,143.547 35.3595,137.214 33.5,130.5C 35.7191,125.291 38.7191,120.624 42.5,116.5C 43.7868,117.871 44.4535,119.705 44.5,122C 44.3751,124.551 44.0418,127.051 43.5,129.5C 40.6722,136.191 43.0055,139.024 50.5,138C 52.8048,141.642 56.1382,143.142 60.5,142.5C 60.6567,141.127 60.49,139.793 60,138.5C 56.7608,135.673 54.2608,132.34 52.5,128.5C 52.3253,126.379 52.6586,124.379 53.5,122.5C 56.2031,118.262 58.5365,113.762 60.5,109C 64.7602,109.232 68.7602,110.399 72.5,112.5 Z"/></g>
<g><path style="opacity:1" fill="#3c4b58" d="M 52.5,128.5 C 54.2608,132.34 56.7608,135.673 60,138.5C 60.49,139.793 60.6567,141.127 60.5,142.5C 56.1382,143.142 52.8048,141.642 50.5,138C 43.0055,139.024 40.6722,136.191 43.5,129.5C 45.1765,130.183 45.8432,131.517 45.5,133.5C 48.9229,133.128 51.4229,134.461 53,137.5C 53.4126,133.812 52.2459,130.646 49.5,128C 50.5768,127.53 51.5768,127.697 52.5,128.5 Z"/></g>
<g><path style="opacity:1" fill="#b2aca1" d="M 13.5,134.5 C 15.1439,134.286 16.6439,134.62 18,135.5C 18.5877,140.107 20.421,144.107 23.5,147.5C 24.1067,147.376 24.44,147.043 24.5,146.5C 25.3382,146.842 25.6716,147.508 25.5,148.5C 24.2209,149.968 22.5542,150.635 20.5,150.5C 20.719,149.325 20.3857,148.325 19.5,147.5C 19.1667,147.833 18.8333,148.167 18.5,148.5C 19.1272,149.417 19.4606,150.417 19.5,151.5C 18.1667,151.5 17.5,150.833 17.5,149.5C 17.0834,144.229 15.75,139.229 13.5,134.5 Z"/></g>
<g><path style="opacity:1" fill="#4ca37f" d="M 67.5,141.5 C 69.7157,142.203 71.549,143.536 73,145.5C 73.6172,146.449 73.4506,147.282 72.5,148C 69.9234,149.25 67.2567,149.584 64.5,149C 66.7593,147.065 67.7593,144.565 67.5,141.5 Z"/></g>
<g><path style="opacity:1" fill="#c3bfb4" d="M 39.5,149.5 C 39.5,150.833 38.8333,151.5 37.5,151.5C 36.8423,150.602 36.1757,149.602 35.5,148.5C 32.8035,149.169 30.1368,149.836 27.5,150.5C 27.1667,149.833 26.8333,149.167 26.5,148.5C 28.924,148.808 31.2573,148.474 33.5,147.5C 32.8008,144.69 31.8008,142.023 30.5,139.5C 31.1641,138.352 31.3308,137.019 31,135.5C 34.629,139.772 37.4624,144.438 39.5,149.5 Z"/></g>
<g><path style="opacity:1" fill="#469c7b" d="M 88.5,147.5 C 85.1197,146.5 81.7863,146.833 78.5,148.5C 77.7106,147.085 77.0439,145.585 76.5,144C 77.6512,142.177 78.8179,140.344 80,138.5C 82.7092,139.197 85.3759,139.53 88,139.5C 88.121,141.727 88.9544,143.56 90.5,145C 89.244,145.417 88.5774,146.25 88.5,147.5 Z"/></g>
<g><path style="opacity:1" fill="#54534b" d="M 25.5,148.5 C 25.8333,148.5 26.1667,148.5 26.5,148.5C 26.8333,149.167 27.1667,149.833 27.5,150.5C 27.5,151.833 27.5,153.167 27.5,154.5C 26.5,154.5 25.5,154.5 24.5,154.5C 24.5,153.5 24.5,152.5 24.5,151.5C 23.5,151.5 22.5,151.5 21.5,151.5C 20.8333,151.5 20.1667,151.5 19.5,151.5C 19.4606,150.417 19.1272,149.417 18.5,148.5C 18.8333,148.167 19.1667,147.833 19.5,147.5C 20.3857,148.325 20.719,149.325 20.5,150.5C 22.5542,150.635 24.2209,149.968 25.5,148.5 Z"/></g>
<g><path style="opacity:1" fill="#2d4339" d="M 88.5,147.5 C 88.8333,147.5 89.1667,147.5 89.5,147.5C 83.2509,148.944 77.0842,150.944 71,153.5C 70.6012,153.272 70.4346,152.938 70.5,152.5C 72.4523,149.873 75.1189,148.54 78.5,148.5C 81.7863,146.833 85.1197,146.5 88.5,147.5 Z"/></g>
<g><path style="opacity:1" fill="#5c846e" d="M 37.5,151.5 C 35.6264,152.285 33.6264,152.952 31.5,153.5C 31.4142,152.504 31.7476,151.671 32.5,151C 29.0699,150.362 27.7366,151.862 28.5,155.5C 24.7779,156.32 22.4446,154.987 21.5,151.5C 22.5,151.5 23.5,151.5 24.5,151.5C 24.5,152.5 24.5,153.5 24.5,154.5C 25.5,154.5 26.5,154.5 27.5,154.5C 27.5,153.167 27.5,151.833 27.5,150.5C 30.1368,149.836 32.8035,149.169 35.5,148.5C 36.1757,149.602 36.8423,150.602 37.5,151.5 Z"/></g>
<g><path style="opacity:1" fill="#21372a" d="M 39.5,149.5 C 40.1667,149.5 40.8333,149.5 41.5,149.5C 42.1667,149.5 42.8333,149.5 43.5,149.5C 43.7135,151.144 43.3802,152.644 42.5,154C 40.1902,154.497 37.8568,154.663 35.5,154.5C 33.901,154.768 32.5676,154.434 31.5,153.5C 33.6264,152.952 35.6264,152.285 37.5,151.5C 38.8333,151.5 39.5,150.833 39.5,149.5 Z"/></g>
<g><path style="opacity:1" fill="#53816a" d="M 43.5,149.5 C 46.8738,149.674 50.2072,150.174 53.5,151C 52.2881,152.107 52.6214,152.607 54.5,152.5C 49.2104,154.904 43.5438,156.237 37.5,156.5C 36.8333,155.833 36.1667,155.167 35.5,154.5C 37.8568,154.663 40.1902,154.497 42.5,154C 43.3802,152.644 43.7135,151.144 43.5,149.5 Z"/></g>
<g><path style="opacity:1" fill="#8e8684" d="M 89.5,147.5 C 89.8333,147.5 90.1667,147.5 90.5,147.5C 90.5,148.5 90.5,149.5 90.5,150.5C 88.323,150.586 86.323,151.253 84.5,152.5C 79.5825,150.821 75.2491,151.821 71.5,155.5C 70.1973,154.282 69.1973,154.615 68.5,156.5C 67.6143,155.675 67.281,154.675 67.5,153.5C 66.1667,153.5 64.8333,153.5 63.5,153.5C 63.5,154.5 63.5,155.5 63.5,156.5C 62.2081,152.561 63.8747,150.895 68.5,151.5C 69.1667,151.833 69.8333,152.167 70.5,152.5C 70.4346,152.938 70.6012,153.272 71,153.5C 77.0842,150.944 83.2509,148.944 89.5,147.5 Z"/></g>
<g><path style="opacity:1" fill="#223628" d="M 62.5,150.5 C 64.7354,150.205 66.7354,150.539 68.5,151.5C 63.8747,150.895 62.2081,152.561 63.5,156.5C 64.791,156.263 65.791,156.596 66.5,157.5C 62.3166,158.141 57.9832,158.141 53.5,157.5C 47.1075,158.451 40.7741,159.451 34.5,160.5C 33.5,160.5 32.5,160.5 31.5,160.5C 33.249,158.744 35.249,157.411 37.5,156.5C 43.5438,156.237 49.2104,154.904 54.5,152.5C 57.2804,151.922 59.9471,151.255 62.5,150.5 Z"/></g>
<g><path style="opacity:1" fill="#449a76" d="M 17.5,149.5 C 17.5,150.833 18.1667,151.5 19.5,151.5C 20.1667,151.5 20.8333,151.5 21.5,151.5C 22.4446,154.987 24.7779,156.32 28.5,155.5C 27.7366,151.862 29.0699,150.362 32.5,151C 31.7476,151.671 31.4142,152.504 31.5,153.5C 32.5676,154.434 33.901,154.768 35.5,154.5C 36.1667,155.167 36.8333,155.833 37.5,156.5C 35.249,157.411 33.249,158.744 31.5,160.5C 24.0182,161.492 16.3516,161.825 8.5,161.5C 8.66018,159.801 8.49351,158.134 8,156.5C 7.50454,158.473 7.33788,160.473 7.5,162.5C 7.16667,162.5 6.83333,162.5 6.5,162.5C 6.5,157.167 6.5,151.833 6.5,146.5C 8.85684,146.337 11.1902,146.503 13.5,147C 14.4709,148.481 15.8042,149.315 17.5,149.5 Z"/></g>
<g><path style="opacity:1" fill="#4d4c4b" d="M 90.5,150.5 C 90.5,154.5 90.5,158.5 90.5,162.5C 84.8236,162.666 79.1569,162.499 73.5,162C 74.6341,160.984 74.3008,160.317 72.5,160C 73.3081,159.692 73.9747,159.192 74.5,158.5C 71.9135,157.52 69.2469,157.187 66.5,157.5C 65.791,156.596 64.791,156.263 63.5,156.5C 63.5,155.5 63.5,154.5 63.5,153.5C 64.8333,153.5 66.1667,153.5 67.5,153.5C 67.281,154.675 67.6143,155.675 68.5,156.5C 69.1973,154.615 70.1973,154.282 71.5,155.5C 75.2491,151.821 79.5825,150.821 84.5,152.5C 86.323,151.253 88.323,150.586 90.5,150.5 Z"/></g>
<g><path style="opacity:1" fill="#486f5f" d="M 31.5,160.5 C 32.5,160.5 33.5,160.5 34.5,160.5C 46.673,161.825 59.0063,161.825 71.5,160.5C 69.6404,159.675 67.9738,158.675 66.5,157.5C 69.2469,157.187 71.9135,157.52 74.5,158.5C 73.9747,159.192 73.3081,159.692 72.5,160C 74.3008,160.317 74.6341,160.984 73.5,162C 79.1569,162.499 84.8236,162.666 90.5,162.5C 62.8333,163.833 35.1667,163.833 7.5,162.5C 7.33788,160.473 7.50454,158.473 8,156.5C 8.49351,158.134 8.66018,159.801 8.5,161.5C 16.3516,161.825 24.0182,161.492 31.5,160.5 Z"/></g>
<g><path style="opacity:1" fill="#4c967a" d="M 66.5,157.5 C 67.9738,158.675 69.6404,159.675 71.5,160.5C 59.0063,161.825 46.673,161.825 34.5,160.5C 40.7741,159.451 47.1075,158.451 53.5,157.5C 57.9832,158.141 62.3166,158.141 66.5,157.5 Z"/></g>
</svg>
