<?xml version="1.0" encoding="UTF-8"?>
<!DOCTYPE svg PUBLIC "-//W3C//DTD SVG 1.1//EN" "http://www.w3.org/Graphics/SVG/1.1/DTD/svg11.dtd">
<svg xmlns="http://www.w3.org/2000/svg" version="1.1" width="100px" height="165px" style="shape-rendering:geometricPrecision; text-rendering:geometricPrecision; image-rendering:optimizeQuality; fill-rule:evenodd; clip-rule:evenodd" xmlns:xlink="http://www.w3.org/1999/xlink">
<g><path style="opacity:1" fill="#f9f9f8" d="M -0.5,-0.5 C 10.1667,-0.5 20.8333,-0.5 31.5,-0.5C 33.9103,1.40382 36.2437,3.57049 38.5,6C 38.1667,6.33333 37.8333,6.66667 37.5,7C 40.319,6.50777 42.9856,6.67443 45.5,7.5C 41.0403,8.97571 36.3737,10.1424 31.5,11C 30.6198,12.3561 30.2865,13.8561 30.5,15.5C 30.44,16.0431 30.1067,16.3764 29.5,16.5C 26.8699,15.1963 24.5366,13.5296 22.5,11.5C 21.1724,7.746 18.5058,6.57933 14.5,8C 13.944,8.38258 13.6107,8.88258 13.5,9.5C 12.2534,17.6104 15.9201,21.9437 24.5,22.5C 25.1667,22.5 25.8333,22.5 26.5,22.5C 30.0052,23.4644 33.3385,22.7977 36.5,20.5C 35.6315,24.6843 34.2981,28.6843 32.5,32.5C 32.5,33.1667 32.5,33.8333 32.5,34.5C 32.5394,35.5832 32.8728,36.5832 33.5,37.5C 32.7573,38.1818 32.0906,38.8485 31.5,39.5C 29.7162,39.8925 28.0495,40.5592 26.5,41.5C 26.5,40.8333 26.1667,40.5 25.5,40.5C 22.9212,35.0126 19.5879,30.0126 15.5,25.5C 13.7354,24.5386 11.7354,24.2053 9.5,24.5C 9.5,25.5 9.5,26.5 9.5,27.5C 8.60305,28.5981 7.76971,28.5981 7,27.5C 6.83333,28.1667 6.66667,28.8333 6.5,29.5C 7.99483,31.1697 9.32817,33.003 10.5,35C 8.43277,35.5356 6.59944,35.0356 5,33.5C 5.47335,27.3717 5.30668,21.3717 4.5,15.5C 2.83333,15.5 1.16667,15.5 -0.5,15.5C -0.5,10.1667 -0.5,4.83333 -0.5,-0.5 Z"/></g>
<g><path style="opacity:1" fill="#fbfbfb" d="M 31.5,-0.5 C 54.1667,-0.5 76.8333,-0.5 99.5,-0.5C 99.5,7.5 99.5,15.5 99.5,23.5C 98.5629,29.0348 96.7295,34.3681 94,39.5C 93.6667,37.1667 93.3333,34.8333 93,32.5C 92.8078,34.5767 92.3078,36.5767 91.5,38.5C 90.4024,34.6395 89.5691,34.6395 89,38.5C 88.5172,37.552 88.3505,36.552 88.5,35.5C 88.5,33.5 88.5,31.5 88.5,29.5C 85.7021,31.8994 82.3687,33.566 78.5,34.5C 78.5,33.5 78.5,32.5 78.5,31.5C 78.4894,29.3141 77.4894,28.4808 75.5,29C 74.6028,31.0871 73.9361,33.2537 73.5,35.5C 72.8333,36.1667 72.1667,36.8333 71.5,37.5C 68.6067,37.0311 66.6067,38.0311 65.5,40.5C 63.9505,39.5592 62.2838,38.8925 60.5,38.5C 60.0269,37.0937 59.0269,36.427 57.5,36.5C 56.791,35.596 55.791,35.2627 54.5,35.5C 54.5,34.8333 54.5,34.1667 54.5,33.5C 55.1524,32.5514 55.4857,31.3847 55.5,30C 55.0941,24.9529 54.0941,20.1196 52.5,15.5C 55.5694,14.1956 56.5694,12.1956 55.5,9.5C 55.1667,8.83333 54.8333,8.16667 54.5,7.5C 51.6377,6.31868 48.6377,6.31868 45.5,7.5C 42.9856,6.67443 40.319,6.50777 37.5,7C 37.8333,6.66667 38.1667,6.33333 38.5,6C 36.2437,3.57049 33.9103,1.40382 31.5,-0.5 Z"/></g>
<g><path style="opacity:1" fill="#4193b2" d="M 54.5,7.5 C 52.8235,8.18342 52.1568,9.51676 52.5,11.5C 50.6203,11.2291 49.287,11.8958 48.5,13.5C 43.8982,14.7123 39.2315,15.7123 34.5,16.5C 33.4163,16.315 32.4163,15.9817 31.5,15.5C 31.1667,15.5 30.8333,15.5 30.5,15.5C 30.2865,13.8561 30.6198,12.3561 31.5,11C 36.3737,10.1424 41.0403,8.97571 45.5,7.5C 48.6377,6.31868 51.6377,6.31868 54.5,7.5 Z"/></g>
<g><path style="opacity:1" fill="#2b5e73" d="M 54.5,7.5 C 54.8333,8.16667 55.1667,8.83333 55.5,9.5C 53.9212,11.9355 51.5879,13.2689 48.5,13.5C 49.287,11.8958 50.6203,11.2291 52.5,11.5C 52.1568,9.51676 52.8235,8.18342 54.5,7.5 Z"/></g>
<g><path style="opacity:1" fill="#b68f5b" d="M 22.5,11.5 C 24.5366,13.5296 26.8699,15.1963 29.5,16.5C 30.1067,16.3764 30.44,16.0431 30.5,15.5C 30.8333,15.5 31.1667,15.5 31.5,15.5C 31.5,16.5 31.5,17.5 31.5,18.5C 31.1667,19.5 30.5,20.1667 29.5,20.5C 24.8458,20.6718 20.8458,19.1718 17.5,16C 16.565,13.6194 16.2317,11.1194 16.5,8.5C 18.7155,9.044 20.7155,10.044 22.5,11.5 Z"/></g>
<g><path style="opacity:1" fill="#273238" d="M 55.5,9.5 C 56.5694,12.1956 55.5694,14.1956 52.5,15.5C 51.8333,15.5 51.1667,15.5 50.5,15.5C 47.1709,15.2153 44.1709,15.8819 41.5,17.5C 40.9569,17.56 40.6236,17.8933 40.5,18.5C 41.6016,19.1757 42.6016,19.8423 43.5,20.5C 41.0706,20.1156 38.7373,19.449 36.5,18.5C 34.8333,18.5 33.1667,18.5 31.5,18.5C 31.5,17.5 31.5,16.5 31.5,15.5C 32.4163,15.9817 33.4163,16.315 34.5,16.5C 39.2315,15.7123 43.8982,14.7123 48.5,13.5C 51.5879,13.2689 53.9212,11.9355 55.5,9.5 Z"/></g>
<g><path style="opacity:1" fill="#ba9e81" d="M 50.5,15.5 C 50.6287,17.2161 50.962,18.8828 51.5,20.5C 47.6757,20.7898 44.3424,19.7898 41.5,17.5C 44.1709,15.8819 47.1709,15.2153 50.5,15.5 Z"/></g>
<g><path style="opacity:1" fill="#938077" d="M 13.5,9.5 C 14.4852,12.0571 15.4852,14.7237 16.5,17.5C 19.2308,19.1916 21.8975,20.8583 24.5,22.5C 15.9201,21.9437 12.2534,17.6104 13.5,9.5 Z"/></g>
<g><path style="opacity:1" fill="#c8ad8f" d="M 22.5,11.5 C 20.7155,10.044 18.7155,9.044 16.5,8.5C 16.2317,11.1194 16.565,13.6194 17.5,16C 20.8458,19.1718 24.8458,20.6718 29.5,20.5C 28.5,21.1667 27.5,21.8333 26.5,22.5C 25.8333,22.5 25.1667,22.5 24.5,22.5C 21.8975,20.8583 19.2308,19.1916 16.5,17.5C 15.4852,14.7237 14.4852,12.0571 13.5,9.5C 13.6107,8.88258 13.944,8.38258 14.5,8C 18.5058,6.57933 21.1724,7.746 22.5,11.5 Z"/></g>
<g><path style="opacity:1" fill="#957d69" d="M 31.5,18.5 C 33.1667,18.5 34.8333,18.5 36.5,18.5C 36.5,19.1667 36.5,19.8333 36.5,20.5C 33.3385,22.7977 30.0052,23.4644 26.5,22.5C 27.5,21.8333 28.5,21.1667 29.5,20.5C 30.5,20.1667 31.1667,19.5 31.5,18.5 Z"/></g>
<g><path style="opacity:1" fill="#675e58" d="M 36.5,18.5 C 38.7373,19.449 41.0706,20.1156 43.5,20.5C 43.5,20.8333 43.5,21.1667 43.5,21.5C 43.1667,21.5 42.8333,21.5 42.5,21.5C 40.4334,21.5323 39.1001,22.5323 38.5,24.5C 37.7308,27.1147 37.3975,29.7814 37.5,32.5C 35.64,33.0715 33.9733,33.0715 32.5,32.5C 34.2981,28.6843 35.6315,24.6843 36.5,20.5C 36.5,19.8333 36.5,19.1667 36.5,18.5 Z"/></g>
<g><path style="opacity:1" fill="#93765d" d="M 41.5,17.5 C 44.3424,19.7898 47.6757,20.7898 51.5,20.5C 51.3893,21.1174 51.056,21.6174 50.5,22C 51.4158,22.2784 52.0825,22.7784 52.5,23.5C 50.8762,23.6399 49.7096,22.9733 49,21.5C 47.1899,24.0176 45.3566,24.0176 43.5,21.5C 43.5,21.1667 43.5,20.8333 43.5,20.5C 42.6016,19.8423 41.6016,19.1757 40.5,18.5C 40.6236,17.8933 40.9569,17.56 41.5,17.5 Z"/></g>
<g><path style="opacity:1" fill="#e0b097" d="M 42.5,21.5 C 42.8333,21.5 43.1667,21.5 43.5,21.5C 45.3566,24.0176 47.1899,24.0176 49,21.5C 49.7096,22.9733 50.8762,23.6399 52.5,23.5C 52.5,24.8333 52.5,26.1667 52.5,27.5C 50.076,27.1924 47.7427,27.5258 45.5,28.5C 46.6888,29.4287 48.0222,29.762 49.5,29.5C 49.1667,32.8333 48.8333,36.1667 48.5,39.5C 47.1667,39.5 45.8333,39.5 44.5,39.5C 42.6329,38.2402 41.2995,36.5735 40.5,34.5C 41.9931,33.6879 42.6598,32.3545 42.5,30.5C 41.4064,27.4307 41.4064,24.4307 42.5,21.5 Z"/></g>
<g><path style="opacity:1" fill="#414139" d="M 50.5,15.5 C 51.1667,15.5 51.8333,15.5 52.5,15.5C 54.0941,20.1196 55.0941,24.9529 55.5,30C 55.4857,31.3847 55.1524,32.5514 54.5,33.5C 53.2921,34.2341 51.9587,34.5674 50.5,34.5C 51.449,32.2627 52.1156,29.9294 52.5,27.5C 52.5,26.1667 52.5,24.8333 52.5,23.5C 52.0825,22.7784 51.4158,22.2784 50.5,22C 51.056,21.6174 51.3893,21.1174 51.5,20.5C 50.962,18.8828 50.6287,17.2161 50.5,15.5 Z"/></g>
<g><path style="opacity:1" fill="#628ea2" d="M 15.5,25.5 C 13.8008,25.3398 12.1341,25.5065 10.5,26C 13.863,29.252 16.863,32.752 19.5,36.5C 22.0938,40.0256 24.4271,43.6923 26.5,47.5C 25.5,47.5 24.5,47.5 23.5,47.5C 18.8163,40.7825 14.1497,34.1159 9.5,27.5C 9.5,26.5 9.5,25.5 9.5,24.5C 11.7354,24.2053 13.7354,24.5386 15.5,25.5 Z"/></g>
<g><path style="opacity:1" fill="#4a3d32" d="M 42.5,21.5 C 41.4064,24.4307 41.4064,27.4307 42.5,30.5C 42.6598,32.3545 41.9931,33.6879 40.5,34.5C 39.1514,35.9525 37.4847,36.9525 35.5,37.5C 35.1898,35.8564 34.1898,34.8564 32.5,34.5C 32.5,33.8333 32.5,33.1667 32.5,32.5C 33.9733,33.0715 35.64,33.0715 37.5,32.5C 37.3975,29.7814 37.7308,27.1147 38.5,24.5C 39.1001,22.5323 40.4334,21.5323 42.5,21.5 Z"/></g>
<g><path style="opacity:1" fill="#f8fafa" d="M -0.5,15.5 C 1.16667,15.5 2.83333,15.5 4.5,15.5C 5.30668,21.3717 5.47335,27.3717 5,33.5C 6.59944,35.0356 8.43277,35.5356 10.5,35C 9.32817,33.003 7.99483,31.1697 6.5,29.5C 6.66667,28.8333 6.83333,28.1667 7,27.5C 7.76971,28.5981 8.60305,28.5981 9.5,27.5C 14.1497,34.1159 18.8163,40.7825 23.5,47.5C 23.5,48.8333 23.5,50.1667 23.5,51.5C 21.5544,52.0347 20.5544,53.368 20.5,55.5C 19.1914,58.4866 17.8581,61.4866 16.5,64.5C 17.6448,68.8265 17.6448,73.1599 16.5,77.5C 16.719,78.675 16.3857,79.675 15.5,80.5C 14.2613,80.9424 13.2613,81.6091 12.5,82.5C 10.326,82.7497 8.65938,83.7497 7.5,85.5C 7.88077,83.0582 7.2141,82.3915 5.5,83.5C 4.71893,82.2713 4.21893,80.938 4,79.5C 3.52933,84.8443 3.02933,90.1777 2.5,95.5C 1.5,95.5 0.5,95.5 -0.5,95.5C -0.5,68.8333 -0.5,42.1667 -0.5,15.5 Z"/></g>
<g><path style="opacity:1" fill="#4c6b7e" d="M 15.5,25.5 C 19.5879,30.0126 22.9212,35.0126 25.5,40.5C 23.9124,39.3587 22.5791,37.8587 21.5,36C 20.5632,35.3083 19.8966,35.475 19.5,36.5C 16.863,32.752 13.863,29.252 10.5,26C 12.1341,25.5065 13.8008,25.3398 15.5,25.5 Z"/></g>
<g><path style="opacity:1" fill="#ba6665" d="M 54.5,35.5 C 55.791,35.2627 56.791,35.596 57.5,36.5C 57.938,40.9083 55.938,42.5749 51.5,41.5C 51.0246,38.6874 52.0246,36.6874 54.5,35.5 Z"/></g>
<g><path style="opacity:1" fill="#847d75" d="M 78.5,31.5 C 77.1054,29.9456 76.4387,30.279 76.5,32.5C 76.6667,33.1667 76.8333,33.8333 77,34.5C 77.69,35.7383 78.19,35.7383 78.5,34.5C 82.3687,33.566 85.7021,31.8994 88.5,29.5C 88.5,31.5 88.5,33.5 88.5,35.5C 88.1667,35.5 87.8333,35.5 87.5,35.5C 87.6602,33.8008 87.4935,32.1341 87,30.5C 86.6667,30.8333 86.3333,31.1667 86,31.5C 84.6018,35.2273 84.1018,38.8939 84.5,42.5C 83.8333,42.5 83.1667,42.5 82.5,42.5C 82.5489,37.4612 81.8823,37.2945 80.5,42C 78.8016,41.5031 77.1349,41.6698 75.5,42.5C 74.8319,40.0312 74.1653,37.6979 73.5,35.5C 73.9361,33.2537 74.6028,31.0871 75.5,29C 77.4894,28.4808 78.4894,29.3141 78.5,31.5 Z"/></g>
<g><path style="opacity:1" fill="#42383b" d="M 78.5,31.5 C 78.5,32.5 78.5,33.5 78.5,34.5C 78.19,35.7383 77.69,35.7383 77,34.5C 76.8333,33.8333 76.6667,33.1667 76.5,32.5C 76.4387,30.279 77.1054,29.9456 78.5,31.5 Z"/></g>
<g><path style="opacity:1" fill="#494642" d="M 87.5,35.5 C 86.8872,38.9694 88.2206,40.9694 91.5,41.5C 91.5,42.5 91.5,43.5 91.5,44.5C 90.5,44.5 89.5,44.5 88.5,44.5C 89.8333,48.1667 89.8333,51.8333 88.5,55.5C 88.1667,55.5 87.8333,55.5 87.5,55.5C 87.0056,51.0337 86.0056,46.7004 84.5,42.5C 84.1018,38.8939 84.6018,35.2273 86,31.5C 86.3333,31.1667 86.6667,30.8333 87,30.5C 87.4935,32.1341 87.6602,33.8008 87.5,35.5 Z"/></g>
<g><path style="opacity:1" fill="#9a8578" d="M 32.5,34.5 C 34.1898,34.8564 35.1898,35.8564 35.5,37.5C 35.6833,39.9878 36.6833,41.9878 38.5,43.5C 37.391,43.4431 36.391,43.1098 35.5,42.5C 35.5,41.8333 35.1667,41.5 34.5,41.5C 33.5,40.8333 32.5,40.1667 31.5,39.5C 32.0906,38.8485 32.7573,38.1818 33.5,37.5C 32.8728,36.5832 32.5394,35.5832 32.5,34.5 Z"/></g>
<g><path style="opacity:1" fill="#a68771" d="M 52.5,27.5 C 52.1156,29.9294 51.449,32.2627 50.5,34.5C 51.9587,34.5674 53.2921,34.2341 54.5,33.5C 54.5,34.1667 54.5,34.8333 54.5,35.5C 52.0246,36.6874 51.0246,38.6874 51.5,41.5C 50.439,42.0405 49.439,42.3738 48.5,42.5C 47.8826,42.3893 47.3826,42.056 47,41.5C 46.1841,42.8228 45.0174,43.4894 43.5,43.5C 44.2341,42.2921 44.5674,40.9587 44.5,39.5C 45.8333,39.5 47.1667,39.5 48.5,39.5C 48.8333,36.1667 49.1667,32.8333 49.5,29.5C 48.0222,29.762 46.6888,29.4287 45.5,28.5C 47.7427,27.5258 50.076,27.1924 52.5,27.5 Z"/></g>
<g><path style="opacity:1" fill="#c5575d" d="M 40.5,34.5 C 41.2995,36.5735 42.6329,38.2402 44.5,39.5C 44.5674,40.9587 44.2341,42.2921 43.5,43.5C 41.8333,43.5 40.1667,43.5 38.5,43.5C 36.6833,41.9878 35.6833,39.9878 35.5,37.5C 37.4847,36.9525 39.1514,35.9525 40.5,34.5 Z"/></g>
<g><path style="opacity:1" fill="#4d433c" d="M 73.5,35.5 C 74.1653,37.6979 74.8319,40.0312 75.5,42.5C 77.1349,41.6698 78.8016,41.5031 80.5,42C 81.8823,37.2945 82.5489,37.4612 82.5,42.5C 80.3796,43.4033 80.0462,44.7367 81.5,46.5C 80.0652,47.7898 79.0652,49.4565 78.5,51.5C 77.269,50.3493 77.269,49.1827 78.5,48C 77.451,47.5078 76.451,47.6744 75.5,48.5C 74.8524,46.8508 73.8524,45.5175 72.5,44.5C 72.1667,44.6667 71.8333,44.8333 71.5,45C 72.8228,45.8159 73.4894,46.9826 73.5,48.5C 72.8333,48.1667 72.1667,47.8333 71.5,47.5C 71.1583,46.6618 70.4916,46.3284 69.5,46.5C 68.9569,46.44 68.6236,46.1067 68.5,45.5C 69.5224,42.7981 70.5224,40.1314 71.5,37.5C 72.1667,36.8333 72.8333,36.1667 73.5,35.5 Z"/></g>
<g><path style="opacity:1" fill="#63987d" d="M 31.5,39.5 C 32.5,40.1667 33.5,40.8333 34.5,41.5C 33.4138,41.62 32.7472,42.2867 32.5,43.5C 32.8008,45.4216 33.4675,47.0883 34.5,48.5C 34.6309,49.3764 34.2975,50.0431 33.5,50.5C 31.3884,47.25 29.0551,44.25 26.5,41.5C 28.0495,40.5592 29.7162,39.8925 31.5,39.5 Z"/></g>
<g><path style="opacity:1" fill="#47493f" d="M 60.5,38.5 C 62.2838,38.8925 63.9505,39.5592 65.5,40.5C 65.369,41.2389 65.5357,41.9056 66,42.5C 66.8928,41.2888 67.7261,41.2888 68.5,42.5C 65.6496,44.2373 65.3163,46.0706 67.5,48C 64.8738,50.0288 63.8738,49.1954 64.5,45.5C 63.6868,44.3473 62.6868,44.3473 61.5,45.5C 60.7792,43.314 60.1125,41.1474 59.5,39C 59.7284,38.6012 60.0618,38.4346 60.5,38.5 Z"/></g>
<g><path style="opacity:1" fill="#2e6544" d="M 34.5,41.5 C 35.1667,41.5 35.5,41.8333 35.5,42.5C 34.1667,44.1667 34.1667,45.8333 35.5,47.5C 34.8333,47.5 34.5,47.8333 34.5,48.5C 33.4675,47.0883 32.8008,45.4216 32.5,43.5C 32.7472,42.2867 33.4138,41.62 34.5,41.5 Z"/></g>
<g><path style="opacity:1" fill="#527d5a" d="M 52.5,43.5 C 52.6985,45.9599 53.3652,48.2933 54.5,50.5C 55.5213,48.812 56.8546,47.4787 58.5,46.5C 57.8505,48.4352 57.5172,50.4352 57.5,52.5C 55.9731,52.427 54.9731,53.0937 54.5,54.5C 51.5981,51.1728 50.9315,47.5062 52.5,43.5 Z"/></g>
<g><path style="opacity:1" fill="#569272" d="M 35.5,42.5 C 36.391,43.1098 37.391,43.4431 38.5,43.5C 39.5521,45.256 41.2188,45.9227 43.5,45.5C 41.7705,46.6407 40.7705,48.3074 40.5,50.5C 41.2906,53.6425 42.9573,56.3091 45.5,58.5C 47.752,56.7033 48.752,54.3699 48.5,51.5C 49.4816,54.9619 49.815,58.6286 49.5,62.5C 49.5,62.8333 49.5,63.1667 49.5,63.5C 48.8333,64.1667 48.1667,64.8333 47.5,65.5C 46.5255,64.365 45.3588,63.365 44,62.5C 43.8019,60.6183 43.3019,58.9516 42.5,57.5C 42.1583,56.6618 41.4916,56.3284 40.5,56.5C 39.8902,55.609 39.5569,54.609 39.5,53.5C 37.6736,51.8525 36.3403,49.8525 35.5,47.5C 34.1667,45.8333 34.1667,44.1667 35.5,42.5 Z"/></g>
<g><path style="opacity:1" fill="#b2aca9" d="M 82.5,42.5 C 83.1667,42.5 83.8333,42.5 84.5,42.5C 86.0056,46.7004 87.0056,51.0337 87.5,55.5C 87.5,56.1667 87.5,56.8333 87.5,57.5C 85.5054,53.8679 83.5054,50.2012 81.5,46.5C 80.0462,44.7367 80.3796,43.4033 82.5,42.5 Z"/></g>
<g><path style="opacity:1" fill="#24474b" d="M 25.5,40.5 C 26.1667,40.5 26.5,40.8333 26.5,41.5C 29.0551,44.25 31.3884,47.25 33.5,50.5C 34.2975,50.0431 34.6309,49.3764 34.5,48.5C 34.5,47.8333 34.8333,47.5 35.5,47.5C 36.3403,49.8525 37.6736,51.8525 39.5,53.5C 38.5041,53.4142 37.6708,53.7476 37,54.5C 36.6667,53.5 36.3333,52.5 36,51.5C 35.2588,52.6405 34.4255,52.6405 33.5,51.5C 32.6143,52.325 32.281,53.325 32.5,54.5C 32.1667,54.5 31.8333,54.5 31.5,54.5C 30.9898,51.3257 29.3231,48.9923 26.5,47.5C 24.4271,43.6923 22.0938,40.0256 19.5,36.5C 19.8966,35.475 20.5632,35.3083 21.5,36C 22.5791,37.8587 23.9124,39.3587 25.5,40.5 Z"/></g>
<g><path style="opacity:1" fill="#969188" d="M 71.5,37.5 C 70.5224,40.1314 69.5224,42.7981 68.5,45.5C 68.6236,46.1067 68.9569,46.44 69.5,46.5C 69.5391,48.3588 68.7058,49.6921 67,50.5C 66.5045,52.4727 66.3379,54.4727 66.5,56.5C 65.71,55.3915 65.21,54.0581 65,52.5C 64.4436,54.8848 64.6103,57.2181 65.5,59.5C 64.0256,58.5637 63.0256,57.2303 62.5,55.5C 62.9382,55.5654 63.2716,55.3988 63.5,55C 62.4178,53.6703 61.7512,52.1703 61.5,50.5C 62.2632,48.6316 63.2632,46.9649 64.5,45.5C 63.8738,49.1954 64.8738,50.0288 67.5,48C 65.3163,46.0706 65.6496,44.2373 68.5,42.5C 67.7261,41.2888 66.8928,41.2888 66,42.5C 65.5357,41.9056 65.369,41.2389 65.5,40.5C 66.6067,38.0311 68.6067,37.0311 71.5,37.5 Z"/></g>
<g><path style="opacity:1" fill="#608e84" d="M 23.5,47.5 C 24.5,47.5 25.5,47.5 26.5,47.5C 29.3231,48.9923 30.9898,51.3257 31.5,54.5C 31.0526,57.3138 30.8859,60.3138 31,63.5C 30.2828,62.9558 29.7828,62.2891 29.5,61.5C 29.5,60.5 29.5,59.5 29.5,58.5C 30.5573,53.8844 29.0573,50.551 25,48.5C 24.7679,49.7375 24.2679,50.7375 23.5,51.5C 23.5,50.1667 23.5,48.8333 23.5,47.5 Z"/></g>
<g><path style="opacity:1" fill="#171c1c" d="M 39.5,53.5 C 39.5569,54.609 39.8902,55.609 40.5,56.5C 39.325,56.281 38.325,56.6143 37.5,57.5C 38.5896,58.6086 38.5896,59.6086 37.5,60.5C 36.7555,57.6478 35.0888,55.6478 32.5,54.5C 32.281,53.325 32.6143,52.325 33.5,51.5C 34.4255,52.6405 35.2588,52.6405 36,51.5C 36.3333,52.5 36.6667,53.5 37,54.5C 37.6708,53.7476 38.5041,53.4142 39.5,53.5 Z"/></g>
<g><path style="opacity:1" fill="#42a678" d="M 43.5,45.5 C 47.9083,45.062 49.5749,47.062 48.5,51.5C 48.752,54.3699 47.752,56.7033 45.5,58.5C 42.9573,56.3091 41.2906,53.6425 40.5,50.5C 40.7705,48.3074 41.7705,46.6407 43.5,45.5 Z"/></g>
<g><path style="opacity:1" fill="#65644e" d="M 57.5,36.5 C 59.0269,36.427 60.0269,37.0937 60.5,38.5C 60.0618,38.4346 59.7284,38.6012 59.5,39C 60.1125,41.1474 60.7792,43.314 61.5,45.5C 62.6868,44.3473 63.6868,44.3473 64.5,45.5C 63.2632,46.9649 62.2632,48.6316 61.5,50.5C 60.2089,49.4583 60.2089,48.2917 61.5,47C 60.552,46.5172 59.552,46.3505 58.5,46.5C 58.5394,45.4168 58.8728,44.4168 59.5,43.5C 57.0268,42.2031 54.6934,42.2031 52.5,43.5C 50.9315,47.5062 51.5981,51.1728 54.5,54.5C 53.5313,55.3094 52.6979,56.3094 52,57.5C 50.7537,52.581 49.587,47.581 48.5,42.5C 49.439,42.3738 50.439,42.0405 51.5,41.5C 55.938,42.5749 57.938,40.9083 57.5,36.5 Z"/></g>
<g><path style="opacity:1" fill="#51a77b" d="M 58.5,46.5 C 56.8546,47.4787 55.5213,48.812 54.5,50.5C 53.3652,48.2933 52.6985,45.9599 52.5,43.5C 54.6934,42.2031 57.0268,42.2031 59.5,43.5C 58.8728,44.4168 58.5394,45.4168 58.5,46.5 Z"/></g>
<g><path style="opacity:1" fill="#818068" d="M 48.5,42.5 C 49.587,47.581 50.7537,52.581 52,57.5C 52.6979,56.3094 53.5313,55.3094 54.5,54.5C 54.9731,53.0937 55.9731,52.427 57.5,52.5C 56.2669,54.3018 56.2669,56.6351 57.5,59.5C 57.5,60.1667 57.1667,60.5 56.5,60.5C 54.8561,60.7135 53.3561,60.3802 52,59.5C 51.7645,61.1193 50.9311,62.1193 49.5,62.5C 49.815,58.6286 49.4816,54.9619 48.5,51.5C 49.5749,47.062 47.9083,45.062 43.5,45.5C 41.2188,45.9227 39.5521,45.256 38.5,43.5C 40.1667,43.5 41.8333,43.5 43.5,43.5C 45.0174,43.4894 46.1841,42.8228 47,41.5C 47.3826,42.056 47.8826,42.3893 48.5,42.5 Z"/></g>
<g><path style="opacity:1" fill="#6e675c" d="M 62.5,55.5 C 63.0256,57.2303 64.0256,58.5637 65.5,59.5C 65.5,60.5 65.5,61.5 65.5,62.5C 66.8333,62.5 68.1667,62.5 69.5,62.5C 70.3091,64.2922 70.8091,66.2922 71,68.5C 72.7058,67.6921 73.5391,66.3588 73.5,64.5C 74.7079,65.2341 76.0413,65.5674 77.5,65.5C 78.3321,71.4839 78.4988,77.4839 78,83.5C 77.6667,82.8333 77.3333,82.1667 77,81.5C 76.8138,84.0356 76.3138,86.369 75.5,88.5C 75.5,82.5 75.5,76.5 75.5,70.5C 73.4012,69.7691 71.4012,69.7691 69.5,70.5C 69.1676,75.1723 69.5009,79.6723 70.5,84C 68.8807,84.2355 67.8807,85.0689 67.5,86.5C 65.7376,85.7377 64.7376,84.4044 64.5,82.5C 65.7079,83.2341 67.0413,83.5674 68.5,83.5C 67.7517,81.4159 67.7517,79.4159 68.5,77.5C 66.0174,74.2883 66.0174,71.1217 68.5,68C 64.8116,64.1735 61.8116,60.0068 59.5,55.5C 60.5,55.5 61.5,55.5 62.5,55.5 Z"/></g>
<g><path style="opacity:1" fill="#3c3b39" d="M 89.5,57.5 C 90.404,58.209 90.7373,59.209 90.5,60.5C 86.2699,61.5262 85.6032,61.5262 88.5,60.5C 88.2627,59.209 88.596,58.209 89.5,57.5 Z"/></g>
<g><path style="opacity:1" fill="#908b76" d="M 31.5,54.5 C 31.8333,54.5 32.1667,54.5 32.5,54.5C 35.0888,55.6478 36.7555,57.6478 37.5,60.5C 38.5896,59.6086 38.5896,58.6086 37.5,57.5C 38.325,56.6143 39.325,56.281 40.5,56.5C 41.4916,56.3284 42.1583,56.6618 42.5,57.5C 42.5,58.1667 42.5,58.8333 42.5,59.5C 39.8079,61.2056 37.1412,62.8722 34.5,64.5C 31.9832,62.9229 31.9832,61.0896 34.5,59C 33.1175,57.7292 32.1175,56.2292 31.5,54.5 Z"/></g>
<g><path style="opacity:1" fill="#64715a" d="M 42.5,57.5 C 43.3019,58.9516 43.8019,60.6183 44,62.5C 45.3588,63.365 46.5255,64.365 47.5,65.5C 46.5129,67.5511 45.1795,69.2178 43.5,70.5C 43.1667,70.5 42.8333,70.5 42.5,70.5C 43.355,69.4693 44.0217,68.3026 44.5,67C 42.953,65.6238 41.6197,64.1238 40.5,62.5C 41.5511,61.7777 42.2178,60.7777 42.5,59.5C 42.5,58.8333 42.5,58.1667 42.5,57.5 Z"/></g>
<g><path style="opacity:1" fill="#4a9f77" d="M 29.5,58.5 C 27.8356,59.9488 27.0023,61.9488 27,64.5C 24.092,64.0919 21.592,62.9253 19.5,61C 21.0995,59.9342 22.0995,58.4342 22.5,56.5C 22.0431,55.7025 21.3764,55.3691 20.5,55.5C 20.5544,53.368 21.5544,52.0347 23.5,51.5C 24.2679,50.7375 24.7679,49.7375 25,48.5C 29.0573,50.551 30.5573,53.8844 29.5,58.5 Z"/></g>
<g><path style="opacity:1" fill="#3b352b" d="M 66.5,56.5 C 67.0956,58.7454 68.0956,60.7454 69.5,62.5C 68.1667,62.5 66.8333,62.5 65.5,62.5C 65.5,61.5 65.5,60.5 65.5,59.5C 64.6103,57.2181 64.4436,54.8848 65,52.5C 65.21,54.0581 65.71,55.3915 66.5,56.5 Z"/></g>
<g><path style="opacity:1" fill="#574530" d="M 42.5,59.5 C 42.2178,60.7777 41.5511,61.7777 40.5,62.5C 39.1667,63.8333 37.8333,65.1667 36.5,66.5C 36.1667,65.5 35.5,64.8333 34.5,64.5C 37.1412,62.8722 39.8079,61.2056 42.5,59.5 Z"/></g>
<g><path style="opacity:1" fill="#2a3c2c" d="M 31.5,54.5 C 32.1175,56.2292 33.1175,57.7292 34.5,59C 31.9832,61.0896 31.9832,62.9229 34.5,64.5C 33.3063,67.0176 32.1396,67.0176 31,64.5C 29.9914,66.0249 29.4914,67.6916 29.5,69.5C 31.6112,68.6201 33.6112,68.6201 35.5,69.5C 33.9192,71.1417 33.2525,73.1417 33.5,75.5C 32.7659,76.7079 32.4326,78.0413 32.5,79.5C 31.4104,81.7633 30.0771,81.93 28.5,80C 30.4386,79.0922 31.4386,77.5922 31.5,75.5C 32.4511,74.0813 32.7845,72.4147 32.5,70.5C 31.1667,70.5 29.8333,70.5 28.5,70.5C 28.19,67.2869 28.5233,64.2869 29.5,61.5C 29.7828,62.2891 30.2828,62.9558 31,63.5C 30.8859,60.3138 31.0526,57.3138 31.5,54.5 Z"/></g>
<g><path style="opacity:1" fill="#bbb2aa" d="M 73.5,64.5 C 73.5391,66.3588 72.7058,67.6921 71,68.5C 70.8091,66.2922 70.3091,64.2922 69.5,62.5C 68.0956,60.7454 67.0956,58.7454 66.5,56.5C 69.8273,59.028 70.1606,58.528 67.5,55C 68.4162,54.6258 69.2496,54.1258 70,53.5C 71.7317,56.9692 72.8984,60.6359 73.5,64.5 Z"/></g>
<g><path style="opacity:1" fill="#4c4540" d="M 56.5,60.5 C 56.8146,62.2259 56.9813,63.8925 57,65.5C 54.8707,66.8627 54.3707,66.5294 55.5,64.5C 52.5201,63.6474 51.1868,64.9808 51.5,68.5C 53.5914,68.6816 55.5914,68.3482 57.5,67.5C 58.4519,69.0453 58.7852,70.712 58.5,72.5C 56.1457,71.5065 55.1457,72.5065 55.5,75.5C 54.5,75.5 53.5,75.5 52.5,75.5C 51.4639,73.6089 51.4639,71.7755 52.5,70C 51.0082,68.0088 50.0082,65.8422 49.5,63.5C 49.5,63.1667 49.5,62.8333 49.5,62.5C 50.9311,62.1193 51.7645,61.1193 52,59.5C 53.3561,60.3802 54.8561,60.7135 56.5,60.5 Z"/></g>
<g><path style="opacity:1" fill="#94908e" d="M 87.5,55.5 C 87.8333,55.5 88.1667,55.5 88.5,55.5C 89.3382,55.8417 89.6716,56.5084 89.5,57.5C 88.596,58.209 88.2627,59.209 88.5,60.5C 85.6032,61.5262 86.2699,61.5262 90.5,60.5C 91.3382,60.8417 91.6716,61.5084 91.5,62.5C 90.3707,63.4695 89.3707,64.6362 88.5,66C 91.3636,68.1295 90.3636,69.6295 85.5,70.5C 83.582,70.1386 83.2486,69.472 84.5,68.5C 86.4959,69.6878 87.3293,69.0211 87,66.5C 85.8687,67.6039 85.0354,67.2705 84.5,65.5C 85.5,64.8333 86.5,64.1667 87.5,63.5C 85.2156,61.8112 82.8822,61.1446 80.5,61.5C 82.6432,59.79 84.9765,58.4567 87.5,57.5C 87.5,56.8333 87.5,56.1667 87.5,55.5 Z"/></g>
<g><path style="opacity:1" fill="#312b27" d="M 81.5,46.5 C 83.5054,50.2012 85.5054,53.8679 87.5,57.5C 84.9765,58.4567 82.6432,59.79 80.5,61.5C 82.8822,61.1446 85.2156,61.8112 87.5,63.5C 86.5,64.1667 85.5,64.8333 84.5,65.5C 85.0354,67.2705 85.8687,67.6039 87,66.5C 87.3293,69.0211 86.4959,69.6878 84.5,68.5C 83.1155,67.1991 81.6155,67.1991 80,68.5C 79.1837,73.6842 79.3503,78.6842 80.5,83.5C 80.5,84.1667 80.8333,84.5 81.5,84.5C 81.8303,91.5316 81.497,98.5316 80.5,105.5C 79.3777,104.37 78.0443,103.703 76.5,103.5C 74.4458,103.635 72.7791,102.968 71.5,101.5C 71.7751,99.2417 72.7751,98.9084 74.5,100.5C 75.5223,100.145 76.189,99.4778 76.5,98.5C 77.1115,95.6628 78.1115,92.9962 79.5,90.5C 79.1667,89.8333 78.8333,89.1667 78.5,88.5C 77.3132,89.6527 76.3132,89.6527 75.5,88.5C 76.3138,86.369 76.8138,84.0356 77,81.5C 77.3333,82.1667 77.6667,82.8333 78,83.5C 78.4988,77.4839 78.3321,71.4839 77.5,65.5C 76.0413,65.5674 74.7079,65.2341 73.5,64.5C 72.8984,60.6359 71.7317,56.9692 70,53.5C 69.2496,54.1258 68.4162,54.6258 67.5,55C 70.1606,58.528 69.8273,59.028 66.5,56.5C 66.3379,54.4727 66.5045,52.4727 67,50.5C 68.7058,49.6921 69.5391,48.3588 69.5,46.5C 70.4916,46.3284 71.1583,46.6618 71.5,47.5C 71.6625,53.1582 73.4959,58.1582 77,62.5C 76.2868,57.7816 75.1201,53.1149 73.5,48.5C 73.4894,46.9826 72.8228,45.8159 71.5,45C 71.8333,44.8333 72.1667,44.6667 72.5,44.5C 73.8524,45.5175 74.8524,46.8508 75.5,48.5C 76.451,47.6744 77.451,47.5078 78.5,48C 77.269,49.1827 77.269,50.3493 78.5,51.5C 79.0652,49.4565 80.0652,47.7898 81.5,46.5 Z"/></g>
<g><path style="opacity:1" fill="#7e7673" d="M 77.5,55.5 C 82.4635,57.3938 82.4635,58.3938 77.5,58.5C 77.5,57.5 77.5,56.5 77.5,55.5 Z"/></g>
<g><path style="opacity:1" fill="#958d8c" d="M 71.5,47.5 C 72.1667,47.8333 72.8333,48.1667 73.5,48.5C 75.1201,53.1149 76.2868,57.7816 77,62.5C 73.4959,58.1582 71.6625,53.1582 71.5,47.5 Z"/></g>
<g><path style="opacity:1" fill="#477560" d="M 20.5,55.5 C 21.3764,55.3691 22.0431,55.7025 22.5,56.5C 22.0995,58.4342 21.0995,59.9342 19.5,61C 21.592,62.9253 24.092,64.0919 27,64.5C 27.0023,61.9488 27.8356,59.9488 29.5,58.5C 29.5,59.5 29.5,60.5 29.5,61.5C 28.5233,64.2869 28.19,67.2869 28.5,70.5C 25.6062,70.9577 23.1062,70.291 21,68.5C 20.1506,71.5214 19.3173,74.5214 18.5,77.5C 19.8333,77.5 21.1667,77.5 22.5,77.5C 21.0813,78.4511 19.4147,78.7845 17.5,78.5C 17.5,77.8333 17.1667,77.5 16.5,77.5C 17.6448,73.1599 17.6448,68.8265 16.5,64.5C 17.8581,61.4866 19.1914,58.4866 20.5,55.5 Z"/></g>
<g><path style="opacity:1" fill="#1b1611" d="M 34.5,64.5 C 35.5,64.8333 36.1667,65.5 36.5,66.5C 35.8902,67.391 35.5569,68.391 35.5,69.5C 33.6112,68.6201 31.6112,68.6201 29.5,69.5C 29.4914,67.6916 29.9914,66.0249 31,64.5C 32.1396,67.0176 33.3063,67.0176 34.5,64.5 Z"/></g>
<g><path style="opacity:1" fill="#dcbba1" d="M 40.5,62.5 C 41.6197,64.1238 42.953,65.6238 44.5,67C 44.0217,68.3026 43.355,69.4693 42.5,70.5C 40.8608,71.4725 39.5274,72.8058 38.5,74.5C 36.7839,74.6287 35.1172,74.962 33.5,75.5C 33.2525,73.1417 33.9192,71.1417 35.5,69.5C 35.5569,68.391 35.8902,67.391 36.5,66.5C 37.8333,65.1667 39.1667,63.8333 40.5,62.5 Z"/></g>
<g><path style="opacity:1" fill="#837b76" d="M 57.5,59.5 C 58.1635,61.0419 58.8302,62.7086 59.5,64.5C 60.2508,63.624 60.7508,62.624 61,61.5C 61.6667,62.8333 62.6667,63.8333 64,64.5C 64.3108,66.556 64.8108,68.556 65.5,70.5C 64.8333,71.1667 64.1667,71.8333 63.5,72.5C 64.6527,73.6868 64.6527,74.6868 63.5,75.5C 62.9612,73.4951 62.2945,71.4951 61.5,69.5C 61.3306,71.1173 60.9972,72.784 60.5,74.5C 59.8182,73.7573 59.1515,73.0906 58.5,72.5C 58.7852,70.712 58.4519,69.0453 57.5,67.5C 55.5914,68.3482 53.5914,68.6816 51.5,68.5C 51.1868,64.9808 52.5201,63.6474 55.5,64.5C 54.3707,66.5294 54.8707,66.8627 57,65.5C 56.9813,63.8925 56.8146,62.2259 56.5,60.5C 57.1667,60.5 57.5,60.1667 57.5,59.5 Z"/></g>
<g><path style="opacity:1" fill="#f7f9f9" d="M 99.5,23.5 C 99.5,70.5 99.5,117.5 99.5,164.5C 66.1667,164.5 32.8333,164.5 -0.5,164.5C -0.5,162.833 -0.5,161.167 -0.5,159.5C 0.185857,158.152 1.18586,156.985 2.5,156C 0.71739,154.933 0.21739,153.433 1,151.5C 1.41862,152.672 2.08529,153.672 3,154.5C 3.5,153.333 4.33333,152.5 5.5,152C 4.16667,150.667 4.16667,149.333 5.5,148C 9.41826,146.844 13.4183,146.344 17.5,146.5C 17.5,145.5 17.5,144.5 17.5,143.5C 18.8999,142.9 19.8999,141.9 20.5,140.5C 20.2627,141.791 20.596,142.791 21.5,143.5C 20.791,144.404 19.791,144.737 18.5,144.5C 18.7373,145.791 18.404,146.791 17.5,147.5C 15.396,147.201 13.396,147.534 11.5,148.5C 11.6236,149.107 11.9569,149.44 12.5,149.5C 12.5299,150.497 12.0299,151.164 11,151.5C 9.42229,150.453 7.92229,150.453 6.5,151.5C 7.61191,152.265 8.27858,153.265 8.5,154.5C 6.82351,155.183 6.15684,156.517 6.5,158.5C 7.23411,159.708 7.56745,161.041 7.5,162.5C 34.0053,162.831 60.3386,162.498 86.5,161.5C 87.5676,160.566 88.901,160.232 90.5,160.5C 90.7373,159.209 90.404,158.209 89.5,157.5C 89.4208,156.07 89.7542,154.736 90.5,153.5C 89.3881,152.735 88.7214,151.735 88.5,150.5C 89.3543,148.965 89.3543,147.632 88.5,146.5C 87.1634,143.382 86.3301,140.048 86,136.5C 85.8616,139.469 84.3616,141.135 81.5,141.5C 78.8465,140.531 78.1798,138.864 79.5,136.5C 81.1161,137.115 82.4495,138.115 83.5,139.5C 83.8333,139.167 84.1667,138.833 84.5,138.5C 84.3501,136.034 84.0168,133.368 83.5,130.5C 86.4471,124.32 88.1138,117.653 88.5,110.5C 87.1979,108.178 85.1979,106.845 82.5,106.5C 82.825,98.9809 82.4916,91.6476 81.5,84.5C 80.8333,84.5 80.5,84.1667 80.5,83.5C 80.3345,79.4862 80.5012,75.4862 81,71.5C 89.0822,73.5762 92.5822,70.5762 91.5,62.5C 91.6716,61.5084 91.3382,60.8417 90.5,60.5C 90.7373,59.209 90.404,58.209 89.5,57.5C 89.6716,56.5084 89.3382,55.8417 88.5,55.5C 89.8333,51.8333 89.8333,48.1667 88.5,44.5C 89.5,44.5 90.5,44.5 91.5,44.5C 91.5,43.5 91.5,42.5 91.5,41.5C 88.2206,40.9694 86.8872,38.9694 87.5,35.5C 87.8333,35.5 88.1667,35.5 88.5,35.5C 88.3505,36.552 88.5172,37.552 89,38.5C 89.5691,34.6395 90.4024,34.6395 91.5,38.5C 92.3078,36.5767 92.8078,34.5767 93,32.5C 93.3333,34.8333 93.6667,37.1667 94,39.5C 96.7295,34.3681 98.5629,29.0348 99.5,23.5 Z"/></g>
<g><path style="opacity:1" fill="#1b201b" d="M 49.5,63.5 C 50.0082,65.8422 51.0082,68.0088 52.5,70C 51.4639,71.7755 51.4639,73.6089 52.5,75.5C 52.9118,77.9726 51.9118,79.3059 49.5,79.5C 50.3414,77.6208 50.6747,75.6208 50.5,73.5C 48.4727,73.6621 46.4727,73.4955 44.5,73C 43.7476,72.3292 43.4142,71.4959 43.5,70.5C 45.1795,69.2178 46.5129,67.5511 47.5,65.5C 48.1667,64.8333 48.8333,64.1667 49.5,63.5 Z"/></g>
<g><path style="opacity:1" fill="#4ca379" d="M 28.5,70.5 C 29.8333,70.5 31.1667,70.5 32.5,70.5C 32.7845,72.4147 32.4511,74.0813 31.5,75.5C 29.2646,75.2053 27.2646,75.5386 25.5,76.5C 24.609,77.1098 23.609,77.4431 22.5,77.5C 21.1667,77.5 19.8333,77.5 18.5,77.5C 19.3173,74.5214 20.1506,71.5214 21,68.5C 23.1062,70.291 25.6062,70.9577 28.5,70.5 Z"/></g>
<g><path style="opacity:1" fill="#605e5c" d="M 91.5,62.5 C 92.5822,70.5762 89.0822,73.5762 81,71.5C 80.5012,75.4862 80.3345,79.4862 80.5,83.5C 79.3503,78.6842 79.1837,73.6842 80,68.5C 81.6155,67.1991 83.1155,67.1991 84.5,68.5C 83.2486,69.472 83.582,70.1386 85.5,70.5C 90.3636,69.6295 91.3636,68.1295 88.5,66C 89.3707,64.6362 90.3707,63.4695 91.5,62.5 Z"/></g>
<g><path style="opacity:1" fill="#39322c" d="M 58.5,46.5 C 59.552,46.3505 60.552,46.5172 61.5,47C 60.2089,48.2917 60.2089,49.4583 61.5,50.5C 61.7512,52.1703 62.4178,53.6703 63.5,55C 63.2716,55.3988 62.9382,55.5654 62.5,55.5C 61.5,55.5 60.5,55.5 59.5,55.5C 61.8116,60.0068 64.8116,64.1735 68.5,68C 66.0174,71.1217 66.0174,74.2883 68.5,77.5C 67.7517,79.4159 67.7517,81.4159 68.5,83.5C 67.0413,83.5674 65.7079,83.2341 64.5,82.5C 61.6118,82.7804 60.1118,81.4471 60,78.5C 59.0228,79.7736 58.1894,79.7736 57.5,78.5C 58.2679,77.7375 58.7679,76.7375 59,75.5C 60.3333,76.1667 61.6667,76.8333 63,77.5C 63.4643,76.9056 63.631,76.2389 63.5,75.5C 64.6527,74.6868 64.6527,73.6868 63.5,72.5C 64.1667,71.8333 64.8333,71.1667 65.5,70.5C 64.8108,68.556 64.3108,66.556 64,64.5C 62.6667,63.8333 61.6667,62.8333 61,61.5C 60.7508,62.624 60.2508,63.624 59.5,64.5C 58.8302,62.7086 58.1635,61.0419 57.5,59.5C 56.2669,56.6351 56.2669,54.3018 57.5,52.5C 57.5172,50.4352 57.8505,48.4352 58.5,46.5 Z"/></g>
<g><path style="opacity:1" fill="#1a211a" d="M 42.5,79.5 C 40.4176,79.528 38.5843,78.8613 37,77.5C 36.7613,76.212 37.2613,75.212 38.5,74.5C 40.0174,74.4894 41.1841,73.8228 42,72.5C 42.6449,73.646 43.4783,74.646 44.5,75.5C 43.3698,76.6223 42.7031,77.9557 42.5,79.5 Z"/></g>
<g><path style="opacity:1" fill="#283c2f" d="M 42.5,70.5 C 42.8333,70.5 43.1667,70.5 43.5,70.5C 43.4142,71.4959 43.7476,72.3292 44.5,73C 46.4727,73.4955 48.4727,73.6621 50.5,73.5C 50.6747,75.6208 50.3414,77.6208 49.5,79.5C 48.1667,79.5 46.8333,79.5 45.5,79.5C 44.5,79.5 43.5,79.5 42.5,79.5C 42.7031,77.9557 43.3698,76.6223 44.5,75.5C 43.4783,74.646 42.6449,73.646 42,72.5C 41.1841,73.8228 40.0174,74.4894 38.5,74.5C 39.5274,72.8058 40.8608,71.4725 42.5,70.5 Z"/></g>
<g><path style="opacity:1" fill="#281a19" d="M 63.5,75.5 C 63.631,76.2389 63.4643,76.9056 63,77.5C 61.6667,76.8333 60.3333,76.1667 59,75.5C 58.7679,76.7375 58.2679,77.7375 57.5,78.5C 57.2942,76.4508 56.4609,76.1175 55,77.5C 52.9849,79.4731 53.1516,81.1397 55.5,82.5C 55.1667,82.8333 54.8333,83.1667 54.5,83.5C 51.7147,81.4317 48.7147,80.0984 45.5,79.5C 46.8333,79.5 48.1667,79.5 49.5,79.5C 51.9118,79.3059 52.9118,77.9726 52.5,75.5C 53.5,75.5 54.5,75.5 55.5,75.5C 55.1457,72.5065 56.1457,71.5065 58.5,72.5C 59.1515,73.0906 59.8182,73.7573 60.5,74.5C 60.9972,72.784 61.3306,71.1173 61.5,69.5C 62.2945,71.4951 62.9612,73.4951 63.5,75.5 Z"/></g>
<g><path style="opacity:1" fill="#192e21" d="M 25.5,76.5 C 26.552,76.3505 27.552,76.5172 28.5,77C 25.5883,79.0147 23.255,81.5147 21.5,84.5C 20.4884,83.1283 19.4884,81.795 18.5,80.5C 18.1667,80.5 17.8333,80.5 17.5,80.5C 17.5,79.8333 17.5,79.1667 17.5,78.5C 19.4147,78.7845 21.0813,78.4511 22.5,77.5C 23.609,77.4431 24.609,77.1098 25.5,76.5 Z"/></g>
<g><path style="opacity:1" fill="#5c8f6f" d="M 25.5,76.5 C 27.2646,75.5386 29.2646,75.2053 31.5,75.5C 31.4386,77.5922 30.4386,79.0922 28.5,80C 30.0771,81.93 31.4104,81.7633 32.5,79.5C 32.5,80.1667 32.5,80.8333 32.5,81.5C 32.5,82.5 32.5,83.5 32.5,84.5C 28.8405,84.1588 25.5072,84.8255 22.5,86.5C 21.6618,86.1583 21.3284,85.4916 21.5,84.5C 23.255,81.5147 25.5883,79.0147 28.5,77C 27.552,76.5172 26.552,76.3505 25.5,76.5 Z"/></g>
<g><path style="opacity:1" fill="#94938e" d="M 12.5,82.5 C 11.8153,84.4144 11.3153,86.4144 11,88.5C 10.296,86.273 9.12936,85.9397 7.5,87.5C 7.5,86.8333 7.5,86.1667 7.5,85.5C 8.65938,83.7497 10.326,82.7497 12.5,82.5 Z"/></g>
<g><path style="opacity:1" fill="#8a5748" d="M 57.5,78.5 C 58.1894,79.7736 59.0228,79.7736 60,78.5C 60.1118,81.4471 61.6118,82.7804 64.5,82.5C 64.7376,84.4044 65.7376,85.7377 67.5,86.5C 69.0311,87.9245 68.6977,88.5912 66.5,88.5C 64.5441,86.8861 62.5441,85.2194 60.5,83.5C 60.1667,83.8333 59.8333,84.1667 59.5,84.5C 62.4607,87.5686 62.1273,88.5686 58.5,87.5C 58.0847,85.2532 57.4181,83.0865 56.5,81C 56.528,79.9302 56.8614,79.0968 57.5,78.5 Z"/></g>
<g><path style="opacity:1" fill="#c54e5c" d="M 52.5,86.5 C 49.7664,83.8574 46.4331,82.8574 42.5,83.5C 43.1682,86.5002 44.5016,89.1669 46.5,91.5C 44.6675,90.7515 43.0009,89.7515 41.5,88.5C 41.5,86.1667 41.5,83.8333 41.5,81.5C 44.1873,81.3359 46.854,81.5026 49.5,82C 51.1412,83.129 52.1412,84.629 52.5,86.5 Z"/></g>
<g><path style="opacity:1" fill="#e34352" d="M 52.5,86.5 C 52.6854,88.1958 53.5187,89.5291 55,90.5C 55.4935,92.1341 55.6602,93.8008 55.5,95.5C 55.6499,99.1612 54.1499,100.161 51,98.5C 50.5172,97.552 50.3505,96.552 50.5,95.5C 49.5,95.5 48.5,95.5 47.5,95.5C 47.5674,94.0413 47.2341,92.7079 46.5,91.5C 44.5016,89.1669 43.1682,86.5002 42.5,83.5C 46.4331,82.8574 49.7664,83.8574 52.5,86.5 Z"/></g>
<g><path style="opacity:1" fill="#442223" d="M 38.5,74.5 C 37.2613,75.212 36.7613,76.212 37,77.5C 38.5843,78.8613 40.4176,79.528 42.5,79.5C 43.5,79.5 44.5,79.5 45.5,79.5C 48.7147,80.0984 51.7147,81.4317 54.5,83.5C 54.8333,83.1667 55.1667,82.8333 55.5,82.5C 53.1516,81.1397 52.9849,79.4731 55,77.5C 56.4609,76.1175 57.2942,76.4508 57.5,78.5C 56.8614,79.0968 56.528,79.9302 56.5,81C 57.4181,83.0865 58.0847,85.2532 58.5,87.5C 58.5,87.8333 58.5,88.1667 58.5,88.5C 57.8614,89.0968 57.528,89.9302 57.5,91C 58.5222,93.1911 59.5222,95.3578 60.5,97.5C 60.5,97.8333 60.5,98.1667 60.5,98.5C 59.596,99.209 59.2627,100.209 59.5,101.5C 57.7591,103.123 56.7591,104.79 56.5,106.5C 55.6143,105.675 55.281,104.675 55.5,103.5C 55.5,102.833 55.5,102.167 55.5,101.5C 56.9931,100.688 57.6598,99.3545 57.5,97.5C 57.0869,94.4336 56.4203,91.4336 55.5,88.5C 54.6431,87.5748 53.6431,86.9081 52.5,86.5C 52.1412,84.629 51.1412,83.129 49.5,82C 46.854,81.5026 44.1873,81.3359 41.5,81.5C 41.5,83.8333 41.5,86.1667 41.5,88.5C 41.5,88.8333 41.5,89.1667 41.5,89.5C 40.0413,89.4326 38.7079,89.7659 37.5,90.5C 38.5153,86.8441 38.3486,83.1775 37,79.5C 36.3333,80.8333 35.6667,80.8333 35,79.5C 34.6748,82.796 34.5081,85.796 34.5,88.5C 33.8333,86.1667 33.1667,83.8333 32.5,81.5C 32.5,80.8333 32.5,80.1667 32.5,79.5C 32.4326,78.0413 32.7659,76.7079 33.5,75.5C 35.1172,74.962 36.7839,74.6287 38.5,74.5 Z"/></g>
<g><path style="opacity:1" fill="#a35e60" d="M 37.5,90.5 C 36.5,91.8333 35.5,91.8333 34.5,90.5C 34.5,89.8333 34.5,89.1667 34.5,88.5C 34.5081,85.796 34.6748,82.796 35,79.5C 35.6667,80.8333 36.3333,80.8333 37,79.5C 38.3486,83.1775 38.5153,86.8441 37.5,90.5 Z"/></g>
<g><path style="opacity:1" fill="#dbcca7" d="M 17.5,80.5 C 17.8333,80.5 18.1667,80.5 18.5,80.5C 19.3708,85.1824 20.3708,89.849 21.5,94.5C 20.1779,94.67 19.0113,94.3366 18,93.5C 17.2479,97.8517 16.4145,102.185 15.5,106.5C 14.4822,105.807 13.4822,105.141 12.5,104.5C 11.5773,100.936 11.244,97.2693 11.5,93.5C 12.6086,88.734 14.6086,84.4006 17.5,80.5 Z"/></g>
<g><path style="opacity:1" fill="#201b18" d="M 32.5,81.5 C 33.1667,83.8333 33.8333,86.1667 34.5,88.5C 34.5,89.1667 34.5,89.8333 34.5,90.5C 31.0491,90.9836 27.7158,90.9836 24.5,90.5C 23.6554,89.3285 22.9887,87.9952 22.5,86.5C 25.5072,84.8255 28.8405,84.1588 32.5,84.5C 32.5,83.5 32.5,82.5 32.5,81.5 Z"/></g>
<g><path style="opacity:1" fill="#853526" d="M 41.5,88.5 C 43.0009,89.7515 44.6675,90.7515 46.5,91.5C 47.2341,92.7079 47.5674,94.0413 47.5,95.5C 48.968,96.7791 49.6347,98.4458 49.5,100.5C 48.5,99.8333 47.5,99.1667 46.5,98.5C 46.1667,97.8333 45.8333,97.1667 45.5,96.5C 44.5514,94.2228 43.2181,92.2228 41.5,90.5C 41.5,90.1667 41.5,89.8333 41.5,89.5C 41.5,89.1667 41.5,88.8333 41.5,88.5 Z"/></g>
<g><path style="opacity:1" fill="#b59073" d="M 66.5,88.5 C 66.5394,89.5832 66.8728,90.5832 67.5,91.5C 66.3636,91.9643 65.3636,92.2976 64.5,92.5C 63.1751,91.0474 62.3418,91.3808 62,93.5C 61.7767,91.1192 60.61,89.4525 58.5,88.5C 58.5,88.1667 58.5,87.8333 58.5,87.5C 62.1273,88.5686 62.4607,87.5686 59.5,84.5C 59.8333,84.1667 60.1667,83.8333 60.5,83.5C 62.5441,85.2194 64.5441,86.8861 66.5,88.5 Z"/></g>
<g><path style="opacity:1" fill="#3c341b" d="M 41.5,89.5 C 41.5,89.8333 41.5,90.1667 41.5,90.5C 40.0779,90.7496 39.0779,91.583 38.5,93C 35.5184,93.498 32.5184,93.6646 29.5,93.5C 28.0813,92.5489 26.4147,92.2155 24.5,92.5C 24.5,91.8333 24.5,91.1667 24.5,90.5C 27.7158,90.9836 31.0491,90.9836 34.5,90.5C 35.5,91.8333 36.5,91.8333 37.5,90.5C 38.7079,89.7659 40.0413,89.4326 41.5,89.5 Z"/></g>
<g><path style="opacity:1" fill="#625c51" d="M 16.5,77.5 C 17.1667,77.5 17.5,77.8333 17.5,78.5C 17.5,79.1667 17.5,79.8333 17.5,80.5C 14.6086,84.4006 12.6086,88.734 11.5,93.5C 10.7752,97.3953 10.1086,101.395 9.5,105.5C 8.77842,105.918 8.27842,106.584 8,107.5C 8.99713,102.457 8.66379,97.4565 7,92.5C 6.34045,95.0472 6.50712,97.5472 7.5,100C 7.31658,101.684 6.64991,101.85 5.5,100.5C 4.9749,95.8602 5.64157,91.5269 7.5,87.5C 9.12936,85.9397 10.296,86.273 11,88.5C 11.3153,86.4144 11.8153,84.4144 12.5,82.5C 13.2613,81.6091 14.2613,80.9424 15.5,80.5C 16.3857,79.675 16.719,78.675 16.5,77.5 Z"/></g>
<g><path style="opacity:1" fill="#9a765f" d="M 75.5,88.5 C 76.3132,89.6527 77.3132,89.6527 78.5,88.5C 78.8333,89.1667 79.1667,89.8333 79.5,90.5C 78.1115,92.9962 77.1115,95.6628 76.5,98.5C 74.712,98.7852 73.0453,98.4519 71.5,97.5C 72.6527,96.3132 72.6527,95.3132 71.5,94.5C 71.5394,93.4168 71.8728,92.4168 72.5,91.5C 71.5,90.6667 70.5,89.8333 69.5,89C 71.6099,89.3466 73.6099,89.1799 75.5,88.5 Z"/></g>
<g><path style="opacity:1" fill="#dfc589" d="M 41.5,90.5 C 43.2181,92.2228 44.5514,94.2228 45.5,96.5C 39.1667,96.5 32.8333,96.5 26.5,96.5C 26.5,95.5 26.5,94.5 26.5,93.5C 27.5,93.5 28.5,93.5 29.5,93.5C 32.5184,93.6646 35.5184,93.498 38.5,93C 39.0779,91.583 40.0779,90.7496 41.5,90.5 Z"/></g>
<g><path style="opacity:1" fill="#463e38" d="M 58.5,88.5 C 60.61,89.4525 61.7767,91.1192 62,93.5C 62.3418,91.3808 63.1751,91.0474 64.5,92.5C 63.7206,94.677 62.3873,96.3437 60.5,97.5C 59.5222,95.3578 58.5222,93.1911 57.5,91C 57.528,89.9302 57.8614,89.0968 58.5,88.5 Z"/></g>
<g><path style="opacity:1" fill="#9c814c" d="M 24.5,92.5 C 26.4147,92.2155 28.0813,92.5489 29.5,93.5C 28.5,93.5 27.5,93.5 26.5,93.5C 26.5,94.5 26.5,95.5 26.5,96.5C 32.8333,96.5 39.1667,96.5 45.5,96.5C 45.8333,97.1667 46.1667,97.8333 46.5,98.5C 39.4419,98.203 32.4419,98.5363 25.5,99.5C 24.5258,97.2573 24.1924,94.924 24.5,92.5 Z"/></g>
<g><path style="opacity:1" fill="#843441" d="M 52.5,86.5 C 53.6431,86.9081 54.6431,87.5748 55.5,88.5C 56.4203,91.4336 57.0869,94.4336 57.5,97.5C 57.6598,99.3545 56.9931,100.688 55.5,101.5C 56.5729,99.3469 56.5729,97.3469 55.5,95.5C 55.6602,93.8008 55.4935,92.1341 55,90.5C 53.5187,89.5291 52.6854,88.1958 52.5,86.5 Z"/></g>
<g><path style="opacity:1" fill="#b9af8f" d="M 18.5,80.5 C 19.4884,81.795 20.4884,83.1283 21.5,84.5C 21.3284,85.4916 21.6618,86.1583 22.5,86.5C 22.9887,87.9952 23.6554,89.3285 24.5,90.5C 24.5,91.1667 24.5,91.8333 24.5,92.5C 24.1924,94.924 24.5258,97.2573 25.5,99.5C 32.4419,98.5363 39.4419,98.203 46.5,98.5C 40.8333,99.1667 35.1667,99.8333 29.5,100.5C 27.1272,101.994 24.7939,102.327 22.5,101.5C 22.628,99.3453 22.128,97.3453 21,95.5C 20.586,95.9574 20.086,96.2907 19.5,96.5C 18.5067,101.12 18.1734,105.786 18.5,110.5C 15.0478,110.698 13.0478,108.698 12.5,104.5C 13.4822,105.141 14.4822,105.807 15.5,106.5C 16.4145,102.185 17.2479,97.8517 18,93.5C 19.0113,94.3366 20.1779,94.67 21.5,94.5C 20.3708,89.849 19.3708,85.1824 18.5,80.5 Z"/></g>
<g><path style="opacity:1" fill="#be5656" d="M 47.5,95.5 C 48.5,95.5 49.5,95.5 50.5,95.5C 50.3505,96.552 50.5172,97.552 51,98.5C 54.1499,100.161 55.6499,99.1612 55.5,95.5C 56.5729,97.3469 56.5729,99.3469 55.5,101.5C 53.4021,102.484 51.4021,102.151 49.5,100.5C 49.6347,98.4458 48.968,96.7791 47.5,95.5 Z"/></g>
<g><path style="opacity:1" fill="#c5bda4" d="M 75.5,88.5 C 73.6099,89.1799 71.6099,89.3466 69.5,89C 70.5,89.8333 71.5,90.6667 72.5,91.5C 71.8728,92.4168 71.5394,93.4168 71.5,94.5C 70.1626,96.3745 68.8293,98.3745 67.5,100.5C 68.6888,101.429 70.0222,101.762 71.5,101.5C 72.7791,102.968 74.4458,103.635 76.5,103.5C 77.1408,104.482 77.8075,105.482 78.5,106.5C 75.1849,107.553 71.8515,107.553 68.5,106.5C 63.4214,106.089 60.7547,103.422 60.5,98.5C 60.5,98.1667 60.5,97.8333 60.5,97.5C 62.3873,96.3437 63.7206,94.677 64.5,92.5C 65.3636,92.2976 66.3636,91.9643 67.5,91.5C 66.8728,90.5832 66.5394,89.5832 66.5,88.5C 68.6977,88.5912 69.0311,87.9245 67.5,86.5C 67.8807,85.0689 68.8807,84.2355 70.5,84C 69.5009,79.6723 69.1676,75.1723 69.5,70.5C 71.4012,69.7691 73.4012,69.7691 75.5,70.5C 75.5,76.5 75.5,82.5 75.5,88.5 Z"/></g>
<g><path style="opacity:1" fill="#5d473d" d="M 71.5,94.5 C 72.6527,95.3132 72.6527,96.3132 71.5,97.5C 73.0453,98.4519 74.712,98.7852 76.5,98.5C 76.189,99.4778 75.5223,100.145 74.5,100.5C 72.7751,98.9084 71.7751,99.2417 71.5,101.5C 70.0222,101.762 68.6888,101.429 67.5,100.5C 68.8293,98.3745 70.1626,96.3745 71.5,94.5 Z"/></g>
<g><path style="opacity:1" fill="#a59d8a" d="M 11.5,93.5 C 11.244,97.2693 11.5773,100.936 12.5,104.5C 11.5033,107.005 11.5033,109.672 12.5,112.5C 10.5516,110.68 9.55164,108.346 9.5,105.5C 10.1086,101.395 10.7752,97.3953 11.5,93.5 Z"/></g>
<g><path style="opacity:1" fill="#2c2625" d="M 41.5,100.5 C 43.5,100.5 45.5,100.5 47.5,100.5C 47.5,101.5 47.5,102.5 47.5,103.5C 47.1667,104.167 46.8333,104.833 46.5,105.5C 45.522,107.456 44.522,109.456 43.5,111.5C 43.5,111.833 43.5,112.167 43.5,112.5C 42.7784,112.918 42.2784,113.584 42,114.5C 40.2245,106.547 39.2245,106.88 39,115.5C 38.3292,116.252 37.4959,116.586 36.5,116.5C 37.3919,113.576 37.7253,110.742 37.5,108C 36.9056,107.536 36.2389,107.369 35.5,107.5C 35.67,106.178 35.3366,105.011 34.5,104C 39.5081,103.131 39.1748,102.464 33.5,102C 35.8333,101.333 38.1667,101.333 40.5,102C 39.1118,102.889 39.2785,103.389 41,103.5C 41.5,103.333 42,103.167 42.5,103C 41.7476,102.329 41.4142,101.496 41.5,100.5 Z"/></g>
<g><path style="opacity:1" fill="#5e5342" d="M 22.5,101.5 C 21.8501,101.196 21.1835,100.863 20.5,100.5C 19.8328,103.977 19.1661,107.311 18.5,110.5C 18.1734,105.786 18.5067,101.12 19.5,96.5C 20.086,96.2907 20.586,95.9574 21,95.5C 22.128,97.3453 22.628,99.3453 22.5,101.5 Z"/></g>
<g><path style="opacity:1" fill="#29241f" d="M 22.5,101.5 C 24.7939,102.327 27.1272,101.994 29.5,100.5C 30.4056,102.417 31.7389,104.083 33.5,105.5C 32.675,106.386 31.675,106.719 30.5,106.5C 30.3379,108.527 30.5045,110.527 31,112.5C 31.6708,111.748 32.5041,111.414 33.5,111.5C 32.6993,113.042 32.366,114.708 32.5,116.5C 32.5393,118.224 32.206,118.557 31.5,117.5C 31.8693,115.007 31.2027,114.34 29.5,115.5C 26.071,112.31 26.071,108.81 29.5,105C 28.2068,104.51 26.8734,104.343 25.5,104.5C 25.7251,108.056 24.8918,108.39 23,105.5C 21.9701,105.836 21.4701,106.503 21.5,107.5C 20.5655,108.568 20.2322,109.901 20.5,111.5C 20.7148,113.179 20.0481,114.179 18.5,114.5C 18.5,113.167 18.5,111.833 18.5,110.5C 19.1661,107.311 19.8328,103.977 20.5,100.5C 21.1835,100.863 21.8501,101.196 22.5,101.5 Z"/></g>
<g><path style="opacity:1" fill="#34342f" d="M 59.5,101.5 C 59.8782,103.921 60.5448,106.254 61.5,108.5C 59.5,108.5 57.5,108.5 55.5,108.5C 54.1667,106.833 54.1667,105.167 55.5,103.5C 55.281,104.675 55.6143,105.675 56.5,106.5C 56.7591,104.79 57.7591,103.123 59.5,101.5 Z"/></g>
<g><path style="opacity:1" fill="#9e8766" d="M 46.5,98.5 C 47.5,99.1667 48.5,99.8333 49.5,100.5C 51.4021,102.151 53.4021,102.484 55.5,101.5C 55.5,102.167 55.5,102.833 55.5,103.5C 54.1667,105.167 54.1667,106.833 55.5,108.5C 55.5979,110.553 54.9313,112.22 53.5,113.5C 53.5,110.167 53.5,106.833 53.5,103.5C 51.5,103.5 49.5,103.5 47.5,103.5C 47.5,102.5 47.5,101.5 47.5,100.5C 45.5,100.5 43.5,100.5 41.5,100.5C 37.5,100.5 33.5,100.5 29.5,100.5C 35.1667,99.8333 40.8333,99.1667 46.5,98.5 Z"/></g>
<g><path style="opacity:1" fill="#f8f9f8" d="M 7.5,85.5 C 7.5,86.1667 7.5,86.8333 7.5,87.5C 5.64157,91.5269 4.9749,95.8602 5.5,100.5C 5.5,101.167 5.5,101.833 5.5,102.5C 4.50442,106.554 4.83775,110.554 6.5,114.5C 7.50386,119.2 10.1705,122.867 14.5,125.5C 15.1495,127.435 15.4828,129.435 15.5,131.5C 13.8617,133.955 14.195,135.955 16.5,137.5C 16.8333,139.5 17.1667,141.5 17.5,143.5C 17.5,144.5 17.5,145.5 17.5,146.5C 13.4183,146.344 9.41826,146.844 5.5,148C 4.16667,149.333 4.16667,150.667 5.5,152C 4.33333,152.5 3.5,153.333 3,154.5C 2.08529,153.672 1.41862,152.672 1,151.5C 0.21739,153.433 0.71739,154.933 2.5,156C 1.18586,156.985 0.185857,158.152 -0.5,159.5C -0.5,138.167 -0.5,116.833 -0.5,95.5C 0.5,95.5 1.5,95.5 2.5,95.5C 3.02933,90.1777 3.52933,84.8443 4,79.5C 4.21893,80.938 4.71893,82.2713 5.5,83.5C 7.2141,82.3915 7.88077,83.0582 7.5,85.5 Z"/></g>
<g><path style="opacity:1" fill="#504a47" d="M 29.5,115.5 C 29.6716,116.492 29.3382,117.158 28.5,117.5C 28.1436,115.81 27.1436,114.81 25.5,114.5C 25.5,112.5 25.5,110.5 25.5,108.5C 24.0413,108.567 22.7079,108.234 21.5,107.5C 21.4701,106.503 21.9701,105.836 23,105.5C 24.8918,108.39 25.7251,108.056 25.5,104.5C 26.8734,104.343 28.2068,104.51 29.5,105C 26.071,108.81 26.071,112.31 29.5,115.5 Z"/></g>
<g><path style="opacity:1" fill="#141313" d="M 29.5,100.5 C 33.5,100.5 37.5,100.5 41.5,100.5C 41.4142,101.496 41.7476,102.329 42.5,103C 42,103.167 41.5,103.333 41,103.5C 39.2785,103.389 39.1118,102.889 40.5,102C 38.1667,101.333 35.8333,101.333 33.5,102C 39.1748,102.464 39.5081,103.131 34.5,104C 35.3366,105.011 35.67,106.178 35.5,107.5C 34.8333,108.833 34.1667,110.167 33.5,111.5C 32.5041,111.414 31.6708,111.748 31,112.5C 30.5045,110.527 30.3379,108.527 30.5,106.5C 31.675,106.719 32.675,106.386 33.5,105.5C 31.7389,104.083 30.4056,102.417 29.5,100.5 Z"/></g>
<g><path style="opacity:1" fill="#808072" d="M 81.5,84.5 C 82.4916,91.6476 82.825,98.9809 82.5,106.5C 80.8212,106.285 79.8212,106.952 79.5,108.5C 76.5525,108.223 73.7191,108.556 71,109.5C 70.3021,108.309 69.4687,107.309 68.5,106.5C 71.8515,107.553 75.1849,107.553 78.5,106.5C 77.8075,105.482 77.1408,104.482 76.5,103.5C 78.0443,103.703 79.3777,104.37 80.5,105.5C 81.497,98.5316 81.8303,91.5316 81.5,84.5 Z"/></g>
<g><path style="opacity:1" fill="#949593" d="M 5.5,102.5 C 6.02087,106.481 6.3542,110.481 6.5,114.5C 4.83775,110.554 4.50442,106.554 5.5,102.5 Z"/></g>
<g><path style="opacity:1" fill="#514e46" d="M 60.5,98.5 C 60.7547,103.422 63.4214,106.089 68.5,106.5C 69.4687,107.309 70.3021,108.309 71,109.5C 73.7191,108.556 76.5525,108.223 79.5,108.5C 81.7221,108.975 82.3888,109.975 81.5,111.5C 80.5,111.5 79.5,111.5 78.5,111.5C 78.0296,110.307 77.0296,109.64 75.5,109.5C 67.6226,110.619 67.6226,111.619 75.5,112.5C 75.3379,114.527 75.5045,116.527 76,118.5C 76.3826,117.944 76.8826,117.611 77.5,117.5C 74.7655,122.899 72.7655,128.566 71.5,134.5C 70.596,133.791 70.2627,132.791 70.5,131.5C 72.7157,126.025 73.549,120.359 73,114.5C 72.586,114.043 72.086,113.709 71.5,113.5C 70.9892,115.884 69.9892,117.884 68.5,119.5C 68.5,116.5 68.5,113.5 68.5,110.5C 65.8915,110.6 63.5582,109.933 61.5,108.5C 60.5448,106.254 59.8782,103.921 59.5,101.5C 59.2627,100.209 59.596,99.209 60.5,98.5 Z"/></g>
<g><path style="opacity:1" fill="#786a5a" d="M 46.5,105.5 C 46.9629,108.482 47.2962,111.482 47.5,114.5C 47.1667,114.5 46.8333,114.5 46.5,114.5C 46.8543,111.506 45.8543,110.506 43.5,111.5C 44.522,109.456 45.522,107.456 46.5,105.5 Z"/></g>
<g><path style="opacity:1" fill="#e4d584" d="M 47.5,103.5 C 49.5,103.5 51.5,103.5 53.5,103.5C 53.5,106.833 53.5,110.167 53.5,113.5C 52.4138,113.62 51.7472,114.287 51.5,115.5C 49.1857,124.693 47.8523,124.36 47.5,114.5C 47.2962,111.482 46.9629,108.482 46.5,105.5C 46.8333,104.833 47.1667,104.167 47.5,103.5 Z"/></g>
<g><path style="opacity:1" fill="#918a85" d="M 21.5,107.5 C 22.7079,108.234 24.0413,108.567 25.5,108.5C 25.5,110.5 25.5,112.5 25.5,114.5C 25.067,117.166 24.567,119.832 24,122.5C 23.6174,123.056 23.1174,123.389 22.5,123.5C 22.4208,122.07 22.7542,120.736 23.5,119.5C 22.0515,116.904 21.0515,114.237 20.5,111.5C 20.2322,109.901 20.5655,108.568 21.5,107.5 Z"/></g>
<g><path style="opacity:1" fill="#484845" d="M 88.5,110.5 C 88.1138,117.653 86.4471,124.32 83.5,130.5C 82.7794,133.544 80.7794,135.211 77.5,135.5C 77.3379,133.473 77.5045,131.473 78,129.5C 78.6891,130.357 79.5224,131.023 80.5,131.5C 83.8953,125.259 86.0619,118.593 87,111.5C 87.3826,110.944 87.8826,110.611 88.5,110.5 Z"/></g>
<g><path style="opacity:1" fill="#3f3f3b" d="M 9.5,105.5 C 9.55164,108.346 10.5516,110.68 12.5,112.5C 11.2995,116.913 12.2995,119.913 15.5,121.5C 15.7678,123.099 15.4345,124.432 14.5,125.5C 10.1705,122.867 7.50386,119.2 6.5,114.5C 6.3542,110.481 6.02087,106.481 5.5,102.5C 5.5,101.833 5.5,101.167 5.5,100.5C 6.64991,101.85 7.31658,101.684 7.5,100C 6.50712,97.5472 6.34045,95.0472 7,92.5C 8.66379,97.4565 8.99713,102.457 8,107.5C 8.27842,106.584 8.77842,105.918 9.5,105.5 Z"/></g>
<g><path style="opacity:1" fill="#676656" d="M 12.5,104.5 C 13.0478,108.698 15.0478,110.698 18.5,110.5C 18.5,111.833 18.5,113.167 18.5,114.5C 16.4935,113.321 16.1602,113.821 17.5,116C 16.5509,116.617 15.7175,116.451 15,115.5C 14.8195,117.488 14.9862,119.488 15.5,121.5C 12.2995,119.913 11.2995,116.913 12.5,112.5C 11.5033,109.672 11.5033,107.005 12.5,104.5 Z"/></g>
<g><path style="opacity:1" fill="#21201e" d="M 78.5,111.5 C 77.8505,113.435 77.5172,115.435 77.5,117.5C 76.8826,117.611 76.3826,117.944 76,118.5C 75.5045,116.527 75.3379,114.527 75.5,112.5C 67.6226,111.619 67.6226,110.619 75.5,109.5C 77.0296,109.64 78.0296,110.307 78.5,111.5 Z"/></g>
<g><path style="opacity:1" fill="#7c7b74" d="M 35.5,107.5 C 36.2389,107.369 36.9056,107.536 37.5,108C 37.7253,110.742 37.3919,113.576 36.5,116.5C 35.8333,116.5 35.5,116.833 35.5,117.5C 34.8333,117.5 34.5,117.833 34.5,118.5C 33.8333,117.833 33.1667,117.167 32.5,116.5C 32.366,114.708 32.6993,113.042 33.5,111.5C 34.1667,110.167 34.8333,108.833 35.5,107.5 Z"/></g>
<g><path style="opacity:1" fill="#4d4c4d" d="M 43.5,112.5 C 43.5,112.833 43.5,113.167 43.5,113.5C 43.3404,115.153 42.6737,116.486 41.5,117.5C 41.631,116.761 41.4643,116.094 41,115.5C 40,117.167 38.6667,118.5 37,119.5C 36.7216,118.584 36.2216,117.918 35.5,117.5C 35.5,116.833 35.8333,116.5 36.5,116.5C 37.4959,116.586 38.3292,116.252 39,115.5C 39.2245,106.88 40.2245,106.547 42,114.5C 42.2784,113.584 42.7784,112.918 43.5,112.5 Z"/></g>
<g><path style="opacity:1" fill="#c3b6ae" d="M 46.5,114.5 C 46.5,117.5 46.5,120.5 46.5,123.5C 49.344,123.343 51.0107,124.676 51.5,127.5C 50.8333,127.5 50.1667,127.5 49.5,127.5C 48.2876,126.77 47.2876,125.77 46.5,124.5C 45.6143,125.325 45.281,126.325 45.5,127.5C 45.3809,122.701 45.2142,117.701 45,112.5C 44.6174,113.056 44.1174,113.389 43.5,113.5C 43.5,113.167 43.5,112.833 43.5,112.5C 43.5,112.167 43.5,111.833 43.5,111.5C 45.8543,110.506 46.8543,111.506 46.5,114.5 Z"/></g>
<g><path style="opacity:1" fill="#b8b9b2" d="M 70.5,131.5 C 69.3054,131.134 68.6387,130.301 68.5,129C 69.7321,126.017 69.7321,123.184 68.5,120.5C 68.5,120.167 68.5,119.833 68.5,119.5C 69.9892,117.884 70.9892,115.884 71.5,113.5C 72.086,113.709 72.586,114.043 73,114.5C 73.549,120.359 72.7157,126.025 70.5,131.5 Z"/></g>
<g><path style="opacity:1" fill="#999994" d="M 82.5,106.5 C 85.1979,106.845 87.1979,108.178 88.5,110.5C 87.8826,110.611 87.3826,110.944 87,111.5C 86.0619,118.593 83.8953,125.259 80.5,131.5C 79.5224,131.023 78.6891,130.357 78,129.5C 77.5045,131.473 77.3379,133.473 77.5,135.5C 76.3709,133.372 76.2042,131.039 77,128.5C 78.7703,125.574 80.437,122.574 82,119.5C 82.7218,116.739 82.5552,114.073 81.5,111.5C 82.3888,109.975 81.7221,108.975 79.5,108.5C 79.8212,106.952 80.8212,106.285 82.5,106.5 Z"/></g>
<g><path style="opacity:1" fill="#342f2c" d="M 25.5,114.5 C 27.1436,114.81 28.1436,115.81 28.5,117.5C 28.3404,119.153 27.6737,120.486 26.5,121.5C 23.108,127.404 21.108,133.737 20.5,140.5C 20.5,139.5 20.5,138.5 20.5,137.5C 19.1667,137.5 17.8333,137.5 16.5,137.5C 14.195,135.955 13.8617,133.955 15.5,131.5C 16.4345,132.568 16.7678,133.901 16.5,135.5C 17.5,135.5 18.5,135.5 19.5,135.5C 19.9926,133.194 20.3259,130.861 20.5,128.5C 20.0773,126.219 20.744,124.552 22.5,123.5C 23.1174,123.389 23.6174,123.056 24,122.5C 24.567,119.832 25.067,117.166 25.5,114.5 Z"/></g>
<g><path style="opacity:1" fill="#dbd6d3" d="M 31.5,117.5 C 30.7709,120.541 29.6043,123.541 28,126.5C 26.7308,125.095 26.2308,123.429 26.5,121.5C 27.6737,120.486 28.3404,119.153 28.5,117.5C 29.3382,117.158 29.6716,116.492 29.5,115.5C 31.2027,114.34 31.8693,115.007 31.5,117.5 Z"/></g>
<g><path style="opacity:1" fill="#292824" d="M 41.5,117.5 C 39.4202,119.573 37.7536,121.907 36.5,124.5C 35.8333,125.167 35.1667,125.833 34.5,126.5C 34.5,125.5 34.5,124.5 34.5,123.5C 33.438,121.766 33.438,120.099 34.5,118.5C 34.5,117.833 34.8333,117.5 35.5,117.5C 36.2216,117.918 36.7216,118.584 37,119.5C 38.6667,118.5 40,117.167 41,115.5C 41.4643,116.094 41.631,116.761 41.5,117.5 Z"/></g>
<g><path style="opacity:1" fill="#bfbaa3" d="M 20.5,111.5 C 21.0515,114.237 22.0515,116.904 23.5,119.5C 22.7542,120.736 22.4208,122.07 22.5,123.5C 20.744,124.552 20.0773,126.219 20.5,128.5C 18.9826,128.489 17.8159,127.823 17,126.5C 16.8019,124.618 16.3019,122.952 15.5,121.5C 14.9862,119.488 14.8195,117.488 15,115.5C 15.7175,116.451 16.5509,116.617 17.5,116C 16.1602,113.821 16.4935,113.321 18.5,114.5C 20.0481,114.179 20.7148,113.179 20.5,111.5 Z"/></g>
<g><path style="opacity:1" fill="#aaa6a0" d="M 34.5,123.5 C 34.5,124.5 34.5,125.5 34.5,126.5C 34.5299,127.497 34.0299,128.164 33,128.5C 30.4103,127.313 29.9103,125.48 31.5,123C 32.5768,122.53 33.5768,122.697 34.5,123.5 Z"/></g>
<g><path style="opacity:1" fill="#70706d" d="M 68.5,120.5 C 69.7321,123.184 69.7321,126.017 68.5,129C 68.6387,130.301 69.3054,131.134 70.5,131.5C 70.2627,132.791 70.596,133.791 71.5,134.5C 71.8168,138.702 71.4834,142.702 70.5,146.5C 70.8128,142.958 70.4794,139.625 69.5,136.5C 69.631,135.761 69.4643,135.094 69,134.5C 68.2729,138.642 67.2729,142.642 66,146.5C 65.5172,145.552 65.3505,144.552 65.5,143.5C 66.2248,135.809 67.2248,128.143 68.5,120.5 Z"/></g>
<g><path style="opacity:1" fill="#565452" d="M 32.5,116.5 C 33.1667,117.167 33.8333,117.833 34.5,118.5C 33.438,120.099 33.438,121.766 34.5,123.5C 33.5768,122.697 32.5768,122.53 31.5,123C 29.9103,125.48 30.4103,127.313 33,128.5C 34.0299,128.164 34.5299,127.497 34.5,126.5C 35.1667,125.833 35.8333,125.167 36.5,124.5C 36.3398,126.199 36.5065,127.866 37,129.5C 38.7073,131.037 40.2073,132.704 41.5,134.5C 41.5,134.833 41.5,135.167 41.5,135.5C 39.1326,133.82 36.9659,131.82 35,129.5C 34.8333,129.833 34.6667,130.167 34.5,130.5C 37.5722,134.575 40.2388,138.908 42.5,143.5C 41.8728,144.417 41.5394,145.417 41.5,146.5C 40.8333,145.833 40.1667,145.167 39.5,144.5C 40.6817,142.439 40.0151,140.939 37.5,140C 36.735,134.371 33.4017,130.538 27.5,128.5C 26.8333,128.667 26.1667,128.833 25.5,129C 27.5,130.667 29.5,132.333 31.5,134C 30.0798,135.53 29.0798,137.363 28.5,139.5C 23.0733,132.057 21.0733,133.057 22.5,142.5C 22.5,143.167 22.1667,143.5 21.5,143.5C 20.596,142.791 20.2627,141.791 20.5,140.5C 21.108,133.737 23.108,127.404 26.5,121.5C 26.2308,123.429 26.7308,125.095 28,126.5C 29.6043,123.541 30.7709,120.541 31.5,117.5C 32.206,118.557 32.5393,118.224 32.5,116.5 Z"/></g>
<g><path style="opacity:1" fill="#8f897d" d="M 15.5,121.5 C 16.3019,122.952 16.8019,124.618 17,126.5C 17.8159,127.823 18.9826,128.489 20.5,128.5C 20.3259,130.861 19.9926,133.194 19.5,135.5C 18.5,135.5 17.5,135.5 16.5,135.5C 16.7678,133.901 16.4345,132.568 15.5,131.5C 15.4828,129.435 15.1495,127.435 14.5,125.5C 15.4345,124.432 15.7678,123.099 15.5,121.5 Z"/></g>
<g><path style="opacity:1" fill="#f4f4f1" d="M 55.5,108.5 C 57.5,108.5 59.5,108.5 61.5,108.5C 63.5582,109.933 65.8915,110.6 68.5,110.5C 68.5,113.5 68.5,116.5 68.5,119.5C 68.5,119.833 68.5,120.167 68.5,120.5C 67.2248,128.143 66.2248,135.809 65.5,143.5C 64.5655,144.568 64.2322,145.901 64.5,147.5C 62.6776,147.169 61.0109,146.502 59.5,145.5C 59.6716,144.508 59.3382,143.842 58.5,143.5C 56.7367,142.046 55.4033,142.38 54.5,144.5C 52.9256,144.063 51.7589,143.063 51,141.5C 50.6667,142.833 50.3333,144.167 50,145.5C 49.3292,144.748 48.4959,144.414 47.5,144.5C 46.8826,144.389 46.3826,144.056 46,143.5C 46.3524,139.458 44.8524,136.458 41.5,134.5C 40.2073,132.704 38.7073,131.037 37,129.5C 36.5065,127.866 36.3398,126.199 36.5,124.5C 37.7536,121.907 39.4202,119.573 41.5,117.5C 42.6737,116.486 43.3404,115.153 43.5,113.5C 44.1174,113.389 44.6174,113.056 45,112.5C 45.2142,117.701 45.3809,122.701 45.5,127.5C 47.8736,129.876 50.5402,132.043 53.5,134C 55.2588,134.798 56.9255,134.631 58.5,133.5C 58.1445,132.478 57.4778,131.811 56.5,131.5C 55.7368,129.632 54.7368,127.965 53.5,126.5C 52.2741,122.178 52.2741,117.845 53.5,113.5C 54.9313,112.22 55.5979,110.553 55.5,108.5 Z"/></g>
<g><path style="opacity:1" fill="#3f474f" d="M 49.5,127.5 C 50.855,130.518 53.1884,131.851 56.5,131.5C 57.4778,131.811 58.1445,132.478 58.5,133.5C 56.9255,134.631 55.2588,134.798 53.5,134C 50.5402,132.043 47.8736,129.876 45.5,127.5C 45.281,126.325 45.6143,125.325 46.5,124.5C 47.2876,125.77 48.2876,126.77 49.5,127.5 Z"/></g>
<g><path style="opacity:1" fill="#5e8489" d="M 53.5,126.5 C 54.7368,127.965 55.7368,129.632 56.5,131.5C 53.1884,131.851 50.855,130.518 49.5,127.5C 50.1667,127.5 50.8333,127.5 51.5,127.5C 52.1667,127.167 52.8333,126.833 53.5,126.5 Z"/></g>
<g><path style="opacity:1" fill="#998f71" d="M 53.5,113.5 C 52.2741,117.845 52.2741,122.178 53.5,126.5C 52.8333,126.833 52.1667,127.167 51.5,127.5C 51.0107,124.676 49.344,123.343 46.5,123.5C 46.5,120.5 46.5,117.5 46.5,114.5C 46.8333,114.5 47.1667,114.5 47.5,114.5C 47.8523,124.36 49.1857,124.693 51.5,115.5C 51.7472,114.287 52.4138,113.62 53.5,113.5 Z"/></g>
<g><path style="opacity:1" fill="#e9e9e8" d="M 78.5,111.5 C 79.5,111.5 80.5,111.5 81.5,111.5C 82.5552,114.073 82.7218,116.739 82,119.5C 80.437,122.574 78.7703,125.574 77,128.5C 76.2042,131.039 76.3709,133.372 77.5,135.5C 80.7794,135.211 82.7794,133.544 83.5,130.5C 84.0168,133.368 84.3501,136.034 84.5,138.5C 84.1667,138.833 83.8333,139.167 83.5,139.5C 82.4495,138.115 81.1161,137.115 79.5,136.5C 78.1798,138.864 78.8465,140.531 81.5,141.5C 84.3616,141.135 85.8616,139.469 86,136.5C 86.3301,140.048 87.1634,143.382 88.5,146.5C 88.2172,147.289 87.7172,147.956 87,148.5C 86.7811,147.062 86.2811,145.729 85.5,144.5C 84.7348,145.612 83.7348,146.279 82.5,146.5C 82.2343,142.921 80.901,142.587 78.5,145.5C 77.8076,144.975 77.3076,144.308 77,143.5C 76.0619,146.723 73.8952,148.056 70.5,147.5C 70.5,147.167 70.5,146.833 70.5,146.5C 71.4834,142.702 71.8168,138.702 71.5,134.5C 72.7655,128.566 74.7655,122.899 77.5,117.5C 77.5172,115.435 77.8505,113.435 78.5,111.5 Z"/></g>
<g><path style="opacity:1" fill="#ada8a3" d="M 41.5,135.5 C 43.181,138.582 43.8476,141.915 43.5,145.5C 43.5,146.167 43.1667,146.5 42.5,146.5C 42.1667,146.5 41.8333,146.5 41.5,146.5C 41.5394,145.417 41.8728,144.417 42.5,143.5C 40.2388,138.908 37.5722,134.575 34.5,130.5C 34.6667,130.167 34.8333,129.833 35,129.5C 36.9659,131.82 39.1326,133.82 41.5,135.5 Z"/></g>
<g><path style="opacity:1" fill="#e6e5e3" d="M 39.5,144.5 C 38.8333,144.833 38.1667,145.167 37.5,145.5C 35.9087,144.781 34.4087,143.781 33,142.5C 31.8869,143.711 30.7202,143.711 29.5,142.5C 29.1667,143.167 28.8333,143.833 28.5,144.5C 27.5832,143.873 26.5832,143.539 25.5,143.5C 24.391,143.443 23.391,143.11 22.5,142.5C 21.0733,133.057 23.0733,132.057 28.5,139.5C 29.0798,137.363 30.0798,135.53 31.5,134C 29.5,132.333 27.5,130.667 25.5,129C 26.1667,128.833 26.8333,128.667 27.5,128.5C 33.4017,130.538 36.735,134.371 37.5,140C 40.0151,140.939 40.6817,142.439 39.5,144.5 Z"/></g>
<g><path style="opacity:1" fill="#2c2b25" d="M 41.5,134.5 C 44.8524,136.458 46.3524,139.458 46,143.5C 46.3826,144.056 46.8826,144.389 47.5,144.5C 46.7893,146.842 45.456,147.175 43.5,145.5C 43.8476,141.915 43.181,138.582 41.5,135.5C 41.5,135.167 41.5,134.833 41.5,134.5 Z"/></g>
<g><path style="opacity:1" fill="#89837e" d="M 16.5,137.5 C 17.8333,137.5 19.1667,137.5 20.5,137.5C 20.5,138.5 20.5,139.5 20.5,140.5C 19.8999,141.9 18.8999,142.9 17.5,143.5C 17.1667,141.5 16.8333,139.5 16.5,137.5 Z"/></g>
<g><path style="opacity:1" fill="#898d86" d="M 58.5,143.5 C 57.7081,145.745 56.3747,146.078 54.5,144.5C 55.4033,142.38 56.7367,142.046 58.5,143.5 Z"/></g>
<g><path style="opacity:1" fill="#959485" d="M 22.5,142.5 C 23.391,143.11 24.391,143.443 25.5,143.5C 26.9418,144.82 27.6085,146.486 27.5,148.5C 26.1943,147.032 24.6943,145.699 23,144.5C 22.5357,145.094 22.369,145.761 22.5,146.5C 21.8826,146.389 21.3826,146.056 21,145.5C 20.51,146.793 20.3433,148.127 20.5,149.5C 18.8212,149.715 17.8212,149.048 17.5,147.5C 18.404,146.791 18.7373,145.791 18.5,144.5C 19.791,144.737 20.791,144.404 21.5,143.5C 22.1667,143.5 22.5,143.167 22.5,142.5 Z"/></g>
<g><path style="opacity:1" fill="#5c6555" d="M 37.5,145.5 C 37.9175,146.222 38.5842,146.722 39.5,147C 38.944,147.383 38.6107,147.883 38.5,148.5C 36.9505,147.559 35.2838,146.893 33.5,146.5C 31.3159,145.892 29.3159,146.559 27.5,148.5C 27.6085,146.486 26.9418,144.82 25.5,143.5C 26.5832,143.539 27.5832,143.873 28.5,144.5C 28.8333,143.833 29.1667,143.167 29.5,142.5C 30.7202,143.711 31.8869,143.711 33,142.5C 34.4087,143.781 35.9087,144.781 37.5,145.5 Z"/></g>
<g><path style="opacity:1" fill="#616c63" d="M 54.5,144.5 C 54.5,144.833 54.5,145.167 54.5,145.5C 52.1732,145.665 50.0065,146.331 48,147.5C 47.2274,149.352 47.7274,150.686 49.5,151.5C 49.6567,152.873 49.49,154.207 49,155.5C 48,154.167 47,152.833 46,151.5C 46,152.833 46,154.167 46,155.5C 44.8873,154.695 43.7206,154.028 42.5,153.5C 42.8333,152.833 43.1667,152.167 43.5,151.5C 46.4842,149.159 46.1508,147.492 42.5,146.5C 43.1667,146.5 43.5,146.167 43.5,145.5C 45.456,147.175 46.7893,146.842 47.5,144.5C 48.4959,144.414 49.3292,144.748 50,145.5C 50.3333,144.167 50.6667,142.833 51,141.5C 51.7589,143.063 52.9256,144.063 54.5,144.5 Z"/></g>
<g><path style="opacity:1" fill="#b6b4b0" d="M 69.5,136.5 C 69.8282,141.875 69.4948,147.208 68.5,152.5C 67.8933,152.376 67.56,152.043 67.5,151.5C 67.9118,149.027 66.9118,147.694 64.5,147.5C 64.2322,145.901 64.5655,144.568 65.5,143.5C 65.3505,144.552 65.5172,145.552 66,146.5C 67.2729,142.642 68.2729,138.642 69,134.5C 69.4643,135.094 69.631,135.761 69.5,136.5 Z"/></g>
<g><path style="opacity:1" fill="#242b22" d="M 39.5,144.5 C 40.1667,145.167 40.8333,145.833 41.5,146.5C 41.8333,146.5 42.1667,146.5 42.5,146.5C 46.1508,147.492 46.4842,149.159 43.5,151.5C 41.7121,150.64 40.0455,149.64 38.5,148.5C 38.6107,147.883 38.944,147.383 39.5,147C 38.5842,146.722 37.9175,146.222 37.5,145.5C 38.1667,145.167 38.8333,144.833 39.5,144.5 Z"/></g>
<g><path style="opacity:1" fill="#989c95" d="M 59.5,145.5 C 61.0109,146.502 62.6776,147.169 64.5,147.5C 63.5009,150.174 61.8342,150.841 59.5,149.5C 60.4848,147.686 60.4848,146.352 59.5,145.5 Z"/></g>
<g><path style="opacity:1" fill="#576b61" d="M 88.5,146.5 C 89.3543,147.632 89.3543,148.965 88.5,150.5C 86.9081,149.398 86.0748,150.065 86,152.5C 83.5451,151.257 82.3784,149.257 82.5,146.5C 83.7348,146.279 84.7348,145.612 85.5,144.5C 86.2811,145.729 86.7811,147.062 87,148.5C 87.7172,147.956 88.2172,147.289 88.5,146.5 Z"/></g>
<g><path style="opacity:1" fill="#293b29" d="M 27.5,148.5 C 29.3159,146.559 31.3159,145.892 33.5,146.5C 33.2381,148.564 32.0714,149.897 30,150.5C 29.5172,151.448 29.3505,152.448 29.5,153.5C 28.7677,152.192 27.9344,150.858 27,149.5C 26.5357,150.094 26.369,150.761 26.5,151.5C 25.8724,149.338 24.539,147.672 22.5,146.5C 22.369,145.761 22.5357,145.094 23,144.5C 24.6943,145.699 26.1943,147.032 27.5,148.5 Z"/></g>
<g><path style="opacity:1" fill="#6e6e6e" d="M 12.5,149.5 C 13.404,150.209 13.7373,151.209 13.5,152.5C 11.4458,152.365 9.77914,153.032 8.5,154.5C 8.27858,153.265 7.61191,152.265 6.5,151.5C 7.92229,150.453 9.42229,150.453 11,151.5C 12.0299,151.164 12.5299,150.497 12.5,149.5 Z"/></g>
<g><path style="opacity:1" fill="#3d6553" d="M 54.5,145.5 C 57.7449,148.689 57.7449,151.689 54.5,154.5C 56.0581,156.405 55.7248,157.239 53.5,157C 52.7877,155.575 52.621,154.075 53,152.5C 51.9887,151.663 50.8221,151.33 49.5,151.5C 47.7274,150.686 47.2274,149.352 48,147.5C 50.0065,146.331 52.1732,145.665 54.5,145.5 Z"/></g>
<g><path style="opacity:1" fill="#475f55" d="M 64.5,147.5 C 66.9118,147.694 67.9118,149.027 67.5,151.5C 66.6236,151.369 65.9569,151.702 65.5,152.5C 67.4829,153.982 69.3163,155.649 71,157.5C 71.6172,158.449 71.4506,159.282 70.5,160C 71.7932,160.49 73.1266,160.657 74.5,160.5C 73.7249,158.388 73.7249,156.388 74.5,154.5C 75.1001,155.9 76.1001,156.9 77.5,157.5C 76.913,158.767 76.913,159.767 77.5,160.5C 80.9184,158.763 84.4184,158.43 88,159.5C 89.0299,159.164 89.5299,158.497 89.5,157.5C 90.404,158.209 90.7373,159.209 90.5,160.5C 88.901,160.232 87.5676,160.566 86.5,161.5C 79.8333,161.5 73.1667,161.5 66.5,161.5C 65.9688,159.456 64.8022,157.789 63,156.5C 62.6667,154.833 62.3333,153.167 62,151.5C 60.3831,152.536 60.2164,153.703 61.5,155C 59.54,156.939 58.2066,156.439 57.5,153.5C 58.1799,152.14 58.8466,150.807 59.5,149.5C 61.8342,150.841 63.5009,150.174 64.5,147.5 Z"/></g>
<g><path style="opacity:1" fill="#252d26" d="M 69.5,136.5 C 70.4794,139.625 70.8128,142.958 70.5,146.5C 70.5,146.833 70.5,147.167 70.5,147.5C 71.1098,148.391 71.4431,149.391 71.5,150.5C 71.3433,151.873 71.51,153.207 72,154.5C 72.6708,153.748 73.5041,153.414 74.5,153.5C 74.5,153.833 74.5,154.167 74.5,154.5C 73.7249,156.388 73.7249,158.388 74.5,160.5C 73.1266,160.657 71.7932,160.49 70.5,160C 71.4506,159.282 71.6172,158.449 71,157.5C 69.3163,155.649 67.4829,153.982 65.5,152.5C 65.9569,151.702 66.6236,151.369 67.5,151.5C 67.56,152.043 67.8933,152.376 68.5,152.5C 69.4948,147.208 69.8282,141.875 69.5,136.5 Z"/></g>
<g><path style="opacity:1" fill="#467d64" d="M 74.5,153.5 C 73.5041,153.414 72.6708,153.748 72,154.5C 71.51,153.207 71.3433,151.873 71.5,150.5C 74.5274,149.491 77.5274,149.491 80.5,150.5C 78.711,152.033 76.711,153.033 74.5,153.5 Z"/></g>
<g><path style="opacity:1" fill="#2c4a3c" d="M 82.5,146.5 C 82.3784,149.257 83.5451,151.257 86,152.5C 86.0748,150.065 86.9081,149.398 88.5,150.5C 88.7214,151.735 89.3881,152.735 90.5,153.5C 89.7542,154.736 89.4208,156.07 89.5,157.5C 89.5299,158.497 89.0299,159.164 88,159.5C 84.4184,158.43 80.9184,158.763 77.5,160.5C 76.913,159.767 76.913,158.767 77.5,157.5C 76.1001,156.9 75.1001,155.9 74.5,154.5C 74.5,154.167 74.5,153.833 74.5,153.5C 76.711,153.033 78.711,152.033 80.5,150.5C 77.5274,149.491 74.5274,149.491 71.5,150.5C 71.4431,149.391 71.1098,148.391 70.5,147.5C 73.8952,148.056 76.0619,146.723 77,143.5C 77.3076,144.308 77.8076,144.975 78.5,145.5C 80.901,142.587 82.2343,142.921 82.5,146.5 Z"/></g>
<g><path style="opacity:1" fill="#c7c1b5" d="M 22.5,146.5 C 24.539,147.672 25.8724,149.338 26.5,151.5C 27.3007,153.042 27.634,154.708 27.5,156.5C 26.5,156.5 25.5,156.5 24.5,156.5C 23.5324,153.9 22.1991,151.566 20.5,149.5C 20.3433,148.127 20.51,146.793 21,145.5C 21.3826,146.056 21.8826,146.389 22.5,146.5 Z"/></g>
<g><path style="opacity:1" fill="#38604f" d="M 33.5,146.5 C 35.2838,146.893 36.9505,147.559 38.5,148.5C 40.0455,149.64 41.7121,150.64 43.5,151.5C 43.1667,152.167 42.8333,152.833 42.5,153.5C 41.9569,153.56 41.6236,153.893 41.5,154.5C 42.0736,156.059 42.7402,157.559 43.5,159C 42.1279,159.402 40.7946,159.902 39.5,160.5C 37.0351,160.057 34.7018,159.724 32.5,159.5C 36.691,158.103 37.5243,155.437 35,151.5C 33.1852,152.244 31.3519,152.911 29.5,153.5C 29.3505,152.448 29.5172,151.448 30,150.5C 32.0714,149.897 33.2381,148.564 33.5,146.5 Z"/></g>
<g><path style="opacity:1" fill="#587e6e" d="M 77.5,157.5 C 77.4142,156.504 77.7476,155.671 78.5,155C 81.5131,154.498 84.5131,153.998 87.5,153.5C 87.6567,154.873 87.49,156.207 87,157.5C 83.8689,156.3 80.7023,156.3 77.5,157.5 Z"/></g>
<g><path style="opacity:1" fill="#35473e" d="M 58.5,143.5 C 59.3382,143.842 59.6716,144.508 59.5,145.5C 60.4848,146.352 60.4848,147.686 59.5,149.5C 58.8466,150.807 58.1799,152.14 57.5,153.5C 58.2066,156.439 59.54,156.939 61.5,155C 60.2164,153.703 60.3831,152.536 62,151.5C 62.3333,153.167 62.6667,154.833 63,156.5C 64.8022,157.789 65.9688,159.456 66.5,161.5C 47.1667,161.5 27.8333,161.5 8.5,161.5C 8.71481,159.821 8.04814,158.821 6.5,158.5C 6.15684,156.517 6.82351,155.183 8.5,154.5C 9.77914,153.032 11.4458,152.365 13.5,152.5C 13.7373,151.209 13.404,150.209 12.5,149.5C 11.9569,149.44 11.6236,149.107 11.5,148.5C 13.396,147.534 15.396,147.201 17.5,147.5C 17.8212,149.048 18.8212,149.715 20.5,149.5C 22.1991,151.566 23.5324,153.9 24.5,156.5C 23.7101,157.794 22.7101,158.961 21.5,160C 25.1401,160.283 28.8067,160.117 32.5,159.5C 34.7018,159.724 37.0351,160.057 39.5,160.5C 40.7946,159.902 42.1279,159.402 43.5,159C 42.7402,157.559 42.0736,156.059 41.5,154.5C 41.6236,153.893 41.9569,153.56 42.5,153.5C 43.7206,154.028 44.8873,154.695 46,155.5C 46,154.167 46,152.833 46,151.5C 47,152.833 48,154.167 49,155.5C 49.49,154.207 49.6567,152.873 49.5,151.5C 50.8221,151.33 51.9887,151.663 53,152.5C 52.621,154.075 52.7877,155.575 53.5,157C 55.7248,157.239 56.0581,156.405 54.5,154.5C 57.7449,151.689 57.7449,148.689 54.5,145.5C 54.5,145.167 54.5,144.833 54.5,144.5C 56.3747,146.078 57.7081,145.745 58.5,143.5 Z"/></g>
<g><path style="opacity:1" fill="#212a25" d="M 29.5,153.5 C 31.3519,152.911 33.1852,152.244 35,151.5C 37.5243,155.437 36.691,158.103 32.5,159.5C 28.8067,160.117 25.1401,160.283 21.5,160C 22.7101,158.961 23.7101,157.794 24.5,156.5C 25.5,156.5 26.5,156.5 27.5,156.5C 27.634,154.708 27.3007,153.042 26.5,151.5C 26.369,150.761 26.5357,150.094 27,149.5C 27.9344,150.858 28.7677,152.192 29.5,153.5 Z"/></g>
<g><path style="opacity:1" fill="#4b7c65" d="M 14.5,152.5 C 16.3138,152.772 18.3138,152.939 20.5,153C 23.4823,156.055 22.8156,158.055 18.5,159C 16.1902,159.497 13.8568,159.663 11.5,159.5C 11.5,158.5 11.5,157.5 11.5,156.5C 12.5,156.5 13.5,156.5 14.5,156.5C 14.5,155.167 14.5,153.833 14.5,152.5 Z"/></g>
<g><path style="opacity:1" fill="#aab4b0" d="M 6.5,158.5 C 8.04814,158.821 8.71481,159.821 8.5,161.5C 27.8333,161.5 47.1667,161.5 66.5,161.5C 73.1667,161.5 79.8333,161.5 86.5,161.5C 60.3386,162.498 34.0053,162.831 7.5,162.5C 7.56745,161.041 7.23411,159.708 6.5,158.5 Z"/></g>
</svg>
